<svg xmlns="http://www.w3.org/2000/svg" xmlns:xlink="http://www.w3.org/1999/xlink" contentStyleType="text/css" height="898px" preserveAspectRatio="none" style="width:1015px;height:898px;background:#FFFFFF;" version="1.1" viewBox="0 0 1015 898" width="1015px" zoomAndPan="magnify"><title>S&#233;quence &#8212; Authentification (personnel et client)</title><defs/><g><text fill="#000000" font-family="sans-serif" font-size="14" font-weight="bold" lengthAdjust="spacing" textLength="331.8096" x="340.4668" y="29.5332">S&#233;quence &#8212; Authentification (personnel et client)</text><rect fill="#FFFFFF" height="550.9688" style="stroke:#181818;stroke-width:1;" width="10" x="308.8921" y="153.5703"/><rect fill="#FFFFFF" height="333.1875" style="stroke:#181818;stroke-width:1;" width="10" x="678.061" y="183.9219"/><rect fill="none" height="280.8359" style="stroke:#000000;stroke-width:1.5;" width="759.9326" x="239.4199" y="229.2734"/><rect fill="none" height="125.2422" style="stroke:#000000;stroke-width:1.5;" width="739.9326" x="249.4199" y="377.8672"/><rect fill="none" height="173.4297" style="stroke:#000000;stroke-width:1.5;" width="378.3643" x="10" y="524.1094"/><rect fill="none" height="94.8906" style="stroke:#000000;stroke-width:1.5;" width="358.3643" x="20" y="549.4609"/><line style="stroke:#181818;stroke-width:0.5;stroke-dasharray:5.0,5.0;" x1="64" x2="64" y1="121.2188" y2="816.2969"/><line style="stroke:#181818;stroke-width:0.5;stroke-dasharray:5.0,5.0;" x1="313.4199" x2="313.4199" y1="121.2188" y2="816.2969"/><line style="stroke:#181818;stroke-width:0.5;stroke-dasharray:5.0,5.0;" x1="682.3198" x2="682.3198" y1="121.2188" y2="816.2969"/><line style="stroke:#181818;stroke-width:0.5;stroke-dasharray:5.0,5.0;" x1="938.0908" x2="938.0908" y1="121.2188" y2="816.2969"/><text fill="#000000" font-family="sans-serif" font-size="14" lengthAdjust="spacing" textLength="62.2412" x="30" y="118.1426">Utilisateur</text><ellipse cx="64.1206" cy="52.1094" fill="#E2E2F0" rx="8" ry="8" style="stroke:#181818;stroke-width:0.5;"/><path d="M64.1206,60.1094 L64.1206,87.1094 M51.1206,68.1094 L77.1206,68.1094 M64.1206,87.1094 L51.1206,102.1094 M64.1206,87.1094 L77.1206,102.1094 " fill="none" style="stroke:#181818;stroke-width:0.5;"/><text fill="#000000" font-family="sans-serif" font-size="14" lengthAdjust="spacing" textLength="62.2412" x="30" y="829.8301">Utilisateur</text><ellipse cx="64.1206" cy="841.4063" fill="#E2E2F0" rx="8" ry="8" style="stroke:#181818;stroke-width:0.5;"/><path d="M64.1206,849.4063 L64.1206,876.4063 M51.1206,857.4063 L77.1206,857.4063 M64.1206,876.4063 L51.1206,891.4063 M64.1206,876.4063 L77.1206,891.4063 " fill="none" style="stroke:#181818;stroke-width:0.5;"/><rect fill="#E2E2F0" height="31.6094" rx="2.5" ry="2.5" style="stroke:#181818;stroke-width:0.5;" width="108.9443" x="259.4199" y="88.6094"/><text fill="#000000" font-family="sans-serif" font-size="14" lengthAdjust="spacing" textLength="94.9443" x="266.4199" y="110.1426">LoginController</text><rect fill="#E2E2F0" height="31.6094" rx="2.5" ry="2.5" style="stroke:#181818;stroke-width:0.5;" width="108.9443" x="259.4199" y="815.2969"/><text fill="#000000" font-family="sans-serif" font-size="14" lengthAdjust="spacing" textLength="94.9443" x="266.4199" y="836.8301">LoginController</text><rect fill="#E2E2F0" height="31.6094" rx="2.5" ry="2.5" style="stroke:#181818;stroke-width:0.5;" width="159.4824" x="603.3198" y="88.6094"/><text fill="#000000" font-family="sans-serif" font-size="14" lengthAdjust="spacing" textLength="145.4824" x="610.3198" y="110.1426">UserDetailsServiceImpl</text><rect fill="#E2E2F0" height="31.6094" rx="2.5" ry="2.5" style="stroke:#181818;stroke-width:0.5;" width="159.4824" x="603.3198" y="815.2969"/><text fill="#000000" font-family="sans-serif" font-size="14" lengthAdjust="spacing" textLength="145.4824" x="610.3198" y="836.8301">UserDetailsServiceImpl</text><text fill="#000000" font-family="sans-serif" font-size="14" lengthAdjust="spacing" textLength="76.2617" x="897.0908" y="118.1426">PostgreSQL</text><path d="M920.2217,67.6094 C920.2217,57.6094 938.2217,57.6094 938.2217,57.6094 C938.2217,57.6094 956.2217,57.6094 956.2217,67.6094 L956.2217,93.6094 C956.2217,103.6094 938.2217,103.6094 938.2217,103.6094 C938.2217,103.6094 920.2217,103.6094 920.2217,93.6094 L920.2217,67.6094 " fill="#E2E2F0" style="stroke:#181818;stroke-width:1.5;"/><path d="M920.2217,67.6094 C920.2217,77.6094 938.2217,77.6094 938.2217,77.6094 C938.2217,77.6094 956.2217,77.6094 956.2217,67.6094 " fill="none" style="stroke:#181818;stroke-width:1.5;"/><text fill="#000000" font-family="sans-serif" font-size="14" lengthAdjust="spacing" textLength="76.2617" x="897.0908" y="829.8301">PostgreSQL</text><path d="M920.2217,842.9063 C920.2217,832.9063 938.2217,832.9063 938.2217,832.9063 C938.2217,832.9063 956.2217,832.9063 956.2217,842.9063 L956.2217,868.9063 C956.2217,878.9063 938.2217,878.9063 938.2217,878.9063 C938.2217,878.9063 920.2217,878.9063 920.2217,868.9063 L920.2217,842.9063 " fill="#E2E2F0" style="stroke:#181818;stroke-width:1.5;"/><path d="M920.2217,842.9063 C920.2217,852.9063 938.2217,852.9063 938.2217,852.9063 C938.2217,852.9063 956.2217,852.9063 956.2217,842.9063 " fill="none" style="stroke:#181818;stroke-width:1.5;"/><rect fill="#FFFFFF" height="550.9688" style="stroke:#181818;stroke-width:1;" width="10" x="308.8921" y="153.5703"/><rect fill="#FFFFFF" height="333.1875" style="stroke:#181818;stroke-width:1;" width="10" x="678.061" y="183.9219"/><polygon fill="#181818" points="296.8921,149.5703,306.8921,153.5703,296.8921,157.5703,300.8921,153.5703" style="stroke:#181818;stroke-width:1;"/><line style="stroke:#181818;stroke-width:1;" x1="64.1206" x2="302.8921" y1="153.5703" y2="153.5703"/><text fill="#000000" font-family="sans-serif" font-size="13" lengthAdjust="spacing" textLength="223.2725" x="71.1206" y="148.7139">POST /login (identifiant, mot de passe)</text><polygon fill="#181818" points="666.061,179.9219,676.061,183.9219,666.061,187.9219,670.061,183.9219" style="stroke:#181818;stroke-width:1;"/><line style="stroke:#181818;stroke-width:1;" x1="318.8921" x2="672.061" y1="183.9219" y2="183.9219"/><text fill="#000000" font-family="sans-serif" font-size="13" lengthAdjust="spacing" textLength="191.4707" x="325.8921" y="179.0654">loadUserByUsername(identifiant)</text><polygon fill="#181818" points="926.2217,210.2734,936.2217,214.2734,926.2217,218.2734,930.2217,214.2734" style="stroke:#181818;stroke-width:1;"/><line style="stroke:#181818;stroke-width:1;" x1="688.061" x2="932.2217" y1="214.2734" y2="214.2734"/><text fill="#000000" font-family="sans-serif" font-size="13" lengthAdjust="spacing" textLength="214.938" x="695.061" y="209.417">SELECT user WHERE username = ?</text><path d="M239.4199,229.2734 L299.5908,229.2734 L299.5908,237.625 L289.5908,247.625 L239.4199,247.625 L239.4199,229.2734 " fill="#EEEEEE" style="stroke:#000000;stroke-width:1.5;"/><rect fill="none" height="280.8359" style="stroke:#000000;stroke-width:1.5;" width="759.9326" x="239.4199" y="229.2734"/><text fill="#000000" font-family="sans-serif" font-size="13" font-weight="bold" lengthAdjust="spacing" textLength="15.1709" x="254.4199" y="243.7686">alt</text><text fill="#000000" font-family="sans-serif" font-size="11" font-weight="bold" lengthAdjust="spacing" textLength="97.1846" x="314.5908" y="242.6924">[Personnel trouv&#233;]</text><polygon fill="#181818" points="699.061,265.9766,689.061,269.9766,699.061,273.9766,695.061,269.9766" style="stroke:#181818;stroke-width:1;"/><line style="stroke:#181818;stroke-width:1;stroke-dasharray:2.0,2.0;" x1="693.061" x2="937.2217" y1="269.9766" y2="269.9766"/><text fill="#000000" font-family="sans-serif" font-size="13" lengthAdjust="spacing" textLength="208.0952" x="705.061" y="265.1201">User (passwordHash, role, enabled)</text><polygon fill="#181818" points="329.8921,296.3281,319.8921,300.3281,329.8921,304.3281,325.8921,300.3281" style="stroke:#181818;stroke-width:1;"/><line style="stroke:#181818;stroke-width:1;stroke-dasharray:2.0,2.0;" x1="323.8921" x2="677.061" y1="300.3281" y2="300.3281"/><text fill="#000000" font-family="sans-serif" font-size="13" lengthAdjust="spacing" textLength="335.1689" x="335.8921" y="295.4717">SecurityUser (ROLE_ADMIN / AGENT / CHEF_AGENCE)</text><line style="stroke:#000000;stroke-width:1;stroke-dasharray:2.0,2.0;" x1="239.4199" x2="999.3525" y1="309.3281" y2="309.3281"/><text fill="#000000" font-family="sans-serif" font-size="11" font-weight="bold" lengthAdjust="spacing" textLength="122.853" x="244.4199" y="320.7471">[Personnel introuvable]</text><polygon fill="#181818" points="926.2217,358.8672,936.2217,362.8672,926.2217,366.8672,930.2217,362.8672" style="stroke:#181818;stroke-width:1;"/><line style="stroke:#181818;stroke-width:1;" x1="688.061" x2="932.2217" y1="362.8672" y2="362.8672"/><text fill="#000000" font-family="sans-serif" font-size="13" lengthAdjust="spacing" textLength="226.1606" x="695.061" y="341.6592">SELECT client WHERE portal_enabled</text><text fill="#000000" font-family="sans-serif" font-size="13" lengthAdjust="spacing" textLength="208.8062" x="695.061" y="358.0107">AND (cin = ? OR client_number = ?)</text><path d="M249.4199,377.8672 L309.5908,377.8672 L309.5908,386.2188 L299.5908,396.2188 L249.4199,396.2188 L249.4199,377.8672 " fill="#EEEEEE" style="stroke:#000000;stroke-width:1.5;"/><rect fill="none" height="125.2422" style="stroke:#000000;stroke-width:1.5;" width="739.9326" x="249.4199" y="377.8672"/><text fill="#000000" font-family="sans-serif" font-size="13" font-weight="bold" lengthAdjust="spacing" textLength="15.1709" x="264.4199" y="392.3623">alt</text><text fill="#000000" font-family="sans-serif" font-size="11" font-weight="bold" lengthAdjust="spacing" textLength="100.2246" x="324.5908" y="391.2861">[Client portail actif]</text><polygon fill="#181818" points="699.061,414.5703,689.061,418.5703,699.061,422.5703,695.061,418.5703" style="stroke:#181818;stroke-width:1;"/><line style="stroke:#181818;stroke-width:1;stroke-dasharray:2.0,2.0;" x1="693.061" x2="937.2217" y1="418.5703" y2="418.5703"/><text fill="#000000" font-family="sans-serif" font-size="13" lengthAdjust="spacing" textLength="185.6689" x="705.061" y="413.7139">Client (passwordHash, ACTIVE)</text><polygon fill="#181818" points="329.8921,444.9219,319.8921,448.9219,329.8921,452.9219,325.8921,448.9219" style="stroke:#181818;stroke-width:1;"/><line style="stroke:#181818;stroke-width:1;stroke-dasharray:2.0,2.0;" x1="323.8921" x2="677.061" y1="448.9219" y2="448.9219"/><text fill="#000000" font-family="sans-serif" font-size="13" lengthAdjust="spacing" textLength="181.3271" x="335.8921" y="444.0654">SecurityClient (ROLE_CLIENT)</text><line style="stroke:#000000;stroke-width:1;stroke-dasharray:2.0,2.0;" x1="249.4199" x2="989.3525" y1="457.9219" y2="457.9219"/><text fill="#000000" font-family="sans-serif" font-size="11" font-weight="bold" lengthAdjust="spacing" textLength="105.7031" x="254.4199" y="469.3408">[Identifiant inconnu]</text><polygon fill="#181818" points="329.8921,491.1094,319.8921,495.1094,329.8921,499.1094,325.8921,495.1094" style="stroke:#181818;stroke-width:1;"/><line style="stroke:#181818;stroke-width:1;stroke-dasharray:2.0,2.0;" x1="323.8921" x2="677.061" y1="495.1094" y2="495.1094"/><text fill="#000000" font-family="sans-serif" font-size="13" lengthAdjust="spacing" textLength="174.1479" x="335.8921" y="490.2529">UsernameNotFoundException</text><path d="M10,524.1094 L70.1709,524.1094 L70.1709,532.4609 L60.1709,542.4609 L10,542.4609 L10,524.1094 " fill="#EEEEEE" style="stroke:#000000;stroke-width:1.5;"/><rect fill="none" height="173.4297" style="stroke:#000000;stroke-width:1.5;" width="378.3643" x="10" y="524.1094"/><text fill="#000000" font-family="sans-serif" font-size="13" font-weight="bold" lengthAdjust="spacing" textLength="15.1709" x="25" y="538.6045">alt</text><text fill="#000000" font-family="sans-serif" font-size="11" font-weight="bold" lengthAdjust="spacing" textLength="187.0376" x="85.1709" y="537.5283">[Identifiants valides et compte actif]</text><path d="M20,549.4609 L80.1709,549.4609 L80.1709,557.8125 L70.1709,567.8125 L20,567.8125 L20,549.4609 " fill="#EEEEEE" style="stroke:#000000;stroke-width:1.5;"/><rect fill="none" height="94.8906" style="stroke:#000000;stroke-width:1.5;" width="358.3643" x="20" y="549.4609"/><text fill="#000000" font-family="sans-serif" font-size="13" font-weight="bold" lengthAdjust="spacing" textLength="15.1709" x="35" y="563.9561">alt</text><text fill="#000000" font-family="sans-serif" font-size="11" font-weight="bold" lengthAdjust="spacing" textLength="83.7192" x="95.1709" y="562.8799">[ROLE_CLIENT]</text><polygon fill="#181818" points="75.1206,586.1641,65.1206,590.1641,75.1206,594.1641,71.1206,590.1641" style="stroke:#181818;stroke-width:1;"/><line style="stroke:#181818;stroke-width:1;stroke-dasharray:2.0,2.0;" x1="69.1206" x2="307.8921" y1="590.1641" y2="590.1641"/><text fill="#000000" font-family="sans-serif" font-size="13" lengthAdjust="spacing" textLength="170.5488" x="81.1206" y="585.3076">Redirection /portal/dashboard</text><line style="stroke:#000000;stroke-width:1;stroke-dasharray:2.0,2.0;" x1="20" x2="378.3643" y1="599.1641" y2="599.1641"/><text fill="#000000" font-family="sans-serif" font-size="11" font-weight="bold" lengthAdjust="spacing" textLength="60.5107" x="25" y="610.583">[Personnel]</text><polygon fill="#181818" points="75.1206,632.3516,65.1206,636.3516,75.1206,640.3516,71.1206,636.3516" style="stroke:#181818;stroke-width:1;"/><line style="stroke:#181818;stroke-width:1;stroke-dasharray:2.0,2.0;" x1="69.1206" x2="307.8921" y1="636.3516" y2="636.3516"/><text fill="#000000" font-family="sans-serif" font-size="13" lengthAdjust="spacing" textLength="134.418" x="81.1206" y="631.4951">Redirection /dashboard</text><line style="stroke:#000000;stroke-width:1;stroke-dasharray:2.0,2.0;" x1="10" x2="388.3643" y1="652.3516" y2="652.3516"/><text fill="#000000" font-family="sans-serif" font-size="11" font-weight="bold" lengthAdjust="spacing" textLength="227.9976" x="15" y="663.7705">[Identifiants invalides ou compte d&#233;sactiv&#233;]</text><polygon fill="#181818" points="75.1206,685.5391,65.1206,689.5391,75.1206,693.5391,71.1206,689.5391" style="stroke:#181818;stroke-width:1;"/><line style="stroke:#181818;stroke-width:1;stroke-dasharray:2.0,2.0;" x1="69.1206" x2="307.8921" y1="689.5391" y2="689.5391"/><text fill="#000000" font-family="sans-serif" font-size="13" lengthAdjust="spacing" textLength="220.7715" x="81.1206" y="684.6826">Page login + &#171; Identifiants incorrects &#187;</text><path d="M612,709.5391 L612,800.5391 L1008,800.5391 L1008,719.5391 L998,709.5391 L612,709.5391 " fill="#FEFFDD" style="stroke:#181818;stroke-width:0.5;"/><path d="M998,709.5391 L998,719.5391 L1008,719.5391 L998,709.5391 " fill="#FEFFDD" style="stroke:#181818;stroke-width:0.5;"/><text fill="#000000" font-family="sans-serif" font-size="13" lengthAdjust="spacing" textLength="179.9053" x="618" y="728.0342">Mot de passe v&#233;rifi&#233; via BCrypt</text><text fill="#000000" font-family="sans-serif" font-size="13" lengthAdjust="spacing" textLength="216.8042" x="618" y="744.3857">Page /login unique (ic&#244;nes Bootstrap)</text><text fill="#000000" font-family="sans-serif" font-size="13" lengthAdjust="spacing" textLength="232.356" x="618" y="760.7373">Personnel &#8594; /dashboard (sidebar bleue)</text><text fill="#000000" font-family="sans-serif" font-size="13" lengthAdjust="spacing" textLength="277.1387" x="618" y="777.0889">Client &#8594; /portal/dashboard (sidebar teal, cloche)</text><text fill="#000000" font-family="sans-serif" font-size="13" lengthAdjust="spacing" textLength="375.7432" x="618" y="793.4404">D&#233;mo : DemoPortalSync active le portail (CD789012, BE123456)</text><!--SRC=[VLJBZXCn4BpxArfxIaHMOPSt4g1aPc0ZPRCXiu4BKkJCz6Oj77kmFGcvSU8343yHSUN6RVCd-oMqdTSaI1poT5LtLNLxx6UX2cxu5Emjp_LSg0dSS6cHsTs9GLjePV4IhUKJRAFKyvOnUWxEbCYO4quYfAlbbn9LXd3_xIUqIdUBoeaRaN4dj89QWSPgfL02EiYaeDCwOpnpsi3G2IaiTrWQu1Q6Z1exaOc2AmSdNJqHAjBA6IqbcXCFYGuXGuicHiU5j2cQcSYmCoraGAOivuwFkKKuwMlh9WRJzzrm5BSP6yBfQuZW9VIlqcjeIjyBQY9VYwVY3PXg1pb2mQt5kbSiPYIL94IUcn9NQfvx2Us5VrTyYjKA5KxAMEf9SPjOQT9DecieYG8VBv914hvwDho2DunB1_rTQ6I-dAsM33ptTDFNTwDaITXSc_o2szi6K4ZO05HyB36l4puDS6ynnQmqmYtMjC5LDncruijE3vhGUfVqo3v45ydRaVyH9NM6j0SL2K854RxmkkoXZ_LCDquARHoNeusCJwhLYw6MKRJa3Au66_18bTCnQQ4_lLBlE5fN2NmXmITtGqS7jZUO8-EjwBhp8Qa7yB-UjvpWEkfsoAw71ekT_Qp8P4PkowCgsx7sj7khIvKdNpCi_5xx4Yfd_fLZTSpUIwMkXHcNj1CsRB-U5eJQUlFGYgpGEWgjXzHwWBamc8LBr5p7sip9y5XpasyTx8RqF_81oui-ycx9_5QbBhSgyzNI1cDX-VQb-_GeWFLrUG1tluuBPThunXRk_Xod4p6cD7tg6Oq-RVXh271PkMH0lGoLMYrX9ZYq8xCe7652oyqLBPMWnmtTr6prMv7WjjREEiCBFzNzpjv__r4n3ZLBxiRS06rbYHwwsOk0Eqvt3tV8POEMLcUtWHMlbbDD8SGurVt0IXSg2nETKIguszzQ53zx_kBXsNa3sidP-QF7JvxMVHxW4s1_0G00]--></g></svg>