<svg xmlns="http://www.w3.org/2000/svg" xmlns:xlink="http://www.w3.org/1999/xlink" contentStyleType="text/css" height="1116px" preserveAspectRatio="none" style="width:458px;height:1116px;background:#FFFFFF;" version="1.1" viewBox="0 0 458 1116" width="458px" zoomAndPan="magnify"><title>Gestion des clients et comptes</title><defs/><g><text fill="#000000" font-family="sans-serif" font-size="14" font-weight="bold" lengthAdjust="spacing" textLength="206.1719" x="118.9141" y="24.5332">Gestion des clients et comptes</text><!--cluster ACC--><g id="cluster_ACC"><rect fill="none" height="152" rx="2.5" ry="2.5" style="stroke:#181818;stroke-width:1;" width="176" x="243.5" y="45.6094"/><text fill="#000000" font-family="sans-serif" font-size="12" font-weight="bold" lengthAdjust="spacing" textLength="104.0684" x="279.4658" y="60.0664">Acc&#232;s au syst&#232;me</text></g><!--cluster CLI--><g id="cluster_CLI"><rect fill="none" height="323" rx="2.5" ry="2.5" style="stroke:#181818;stroke-width:1;" width="210" x="226.5" y="237.6094"/><text fill="#000000" font-family="sans-serif" font-size="12" font-weight="bold" lengthAdjust="spacing" textLength="40.0078" x="311.4961" y="252.0664">Clients</text></g><!--cluster CPT--><g id="cluster_CPT"><rect fill="none" height="287" rx="2.5" ry="2.5" style="stroke:#181818;stroke-width:1;" width="208" x="227.5" y="600.6094"/><text fill="#000000" font-family="sans-serif" font-size="12" font-weight="bold" lengthAdjust="spacing" textLength="51.3398" x="305.8301" y="615.0664">Comptes</text></g><!--cluster CHQ--><g id="cluster_CHQ"><rect fill="none" height="183" rx="2.5" ry="2.5" style="stroke:#181818;stroke-width:1;" width="241" x="211" y="927.6094"/><text fill="#000000" font-family="sans-serif" font-size="12" font-weight="bold" lengthAdjust="spacing" textLength="52.0078" x="305.4961" y="942.0664">Ch&#233;quier</text></g><g id="elem_UC_LOGIN"><ellipse cx="331.6012" cy="101.7296" fill="#F1F1F1" rx="58.6012" ry="14.1202" style="stroke:#181818;stroke-width:0.5;"/><text fill="#000000" font-family="sans-serif" font-size="12" lengthAdjust="spacing" textLength="69.668" x="296.4697" y="104.7041">S'authentifier</text></g><g id="elem_UC_LOGOUT"><ellipse cx="331.5794" cy="150.8253" fill="#F1F1F1" rx="64.0794" ry="15.2159" style="stroke:#181818;stroke-width:0.5;"/><text fill="#000000" font-family="sans-serif" font-size="12" lengthAdjust="spacing" textLength="84.0586" x="289.5501" y="153.7354">Se d&#233;connecter</text></g><g id="elem_UC_C_ADD"><ellipse cx="331.3658" cy="295.4825" fill="#F1F1F1" rx="64.8658" ry="15.3732" style="stroke:#181818;stroke-width:0.5;"/><text fill="#000000" font-family="sans-serif" font-size="12" lengthAdjust="spacing" textLength="86.0508" x="288.3404" y="298.3927">Ajouter un client</text></g><g id="elem_UC_C_EDIT"><ellipse cx="331.7273" cy="346.8548" fill="#F1F1F1" rx="66.7273" ry="15.7455" style="stroke:#181818;stroke-width:0.5;"/><text fill="#000000" font-family="sans-serif" font-size="12" lengthAdjust="spacing" textLength="90.709" x="286.3728" y="349.765">Modifier un client</text></g><g id="elem_UC_C_VIEW"><ellipse cx="331.2946" cy="400.6683" fill="#F1F1F1" rx="80.7946" ry="18.5589" style="stroke:#181818;stroke-width:0.5;"/><text fill="#000000" font-family="sans-serif" font-size="12" lengthAdjust="spacing" textLength="124.0605" x="269.2643" y="403.5785">Consulter la fiche client</text></g><g id="elem_UC_C_SEARCH"><ellipse cx="331.2519" cy="456.4598" fill="#F1F1F1" rx="74.7519" ry="17.3504" style="stroke:#181818;stroke-width:0.5;"/><text fill="#000000" font-family="sans-serif" font-size="12" lengthAdjust="spacing" textLength="110.0566" x="276.2236" y="459.3699">Rechercher un client</text></g><g id="elem_UC_C_STATUS"><ellipse cx="331.6167" cy="511.7327" fill="#F1F1F1" rx="73.6167" ry="17.1233" style="stroke:#181818;stroke-width:0.5;"/><text fill="#000000" font-family="sans-serif" font-size="12" lengthAdjust="spacing" textLength="107.3789" x="277.9272" y="514.6429">G&#233;rer le statut client</text></g><g id="elem_UC_A_OPEN"><ellipse cx="331.262" cy="658.4618" fill="#F1F1F1" rx="67.262" ry="15.8524" style="stroke:#181818;stroke-width:0.5;"/><text fill="#000000" font-family="sans-serif" font-size="12" lengthAdjust="spacing" textLength="92.0332" x="285.2454" y="661.3719">Ouvrir un compte</text></g><g id="elem_UC_A_VIEW"><ellipse cx="331.5362" cy="712.5166" fill="#F1F1F1" rx="75.0362" ry="17.4072" style="stroke:#181818;stroke-width:0.5;"/><text fill="#000000" font-family="sans-serif" font-size="12" lengthAdjust="spacing" textLength="110.7246" x="276.1739" y="715.4268">Consulter un compte</text></g><g id="elem_UC_A_LIST"><ellipse cx="331.3647" cy="774.4552" fill="#F1F1F1" rx="79.8647" ry="24.3458" style="stroke:#181818;stroke-width:0.5;"/><text fill="#000000" font-family="sans-serif" font-size="12" lengthAdjust="spacing" textLength="96.7031" x="283.0132" y="769.8184">Lister les comptes</text><text fill="#000000" font-family="sans-serif" font-size="12" lengthAdjust="spacing" textLength="53.6602" x="304.5346" y="784.9122">d'un client</text></g><g id="elem_UC_A_STATUS"><ellipse cx="331.4692" cy="837.7032" fill="#F1F1F1" rx="78.4692" ry="18.0938" style="stroke:#181818;stroke-width:0.5;"/><text fill="#000000" font-family="sans-serif" font-size="12" lengthAdjust="spacing" textLength="118.7168" x="272.1108" y="840.6134">G&#233;rer le statut compte</text></g><g id="elem_UC_CHQ_ORDER"><ellipse cx="331.32" cy="989.3734" fill="#F1F1F1" rx="84.32" ry="19.264" style="stroke:#181818;stroke-width:0.5;"/><text fill="#000000" font-family="sans-serif" font-size="12" lengthAdjust="spacing" textLength="132.0703" x="265.2849" y="992.2835">Commander un ch&#233;quier</text></g><g id="elem_UC_CHQ_TRACK"><ellipse cx="331.3837" cy="1053.4552" fill="#F1F1F1" rx="96.3837" ry="24.3458" style="stroke:#181818;stroke-width:0.5;"/><text fill="#000000" font-family="sans-serif" font-size="12" lengthAdjust="spacing" textLength="120.0645" x="271.3514" y="1048.8184">Suivre une commande</text><text fill="#000000" font-family="sans-serif" font-size="12" lengthAdjust="spacing" textLength="62.7129" x="300.0272" y="1063.9122">de ch&#233;quier</text></g><!--entity personnel--><g id="elem_personnel"><ellipse cx="96.5039" cy="475.1094" fill="#F1F1F1" rx="8" ry="8" style="stroke:#181818;stroke-width:0.5;"/><path d="M96.5039,483.1094 L96.5039,510.1094 M83.5039,491.1094 L109.5039,491.1094 M96.5039,510.1094 L83.5039,525.1094 M96.5039,510.1094 L109.5039,525.1094 " fill="none" style="stroke:#181818;stroke-width:0.5;"/><text fill="#000000" font-family="sans-serif" font-size="12" lengthAdjust="spacing" textLength="54.0352" x="66" y="539.0664">Personnel</text><text fill="#000000" font-family="sans-serif" font-size="12" lengthAdjust="spacing" textLength="61.0078" x="66" y="554.1602">de l'agence</text></g><g id="elem_GMN3"><path d="M6,576.6094 L6,616.7969 A0,0 0 0 0 6,616.7969 L187.4121,616.7969 A0,0 0 0 0 187.4121,616.7969 L187.4121,586.6094 L177.4121,576.6094 L101,576.6094 L97,557.0994 L93,576.6094 L6,576.6094 A0,0 0 0 0 6,576.6094 " fill="#FEFFDD" style="stroke:#181818;stroke-width:0.5;"/><path d="M177.4121,576.6094 L177.4121,586.6094 L187.4121,586.6094 L177.4121,576.6094 " fill="#FEFFDD" style="stroke:#181818;stroke-width:0.5;"/><text fill="#000000" font-family="sans-serif" font-size="12" lengthAdjust="spacing" textLength="120.0469" x="12" y="594.0664">R&#244;les : administrateur,</text><text fill="#000000" font-family="sans-serif" font-size="12" lengthAdjust="spacing" textLength="160.4121" x="12" y="609.1602">agent bancaire, chef d'agence</text></g><!--link ACC to CLI--><!--link CLI to CPT--><!--link CPT to CHQ--><!--link personnel to UC_LOGIN--><g id="link_personnel_UC_LOGIN"><path d="M77,466.5594 C77,360.0494 77,101.6094 77,101.6094 C77,101.6094 191.63,101.6094 266.79,101.6094 " fill="none" id="personnel-to-UC_LOGIN" style="stroke:#181818;stroke-width:1;"/><polygon fill="#181818" points="272.79,101.6094,263.79,97.6094,267.79,101.6094,263.79,105.6094,272.79,101.6094" style="stroke:#181818;stroke-width:1;"/></g><!--link personnel to UC_LOGOUT--><g id="link_personnel_UC_LOGOUT"><path d="M87,466.2494 C87,369.2994 87,150.6094 87,150.6094 C87,150.6094 188.82,150.6094 261.26,150.6094 " fill="none" id="personnel-to-UC_LOGOUT" style="stroke:#181818;stroke-width:1;"/><polygon fill="#181818" points="267.26,150.6094,258.26,146.6094,262.26,150.6094,258.26,154.6094,267.26,150.6094" style="stroke:#181818;stroke-width:1;"/></g><!--link personnel to UC_C_ADD--><g id="link_personnel_UC_C_ADD"><path d="M97,466.5894 C97,403.2894 97,295.6094 97,295.6094 C97,295.6094 191.09,295.6094 260.49,295.6094 " fill="none" id="personnel-to-UC_C_ADD" style="stroke:#181818;stroke-width:1;"/><polygon fill="#181818" points="266.49,295.6094,257.49,291.6094,261.49,295.6094,257.49,299.6094,266.49,295.6094" style="stroke:#181818;stroke-width:1;"/></g><!--link personnel to UC_C_EDIT--><g id="link_personnel_UC_C_EDIT"><path d="M107,466.5194 C107,417.6694 107,346.6094 107,346.6094 C107,346.6094 192.57,346.6094 258.75,346.6094 " fill="none" id="personnel-to-UC_C_EDIT" style="stroke:#181818;stroke-width:1;"/><polygon fill="#181818" points="264.75,346.6094,255.75,342.6094,259.75,346.6094,255.75,350.6094,264.75,346.6094" style="stroke:#181818;stroke-width:1;"/></g><!--link personnel to UC_C_VIEW--><g id="link_personnel_UC_C_VIEW"><path d="M117,466.4594 C117,435.7294 117,400.6094 117,400.6094 C117,400.6094 183.66,400.6094 244.41,400.6094 " fill="none" id="personnel-to-UC_C_VIEW" style="stroke:#181818;stroke-width:1;"/><polygon fill="#181818" points="250.41,400.6094,241.41,396.6094,245.41,400.6094,241.41,404.6094,250.41,400.6094" style="stroke:#181818;stroke-width:1;"/></g><!--link personnel to UC_C_SEARCH--><g id="link_personnel_UC_C_SEARCH"><path d="M127.22,470.3594 C167.41,470.3594 232.19,470.3594 278.97,470.3594 " fill="none" id="personnel-to-UC_C_SEARCH" style="stroke:#181818;stroke-width:1;"/><polygon fill="#181818" points="284.97,470.3594,275.97,466.3594,279.97,470.3594,275.97,474.3594,284.97,470.3594" style="stroke:#181818;stroke-width:1;"/></g><!--link personnel to UC_C_STATUS--><g id="link_personnel_UC_C_STATUS"><path d="M127.22,511.6094 C160.19,511.6094 207.76,511.6094 251.76,511.6094 " fill="none" id="personnel-to-UC_C_STATUS" style="stroke:#181818;stroke-width:1;"/><polygon fill="#181818" points="257.76,511.6094,248.76,507.6094,252.76,511.6094,248.76,515.6094,257.76,511.6094" style="stroke:#181818;stroke-width:1;"/></g><!--link personnel to UC_A_OPEN--><g id="link_personnel_UC_A_OPEN"><path d="M127.1,552.6094 C183.47,552.6094 298,552.6094 298,552.6094 C298,552.6094 298,609.3794 298,638.3094 " fill="none" id="personnel-to-UC_A_OPEN" style="stroke:#181818;stroke-width:1;"/><polygon fill="#181818" points="298,644.3094,302,635.3094,298,639.3094,294,635.3094,298,644.3094" style="stroke:#181818;stroke-width:1;"/></g><!--link personnel to UC_A_VIEW--><g id="link_personnel_UC_A_VIEW"><path d="M127.19,538.4694 C165.48,538.4694 226,538.4694 226,538.4694 C226,538.4694 226,712.6094 226,712.6094 C226,712.6094 233.18,712.6094 250.23,712.6094 " fill="none" id="personnel-to-UC_A_VIEW" style="stroke:#181818;stroke-width:1;"/><polygon fill="#181818" points="256.23,712.6094,247.23,708.6094,251.23,712.6094,247.23,716.6094,256.23,712.6094" style="stroke:#181818;stroke-width:1;"/></g><!--link personnel to UC_A_LIST--><g id="link_personnel_UC_A_LIST"><path d="M127.27,541.7494 C162.68,541.7494 216,541.7494 216,541.7494 C216,541.7494 216,774.6094 216,774.6094 C216,774.6094 225.57,774.6094 245.28,774.6094 " fill="none" id="personnel-to-UC_A_LIST" style="stroke:#181818;stroke-width:1;"/><polygon fill="#181818" points="251.28,774.6094,242.28,770.6094,246.28,774.6094,242.28,778.6094,251.28,774.6094" style="stroke:#181818;stroke-width:1;"/></g><!--link personnel to UC_A_STATUS--><g id="link_personnel_UC_A_STATUS"><path d="M127.28,545.0394 C159.98,545.0394 207,545.0394 207,545.0394 C207,545.0394 207,837.6094 207,837.6094 C207,837.6094 221.94,837.6094 246.65,837.6094 " fill="none" id="personnel-to-UC_A_STATUS" style="stroke:#181818;stroke-width:1;"/><polygon fill="#181818" points="252.65,837.6094,243.65,833.6094,247.65,837.6094,243.65,841.6094,252.65,837.6094" style="stroke:#181818;stroke-width:1;"/></g><!--link personnel to UC_CHQ_ORDER--><g id="link_personnel_UC_CHQ_ORDER"><path d="M127.2,548.3194 C156.75,548.3194 197,548.3194 197,548.3194 C197,548.3194 197,989.6094 197,989.6094 C197,989.6094 213.84,989.6094 240.7,989.6094 " fill="none" id="personnel-to-UC_CHQ_ORDER" style="stroke:#181818;stroke-width:1;"/><polygon fill="#181818" points="246.7,989.6094,237.7,985.6094,241.7,989.6094,237.7,993.6094,246.7,989.6094" style="stroke:#181818;stroke-width:1;"/></g><!--link personnel to UC_CHQ_TRACK--><g id="link_personnel_UC_CHQ_TRACK"><path d="M127.07,535.1794 C168.94,535.1794 239,535.1794 239,535.1794 C239,535.1794 239,977.2694 239,1040.2794 " fill="none" id="personnel-to-UC_CHQ_TRACK" style="stroke:#181818;stroke-width:1;"/><polygon fill="#181818" points="239,1046.2794,243,1037.2794,239,1041.2794,235,1037.2794,239,1046.2794" style="stroke:#181818;stroke-width:1;"/></g><!--SRC=[VLJBSjCm5DthA-vaaqqp0rsmOC6CnmbDXj2y75W0ar7bwrZKaO9qNIOm_Pzspn_anv3ifBLhmSARSyzzdNla0ZC2qc3aDYT8fK51KYjcRwNQSyDtO7EUwfzIRI7ZXSL6PC_5BT_YYWu5Wa_aQbiq2KgdQ74FbwyQeE7gjWBVDC12AgJ37a4RodKZa6B6ouBUQqKh-GlXzILZ9Carl4Bh9tKC2wAGgCW24WYzsnDQnhWWRQ0tHsErKbXyLIb2qNS3Au4zu1Rsvn1JcX1kD97UWSuQ0O3byK_XEhm5dkwaafOC9opDXGlvKWGtN0dkTBi0aMC6wQa3GvM2hylOapJGYuGuFbZW9TY3fUF3hfuaYcFuxIgM5WMtZhVgyv9oLrvc4at5MSURwUngSjsY8QJ7H-5d5TJYpTO9ks-rZckDAauydRJxHTzrwGf0gKvQdal5csWuR38_whIQAKGT3IT9anjhPTtn7BdWa4cdJoVbqsJqkPcoHCSo_WirM8sYPJnkyg-EZyRNHx34gQHkIX8bwzLBBMgJr5hCaxOMi_BEoBfzHJlNYZQp-UWwl5-0_7ApgVDEDQazUzGvijzPCjfC9wla_ok-w1HUCJy-_YZFved7Y_QIJe4TTo-Y7ht5zRAD5vlPSZXQjinMoZk3Zez-WYgxUbF1x6GPnH_yIDxQWo-vJ5DKtwg_pC3RZtaBTl1vmlmvElXumTZJeuJ1uDtpQmZ1tlmTl7Po0AvS6y2h0mRmamb3aVeGdSZ9EG4ytEFaWG3-hmxF1mk6wcly1G00]--></g></svg>