<svg xmlns="http://www.w3.org/2000/svg" xmlns:xlink="http://www.w3.org/1999/xlink" version="1.1" data-diagram-type="DESCRIPTION" style="width:742px;height:1101px;background:#FFFFFF;" width="742px" height="1101px" viewBox="0 0 742 1101" zoomAndPan="magnify" preserveAspectRatio="none" contentStyleType="text/css"><?plantuml 1.2026.7beta3?><defs/><g><g class="title" data-source-line="11"><text x="246.1353" y="30.9951" fill="#000000" font-size="14" lengthAdjust="spacing" textLength="243.3594" font-weight="700" font-family="sans-serif">Gestion des clients et comptes</text></g><rect x="3" y="56.2969" width="726.63" height="16.6406" fill="#FFFFCC" style="stroke:#FFDD88;stroke-width:3;" rx="2.5" ry="2.5"/><text x="10" y="66.9375" fill="#000000" font-size="10" lengthAdjust="spacing" textLength="295.0049" font-family="monospace">Please use CSS style instead of skinparam padding</text><!--cluster ACC--><g class="cluster" data-qualified-name="ACC" id="ent0005" data-source-line="21"><rect x="286.66" y="294.9375" width="161.03" height="202" fill="none" style="stroke:#181818;stroke-width:1;" rx="2.5" ry="2.5"/><text x="306.967" y="316.0762" fill="#000000" font-size="12" lengthAdjust="spacing" textLength="120.416" font-weight="700" font-family="sans-serif">Accès au système</text></g><!--cluster CLI--><g class="cluster" data-qualified-name="CLI" id="ent0008" data-source-line="25"><rect x="516.59" y="81.9375" width="212.04" height="415" fill="none" style="stroke:#181818;stroke-width:1;" rx="2.5" ry="2.5"/><text x="599.3131" y="103.0762" fill="#000000" font-size="12" lengthAdjust="spacing" textLength="46.5938" font-weight="700" font-family="sans-serif">Clients</text></g><!--cluster CPT--><g class="cluster" data-qualified-name="CPT" id="ent0015" data-source-line="34"><rect x="257.77" y="544.9375" width="218.82" height="514" fill="none" style="stroke:#181818;stroke-width:1;" rx="2.5" ry="2.5"/><text x="302.6331" y="566.0762" fill="#000000" font-size="12" lengthAdjust="spacing" textLength="129.0938" font-weight="700" font-family="sans-serif">Comptes bancaires</text></g><!--entity UC_LOGIN--><g class="entity" data-qualified-name="ACC.UC_LOGIN" id="ent0006" data-source-line="22"><ellipse cx="367.1804" cy="455.9395" rx="49.4304" ry="17.332" fill="#F1F1F1" style="stroke:#181818;stroke-width:0.5;"/><text x="326.6365" y="459.4239" fill="#000000" font-size="12" lengthAdjust="spacing" textLength="81.0879" font-family="sans-serif">S'authentifier</text></g><!--entity UC_LOGOUT--><g class="entity" data-qualified-name="ACC.UC_LOGOUT" id="ent0007" data-source-line="23"><ellipse cx="367.1787" cy="386.9327" rx="56.5187" ry="17.5852" fill="#F1F1F1" style="stroke:#181818;stroke-width:0.5;"/><text x="320.1953" y="390.4171" fill="#000000" font-size="12" lengthAdjust="spacing" textLength="93.9668" font-family="sans-serif">Se déconnecter</text></g><!--entity UC_C_ADD--><g class="entity" data-qualified-name="CLI.UC_C_ADD" id="ent0009" data-source-line="26"><ellipse cx="622.611" cy="173.9415" rx="59.461" ry="17.674" fill="#F1F1F1" style="stroke:#181818;stroke-width:0.5;"/><text x="572.9557" y="177.4259" fill="#000000" font-size="12" lengthAdjust="spacing" textLength="99.3105" font-family="sans-serif">Ajouter un client</text></g><!--entity UC_C_EDIT--><g class="entity" data-qualified-name="CLI.UC_C_EDIT" id="ent0010" data-source-line="27"><ellipse cx="622.6099" cy="242.9377" rx="62.2199" ry="17.7502" fill="#F1F1F1" style="stroke:#181818;stroke-width:0.5;"/><text x="570.4497" y="246.4221" fill="#000000" font-size="12" lengthAdjust="spacing" textLength="104.3203" font-family="sans-serif">Modifier un client</text></g><!--entity UC_C_VIEW--><g class="entity" data-qualified-name="CLI.UC_C_VIEW" id="ent0011" data-source-line="28"><ellipse cx="622.6119" cy="313.9419" rx="82.0219" ry="18.8044" fill="#F1F1F1" style="stroke:#181818;stroke-width:0.5;"/><text x="551.7252" y="317.4263" fill="#000000" font-size="12" lengthAdjust="spacing" textLength="141.7734" font-family="sans-serif">Consulter la fiche client</text></g><!--entity UC_C_SEARCH--><g class="entity" data-qualified-name="CLI.UC_C_SEARCH" id="ent0012" data-source-line="29"><ellipse cx="622.609" cy="384.941" rx="73.369" ry="18.0035" fill="#F1F1F1" style="stroke:#181818;stroke-width:0.5;"/><text x="560.3297" y="388.4254" fill="#000000" font-size="12" lengthAdjust="spacing" textLength="124.5586" font-family="sans-serif">Rechercher un client</text></g><!--entity UC_C_STATUS--><g class="entity" data-qualified-name="CLI.UC_C_STATUS" id="ent0013" data-source-line="30"><ellipse cx="622.6089" cy="454.939" rx="73.2689" ry="18.0015" fill="#F1F1F1" style="stroke:#181818;stroke-width:0.5;"/><text x="560.4204" y="458.4234" fill="#000000" font-size="12" lengthAdjust="spacing" textLength="124.377" font-family="sans-serif">Gérer le statut client</text></g><!--entity UC_A_OPEN--><g class="entity" data-qualified-name="CPT.UC_A_OPEN" id="ent0016" data-source-line="35"><ellipse cx="367.1847" cy="1016.9351" rx="62.8847" ry="17.7676" fill="#F1F1F1" style="stroke:#181818;stroke-width:0.5;"/><text x="314.421" y="1020.4195" fill="#000000" font-size="12" lengthAdjust="spacing" textLength="105.5273" font-family="sans-serif">Ouvrir un compte</text></g><!--entity UC_A_VIEW--><g class="entity" data-qualified-name="CPT.UC_A_VIEW" id="ent0017" data-source-line="36"><ellipse cx="367.175" cy="946.9333" rx="74.005" ry="18.0158" fill="#F1F1F1" style="stroke:#181818;stroke-width:0.5;"/><text x="304.3186" y="950.4177" fill="#000000" font-size="12" lengthAdjust="spacing" textLength="125.7129" font-family="sans-serif">Consulter un compte</text></g><!--entity UC_A_LIST--><g class="entity" data-qualified-name="CPT.UC_A_LIST" id="ent0018" data-source-line="37"><ellipse cx="367.1842" cy="870.9386" rx="64.1742" ry="24.4211" fill="#F1F1F1" style="stroke:#181818;stroke-width:0.5;"/><text x="312.446" y="871.8432" fill="#000000" font-size="12" lengthAdjust="spacing" textLength="109.4766" font-family="sans-serif">Lister les comptes</text><text x="335.734" y="885.812" fill="#000000" font-size="12" lengthAdjust="spacing" textLength="62.9004" font-family="sans-serif">d'un client</text></g><!--entity UC_A_STATUS--><g class="entity" data-qualified-name="CPT.UC_A_STATUS" id="ent0019" data-source-line="38"><ellipse cx="367.1777" cy="793.933" rx="79.7777" ry="18.3555" fill="#F1F1F1" style="stroke:#181818;stroke-width:0.5;"/><text x="298.8017" y="797.4174" fill="#000000" font-size="12" lengthAdjust="spacing" textLength="136.752" font-family="sans-serif">Gérer le statut compte</text></g><!--entity UC_CHQ_ORDER--><g class="entity" data-qualified-name="CPT.UC_CHQ_ORDER" id="ent0020" data-source-line="39"><ellipse cx="367.1805" cy="721.9396" rx="85.4105" ry="19.4821" fill="#F1F1F1" style="stroke:#181818;stroke-width:0.5;"/><text x="292.535" y="725.424" fill="#000000" font-size="12" lengthAdjust="spacing" textLength="149.291" font-family="sans-serif">Commander un chéquier</text></g><!--entity UC_CHQ_TRACK--><g class="entity" data-qualified-name="CPT.UC_CHQ_TRACK" id="ent0021" data-source-line="40"><ellipse cx="367.175" cy="643.9372" rx="77.465" ry="24.5997" fill="#F1F1F1" style="stroke:#181818;stroke-width:0.5;"/><text x="299.4377" y="645.4341" fill="#000000" font-size="12" lengthAdjust="spacing" textLength="135.4746" font-family="sans-serif">Suivre une commande</text><text x="331.5383" y="659.4028" fill="#000000" font-size="12" lengthAdjust="spacing" textLength="71.2734" font-family="sans-serif">de chéquier</text></g><!--entity personnel--><g class="entity" data-qualified-name="personnel" id="ent0001" data-source-line="13"><ellipse cx="115.8834" cy="903.4675" rx="8" ry="8" fill="#F1F1F1" style="stroke:#181818;stroke-width:0.5;"/><path d="M115.8834,911.4675 L115.8834,938.4675 M102.8834,919.4675 L128.8834,919.4675 M115.8834,938.4675 L102.8834,953.4675 M115.8834,938.4675 L128.8834,953.4675" style="stroke:#181818;stroke-width:0.5;" fill="none"/><text x="81.19" y="974.1062" fill="#000000" font-size="12" lengthAdjust="spacing" textLength="59.0742" font-family="sans-serif">Personnel</text><text x="81.19" y="988.0749" fill="#000000" font-size="12" lengthAdjust="spacing" textLength="69.3867" font-family="sans-serif">de l'agence</text></g><g class="entity" data-qualified-name="GMN2" id="ent0003" data-source-line="15"><path d="M6,1032.9675 L6,1086.905 A0,0 0 0 0 6,1086.905 L225.7656,1086.905 A0,0 0 0 0 225.7656,1086.905 L225.7656,1042.9675 L215.7656,1032.9675 L106.63,1032.9675 L102.63,999.1375 L98.63,1032.9675 L6,1032.9675 A0,0 0 0 0 6,1032.9675" style="stroke:#181818;stroke-width:0.5;" fill="#FEFFDD"/><path d="M215.7656,1032.9675 L215.7656,1042.9675 L225.7656,1042.9675 L215.7656,1032.9675" style="stroke:#181818;stroke-width:0.5;" fill="#FEFFDD"/><text x="20" y="1057.1062" fill="#000000" font-size="12" lengthAdjust="spacing" textLength="136.9395" font-family="sans-serif">Rôles : administrateur,</text><text x="20" y="1071.0749" fill="#000000" font-size="12" lengthAdjust="spacing" textLength="182.7656" font-family="sans-serif">agent bancaire, chef d'agence</text></g><!--link ACC to CLI--><!--link ACC to CPT--><!--link personnel to UC_LOGIN--><g class="link" data-entity-1="ent0001" data-entity-2="ent0006" id="lnk23" data-source-line="45" data-link-type="dependency"><path d="M116.63,894.8575 C116.63,768.4875 116.63,455.9375 116.63,455.9375 C116.63,455.9375 239.31,455.9375 312.38,455.9375" style="stroke:#181818;stroke-width:1;" fill="none" id="personnel-to-UC_LOGIN"/><polygon points="317.38,455.9375,308.38,451.9375,312.38,455.9375,308.38,459.9375,317.38,455.9375" fill="#181818" style="stroke:#181818;stroke-width:1;stroke-linejoin:miter;stroke-miterlimit:10;"/></g><!--link personnel to UC_LOGOUT--><g class="link" data-entity-1="ent0001" data-entity-2="ent0007" id="lnk24" data-source-line="46" data-link-type="dependency"><path d="M105.63,894.5075 C105.63,755.2975 105.63,386.9375 105.63,386.9375 C105.63,386.9375 228.5,386.9375 305.42,386.9375" style="stroke:#181818;stroke-width:1;" fill="none" id="personnel-to-UC_LOGOUT"/><polygon points="310.42,386.9375,301.42,382.9375,305.42,386.9375,301.42,390.9375,310.42,386.9375" fill="#181818" style="stroke:#181818;stroke-width:1;stroke-linejoin:miter;stroke-miterlimit:10;"/></g><!--link personnel to UC_C_ADD--><g class="link" data-entity-1="ent0001" data-entity-2="ent0009" id="lnk25" data-source-line="47" data-link-type="dependency"><path d="M84.63,894.7175 C84.63,721.0675 84.63,173.9375 84.63,173.9375 C84.63,173.9375 417.49,173.9375 557.72,173.9375" style="stroke:#181818;stroke-width:1;" fill="none" id="personnel-to-UC_C_ADD"/><polygon points="562.72,173.9375,553.72,169.9375,557.72,173.9375,553.72,177.9375,562.72,173.9375" fill="#181818" style="stroke:#181818;stroke-width:1;stroke-linejoin:miter;stroke-miterlimit:10;"/></g><!--link personnel to UC_C_EDIT--><g class="link" data-entity-1="ent0001" data-entity-2="ent0010" id="lnk26" data-source-line="48" data-link-type="dependency"><path d="M94.63,894.5975 C94.63,731.4475 94.63,242.9375 94.63,242.9375 C94.63,242.9375 415.11,242.9375 554.97,242.9375" style="stroke:#181818;stroke-width:1;" fill="none" id="personnel-to-UC_C_EDIT"/><polygon points="559.97,242.9375,550.97,238.9375,554.97,242.9375,550.97,246.9375,559.97,242.9375" fill="#181818" style="stroke:#181818;stroke-width:1;stroke-linejoin:miter;stroke-miterlimit:10;"/></g><!--link personnel to UC_C_VIEW--><g class="link" data-entity-1="ent0001" data-entity-2="ent0011" id="lnk27" data-source-line="49" data-link-type="dependency"><path d="M159.06,915.4975 C268.03,915.4975 545.63,915.4975 545.63,915.4975 C545.63,915.4975 545.63,391.7875 545.63,325.6975" style="stroke:#181818;stroke-width:1;" fill="none" id="personnel-to-UC_C_VIEW"/><polygon points="545.63,320.6975,541.63,329.6975,545.63,325.6975,549.63,329.6975,545.63,320.6975" fill="#181818" style="stroke:#181818;stroke-width:1;stroke-linejoin:miter;stroke-miterlimit:10;"/></g><!--link personnel to UC_C_SEARCH--><g class="link" data-entity-1="ent0001" data-entity-2="ent0012" id="lnk28" data-source-line="50" data-link-type="dependency"><path d="M158.82,908.7875 C258.39,908.7875 496.63,908.7875 496.63,908.7875 C496.63,908.7875 496.63,386.1475 496.63,386.1475 C496.63,386.1475 516.39,386.1475 543.96,386.1475" style="stroke:#181818;stroke-width:1;" fill="none" id="personnel-to-UC_C_SEARCH"/><polygon points="548.96,386.1475,539.96,382.1475,543.96,386.1475,539.96,390.1475,548.96,386.1475" fill="#181818" style="stroke:#181818;stroke-width:1;stroke-linejoin:miter;stroke-miterlimit:10;"/></g><!--link personnel to UC_C_STATUS--><g class="link" data-entity-1="ent0001" data-entity-2="ent0013" id="lnk29" data-source-line="51" data-link-type="dependency"><path d="M158.65,922.2075 C280.82,922.2075 622.63,922.2075 622.63,922.2075 C622.63,922.2075 622.63,564.6475 622.63,478.2575" style="stroke:#181818;stroke-width:1;" fill="none" id="personnel-to-UC_C_STATUS"/><polygon points="622.63,473.2575,618.63,482.2575,622.63,478.2575,626.63,482.2575,622.63,473.2575" fill="#181818" style="stroke:#181818;stroke-width:1;stroke-linejoin:miter;stroke-miterlimit:10;"/></g><!--link personnel to UC_A_OPEN--><g class="link" data-entity-1="ent0001" data-entity-2="ent0016" id="lnk30" data-source-line="52" data-link-type="dependency"><path d="M130.63,999.3375 C130.63,1008.9775 130.63,1016.0675 130.63,1016.0675 C130.63,1016.0675 229.02,1016.0675 299.1,1016.0675" style="stroke:#181818;stroke-width:1;" fill="none" id="personnel-to-UC_A_OPEN"/><polygon points="304.1,1016.0675,295.1,1012.0675,299.1,1016.0675,295.1,1020.0675,304.1,1016.0675" fill="#181818" style="stroke:#181818;stroke-width:1;stroke-linejoin:miter;stroke-miterlimit:10;"/></g><!--link personnel to UC_A_VIEW--><g class="link" data-entity-1="ent0001" data-entity-2="ent0017" id="lnk31" data-source-line="53" data-link-type="dependency"><path d="M158.8,946.9375 C195.52,946.9375 244.23,946.9375 287.92,946.9375" style="stroke:#181818;stroke-width:1;" fill="none" id="personnel-to-UC_A_VIEW"/><polygon points="292.92,946.9375,283.92,942.9375,287.92,946.9375,283.92,950.9375,292.92,946.9375" fill="#181818" style="stroke:#181818;stroke-width:1;stroke-linejoin:miter;stroke-miterlimit:10;"/></g><!--link personnel to UC_A_LIST--><g class="link" data-entity-1="ent0001" data-entity-2="ent0018" id="lnk32" data-source-line="54" data-link-type="dependency"><path d="M148.63,894.8475 C148.63,881.4575 148.63,870.7475 148.63,870.7475 C148.63,870.7475 233.32,870.7475 297.79,870.7475" style="stroke:#181818;stroke-width:1;" fill="none" id="personnel-to-UC_A_LIST"/><polygon points="302.79,870.7475,293.79,866.7475,297.79,870.7475,293.79,874.7475,302.79,870.7475" fill="#181818" style="stroke:#181818;stroke-width:1;stroke-linejoin:miter;stroke-miterlimit:10;"/></g><!--link personnel to UC_A_STATUS--><g class="link" data-entity-1="ent0001" data-entity-2="ent0019" id="lnk33" data-source-line="55" data-link-type="dependency"><path d="M158.73,902.0675 C212.74,902.0675 298.63,902.0675 298.63,902.0675 C298.63,902.0675 298.63,834.9975 298.63,808.5375" style="stroke:#181818;stroke-width:1;" fill="none" id="personnel-to-UC_A_STATUS"/><polygon points="298.63,803.5375,294.63,812.5375,298.63,808.5375,302.63,812.5375,298.63,803.5375" fill="#181818" style="stroke:#181818;stroke-width:1;stroke-linejoin:miter;stroke-miterlimit:10;"/></g><!--link personnel to UC_CHQ_ORDER--><g class="link" data-entity-1="ent0001" data-entity-2="ent0020" id="lnk34" data-source-line="56" data-link-type="dependency"><path d="M137.63,894.4675 C137.63,827.9875 137.63,721.9375 137.63,721.9375 C137.63,721.9375 211.18,721.9375 276.38,721.9375" style="stroke:#181818;stroke-width:1;" fill="none" id="personnel-to-UC_CHQ_ORDER"/><polygon points="281.38,721.9375,272.38,717.9375,276.38,721.9375,272.38,725.9375,281.38,721.9375" fill="#181818" style="stroke:#181818;stroke-width:1;stroke-linejoin:miter;stroke-miterlimit:10;"/></g><!--link personnel to UC_CHQ_TRACK--><g class="link" data-entity-1="ent0001" data-entity-2="ent0021" id="lnk35" data-source-line="57" data-link-type="dependency"><path d="M126.63,894.5075 C126.63,807.7775 126.63,643.9375 126.63,643.9375 C126.63,643.9375 214.13,643.9375 284.41,643.9375" style="stroke:#181818;stroke-width:1;" fill="none" id="personnel-to-UC_CHQ_TRACK"/><polygon points="289.41,643.9375,280.41,639.9375,284.41,643.9375,280.41,647.9375,289.41,643.9375" fill="#181818" style="stroke:#181818;stroke-width:1;stroke-linejoin:miter;stroke-miterlimit:10;"/></g><?plantuml-src XLJ1SjCm4BtxAtPwwQKv03qm79ZnE27D49eIkt009gDQwrZ4beoqRgSm_P_spX_anv1i9tLYTJZauDttzgtUxgR0Z80KQB7E2RZGc99GCZ0R8IkcMGacPrpT2Rc6Z1K6UvcAfHksnfZk2mH7P79Tz05ISJHOmPlpNb0pkN71yzUzO24aqds5e3JbgfVWcB6we0zAKYn-8xpgiqAjrPq_LJ7ENSzlWu04sVwcQDp3R443QI5GaW4aI5LP4PeWO2af3ITNg8sI4ellaYCKf_PzCiKJO0QgNIgGYX1k594gGMMz1C1o-xUm2k-0yL98OKWpmbgVsPGhHN33PCgipMUGvfW1xnG2b1nSNTklMYFbgE6F9HrymBFBS1AcwVRH0Al1t1lQFfPjbs4KTLY0sc3AZCN6fwosLII9JA1kSDVHQhwOpYu7K0I-VKhTUr8wm2wkamRySDn9rDhPGAFvR2WV_bIrhGMrxApVLOrMuNXyZFwaUDEc3puPpv9ZVAIaiIjY2GM3J5XR1xGliydNOzeIBLAxdqyedeJBwEAOCzq-QQU3O8XHJKDQ4YRNSSycDuxHjrnmZlA7lICvSXO5RRhlORk7-_NetBnAEZVtBIpgMotQbXlAJZjSBQucby4BpdZWUq_syBbTr-PrPdSMzWXE1-Q4g_aiJeB_67EarZEcrrvPCdjcRNlvzkbNtTlEwEBpQh4SJvQ7fBWMjnej0vr6mszErSjFbc7qiJFxO1BDtzt8-Hiy1C7-W64qUlzy6RwmEu91l5rZJxXPLq-yyTuJxxREbsdz6sIwiNlYVerkU9xuImhFS_2c6el_0G00?></g></svg>