<svg xmlns="http://www.w3.org/2000/svg" xmlns:xlink="http://www.w3.org/1999/xlink" version="1.1" data-diagram-type="SEQUENCE" style="width:1082px;height:1754px;background:#FFFFFF;" width="1082px" height="1754px" viewBox="0 0 1082 1754" zoomAndPan="magnify" preserveAspectRatio="none" contentStyleType="text/css"><?plantuml 1.2026.7beta3?><defs/><g><g class="title" data-source-line="4"><text x="384.4712" y="27.9951" fill="#000000" font-size="14" lengthAdjust="spacing" textLength="306.1475" font-weight="700" font-family="sans-serif">Séquence — Dépôt, retrait et virement</text></g><g><title>TransactionController</title><rect x="333.5488" y="192.8594" width="10" height="387.3984" fill="#FFFFFF" style="stroke:#181818;stroke-width:1;"/></g><g><title>TransactionController</title><rect x="333.5488" y="644.5234" width="10" height="429.5313" fill="#FFFFFF" style="stroke:#181818;stroke-width:1;"/></g><g><title>TransactionController</title><rect x="333.5488" y="1138.3203" width="10" height="458.6641" fill="#FFFFFF" style="stroke:#181818;stroke-width:1;"/></g><g><title>TransactionService</title><rect x="623.0884" y="221.9922" width="10" height="358.2656" fill="#FFFFFF" style="stroke:#181818;stroke-width:1;"/></g><g><title>TransactionService</title><rect x="623.0884" y="673.6563" width="10" height="400.3984" fill="#FFFFFF" style="stroke:#181818;stroke-width:1;"/></g><g><title>TransactionService</title><rect x="623.0884" y="1167.4531" width="10" height="429.5313" fill="#FFFFFF" style="stroke:#181818;stroke-width:1;"/></g><rect x="10" y="308.2578" width="1056.0898" height="265" fill="none" style="stroke:#000000;stroke-width:1.5;"/><rect x="10" y="802.0547" width="1056.0898" height="265" fill="none" style="stroke:#000000;stroke-width:1.5;"/><rect x="10" y="1295.8516" width="1056.0898" height="294.1328" fill="none" style="stroke:#000000;stroke-width:1.5;"/><g class="participant-lifeline" data-qualified-name="Agent" data-entity-uid="part1" id="part1-lifeline" data-source-line="6"><g><title>Agent</title><rect x="39.7197" y="118.5938" width="8" height="1553.7891" fill="#000000" fill-opacity="0.00000"/><line x1="43" y1="118.5938" x2="43" y2="1672.3828" style="stroke:#181818;stroke-width:0.5;stroke-dasharray:5,5;"/></g></g><g class="participant-lifeline" data-qualified-name="C" data-entity-uid="part2" id="part2-lifeline" data-source-line="7"><g><title>TransactionController</title><rect x="334.5488" y="118.5938" width="8" height="1553.7891" fill="#000000" fill-opacity="0.00000"/><line x1="337.8887" y1="118.5938" x2="337.8887" y2="1672.3828" style="stroke:#181818;stroke-width:0.5;stroke-dasharray:5,5;"/></g></g><g class="participant-lifeline" data-qualified-name="S" data-entity-uid="part3" id="part3-lifeline" data-source-line="8"><g><title>TransactionService</title><rect x="624.0884" y="118.5938" width="8" height="1553.7891" fill="#000000" fill-opacity="0.00000"/><line x1="627.144" y1="118.5938" x2="627.144" y2="1672.3828" style="stroke:#181818;stroke-width:0.5;stroke-dasharray:5,5;"/></g></g><g class="participant-lifeline" data-qualified-name="AUD" data-entity-uid="part4" id="part4-lifeline" data-source-line="9"><g><title>AuditService</title><rect x="874.0991" y="118.5938" width="8" height="1553.7891" fill="#000000" fill-opacity="0.00000"/><line x1="877.8706" y1="118.5938" x2="877.8706" y2="1672.3828" style="stroke:#181818;stroke-width:0.5;stroke-dasharray:5,5;"/></g></g><g class="participant-lifeline" data-qualified-name="DB" data-entity-uid="part5" id="part5-lifeline" data-source-line="10"><g><title>PostgreSQL</title><rect x="1008.7134" y="118.5938" width="8" height="1553.7891" fill="#000000" fill-opacity="0.00000"/><line x1="1012.3369" y1="118.5938" x2="1012.3369" y2="1672.3828" style="stroke:#181818;stroke-width:0.5;stroke-dasharray:5,5;"/></g></g><g class="participant participant-head" data-qualified-name="Agent" data-entity-uid="part1" id="part1-head" data-source-line="6"><text x="20" y="115.292" fill="#000000" font-size="14" lengthAdjust="spacing" textLength="41.4395" font-family="sans-serif">Agent</text><ellipse cx="43.7197" cy="50.7969" rx="8" ry="8" fill="#E2E2F0" style="stroke:#181818;stroke-width:0.5;"/><path d="M43.7197,58.7969 L43.7197,85.7969 M30.7197,66.7969 L56.7197,66.7969 M43.7197,85.7969 L30.7197,100.7969 M43.7197,85.7969 L56.7197,100.7969" style="stroke:#181818;stroke-width:0.5;" fill="none"/></g><g class="participant participant-tail" data-qualified-name="Agent" data-entity-uid="part1" id="part1-tail" data-source-line="6"><text x="20" y="1684.3779" fill="#000000" font-size="14" lengthAdjust="spacing" textLength="41.4395" font-family="sans-serif">Agent</text><ellipse cx="43.7197" cy="1696.1797" rx="8" ry="8" fill="#E2E2F0" style="stroke:#181818;stroke-width:0.5;"/><path d="M43.7197,1704.1797 L43.7197,1731.1797 M30.7197,1712.1797 L56.7197,1712.1797 M43.7197,1731.1797 L30.7197,1746.1797 M43.7197,1731.1797 L56.7197,1746.1797" style="stroke:#181818;stroke-width:0.5;" fill="none"/></g><g class="participant participant-head" data-qualified-name="C" data-entity-uid="part2" id="part2-head" data-source-line="7"><rect x="255.8887" y="87.2969" width="165.3203" height="30.2969" fill="#E2E2F0" style="stroke:#181818;stroke-width:0.5;" rx="2.5" ry="2.5"/><text x="262.8887" y="107.292" fill="#000000" font-size="14" lengthAdjust="spacing" textLength="151.3203" font-family="sans-serif">TransactionController</text></g><g class="participant participant-tail" data-qualified-name="C" data-entity-uid="part2" id="part2-tail" data-source-line="7"><rect x="255.8887" y="1671.3828" width="165.3203" height="30.2969" fill="#E2E2F0" style="stroke:#181818;stroke-width:0.5;" rx="2.5" ry="2.5"/><text x="262.8887" y="1691.3779" fill="#000000" font-size="14" lengthAdjust="spacing" textLength="151.3203" font-family="sans-serif">TransactionController</text></g><g class="participant participant-head" data-qualified-name="S" data-entity-uid="part3" id="part3-head" data-source-line="8"><rect x="554.144" y="87.2969" width="147.8887" height="30.2969" fill="#E2E2F0" style="stroke:#181818;stroke-width:0.5;" rx="2.5" ry="2.5"/><text x="561.144" y="107.292" fill="#000000" font-size="14" lengthAdjust="spacing" textLength="133.8887" font-family="sans-serif">TransactionService</text></g><g class="participant participant-tail" data-qualified-name="S" data-entity-uid="part3" id="part3-tail" data-source-line="8"><rect x="554.144" y="1671.3828" width="147.8887" height="30.2969" fill="#E2E2F0" style="stroke:#181818;stroke-width:0.5;" rx="2.5" ry="2.5"/><text x="561.144" y="1691.3779" fill="#000000" font-size="14" lengthAdjust="spacing" textLength="133.8887" font-family="sans-serif">TransactionService</text></g><g class="participant participant-head" data-qualified-name="AUD" data-entity-uid="part4" id="part4-head" data-source-line="9"><rect x="826.8706" y="87.2969" width="102.457" height="30.2969" fill="#E2E2F0" style="stroke:#181818;stroke-width:0.5;" rx="2.5" ry="2.5"/><text x="833.8706" y="107.292" fill="#000000" font-size="14" lengthAdjust="spacing" textLength="88.457" font-family="sans-serif">AuditService</text></g><g class="participant participant-tail" data-qualified-name="AUD" data-entity-uid="part4" id="part4-tail" data-source-line="9"><rect x="826.8706" y="1671.3828" width="102.457" height="30.2969" fill="#E2E2F0" style="stroke:#181818;stroke-width:0.5;" rx="2.5" ry="2.5"/><text x="833.8706" y="1691.3779" fill="#000000" font-size="14" lengthAdjust="spacing" textLength="88.457" font-family="sans-serif">AuditService</text></g><g class="participant participant-head" data-qualified-name="DB" data-entity-uid="part5" id="part5-head" data-source-line="10"><text x="969.3369" y="115.292" fill="#000000" font-size="14" lengthAdjust="spacing" textLength="80.7529" font-family="sans-serif">PostgreSQL</text><path d="M994.7134,66.2969 C994.7134,56.2969 1012.7134,56.2969 1012.7134,56.2969 C1012.7134,56.2969 1030.7134,56.2969 1030.7134,66.2969 L1030.7134,92.2969 C1030.7134,102.2969 1012.7134,102.2969 1012.7134,102.2969 C1012.7134,102.2969 994.7134,102.2969 994.7134,92.2969 L994.7134,66.2969" style="stroke:#181818;stroke-width:0.5;" fill="#E2E2F0"/><path d="M994.7134,66.2969 C994.7134,76.2969 1012.7134,76.2969 1012.7134,76.2969 C1012.7134,76.2969 1030.7134,76.2969 1030.7134,66.2969" style="stroke:#181818;stroke-width:0.5;" fill="none"/></g><g class="participant participant-tail" data-qualified-name="DB" data-entity-uid="part5" id="part5-tail" data-source-line="10"><text x="969.3369" y="1684.3779" fill="#000000" font-size="14" lengthAdjust="spacing" textLength="80.7529" font-family="sans-serif">PostgreSQL</text><path d="M994.7134,1697.6797 C994.7134,1687.6797 1012.7134,1687.6797 1012.7134,1687.6797 C1012.7134,1687.6797 1030.7134,1687.6797 1030.7134,1697.6797 L1030.7134,1723.6797 C1030.7134,1733.6797 1012.7134,1733.6797 1012.7134,1733.6797 C1012.7134,1733.6797 994.7134,1733.6797 994.7134,1723.6797 L994.7134,1697.6797" style="stroke:#181818;stroke-width:0.5;" fill="#E2E2F0"/><path d="M994.7134,1697.6797 C994.7134,1707.6797 1012.7134,1707.6797 1012.7134,1707.6797 C1012.7134,1707.6797 1030.7134,1707.6797 1030.7134,1697.6797" style="stroke:#181818;stroke-width:0.5;" fill="none"/></g><g><title>TransactionController</title><rect x="333.5488" y="192.8594" width="10" height="387.3984" fill="#FFFFFF" style="stroke:#181818;stroke-width:1;"/></g><g><title>TransactionController</title><rect x="333.5488" y="644.5234" width="10" height="429.5313" fill="#FFFFFF" style="stroke:#181818;stroke-width:1;"/></g><g><title>TransactionController</title><rect x="333.5488" y="1138.3203" width="10" height="458.6641" fill="#FFFFFF" style="stroke:#181818;stroke-width:1;"/></g><g><title>TransactionService</title><rect x="623.0884" y="221.9922" width="10" height="358.2656" fill="#FFFFFF" style="stroke:#181818;stroke-width:1;"/></g><g><title>TransactionService</title><rect x="623.0884" y="673.6563" width="10" height="400.3984" fill="#FFFFFF" style="stroke:#181818;stroke-width:1;"/></g><g><title>TransactionService</title><rect x="623.0884" y="1167.4531" width="10" height="429.5313" fill="#FFFFFF" style="stroke:#181818;stroke-width:1;"/></g><rect x="0" y="149.1602" width="1076.0898" height="3" fill="#EEEEEE" style="stroke:#EEEEEE;stroke-width:1;"/><line x1="0" y1="149.1602" x2="1076.0898" y2="149.1602" style="stroke:#000000;stroke-width:1;"/><line x1="0" y1="152.1602" x2="1076.0898" y2="152.1602" style="stroke:#000000;stroke-width:1;"/><rect x="506.7524" y="138.5938" width="62.585" height="23.1328" fill="#EEEEEE" style="stroke:#000000;stroke-width:2;"/><text x="512.7524" y="154.6606" fill="#000000" font-size="13" lengthAdjust="spacing" textLength="44.0591" font-weight="700" font-family="sans-serif">Dépôt</text><g class="message" data-entity-1="part1" data-entity-2="part2" id="msg1" data-source-line="14"><polygon points="321.5488,188.8594,331.5488,192.8594,321.5488,196.8594,325.5488,192.8594" fill="#181818" style="stroke:#181818;stroke-width:1;stroke-linejoin:miter;stroke-miterlimit:10;"/><line x1="43.7197" y1="192.8594" x2="327.5488" y2="192.8594" style="stroke:#181818;stroke-width:1;"/><text x="50.7197" y="187.7935" fill="#000000" font-size="13" lengthAdjust="spacing" textLength="227.2905" font-family="sans-serif">POST /deposit (accountId, amount)</text></g><g class="message" data-entity-1="part2" data-entity-2="part3" id="msg2" data-source-line="16"><polygon points="611.0884,217.9922,621.0884,221.9922,611.0884,225.9922,615.0884,221.9922" fill="#181818" style="stroke:#181818;stroke-width:1;stroke-linejoin:miter;stroke-miterlimit:10;"/><line x1="343.5488" y1="221.9922" x2="617.0884" y2="221.9922" style="stroke:#181818;stroke-width:1;"/><text x="350.5488" y="216.9263" fill="#000000" font-size="13" lengthAdjust="spacing" textLength="217.001" font-family="sans-serif">deposit(accountId, amount, user)</text></g><g class="message" data-entity-1="part3" data-entity-2="part5" id="msg3" data-source-line="18"><polygon points="1000.7134,247.125,1010.7134,251.125,1000.7134,255.125,1004.7134,251.125" fill="#181818" style="stroke:#181818;stroke-width:1;stroke-linejoin:miter;stroke-miterlimit:10;"/><line x1="633.0884" y1="251.125" x2="1006.7134" y2="251.125" style="stroke:#181818;stroke-width:1;"/><text x="640.0884" y="246.0591" fill="#000000" font-size="13" lengthAdjust="spacing" textLength="192.2832" font-family="sans-serif">SELECT account FOR UPDATE</text></g><g class="message" data-entity-1="part3" data-entity-2="part3" id="msg4" data-source-line="19"><line x1="633.0884" y1="280.2578" x2="675.0884" y2="280.2578" style="stroke:#181818;stroke-width:1;"/><line x1="675.0884" y1="280.2578" x2="675.0884" y2="293.2578" style="stroke:#181818;stroke-width:1;"/><line x1="634.0884" y1="293.2578" x2="675.0884" y2="293.2578" style="stroke:#181818;stroke-width:1;"/><polygon points="644.0884,289.2578,634.0884,293.2578,644.0884,297.2578,640.0884,293.2578" fill="#181818" style="stroke:#181818;stroke-width:1;stroke-linejoin:miter;stroke-miterlimit:10;"/><text x="640.0884" y="275.1919" fill="#000000" font-size="13" lengthAdjust="spacing" textLength="150.4077" font-family="sans-serif">vérifier compte ACTIVE</text></g><path d="M10,308.2578 L74.4429,308.2578 L74.4429,315.3906 L64.4429,325.3906 L10,325.3906 L10,308.2578" style="stroke:#000000;stroke-width:1.5;" fill="#EEEEEE"/><rect x="10" y="308.2578" width="1056.0898" height="265" fill="none" style="stroke:#000000;stroke-width:1.5;"/><text x="25" y="321.3247" fill="#000000" font-size="13" lengthAdjust="spacing" textLength="19.4429" font-weight="700" font-family="sans-serif">alt</text><text x="89.4429" y="320.4683" fill="#000000" font-size="11" lengthAdjust="spacing" textLength="89.3267" font-weight="700" font-family="sans-serif">[Compte actif]</text><g class="message" data-entity-1="part3" data-entity-2="part5" id="msg5" data-source-line="22"><polygon points="1000.7134,342.5234,1010.7134,346.5234,1000.7134,350.5234,1004.7134,346.5234" fill="#181818" style="stroke:#181818;stroke-width:1;stroke-linejoin:miter;stroke-miterlimit:10;"/><line x1="633.0884" y1="346.5234" x2="1006.7134" y2="346.5234" style="stroke:#181818;stroke-width:1;"/><text x="640.0884" y="341.4575" fill="#000000" font-size="13" lengthAdjust="spacing" textLength="187.186" font-family="sans-serif">UPDATE balance (+ amount)</text></g><g class="message" data-entity-1="part3" data-entity-2="part5" id="msg6" data-source-line="23"><polygon points="1000.7134,371.6563,1010.7134,375.6563,1000.7134,379.6563,1004.7134,375.6563" fill="#181818" style="stroke:#181818;stroke-width:1;stroke-linejoin:miter;stroke-miterlimit:10;"/><line x1="633.0884" y1="375.6563" x2="1006.7134" y2="375.6563" style="stroke:#181818;stroke-width:1;"/><text x="640.0884" y="370.5903" fill="#000000" font-size="13" lengthAdjust="spacing" textLength="183.0791" font-family="sans-serif">INSERT transaction (DEPOT)</text></g><g class="message" data-entity-1="part3" data-entity-2="part4" id="msg7" data-source-line="24"><polygon points="866.0991,400.7891,876.0991,404.7891,866.0991,408.7891,870.0991,404.7891" fill="#181818" style="stroke:#181818;stroke-width:1;stroke-linejoin:miter;stroke-miterlimit:10;"/><line x1="633.0884" y1="404.7891" x2="872.0991" y2="404.7891" style="stroke:#181818;stroke-width:1;"/><text x="640.0884" y="399.7231" fill="#000000" font-size="13" lengthAdjust="spacing" textLength="86.2837" font-family="sans-serif">log(DEPOSIT)</text></g><g class="message" data-entity-1="part4" data-entity-2="part5" id="msg8" data-source-line="25"><polygon points="1000.7134,429.9219,1010.7134,433.9219,1000.7134,437.9219,1004.7134,433.9219" fill="#181818" style="stroke:#181818;stroke-width:1;stroke-linejoin:miter;stroke-miterlimit:10;"/><line x1="878.0991" y1="433.9219" x2="1006.7134" y2="433.9219" style="stroke:#181818;stroke-width:1;"/><text x="885.0991" y="428.856" fill="#000000" font-size="13" lengthAdjust="spacing" textLength="110.6143" font-family="sans-serif">INSERT audit_log</text></g><g class="message" data-entity-1="part3" data-entity-2="part2" id="msg9" data-source-line="26"><polygon points="354.5488,459.0547,344.5488,463.0547,354.5488,467.0547,350.5488,463.0547" fill="#181818" style="stroke:#181818;stroke-width:1;stroke-linejoin:miter;stroke-miterlimit:10;"/><line x1="348.5488" y1="463.0547" x2="622.0884" y2="463.0547" style="stroke:#181818;stroke-width:1;stroke-dasharray:2,2;"/><text x="360.5488" y="457.9888" fill="#000000" font-size="13" lengthAdjust="spacing" textLength="18.7573" font-family="sans-serif">OK</text></g><g class="message" data-entity-1="part2" data-entity-2="part1" id="msg10" data-source-line="27"><polygon points="54.7197,488.1875,44.7197,492.1875,54.7197,496.1875,50.7197,492.1875" fill="#181818" style="stroke:#181818;stroke-width:1;stroke-linejoin:miter;stroke-miterlimit:10;"/><line x1="48.7197" y1="492.1875" x2="332.5488" y2="492.1875" style="stroke:#181818;stroke-width:1;stroke-dasharray:2,2;"/><text x="60.7197" y="487.1216" fill="#000000" font-size="13" lengthAdjust="spacing" textLength="159.7642" font-family="sans-serif">Succès + nouveau solde</text></g><line x1="10" y1="501.1875" x2="1066.0898" y2="501.1875" style="stroke:#000000;stroke-width:1;stroke-dasharray:2,2;"/><text x="15" y="511.3979" fill="#000000" font-size="11" lengthAdjust="spacing" textLength="170.8062" font-weight="700" font-family="sans-serif">[Compte bloqué ou clôturé]</text><g class="message" data-entity-1="part3" data-entity-2="part2" id="msg11" data-source-line="29"><polygon points="354.5488,532.125,344.5488,536.125,354.5488,540.125,350.5488,536.125" fill="#181818" style="stroke:#181818;stroke-width:1;stroke-linejoin:miter;stroke-miterlimit:10;"/><line x1="348.5488" y1="536.125" x2="622.0884" y2="536.125" style="stroke:#181818;stroke-width:1;stroke-dasharray:2,2;"/><text x="360.5488" y="531.0591" fill="#000000" font-size="13" lengthAdjust="spacing" textLength="87.3311" font-family="sans-serif">Erreur métier</text></g><g class="message" data-entity-1="part2" data-entity-2="part1" id="msg12" data-source-line="30"><polygon points="54.7197,561.2578,44.7197,565.2578,54.7197,569.2578,50.7197,565.2578" fill="#181818" style="stroke:#181818;stroke-width:1;stroke-linejoin:miter;stroke-miterlimit:10;"/><line x1="48.7197" y1="565.2578" x2="332.5488" y2="565.2578" style="stroke:#181818;stroke-width:1;stroke-dasharray:2,2;"/><text x="60.7197" y="560.1919" fill="#000000" font-size="13" lengthAdjust="spacing" textLength="113.2041" font-family="sans-serif">Message d'erreur</text></g><rect x="0" y="600.8242" width="1076.0898" height="3" fill="#EEEEEE" style="stroke:#EEEEEE;stroke-width:1;"/><line x1="0" y1="600.8242" x2="1076.0898" y2="600.8242" style="stroke:#000000;stroke-width:1;"/><line x1="0" y1="603.8242" x2="1076.0898" y2="603.8242" style="stroke:#000000;stroke-width:1;"/><rect x="503.3342" y="590.2578" width="69.4214" height="23.1328" fill="#EEEEEE" style="stroke:#000000;stroke-width:2;"/><text x="509.3342" y="606.3247" fill="#000000" font-size="13" lengthAdjust="spacing" textLength="50.8955" font-weight="700" font-family="sans-serif">Retrait</text><g class="message" data-entity-1="part1" data-entity-2="part2" id="msg13" data-source-line="37"><polygon points="321.5488,640.5234,331.5488,644.5234,321.5488,648.5234,325.5488,644.5234" fill="#181818" style="stroke:#181818;stroke-width:1;stroke-linejoin:miter;stroke-miterlimit:10;"/><line x1="43.7197" y1="644.5234" x2="327.5488" y2="644.5234" style="stroke:#181818;stroke-width:1;"/><text x="50.7197" y="639.4575" fill="#000000" font-size="13" lengthAdjust="spacing" textLength="239.1289" font-family="sans-serif">POST /withdraw (accountId, amount)</text></g><g class="message" data-entity-1="part2" data-entity-2="part3" id="msg14" data-source-line="39"><polygon points="611.0884,669.6563,621.0884,673.6563,611.0884,677.6563,615.0884,673.6563" fill="#181818" style="stroke:#181818;stroke-width:1;stroke-linejoin:miter;stroke-miterlimit:10;"/><line x1="343.5488" y1="673.6563" x2="617.0884" y2="673.6563" style="stroke:#181818;stroke-width:1;"/><text x="350.5488" y="668.5903" fill="#000000" font-size="13" lengthAdjust="spacing" textLength="228.8394" font-family="sans-serif">withdraw(accountId, amount, user)</text></g><g class="message" data-entity-1="part3" data-entity-2="part5" id="msg15" data-source-line="41"><polygon points="1000.7134,698.7891,1010.7134,702.7891,1000.7134,706.7891,1004.7134,702.7891" fill="#181818" style="stroke:#181818;stroke-width:1;stroke-linejoin:miter;stroke-miterlimit:10;"/><line x1="633.0884" y1="702.7891" x2="1006.7134" y2="702.7891" style="stroke:#181818;stroke-width:1;"/><text x="640.0884" y="697.7231" fill="#000000" font-size="13" lengthAdjust="spacing" textLength="192.2832" font-family="sans-serif">SELECT account FOR UPDATE</text></g><g class="message" data-entity-1="part3" data-entity-2="part3" id="msg16" data-source-line="42"><line x1="633.0884" y1="731.9219" x2="675.0884" y2="731.9219" style="stroke:#181818;stroke-width:1;"/><line x1="675.0884" y1="731.9219" x2="675.0884" y2="744.9219" style="stroke:#181818;stroke-width:1;"/><line x1="634.0884" y1="744.9219" x2="675.0884" y2="744.9219" style="stroke:#181818;stroke-width:1;"/><polygon points="644.0884,740.9219,634.0884,744.9219,644.0884,748.9219,640.0884,744.9219" fill="#181818" style="stroke:#181818;stroke-width:1;stroke-linejoin:miter;stroke-miterlimit:10;"/><text x="640.0884" y="726.856" fill="#000000" font-size="13" lengthAdjust="spacing" textLength="150.4077" font-family="sans-serif">vérifier compte ACTIVE</text></g><g class="message" data-entity-1="part3" data-entity-2="part3" id="msg17" data-source-line="43"><line x1="633.0884" y1="774.0547" x2="675.0884" y2="774.0547" style="stroke:#181818;stroke-width:1;"/><line x1="675.0884" y1="774.0547" x2="675.0884" y2="787.0547" style="stroke:#181818;stroke-width:1;"/><line x1="634.0884" y1="787.0547" x2="675.0884" y2="787.0547" style="stroke:#181818;stroke-width:1;"/><polygon points="644.0884,783.0547,634.0884,787.0547,644.0884,791.0547,640.0884,787.0547" fill="#181818" style="stroke:#181818;stroke-width:1;stroke-linejoin:miter;stroke-miterlimit:10;"/><text x="640.0884" y="768.9888" fill="#000000" font-size="13" lengthAdjust="spacing" textLength="181.7017" font-family="sans-serif">vérifier balance >= amount</text></g><path d="M10,802.0547 L74.4429,802.0547 L74.4429,809.1875 L64.4429,819.1875 L10,819.1875 L10,802.0547" style="stroke:#000000;stroke-width:1.5;" fill="#EEEEEE"/><rect x="10" y="802.0547" width="1056.0898" height="265" fill="none" style="stroke:#000000;stroke-width:1.5;"/><text x="25" y="815.1216" fill="#000000" font-size="13" lengthAdjust="spacing" textLength="19.4429" font-weight="700" font-family="sans-serif">alt</text><text x="89.4429" y="814.2651" fill="#000000" font-size="11" lengthAdjust="spacing" textLength="201.3462" font-weight="700" font-family="sans-serif">[Solde suffisant et compte actif]</text><g class="message" data-entity-1="part3" data-entity-2="part5" id="msg18" data-source-line="46"><polygon points="1000.7134,836.3203,1010.7134,840.3203,1000.7134,844.3203,1004.7134,840.3203" fill="#181818" style="stroke:#181818;stroke-width:1;stroke-linejoin:miter;stroke-miterlimit:10;"/><line x1="633.0884" y1="840.3203" x2="1006.7134" y2="840.3203" style="stroke:#181818;stroke-width:1;"/><text x="640.0884" y="835.2544" fill="#000000" font-size="13" lengthAdjust="spacing" textLength="180.9844" font-family="sans-serif">UPDATE balance (- amount)</text></g><g class="message" data-entity-1="part3" data-entity-2="part5" id="msg19" data-source-line="47"><polygon points="1000.7134,865.4531,1010.7134,869.4531,1000.7134,873.4531,1004.7134,869.4531" fill="#181818" style="stroke:#181818;stroke-width:1;stroke-linejoin:miter;stroke-miterlimit:10;"/><line x1="633.0884" y1="869.4531" x2="1006.7134" y2="869.4531" style="stroke:#181818;stroke-width:1;"/><text x="640.0884" y="864.3872" fill="#000000" font-size="13" lengthAdjust="spacing" textLength="193.7305" font-family="sans-serif">INSERT transaction (RETRAIT)</text></g><g class="message" data-entity-1="part3" data-entity-2="part4" id="msg20" data-source-line="48"><polygon points="866.0991,894.5859,876.0991,898.5859,866.0991,902.5859,870.0991,898.5859" fill="#181818" style="stroke:#181818;stroke-width:1;stroke-linejoin:miter;stroke-miterlimit:10;"/><line x1="633.0884" y1="898.5859" x2="872.0991" y2="898.5859" style="stroke:#181818;stroke-width:1;"/><text x="640.0884" y="893.52" fill="#000000" font-size="13" lengthAdjust="spacing" textLength="105.1553" font-family="sans-serif">log(WITHDRAW)</text></g><g class="message" data-entity-1="part4" data-entity-2="part5" id="msg21" data-source-line="49"><polygon points="1000.7134,923.7188,1010.7134,927.7188,1000.7134,931.7188,1004.7134,927.7188" fill="#181818" style="stroke:#181818;stroke-width:1;stroke-linejoin:miter;stroke-miterlimit:10;"/><line x1="878.0991" y1="927.7188" x2="1006.7134" y2="927.7188" style="stroke:#181818;stroke-width:1;"/><text x="885.0991" y="922.6528" fill="#000000" font-size="13" lengthAdjust="spacing" textLength="110.6143" font-family="sans-serif">INSERT audit_log</text></g><g class="message" data-entity-1="part3" data-entity-2="part2" id="msg22" data-source-line="50"><polygon points="354.5488,952.8516,344.5488,956.8516,354.5488,960.8516,350.5488,956.8516" fill="#181818" style="stroke:#181818;stroke-width:1;stroke-linejoin:miter;stroke-miterlimit:10;"/><line x1="348.5488" y1="956.8516" x2="622.0884" y2="956.8516" style="stroke:#181818;stroke-width:1;stroke-dasharray:2,2;"/><text x="360.5488" y="951.7856" fill="#000000" font-size="13" lengthAdjust="spacing" textLength="18.7573" font-family="sans-serif">OK</text></g><g class="message" data-entity-1="part2" data-entity-2="part1" id="msg23" data-source-line="51"><polygon points="54.7197,981.9844,44.7197,985.9844,54.7197,989.9844,50.7197,985.9844" fill="#181818" style="stroke:#181818;stroke-width:1;stroke-linejoin:miter;stroke-miterlimit:10;"/><line x1="48.7197" y1="985.9844" x2="332.5488" y2="985.9844" style="stroke:#181818;stroke-width:1;stroke-dasharray:2,2;"/><text x="60.7197" y="980.9185" fill="#000000" font-size="13" lengthAdjust="spacing" textLength="159.7642" font-family="sans-serif">Succès + nouveau solde</text></g><line x1="10" y1="994.9844" x2="1066.0898" y2="994.9844" style="stroke:#000000;stroke-width:1;stroke-dasharray:2,2;"/><text x="15" y="1005.1948" fill="#000000" font-size="11" lengthAdjust="spacing" textLength="227.2188" font-weight="700" font-family="sans-serif">[Solde insuffisant ou compte inactif]</text><g class="message" data-entity-1="part3" data-entity-2="part2" id="msg24" data-source-line="53"><polygon points="354.5488,1025.9219,344.5488,1029.9219,354.5488,1033.9219,350.5488,1029.9219" fill="#181818" style="stroke:#181818;stroke-width:1;stroke-linejoin:miter;stroke-miterlimit:10;"/><line x1="348.5488" y1="1029.9219" x2="622.0884" y2="1029.9219" style="stroke:#181818;stroke-width:1;stroke-dasharray:2,2;"/><text x="360.5488" y="1024.856" fill="#000000" font-size="13" lengthAdjust="spacing" textLength="87.3311" font-family="sans-serif">Erreur métier</text></g><g class="message" data-entity-1="part2" data-entity-2="part1" id="msg25" data-source-line="54"><polygon points="54.7197,1055.0547,44.7197,1059.0547,54.7197,1063.0547,50.7197,1059.0547" fill="#181818" style="stroke:#181818;stroke-width:1;stroke-linejoin:miter;stroke-miterlimit:10;"/><line x1="48.7197" y1="1059.0547" x2="332.5488" y2="1059.0547" style="stroke:#181818;stroke-width:1;stroke-dasharray:2,2;"/><text x="60.7197" y="1053.9888" fill="#000000" font-size="13" lengthAdjust="spacing" textLength="113.2041" font-family="sans-serif">Message d'erreur</text></g><rect x="0" y="1094.6211" width="1076.0898" height="3" fill="#EEEEEE" style="stroke:#EEEEEE;stroke-width:1;"/><line x1="0" y1="1094.6211" x2="1076.0898" y2="1094.6211" style="stroke:#000000;stroke-width:1;"/><line x1="0" y1="1097.6211" x2="1076.0898" y2="1097.6211" style="stroke:#000000;stroke-width:1;"/><rect x="494.9934" y="1084.0547" width="86.103" height="23.1328" fill="#EEEEEE" style="stroke:#000000;stroke-width:2;"/><text x="500.9934" y="1100.1216" fill="#000000" font-size="13" lengthAdjust="spacing" textLength="67.5771" font-weight="700" font-family="sans-serif">Virement</text><g class="message" data-entity-1="part1" data-entity-2="part2" id="msg26" data-source-line="61"><polygon points="321.5488,1134.3203,331.5488,1138.3203,321.5488,1142.3203,325.5488,1138.3203" fill="#181818" style="stroke:#181818;stroke-width:1;stroke-linejoin:miter;stroke-miterlimit:10;"/><line x1="43.7197" y1="1138.3203" x2="327.5488" y2="1138.3203" style="stroke:#181818;stroke-width:1;"/><text x="50.7197" y="1133.2544" fill="#000000" font-size="13" lengthAdjust="spacing" textLength="270.8291" font-family="sans-serif">POST /transfer (sourceId, destId, amount)</text></g><g class="message" data-entity-1="part2" data-entity-2="part3" id="msg27" data-source-line="63"><polygon points="611.0884,1163.4531,621.0884,1167.4531,611.0884,1171.4531,615.0884,1167.4531" fill="#181818" style="stroke:#181818;stroke-width:1;stroke-linejoin:miter;stroke-miterlimit:10;"/><line x1="343.5488" y1="1167.4531" x2="617.0884" y2="1167.4531" style="stroke:#181818;stroke-width:1;"/><text x="350.5488" y="1162.3872" fill="#000000" font-size="13" lengthAdjust="spacing" textLength="260.5396" font-family="sans-serif">transfer(sourceId, destId, amount, user)</text></g><g class="message" data-entity-1="part3" data-entity-2="part5" id="msg28" data-source-line="65"><polygon points="1000.7134,1192.5859,1010.7134,1196.5859,1000.7134,1200.5859,1004.7134,1196.5859" fill="#181818" style="stroke:#181818;stroke-width:1;stroke-linejoin:miter;stroke-miterlimit:10;"/><line x1="633.0884" y1="1196.5859" x2="1006.7134" y2="1196.5859" style="stroke:#181818;stroke-width:1;"/><text x="640.0884" y="1191.52" fill="#000000" font-size="13" lengthAdjust="spacing" textLength="250.7451" font-family="sans-serif">SELECT comptes source et destination</text></g><g class="message" data-entity-1="part3" data-entity-2="part3" id="msg29" data-source-line="66"><line x1="633.0884" y1="1225.7188" x2="675.0884" y2="1225.7188" style="stroke:#181818;stroke-width:1;"/><line x1="675.0884" y1="1225.7188" x2="675.0884" y2="1238.7188" style="stroke:#181818;stroke-width:1;"/><line x1="634.0884" y1="1238.7188" x2="675.0884" y2="1238.7188" style="stroke:#181818;stroke-width:1;"/><polygon points="644.0884,1234.7188,634.0884,1238.7188,644.0884,1242.7188,640.0884,1238.7188" fill="#181818" style="stroke:#181818;stroke-width:1;stroke-linejoin:miter;stroke-miterlimit:10;"/><text x="640.0884" y="1220.6528" fill="#000000" font-size="13" lengthAdjust="spacing" textLength="216.0107" font-family="sans-serif">vérifier les deux comptes ACTIVE</text></g><g class="message" data-entity-1="part3" data-entity-2="part3" id="msg30" data-source-line="67"><line x1="633.0884" y1="1267.8516" x2="675.0884" y2="1267.8516" style="stroke:#181818;stroke-width:1;"/><line x1="675.0884" y1="1267.8516" x2="675.0884" y2="1280.8516" style="stroke:#181818;stroke-width:1;"/><line x1="634.0884" y1="1280.8516" x2="675.0884" y2="1280.8516" style="stroke:#181818;stroke-width:1;"/><polygon points="644.0884,1276.8516,634.0884,1280.8516,644.0884,1284.8516,640.0884,1280.8516" fill="#181818" style="stroke:#181818;stroke-width:1;stroke-linejoin:miter;stroke-miterlimit:10;"/><text x="640.0884" y="1262.7856" fill="#000000" font-size="13" lengthAdjust="spacing" textLength="212.6973" font-family="sans-serif">vérifier solde source >= amount</text></g><path d="M10,1295.8516 L74.4429,1295.8516 L74.4429,1302.9844 L64.4429,1312.9844 L10,1312.9844 L10,1295.8516" style="stroke:#000000;stroke-width:1.5;" fill="#EEEEEE"/><rect x="10" y="1295.8516" width="1056.0898" height="294.1328" fill="none" style="stroke:#000000;stroke-width:1.5;"/><text x="25" y="1308.9185" fill="#000000" font-size="13" lengthAdjust="spacing" textLength="19.4429" font-weight="700" font-family="sans-serif">alt</text><text x="89.4429" y="1308.062" fill="#000000" font-size="11" lengthAdjust="spacing" textLength="177.7134" font-weight="700" font-family="sans-serif">[Comptes actifs et solde OK]</text><g class="message" data-entity-1="part3" data-entity-2="part5" id="msg31" data-source-line="70"><polygon points="1000.7134,1330.1172,1010.7134,1334.1172,1000.7134,1338.1172,1004.7134,1334.1172" fill="#181818" style="stroke:#181818;stroke-width:1;stroke-linejoin:miter;stroke-miterlimit:10;"/><line x1="633.0884" y1="1334.1172" x2="1006.7134" y2="1334.1172" style="stroke:#181818;stroke-width:1;"/><text x="640.0884" y="1329.0513" fill="#000000" font-size="13" lengthAdjust="spacing" textLength="173.2593" font-family="sans-serif">UPDATE source (- amount)</text></g><g class="message" data-entity-1="part3" data-entity-2="part5" id="msg32" data-source-line="71"><polygon points="1000.7134,1359.25,1010.7134,1363.25,1000.7134,1367.25,1004.7134,1363.25" fill="#181818" style="stroke:#181818;stroke-width:1;stroke-linejoin:miter;stroke-miterlimit:10;"/><line x1="633.0884" y1="1363.25" x2="1006.7134" y2="1363.25" style="stroke:#181818;stroke-width:1;"/><text x="640.0884" y="1358.1841" fill="#000000" font-size="13" lengthAdjust="spacing" textLength="208.8442" font-family="sans-serif">UPDATE destination (+ amount)</text></g><g class="message" data-entity-1="part3" data-entity-2="part5" id="msg33" data-source-line="72"><polygon points="1000.7134,1388.3828,1010.7134,1392.3828,1000.7134,1396.3828,1004.7134,1392.3828" fill="#181818" style="stroke:#181818;stroke-width:1;stroke-linejoin:miter;stroke-miterlimit:10;"/><line x1="633.0884" y1="1392.3828" x2="1006.7134" y2="1392.3828" style="stroke:#181818;stroke-width:1;"/><text x="640.0884" y="1387.3169" fill="#000000" font-size="13" lengthAdjust="spacing" textLength="205.9116" font-family="sans-serif">INSERT transaction (VIREMENT)</text></g><g class="message" data-entity-1="part3" data-entity-2="part4" id="msg34" data-source-line="73"><polygon points="866.0991,1417.5156,876.0991,1421.5156,866.0991,1425.5156,870.0991,1421.5156" fill="#181818" style="stroke:#181818;stroke-width:1;stroke-linejoin:miter;stroke-miterlimit:10;"/><line x1="633.0884" y1="1421.5156" x2="872.0991" y2="1421.5156" style="stroke:#181818;stroke-width:1;"/><text x="640.0884" y="1416.4497" fill="#000000" font-size="13" lengthAdjust="spacing" textLength="98.5283" font-family="sans-serif">log(TRANSFER)</text></g><g class="message" data-entity-1="part4" data-entity-2="part5" id="msg35" data-source-line="74"><polygon points="1000.7134,1446.6484,1010.7134,1450.6484,1000.7134,1454.6484,1004.7134,1450.6484" fill="#181818" style="stroke:#181818;stroke-width:1;stroke-linejoin:miter;stroke-miterlimit:10;"/><line x1="878.0991" y1="1450.6484" x2="1006.7134" y2="1450.6484" style="stroke:#181818;stroke-width:1;"/><text x="885.0991" y="1445.5825" fill="#000000" font-size="13" lengthAdjust="spacing" textLength="110.6143" font-family="sans-serif">INSERT audit_log</text></g><g class="message" data-entity-1="part3" data-entity-2="part2" id="msg36" data-source-line="75"><polygon points="354.5488,1475.7813,344.5488,1479.7813,354.5488,1483.7813,350.5488,1479.7813" fill="#181818" style="stroke:#181818;stroke-width:1;stroke-linejoin:miter;stroke-miterlimit:10;"/><line x1="348.5488" y1="1479.7813" x2="622.0884" y2="1479.7813" style="stroke:#181818;stroke-width:1;stroke-dasharray:2,2;"/><text x="360.5488" y="1474.7153" fill="#000000" font-size="13" lengthAdjust="spacing" textLength="18.7573" font-family="sans-serif">OK</text></g><g class="message" data-entity-1="part2" data-entity-2="part1" id="msg37" data-source-line="76"><polygon points="54.7197,1504.9141,44.7197,1508.9141,54.7197,1512.9141,50.7197,1508.9141" fill="#181818" style="stroke:#181818;stroke-width:1;stroke-linejoin:miter;stroke-miterlimit:10;"/><line x1="48.7197" y1="1508.9141" x2="332.5488" y2="1508.9141" style="stroke:#181818;stroke-width:1;stroke-dasharray:2,2;"/><text x="60.7197" y="1503.8481" fill="#000000" font-size="13" lengthAdjust="spacing" textLength="45.5571" font-family="sans-serif">Succès</text></g><line x1="10" y1="1517.9141" x2="1066.0898" y2="1517.9141" style="stroke:#000000;stroke-width:1;stroke-dasharray:2,2;"/><text x="15" y="1528.1245" fill="#000000" font-size="11" lengthAdjust="spacing" textLength="227.396" font-weight="700" font-family="sans-serif">[Compte inactif ou solde insuffisant]</text><g class="message" data-entity-1="part3" data-entity-2="part2" id="msg38" data-source-line="78"><polygon points="354.5488,1548.8516,344.5488,1552.8516,354.5488,1556.8516,350.5488,1552.8516" fill="#181818" style="stroke:#181818;stroke-width:1;stroke-linejoin:miter;stroke-miterlimit:10;"/><line x1="348.5488" y1="1552.8516" x2="622.0884" y2="1552.8516" style="stroke:#181818;stroke-width:1;stroke-dasharray:2,2;"/><text x="360.5488" y="1547.7856" fill="#000000" font-size="13" lengthAdjust="spacing" textLength="87.3311" font-family="sans-serif">Erreur métier</text></g><g class="message" data-entity-1="part2" data-entity-2="part1" id="msg39" data-source-line="79"><polygon points="54.7197,1577.9844,44.7197,1581.9844,54.7197,1585.9844,50.7197,1581.9844" fill="#181818" style="stroke:#181818;stroke-width:1;stroke-linejoin:miter;stroke-miterlimit:10;"/><line x1="48.7197" y1="1581.9844" x2="332.5488" y2="1581.9844" style="stroke:#181818;stroke-width:1;stroke-dasharray:2,2;"/><text x="60.7197" y="1576.9185" fill="#000000" font-size="13" lengthAdjust="spacing" textLength="113.2041" font-family="sans-serif">Message d'erreur</text></g><path d="M483,1601.9844 L483,1656.9844 L771,1656.9844 L771,1611.9844 L761,1601.9844 L483,1601.9844" style="stroke:#181818;stroke-width:0.5;" fill="#FEFFDD"/><path d="M761,1601.9844 L761,1611.9844 L771,1611.9844 L761,1601.9844" style="stroke:#181818;stroke-width:0.5;" fill="#FEFFDD"/><text x="489" y="1619.0513" fill="#000000" font-size="13" lengthAdjust="spacing" textLength="219.5146" font-family="sans-serif">Chaque transaction : date, heure,</text><text x="489" y="1634.1841" fill="#000000" font-size="13" lengthAdjust="spacing" textLength="212.4053" font-family="sans-serif">montant, utilisateur responsable</text><text x="489" y="1649.3169" fill="#000000" font-size="13" lengthAdjust="spacing" textLength="267.8457" font-family="sans-serif">Opérations importantes → journal d'audit</text><?plantuml-src lPPBRjim48RtFCKWcxg8W-uBE80YAwZH94ub9LaMj3IssTAaGb9sbrtr04KFKUzx0zqa9-bGaXqxiL4NQBgoAVx_S1wV7lQpK0KtV0PsodEz46e2OoujChlUCMWBhInUehLyWcSezI8mHY_0cH8PSy99XAHQtfUeCeI7hp-WNosBwfVhajaPBXoWWxamE4Fb6EEPqmQ2YL_G6Kvaek3AmL5gkBAqAxGAjN96Iudc2BY5SAymGJCN6TQgP5iLbBbmc_l1JP_btF4HjmX7rzgwYS7amqMzsJzZhDTRfGwz7cDrYd1o2Y6yXUjXaiAR70jjgQ0Epp9TAZV8ky1d_jzhNvUOSuUKRUXT2RbQ_NDv5qgBPiEKiCIR-cVaIgABA4oXDS7vC8QRwtwGHet61vvNIoF60WraUbQGFmZJmMr4tPKEmkQIZprc08-1coWmufBxMNMEryblgWPNIHIdDDzrbw7JZww7wLf6dIITr9FwUZAeT_p59o6u7y57qZN6jfN3zxGCwsNJOggupBBgfuLZKBgS8o_1QfaZGu9nLSv8wlkoMe8k8PCqez9KowsuaJ5O6fXLIqUDUNP6Ip3ahx0MCbGvot5Z0XkBiAOXRldTGyD2k6bk-E9W75Q6_yV33i5g-gUzzkm6ciGt76mv7Wlhxn-wPxD3EJevcACuIkDWi8kakq7whXy7To-AKbEaK8zbUfgQCeNQAFJ5aBfjduFxcAgxDQOnTQmkJOOUaHpj7z5Q-VRQ3Y6iwOI59eP7mCUWnlZXxM99aZZ7yilQkHyxs_3LH7x2NjYwwm5OVswZhiVx3BisnXxgMj56ud_pdBiTnD5bTBKBK0BtAZcFudy4wDQphMNFqsYV8lgIG2fDltfEuqbyh2cdj_XMG-WLHj8kJ2aOTaapepSphsboGb9-pgVJVYJmaKII30iQUjrv2s9MQECDDDs7Rz_X4yrESKa9rlto-O5FuZS0?></g></svg>