<svg xmlns="http://www.w3.org/2000/svg" xmlns:xlink="http://www.w3.org/1999/xlink" version="1.1" data-diagram-type="DESCRIPTION" style="width:703px;height:880px;background:#FFFFFF;" width="703px" height="880px" viewBox="0 0 703 880" zoomAndPan="magnify" preserveAspectRatio="none" contentStyleType="text/css"><?plantuml 1.2026.7beta3?><defs/><g><g class="title" data-source-line="10"><text x="223.1169" y="30.9951" fill="#000000" font-size="14" lengthAdjust="spacing" textLength="250.3662" font-weight="700" font-family="sans-serif">Portail client — cas d'utilisation</text></g><rect x="3" y="56.2969" width="687.6" height="16.6406" fill="#FFFFCC" style="stroke:#FFDD88;stroke-width:3;" rx="2.5" ry="2.5"/><text x="10" y="66.9375" fill="#000000" font-size="10" lengthAdjust="spacing" textLength="295.0049" font-family="monospace">Please use CSS style instead of skinparam padding</text><!--cluster ACC--><g class="cluster" data-qualified-name="ACC" id="ent0002" data-source-line="14"><rect x="194.14" y="81.9375" width="174.59" height="219" fill="none" style="stroke:#181818;stroke-width:1;" rx="2.5" ry="2.5"/><text x="210.1411" y="103.0762" fill="#000000" font-size="12" lengthAdjust="spacing" textLength="142.5879" font-weight="700" font-family="sans-serif">Accès commun /login</text></g><!--cluster PORT--><g class="cluster" data-qualified-name="PORT" id="ent0005" data-source-line="19"><rect x="150.73" y="340.9375" width="538.87" height="378" fill="none" style="stroke:#181818;stroke-width:1;" rx="2.5" ry="2.5"/><text x="342.4609" y="362.0762" fill="#000000" font-size="12" lengthAdjust="spacing" textLength="155.4082" font-weight="700" font-family="sans-serif">Espace client /portal/**</text></g><!--entity UC_LOGIN--><g class="entity" data-qualified-name="ACC.UC_LOGIN" id="ent0003" data-source-line="15"><ellipse cx="281.4425" cy="181.9391" rx="63.2925" ry="25.2216" fill="#F1F1F1" style="stroke:#181818;stroke-width:0.5;"/><text x="240.8986" y="175.9608" fill="#000000" font-size="12" lengthAdjust="spacing" textLength="81.0879" font-family="sans-serif">S'authentifier</text><text x="229.8361" y="189.9295" fill="#000000" font-size="12" lengthAdjust="spacing" textLength="103.2129" font-family="sans-serif">(CIN ou n° client)</text></g><!--entity UC_LOGOUT--><g class="entity" data-qualified-name="ACC.UC_LOGOUT" id="ent0004" data-source-line="16"><ellipse cx="281.4387" cy="258.9327" rx="56.5187" ry="17.5852" fill="#F1F1F1" style="stroke:#181818;stroke-width:0.5;"/><text x="234.4553" y="262.4171" fill="#000000" font-size="12" lengthAdjust="spacing" textLength="93.9668" font-family="sans-serif">Se déconnecter</text></g><!--entity UC_DASH--><g class="entity" data-qualified-name="PORT.UC_DASH" id="ent0006" data-source-line="20"><ellipse cx="281.4405" cy="436.9336" rx="95.5305" ry="21.5061" fill="#F1F1F1" style="stroke:#181818;stroke-width:0.5;"/><text x="195.753" y="440.418" fill="#000000" font-size="12" lengthAdjust="spacing" textLength="171.375" font-family="sans-serif">Consulter le tableau de bord</text></g><!--entity UC_ACCOUNTS--><g class="entity" data-qualified-name="PORT.UC_ACCOUNTS" id="ent0007" data-source-line="21"><ellipse cx="585.8681" cy="482.9331" rx="79.7281" ry="18.3456" fill="#F1F1F1" style="stroke:#181818;stroke-width:0.5;"/><text x="517.5478" y="486.4175" fill="#000000" font-size="12" lengthAdjust="spacing" textLength="136.6406" font-family="sans-serif">Consulter ses comptes</text></g><!--entity UC_HISTORY--><g class="entity" data-qualified-name="PORT.UC_HISTORY" id="ent0008" data-source-line="22"><ellipse cx="281.4391" cy="510.9381" rx="75.3191" ry="18.0406" fill="#F1F1F1" style="stroke:#181818;stroke-width:0.5;"/><text x="217.3903" y="514.4225" fill="#000000" font-size="12" lengthAdjust="spacing" textLength="128.0977" font-family="sans-serif">Consulter l'historique</text></g><!--entity UC_RECEIPT--><g class="entity" data-qualified-name="PORT.UC_RECEIPT" id="ent0009" data-source-line="23"><ellipse cx="585.867" cy="596.9367" rx="66.017" ry="25.5292" fill="#F1F1F1" style="stroke:#181818;stroke-width:0.5;"/><text x="532.4178" y="595.4713" fill="#000000" font-size="12" lengthAdjust="spacing" textLength="106.8984" font-family="sans-serif">Consulter un reçu</text><text x="541.5115" y="609.44" fill="#000000" font-size="12" lengthAdjust="spacing" textLength="88.7109" font-family="sans-serif">(HTML ou PDF)</text></g><!--entity UC_CHQ--><g class="entity" data-qualified-name="PORT.UC_CHQ" id="ent0010" data-source-line="24"><ellipse cx="281.4433" cy="586.9382" rx="106.7033" ry="23.7407" fill="#F1F1F1" style="stroke:#181818;stroke-width:0.5;"/><text x="183.7968" y="590.4225" fill="#000000" font-size="12" lengthAdjust="spacing" textLength="195.293" font-family="sans-serif">Suivre ses commandes chéquier</text></g><!--entity UC_NOTIF--><g class="entity" data-qualified-name="PORT.UC_NOTIF" id="ent0011" data-source-line="25"><ellipse cx="281.4446" cy="669.9368" rx="90.7946" ry="25.0693" fill="#F1F1F1" style="stroke:#181818;stroke-width:0.5;"/><text x="202.0501" y="670.9852" fill="#000000" font-size="12" lengthAdjust="spacing" textLength="158.7891" font-family="sans-serif">Consulter ses notifications</text><text x="233.679" y="684.954" fill="#000000" font-size="12" lengthAdjust="spacing" textLength="95.5313" font-family="sans-serif">(cloche en-tête)</text></g><!--entity client--><g class="entity" data-qualified-name="client" id="ent0001" data-source-line="12"><ellipse cx="51.3662" cy="521.4475" rx="8" ry="8" fill="#F1F1F1" style="stroke:#181818;stroke-width:0.5;"/><path d="M51.3662,529.4475 L51.3662,556.4475 M38.3662,537.4475 L64.3662,537.4475 M51.3662,556.4475 L38.3662,571.4475 M51.3662,556.4475 L64.3662,571.4475" style="stroke:#181818;stroke-width:0.5;" fill="none"/><text x="6" y="592.0862" fill="#000000" font-size="12" lengthAdjust="spacing" textLength="90.7324" font-family="sans-serif">Client bancaire</text></g><!--link ACC to PORT--><!--link client to UC_LOGIN--><g class="link" data-entity-1="ent0001" data-entity-2="ent0003" id="lnk13" data-source-line="30" data-link-type="dependency"><path d="M57.91,512.5375 C68.74,431.1675 95.14,265.0975 134.73,223.9375 C156.45,201.3575 184.5308,191.5357 213.6408,186.5857" style="stroke:#181818;stroke-width:1;" fill="none" id="client-to-UC_LOGIN"/><polygon points="218.57,185.7475,209.0268,183.3129,213.6408,186.5857,210.3679,191.1996,218.57,185.7475" fill="#181818" style="stroke:#181818;stroke-width:1;stroke-linejoin:miter;stroke-miterlimit:10;"/></g><!--link client to UC_LOGOUT--><g class="link" data-entity-1="ent0001" data-entity-2="ent0004" id="lnk14" data-source-line="31" data-link-type="dependency"><path d="M58.84,512.7675 C68,463.3775 89.03,384.4275 134.73,332.9375 C162.42,301.7475 201.6236,283.6089 234.0136,272.4289" style="stroke:#181818;stroke-width:1;" fill="none" id="client-to-UC_LOGOUT"/><polygon points="238.74,270.7975,228.9274,269.9529,234.0136,272.4289,231.5377,277.5151,238.74,270.7975" fill="#181818" style="stroke:#181818;stroke-width:1;stroke-linejoin:miter;stroke-miterlimit:10;"/></g><!--link client to UC_DASH--><g class="link" data-entity-1="ent0001" data-entity-2="ent0006" id="lnk15" data-source-line="32" data-link-type="dependency"><path d="M89.41,512.7775 C102.49,499.2575 118.12,485.4975 134.73,475.9375 C155.61,463.9175 175.4534,456.7265 198.5234,450.8765" style="stroke:#181818;stroke-width:1;" fill="none" id="client-to-UC_DASH"/><polygon points="203.37,449.6475,193.6629,447.9824,198.5234,450.8765,195.6293,455.737,203.37,449.6475" fill="#181818" style="stroke:#181818;stroke-width:1;stroke-linejoin:miter;stroke-miterlimit:10;"/></g><!--link client to UC_ACCOUNTS--><g class="link" data-entity-1="ent0001" data-entity-2="ent0007" id="lnk16" data-source-line="33" data-link-type="dependency"><path d="M62.97,603.2575 C74.15,639.7075 95.72,688.5575 134.73,711.9375 C231.34,769.8275 287.46,762.4075 388.14,711.9375 C466.49,672.6575 447.09,618.7075 506.14,553.9375 C523.87,534.4875 542.5285,517.8199 558.9285,504.0699" style="stroke:#181818;stroke-width:1;" fill="none" id="client-to-UC_ACCOUNTS"/><polygon points="562.76,500.8575,553.2934,503.5746,558.9285,504.0699,558.4332,509.705,562.76,500.8575" fill="#181818" style="stroke:#181818;stroke-width:1;stroke-linejoin:miter;stroke-miterlimit:10;"/></g><!--link client to UC_HISTORY--><g class="link" data-entity-1="ent0001" data-entity-2="ent0008" id="lnk17" data-source-line="34" data-link-type="dependency"><path d="M104.84,546.3775 C111.86,544.8675 118.97,543.3475 125.73,541.9375 C157.5,535.2875 188.1053,529.119 217.0853,523.379" style="stroke:#181818;stroke-width:1;" fill="none" id="client-to-UC_HISTORY"/><polygon points="221.99,522.4075,212.3843,520.2324,217.0853,523.379,213.9387,528.0799,221.99,522.4075" fill="#181818" style="stroke:#181818;stroke-width:1;stroke-linejoin:miter;stroke-miterlimit:10;"/></g><!--link client to UC_RECEIPT--><g class="link" data-entity-1="ent0001" data-entity-2="ent0009" id="lnk18" data-source-line="35" data-link-type="dependency"><path d="M53.31,603.0175 C57.09,653.8375 71.84,734.3875 125.73,772.9375 C255.65,865.8775 347.13,853.3575 485.14,772.9375 C541.12,740.3075 566.9244,668.1294 577.6944,627.6494" style="stroke:#181818;stroke-width:1;" fill="none" id="client-to-UC_RECEIPT"/><polygon points="578.98,622.8175,572.8005,630.4865,577.6944,627.6494,580.5315,632.5434,578.98,622.8175" fill="#181818" style="stroke:#181818;stroke-width:1;stroke-linejoin:miter;stroke-miterlimit:10;"/></g><!--link client to UC_CHQ--><g class="link" data-entity-1="ent0001" data-entity-2="ent0010" id="lnk19" data-source-line="36" data-link-type="dependency"><path d="M104.98,564.6275 C129.58,567.7475 154.65,570.9365 182.87,574.5265" style="stroke:#181818;stroke-width:1;" fill="none" id="client-to-UC_CHQ"/><polygon points="187.83,575.1575,179.4067,570.0537,182.87,574.5265,178.3972,577.9897,187.83,575.1575" fill="#181818" style="stroke:#181818;stroke-width:1;stroke-linejoin:miter;stroke-miterlimit:10;"/></g><!--link client to UC_NOTIF--><g class="link" data-entity-1="ent0001" data-entity-2="ent0011" id="lnk20" data-source-line="37" data-link-type="dependency"><path d="M98.63,603.0875 C109.8,612.2775 122.17,621.1875 134.73,627.9375 C157,639.8875 178.2331,647.4732 202.1031,653.9232" style="stroke:#181818;stroke-width:1;" fill="none" id="client-to-UC_NOTIF"/><polygon points="206.93,655.2275,199.285,649.0183,202.1031,653.9232,197.1982,656.7413,206.93,655.2275" fill="#181818" style="stroke:#181818;stroke-width:1;stroke-linejoin:miter;stroke-miterlimit:10;"/></g><!--link UC_DASH to UC_ACCOUNTS--><g class="link" data-entity-1="ent0006" data-entity-2="ent0007" id="lnk21" data-source-line="39" data-link-type="dependency"><path d="M361.5,448.9575 C410.33,456.3875 467.3269,465.0552 513.5869,472.0952" style="stroke:#181818;stroke-width:1;stroke-dasharray:7,7;" fill="none" id="UC_DASH-to-UC_ACCOUNTS"/><polygon points="518.53,472.8475,510.2342,467.539,513.5869,472.0952,509.0306,475.4479,518.53,472.8475" fill="#181818" style="stroke:#181818;stroke-width:1;stroke-linejoin:miter;stroke-miterlimit:10;"/><text x="418.14" y="447.0762" fill="#000000" font-size="12" lengthAdjust="spacing" textLength="58.1602" font-family="sans-serif">«include»</text></g><!--link UC_HISTORY to UC_RECEIPT--><g class="link" data-entity-1="ent0008" data-entity-2="ent0009" id="lnk22" data-source-line="40" data-link-type="dependency"><path d="M331.36,524.8475 C386.36,540.4875 470.5406,564.4301 527.1306,580.5201" style="stroke:#181818;stroke-width:1;stroke-dasharray:7,7;" fill="none" id="UC_HISTORY-to-UC_RECEIPT"/><polygon points="531.94,581.8875,524.3771,575.5786,527.1306,580.5201,522.1892,583.2736,531.94,581.8875" fill="#181818" style="stroke:#181818;stroke-width:1;stroke-linejoin:miter;stroke-miterlimit:10;"/><text x="419.14" y="538.0762" fill="#000000" font-size="12" lengthAdjust="spacing" textLength="56.4785" font-family="sans-serif">«extend»</text></g><?plantuml-src TLFTZj906BsVf_Z23Re9IzIzC6P3GheW92j5MYwC6ZFCVD09mqntVjnLO-93-0wwNlaCyYO-YTD2eOtiNNE-Stg-SxvMujA1qs34AdF0XK7cX5R4heNAgQ4Ri1db-bQe5Iofj5YRv9IjwGeJzqaY54AgLh9EK9gZnHoUNTH0GzMw02-Ura2EI-gb6shb4l4PuKbzs3T6tvuUvPJpOhNdX3ZXmXfJRHmL4fWKg1py_VOT6BN0szu9AImjmn7Ad3RGYdQa1LMCXkGj2CoTa9137cZr6Tl-31EzsNW5NQbNGfNSVXJ15mBWBGQJm4pQrBiiwCLIe7cd7aNZ2MWFwi_l_OiVby9vzE4wVZcUDBG8V7lFj5B16KsD5yzJyhMnqS26xh4AsSsBqB9xTbQAfl4iRQuLQML3ksWWY1rTIAG-L0uBRNZbSzLFHgSr5ilikKDRaKFmU3v9amTCsfcmeM1nux5IZCP96i_Ud1Q4LWrkV_XGs2XzTLqqDhqQ7ggQ3QB1U9esolBYey5gjGrLl7ZAjlStNXoxYqQl7uwaT74bLduHDZWpgLc6WAhZjhyS7jmdSJeU5lqNr-wypGJdgDwN_qkdx9gG_HqwdTxnilzXnHMRO5bv4peKsuIhzfferKiJBK8taLq2idU4y_E65Ro0oqkXcFGSUproTAk8UvkIXtSE5U_r_W40?></g></svg>