<svg xmlns="http://www.w3.org/2000/svg" xmlns:xlink="http://www.w3.org/1999/xlink" contentStyleType="text/css" height="1058px" preserveAspectRatio="none" style="width:1203px;height:1058px;background:#FFFFFF;" version="1.1" viewBox="0 0 1203 1058" width="1203px" zoomAndPan="magnify"><title>S&#233;quence &#8212; Commande de ch&#233;quier</title><defs/><g><text fill="#000000" font-family="sans-serif" font-size="14" font-weight="bold" lengthAdjust="spacing" textLength="247.0576" x="479.3171" y="29.5332">S&#233;quence &#8212; Commande de ch&#233;quier</text><rect fill="none" height="432.5938" style="stroke:#000000;stroke-width:1.5;" width="1186.6919" x="10" y="245.625"/><rect fill="none" height="293.3516" style="stroke:#000000;stroke-width:1.5;" width="1166.6919" x="20" y="377.8672"/><line style="stroke:#181818;stroke-width:0.5;stroke-dasharray:5.0,5.0;" x1="80" x2="80" y1="121.2188" y2="976.7344"/><line style="stroke:#181818;stroke-width:0.5;stroke-dasharray:5.0,5.0;" x1="294.2417" x2="294.2417" y1="121.2188" y2="976.7344"/><line style="stroke:#181818;stroke-width:0.5;stroke-dasharray:5.0,5.0;" x1="650.6592" x2="650.6592" y1="121.2188" y2="976.7344"/><line style="stroke:#181818;stroke-width:0.5;stroke-dasharray:5.0,5.0;" x1="897.2241" x2="897.2241" y1="121.2188" y2="976.7344"/><line style="stroke:#181818;stroke-width:0.5;stroke-dasharray:5.0,5.0;" x1="1028.1616" x2="1028.1616" y1="121.2188" y2="976.7344"/><line style="stroke:#181818;stroke-width:0.5;stroke-dasharray:5.0,5.0;" x1="1135.4302" x2="1135.4302" y1="121.2188" y2="976.7344"/><text fill="#000000" font-family="sans-serif" font-size="14" lengthAdjust="spacing" textLength="94.1787" x="30" y="118.1426">Agent bancaire</text><ellipse cx="80.0894" cy="52.1094" fill="#E2E2F0" rx="8" ry="8" style="stroke:#181818;stroke-width:0.5;"/><path d="M80.0894,60.1094 L80.0894,87.1094 M67.0894,68.1094 L93.0894,68.1094 M80.0894,87.1094 L67.0894,102.1094 M80.0894,87.1094 L93.0894,102.1094 " fill="none" style="stroke:#181818;stroke-width:0.5;"/><text fill="#000000" font-family="sans-serif" font-size="14" lengthAdjust="spacing" textLength="94.1787" x="30" y="990.2676">Agent bancaire</text><ellipse cx="80.0894" cy="1001.8438" fill="#E2E2F0" rx="8" ry="8" style="stroke:#181818;stroke-width:0.5;"/><path d="M80.0894,1009.8438 L80.0894,1036.8438 M67.0894,1017.8438 L93.0894,1017.8438 M80.0894,1036.8438 L67.0894,1051.8438 M80.0894,1036.8438 L93.0894,1051.8438 " fill="none" style="stroke:#181818;stroke-width:0.5;"/><rect fill="#E2E2F0" height="31.6094" rx="2.5" ry="2.5" style="stroke:#181818;stroke-width:0.5;" width="180.5166" x="204.2417" y="88.6094"/><text fill="#000000" font-family="sans-serif" font-size="14" lengthAdjust="spacing" textLength="166.5166" x="211.2417" y="110.1426">CheckbookOrderController</text><rect fill="#E2E2F0" height="31.6094" rx="2.5" ry="2.5" style="stroke:#181818;stroke-width:0.5;" width="180.5166" x="204.2417" y="975.7344"/><text fill="#000000" font-family="sans-serif" font-size="14" lengthAdjust="spacing" textLength="166.5166" x="211.2417" y="997.2676">CheckbookOrderController</text><rect fill="#E2E2F0" height="31.6094" rx="2.5" ry="2.5" style="stroke:#181818;stroke-width:0.5;" width="166.5098" x="567.6592" y="88.6094"/><text fill="#000000" font-family="sans-serif" font-size="14" lengthAdjust="spacing" textLength="152.5098" x="574.6592" y="110.1426">CheckbookOrderService</text><rect fill="#E2E2F0" height="31.6094" rx="2.5" ry="2.5" style="stroke:#181818;stroke-width:0.5;" width="166.5098" x="567.6592" y="975.7344"/><text fill="#000000" font-family="sans-serif" font-size="14" lengthAdjust="spacing" textLength="152.5098" x="574.6592" y="997.2676">CheckbookOrderService</text><rect fill="#E2E2F0" height="31.6094" rx="2.5" ry="2.5" style="stroke:#181818;stroke-width:0.5;" width="129.9375" x="833.2241" y="88.6094"/><text fill="#000000" font-family="sans-serif" font-size="14" lengthAdjust="spacing" textLength="115.9375" x="840.2241" y="110.1426">NotificationService</text><rect fill="#E2E2F0" height="31.6094" rx="2.5" ry="2.5" style="stroke:#181818;stroke-width:0.5;" width="129.9375" x="833.2241" y="975.7344"/><text fill="#000000" font-family="sans-serif" font-size="14" lengthAdjust="spacing" textLength="115.9375" x="840.2241" y="997.2676">NotificationService</text><rect fill="#E2E2F0" height="31.6094" rx="2.5" ry="2.5" style="stroke:#181818;stroke-width:0.5;" width="111.2686" x="973.1616" y="88.6094"/><text fill="#000000" font-family="sans-serif" font-size="14" lengthAdjust="spacing" textLength="97.2686" x="980.1616" y="110.1426">AccountService</text><rect fill="#E2E2F0" height="31.6094" rx="2.5" ry="2.5" style="stroke:#181818;stroke-width:0.5;" width="111.2686" x="973.1616" y="975.7344"/><text fill="#000000" font-family="sans-serif" font-size="14" lengthAdjust="spacing" textLength="97.2686" x="980.1616" y="997.2676">AccountService</text><text fill="#000000" font-family="sans-serif" font-size="14" lengthAdjust="spacing" textLength="76.2617" x="1094.4302" y="118.1426">PostgreSQL</text><path d="M1117.561,67.6094 C1117.561,57.6094 1135.561,57.6094 1135.561,57.6094 C1135.561,57.6094 1153.561,57.6094 1153.561,67.6094 L1153.561,93.6094 C1153.561,103.6094 1135.561,103.6094 1135.561,103.6094 C1135.561,103.6094 1117.561,103.6094 1117.561,93.6094 L1117.561,67.6094 " fill="#E2E2F0" style="stroke:#181818;stroke-width:1.5;"/><path d="M1117.561,67.6094 C1117.561,77.6094 1135.561,77.6094 1135.561,77.6094 C1135.561,77.6094 1153.561,77.6094 1153.561,67.6094 " fill="none" style="stroke:#181818;stroke-width:1.5;"/><text fill="#000000" font-family="sans-serif" font-size="14" lengthAdjust="spacing" textLength="76.2617" x="1094.4302" y="990.2676">PostgreSQL</text><path d="M1117.561,1003.3438 C1117.561,993.3438 1135.561,993.3438 1135.561,993.3438 C1135.561,993.3438 1153.561,993.3438 1153.561,1003.3438 L1153.561,1029.3438 C1153.561,1039.3438 1135.561,1039.3438 1135.561,1039.3438 C1135.561,1039.3438 1117.561,1039.3438 1117.561,1029.3438 L1117.561,1003.3438 " fill="#E2E2F0" style="stroke:#181818;stroke-width:1.5;"/><path d="M1117.561,1003.3438 C1117.561,1013.3438 1135.561,1013.3438 1135.561,1013.3438 C1135.561,1013.3438 1153.561,1013.3438 1153.561,1003.3438 " fill="none" style="stroke:#181818;stroke-width:1.5;"/><polygon fill="#181818" points="282.5,165.9219,292.5,169.9219,282.5,173.9219,286.5,169.9219" style="stroke:#181818;stroke-width:1;"/><line style="stroke:#181818;stroke-width:1;" x1="80.0894" x2="288.5" y1="169.9219" y2="169.9219"/><text fill="#000000" font-family="sans-serif" font-size="13" lengthAdjust="spacing" textLength="125.0044" x="87.0894" y="148.7139">Depuis fiche compte :</text><text fill="#000000" font-family="sans-serif" font-size="13" lengthAdjust="spacing" textLength="190.4106" x="87.0894" y="165.0654">quantit&#233; + format (20/40 feuillets)</text><polygon fill="#181818" points="638.9141,196.2734,648.9141,200.2734,638.9141,204.2734,642.9141,200.2734" style="stroke:#181818;stroke-width:1;"/><line style="stroke:#181818;stroke-width:1;" x1="294.5" x2="644.9141" y1="200.2734" y2="200.2734"/><text fill="#000000" font-family="sans-serif" font-size="13" lengthAdjust="spacing" textLength="332.4141" x="301.5" y="195.417">requestCheckbook(accountId, quantity, sheetCount, user)</text><polygon fill="#181818" points="1016.7959,226.625,1026.7959,230.625,1016.7959,234.625,1020.7959,230.625" style="stroke:#181818;stroke-width:1;"/><line style="stroke:#181818;stroke-width:1;" x1="650.9141" x2="1022.7959" y1="230.625" y2="230.625"/><text fill="#000000" font-family="sans-serif" font-size="13" lengthAdjust="spacing" textLength="185.3452" x="657.9141" y="225.7686">findAccount + v&#233;rifier type/statut</text><path d="M10,245.625 L70.1709,245.625 L70.1709,253.9766 L60.1709,263.9766 L10,263.9766 L10,245.625 " fill="#EEEEEE" style="stroke:#000000;stroke-width:1.5;"/><rect fill="none" height="432.5938" style="stroke:#000000;stroke-width:1.5;" width="1186.6919" x="10" y="245.625"/><text fill="#000000" font-family="sans-serif" font-size="13" font-weight="bold" lengthAdjust="spacing" textLength="15.1709" x="25" y="260.1201">alt</text><text fill="#000000" font-family="sans-serif" font-size="11" font-weight="bold" lengthAdjust="spacing" textLength="172.9546" x="85.1709" y="259.0439">[compte &#233;pargne ou non &#233;ligible]</text><polygon fill="#181818" points="305.5,282.3281,295.5,286.3281,305.5,290.3281,301.5,286.3281" style="stroke:#181818;stroke-width:1;"/><line style="stroke:#181818;stroke-width:1;stroke-dasharray:2.0,2.0;" x1="299.5" x2="649.9141" y1="286.3281" y2="286.3281"/><text fill="#000000" font-family="sans-serif" font-size="13" lengthAdjust="spacing" textLength="74.4072" x="311.5" y="281.4717">erreur m&#233;tier</text><polygon fill="#181818" points="91.0894,312.6797,81.0894,316.6797,91.0894,320.6797,87.0894,316.6797" style="stroke:#181818;stroke-width:1;"/><line style="stroke:#181818;stroke-width:1;stroke-dasharray:2.0,2.0;" x1="85.0894" x2="293.5" y1="316.6797" y2="316.6797"/><text fill="#000000" font-family="sans-serif" font-size="13" lengthAdjust="spacing" textLength="100.75" x="97.0894" y="311.8232">message d'erreur</text><line style="stroke:#000000;stroke-width:1;stroke-dasharray:2.0,2.0;" x1="10" x2="1196.6919" y1="325.6797" y2="325.6797"/><text fill="#000000" font-family="sans-serif" font-size="11" font-weight="bold" lengthAdjust="spacing" textLength="136.2861" x="15" y="337.0986">[compte courant/pro actif]</text><polygon fill="#181818" points="1123.561,358.8672,1133.561,362.8672,1123.561,366.8672,1127.561,362.8672" style="stroke:#181818;stroke-width:1;"/><line style="stroke:#181818;stroke-width:1;" x1="650.9141" x2="1129.561" y1="362.8672" y2="362.8672"/><text fill="#000000" font-family="sans-serif" font-size="13" lengthAdjust="spacing" textLength="212.4116" x="657.9141" y="358.0107">v&#233;rifier pas de commande PENDING</text><path d="M20,377.8672 L80.1709,377.8672 L80.1709,386.2188 L70.1709,396.2188 L20,396.2188 L20,377.8672 " fill="#EEEEEE" style="stroke:#000000;stroke-width:1.5;"/><rect fill="none" height="293.3516" style="stroke:#000000;stroke-width:1.5;" width="1166.6919" x="20" y="377.8672"/><text fill="#000000" font-family="sans-serif" font-size="13" font-weight="bold" lengthAdjust="spacing" textLength="15.1709" x="35" y="392.3623">alt</text><text fill="#000000" font-family="sans-serif" font-size="11" font-weight="bold" lengthAdjust="spacing" textLength="165.0483" x="95.1709" y="391.2861">[commande en cours existante]</text><polygon fill="#181818" points="305.5,414.5703,295.5,418.5703,305.5,422.5703,301.5,418.5703" style="stroke:#181818;stroke-width:1;"/><line style="stroke:#181818;stroke-width:1;stroke-dasharray:2.0,2.0;" x1="299.5" x2="649.9141" y1="418.5703" y2="418.5703"/><text fill="#000000" font-family="sans-serif" font-size="13" lengthAdjust="spacing" textLength="84.5571" x="311.5" y="413.7139">erreur doublon</text><polygon fill="#181818" points="91.0894,444.9219,81.0894,448.9219,91.0894,452.9219,87.0894,448.9219" style="stroke:#181818;stroke-width:1;"/><line style="stroke:#181818;stroke-width:1;stroke-dasharray:2.0,2.0;" x1="85.0894" x2="293.5" y1="448.9219" y2="448.9219"/><text fill="#000000" font-family="sans-serif" font-size="13" lengthAdjust="spacing" textLength="100.75" x="97.0894" y="444.0654">message d'erreur</text><line style="stroke:#000000;stroke-width:1;stroke-dasharray:2.0,2.0;" x1="20" x2="1186.6919" y1="457.9219" y2="457.9219"/><text fill="#000000" font-family="sans-serif" font-size="11" font-weight="bold" lengthAdjust="spacing" textLength="23.8262" x="25" y="469.3408">[OK]</text><polygon fill="#181818" points="1123.561,507.4609,1133.561,511.4609,1123.561,515.4609,1127.561,511.4609" style="stroke:#181818;stroke-width:1;"/><line style="stroke:#181818;stroke-width:1;" x1="650.9141" x2="1129.561" y1="511.4609" y2="511.4609"/><text fill="#000000" font-family="sans-serif" font-size="13" lengthAdjust="spacing" textLength="151.0107" x="657.9141" y="490.2529">INSERT checkbook_order</text><text fill="#000000" font-family="sans-serif" font-size="13" lengthAdjust="spacing" textLength="172.6943" x="657.9141" y="506.6045">statut PENDING, sheet_count</text><polygon fill="#181818" points="886.1929,537.8125,896.1929,541.8125,886.1929,545.8125,890.1929,541.8125" style="stroke:#181818;stroke-width:1;"/><line style="stroke:#181818;stroke-width:1;" x1="650.9141" x2="892.1929" y1="541.8125" y2="541.8125"/><text fill="#000000" font-family="sans-serif" font-size="13" lengthAdjust="spacing" textLength="223.2788" x="657.9141" y="536.9561">notifyChefsAboutNewCheckbookOrder</text><polygon fill="#181818" points="1123.561,568.1641,1133.561,572.1641,1123.561,576.1641,1127.561,572.1641" style="stroke:#181818;stroke-width:1;"/><line style="stroke:#181818;stroke-width:1;" x1="898.1929" x2="1129.561" y1="572.1641" y2="572.1641"/><text fill="#000000" font-family="sans-serif" font-size="13" lengthAdjust="spacing" textLength="163.2744" x="905.1929" y="567.3076">INSERT notifications (chefs)</text><polygon fill="#181818" points="1123.561,598.5156,1133.561,602.5156,1123.561,606.5156,1127.561,602.5156" style="stroke:#181818;stroke-width:1;"/><line style="stroke:#181818;stroke-width:1;" x1="650.9141" x2="1129.561" y1="602.5156" y2="602.5156"/><text fill="#000000" font-family="sans-serif" font-size="13" lengthAdjust="spacing" textLength="259.3589" x="657.9141" y="597.6592">audit log CHECKBOOK_ORDER_CREATED</text><polygon fill="#181818" points="305.5,628.8672,295.5,632.8672,305.5,636.8672,301.5,632.8672" style="stroke:#181818;stroke-width:1;"/><line style="stroke:#181818;stroke-width:1;stroke-dasharray:2.0,2.0;" x1="299.5" x2="649.9141" y1="632.8672" y2="632.8672"/><text fill="#000000" font-family="sans-serif" font-size="13" lengthAdjust="spacing" textLength="98.2681" x="311.5" y="628.0107">CheckbookOrder</text><polygon fill="#181818" points="91.0894,659.2188,81.0894,663.2188,91.0894,667.2188,87.0894,663.2188" style="stroke:#181818;stroke-width:1;"/><line style="stroke:#181818;stroke-width:1;stroke-dasharray:2.0,2.0;" x1="85.0894" x2="293.5" y1="663.2188" y2="663.2188"/><text fill="#000000" font-family="sans-serif" font-size="13" lengthAdjust="spacing" textLength="155.873" x="97.0894" y="658.3623">confirmation + n&#176; demande</text><polygon fill="#181818" points="282.5,703.5703,292.5,707.5703,282.5,711.5703,286.5,707.5703" style="stroke:#181818;stroke-width:1;"/><line style="stroke:#181818;stroke-width:1;" x1="80.0894" x2="288.5" y1="707.5703" y2="707.5703"/><text fill="#000000" font-family="sans-serif" font-size="13" lengthAdjust="spacing" textLength="181.3335" x="87.0894" y="702.7139">Marquer EN_COURS / LIVR&#201;E</text><polygon fill="#181818" points="638.9141,733.9219,648.9141,737.9219,638.9141,741.9219,642.9141,737.9219" style="stroke:#181818;stroke-width:1;"/><line style="stroke:#181818;stroke-width:1;" x1="294.5" x2="644.9141" y1="737.9219" y2="737.9219"/><text fill="#000000" font-family="sans-serif" font-size="13" lengthAdjust="spacing" textLength="226.9033" x="301.5" y="733.0654">updateStatus(orderId, newStatus, user)</text><polygon fill="#181818" points="1123.561,764.2734,1133.561,768.2734,1123.561,772.2734,1127.561,768.2734" style="stroke:#181818;stroke-width:1;"/><line style="stroke:#181818;stroke-width:1;" x1="650.9141" x2="1129.561" y1="768.2734" y2="768.2734"/><text fill="#000000" font-family="sans-serif" font-size="13" lengthAdjust="spacing" textLength="134.7544" x="657.9141" y="763.417">UPDATE statut + dates</text><polygon fill="#181818" points="886.1929,794.625,896.1929,798.625,886.1929,802.625,890.1929,798.625" style="stroke:#181818;stroke-width:1;"/><line style="stroke:#181818;stroke-width:1;" x1="650.9141" x2="892.1929" y1="798.625" y2="798.625"/><text fill="#000000" font-family="sans-serif" font-size="13" lengthAdjust="spacing" textLength="207.416" x="657.9141" y="793.7686">notifyRequesterAboutStatusChange</text><polygon fill="#181818" points="1123.561,824.9766,1133.561,828.9766,1123.561,832.9766,1127.561,828.9766" style="stroke:#181818;stroke-width:1;"/><line style="stroke:#181818;stroke-width:1;" x1="898.1929" x2="1129.561" y1="828.9766" y2="828.9766"/><text fill="#000000" font-family="sans-serif" font-size="13" lengthAdjust="spacing" textLength="191.4707" x="905.1929" y="824.1201">INSERT notification (demandeur)</text><polygon fill="#181818" points="1123.561,855.3281,1133.561,859.3281,1123.561,863.3281,1127.561,859.3281" style="stroke:#181818;stroke-width:1;"/><line style="stroke:#181818;stroke-width:1;" x1="650.9141" x2="1129.561" y1="859.3281" y2="859.3281"/><text fill="#000000" font-family="sans-serif" font-size="13" lengthAdjust="spacing" textLength="49.1499" x="657.9141" y="854.4717">audit log</text><polygon fill="#181818" points="91.0894,885.6797,81.0894,889.6797,91.0894,893.6797,87.0894,889.6797" style="stroke:#181818;stroke-width:1;"/><line style="stroke:#181818;stroke-width:1;stroke-dasharray:2.0,2.0;" x1="85.0894" x2="293.5" y1="889.6797" y2="889.6797"/><text fill="#000000" font-family="sans-serif" font-size="13" lengthAdjust="spacing" textLength="162.5698" x="97.0894" y="884.8232">fiche commande mise &#224; jour</text><path d="M655,902.6797 L655,961.6797 L996,961.6797 L996,912.6797 L986,902.6797 L655,902.6797 " fill="#FEFFDD" style="stroke:#181818;stroke-width:0.5;"/><path d="M986,902.6797 L986,912.6797 L996,912.6797 L986,902.6797 " fill="#FEFFDD" style="stroke:#181818;stroke-width:0.5;"/><text fill="#000000" font-family="sans-serif" font-size="13" lengthAdjust="spacing" textLength="164.7534" x="661" y="921.1748">Pas de mouvement financier</text><text fill="#000000" font-family="sans-serif" font-size="13" lengthAdjust="spacing" textLength="320.7661" x="661" y="937.5264">Workflow : PENDING &#8594; PROCESSING &#8594; DELIVERED</text><text fill="#000000" font-family="sans-serif" font-size="13" lengthAdjust="spacing" textLength="104.7554" x="661" y="953.8779">(ou CANCELLED)</text><!--SRC=[XLJ1RXen4BtxAqPSIfH4H5LFELGYowf5IO0kINk9XCpkxEAoQsziBpItdYhrMlK3UkNMRoX_aY_fsBiG4j960Y76upTlthoncGjPSiqBC3EUgAMG6QGyDyZCzaIZAPKqU8d6y0pFC5VBhjPg2LPNo9WLDaSOhrUt5SeOuVxhJmXKKN2P8D0ddhaZWPen7bkbeTNDK5gOSXbpeR45t01t8KO5hOX5oUcu5Smmda-LcWzrWZfGqcgLvwXzVcnr_h_qCUg5Y6jiiuWVfmwK5Qc8kHLAxYPA5t-SserZLKcxcyNZc2NSyYat2AsHCZRJEFvmuG-JANNfspj-wqd2AVImh8G1gZWZDLHHMeJJ6tbRKGLXroiuX5JfWbjelpxfl3c152j1dLfpm3m4GL4FXAIHD3PsssgRr_JwoH4qS7T7D4f46xZu4LG6zG5ZxZgXK3gXf48cJLzKUh5UQL83DTYx4Zl6SbjPndExeRfUaIAPH50LAIJfVouoCSsHWQTr_D0fQesLXcAzicxUKCTTGgt9AHIrYI1vLUSo9BDjAX4bJKrqIgs8gfj5K-4jwKgN7wYMJcf_hxRPA1pq-eDtbDyGhyCeFQO1_2AeCMaTvt-nJbGrpPNq6I_p1l3CX-SFY0tB_c0SHbTa-sP84-KCUIDhPJTKcp5D_1XsCRm92SR_tj6eKzETgieESFdOulvIdVsajDpnju5sx30EzdZoAX4MSfL1y3uCpi-6m_F9CEg5qII8mkvLs7jEgsSex6aLAvaAvsSgJmQJVtxJhFn0d6eoOUwxjoMNN9EvDOI3IJ2yZiRGWOl-nsZzFNoo15L9suTZfwPfUssT_IKkwz36yxkjNezwr10q4pW41s3Oiu97zOgXzgBNaC6CompPYrf3k-cpUb9_ApNR4slxAjIEBGIPQlqBFfDjcQk8e4Ksiw1I_uu1Z6hh5wfQOE4mQ9tf9QttxPFIyvJUPm9kV0Rtttx0A1e6uNYy-TiBITamyXDkqrO7tK4GNbo4lGCt6jSIihy0]--></g></svg>