<svg xmlns="http://www.w3.org/2000/svg" xmlns:xlink="http://www.w3.org/1999/xlink" version="1.1" data-diagram-type="CLASS" style="width:1199px;height:606px;background:#FFFFFF;" width="1199px" height="606px" viewBox="0 0 1199 606" zoomAndPan="magnify" preserveAspectRatio="none" contentStyleType="text/css"><?plantuml 1.2026.7beta3?><defs/><g><g class="title" data-source-line="14"><text x="394.3039" y="34.9951" fill="#000000" font-size="14" lengthAdjust="spacing" textLength="403.8672" font-weight="700" font-family="sans-serif">Diagramme de classes — Vue 2 : Extensions métier</text></g><rect x="3" y="64.2969" width="1183.4751" height="16.6406" fill="#FFFFCC" style="stroke:#FFDD88;stroke-width:3;" rx="2.5" ry="2.5"/><text x="10" y="74.9375" fill="#000000" font-size="10" lengthAdjust="spacing" textLength="295.0049" font-family="monospace">Please use CSS style instead of skinparam padding</text><!--class BillProvider--><g class="entity" data-qualified-name="BillProvider" id="ent0001" data-source-line="22"><rect x="7" y="109.4975" width="150" height="143.3984" fill="#E8EAF6" style="stroke:#333333;stroke-width:0.5;" rx="2.5" ry="2.5"/><ellipse cx="30.9938" cy="134.0639" rx="10" ry="10" fill="#ADD1B2" style="stroke:#181818;stroke-width:1;"/><path d="M32.8532,138.2983 Q32.4157,138.517 31.9157,138.6264 Q31.4313,138.7514 30.9001,138.7514 Q28.9782,138.7514 27.9626,137.4858 Q26.9626,136.2202 26.9626,133.8295 Q26.9626,131.4389 27.9626,130.1733 Q28.9782,128.9077 30.9001,128.9077 Q31.4313,128.9077 31.9313,129.0327 Q32.4313,129.142 32.8532,129.3764 L32.8532,131.4545 Q32.3688,131.017 31.9157,130.8139 Q31.4626,130.5952 30.9782,130.5952 Q29.9626,130.5952 29.4313,131.4233 Q28.9001,132.2358 28.9001,133.8295 Q28.9001,135.4389 29.4313,136.2514 Q29.9626,137.0639 30.9782,137.0639 Q31.4626,137.0639 31.9157,136.8608 Q32.3688,136.6577 32.8532,136.2045 L32.8532,138.2983 Z " fill="#000000"/><text x="58.2147" y="138.5644" fill="#000000" font-size="13" lengthAdjust="spacing" textLength="73.7915" font-family="sans-serif">BillProvider</text><line x1="8" y1="158.6303" x2="156" y2="158.6303" style="stroke:#333333;stroke-width:0.5;"/><text x="25" y="186.6972" fill="#000000" font-size="13" lengthAdjust="spacing" textLength="87.4834" font-family="sans-serif">-code : String</text><text x="25" y="225.83" fill="#000000" font-size="13" lengthAdjust="spacing" textLength="92.9995" font-family="sans-serif">-name : String</text><line x1="8" y1="244.8959" x2="156" y2="244.8959" style="stroke:#333333;stroke-width:0.5;"/></g><!--class BillPayment--><g class="entity" data-qualified-name="BillPayment" id="ent0002" data-source-line="27"><rect x="211.91" y="109.4975" width="194.1709" height="143.3984" fill="#E8EAF6" style="stroke:#333333;stroke-width:0.5;" rx="2.5" ry="2.5"/><ellipse cx="254.37" cy="134.0639" rx="10" ry="10" fill="#ADD1B2" style="stroke:#181818;stroke-width:1;"/><path d="M256.2293,138.2983 Q255.7918,138.517 255.2918,138.6264 Q254.8075,138.7514 254.2762,138.7514 Q252.3543,138.7514 251.3387,137.4858 Q250.3387,136.2202 250.3387,133.8295 Q250.3387,131.4389 251.3387,130.1733 Q252.3543,128.9077 254.2762,128.9077 Q254.8075,128.9077 255.3075,129.0327 Q255.8075,129.142 256.2293,129.3764 L256.2293,131.4545 Q255.745,131.017 255.2918,130.8139 Q254.8387,130.5952 254.3543,130.5952 Q253.3387,130.5952 252.8075,131.4233 Q252.2762,132.2358 252.2762,133.8295 Q252.2762,135.4389 252.8075,136.2514 Q253.3387,137.0639 254.3543,137.0639 Q254.8387,137.0639 255.2918,136.8608 Q255.745,136.6577 256.2293,136.2045 L256.2293,138.2983 Z " fill="#000000"/><text x="285.37" y="138.5644" fill="#000000" font-size="13" lengthAdjust="spacing" textLength="77.251" font-family="sans-serif">BillPayment</text><line x1="212.91" y1="158.6303" x2="405.0809" y2="158.6303" style="stroke:#333333;stroke-width:0.5;"/><text x="229.91" y="186.6972" fill="#000000" font-size="13" lengthAdjust="spacing" textLength="158.1709" font-family="sans-serif">-clientReference : String</text><text x="229.91" y="225.83" fill="#000000" font-size="13" lengthAdjust="spacing" textLength="141.2861" font-family="sans-serif">-amount : BigDecimal</text><line x1="212.91" y1="244.8959" x2="405.0809" y2="244.8959" style="stroke:#333333;stroke-width:0.5;"/></g><!--class CheckbookOrder--><g class="entity" data-qualified-name="CheckbookOrder" id="ent0003" data-source-line="32"><rect x="461.22" y="109.4975" width="243.5557" height="143.3984" fill="#F3E5F5" style="stroke:#333333;stroke-width:0.5;" rx="2.5" ry="2.5"/><ellipse cx="512.573" cy="134.0639" rx="10" ry="10" fill="#ADD1B2" style="stroke:#181818;stroke-width:1;"/><path d="M514.4324,138.2983 Q513.9949,138.517 513.4949,138.6264 Q513.0105,138.7514 512.4793,138.7514 Q510.5574,138.7514 509.5418,137.4858 Q508.5418,136.2202 508.5418,133.8295 Q508.5418,131.4389 509.5418,130.1733 Q510.5574,128.9077 512.4793,128.9077 Q513.0105,128.9077 513.5105,129.0327 Q514.0105,129.142 514.4324,129.3764 L514.4324,131.4545 Q513.948,131.017 513.4949,130.8139 Q513.0418,130.5952 512.5574,130.5952 Q511.5418,130.5952 511.0105,131.4233 Q510.4793,132.2358 510.4793,133.8295 Q510.4793,135.4389 511.0105,136.2514 Q511.5418,137.0639 512.5574,137.0639 Q513.0418,137.0639 513.4949,136.8608 Q513.948,136.6577 514.4324,136.2045 L514.4324,138.2983 Z " fill="#000000"/><text x="543.573" y="138.5644" fill="#000000" font-size="13" lengthAdjust="spacing" textLength="108.8496" font-family="sans-serif">CheckbookOrder</text><line x1="462.22" y1="158.6303" x2="703.7757" y2="158.6303" style="stroke:#333333;stroke-width:0.5;"/><text x="479.22" y="186.6972" fill="#000000" font-size="13" lengthAdjust="spacing" textLength="143.2476" font-family="sans-serif">-orderNumber : String</text><text x="479.22" y="225.83" fill="#000000" font-size="13" lengthAdjust="spacing" textLength="207.5557" font-family="sans-serif">-status : CheckbookOrderStatus</text><line x1="462.22" y1="244.8959" x2="703.7757" y2="244.8959" style="stroke:#333333;stroke-width:0.5;"/></g><!--class Notification--><g class="entity" data-qualified-name="Notification" id="ent0004" data-source-line="37"><rect x="759.57" y="89.9375" width="188.8516" height="182.5313" fill="#ECEFF1" style="stroke:#333333;stroke-width:0.5;" rx="2.5" ry="2.5"/><ellipse cx="800.7001" cy="114.5039" rx="10" ry="10" fill="#ADD1B2" style="stroke:#181818;stroke-width:1;"/><path d="M802.5595,118.7383 Q802.122,118.957 801.622,119.0664 Q801.1376,119.1914 800.6064,119.1914 Q798.6845,119.1914 797.6689,117.9258 Q796.6689,116.6602 796.6689,114.2695 Q796.6689,111.8789 797.6689,110.6133 Q798.6845,109.3477 800.6064,109.3477 Q801.1376,109.3477 801.6376,109.4727 Q802.1376,109.582 802.5595,109.8164 L802.5595,111.8945 Q802.0751,111.457 801.622,111.2539 Q801.1689,111.0352 800.6845,111.0352 Q799.6689,111.0352 799.1376,111.8633 Q798.6064,112.6758 798.6064,114.2695 Q798.6064,115.8789 799.1376,116.6914 Q799.6689,117.5039 800.6845,117.5039 Q801.1689,117.5039 801.622,117.3008 Q802.0751,117.0977 802.5595,116.6445 L802.5595,118.7383 Z " fill="#000000"/><text x="831.7001" y="119.0044" fill="#000000" font-size="13" lengthAdjust="spacing" textLength="74.5913" font-family="sans-serif">Notification</text><line x1="760.57" y1="139.0703" x2="947.4216" y2="139.0703" style="stroke:#333333;stroke-width:0.5;"/><text x="777.57" y="167.1372" fill="#000000" font-size="13" lengthAdjust="spacing" textLength="152.8516" font-family="sans-serif">-type : NotificationType</text><text x="777.57" y="206.27" fill="#000000" font-size="13" lengthAdjust="spacing" textLength="81.5483" font-family="sans-serif">-title : String</text><text x="777.57" y="245.4028" fill="#000000" font-size="13" lengthAdjust="spacing" textLength="98.8711" font-family="sans-serif">-read : boolean</text><line x1="760.57" y1="264.4688" x2="947.4216" y2="264.4688" style="stroke:#333333;stroke-width:0.5;"/></g><!--class AuditLog--><g class="entity" data-qualified-name="AuditLog" id="ent0005" data-source-line="43"><rect x="1003.52" y="89.9375" width="180.9551" height="182.5313" fill="#ECEFF1" style="stroke:#333333;stroke-width:0.5;" rx="2.5" ry="2.5"/><ellipse cx="1049.2268" cy="114.5039" rx="10" ry="10" fill="#ADD1B2" style="stroke:#181818;stroke-width:1;"/><path d="M1051.0862,118.7383 Q1050.6487,118.957 1050.1487,119.0664 Q1049.6643,119.1914 1049.133,119.1914 Q1047.2112,119.1914 1046.1955,117.9258 Q1045.1955,116.6602 1045.1955,114.2695 Q1045.1955,111.8789 1046.1955,110.6133 Q1047.2112,109.3477 1049.133,109.3477 Q1049.6643,109.3477 1050.1643,109.4727 Q1050.6643,109.582 1051.0862,109.8164 L1051.0862,111.8945 Q1050.6018,111.457 1050.1487,111.2539 Q1049.6955,111.0352 1049.2112,111.0352 Q1048.1955,111.0352 1047.6643,111.8633 Q1047.133,112.6758 1047.133,114.2695 Q1047.133,115.8789 1047.6643,116.6914 Q1048.1955,117.5039 1049.2112,117.5039 Q1049.6955,117.5039 1050.1487,117.3008 Q1050.6018,117.0977 1051.0862,116.6445 L1051.0862,118.7383 Z " fill="#000000"/><text x="1080.2268" y="119.0044" fill="#000000" font-size="13" lengthAdjust="spacing" textLength="57.5415" font-family="sans-serif">AuditLog</text><line x1="1004.52" y1="139.0703" x2="1183.4751" y2="139.0703" style="stroke:#333333;stroke-width:0.5;"/><text x="1021.52" y="167.1372" fill="#000000" font-size="13" lengthAdjust="spacing" textLength="96.1479" font-family="sans-serif">-action : String</text><text x="1021.52" y="206.27" fill="#000000" font-size="13" lengthAdjust="spacing" textLength="125.7534" font-family="sans-serif">-entityType : String</text><text x="1021.52" y="245.4028" fill="#000000" font-size="13" lengthAdjust="spacing" textLength="144.9551" font-family="sans-serif">-performedAt : Instant</text><line x1="1004.52" y1="264.4688" x2="1183.4751" y2="264.4688" style="stroke:#333333;stroke-width:0.5;"/></g><!--class ClientRef--><g class="entity" data-qualified-name="ClientRef" id="ent0006" data-source-line="50"><rect x="164" y="342.4675" width="150" height="65.1328" fill="#EEEEEE" style="stroke:#333333;stroke-width:0.5;" rx="2.5" ry="2.5"/><ellipse cx="204.2641" cy="367.0339" rx="10" ry="10" fill="#ADD1B2" style="stroke:#181818;stroke-width:1;"/><path d="M206.1235,371.2683 Q205.686,371.487 205.186,371.5964 Q204.7016,371.7214 204.1704,371.7214 Q202.2485,371.7214 201.2329,370.4558 Q200.2329,369.1902 200.2329,366.7995 Q200.2329,364.4089 201.2329,363.1433 Q202.2485,361.8777 204.1704,361.8777 Q204.7016,361.8777 205.2016,362.0027 Q205.7016,362.112 206.1235,362.3464 L206.1235,364.4245 Q205.6391,363.987 205.186,363.7839 Q204.7329,363.5652 204.2485,363.5652 Q203.2329,363.5652 202.7016,364.3933 Q202.1704,365.2058 202.1704,366.7995 Q202.1704,368.4089 202.7016,369.2214 Q203.2329,370.0339 204.2485,370.0339 Q204.7329,370.0339 205.186,369.8308 Q205.6391,369.6277 206.1235,369.1745 L206.1235,371.2683 Z " fill="#000000"/><text x="235.1006" y="371.5344" fill="#000000" font-size="13" lengthAdjust="spacing" textLength="37.6353" font-family="sans-serif">Client</text><line x1="165" y1="391.6003" x2="313" y2="391.6003" style="stroke:#333333;stroke-width:0.5;"/><line x1="165" y1="399.6003" x2="313" y2="399.6003" style="stroke:#333333;stroke-width:0.5;"/></g><!--class AccountRef--><g class="entity" data-qualified-name="AccountRef" id="ent0007" data-source-line="51"><rect x="369" y="342.4675" width="150" height="65.1328" fill="#EEEEEE" style="stroke:#333333;stroke-width:0.5;" rx="2.5" ry="2.5"/><ellipse cx="402.4772" cy="367.0339" rx="10" ry="10" fill="#ADD1B2" style="stroke:#181818;stroke-width:1;"/><path d="M404.3366,371.2683 Q403.8991,371.487 403.3991,371.5964 Q402.9147,371.7214 402.3835,371.7214 Q400.4616,371.7214 399.446,370.4558 Q398.446,369.1902 398.446,366.7995 Q398.446,364.4089 399.446,363.1433 Q400.4616,361.8777 402.3835,361.8777 Q402.9147,361.8777 403.4147,362.0027 Q403.9147,362.112 404.3366,362.3464 L404.3366,364.4245 Q403.8522,363.987 403.3991,363.7839 Q402.946,363.5652 402.4616,363.5652 Q401.446,363.5652 400.9147,364.3933 Q400.3835,365.2058 400.3835,366.7995 Q400.3835,368.4089 400.9147,369.2214 Q401.446,370.0339 402.4616,370.0339 Q402.946,370.0339 403.3991,369.8308 Q403.8522,369.6277 404.3366,369.1745 L404.3366,371.2683 Z " fill="#000000"/><text x="431.8055" y="371.5344" fill="#000000" font-size="13" lengthAdjust="spacing" textLength="52.7173" font-family="sans-serif">Account</text><line x1="370" y1="391.6003" x2="518" y2="391.6003" style="stroke:#333333;stroke-width:0.5;"/><line x1="370" y1="399.6003" x2="518" y2="399.6003" style="stroke:#333333;stroke-width:0.5;"/></g><!--class TransactionRef--><g class="entity" data-qualified-name="TransactionRef" id="ent0008" data-source-line="52"><rect x="574" y="342.4675" width="150" height="65.1328" fill="#EEEEEE" style="stroke:#333333;stroke-width:0.5;" rx="2.5" ry="2.5"/><ellipse cx="596.8741" cy="367.0339" rx="10" ry="10" fill="#ADD1B2" style="stroke:#181818;stroke-width:1;"/><path d="M598.7335,371.2683 Q598.296,371.487 597.796,371.5964 Q597.3116,371.7214 596.7803,371.7214 Q594.8585,371.7214 593.8428,370.4558 Q592.8428,369.1902 592.8428,366.7995 Q592.8428,364.4089 593.8428,363.1433 Q594.8585,361.8777 596.7803,361.8777 Q597.3116,361.8777 597.8116,362.0027 Q598.3116,362.112 598.7335,362.3464 L598.7335,364.4245 Q598.2491,363.987 597.796,363.7839 Q597.3428,363.5652 596.8585,363.5652 Q595.8428,363.5652 595.3116,364.3933 Q594.7803,365.2058 594.7803,366.7995 Q594.7803,368.4089 595.3116,369.2214 Q595.8428,370.0339 596.8585,370.0339 Q597.3428,370.0339 597.796,369.8308 Q598.2491,369.6277 598.7335,369.1745 L598.7335,371.2683 Z " fill="#000000"/><text x="623.8461" y="371.5344" fill="#000000" font-size="13" lengthAdjust="spacing" textLength="76.2798" font-family="sans-serif">Transaction</text><line x1="575" y1="391.6003" x2="723" y2="391.6003" style="stroke:#333333;stroke-width:0.5;"/><line x1="575" y1="399.6003" x2="723" y2="399.6003" style="stroke:#333333;stroke-width:0.5;"/></g><!--class UserRef--><g class="entity" data-qualified-name="UserRef" id="ent0009" data-source-line="53"><rect x="779" y="342.4675" width="150" height="65.1328" fill="#EEEEEE" style="stroke:#333333;stroke-width:0.5;" rx="2.5" ry="2.5"/><ellipse cx="823.1846" cy="367.0339" rx="10" ry="10" fill="#ADD1B2" style="stroke:#181818;stroke-width:1;"/><path d="M825.0439,371.2683 Q824.6064,371.487 824.1064,371.5964 Q823.6221,371.7214 823.0908,371.7214 Q821.1689,371.7214 820.1533,370.4558 Q819.1533,369.1902 819.1533,366.7995 Q819.1533,364.4089 820.1533,363.1433 Q821.1689,361.8777 823.0908,361.8777 Q823.6221,361.8777 824.1221,362.0027 Q824.6221,362.112 825.0439,362.3464 L825.0439,364.4245 Q824.5596,363.987 824.1064,363.7839 Q823.6533,363.5652 823.1689,363.5652 Q822.1533,363.5652 821.6221,364.3933 Q821.0908,365.2058 821.0908,366.7995 Q821.0908,368.4089 821.6221,369.2214 Q822.1533,370.0339 823.1689,370.0339 Q823.6533,370.0339 824.1064,369.8308 Q824.5596,369.6277 825.0439,369.1745 L825.0439,371.2683 Z " fill="#000000"/><text x="854.1846" y="371.5344" fill="#000000" font-size="13" lengthAdjust="spacing" textLength="29.6309" font-family="sans-serif">User</text><line x1="780" y1="391.6003" x2="928" y2="391.6003" style="stroke:#333333;stroke-width:0.5;"/><line x1="780" y1="399.6003" x2="928" y2="399.6003" style="stroke:#333333;stroke-width:0.5;"/></g><!--link BillProvider to BillPayment--><!--reverse link BillProvider to BillPayment--><g class="link" data-entity-1="ent0001" data-entity-2="ent0002" id="lnk18" data-source-line="66" data-link-type="aggregation"><path d="M169.27,205.5975 C186.7,205.5975 193.48,205.5975 211.69,205.5975" style="stroke:#181818;stroke-width:1;" fill="none" id="BillProvider-backto-BillPayment" codeLine="66"/><polygon points="157.27,205.5975,163.27,209.5975,169.27,205.5975,163.27,201.5975,157.27,205.5975" fill="none" style="stroke:#181818;stroke-width:1;stroke-linejoin:miter;stroke-miterlimit:10;"/><text x="177.0705" y="192.3926" fill="#000000" font-size="11" lengthAdjust="spacing" textLength="6.9985" font-family="sans-serif">1</text><text x="172.3538" y="230.8175" fill="#000000" font-size="11" lengthAdjust="spacing" textLength="19.4917" font-family="sans-serif">0..*</text></g><!--link BillPayment to CheckbookOrder--><!--link CheckbookOrder to Notification--><!--link Notification to AuditLog--><!--link ClientRef to AccountRef--><!--link AccountRef to TransactionRef--><!--link TransactionRef to UserRef--><!--link BillPayment to AccountRef--><!--link BillPayment to AccountRef--><g class="link" data-entity-1="ent0002" data-entity-2="ent0007" id="lnk19" data-source-line="68" data-link-type="dependency"><path d="M387.54,253.3775 C387.54,283.8375 387.54,312.7875 387.54,337.0675" style="stroke:#181818;stroke-width:1;stroke-dasharray:7,7;" fill="none" id="BillPayment-to-AccountRef" codeLine="68"/><polygon points="387.54,342.0675,391.54,333.0675,387.54,337.0675,383.54,333.0675,387.54,342.0675" fill="#181818" style="stroke:#181818;stroke-width:1;stroke-linejoin:miter;stroke-miterlimit:10;"/><text x="331.54" y="282.9379" fill="#000000" font-size="11" lengthAdjust="spacing" textLength="43.3501" font-family="sans-serif">paie via</text></g><!--link BillPayment to TransactionRef--><g class="link" data-entity-1="ent0002" data-entity-2="ent0008" id="lnk20" data-source-line="69" data-link-type="dependency"><path d="M396.81,253.2575 C396.81,281.6475 396.81,307.5975 396.81,307.5975 C396.81,307.5975 639.39,307.5975 639.39,307.5975 C639.39,307.5975 639.39,319.9875 639.39,337.1075" style="stroke:#181818;stroke-width:1;stroke-dasharray:7,7;" fill="none" id="BillPayment-to-TransactionRef" codeLine="69"/><polygon points="639.39,342.1075,643.39,333.1075,639.39,337.1075,635.39,333.1075,639.39,342.1075" fill="#181818" style="stroke:#181818;stroke-width:1;stroke-linejoin:miter;stroke-miterlimit:10;"/><text x="521.19" y="292.8079" fill="#000000" font-size="11" lengthAdjust="spacing" textLength="38.7793" font-family="sans-serif">génère</text></g><!--link CheckbookOrder to ClientRef--><g class="link" data-entity-1="ent0003" data-entity-2="ent0006" id="lnk21" data-source-line="70" data-link-type="dependency"><path d="M480.48,253.1775 C480.48,257.1775 480.48,259.5975 480.48,259.5975 C480.48,259.5975 245.94,259.5975 245.94,259.5975 C245.94,259.5975 245.94,303.1375 245.94,337.2575" style="stroke:#181818;stroke-width:1;stroke-dasharray:7,7;" fill="none" id="CheckbookOrder-to-ClientRef" codeLine="70"/><polygon points="245.94,342.2575,249.94,333.2575,245.94,337.2575,241.94,333.2575,245.94,342.2575" fill="#181818" style="stroke:#181818;stroke-width:1;stroke-linejoin:miter;stroke-miterlimit:10;"/><text x="261.09" y="282.8079" fill="#000000" font-size="11" lengthAdjust="spacing" textLength="51.9277" font-family="sans-serif">demande</text></g><!--link CheckbookOrder to AccountRef--><g class="link" data-entity-1="ent0003" data-entity-2="ent0007" id="lnk22" data-source-line="71" data-link-type="dependency"><path d="M499.74,253.3775 C499.74,283.8375 499.74,312.7875 499.74,337.0675" style="stroke:#181818;stroke-width:1;stroke-dasharray:7,7;" fill="none" id="CheckbookOrder-to-AccountRef" codeLine="71"/><polygon points="499.74,342.0675,503.74,333.0675,499.74,337.0675,495.74,333.0675,499.74,342.0675" fill="#181818" style="stroke:#181818;stroke-width:1;stroke-linejoin:miter;stroke-miterlimit:10;"/><text x="445.74" y="320.9379" fill="#000000" font-size="11" lengthAdjust="spacing" textLength="41.5562" font-family="sans-serif">compte</text></g><!--link CheckbookOrder to UserRef--><g class="link" data-entity-1="ent0003" data-entity-2="ent0009" id="lnk23" data-source-line="72" data-link-type="dependency"><path d="M704.96,205.5975 C726.28,205.5975 741.79,205.5975 741.79,205.5975 C741.79,205.5975 741.79,364.5975 741.79,364.5975 C741.79,364.5975 753.23,364.5975 773.53,364.5975" style="stroke:#181818;stroke-width:1;stroke-dasharray:7,7;" fill="none" id="CheckbookOrder-to-UserRef" codeLine="72"/><polygon points="778.53,364.5975,769.53,360.5975,773.53,364.5975,769.53,368.5975,778.53,364.5975" fill="#181818" style="stroke:#181818;stroke-width:1;stroke-linejoin:miter;stroke-miterlimit:10;"/><text x="699.79" y="308.2679" fill="#000000" font-size="11" lengthAdjust="spacing" textLength="29.7129" font-family="sans-serif">traite</text></g><!--link Notification to ClientRef--><g class="link" data-entity-1="ent0004" data-entity-2="ent0006" id="lnk24" data-source-line="73" data-link-type="dependency"><path d="M759.21,266.5975 C596.17,266.5975 279.97,266.5975 279.97,266.5975 C279.97,266.5975 279.97,305.2875 279.97,337.2075" style="stroke:#181818;stroke-width:1;stroke-dasharray:7,7;" fill="none" id="Notification-to-ClientRef" codeLine="73"/><polygon points="279.97,342.2075,283.97,333.2075,279.97,337.2075,275.97,333.2075,279.97,342.2075" fill="#181818" style="stroke:#181818;stroke-width:1;stroke-linejoin:miter;stroke-miterlimit:10;"/><text x="438.79" y="289.8079" fill="#000000" font-size="11" lengthAdjust="spacing" textLength="30.2124" font-family="sans-serif">client</text></g><!--link Notification to UserRef--><g class="link" data-entity-1="ent0004" data-entity-2="ent0009" id="lnk25" data-source-line="74" data-link-type="dependency"><path d="M854,272.7275 C854,297.6175 854,317.9975 854,337.2475" style="stroke:#181818;stroke-width:1;stroke-dasharray:7,7;" fill="none" id="Notification-to-UserRef" codeLine="74"/><polygon points="854,342.2475,858,333.2475,854,337.2475,850,333.2475,854,342.2475" fill="#181818" style="stroke:#181818;stroke-width:1;stroke-linejoin:miter;stroke-miterlimit:10;"/><text x="867" y="330.6979" fill="#000000" font-size="11" lengthAdjust="spacing" textLength="54.5005" font-family="sans-serif">personnel</text></g><!--link AuditLog to UserRef--><g class="link" data-entity-1="ent0005" data-entity-2="ent0009" id="lnk26" data-source-line="75" data-link-type="dependency"><path d="M1094,272.7075 C1094,323.1275 1094,375.5975 1094,375.5975 C1094,375.5975 1004.66,375.5975 934.28,375.5975" style="stroke:#181818;stroke-width:1;stroke-dasharray:7,7;" fill="none" id="AuditLog-to-UserRef" codeLine="75"/><polygon points="929.28,375.5975,938.28,379.5975,934.28,375.5975,938.28,371.5975,929.28,375.5975" fill="#181818" style="stroke:#181818;stroke-width:1;stroke-linejoin:miter;stroke-miterlimit:10;"/><text x="1005.09" y="360.8079" fill="#000000" font-size="11" lengthAdjust="spacing" textLength="45.3804" font-family="sans-serif">effectue</text></g><g class="legend" data-source-line="77"><rect x="832.6118" y="428.6003" width="347.8633" height="158.8906" fill="#DDDDDD" style="stroke:#000000;stroke-width:1;" rx="7.5" ry="7.5"/><text x="866.4858" y="472.5954" fill="#000000" font-size="14" lengthAdjust="spacing" textLength="30.8848" font-weight="700" font-family="sans-serif">Info</text><text x="959.522" y="472.5954" fill="#000000" font-size="14" lengthAdjust="spacing" textLength="46.8535" font-weight="700" font-family="sans-serif">Détail</text><text x="866.062" y="512.8923" fill="#000000" font-size="14" lengthAdjust="spacing" textLength="60.1357" font-family="sans-serif">R12-R14</text><text x="959.0981" y="512.8923" fill="#000000" font-size="14" lengthAdjust="spacing" textLength="187.9268" font-family="sans-serif">Chéquier : workflow admin</text><text x="861.6118" y="553.1892" fill="#000000" font-size="14" lengthAdjust="spacing" textLength="4.4502" font-family="sans-serif"> </text><text x="959.0981" y="553.1892" fill="#000000" font-size="14" lengthAdjust="spacing" textLength="169.6953" font-family="sans-serif">sans impact sur le solde</text><line x1="849.6118" y1="447.6003" x2="1163.4751" y2="447.6003" style="stroke:#000000;stroke-width:1;"/><line x1="849.6118" y1="487.8972" x2="1163.4751" y2="487.8972" style="stroke:#000000;stroke-width:1;"/><line x1="849.6118" y1="528.1941" x2="1163.4751" y2="528.1941" style="stroke:#000000;stroke-width:1;"/><line x1="849.6118" y1="568.4909" x2="1163.4751" y2="568.4909" style="stroke:#000000;stroke-width:1;"/><line x1="849.6118" y1="447.6003" x2="849.6118" y2="568.4909" style="stroke:#000000;stroke-width:1;"/><line x1="942.6479" y1="447.6003" x2="942.6479" y2="568.4909" style="stroke:#000000;stroke-width:1;"/><line x1="1163.4751" y1="447.6003" x2="1163.4751" y2="568.4909" style="stroke:#000000;stroke-width:1;"/></g><?plantuml-src RLNHRjCm57ttLrnr3qX8hPQE0ge4KjUrqgHfJDk01yI36z-aLXqxsCxAe4Xy11z1lwD_mfTmuxQhapLzQ7BloRdNv_WwtfJW3SoCzwO08IscNXhDc5j8NNBB2t1pBinIwXmohXn6cLHnvqRUMpchF5wcHj_97mYd4KGRWGvB60oYeELwKGVVn4Y16Q-Kdnhj0qjorgvqF3MorYmFgIHAAQdHFvO8nlgvYH8tN8XwGKa_2XPIZ-iodwNmSqW6funvwHN2XUGv0Gga7hUTe8D_l__0fmgX3qEOVFUe7SdceDYilKJBsht3JmPmpjD5RasbnTWeO-5aEgf_TSPOWNONFGiN-yNO2xYIkQPLXNBuL8PjES-bKZVMF4Xw5qucRoUZwUjGg0ifwKwTtP4tEWyHpOieGkGH1tyiKFisXP8KlCKCBUgqnSOBMeQdsBdCBp2L1LS7pl4SqyNCcCK76pgRdaq6qy6EDgpqkYfcb6bGEizzvIZMVFqkX0_aryRBJAQytgRKyNWodIOxwk3ri86ufz0s5wni5BJ81KMeaaAk3nL6bP3-okGjTXuceqb10ad_UB-j6yLBj9cn1OfHhT6bfhLf7plQ3uxQpJhRh8EyZaRbaLUx5ZhZ87u7EAcvzu7w2TSUCqhJseG0sjqVGTtJjBbjxm4PFHz1VtHe0wo-YVEiiTcwN-PI2DHVhSpdlXll8XRlg3QkQIrhRPGsEZQIDNnl8_UMCNPGwndcII8MgTL6DULXBRNQw9rAxFYYwTZKZRfD4Jj91qot2vtJNkzbfw5XWw_NUn_xEuIIIuG7oP-XMjqE8T-izUQlnRRIDVYWr90Eje9hSHJMg9oQelH7OVlzCWHlkIHCmwzslUtPyXnpOA49SaPhLEnf79i0p3BwLbN8cC8SjO1W2KtVwXqDN6Rg_miwZRbKiAh3S9lqkxV9AxeRppVhRvKC9z3Is4Mcp1Aue2_03he2Hqg2B4fI4rnbWGuFPnGTgYj6nROb_mC0?></g></svg>