<svg xmlns="http://www.w3.org/2000/svg" xmlns:xlink="http://www.w3.org/1999/xlink" contentStyleType="text/css" height="1274px" preserveAspectRatio="none" style="width:2563px;height:1274px;background:#FFFFFF;" version="1.1" viewBox="0 0 2563 1274" width="2563px" zoomAndPan="magnify"><title>Diagramme de classes &#8212; domaine m&#233;tier</title><defs/><g><text fill="#000000" font-family="sans-serif" font-size="14" font-weight="bold" lengthAdjust="spacing" textLength="276.6709" x="1136.2058" y="24.5332">Diagramme de classes &#8212; domaine m&#233;tier</text><!--cluster domain--><g id="cluster_domain"><path d="M8.5,44.6094 L59.2793,44.6094 A3.75,3.75 0 0 1 61.7793,47.1094 L68.7793,68.2188 L1555.5,68.2188 A2.5,2.5 0 0 1 1558,70.7188 L1558,1202.1094 A2.5,2.5 0 0 1 1555.5,1204.6094 L8.5,1204.6094 A2.5,2.5 0 0 1 6,1202.1094 L6,47.1094 A2.5,2.5 0 0 1 8.5,44.6094 " fill="none" style="stroke:#000000;stroke-width:1.5;"/><line style="stroke:#000000;stroke-width:1.5;" x1="6" x2="68.7793" y1="68.2188" y2="68.2188"/><text fill="#000000" font-family="sans-serif" font-size="14" font-weight="bold" lengthAdjust="spacing" textLength="49.7793" x="10" y="61.1426">domain</text></g><!--cluster enums--><g id="cluster_enums"><path d="M32.5,194.1094 L78.624,194.1094 A3.75,3.75 0 0 1 81.124,196.6094 L88.124,217.7188 L587.5,217.7188 A2.5,2.5 0 0 1 590,220.2188 L590,920.6094 A2.5,2.5 0 0 1 587.5,923.1094 L32.5,923.1094 A2.5,2.5 0 0 1 30,920.6094 L30,196.6094 A2.5,2.5 0 0 1 32.5,194.1094 " fill="none" style="stroke:#000000;stroke-width:1.5;"/><line style="stroke:#000000;stroke-width:1.5;" x1="30" x2="88.124" y1="217.7188" y2="217.7188"/><text fill="#000000" font-family="sans-serif" font-size="14" font-weight="bold" lengthAdjust="spacing" textLength="45.124" x="34" y="210.6426">enums</text></g><!--cluster entity--><g id="cluster_entity"><path d="M616.5,88.6094 L654.8379,88.6094 A3.75,3.75 0 0 1 657.3379,91.1094 L664.3379,112.2188 L1531.5,112.2188 A2.5,2.5 0 0 1 1534,114.7188 L1534,1178.1094 A2.5,2.5 0 0 1 1531.5,1180.6094 L616.5,1180.6094 A2.5,2.5 0 0 1 614,1178.1094 L614,91.1094 A2.5,2.5 0 0 1 616.5,88.6094 " fill="none" style="stroke:#000000;stroke-width:1.5;"/><line style="stroke:#000000;stroke-width:1.5;" x1="614" x2="664.3379" y1="112.2188" y2="112.2188"/><text fill="#000000" font-family="sans-serif" font-size="14" font-weight="bold" lengthAdjust="spacing" textLength="37.3379" x="618" y="105.1426">entity</text></g><!--class UserRole--><g id="elem_UserRole"><rect codeLine="8" fill="#F1F1F1" height="100.8281" id="UserRole" rx="2.5" ry="2.5" style="stroke:#181818;stroke-width:0.5;" width="117.0205" x="48.5" y="230.1094"/><ellipse cx="75.501" cy="246.1094" fill="#EB937F" rx="11" ry="11" style="stroke:#181818;stroke-width:1;"/><path d="M74.3604,246.9063 L74.3604,249.4063 L78.6885,249.4063 L78.6885,248.4844 Q78.6885,247.875 78.9229,247.6094 Q79.1729,247.3438 79.5479,247.3438 Q79.9229,247.3438 80.1573,247.6094 Q80.3917,247.875 80.3917,248.4844 L80.3917,251.1094 L72.3917,251.1094 Q71.7667,251.1094 71.501,250.875 Q71.251,250.6406 71.251,250.25 Q71.251,249.875 71.5167,249.6406 Q71.7823,249.4063 72.3917,249.4063 L72.6573,249.4063 L72.6573,242.75 L72.3917,242.75 Q71.7667,242.75 71.501,242.5156 Q71.251,242.2813 71.251,241.8906 Q71.251,241.5156 71.501,241.2813 Q71.7667,241.0469 72.3917,241.0469 L80.0167,241.0469 L80.0167,243.6406 Q80.0167,244.25 79.7823,244.5156 Q79.5635,244.7656 79.1729,244.7656 Q78.7979,244.7656 78.5635,244.5156 Q78.3292,244.25 78.3292,243.6406 L78.3292,242.75 L74.3604,242.75 L74.3604,245.2031 L75.8448,245.2031 Q75.8448,244.5469 75.9698,244.3594 Q76.2354,243.9531 76.7042,243.9531 Q77.0792,243.9531 77.3135,244.2188 Q77.5479,244.4688 77.5479,245.0781 L77.5479,247.0469 Q77.5479,247.5938 77.4229,247.7813 Q77.1573,248.1719 76.7042,248.1719 Q76.2354,248.1719 75.9698,247.7656 Q75.8448,247.5781 75.8448,246.9063 L74.3604,246.9063 Z " fill="#000000"/><text fill="#000000" font-family="sans-serif" font-size="14" lengthAdjust="spacing" textLength="58.3516" x="92.1679" y="251.8379">UserRole</text><line style="stroke:#181818;stroke-width:0.5;" x1="49.5" x2="164.5205" y1="262.1094" y2="262.1094"/><text fill="#000000" font-family="sans-serif" font-size="14" lengthAdjust="spacing" textLength="45.1104" x="54.5" y="280.6426">ADMIN</text><text fill="#000000" font-family="sans-serif" font-size="14" lengthAdjust="spacing" textLength="48.2275" x="54.5" y="298.252">AGENT</text><text fill="#000000" font-family="sans-serif" font-size="14" lengthAdjust="spacing" textLength="105.0205" x="54.5" y="315.8613">CHEF_AGENCE</text><line style="stroke:#181818;stroke-width:0.5;" x1="49.5" x2="164.5205" y1="322.9375" y2="322.9375"/></g><!--class ClientStatus--><g id="elem_ClientStatus"><rect codeLine="13" fill="#F1F1F1" height="100.8281" id="ClientStatus" rx="2.5" ry="2.5" style="stroke:#181818;stroke-width:0.5;" width="107.4824" x="200.5" y="230.1094"/><ellipse cx="215.5" cy="246.1094" fill="#EB937F" rx="11" ry="11" style="stroke:#181818;stroke-width:1;"/><path d="M214.3594,246.9063 L214.3594,249.4063 L218.6875,249.4063 L218.6875,248.4844 Q218.6875,247.875 218.9219,247.6094 Q219.1719,247.3438 219.5469,247.3438 Q219.9219,247.3438 220.1563,247.6094 Q220.3906,247.875 220.3906,248.4844 L220.3906,251.1094 L212.3906,251.1094 Q211.7656,251.1094 211.5,250.875 Q211.25,250.6406 211.25,250.25 Q211.25,249.875 211.5156,249.6406 Q211.7813,249.4063 212.3906,249.4063 L212.6563,249.4063 L212.6563,242.75 L212.3906,242.75 Q211.7656,242.75 211.5,242.5156 Q211.25,242.2813 211.25,241.8906 Q211.25,241.5156 211.5,241.2813 Q211.7656,241.0469 212.3906,241.0469 L220.0156,241.0469 L220.0156,243.6406 Q220.0156,244.25 219.7813,244.5156 Q219.5625,244.7656 219.1719,244.7656 Q218.7969,244.7656 218.5625,244.5156 Q218.3281,244.25 218.3281,243.6406 L218.3281,242.75 L214.3594,242.75 L214.3594,245.2031 L215.8438,245.2031 Q215.8438,244.5469 215.9688,244.3594 Q216.2344,243.9531 216.7031,243.9531 Q217.0781,243.9531 217.3125,244.2188 Q217.5469,244.4688 217.5469,245.0781 L217.5469,247.0469 Q217.5469,247.5938 217.4219,247.7813 Q217.1563,248.1719 216.7031,248.1719 Q216.2344,248.1719 215.9688,247.7656 Q215.8438,247.5781 215.8438,246.9063 L214.3594,246.9063 Z " fill="#000000"/><text fill="#000000" font-family="sans-serif" font-size="14" lengthAdjust="spacing" textLength="75.4824" x="229.5" y="251.8379">ClientStatus</text><line style="stroke:#181818;stroke-width:0.5;" x1="201.5" x2="306.9824" y1="262.1094" y2="262.1094"/><text fill="#000000" font-family="sans-serif" font-size="14" lengthAdjust="spacing" textLength="50.5654" x="206.5" y="280.6426">ACTIVE</text><text fill="#000000" font-family="sans-serif" font-size="14" lengthAdjust="spacing" textLength="87.1309" x="206.5" y="298.252">SUSPENDED</text><text fill="#000000" font-family="sans-serif" font-size="14" lengthAdjust="spacing" textLength="64.5654" x="206.5" y="315.8613">INACTIVE</text><line style="stroke:#181818;stroke-width:0.5;" x1="201.5" x2="306.9824" y1="322.9375" y2="322.9375"/></g><!--class AccountType--><g id="elem_AccountType"><rect codeLine="18" fill="#F1F1F1" height="100.8281" id="AccountType" rx="2.5" ry="2.5" style="stroke:#181818;stroke-width:0.5;" width="131.0273" x="342.5" y="230.1094"/><ellipse cx="365.2928" cy="246.1094" fill="#EB937F" rx="11" ry="11" style="stroke:#181818;stroke-width:1;"/><path d="M364.1522,246.9063 L364.1522,249.4063 L368.4803,249.4063 L368.4803,248.4844 Q368.4803,247.875 368.7147,247.6094 Q368.9647,247.3438 369.3397,247.3438 Q369.7147,247.3438 369.9491,247.6094 Q370.1834,247.875 370.1834,248.4844 L370.1834,251.1094 L362.1834,251.1094 Q361.5584,251.1094 361.2928,250.875 Q361.0428,250.6406 361.0428,250.25 Q361.0428,249.875 361.3084,249.6406 Q361.5741,249.4063 362.1834,249.4063 L362.4491,249.4063 L362.4491,242.75 L362.1834,242.75 Q361.5584,242.75 361.2928,242.5156 Q361.0428,242.2813 361.0428,241.8906 Q361.0428,241.5156 361.2928,241.2813 Q361.5584,241.0469 362.1834,241.0469 L369.8084,241.0469 L369.8084,243.6406 Q369.8084,244.25 369.5741,244.5156 Q369.3553,244.7656 368.9647,244.7656 Q368.5897,244.7656 368.3553,244.5156 Q368.1209,244.25 368.1209,243.6406 L368.1209,242.75 L364.1522,242.75 L364.1522,245.2031 L365.6366,245.2031 Q365.6366,244.5469 365.7616,244.3594 Q366.0272,243.9531 366.4959,243.9531 Q366.8709,243.9531 367.1053,244.2188 Q367.3397,244.4688 367.3397,245.0781 L367.3397,247.0469 Q367.3397,247.5938 367.2147,247.7813 Q366.9491,248.1719 366.4959,248.1719 Q366.0272,248.1719 365.7616,247.7656 Q365.6366,247.5781 365.6366,246.9063 L364.1522,246.9063 Z " fill="#000000"/><text fill="#000000" font-family="sans-serif" font-size="14" lengthAdjust="spacing" textLength="81.71" x="381.0246" y="251.8379">AccountType</text><line style="stroke:#181818;stroke-width:0.5;" x1="343.5" x2="472.5273" y1="262.1094" y2="262.1094"/><text fill="#000000" font-family="sans-serif" font-size="14" lengthAdjust="spacing" textLength="69.2207" x="348.5" y="280.6426">COURANT</text><text fill="#000000" font-family="sans-serif" font-size="14" lengthAdjust="spacing" textLength="68.4619" x="348.5" y="298.252">EPARGNE</text><text fill="#000000" font-family="sans-serif" font-size="14" lengthAdjust="spacing" textLength="119.0273" x="348.5" y="315.8613">PROFESSIONNEL</text><line style="stroke:#181818;stroke-width:0.5;" x1="343.5" x2="472.5273" y1="322.9375" y2="322.9375"/></g><!--class AccountStatus--><g id="elem_AccountStatus"><rect codeLine="23" fill="#F1F1F1" height="100.8281" id="AccountStatus" rx="2.5" ry="2.5" style="stroke:#181818;stroke-width:0.5;" width="122.2754" x="46" y="549.1094"/><ellipse cx="61" cy="565.1094" fill="#EB937F" rx="11" ry="11" style="stroke:#181818;stroke-width:1;"/><path d="M59.8594,565.9063 L59.8594,568.4063 L64.1875,568.4063 L64.1875,567.4844 Q64.1875,566.875 64.4219,566.6094 Q64.6719,566.3438 65.0469,566.3438 Q65.4219,566.3438 65.6563,566.6094 Q65.8906,566.875 65.8906,567.4844 L65.8906,570.1094 L57.8906,570.1094 Q57.2656,570.1094 57,569.875 Q56.75,569.6406 56.75,569.25 Q56.75,568.875 57.0156,568.6406 Q57.2813,568.4063 57.8906,568.4063 L58.1563,568.4063 L58.1563,561.75 L57.8906,561.75 Q57.2656,561.75 57,561.5156 Q56.75,561.2813 56.75,560.8906 Q56.75,560.5156 57,560.2813 Q57.2656,560.0469 57.8906,560.0469 L65.5156,560.0469 L65.5156,562.6406 Q65.5156,563.25 65.2813,563.5156 Q65.0625,563.7656 64.6719,563.7656 Q64.2969,563.7656 64.0625,563.5156 Q63.8281,563.25 63.8281,562.6406 L63.8281,561.75 L59.8594,561.75 L59.8594,564.2031 L61.3438,564.2031 Q61.3438,563.5469 61.4688,563.3594 Q61.7344,562.9531 62.2031,562.9531 Q62.5781,562.9531 62.8125,563.2188 Q63.0469,563.4688 63.0469,564.0781 L63.0469,566.0469 Q63.0469,566.5938 62.9219,566.7813 Q62.6563,567.1719 62.2031,567.1719 Q61.7344,567.1719 61.4688,566.7656 Q61.3438,566.5781 61.3438,565.9063 L59.8594,565.9063 Z " fill="#000000"/><text fill="#000000" font-family="sans-serif" font-size="14" lengthAdjust="spacing" textLength="90.2754" x="75" y="570.8379">AccountStatus</text><line style="stroke:#181818;stroke-width:0.5;" x1="47" x2="167.2754" y1="581.1094" y2="581.1094"/><text fill="#000000" font-family="sans-serif" font-size="14" lengthAdjust="spacing" textLength="50.5654" x="52" y="599.6426">ACTIVE</text><text fill="#000000" font-family="sans-serif" font-size="14" lengthAdjust="spacing" textLength="66.9102" x="52" y="617.252">BLOCKED</text><text fill="#000000" font-family="sans-serif" font-size="14" lengthAdjust="spacing" textLength="57.5723" x="52" y="634.8613">CLOSED</text><line style="stroke:#181818;stroke-width:0.5;" x1="47" x2="167.2754" y1="641.9375" y2="641.9375"/></g><!--class TransactionType--><g id="elem_TransactionType"><rect codeLine="28" fill="#F1F1F1" height="118.4375" id="TransactionType" rx="2.5" ry="2.5" style="stroke:#181818;stroke-width:0.5;" width="157.4619" x="203.5" y="540.6094"/><ellipse cx="228.037" cy="556.6094" fill="#EB937F" rx="11" ry="11" style="stroke:#181818;stroke-width:1;"/><path d="M226.8964,557.4063 L226.8964,559.9063 L231.2245,559.9063 L231.2245,558.9844 Q231.2245,558.375 231.4589,558.1094 Q231.7089,557.8438 232.0839,557.8438 Q232.4589,557.8438 232.6933,558.1094 Q232.9276,558.375 232.9276,558.9844 L232.9276,561.6094 L224.9276,561.6094 Q224.3026,561.6094 224.037,561.375 Q223.787,561.1406 223.787,560.75 Q223.787,560.375 224.0526,560.1406 Q224.3183,559.9063 224.9276,559.9063 L225.1933,559.9063 L225.1933,553.25 L224.9276,553.25 Q224.3026,553.25 224.037,553.0156 Q223.787,552.7813 223.787,552.3906 Q223.787,552.0156 224.037,551.7813 Q224.3026,551.5469 224.9276,551.5469 L232.5526,551.5469 L232.5526,554.1406 Q232.5526,554.75 232.3183,555.0156 Q232.0995,555.2656 231.7089,555.2656 Q231.3339,555.2656 231.0995,555.0156 Q230.8651,554.75 230.8651,554.1406 L230.8651,553.25 L226.8964,553.25 L226.8964,555.7031 L228.3808,555.7031 Q228.3808,555.0469 228.5058,554.8594 Q228.7714,554.4531 229.2401,554.4531 Q229.6151,554.4531 229.8495,554.7188 Q230.0839,554.9688 230.0839,555.5781 L230.0839,557.5469 Q230.0839,558.0938 229.9589,558.2813 Q229.6933,558.6719 229.2401,558.6719 Q228.7714,558.6719 228.5058,558.2656 Q228.3808,558.0781 228.3808,557.4063 L226.8964,557.4063 Z " fill="#000000"/><text fill="#000000" font-family="sans-serif" font-size="14" lengthAdjust="spacing" textLength="104.2686" x="244.1563" y="562.3379">TransactionType</text><line style="stroke:#181818;stroke-width:0.5;" x1="204.5" x2="359.9619" y1="572.6094" y2="572.6094"/><text fill="#000000" font-family="sans-serif" font-size="14" lengthAdjust="spacing" textLength="48.2275" x="209.5" y="591.1426">DEPOT</text><text fill="#000000" font-family="sans-serif" font-size="14" lengthAdjust="spacing" textLength="59.8896" x="209.5" y="608.752">RETRAIT</text><text fill="#000000" font-family="sans-serif" font-size="14" lengthAdjust="spacing" textLength="72.3379" x="209.5" y="626.3613">VIREMENT</text><text fill="#000000" font-family="sans-serif" font-size="14" lengthAdjust="spacing" textLength="145.4619" x="209.5" y="643.9707">PAIEMENT_FACTURE</text><line style="stroke:#181818;stroke-width:0.5;" x1="204.5" x2="359.9619" y1="651.0469" y2="651.0469"/></g><!--class CheckbookOrderStatus--><g id="elem_CheckbookOrderStatus"><rect codeLine="34" fill="#F1F1F1" height="118.4375" id="CheckbookOrderStatus" rx="2.5" ry="2.5" style="stroke:#181818;stroke-width:0.5;" width="177.5166" x="396" y="540.6094"/><ellipse cx="411" cy="556.6094" fill="#EB937F" rx="11" ry="11" style="stroke:#181818;stroke-width:1;"/><path d="M409.8594,557.4063 L409.8594,559.9063 L414.1875,559.9063 L414.1875,558.9844 Q414.1875,558.375 414.4219,558.1094 Q414.6719,557.8438 415.0469,557.8438 Q415.4219,557.8438 415.6563,558.1094 Q415.8906,558.375 415.8906,558.9844 L415.8906,561.6094 L407.8906,561.6094 Q407.2656,561.6094 407,561.375 Q406.75,561.1406 406.75,560.75 Q406.75,560.375 407.0156,560.1406 Q407.2813,559.9063 407.8906,559.9063 L408.1563,559.9063 L408.1563,553.25 L407.8906,553.25 Q407.2656,553.25 407,553.0156 Q406.75,552.7813 406.75,552.3906 Q406.75,552.0156 407,551.7813 Q407.2656,551.5469 407.8906,551.5469 L415.5156,551.5469 L415.5156,554.1406 Q415.5156,554.75 415.2813,555.0156 Q415.0625,555.2656 414.6719,555.2656 Q414.2969,555.2656 414.0625,555.0156 Q413.8281,554.75 413.8281,554.1406 L413.8281,553.25 L409.8594,553.25 L409.8594,555.7031 L411.3438,555.7031 Q411.3438,555.0469 411.4688,554.8594 Q411.7344,554.4531 412.2031,554.4531 Q412.5781,554.4531 412.8125,554.7188 Q413.0469,554.9688 413.0469,555.5781 L413.0469,557.5469 Q413.0469,558.0938 412.9219,558.2813 Q412.6563,558.6719 412.2031,558.6719 Q411.7344,558.6719 411.4688,558.2656 Q411.3438,558.0781 411.3438,557.4063 L409.8594,557.4063 Z " fill="#000000"/><text fill="#000000" font-family="sans-serif" font-size="14" lengthAdjust="spacing" textLength="145.5166" x="425" y="562.3379">CheckbookOrderStatus</text><line style="stroke:#181818;stroke-width:0.5;" x1="397" x2="572.5166" y1="572.6094" y2="572.6094"/><text fill="#000000" font-family="sans-serif" font-size="14" lengthAdjust="spacing" textLength="63.7861" x="402" y="591.1426">PENDING</text><text fill="#000000" font-family="sans-serif" font-size="14" lengthAdjust="spacing" textLength="93.3516" x="402" y="608.752">PROCESSING</text><text fill="#000000" font-family="sans-serif" font-size="14" lengthAdjust="spacing" textLength="79.3584" x="402" y="626.3613">DELIVERED</text><text fill="#000000" font-family="sans-serif" font-size="14" lengthAdjust="spacing" textLength="84.0273" x="402" y="643.9707">CANCELLED</text><line style="stroke:#181818;stroke-width:0.5;" x1="397" x2="572.5166" y1="651.0469" y2="651.0469"/></g><!--class CheckbookSheetCount--><g id="elem_CheckbookSheetCount"><rect codeLine="40" fill="#F1F1F1" height="83.2188" id="CheckbookSheetCount" rx="2.5" ry="2.5" style="stroke:#181818;stroke-width:0.5;" width="175.9854" x="46" y="824.1094"/><ellipse cx="61" cy="840.1094" fill="#EB937F" rx="11" ry="11" style="stroke:#181818;stroke-width:1;"/><path d="M59.8594,840.9063 L59.8594,843.4063 L64.1875,843.4063 L64.1875,842.4844 Q64.1875,841.875 64.4219,841.6094 Q64.6719,841.3438 65.0469,841.3438 Q65.4219,841.3438 65.6563,841.6094 Q65.8906,841.875 65.8906,842.4844 L65.8906,845.1094 L57.8906,845.1094 Q57.2656,845.1094 57,844.875 Q56.75,844.6406 56.75,844.25 Q56.75,843.875 57.0156,843.6406 Q57.2813,843.4063 57.8906,843.4063 L58.1563,843.4063 L58.1563,836.75 L57.8906,836.75 Q57.2656,836.75 57,836.5156 Q56.75,836.2813 56.75,835.8906 Q56.75,835.5156 57,835.2813 Q57.2656,835.0469 57.8906,835.0469 L65.5156,835.0469 L65.5156,837.6406 Q65.5156,838.25 65.2813,838.5156 Q65.0625,838.7656 64.6719,838.7656 Q64.2969,838.7656 64.0625,838.5156 Q63.8281,838.25 63.8281,837.6406 L63.8281,836.75 L59.8594,836.75 L59.8594,839.2031 L61.3438,839.2031 Q61.3438,838.5469 61.4688,838.3594 Q61.7344,837.9531 62.2031,837.9531 Q62.5781,837.9531 62.8125,838.2188 Q63.0469,838.4688 63.0469,839.0781 L63.0469,841.0469 Q63.0469,841.5938 62.9219,841.7813 Q62.6563,842.1719 62.2031,842.1719 Q61.7344,842.1719 61.4688,841.7656 Q61.3438,841.5781 61.3438,840.9063 L59.8594,840.9063 Z " fill="#000000"/><text fill="#000000" font-family="sans-serif" font-size="14" lengthAdjust="spacing" textLength="143.9854" x="75" y="845.8379">CheckbookSheetCount</text><line style="stroke:#181818;stroke-width:0.5;" x1="47" x2="220.9854" y1="856.1094" y2="856.1094"/><text fill="#000000" font-family="sans-serif" font-size="14" lengthAdjust="spacing" textLength="89.4961" x="52" y="874.6426">FEUILLES_20</text><text fill="#000000" font-family="sans-serif" font-size="14" lengthAdjust="spacing" textLength="89.4961" x="52" y="892.252">FEUILLES_40</text><line style="stroke:#181818;stroke-width:0.5;" x1="47" x2="220.9854" y1="899.3281" y2="899.3281"/></g><!--class NotificationType--><g id="elem_NotificationType"><rect codeLine="44" fill="#F1F1F1" height="83.2188" id="NotificationType" rx="2.5" ry="2.5" style="stroke:#181818;stroke-width:0.5;" width="300.6133" x="257.5" y="824.1094"/><ellipse cx="353.3672" cy="840.1094" fill="#EB937F" rx="11" ry="11" style="stroke:#181818;stroke-width:1;"/><path d="M352.2266,840.9063 L352.2266,843.4063 L356.5547,843.4063 L356.5547,842.4844 Q356.5547,841.875 356.7891,841.6094 Q357.0391,841.3438 357.4141,841.3438 Q357.7891,841.3438 358.0234,841.6094 Q358.2578,841.875 358.2578,842.4844 L358.2578,845.1094 L350.2578,845.1094 Q349.6328,845.1094 349.3672,844.875 Q349.1172,844.6406 349.1172,844.25 Q349.1172,843.875 349.3828,843.6406 Q349.6484,843.4063 350.2578,843.4063 L350.5234,843.4063 L350.5234,836.75 L350.2578,836.75 Q349.6328,836.75 349.3672,836.5156 Q349.1172,836.2813 349.1172,835.8906 Q349.1172,835.5156 349.3672,835.2813 Q349.6328,835.0469 350.2578,835.0469 L357.8828,835.0469 L357.8828,837.6406 Q357.8828,838.25 357.6484,838.5156 Q357.4297,838.7656 357.0391,838.7656 Q356.6641,838.7656 356.4297,838.5156 Q356.1953,838.25 356.1953,837.6406 L356.1953,836.75 L352.2266,836.75 L352.2266,839.2031 L353.7109,839.2031 Q353.7109,838.5469 353.8359,838.3594 Q354.1016,837.9531 354.5703,837.9531 Q354.9453,837.9531 355.1797,838.2188 Q355.4141,838.4688 355.4141,839.0781 L355.4141,841.0469 Q355.4141,841.5938 355.2891,841.7813 Q355.0234,842.1719 354.5703,842.1719 Q354.1016,842.1719 353.8359,841.7656 Q353.7109,841.5781 353.7109,840.9063 L352.2266,840.9063 Z " fill="#000000"/><text fill="#000000" font-family="sans-serif" font-size="14" lengthAdjust="spacing" textLength="100.3789" x="373.8672" y="845.8379">NotificationType</text><line style="stroke:#181818;stroke-width:0.5;" x1="258.5" x2="557.1133" y1="856.1094" y2="856.1094"/><text fill="#000000" font-family="sans-serif" font-size="14" lengthAdjust="spacing" textLength="222.4893" x="263.5" y="874.6426">CHECKBOOK_ORDER_CREATED</text><text fill="#000000" font-family="sans-serif" font-size="14" lengthAdjust="spacing" textLength="288.6133" x="263.5" y="892.252">CHECKBOOK_ORDER_STATUS_CHANGED</text><line style="stroke:#181818;stroke-width:0.5;" x1="258.5" x2="557.1133" y1="899.3281" y2="899.3281"/></g><!--class User--><g id="elem_User"><rect codeLine="52" fill="#F1F1F1" height="206.4844" id="User" rx="2.5" ry="2.5" style="stroke:#181818;stroke-width:0.5;" width="157.5029" x="1175" y="496.6094"/><ellipse cx="1234.7222" cy="512.6094" fill="#ADD1B2" rx="11" ry="11" style="stroke:#181818;stroke-width:1;"/><path d="M1237.4878,508.4844 Q1237.644,508.2656 1237.8315,508.1563 Q1238.019,508.0469 1238.2378,508.0469 Q1238.6128,508.0469 1238.8472,508.3125 Q1239.0815,508.5625 1239.0815,509.1719 L1239.0815,510.625 Q1239.0815,511.2344 1238.8472,511.5 Q1238.6128,511.7656 1238.2378,511.7656 Q1237.894,511.7656 1237.6909,511.5625 Q1237.4878,511.375 1237.3784,510.8594 Q1237.3315,510.5 1237.144,510.3125 Q1236.8159,509.9375 1236.2065,509.7188 Q1235.5972,509.5 1234.9722,509.5 Q1234.2065,509.5 1233.5659,509.8281 Q1232.9409,510.1563 1232.4409,510.9063 Q1231.9565,511.6563 1231.9565,512.6875 L1231.9565,513.7813 Q1231.9565,515.0156 1232.8472,515.8438 Q1233.7378,516.6563 1235.3315,516.6563 Q1236.269,516.6563 1236.9253,516.4063 Q1237.3159,516.25 1237.7378,515.8125 Q1238.0034,515.5469 1238.144,515.4688 Q1238.3003,515.3906 1238.5034,515.3906 Q1238.8315,515.3906 1239.0815,515.6563 Q1239.3472,515.9063 1239.3472,516.25 Q1239.3472,516.5938 1239.0034,517 Q1238.5034,517.5781 1237.7065,517.9063 Q1236.6284,518.3594 1235.3315,518.3594 Q1233.8159,518.3594 1232.6128,517.7344 Q1231.6284,517.2344 1230.9409,516.1719 Q1230.2534,515.0938 1230.2534,513.8125 L1230.2534,512.6563 Q1230.2534,511.3281 1230.8628,510.1875 Q1231.4878,509.0313 1232.5815,508.4219 Q1233.6753,507.7969 1234.9097,507.7969 Q1235.644,507.7969 1236.2847,507.9688 Q1236.9409,508.125 1237.4878,508.4844 Z " fill="#000000"/><text fill="#000000" font-family="sans-serif" font-size="14" lengthAdjust="spacing" textLength="29.5586" x="1255.2222" y="518.3379">User</text><line style="stroke:#181818;stroke-width:0.5;" x1="1176" x2="1331.5029" y1="528.6094" y2="528.6094"/><text fill="#000000" font-family="sans-serif" font-size="14" lengthAdjust="spacing" textLength="58.3721" x="1181" y="547.1426">-id : Long</text><text fill="#000000" font-family="sans-serif" font-size="14" lengthAdjust="spacing" textLength="115.1582" x="1181" y="564.752">-username : String</text><text fill="#000000" font-family="sans-serif" font-size="14" lengthAdjust="spacing" textLength="145.5029" x="1181" y="582.3613">-passwordHash : String</text><text fill="#000000" font-family="sans-serif" font-size="14" lengthAdjust="spacing" textLength="108.1445" x="1181" y="599.9707">-fullName : String</text><text fill="#000000" font-family="sans-serif" font-size="14" lengthAdjust="spacing" textLength="86.3584" x="1181" y="617.5801">-email : String</text><text fill="#000000" font-family="sans-serif" font-size="14" lengthAdjust="spacing" textLength="98.0273" x="1181" y="635.1895">-role : UserRole</text><text fill="#000000" font-family="sans-serif" font-size="14" lengthAdjust="spacing" textLength="115.9854" x="1181" y="652.7988">-enabled : boolean</text><text fill="#000000" font-family="sans-serif" font-size="14" lengthAdjust="spacing" textLength="118.2822" x="1181" y="670.4082">-createdAt : Instant</text><text fill="#000000" font-family="sans-serif" font-size="14" lengthAdjust="spacing" textLength="127.627" x="1181" y="688.0176">-lastLoginAt : Instant</text><line style="stroke:#181818;stroke-width:0.5;" x1="1176" x2="1331.5029" y1="695.0938" y2="695.0938"/></g><!--class Client--><g id="elem_Client"><rect codeLine="64" fill="#F1F1F1" height="312.1406" id="Client" rx="2.5" ry="2.5" style="stroke:#181818;stroke-width:0.5;" width="164.5576" x="1171.5" y="124.6094"/><ellipse cx="1231.6323" cy="140.6094" fill="#ADD1B2" rx="11" ry="11" style="stroke:#181818;stroke-width:1;"/><path d="M1234.3979,136.4844 Q1234.5542,136.2656 1234.7417,136.1563 Q1234.9292,136.0469 1235.1479,136.0469 Q1235.5229,136.0469 1235.7573,136.3125 Q1235.9917,136.5625 1235.9917,137.1719 L1235.9917,138.625 Q1235.9917,139.2344 1235.7573,139.5 Q1235.5229,139.7656 1235.1479,139.7656 Q1234.8042,139.7656 1234.6011,139.5625 Q1234.3979,139.375 1234.2886,138.8594 Q1234.2417,138.5 1234.0542,138.3125 Q1233.7261,137.9375 1233.1167,137.7188 Q1232.5073,137.5 1231.8823,137.5 Q1231.1167,137.5 1230.4761,137.8281 Q1229.8511,138.1563 1229.3511,138.9063 Q1228.8667,139.6563 1228.8667,140.6875 L1228.8667,141.7813 Q1228.8667,143.0156 1229.7573,143.8438 Q1230.6479,144.6563 1232.2417,144.6563 Q1233.1792,144.6563 1233.8354,144.4063 Q1234.2261,144.25 1234.6479,143.8125 Q1234.9136,143.5469 1235.0542,143.4688 Q1235.2104,143.3906 1235.4136,143.3906 Q1235.7417,143.3906 1235.9917,143.6563 Q1236.2573,143.9063 1236.2573,144.25 Q1236.2573,144.5938 1235.9136,145 Q1235.4136,145.5781 1234.6167,145.9063 Q1233.5386,146.3594 1232.2417,146.3594 Q1230.7261,146.3594 1229.5229,145.7344 Q1228.5386,145.2344 1227.8511,144.1719 Q1227.1636,143.0938 1227.1636,141.8125 L1227.1636,140.6563 Q1227.1636,139.3281 1227.7729,138.1875 Q1228.3979,137.0313 1229.4917,136.4219 Q1230.5854,135.7969 1231.8198,135.7969 Q1232.5542,135.7969 1233.1948,135.9688 Q1233.8511,136.125 1234.3979,136.4844 Z " fill="#000000"/><text fill="#000000" font-family="sans-serif" font-size="14" lengthAdjust="spacing" textLength="35.793" x="1252.1323" y="146.3379">Client</text><line style="stroke:#181818;stroke-width:0.5;" x1="1172.5" x2="1335.0576" y1="156.6094" y2="156.6094"/><text fill="#000000" font-family="sans-serif" font-size="14" lengthAdjust="spacing" textLength="58.3721" x="1177.5" y="175.1426">-id : Long</text><text fill="#000000" font-family="sans-serif" font-size="14" lengthAdjust="spacing" textLength="135.3789" x="1177.5" y="192.752">-clientNumber : String</text><text fill="#000000" font-family="sans-serif" font-size="14" lengthAdjust="spacing" textLength="70.7998" x="1177.5" y="210.3613">-cin : String</text><text fill="#000000" font-family="sans-serif" font-size="14" lengthAdjust="spacing" textLength="112.7998" x="1177.5" y="227.9707">-firstName : String</text><text fill="#000000" font-family="sans-serif" font-size="14" lengthAdjust="spacing" textLength="112.0342" x="1177.5" y="245.5801">-lastName : String</text><text fill="#000000" font-family="sans-serif" font-size="14" lengthAdjust="spacing" textLength="86.3584" x="1177.5" y="263.1895">-email : String</text><text fill="#000000" font-family="sans-serif" font-size="14" lengthAdjust="spacing" textLength="91.834" x="1177.5" y="280.7988">-phone : String</text><text fill="#000000" font-family="sans-serif" font-size="14" lengthAdjust="spacing" textLength="102.71" x="1177.5" y="298.4082">-address : String</text><text fill="#000000" font-family="sans-serif" font-size="14" lengthAdjust="spacing" textLength="151.7441" x="1177.5" y="316.0176">-professionalInfo : String</text><text fill="#000000" font-family="sans-serif" font-size="14" lengthAdjust="spacing" textLength="129.165" x="1177.5" y="333.627">-status : ClientStatus</text><text fill="#000000" font-family="sans-serif" font-size="14" lengthAdjust="spacing" textLength="118.2822" x="1177.5" y="351.2363">-createdAt : Instant</text><text fill="#000000" font-family="sans-serif" font-size="14" lengthAdjust="spacing" textLength="122.1924" x="1177.5" y="368.8457">-updatedAt : Instant</text><text fill="#000000" font-family="sans-serif" font-size="14" lengthAdjust="spacing" textLength="145.5029" x="1177.5" y="386.4551">-passwordHash : String</text><text fill="#000000" font-family="sans-serif" font-size="14" lengthAdjust="spacing" textLength="152.5576" x="1177.5" y="404.0645">-portalEnabled : boolean</text><text fill="#000000" font-family="sans-serif" font-size="14" lengthAdjust="spacing" textLength="127.627" x="1177.5" y="421.6738">-lastLoginAt : Instant</text><line style="stroke:#181818;stroke-width:0.5;" x1="1172.5" x2="1335.0576" y1="428.75" y2="428.75"/></g><!--class Account--><g id="elem_Account"><rect codeLine="82" fill="#F1F1F1" height="188.875" id="Account" rx="2.5" ry="2.5" style="stroke:#181818;stroke-width:0.5;" width="163.7305" x="839" y="505.1094"/><ellipse cx="891.3223" cy="521.1094" fill="#ADD1B2" rx="11" ry="11" style="stroke:#181818;stroke-width:1;"/><path d="M894.0879,516.9844 Q894.2441,516.7656 894.4316,516.6563 Q894.6191,516.5469 894.8379,516.5469 Q895.2129,516.5469 895.4473,516.8125 Q895.6816,517.0625 895.6816,517.6719 L895.6816,519.125 Q895.6816,519.7344 895.4473,520 Q895.2129,520.2656 894.8379,520.2656 Q894.4941,520.2656 894.291,520.0625 Q894.0879,519.875 893.9785,519.3594 Q893.9316,519 893.7441,518.8125 Q893.416,518.4375 892.8066,518.2188 Q892.1973,518 891.5723,518 Q890.8066,518 890.166,518.3281 Q889.541,518.6563 889.041,519.4063 Q888.5566,520.1563 888.5566,521.1875 L888.5566,522.2813 Q888.5566,523.5156 889.4473,524.3438 Q890.3379,525.1563 891.9316,525.1563 Q892.8691,525.1563 893.5254,524.9063 Q893.916,524.75 894.3379,524.3125 Q894.6035,524.0469 894.7441,523.9688 Q894.9004,523.8906 895.1035,523.8906 Q895.4316,523.8906 895.6816,524.1563 Q895.9473,524.4063 895.9473,524.75 Q895.9473,525.0938 895.6035,525.5 Q895.1035,526.0781 894.3066,526.4063 Q893.2285,526.8594 891.9316,526.8594 Q890.416,526.8594 889.2129,526.2344 Q888.2285,525.7344 887.541,524.6719 Q886.8535,523.5938 886.8535,522.3125 L886.8535,521.1563 Q886.8535,519.8281 887.4629,518.6875 Q888.0879,517.5313 889.1816,516.9219 Q890.2754,516.2969 891.5098,516.2969 Q892.2441,516.2969 892.8848,516.4688 Q893.541,516.625 894.0879,516.9844 Z " fill="#000000"/><text fill="#000000" font-family="sans-serif" font-size="14" lengthAdjust="spacing" textLength="50.5859" x="911.8223" y="526.8379">Account</text><line style="stroke:#181818;stroke-width:0.5;" x1="840" x2="1001.7305" y1="537.1094" y2="537.1094"/><text fill="#000000" font-family="sans-serif" font-size="14" lengthAdjust="spacing" textLength="58.3721" x="845" y="555.6426">-id : Long</text><text fill="#000000" font-family="sans-serif" font-size="14" lengthAdjust="spacing" textLength="151.7305" x="845" y="573.252">-accountNumber : String</text><text fill="#000000" font-family="sans-serif" font-size="14" lengthAdjust="spacing" textLength="124.5029" x="845" y="590.8613">-type : AccountType</text><text fill="#000000" font-family="sans-serif" font-size="14" lengthAdjust="spacing" textLength="143.958" x="845" y="608.4707">-status : AccountStatus</text><text fill="#000000" font-family="sans-serif" font-size="14" lengthAdjust="spacing" textLength="136.1719" x="845" y="626.0801">-balance : BigDecimal</text><text fill="#000000" font-family="sans-serif" font-size="14" lengthAdjust="spacing" textLength="118.3027" x="845" y="643.6895">-openedAt : Instant</text><text fill="#000000" font-family="sans-serif" font-size="14" lengthAdjust="spacing" textLength="112.0547" x="845" y="661.2988">-closedAt : Instant</text><text fill="#000000" font-family="sans-serif" font-size="14" lengthAdjust="spacing" textLength="92.6064" x="845" y="678.9082">-version : Long</text><line style="stroke:#181818;stroke-width:0.5;" x1="840" x2="1001.7305" y1="685.9844" y2="685.9844"/></g><!--class Transaction--><g id="elem_Transaction"><rect codeLine="93" fill="#F1F1F1" height="136.0469" id="Transaction" rx="2.5" ry="2.5" style="stroke:#181818;stroke-width:0.5;" width="159.0615" x="748.5" y="1028.6094"/><ellipse cx="787.7626" cy="1044.6094" fill="#ADD1B2" rx="11" ry="11" style="stroke:#181818;stroke-width:1;"/><path d="M790.5283,1040.4844 Q790.6845,1040.2656 790.872,1040.1563 Q791.0595,1040.0469 791.2783,1040.0469 Q791.6533,1040.0469 791.8876,1040.3125 Q792.122,1040.5625 792.122,1041.1719 L792.122,1042.625 Q792.122,1043.2344 791.8876,1043.5 Q791.6533,1043.7656 791.2783,1043.7656 Q790.9345,1043.7656 790.7314,1043.5625 Q790.5283,1043.375 790.4189,1042.8594 Q790.372,1042.5 790.1845,1042.3125 Q789.8564,1041.9375 789.247,1041.7188 Q788.6376,1041.5 788.0126,1041.5 Q787.247,1041.5 786.6064,1041.8281 Q785.9814,1042.1563 785.4814,1042.9063 Q784.997,1043.6563 784.997,1044.6875 L784.997,1045.7813 Q784.997,1047.0156 785.8876,1047.8438 Q786.7783,1048.6563 788.372,1048.6563 Q789.3095,1048.6563 789.9658,1048.4063 Q790.3564,1048.25 790.7783,1047.8125 Q791.0439,1047.5469 791.1845,1047.4688 Q791.3408,1047.3906 791.5439,1047.3906 Q791.872,1047.3906 792.122,1047.6563 Q792.3876,1047.9063 792.3876,1048.25 Q792.3876,1048.5938 792.0439,1049 Q791.5439,1049.5781 790.747,1049.9063 Q789.6689,1050.3594 788.372,1050.3594 Q786.8564,1050.3594 785.6533,1049.7344 Q784.6689,1049.2344 783.9814,1048.1719 Q783.2939,1047.0938 783.2939,1045.8125 L783.2939,1044.6563 Q783.2939,1043.3281 783.9033,1042.1875 Q784.5283,1041.0313 785.622,1040.4219 Q786.7158,1039.7969 787.9501,1039.7969 Q788.6845,1039.7969 789.3251,1039.9688 Q789.9814,1040.125 790.5283,1040.4844 Z " fill="#000000"/><text fill="#000000" font-family="sans-serif" font-size="14" lengthAdjust="spacing" textLength="73.1445" x="807.1543" y="1050.3379">Transaction</text><line style="stroke:#181818;stroke-width:0.5;" x1="749.5" x2="906.5615" y1="1060.6094" y2="1060.6094"/><text fill="#000000" font-family="sans-serif" font-size="14" lengthAdjust="spacing" textLength="58.3721" x="754.5" y="1079.1426">-id : Long</text><text fill="#000000" font-family="sans-serif" font-size="14" lengthAdjust="spacing" textLength="147.0615" x="754.5" y="1096.752">-type : TransactionType</text><text fill="#000000" font-family="sans-serif" font-size="14" lengthAdjust="spacing" textLength="133.8271" x="754.5" y="1114.3613">-amount : BigDecimal</text><text fill="#000000" font-family="sans-serif" font-size="14" lengthAdjust="spacing" textLength="128.4063" x="754.5" y="1131.9707">-executedAt : Instant</text><text fill="#000000" font-family="sans-serif" font-size="14" lengthAdjust="spacing" textLength="120.6064" x="754.5" y="1149.5801">-description : String</text><line style="stroke:#181818;stroke-width:0.5;" x1="749.5" x2="906.5615" y1="1156.6563" y2="1156.6563"/></g><!--class BillProvider--><g id="elem_BillProvider"><rect codeLine="101" fill="#F1F1F1" height="136.0469" id="BillProvider" rx="2.5" ry="2.5" style="stroke:#181818;stroke-width:0.5;" width="118.5996" x="651.5" y="531.6094"/><ellipse cx="673.6099" cy="547.6094" fill="#ADD1B2" rx="11" ry="11" style="stroke:#181818;stroke-width:1;"/><path d="M676.3755,543.4844 Q676.5318,543.2656 676.7193,543.1563 Q676.9068,543.0469 677.1255,543.0469 Q677.5005,543.0469 677.7349,543.3125 Q677.9693,543.5625 677.9693,544.1719 L677.9693,545.625 Q677.9693,546.2344 677.7349,546.5 Q677.5005,546.7656 677.1255,546.7656 Q676.7818,546.7656 676.5787,546.5625 Q676.3755,546.375 676.2662,545.8594 Q676.2193,545.5 676.0318,545.3125 Q675.7037,544.9375 675.0943,544.7188 Q674.4849,544.5 673.8599,544.5 Q673.0943,544.5 672.4537,544.8281 Q671.8287,545.1563 671.3287,545.9063 Q670.8443,546.6563 670.8443,547.6875 L670.8443,548.7813 Q670.8443,550.0156 671.7349,550.8438 Q672.6255,551.6563 674.2193,551.6563 Q675.1568,551.6563 675.813,551.4063 Q676.2037,551.25 676.6255,550.8125 Q676.8912,550.5469 677.0318,550.4688 Q677.188,550.3906 677.3912,550.3906 Q677.7193,550.3906 677.9693,550.6563 Q678.2349,550.9063 678.2349,551.25 Q678.2349,551.5938 677.8912,552 Q677.3912,552.5781 676.5943,552.9063 Q675.5162,553.3594 674.2193,553.3594 Q672.7037,553.3594 671.5005,552.7344 Q670.5162,552.2344 669.8287,551.1719 Q669.1412,550.0938 669.1412,548.8125 L669.1412,547.6563 Q669.1412,546.3281 669.7505,545.1875 Q670.3755,544.0313 671.4693,543.4219 Q672.563,542.7969 673.7974,542.7969 Q674.5318,542.7969 675.1724,542.9688 Q675.8287,543.125 676.3755,543.4844 Z " fill="#000000"/><text fill="#000000" font-family="sans-serif" font-size="14" lengthAdjust="spacing" textLength="70.7998" x="689.1899" y="553.3379">BillProvider</text><line style="stroke:#181818;stroke-width:0.5;" x1="652.5" x2="769.0996" y1="563.6094" y2="563.6094"/><text fill="#000000" font-family="sans-serif" font-size="14" lengthAdjust="spacing" textLength="58.3721" x="657.5" y="582.1426">-id : Long</text><text fill="#000000" font-family="sans-serif" font-size="14" lengthAdjust="spacing" textLength="83.2617" x="657.5" y="599.752">-code : String</text><text fill="#000000" font-family="sans-serif" font-size="14" lengthAdjust="spacing" textLength="87.9238" x="657.5" y="617.3613">-name : String</text><text fill="#000000" font-family="sans-serif" font-size="14" lengthAdjust="spacing" textLength="106.5996" x="657.5" y="634.9707">-category : String</text><text fill="#000000" font-family="sans-serif" font-size="14" lengthAdjust="spacing" textLength="102.7305" x="657.5" y="652.5801">-active : boolean</text><line style="stroke:#181818;stroke-width:0.5;" x1="652.5" x2="769.0996" y1="659.6563" y2="659.6563"/></g><!--class BillPayment--><g id="elem_BillPayment"><rect codeLine="109" fill="#F1F1F1" height="118.4375" id="BillPayment" rx="2.5" ry="2.5" style="stroke:#181818;stroke-width:0.5;" width="162.1787" x="630" y="806.6094"/><ellipse cx="670.3178" cy="822.6094" fill="#ADD1B2" rx="11" ry="11" style="stroke:#181818;stroke-width:1;"/><path d="M673.0834,818.4844 Q673.2396,818.2656 673.4271,818.1563 Q673.6146,818.0469 673.8334,818.0469 Q674.2084,818.0469 674.4428,818.3125 Q674.6771,818.5625 674.6771,819.1719 L674.6771,820.625 Q674.6771,821.2344 674.4428,821.5 Q674.2084,821.7656 673.8334,821.7656 Q673.4896,821.7656 673.2865,821.5625 Q673.0834,821.375 672.974,820.8594 Q672.9271,820.5 672.7396,820.3125 Q672.4115,819.9375 671.8021,819.7188 Q671.1928,819.5 670.5678,819.5 Q669.8021,819.5 669.1615,819.8281 Q668.5365,820.1563 668.0365,820.9063 Q667.5521,821.6563 667.5521,822.6875 L667.5521,823.7813 Q667.5521,825.0156 668.4428,825.8438 Q669.3334,826.6563 670.9271,826.6563 Q671.8646,826.6563 672.5209,826.4063 Q672.9115,826.25 673.3334,825.8125 Q673.599,825.5469 673.7396,825.4688 Q673.8959,825.3906 674.099,825.3906 Q674.4271,825.3906 674.6771,825.6563 Q674.9428,825.9063 674.9428,826.25 Q674.9428,826.5938 674.599,827 Q674.099,827.5781 673.3021,827.9063 Q672.224,828.3594 670.9271,828.3594 Q669.4115,828.3594 668.2084,827.7344 Q667.224,827.2344 666.5365,826.1719 Q665.849,825.0938 665.849,823.8125 L665.849,822.6563 Q665.849,821.3281 666.4584,820.1875 Q667.0834,819.0313 668.1771,818.4219 Q669.2709,817.7969 670.5053,817.7969 Q671.2396,817.7969 671.8803,817.9688 Q672.5365,818.125 673.0834,818.4844 Z " fill="#000000"/><text fill="#000000" font-family="sans-serif" font-size="14" lengthAdjust="spacing" textLength="73.917" x="689.9439" y="828.3379">BillPayment</text><line style="stroke:#181818;stroke-width:0.5;" x1="631" x2="791.1787" y1="838.6094" y2="838.6094"/><text fill="#000000" font-family="sans-serif" font-size="14" lengthAdjust="spacing" textLength="58.3721" x="636" y="857.1426">-id : Long</text><text fill="#000000" font-family="sans-serif" font-size="14" lengthAdjust="spacing" textLength="150.1787" x="636" y="874.752">-clientReference : String</text><text fill="#000000" font-family="sans-serif" font-size="14" lengthAdjust="spacing" textLength="133.8271" x="636" y="892.3613">-amount : BigDecimal</text><text fill="#000000" font-family="sans-serif" font-size="14" lengthAdjust="spacing" textLength="118.2822" x="636" y="909.9707">-createdAt : Instant</text><line style="stroke:#181818;stroke-width:0.5;" x1="631" x2="791.1787" y1="917.0469" y2="917.0469"/></g><!--class CheckbookOrder--><g id="elem_CheckbookOrder"><rect codeLine="116" fill="#F1F1F1" height="206.4844" id="CheckbookOrder" rx="2.5" ry="2.5" style="stroke:#181818;stroke-width:0.5;" width="243.9229" x="864" y="762.6094"/><ellipse cx="928.7979" cy="778.6094" fill="#ADD1B2" rx="11" ry="11" style="stroke:#181818;stroke-width:1;"/><path d="M931.5635,774.4844 Q931.7197,774.2656 931.9072,774.1563 Q932.0947,774.0469 932.3135,774.0469 Q932.6885,774.0469 932.9229,774.3125 Q933.1572,774.5625 933.1572,775.1719 L933.1572,776.625 Q933.1572,777.2344 932.9229,777.5 Q932.6885,777.7656 932.3135,777.7656 Q931.9697,777.7656 931.7666,777.5625 Q931.5635,777.375 931.4541,776.8594 Q931.4072,776.5 931.2197,776.3125 Q930.8916,775.9375 930.2822,775.7188 Q929.6729,775.5 929.0479,775.5 Q928.2822,775.5 927.6416,775.8281 Q927.0166,776.1563 926.5166,776.9063 Q926.0322,777.6563 926.0322,778.6875 L926.0322,779.7813 Q926.0322,781.0156 926.9229,781.8438 Q927.8135,782.6563 929.4072,782.6563 Q930.3447,782.6563 931.001,782.4063 Q931.3916,782.25 931.8135,781.8125 Q932.0791,781.5469 932.2197,781.4688 Q932.376,781.3906 932.5791,781.3906 Q932.9072,781.3906 933.1572,781.6563 Q933.4229,781.9063 933.4229,782.25 Q933.4229,782.5938 933.0791,783 Q932.5791,783.5781 931.7822,783.9063 Q930.7041,784.3594 929.4072,784.3594 Q927.8916,784.3594 926.6885,783.7344 Q925.7041,783.2344 925.0166,782.1719 Q924.3291,781.0938 924.3291,779.8125 L924.3291,778.6563 Q924.3291,777.3281 924.9385,776.1875 Q925.5635,775.0313 926.6572,774.4219 Q927.751,773.7969 928.9854,773.7969 Q929.7197,773.7969 930.3604,773.9688 Q931.0166,774.125 931.5635,774.4844 Z " fill="#000000"/><text fill="#000000" font-family="sans-serif" font-size="14" lengthAdjust="spacing" textLength="105.8271" x="949.2979" y="784.3379">CheckbookOrder</text><line style="stroke:#181818;stroke-width:0.5;" x1="865" x2="1106.9229" y1="794.6094" y2="794.6094"/><text fill="#000000" font-family="sans-serif" font-size="14" lengthAdjust="spacing" textLength="58.3721" x="870" y="813.1426">-id : Long</text><text fill="#000000" font-family="sans-serif" font-size="14" lengthAdjust="spacing" textLength="135.3789" x="870" y="830.752">-orderNumber : String</text><text fill="#000000" font-family="sans-serif" font-size="14" lengthAdjust="spacing" textLength="80.1514" x="870" y="848.3613">-quantity : int</text><text fill="#000000" font-family="sans-serif" font-size="14" lengthAdjust="spacing" textLength="231.9229" x="870" y="865.9707">-sheetCount : CheckbookSheetCount</text><text fill="#000000" font-family="sans-serif" font-size="14" lengthAdjust="spacing" textLength="199.1992" x="870" y="883.5801">-status : CheckbookOrderStatus</text><text fill="#000000" font-family="sans-serif" font-size="14" lengthAdjust="spacing" textLength="133.8545" x="870" y="901.1895">-requestedAt : Instant</text><text fill="#000000" font-family="sans-serif" font-size="14" lengthAdjust="spacing" textLength="136.1787" x="870" y="918.7988">-processedAt : Instant</text><text fill="#000000" font-family="sans-serif" font-size="14" lengthAdjust="spacing" textLength="128.3994" x="870" y="936.4082">-deliveredAt : Instant</text><text fill="#000000" font-family="sans-serif" font-size="14" lengthAdjust="spacing" textLength="87.1514" x="870" y="954.0176">-notes : String</text><line style="stroke:#181818;stroke-width:0.5;" x1="865" x2="1106.9229" y1="961.0938" y2="961.0938"/></g><!--class AuditLog--><g id="elem_AuditLog"><rect codeLine="128" fill="#F1F1F1" height="153.6563" id="AuditLog" rx="2.5" ry="2.5" style="stroke:#181818;stroke-width:0.5;" width="147.3926" x="1180.5" y="788.6094"/><ellipse cx="1222.5558" cy="804.6094" fill="#ADD1B2" rx="11" ry="11" style="stroke:#181818;stroke-width:1;"/><path d="M1225.3214,800.4844 Q1225.4777,800.2656 1225.6652,800.1563 Q1225.8527,800.0469 1226.0714,800.0469 Q1226.4464,800.0469 1226.6808,800.3125 Q1226.9152,800.5625 1226.9152,801.1719 L1226.9152,802.625 Q1226.9152,803.2344 1226.6808,803.5 Q1226.4464,803.7656 1226.0714,803.7656 Q1225.7277,803.7656 1225.5246,803.5625 Q1225.3214,803.375 1225.2121,802.8594 Q1225.1652,802.5 1224.9777,802.3125 Q1224.6496,801.9375 1224.0402,801.7188 Q1223.4308,801.5 1222.8058,801.5 Q1222.0402,801.5 1221.3996,801.8281 Q1220.7746,802.1563 1220.2746,802.9063 Q1219.7902,803.6563 1219.7902,804.6875 L1219.7902,805.7813 Q1219.7902,807.0156 1220.6808,807.8438 Q1221.5714,808.6563 1223.1652,808.6563 Q1224.1027,808.6563 1224.7589,808.4063 Q1225.1496,808.25 1225.5714,807.8125 Q1225.8371,807.5469 1225.9777,807.4688 Q1226.1339,807.3906 1226.3371,807.3906 Q1226.6652,807.3906 1226.9152,807.6563 Q1227.1808,807.9063 1227.1808,808.25 Q1227.1808,808.5938 1226.8371,809 Q1226.3371,809.5781 1225.5402,809.9063 Q1224.4621,810.3594 1223.1652,810.3594 Q1221.6496,810.3594 1220.4464,809.7344 Q1219.4621,809.2344 1218.7746,808.1719 Q1218.0871,807.0938 1218.0871,805.8125 L1218.0871,804.6563 Q1218.0871,803.3281 1218.6964,802.1875 Q1219.3214,801.0313 1220.4152,800.4219 Q1221.5089,799.7969 1222.7433,799.7969 Q1223.4777,799.7969 1224.1183,799.9688 Q1224.7746,800.125 1225.3214,800.4844 Z " fill="#000000"/><text fill="#000000" font-family="sans-serif" font-size="14" lengthAdjust="spacing" textLength="55.2686" x="1242.5682" y="810.3379">AuditLog</text><line style="stroke:#181818;stroke-width:0.5;" x1="1181.5" x2="1326.8926" y1="820.6094" y2="820.6094"/><text fill="#000000" font-family="sans-serif" font-size="14" lengthAdjust="spacing" textLength="58.3721" x="1186.5" y="839.1426">-id : Long</text><text fill="#000000" font-family="sans-serif" font-size="14" lengthAdjust="spacing" textLength="90.2617" x="1186.5" y="856.752">-action : String</text><text fill="#000000" font-family="sans-serif" font-size="14" lengthAdjust="spacing" textLength="117.4893" x="1186.5" y="874.3613">-entityType : String</text><text fill="#000000" font-family="sans-serif" font-size="14" lengthAdjust="spacing" textLength="92.6133" x="1186.5" y="891.9707">-entityId : Long</text><text fill="#000000" font-family="sans-serif" font-size="14" lengthAdjust="spacing" textLength="135.3926" x="1186.5" y="909.5801">-performedAt : Instant</text><text fill="#000000" font-family="sans-serif" font-size="14" lengthAdjust="spacing" textLength="93.3721" x="1186.5" y="927.1895">-details : String</text><line style="stroke:#181818;stroke-width:0.5;" x1="1181.5" x2="1326.8926" y1="934.2656" y2="934.2656"/></g><!--class Notification--><g id="elem_Notification"><rect codeLine="137" fill="#F1F1F1" height="171.2656" id="Notification" rx="2.5" ry="2.5" style="stroke:#181818;stroke-width:0.5;" width="155.1719" x="1362.5" y="780.1094"/><ellipse cx="1401.7626" cy="796.1094" fill="#ADD1B2" rx="11" ry="11" style="stroke:#181818;stroke-width:1;"/><path d="M1404.5283,791.9844 Q1404.6845,791.7656 1404.872,791.6563 Q1405.0595,791.5469 1405.2783,791.5469 Q1405.6533,791.5469 1405.8876,791.8125 Q1406.122,792.0625 1406.122,792.6719 L1406.122,794.125 Q1406.122,794.7344 1405.8876,795 Q1405.6533,795.2656 1405.2783,795.2656 Q1404.9345,795.2656 1404.7314,795.0625 Q1404.5283,794.875 1404.4189,794.3594 Q1404.372,794 1404.1845,793.8125 Q1403.8564,793.4375 1403.247,793.2188 Q1402.6376,793 1402.0126,793 Q1401.247,793 1400.6064,793.3281 Q1399.9814,793.6563 1399.4814,794.4063 Q1398.997,795.1563 1398.997,796.1875 L1398.997,797.2813 Q1398.997,798.5156 1399.8876,799.3438 Q1400.7783,800.1563 1402.372,800.1563 Q1403.3095,800.1563 1403.9658,799.9063 Q1404.3564,799.75 1404.7783,799.3125 Q1405.0439,799.0469 1405.1845,798.9688 Q1405.3408,798.8906 1405.5439,798.8906 Q1405.872,798.8906 1406.122,799.1563 Q1406.3876,799.4063 1406.3876,799.75 Q1406.3876,800.0938 1406.0439,800.5 Q1405.5439,801.0781 1404.747,801.4063 Q1403.6689,801.8594 1402.372,801.8594 Q1400.8564,801.8594 1399.6533,801.2344 Q1398.6689,800.7344 1397.9814,799.6719 Q1397.2939,798.5938 1397.2939,797.3125 L1397.2939,796.1563 Q1397.2939,794.8281 1397.9033,793.6875 Q1398.5283,792.5313 1399.622,791.9219 Q1400.7158,791.2969 1401.9501,791.2969 Q1402.6845,791.2969 1403.3251,791.4688 Q1403.9814,791.625 1404.5283,791.9844 Z " fill="#000000"/><text fill="#000000" font-family="sans-serif" font-size="14" lengthAdjust="spacing" textLength="69.2549" x="1421.1543" y="801.8379">Notification</text><line style="stroke:#181818;stroke-width:0.5;" x1="1363.5" x2="1516.6719" y1="812.1094" y2="812.1094"/><text fill="#000000" font-family="sans-serif" font-size="14" lengthAdjust="spacing" textLength="58.3721" x="1368.5" y="830.6426">-id : Long</text><text fill="#000000" font-family="sans-serif" font-size="14" lengthAdjust="spacing" textLength="143.1719" x="1368.5" y="848.252">-type : NotificationType</text><text fill="#000000" font-family="sans-serif" font-size="14" lengthAdjust="spacing" textLength="74.6895" x="1368.5" y="865.8613">-title : String</text><text fill="#000000" font-family="sans-serif" font-size="14" lengthAdjust="spacing" textLength="109.71" x="1368.5" y="883.4707">-message : String</text><text fill="#000000" font-family="sans-serif" font-size="14" lengthAdjust="spacing" textLength="73.9102" x="1368.5" y="901.0801">-link : String</text><text fill="#000000" font-family="sans-serif" font-size="14" lengthAdjust="spacing" textLength="94.1787" x="1368.5" y="918.6895">-read : boolean</text><text fill="#000000" font-family="sans-serif" font-size="14" lengthAdjust="spacing" textLength="118.2822" x="1368.5" y="936.2988">-createdAt : Instant</text><line style="stroke:#181818;stroke-width:0.5;" x1="1363.5" x2="1516.6719" y1="943.375" y2="943.375"/></g><g id="elem_GMN37"><path d="M1574,836.1094 L1574,895.1641 L1849.6997,895.1641 L1849.6997,846.1094 L1839.6997,836.1094 L1574,836.1094 " fill="#FEFFDD" style="stroke:#181818;stroke-width:0.5;"/><path d="M1839.6997,836.1094 L1839.6997,846.1094 L1849.6997,846.1094 L1839.6997,836.1094 " fill="#FEFFDD" style="stroke:#181818;stroke-width:1;"/><text fill="#000000" font-family="sans-serif" font-size="13" lengthAdjust="spacing" textLength="211.7197" x="1580" y="854.6045">Un client poss&#232;de plusieurs comptes</text><text fill="#000000" font-family="sans-serif" font-size="13" lengthAdjust="spacing" textLength="243.5469" x="1580" y="870.9561">Chaque compte appartient &#224; un seul client</text><text fill="#000000" font-family="sans-serif" font-size="13" lengthAdjust="spacing" textLength="254.6997" x="1580" y="887.3076">Compte bloqu&#233; ou cl&#244;tur&#233; : pas d'op&#233;rations</text></g><g id="elem_GMN40"><path d="M1574.5,1059.1094 L1574.5,1134.5156 L1923.4961,1134.5156 L1923.4961,1069.1094 L1913.4961,1059.1094 L1574.5,1059.1094 " fill="#FEFFDD" style="stroke:#181818;stroke-width:0.5;"/><path d="M1913.4961,1059.1094 L1913.4961,1069.1094 L1923.4961,1069.1094 L1913.4961,1059.1094 " fill="#FEFFDD" style="stroke:#181818;stroke-width:1;"/><text fill="#000000" font-family="sans-serif" font-size="13" lengthAdjust="spacing" textLength="202.3315" x="1580.5" y="1077.6045">Extension v1.1 &#8212; paiement facture</text><text fill="#000000" font-family="sans-serif" font-size="13" lengthAdjust="spacing" textLength="327.9961" x="1580.5" y="1093.9561">D&#233;bite le compte via Transaction PAIEMENT_FACTURE</text><text fill="#000000" font-family="sans-serif" font-size="13" lengthAdjust="spacing" textLength="183.5361" x="1580.5" y="1110.3076">Re&#231;u r&#233;utilise la transaction li&#233;e</text><text fill="#000000" font-family="sans-serif" font-size="13" lengthAdjust="spacing" textLength="249.2725" x="1580.5" y="1126.6592">T&#233;l&#233;chargement PDF : re&#231;u-TYPE-date.pdf</text></g><g id="elem_GMN43"><path d="M1959,1059.1094 L1959,1134.5156 L2253.0698,1134.5156 L2253.0698,1069.1094 L2243.0698,1059.1094 L1959,1059.1094 " fill="#FEFFDD" style="stroke:#181818;stroke-width:0.5;"/><path d="M2243.0698,1059.1094 L2243.0698,1069.1094 L2253.0698,1069.1094 L2243.0698,1059.1094 " fill="#FEFFDD" style="stroke:#181818;stroke-width:1;"/><text fill="#000000" font-family="sans-serif" font-size="13" lengthAdjust="spacing" textLength="248.1616" x="1965" y="1077.6045">Extension v1.1 &#8212; pas d'impact sur le solde</text><text fill="#000000" font-family="sans-serif" font-size="13" lengthAdjust="spacing" textLength="273.0698" x="1965" y="1093.9561">Compte COURANT ou PROFESSIONNEL actif</text><text fill="#000000" font-family="sans-serif" font-size="13" lengthAdjust="spacing" textLength="229.0615" x="1965" y="1110.3076">Format : 20 ou 40 feuillets (sheetCount)</text><text fill="#000000" font-family="sans-serif" font-size="13" lengthAdjust="spacing" textLength="249.6787" x="1965" y="1126.6592">Cr&#233;ation / changement statut &#8594; Notification</text></g><g id="elem_GMN46"><path d="M2288,1067.1094 L2288,1126.1641 L2556.0825,1126.1641 L2556.0825,1077.1094 L2546.0825,1067.1094 L2288,1067.1094 " fill="#FEFFDD" style="stroke:#181818;stroke-width:0.5;"/><path d="M2546.0825,1067.1094 L2546.0825,1077.1094 L2556.0825,1077.1094 L2546.0825,1067.1094 " fill="#FEFFDD" style="stroke:#181818;stroke-width:1;"/><text fill="#000000" font-family="sans-serif" font-size="13" lengthAdjust="spacing" textLength="109.8398" x="2294" y="1085.6045">Extension v1.2 / v2</text><text fill="#000000" font-family="sans-serif" font-size="13" lengthAdjust="spacing" textLength="247.0825" x="2294" y="1101.9561">Destinataire : User (staff) ou Client (portail)</text><text fill="#000000" font-family="sans-serif" font-size="13" lengthAdjust="spacing" textLength="242.4487" x="2294" y="1118.3076">&#201;v&#233;nements client : op&#233;rations + ch&#233;quier</text></g><g id="elem_GMN49"><path d="M723.5,1224.6094 L723.5,1267.3125 A0,0 0 0 0 723.5,1267.3125 L932.6953,1267.3125 A0,0 0 0 0 932.6953,1267.3125 L932.6953,1234.6094 L922.6953,1224.6094 L832,1224.6094 L828,1164.7994 L824,1224.6094 L723.5,1224.6094 A0,0 0 0 0 723.5,1224.6094 " fill="#FEFFDD" style="stroke:#181818;stroke-width:0.5;"/><path d="M922.6953,1224.6094 L922.6953,1234.6094 L932.6953,1234.6094 L922.6953,1224.6094 " fill="#FEFFDD" style="stroke:#181818;stroke-width:0.5;"/><text fill="#000000" font-family="sans-serif" font-size="13" lengthAdjust="spacing" textLength="100.4644" x="729.5" y="1243.1045">Dat&#233;e, horodat&#233;e</text><text fill="#000000" font-family="sans-serif" font-size="13" lengthAdjust="spacing" textLength="188.1953" x="729.5" y="1259.4561">Associ&#233;e &#224; l'utilisateur ex&#233;cutant</text></g><g id="elem_GMN52"><path d="M1574,570.1094 L1574,629.1641 L1879.6733,629.1641 L1879.6733,580.1094 L1869.6733,570.1094 L1574,570.1094 " fill="#FEFFDD" style="stroke:#181818;stroke-width:0.5;"/><path d="M1869.6733,570.1094 L1869.6733,580.1094 L1879.6733,580.1094 L1869.6733,570.1094 " fill="#FEFFDD" style="stroke:#181818;stroke-width:1;"/><text fill="#000000" font-family="sans-serif" font-size="13" lengthAdjust="spacing" textLength="238.4624" x="1580" y="588.6045">Portail v2 : passwordHash, portalEnabled</text><text fill="#000000" font-family="sans-serif" font-size="13" lengthAdjust="spacing" textLength="284.6733" x="1580" y="604.9561">UI /portal : shell commun (sidebar ic&#244;nes, cloche)</text><text fill="#000000" font-family="sans-serif" font-size="13" lengthAdjust="spacing" textLength="233.8223" x="1580" y="621.3076">Login partag&#233; /login &#8594; /portal/dashboard</text></g><g id="elem_GMN55"><path d="M1885.5,852.6094 L1885.5,878.9609 L2112.4243,878.9609 L2112.4243,862.6094 L2102.4243,852.6094 L1885.5,852.6094 " fill="#FEFFDD" style="stroke:#181818;stroke-width:0.5;"/><path d="M2102.4243,852.6094 L2102.4243,862.6094 L2112.4243,862.6094 L2102.4243,852.6094 " fill="#FEFFDD" style="stroke:#181818;stroke-width:1;"/><text fill="#000000" font-family="sans-serif" font-size="13" lengthAdjust="spacing" textLength="205.9243" x="1891.5" y="871.1045">Mot de passe jamais stock&#233; en clair</text></g><!--reverse link Client to Account--><g id="link_Client_Account"><path codeLine="148" d="M1159.26,366.6094 C1060.64,366.6094 921,366.6094 921,366.6094 C921,366.6094 921,440.3294 921,504.8394 " fill="none" id="Client-backto-Account" style="stroke:#181818;stroke-width:1;"/><polygon fill="none" points="1171.26,366.6094,1165.26,362.6094,1159.26,366.6094,1165.26,370.6094,1171.26,366.6094" style="stroke:#181818;stroke-width:1;"/><polygon fill="#000000" points="913.6852,360.2943,922.9837,358.2973,920.034,353.2132,913.6852,360.2943" style="stroke:#000000;stroke-width:1;"/><text fill="#000000" font-family="sans-serif" font-size="13" lengthAdjust="spacing" textLength="49.1499" x="927.01" y="363.1045">poss&#232;de</text><text fill="#000000" font-family="sans-serif" font-size="13" lengthAdjust="spacing" textLength="7.23" x="1156.3407" y="371.3048">1</text><text fill="#000000" font-family="sans-serif" font-size="13" lengthAdjust="spacing" textLength="19.5127" x="901.2741" y="494.164">0..*</text></g><!--reverse link Client to CheckbookOrder--><g id="link_Client_CheckbookOrder"><path codeLine="149" d="M1159.42,401.6094 C1098.44,401.6094 1038,401.6094 1038,401.6094 C1038,401.6094 1038,625.6194 1038,762.3494 " fill="none" id="Client-backto-CheckbookOrder" style="stroke:#181818;stroke-width:1;"/><polygon fill="none" points="1171.42,401.6094,1165.42,397.6094,1159.42,401.6094,1165.42,405.6094,1171.42,401.6094" style="stroke:#181818;stroke-width:1;"/><polygon fill="#000000" points="1041.405,511.1839,1047.0758,503.5489,1041.505,501.6739,1041.405,511.1839" style="stroke:#000000;stroke-width:1;"/><text fill="#000000" font-family="sans-serif" font-size="13" lengthAdjust="spacing" textLength="54.209" x="1052" y="511.7645">demande</text><text fill="#000000" font-family="sans-serif" font-size="13" lengthAdjust="spacing" textLength="7.23" x="1156.2475" y="409.8849">1</text><text fill="#000000" font-family="sans-serif" font-size="13" lengthAdjust="spacing" textLength="19.5127" x="1022.1428" y="751.669">0..*</text></g><!--link Client to Notification--><g id="link_Client_Notification"><path codeLine="150" d="M1336.67,332.6094 C1386.34,332.6094 1440,332.6094 1440,332.6094 C1440,332.6094 1440,629.3094 1440,779.9694 " fill="none" id="Client-Notification" style="stroke:#181818;stroke-width:1;"/><polygon fill="#000000" points="1400.1253,500.6669,1400.9532,491.1924,1395.2261,492.5153,1400.1253,500.6669" style="stroke:#000000;stroke-width:1;"/><text fill="#000000" font-family="sans-serif" font-size="13" lengthAdjust="spacing" textLength="31.7891" x="1408" y="501.1145">re&#231;oit</text><text fill="#000000" font-family="sans-serif" font-size="13" lengthAdjust="spacing" textLength="7.23" x="1344.1041" y="333.8948">1</text><text fill="#000000" font-family="sans-serif" font-size="13" lengthAdjust="spacing" textLength="19.5127" x="1420.1691" y="769.1285">0..*</text></g><!--link User to Transaction--><g id="link_User_Transaction"><path codeLine="151" d="M1174.77,698.6094 C1059.13,698.6094 857.75,698.6094 857.75,698.6094 C857.75,698.6094 857.75,914.3994 857.75,1028.1894 " fill="none" id="User-Transaction" style="stroke:#181818;stroke-width:1;"/><polygon fill="#000000" points="799.2838,717.6687,807.6723,713.1872,803.4361,709.1125,799.2838,717.6687" style="stroke:#000000;stroke-width:1;"/><text fill="#000000" font-family="sans-serif" font-size="13" lengthAdjust="spacing" textLength="45.5317" x="811.75" y="719.3845">ex&#233;cute</text><text fill="#000000" font-family="sans-serif" font-size="13" lengthAdjust="spacing" textLength="7.23" x="1159.6621" y="705.0558">1</text><text fill="#000000" font-family="sans-serif" font-size="13" lengthAdjust="spacing" textLength="19.5127" x="840.8615" y="1017.8194">0..*</text></g><!--link Transaction to User--><g id="link_Transaction_User"><path codeLine="161" d="M815.5,1028.2994 C815.5,914.0594 815.5,696.6094 815.5,696.6094 C815.5,696.6094 1042.54,696.6094 1168.84,696.6094 " fill="none" id="Transaction-to-User" style="stroke:#181818;stroke-width:1;"/><polygon fill="#181818" points="1174.84,696.6094,1165.84,692.6094,1169.84,696.6094,1165.84,700.6094,1174.84,696.6094" style="stroke:#181818;stroke-width:1;"/><text fill="#000000" font-family="sans-serif" font-size="13" lengthAdjust="spacing" textLength="67.9326" x="761.33" y="693.1045">executedBy</text></g><!--link User to CheckbookOrder--><g id="link_User_CheckbookOrder"><path codeLine="152" d="M1174.87,700.6094 C1126.17,700.6094 1073,700.6094 1073,700.6094 C1073,700.6094 1073,729.1694 1073,762.5194 " fill="none" id="User-CheckbookOrder" style="stroke:#181818;stroke-width:1;"/><polygon fill="#000000" points="1050.7072,694.3819,1059.9631,692.1958,1056.9105,687.1729,1050.7072,694.3819" style="stroke:#000000;stroke-width:1;"/><text fill="#000000" font-family="sans-serif" font-size="13" lengthAdjust="spacing" textLength="28.9009" x="1063.98" y="697.1045">traite</text><text fill="#000000" font-family="sans-serif" font-size="13" lengthAdjust="spacing" textLength="7.23" x="1160.029" y="724.4872">1</text><text fill="#000000" font-family="sans-serif" font-size="13" lengthAdjust="spacing" textLength="19.5127" x="1059.7131" y="751.8514">0..*</text></g><!--link User to AuditLog--><g id="link_User_AuditLog"><path codeLine="153" d="M1254,702.8294 C1254,731.3094 1254,761.7094 1254,788.4294 " fill="none" id="User-AuditLog" style="stroke:#181818;stroke-width:1;"/><polygon fill="#000000" points="1198,759.8052,1200.9389,750.7601,1195.0611,750.7601,1198,759.8052" style="stroke:#000000;stroke-width:1;"/><text fill="#000000" font-family="sans-serif" font-size="13" lengthAdjust="spacing" textLength="46.2554" x="1207" y="760.1245">effectue</text><text fill="#000000" font-family="sans-serif" font-size="13" lengthAdjust="spacing" textLength="7.23" x="1246.7697" y="724.4873">1</text><text fill="#000000" font-family="sans-serif" font-size="13" lengthAdjust="spacing" textLength="19.5127" x="1234.1003" y="777.8389">0..*</text></g><!--link AuditLog to User--><g id="link_AuditLog_User"><path codeLine="162" d="M1217.25,788.3094 C1217.25,761.6194 1217.25,737.2794 1217.25,708.8494 " fill="none" id="AuditLog-to-User" style="stroke:#181818;stroke-width:1;"/><polygon fill="#181818" points="1217.25,702.8494,1213.25,711.8494,1217.25,707.8494,1221.25,711.8494,1217.25,702.8494" style="stroke:#181818;stroke-width:1;"/><text fill="#000000" font-family="sans-serif" font-size="13" lengthAdjust="spacing" textLength="74.4199" x="1142.25" y="742.0745">performedBy</text></g><!--link User to Notification--><g id="link_User_Notification"><path codeLine="154" d="M1290.75,702.6594 C1290.75,745.1394 1290.75,784.6094 1290.75,784.6094 C1290.75,784.6094 1326.05,784.6094 1362.31,784.6094 " fill="none" id="User-Notification" style="stroke:#181818;stroke-width:1;"/><polygon fill="#000000" points="1299.0387,774.3614,1295.3031,765.6152,1290.8756,769.4813,1299.0387,774.3614" style="stroke:#000000;stroke-width:1;"/><text fill="#000000" font-family="sans-serif" font-size="13" lengthAdjust="spacing" textLength="31.7891" x="1304.75" y="775.9145">re&#231;oit</text><text fill="#000000" font-family="sans-serif" font-size="13" lengthAdjust="spacing" textLength="7.23" x="1286.3235" y="724.6517">1</text><text fill="#000000" font-family="sans-serif" font-size="13" lengthAdjust="spacing" textLength="19.5127" x="1335.0159" y="773.6258">0..*</text></g><!--link Account to Transaction--><g id="link_Account_Transaction"><path codeLine="155" d="M851.5,694.2594 C851.5,791.8494 851.5,941.6294 851.5,1028.2594 " fill="none" id="Account-Transaction" style="stroke:#181818;stroke-width:1;"/><polygon fill="#000000" points="802.5,857.4352,805.4389,848.3901,799.5611,848.3901,802.5,857.4352" style="stroke:#000000;stroke-width:1;"/><text fill="#000000" font-family="sans-serif" font-size="13" lengthAdjust="spacing" textLength="39.019" x="811.5" y="857.7545">source</text><text fill="#000000" font-family="sans-serif" font-size="13" lengthAdjust="spacing" textLength="21.6836" x="847.0193" y="715.6319">0..1</text><text fill="#000000" font-family="sans-serif" font-size="13" lengthAdjust="spacing" textLength="19.5127" x="854.9264" y="1017.8966">0..*</text></g><!--link Account to Transaction--><g id="link_Account_Transaction"><path codeLine="156" d="M845.25,694.2594 C845.25,791.8494 845.25,941.6294 845.25,1028.2594 " fill="none" id="Account-Transaction-1" style="stroke:#181818;stroke-width:1;"/><polygon fill="#000000" points="792.5,875.4352,795.4389,866.3901,789.5611,866.3901,792.5,875.4352" style="stroke:#000000;stroke-width:1;"/><text fill="#000000" font-family="sans-serif" font-size="13" lengthAdjust="spacing" textLength="62.8799" x="801.5" y="875.7545">destination</text><text fill="#000000" font-family="sans-serif" font-size="13" lengthAdjust="spacing" textLength="21.6836" x="809.5077" y="706.6884">0..1</text><text fill="#000000" font-family="sans-serif" font-size="13" lengthAdjust="spacing" textLength="19.5127" x="827.0725" y="1017.8966">0..*</text></g><!--reverse link Account to BillPayment--><g id="link_Account_BillPayment"><path codeLine="157" d="M826.9,681.6094 C796.48,681.6094 781.25,681.6094 781.25,681.6094 C781.25,681.6094 781.25,752.5894 781.25,806.3794 " fill="none" id="Account-backto-BillPayment" style="stroke:#181818;stroke-width:1;"/><polygon fill="none" points="838.9,681.6094,832.9,677.6094,826.9,681.6094,832.9,685.6094,838.9,681.6094" style="stroke:#181818;stroke-width:1;"/><polygon fill="#000000" points="725.532,711.0407,731.3999,703.5562,725.8799,701.5365,725.532,711.0407" style="stroke:#000000;stroke-width:1;"/><text fill="#000000" font-family="sans-serif" font-size="13" lengthAdjust="spacing" textLength="44.8081" x="736.25" y="711.6645">paie via</text><text fill="#000000" font-family="sans-serif" font-size="13" lengthAdjust="spacing" textLength="7.23" x="823.7651" y="686.1803">1</text><text fill="#000000" font-family="sans-serif" font-size="13" lengthAdjust="spacing" textLength="19.5127" x="769.6743" y="795.6756">0..*</text></g><!--reverse link Account to CheckbookOrder--><g id="link_Account_CheckbookOrder"><path codeLine="158" d="M910.33,706.1394 C910.33,728.2394 910.33,739.8894 910.33,762.3494 " fill="none" id="Account-backto-CheckbookOrder" style="stroke:#181818;stroke-width:1;"/><polygon fill="none" points="910.33,694.1394,906.33,700.1394,910.33,706.1394,914.33,700.1394,910.33,694.1394" style="stroke:#181818;stroke-width:1;"/><polygon fill="#000000" points="836.33,742.4252,839.2689,733.3801,833.3911,733.3801,836.33,742.4252" style="stroke:#000000;stroke-width:1;"/><text fill="#000000" font-family="sans-serif" font-size="13" lengthAdjust="spacing" textLength="64.3081" x="845.33" y="742.7445">commande</text><text fill="#000000" font-family="sans-serif" font-size="13" lengthAdjust="spacing" textLength="7.23" x="902.2642" y="715.5027">1</text><text fill="#000000" font-family="sans-serif" font-size="13" lengthAdjust="spacing" textLength="19.5127" x="885.097" y="751.669">0..*</text></g><!--link BillProvider to BillPayment--><g id="link_BillProvider_BillPayment"><path codeLine="159" d="M711,667.7694 C711,710.5594 711,765.2094 711,806.2194 " fill="none" id="BillProvider-BillPayment" style="stroke:#181818;stroke-width:1;"/><polygon fill="#000000" points="655,733.1652,657.9389,724.1201,652.0611,724.1201,655,733.1652" style="stroke:#000000;stroke-width:1;"/><text fill="#000000" font-family="sans-serif" font-size="13" lengthAdjust="spacing" textLength="46.96" x="664" y="733.4845">facturier</text><text fill="#000000" font-family="sans-serif" font-size="13" lengthAdjust="spacing" textLength="7.23" x="703.6716" y="689.1342">1</text><text fill="#000000" font-family="sans-serif" font-size="13" lengthAdjust="spacing" textLength="19.5127" x="690.9209" y="795.9176">0..*</text></g><!--link BillPayment to Transaction--><g id="link_BillPayment_Transaction"><path codeLine="160" d="M763,924.7994 C763,956.4794 763,995.6394 763,1028.5794 " fill="none" id="BillPayment-Transaction" style="stroke:#181818;stroke-width:1;"/><polygon fill="#000000" points="713,972.8652,715.9389,963.8201,710.0611,963.8201,713,972.8652" style="stroke:#000000;stroke-width:1;"/><text fill="#000000" font-family="sans-serif" font-size="13" lengthAdjust="spacing" textLength="40.479" x="722" y="973.1845">g&#233;n&#232;re</text><text fill="#000000" font-family="sans-serif" font-size="13" lengthAdjust="spacing" textLength="7.23" x="761.9141" y="946.478">1</text><text fill="#000000" font-family="sans-serif" font-size="13" lengthAdjust="spacing" textLength="7.23" x="748.517" y="1017.7754">1</text></g><!--link Account to GMN37--><g id="link_Account_GMN37"><path d="M956.67,694.1394 C956.67,715.7994 956.67,732.6094 956.67,732.6094 C956.67,732.6094 1712,732.6094 1712,732.6094 C1712,732.6094 1712,796.9094 1712,836.0894 " fill="none" id="Account-GMN37" style="stroke:#181818;stroke-width:1;stroke-dasharray:7.0,7.0;"/></g><!--link BillPayment to GMN40--><g id="link_BillPayment_GMN40"><path d="M777.5,924.7194 C777.5,960.2394 777.5,998.6094 777.5,998.6094 C777.5,998.6094 1712.25,998.6094 1712.25,998.6094 C1712.25,998.6094 1712.25,1031.3594 1712.25,1058.9994 " fill="none" id="BillPayment-GMN40" style="stroke:#181818;stroke-width:1;stroke-dasharray:7.0,7.0;"/></g><!--link CheckbookOrder to GMN43--><g id="link_CheckbookOrder_GMN43"><path d="M1108.22,960.6094 C1384.98,960.6094 2035.75,960.6094 2035.75,960.6094 C2035.75,960.6094 2035.75,1018.8294 2035.75,1059.0894 " fill="none" id="CheckbookOrder-GMN43" style="stroke:#181818;stroke-width:1;stroke-dasharray:7.0,7.0;"/></g><!--link Notification to GMN46--><g id="link_Notification_GMN46"><path d="M1517.88,923.6094 C1750.14,923.6094 2422,923.6094 2422,923.6094 C2422,923.6094 2422,1017.4094 2422,1066.8694 " fill="none" id="Notification-GMN46" style="stroke:#181818;stroke-width:1;stroke-dasharray:7.0,7.0;"/></g><!--link Client to GMN52--><g id="link_Client_GMN52"><path d="M1336.66,228.6094 C1472.25,228.6094 1727,228.6094 1727,228.6094 C1727,228.6094 1727,481.8394 1727,569.8794 " fill="none" id="Client-GMN52" style="stroke:#181818;stroke-width:1;stroke-dasharray:7.0,7.0;"/></g><!--link User to GMN55--><g id="link_User_GMN55"><path d="M1333.02,666.6094 C1524.76,666.6094 1999,666.6094 1999,666.6094 C1999,666.6094 1999,808.2794 1999,852.5494 " fill="none" id="User-GMN55" style="stroke:#181818;stroke-width:1;stroke-dasharray:7.0,7.0;"/></g><!--SRC=[ZLZBZjis5DtxAuZP96dZUI4hBm9eRCr4Y6CRiXsWgm4jKJOx5AaXgKccHO2k2dHRz0EwQxpF7-XFyYMzf1wMP6aoEv7tylBSro4fTKTvWYMEaThXK7oYV8iYp1GPg4eICAoKexMacrGJBn1yINyZwBocmYWd-Z4XI4Yz4uE1ffeHDA5u2zAOe93aLeX2t__u1uKYnh02nTbUKo87WmG7TtXBq4akEIKyZTK9-ds0aFb4QqMaBy2acK78cNpmPldNZJjRsQ_nE_VwrWp7Beo_b2l7Z1AkbnhhL9Mhnollesi_b-lbmfrDt8aTURDALArtWa2aNA-CS_doyNpjEyMcxiBnRsQvhOK_ltQNIsy-cxdJ3XDz6Awcy_7x0i5uEb_QpshnIcAkSA2fu3KC4tSnpn7uxiftlFpxe-Ux7yfuB1pF3cwlOQ-rtmpAZWHt6o7kvZ8aiW7CXCERtPGUZOr7nN3YJW6pNq9r8DBJQHDjPNYv8qIFZTk5tMjtxO7sylRol3b-SrutC1EQHZJ0BNyXkUFtL_Fv-zkvFt7zsx7lEgiII4ksN3chzV9s_CwPtHJeldHL6DJeeoanqB2rQOkis6-8Q8X6Q2hujXYd8EGOIdc4bj09rNm2Apy96Rx3QjUMHIbZiuur112mzgGqvJsgAhrKvNZ3YC42KMK4ys8-a0Hh4ZeQ91vN6dDTIC0LFHLRobkoBmT7yvxeTJMmubaQRo0UBPG1vKTUKgbqbvi6oRFTJtQ27sdYC9G40BTrfOXW6ae4Cuz7eYrNUK6F6it_my2bITWZUIh72J0UPcvFcfwHZ88TUhE1StbtEYpdZkearGv1WtmAuGOpp0Epy8fk9oIWCMQ5I2I4TyOWO49r2Xw8D9auWAxvLYElNlyA5reyLpeVszXq02MVIP1sfoiaAf0qqJcgAburN5UKiOKK3pHyekC34HuLP1S305cHhP2FHyKBpZoGHacq8U37-CUDw9E8I9Bdgxb1Rt2wYxpE08q3e1U0CDBkohjFiMLGcATLvDM1zKTTPy5HVtQSGoKTalkKg9v-b2A0_kz9FeEeoquP5vgedf9mqf2QLdsY3zi5bVEp2S8gh-4EYTUoaX0P2HdtGDT0Z7q0woVZZvgfVOgMKdihQ-6C8PBcO6oJD-LtHqSKmSyzYUoPMvmp9nSdI0o7wEJyzFIdauhmHi2TIcLVeSlUzgYsodG48OenRoyuw3TYD0AysN-2Qj2sHtjJjyvD8w2JR6_uf5lt28UMcFOfLvK4LgE813hjKUn5MqR8w3s1MObK1kJv-i2Bcl9ykzgYPiZhl0GPmfIW1uhxzOz24uYup563Pfk-DxU906CguILGBYeavPgBjYlRRC-phz9iKXSCXs_pMzoeEX-k7WTLGchYgWz1FZ2y05MjjOYHYCe2XIfUyuA33wMQi5HHaafb74s0Jq1jlCD0LiK4mWcyYRHTbVsBKeuKILbXnoZdMXicxjDiZqGAekmRk0y34t25mXSYoVRI9aeD20yjSHt1h0KApBgVDU7s87wuEBsmhooJF1l6FBo61IRPVcCAbrLeJNBh8UnuDlXGc2a2VAccZ2fOZKq3L4iOpVR6-2hRC-YY7PRRVD_5vBgewtIu-cNX3iq5wpG9etwdckNKvvU94OtXIg-HIgNnHWaMaaDqYpUQYMxZMMPPF0AzQqW-DgLtUMwKtfoZYAGGKA8LUdaunbuPa-1vtZHd29pZXNFs4DFe-vz_DngvtxM6LiknIx3zS6aILFGefh9y3G0UZQFebS5PiDvBU-kapC3B_dg0Ph2OL5cj8rIh8FGpmCxszwbvQVUYgzM0WO4rvFGrsWafGliDauvI8Z2vDdNDNkJL01c531JqQRY_FxLb1onoyE1mNl3LtVfrypPj6j13P_cSuRiTOSpo2pJLImMiii4IqI3xnebwRMwemOwOaDWRDp9TY84eq1cpOvEfmjXP2Bjj19PXFrmJUh3rGMZpzyB09EXN34yN1QaNmHqO9eOU85C78_y3]--></g></svg>