<svg xmlns="http://www.w3.org/2000/svg" xmlns:xlink="http://www.w3.org/1999/xlink" version="1.1" data-diagram-type="CLASS" style="width:1209px;height:1857px;background:#0F0F14;" width="1209px" height="1857px" viewBox="0 0 1209 1857" zoomAndPan="magnify" preserveAspectRatio="none" contentStyleType="text/css"><?plantuml 1.2026.7beta3?><defs/><g><rect x="0" y="0" width="1209" height="1857" fill="#0F0F14" style="stroke:none;stroke-width:1;"/><g class="title" data-source-line="13"><text x="399.7516" y="34.9951" fill="#FFFFFF" font-size="14" lengthAdjust="spacing" textLength="403.1768" font-weight="700" font-family="sans-serif">MCD — Modèle conceptuel de données AmanaBank</text></g><rect x="3" y="64.2969" width="1193.68" height="16.6406" fill="#FFFFCC" style="stroke:#FFDD88;stroke-width:3;" rx="2.5" ry="2.5"/><text x="10" y="74.9375" fill="#000000" font-size="10" lengthAdjust="spacing" textLength="295.0049" font-family="monospace">Please use CSS style instead of skinparam padding</text><!--cluster Personnel & accès--><g class="cluster" data-qualified-name="Personnel . acc.s" id="ent0001" data-source-line="27"><path d="M953.18,107.9275 L1102.182,107.9275 A3.75,3.75 0 0 1 1104.682,110.4275 L1111.682,151.8963 L1192.18,151.8963 A2.5,2.5 0 0 1 1194.68,154.3963 L1194.68,545.1475 A2.5,2.5 0 0 1 1192.18,547.6475 L953.18,547.6475 A2.5,2.5 0 0 1 950.68,545.1475 L950.68,110.4275 A2.5,2.5 0 0 1 953.18,107.9275" style="stroke:#888888;stroke-width:1.5;" fill="#1A1A24"/><line x1="950.68" y1="151.8963" x2="1111.682" y2="151.8963" style="stroke:#888888;stroke-width:1.5;"/><text x="966.68" y="133.0662" fill="#FFFFFF" font-size="12" lengthAdjust="spacing" textLength="124.002" font-weight="700" font-family="sans-serif">Personnel &amp; accès</text></g><!--cluster Clients & comptes--><g class="cluster" data-qualified-name="Clients . comptes" id="ent0003" data-source-line="41"><path d="M11.18,88.9375 L159.0628,88.9375 A3.75,3.75 0 0 1 161.5628,91.4375 L168.5628,132.9063 L470.18,132.9063 A2.5,2.5 0 0 1 472.68,135.4063 L472.68,564.1275 A2.5,2.5 0 0 1 470.18,566.6275 L11.18,566.6275 A2.5,2.5 0 0 1 8.68,564.1275 L8.68,91.4375 A2.5,2.5 0 0 1 11.18,88.9375" style="stroke:#888888;stroke-width:1.5;" fill="#1A1A24"/><line x1="8.68" y1="132.9063" x2="168.5628" y2="132.9063" style="stroke:#888888;stroke-width:1.5;"/><text x="24.68" y="114.0762" fill="#FFFFFF" font-size="12" lengthAdjust="spacing" textLength="122.8828" font-weight="700" font-family="sans-serif">Clients &amp; comptes</text></g><!--cluster Opérations financières--><g class="cluster" data-qualified-name="Op.rations financi.res" id="ent0006" data-source-line="67"><path d="M350.18,940.4375 L529.1644,940.4375 A3.75,3.75 0 0 1 531.6644,942.9375 L538.6644,984.4063 L629.18,984.4063 A2.5,2.5 0 0 1 631.68,986.9063 L631.68,1263.7575 A2.5,2.5 0 0 1 629.18,1266.2575 L350.18,1266.2575 A2.5,2.5 0 0 1 347.68,1263.7575 L347.68,942.9375 A2.5,2.5 0 0 1 350.18,940.4375" style="stroke:#888888;stroke-width:1.5;" fill="#1A1A24"/><line x1="347.68" y1="984.4063" x2="538.6644" y2="984.4063" style="stroke:#888888;stroke-width:1.5;"/><text x="363.68" y="965.5762" fill="#FFFFFF" font-size="12" lengthAdjust="spacing" textLength="153.9844" font-weight="700" font-family="sans-serif">Opérations financières</text></g><!--cluster Extensions métier--><g class="cluster" data-qualified-name="Extensions m.tier" id="ent0008" data-source-line="78"><path d="M350.18,590.6275 L497.4476,590.6275 A3.75,3.75 0 0 1 499.9476,593.1275 L506.9476,634.5963 L1091.18,634.5963 A2.5,2.5 0 0 1 1093.68,637.0963 L1093.68,913.9375 A2.5,2.5 0 0 1 1091.18,916.4375 L350.18,916.4375 A2.5,2.5 0 0 1 347.68,913.9375 L347.68,593.1275 A2.5,2.5 0 0 1 350.18,590.6275" style="stroke:#888888;stroke-width:1.5;" fill="#1A1A24"/><line x1="347.68" y1="634.5963" x2="506.9476" y2="634.5963" style="stroke:#888888;stroke-width:1.5;"/><text x="363.68" y="615.7662" fill="#FFFFFF" font-size="12" lengthAdjust="spacing" textLength="122.2676" font-weight="700" font-family="sans-serif">Extensions métier</text></g><!--cluster Traçabilité & notifications--><g class="cluster" data-qualified-name="Tra.abilit. . notifications" id="ent0012" data-source-line="106"><path d="M556.18,1290.2575 L757.178,1290.2575 A3.75,3.75 0 0 1 759.678,1292.7575 L766.678,1334.2263 L949.18,1334.2263 A2.5,2.5 0 0 1 951.68,1336.7263 L951.68,1575.5975 A2.5,2.5 0 0 1 949.18,1578.0975 L556.18,1578.0975 A2.5,2.5 0 0 1 553.68,1575.5975 L553.68,1292.7575 A2.5,2.5 0 0 1 556.18,1290.2575" style="stroke:#888888;stroke-width:1.5;" fill="#1A1A24"/><line x1="553.68" y1="1334.2263" x2="766.678" y2="1334.2263" style="stroke:#888888;stroke-width:1.5;"/><text x="569.68" y="1315.3962" fill="#FFFFFF" font-size="12" lengthAdjust="spacing" textLength="175.998" font-weight="700" font-family="sans-serif">Traçabilité &amp; notifications</text></g><!--class user--><g class="entity" data-qualified-name="Personnel . acc.s.user" id="ent0002" data-source-line="28"><rect x="966.41" y="163.9275" width="212.5371" height="367.7188" fill="#F1F1F1" style="stroke:#181818;stroke-width:0.5;" rx="2.5" ry="2.5"/><ellipse cx="1017.8104" cy="187.9119" rx="10" ry="10" fill="#ADD1B2" style="stroke:#181818;stroke-width:1;"/><path d="M1020.2479,192.4119 L1014.7948,192.4119 L1014.7948,183.6619 L1020.2479,183.6619 L1020.2479,185.1931 L1016.5291,185.1931 L1016.5291,187.0681 L1019.8885,187.0681 L1019.8885,188.5994 L1016.5291,188.5994 L1016.5291,190.8806 L1020.2479,190.8806 L1020.2479,192.4119 Z " fill="#000000"/><text x="1048.8104" y="192.0662" fill="#000000" font-size="12" lengthAdjust="spacing" textLength="77.7363" font-family="sans-serif">UTILISATEUR</text><line x1="967.41" y1="211.8963" x2="1177.9471" y2="211.8963" style="stroke:#181818;stroke-width:0.5;"/><g data-visibility-modifier="IE_MANDATORY"><ellipse cx="977.41" cy="236.3806" rx="3" ry="3" fill="#000000" style="stroke:#000000;stroke-width:1;"/></g><text x="997.41" y="239.0349" fill="#000000" font-size="12" lengthAdjust="spacing" textLength="70.9453" font-weight="700" font-family="sans-serif">identifiant</text><line x1="967.41" y1="257.865" x2="1177.9471" y2="257.865" style="stroke:#181818;stroke-width:1;"/><text x="984.41" y="285.0037" fill="#000000" font-size="12" lengthAdjust="spacing" textLength="101.9121" font-family="sans-serif">nom d'utilisateur</text><text x="984.41" y="322.9724" fill="#000000" font-size="12" lengthAdjust="spacing" textLength="135.3691" font-family="sans-serif">mot de passe (BCrypt)</text><text x="984.41" y="360.9412" fill="#000000" font-size="12" lengthAdjust="spacing" textLength="79.1191" font-family="sans-serif">nom complet</text><text x="984.41" y="398.9099" fill="#000000" font-size="12" lengthAdjust="spacing" textLength="33.0938" font-family="sans-serif">email</text><text x="984.41" y="436.8787" fill="#000000" font-size="12" lengthAdjust="spacing" textLength="26.4141" font-weight="700" font-family="sans-serif">rôle</text><text x="1014.6385" y="436.8787" fill="#000000" font-size="12" lengthAdjust="spacing" textLength="146.3086" font-family="sans-serif">(ADMIN / AGENT / CHEF)</text><text x="984.41" y="474.8474" fill="#000000" font-size="12" lengthAdjust="spacing" textLength="75.3633" font-family="sans-serif">compte actif</text><text x="984.41" y="512.8162" fill="#000000" font-size="12" lengthAdjust="spacing" textLength="116.3027" font-family="sans-serif">dernière connexion</text></g><!--class client--><g class="entity" data-qualified-name="Clients . comptes.client" id="ent0004" data-source-line="42"><rect x="296.85" y="144.9375" width="159.6563" height="405.6875" fill="#F1F1F1" style="stroke:#181818;stroke-width:0.5;" rx="2.5" ry="2.5"/><ellipse cx="339.432" cy="168.9219" rx="10" ry="10" fill="#ADD1B2" style="stroke:#181818;stroke-width:1;"/><path d="M341.8695,173.4219 L336.4164,173.4219 L336.4164,164.6719 L341.8695,164.6719 L341.8695,166.2031 L338.1508,166.2031 L338.1508,168.0781 L341.5102,168.0781 L341.5102,169.6094 L338.1508,169.6094 L338.1508,171.8906 L341.8695,171.8906 L341.8695,173.4219 Z " fill="#000000"/><text x="370.432" y="173.0762" fill="#000000" font-size="12" lengthAdjust="spacing" textLength="42.4922" font-family="sans-serif">CLIENT</text><line x1="297.85" y1="192.9063" x2="455.5063" y2="192.9063" style="stroke:#181818;stroke-width:0.5;"/><g data-visibility-modifier="IE_MANDATORY"><ellipse cx="307.85" cy="217.3906" rx="3" ry="3" fill="#000000" style="stroke:#000000;stroke-width:1;"/></g><text x="327.85" y="220.0449" fill="#000000" font-size="12" lengthAdjust="spacing" textLength="70.9453" font-weight="700" font-family="sans-serif">identifiant</text><line x1="297.85" y1="238.875" x2="455.5063" y2="238.875" style="stroke:#181818;stroke-width:1;"/><text x="314.85" y="266.0137" fill="#000000" font-size="12" lengthAdjust="spacing" textLength="83.332" font-family="sans-serif">numéro client</text><text x="314.85" y="303.9824" fill="#000000" font-size="12" lengthAdjust="spacing" textLength="23.3145" font-weight="700" font-family="sans-serif">CIN</text><text x="314.85" y="341.9512" fill="#000000" font-size="12" lengthAdjust="spacing" textLength="84.6504" font-family="sans-serif">nom · prénom</text><text x="314.85" y="379.9199" fill="#000000" font-size="12" lengthAdjust="spacing" textLength="104.8945" font-family="sans-serif">email · téléphone</text><text x="314.85" y="417.8887" fill="#000000" font-size="12" lengthAdjust="spacing" textLength="47.1738" font-family="sans-serif">adresse</text><text x="314.85" y="455.8574" fill="#000000" font-size="12" lengthAdjust="spacing" textLength="35.3262" font-family="sans-serif">statut</text><text x="314.85" y="493.8262" fill="#000000" font-size="12" lengthAdjust="spacing" textLength="78.9082" font-family="sans-serif">portail activé</text><text x="314.85" y="531.7949" fill="#000000" font-size="12" lengthAdjust="spacing" textLength="123.6563" font-family="sans-serif">mot de passe portail</text></g><!--class account--><g class="entity" data-qualified-name="Clients . comptes.account" id="ent0005" data-source-line="55"><rect x="24.42" y="182.9075" width="222.5273" height="329.75" fill="#F1F1F1" style="stroke:#181818;stroke-width:0.5;" rx="2.5" ry="2.5"/><ellipse cx="94.5206" cy="206.8919" rx="10" ry="10" fill="#ADD1B2" style="stroke:#181818;stroke-width:1;"/><path d="M96.9581,211.3919 L91.505,211.3919 L91.505,202.6419 L96.9581,202.6419 L96.9581,204.1731 L93.2393,204.1731 L93.2393,206.0481 L96.5987,206.0481 L96.5987,207.5794 L93.2393,207.5794 L93.2393,209.8606 L96.9581,209.8606 L96.9581,211.3919 Z " fill="#000000"/><text x="125.5206" y="211.0462" fill="#000000" font-size="12" lengthAdjust="spacing" textLength="50.3262" font-family="sans-serif">COMPTE</text><line x1="25.42" y1="230.8763" x2="245.9473" y2="230.8763" style="stroke:#181818;stroke-width:0.5;"/><g data-visibility-modifier="IE_MANDATORY"><ellipse cx="35.42" cy="255.3606" rx="3" ry="3" fill="#000000" style="stroke:#000000;stroke-width:1;"/></g><text x="55.42" y="258.0149" fill="#000000" font-size="12" lengthAdjust="spacing" textLength="70.9453" font-weight="700" font-family="sans-serif">identifiant</text><line x1="25.42" y1="276.845" x2="245.9473" y2="276.845" style="stroke:#181818;stroke-width:1;"/><text x="42.42" y="303.9837" fill="#000000" font-size="12" lengthAdjust="spacing" textLength="95.707" font-family="sans-serif">numéro compte</text><text x="42.42" y="341.9524" fill="#000000" font-size="12" lengthAdjust="spacing" textLength="30.2871" font-weight="700" font-family="sans-serif">type</text><text x="76.5216" y="341.9524" fill="#000000" font-size="12" lengthAdjust="spacing" textLength="148.6348" font-family="sans-serif">(courant / épargne / pro)</text><text x="42.42" y="379.9212" fill="#000000" font-size="12" lengthAdjust="spacing" textLength="40.9922" font-weight="700" font-family="sans-serif">statut</text><text x="87.2266" y="379.9212" fill="#000000" font-size="12" lengthAdjust="spacing" textLength="141.7207" font-family="sans-serif">(actif / bloqué / clôturé)</text><text x="42.42" y="417.8899" fill="#000000" font-size="12" lengthAdjust="spacing" textLength="36.2285" font-weight="700" font-family="sans-serif">solde</text><text x="42.42" y="455.8587" fill="#000000" font-size="12" lengthAdjust="spacing" textLength="89.8652" font-family="sans-serif">date ouverture</text><text x="42.42" y="493.8274" fill="#000000" font-size="12" lengthAdjust="spacing" textLength="72.7734" font-family="sans-serif">date clôture</text></g><!--class transaction--><g class="entity" data-qualified-name="Op.rations financi.res.transaction" id="ent0007" data-source-line="68"><rect x="363.37" y="996.4375" width="252.627" height="253.8125" fill="#F1F1F1" style="stroke:#181818;stroke-width:0.5;" rx="2.5" ry="2.5"/><ellipse cx="430.5087" cy="1020.4219" rx="10" ry="10" fill="#ADD1B2" style="stroke:#181818;stroke-width:1;"/><path d="M432.9462,1024.9219 L427.493,1024.9219 L427.493,1016.1719 L432.9462,1016.1719 L432.9462,1017.7031 L429.2274,1017.7031 L429.2274,1019.5781 L432.5868,1019.5781 L432.5868,1021.1094 L429.2274,1021.1094 L429.2274,1023.3906 L432.9462,1023.3906 L432.9462,1024.9219 Z " fill="#000000"/><text x="461.5087" y="1024.5762" fill="#000000" font-size="12" lengthAdjust="spacing" textLength="86.3496" font-family="sans-serif">TRANSACTION</text><line x1="364.37" y1="1044.4063" x2="614.997" y2="1044.4063" style="stroke:#181818;stroke-width:0.5;"/><g data-visibility-modifier="IE_MANDATORY"><ellipse cx="374.37" cy="1068.8906" rx="3" ry="3" fill="#000000" style="stroke:#000000;stroke-width:1;"/></g><text x="394.37" y="1071.5449" fill="#000000" font-size="12" lengthAdjust="spacing" textLength="70.9453" font-weight="700" font-family="sans-serif">identifiant</text><line x1="364.37" y1="1090.375" x2="614.997" y2="1090.375" style="stroke:#181818;stroke-width:1;"/><text x="381.37" y="1117.5137" fill="#000000" font-size="12" lengthAdjust="spacing" textLength="30.2871" font-weight="700" font-family="sans-serif">type</text><text x="415.4716" y="1117.5137" fill="#000000" font-size="12" lengthAdjust="spacing" textLength="182.5254" font-family="sans-serif">(dépôt / retrait / virement / …)</text><text x="381.37" y="1155.4824" fill="#000000" font-size="12" lengthAdjust="spacing" textLength="57.4043" font-weight="700" font-family="sans-serif">montant</text><text x="381.37" y="1193.4512" fill="#000000" font-size="12" lengthAdjust="spacing" textLength="81.6855" font-family="sans-serif">date et heure</text><text x="381.37" y="1231.4199" fill="#000000" font-size="12" lengthAdjust="spacing" textLength="66.7207" font-family="sans-serif">description</text></g><!--class provider--><g class="entity" data-qualified-name="Extensions m.tier.provider" id="ent0009" data-source-line="79"><rect x="907.41" y="646.6275" width="170.5488" height="253.8125" fill="#F1F1F1" style="stroke:#181818;stroke-width:0.5;" rx="2.5" ry="2.5"/><ellipse cx="943.5268" cy="670.6119" rx="10" ry="10" fill="#ADD1B2" style="stroke:#181818;stroke-width:1;"/><path d="M945.9643,675.1119 L940.5112,675.1119 L940.5112,666.3619 L945.9643,666.3619 L945.9643,667.8931 L942.2455,667.8931 L942.2455,669.7681 L945.6049,669.7681 L945.6049,671.2994 L942.2455,671.2994 L942.2455,673.5806 L945.9643,673.5806 L945.9643,675.1119 Z " fill="#000000"/><text x="973.4416" y="674.7662" fill="#000000" font-size="12" lengthAdjust="spacing" textLength="67.4004" font-family="sans-serif">FACTURIER</text><line x1="908.41" y1="694.5963" x2="1076.9588" y2="694.5963" style="stroke:#181818;stroke-width:0.5;"/><g data-visibility-modifier="IE_MANDATORY"><ellipse cx="918.41" cy="719.0806" rx="3" ry="3" fill="#000000" style="stroke:#000000;stroke-width:1;"/></g><text x="938.41" y="721.7349" fill="#000000" font-size="12" lengthAdjust="spacing" textLength="70.9453" font-weight="700" font-family="sans-serif">identifiant</text><line x1="908.41" y1="740.565" x2="1076.9588" y2="740.565" style="stroke:#181818;stroke-width:1;"/><text x="925.41" y="767.7037" fill="#000000" font-size="12" lengthAdjust="spacing" textLength="134.5488" font-family="sans-serif">code (LYDEC, ONEE…)</text><text x="925.41" y="805.6724" fill="#000000" font-size="12" lengthAdjust="spacing" textLength="35.7188" font-family="sans-serif">libellé</text><text x="925.41" y="843.6412" fill="#000000" font-size="12" lengthAdjust="spacing" textLength="56.6484" font-family="sans-serif">catégorie</text><text x="925.41" y="881.6099" fill="#000000" font-size="12" lengthAdjust="spacing" textLength="26.2148" font-family="sans-serif">actif</text></g><!--class bill--><g class="entity" data-qualified-name="Extensions m.tier.bill" id="ent0010" data-source-line="88"><rect x="363.51" y="665.6175" width="176.332" height="215.8438" fill="#F1F1F1" style="stroke:#181818;stroke-width:0.5;" rx="2.5" ry="2.5"/><ellipse cx="377.51" cy="689.6019" rx="10" ry="10" fill="#ADD1B2" style="stroke:#181818;stroke-width:1;"/><path d="M379.9475,694.1019 L374.4944,694.1019 L374.4944,685.3519 L379.9475,685.3519 L379.9475,686.8831 L376.2288,686.8831 L376.2288,688.7581 L379.5881,688.7581 L379.5881,690.2894 L376.2288,690.2894 L376.2288,692.5706 L379.9475,692.5706 L379.9475,694.1019 Z " fill="#000000"/><text x="402.51" y="693.7562" fill="#000000" font-size="12" lengthAdjust="spacing" textLength="122.332" font-family="sans-serif">PAIEMENT_FACTURE</text><line x1="364.51" y1="713.5863" x2="538.842" y2="713.5863" style="stroke:#181818;stroke-width:0.5;"/><g data-visibility-modifier="IE_MANDATORY"><ellipse cx="374.51" cy="738.0706" rx="3" ry="3" fill="#000000" style="stroke:#000000;stroke-width:1;"/></g><text x="394.51" y="740.7249" fill="#000000" font-size="12" lengthAdjust="spacing" textLength="70.9453" font-weight="700" font-family="sans-serif">identifiant</text><line x1="364.51" y1="759.555" x2="538.842" y2="759.555" style="stroke:#181818;stroke-width:1;"/><text x="381.51" y="786.6937" fill="#000000" font-size="12" lengthAdjust="spacing" textLength="94.5996" font-family="sans-serif">référence client</text><text x="381.51" y="824.6624" fill="#000000" font-size="12" lengthAdjust="spacing" textLength="51.0059" font-family="sans-serif">montant</text><text x="381.51" y="862.6312" fill="#000000" font-size="12" lengthAdjust="spacing" textLength="80.127" font-family="sans-serif">date création</text></g><!--class chq--><g class="entity" data-qualified-name="Extensions m.tier.chq" id="ent0011" data-source-line="96"><rect x="589.93" y="646.6275" width="267.5039" height="253.8125" fill="#F1F1F1" style="stroke:#181818;stroke-width:0.5;" rx="2.5" ry="2.5"/><ellipse cx="637.0765" cy="670.6119" rx="10" ry="10" fill="#ADD1B2" style="stroke:#181818;stroke-width:1;"/><path d="M639.514,675.1119 L634.0609,675.1119 L634.0609,666.3619 L639.514,666.3619 L639.514,667.8931 L635.7952,667.8931 L635.7952,669.7681 L639.1546,669.7681 L639.1546,671.2994 L635.7952,671.2994 L635.7952,673.5806 L639.514,673.5806 L639.514,675.1119 Z " fill="#000000"/><text x="668.0765" y="674.7662" fill="#000000" font-size="12" lengthAdjust="spacing" textLength="141.2109" font-family="sans-serif">COMMANDE_CHEQUIER</text><line x1="590.93" y1="694.5963" x2="856.4339" y2="694.5963" style="stroke:#181818;stroke-width:0.5;"/><g data-visibility-modifier="IE_MANDATORY"><ellipse cx="600.93" cy="719.0806" rx="3" ry="3" fill="#000000" style="stroke:#000000;stroke-width:1;"/></g><text x="620.93" y="721.7349" fill="#000000" font-size="12" lengthAdjust="spacing" textLength="70.9453" font-weight="700" font-family="sans-serif">identifiant</text><line x1="590.93" y1="740.565" x2="856.4339" y2="740.565" style="stroke:#181818;stroke-width:1;"/><text x="607.93" y="767.7037" fill="#000000" font-size="12" lengthAdjust="spacing" textLength="117.6504" font-family="sans-serif">numéro commande</text><text x="607.93" y="805.6724" fill="#000000" font-size="12" lengthAdjust="spacing" textLength="153.3691" font-family="sans-serif">quantité · format feuillets</text><text x="607.93" y="843.6412" fill="#000000" font-size="12" lengthAdjust="spacing" textLength="40.9922" font-weight="700" font-family="sans-serif">statut</text><text x="652.7366" y="843.6412" fill="#000000" font-size="12" lengthAdjust="spacing" textLength="149.8945" font-family="sans-serif">(PENDING → DELIVERED)</text><text x="607.93" y="881.6099" fill="#000000" font-size="12" lengthAdjust="spacing" textLength="231.5039" font-family="sans-serif">dates demande / traitement / livraison</text></g><!--class notif--><g class="entity" data-qualified-name="Tra.abilit. . notifications.notif" id="ent0013" data-source-line="107"><rect x="569.34" y="1346.2575" width="164.6836" height="215.8438" fill="#F1F1F1" style="stroke:#181818;stroke-width:0.5;" rx="2.5" ry="2.5"/><ellipse cx="594.6225" cy="1370.2419" rx="10" ry="10" fill="#ADD1B2" style="stroke:#181818;stroke-width:1;"/><path d="M597.06,1374.7419 L591.6069,1374.7419 L591.6069,1365.9919 L597.06,1365.9919 L597.06,1367.5231 L593.3413,1367.5231 L593.3413,1369.3981 L596.7006,1369.3981 L596.7006,1370.9294 L593.3413,1370.9294 L593.3413,1373.2106 L597.06,1373.2106 L597.06,1374.7419 Z " fill="#000000"/><text x="622.1297" y="1374.3962" fill="#000000" font-size="12" lengthAdjust="spacing" textLength="85.6113" font-family="sans-serif">NOTIFICATION</text><line x1="570.34" y1="1394.2263" x2="733.0236" y2="1394.2263" style="stroke:#181818;stroke-width:0.5;"/><g data-visibility-modifier="IE_MANDATORY"><ellipse cx="580.34" cy="1418.7106" rx="3" ry="3" fill="#000000" style="stroke:#000000;stroke-width:1;"/></g><text x="600.34" y="1421.3649" fill="#000000" font-size="12" lengthAdjust="spacing" textLength="70.9453" font-weight="700" font-family="sans-serif">identifiant</text><line x1="570.34" y1="1440.195" x2="733.0236" y2="1440.195" style="stroke:#181818;stroke-width:1;"/><text x="587.34" y="1467.3337" fill="#000000" font-size="12" lengthAdjust="spacing" textLength="128.6836" font-family="sans-serif">type · titre · message</text><text x="587.34" y="1505.3024" fill="#000000" font-size="12" lengthAdjust="spacing" textLength="51.4219" font-family="sans-serif">lien · lue</text><text x="587.34" y="1543.2712" fill="#000000" font-size="12" lengthAdjust="spacing" textLength="80.127" font-family="sans-serif">date création</text></g><!--class audit--><g class="entity" data-qualified-name="Tra.abilit. . notifications.audit" id="ent0014" data-source-line="115"><rect x="784.14" y="1346.2575" width="151.0781" height="215.8438" fill="#F1F1F1" style="stroke:#181818;stroke-width:0.5;" rx="2.5" ry="2.5"/><ellipse cx="798.14" cy="1370.2419" rx="10" ry="10" fill="#ADD1B2" style="stroke:#181818;stroke-width:1;"/><path d="M800.5775,1374.7419 L795.1244,1374.7419 L795.1244,1365.9919 L800.5775,1365.9919 L800.5775,1367.5231 L796.8588,1367.5231 L796.8588,1369.3981 L800.2181,1369.3981 L800.2181,1370.9294 L796.8588,1370.9294 L796.8588,1373.2106 L800.5775,1373.2106 L800.5775,1374.7419 Z " fill="#000000"/><text x="823.14" y="1374.3962" fill="#000000" font-size="12" lengthAdjust="spacing" textLength="97.0781" font-family="sans-serif">JOURNAL_AUDIT</text><line x1="785.14" y1="1394.2263" x2="934.2181" y2="1394.2263" style="stroke:#181818;stroke-width:0.5;"/><g data-visibility-modifier="IE_MANDATORY"><ellipse cx="795.14" cy="1418.7106" rx="3" ry="3" fill="#000000" style="stroke:#000000;stroke-width:1;"/></g><text x="815.14" y="1421.3649" fill="#000000" font-size="12" lengthAdjust="spacing" textLength="70.9453" font-weight="700" font-family="sans-serif">identifiant</text><line x1="785.14" y1="1440.195" x2="934.2181" y2="1440.195" style="stroke:#181818;stroke-width:1;"/><text x="802.14" y="1467.3337" fill="#000000" font-size="12" lengthAdjust="spacing" textLength="114.1172" font-family="sans-serif">action · type entité</text><text x="802.14" y="1505.3024" fill="#000000" font-size="12" lengthAdjust="spacing" textLength="101.3027" font-family="sans-serif">id entité · détails</text><text x="802.14" y="1543.2712" fill="#000000" font-size="12" lengthAdjust="spacing" textLength="81.6855" font-family="sans-serif">date et heure</text></g><!--link client to account--><g class="link" data-entity-1="ent0004" data-entity-2="ent0005" id="lnk15" data-source-line="125" data-link-type="crowfoot"><path d="M288.43,293.0975 C272.68,293.0975 281.9,293.0975 265.34,293.0975" style="stroke:#BBBBBB;stroke-width:1;" fill="none" id="client-account" codeLine="125"/><line x1="292.43" y1="289.0975" x2="292.43" y2="297.0975" style="stroke:#BBBBBB;stroke-width:1;"/><line x1="289.43" y1="289.0975" x2="289.43" y2="297.0975" style="stroke:#BBBBBB;stroke-width:1;"/><line x1="288.43" y1="293.0975" x2="296.43" y2="293.0975" style="stroke:#BBBBBB;stroke-width:1;"/><line x1="255.34" y1="293.0975" x2="247.34" y2="299.0975" style="stroke:#BBBBBB;stroke-width:1;"/><line x1="255.34" y1="293.0975" x2="247.34" y2="287.0975" style="stroke:#BBBBBB;stroke-width:1;"/><line x1="255.34" y1="293.0975" x2="247.34" y2="293.0975" style="stroke:#BBBBBB;stroke-width:1;"/><ellipse cx="261.34" cy="293.0975" rx="4" ry="4" fill="none" style="stroke:#BBBBBB;stroke-width:1;"/><text x="257.0443" y="315.3797" fill="#000000" font-size="10" lengthAdjust="spacing" textLength="30.2295" font-family="sans-serif">R1-R2</text><text x="251.39" y="327.0204" fill="#000000" font-size="10" lengthAdjust="spacing" textLength="41.5381" font-family="sans-serif">possède</text></g><!--link client to account--><!--link user to transaction--><g class="link" data-entity-1="ent0002" data-entity-2="ent0007" id="lnk16" data-source-line="126" data-link-type="crowfoot"><path d="M957.92,311.0975 C808.98,311.0975 564.89,311.0975 564.89,311.0975 C564.89,311.0975 564.89,749.3975 564.89,977.9875" style="stroke:#BBBBBB;stroke-width:1;" fill="none" id="user-transaction" codeLine="126"/><line x1="961.92" y1="307.0975" x2="961.92" y2="315.0975" style="stroke:#BBBBBB;stroke-width:1;"/><line x1="958.92" y1="307.0975" x2="958.92" y2="315.0975" style="stroke:#BBBBBB;stroke-width:1;"/><line x1="957.92" y1="311.0975" x2="965.92" y2="311.0975" style="stroke:#BBBBBB;stroke-width:1;"/><line x1="564.89" y1="987.9875" x2="570.89" y2="995.9875" style="stroke:#BBBBBB;stroke-width:1;"/><line x1="564.89" y1="987.9875" x2="558.89" y2="995.9875" style="stroke:#BBBBBB;stroke-width:1;"/><line x1="564.89" y1="987.9875" x2="564.89" y2="995.9875" style="stroke:#BBBBBB;stroke-width:1;"/><ellipse cx="564.89" cy="981.9875" rx="4" ry="4" fill="none" style="stroke:#BBBBBB;stroke-width:1;"/><text x="511.89" y="438.3097" fill="#000000" font-size="10" lengthAdjust="spacing" textLength="40.1318" font-family="sans-serif">exécute</text></g><!--link account to transaction--><g class="link" data-entity-1="ent0005" data-entity-2="ent0007" id="lnk17" data-source-line="127" data-link-type="crowfoot"><path d="M119.79,520.9975 C119.79,731.4175 119.79,1060.0975 119.79,1060.0975 C119.79,1060.0975 237.82,1060.0975 344.9,1060.0975" style="stroke:#BBBBBB;stroke-width:1;" fill="none" id="account-transaction" codeLine="127"/><line x1="115.79" y1="516.9975" x2="123.79" y2="516.9975" style="stroke:#BBBBBB;stroke-width:1;"/><line x1="115.79" y1="519.9975" x2="123.79" y2="519.9975" style="stroke:#BBBBBB;stroke-width:1;"/><line x1="119.79" y1="520.9975" x2="119.79" y2="512.9975" style="stroke:#BBBBBB;stroke-width:1;"/><line x1="354.9" y1="1060.0975" x2="362.9" y2="1054.0975" style="stroke:#BBBBBB;stroke-width:1;"/><line x1="354.9" y1="1060.0975" x2="362.9" y2="1066.0975" style="stroke:#BBBBBB;stroke-width:1;"/><line x1="354.9" y1="1060.0975" x2="362.9" y2="1060.0975" style="stroke:#BBBBBB;stroke-width:1;"/><ellipse cx="348.9" cy="1060.0975" rx="4" ry="4" fill="none" style="stroke:#BBBBBB;stroke-width:1;"/><text x="73.79" y="893.3897" fill="#000000" font-size="10" lengthAdjust="spacing" textLength="33.4277" font-family="sans-serif">source</text></g><!--link account to transaction--><g class="link" data-entity-1="ent0005" data-entity-2="ent0007" id="lnk18" data-source-line="128" data-link-type="crowfoot"><path d="M88,520.8975 C88,748.8375 88,1124.0975 88,1124.0975 C88,1124.0975 227.39,1124.0975 345.14,1124.0975" style="stroke:#BBBBBB;stroke-width:1;" fill="none" id="account-transaction-1" codeLine="128"/><line x1="84" y1="516.8975" x2="92" y2="516.8975" style="stroke:#BBBBBB;stroke-width:1;"/><line x1="84" y1="519.8975" x2="92" y2="519.8975" style="stroke:#BBBBBB;stroke-width:1;"/><line x1="88" y1="520.8975" x2="88" y2="512.8975" style="stroke:#BBBBBB;stroke-width:1;"/><line x1="355.14" y1="1124.0975" x2="363.14" y2="1118.0975" style="stroke:#BBBBBB;stroke-width:1;"/><line x1="355.14" y1="1124.0975" x2="363.14" y2="1130.0975" style="stroke:#BBBBBB;stroke-width:1;"/><line x1="355.14" y1="1124.0975" x2="363.14" y2="1124.0975" style="stroke:#BBBBBB;stroke-width:1;"/><ellipse cx="349.14" cy="1124.0975" rx="4" ry="4" fill="none" style="stroke:#BBBBBB;stroke-width:1;"/><text x="19" y="941.3497" fill="#000000" font-size="10" lengthAdjust="spacing" textLength="56.0303" font-family="sans-serif">destination</text></g><!--link account to transaction--><!--link account to bill--><g class="link" data-entity-1="ent0005" data-entity-2="ent0010" id="lnk19" data-source-line="131" data-link-type="crowfoot"><path d="M151.57,520.9175 C151.57,640.8175 151.57,774.0975 151.57,774.0975 C151.57,774.0975 256.74,774.0975 345.26,774.0975" style="stroke:#BBBBBB;stroke-width:1;" fill="none" id="account-bill" codeLine="131"/><line x1="147.57" y1="516.9175" x2="155.57" y2="516.9175" style="stroke:#BBBBBB;stroke-width:1;"/><line x1="147.57" y1="519.9175" x2="155.57" y2="519.9175" style="stroke:#BBBBBB;stroke-width:1;"/><line x1="151.57" y1="520.9175" x2="151.57" y2="512.9175" style="stroke:#BBBBBB;stroke-width:1;"/><line x1="355.26" y1="774.0975" x2="363.26" y2="768.0975" style="stroke:#BBBBBB;stroke-width:1;"/><line x1="355.26" y1="774.0975" x2="363.26" y2="780.0975" style="stroke:#BBBBBB;stroke-width:1;"/><line x1="355.26" y1="774.0975" x2="363.26" y2="774.0975" style="stroke:#BBBBBB;stroke-width:1;"/><ellipse cx="349.26" cy="774.0975" rx="4" ry="4" fill="none" style="stroke:#BBBBBB;stroke-width:1;"/><text x="89.57" y="734.6297" fill="#000000" font-size="10" lengthAdjust="spacing" textLength="49.7021" font-family="sans-serif">débite via</text></g><!--link provider to bill--><g class="link" data-entity-1="ent0009" data-entity-2="ent0010" id="lnk20" data-source-line="132" data-link-type="crowfoot"><path d="M946.74,638.2475 C946.74,603.4375 946.74,583.0975 946.74,583.0975 C946.74,583.0975 484.29,583.0975 484.29,583.0975 C484.29,583.0975 484.29,604.3675 484.29,647.2375" style="stroke:#BBBBBB;stroke-width:1;" fill="none" id="provider-bill" codeLine="132"/><line x1="950.74" y1="642.2475" x2="942.74" y2="642.2475" style="stroke:#BBBBBB;stroke-width:1;"/><line x1="950.74" y1="639.2475" x2="942.74" y2="639.2475" style="stroke:#BBBBBB;stroke-width:1;"/><line x1="946.74" y1="638.2475" x2="946.74" y2="646.2475" style="stroke:#BBBBBB;stroke-width:1;"/><line x1="484.29" y1="657.2375" x2="490.29" y2="665.2375" style="stroke:#BBBBBB;stroke-width:1;"/><line x1="484.29" y1="657.2375" x2="478.29" y2="665.2375" style="stroke:#BBBBBB;stroke-width:1;"/><line x1="484.29" y1="657.2375" x2="484.29" y2="665.2375" style="stroke:#BBBBBB;stroke-width:1;"/><ellipse cx="484.29" cy="651.2375" rx="4" ry="4" fill="none" style="stroke:#BBBBBB;stroke-width:1;"/><text x="647.02" y="568.3797" fill="#000000" font-size="10" lengthAdjust="spacing" textLength="46.2061" font-family="sans-serif">concerne</text></g><!--link provider to bill--><!--link bill to transaction--><g class="link" data-entity-1="ent0010" data-entity-2="ent0007" id="lnk21" data-source-line="133" data-link-type="association"><path d="M451.68,889.8175 C451.68,925.9375 451.68,950.5175 451.68,987.9475" style="stroke:#BBBBBB;stroke-width:1;" fill="none" id="bill-transaction" codeLine="133"/><line x1="447.68" y1="885.8175" x2="455.68" y2="885.8175" style="stroke:#BBBBBB;stroke-width:1;"/><line x1="447.68" y1="888.8175" x2="455.68" y2="888.8175" style="stroke:#BBBBBB;stroke-width:1;"/><line x1="451.68" y1="889.8175" x2="451.68" y2="881.8175" style="stroke:#BBBBBB;stroke-width:1;"/><line x1="455.68" y1="991.9475" x2="447.68" y2="991.9475" style="stroke:#BBBBBB;stroke-width:1;"/><line x1="455.68" y1="988.9475" x2="447.68" y2="988.9475" style="stroke:#BBBBBB;stroke-width:1;"/><line x1="451.68" y1="987.9475" x2="451.68" y2="995.9475" style="stroke:#BBBBBB;stroke-width:1;"/><text x="403.68" y="924.1697" fill="#000000" font-size="10" lengthAdjust="spacing" textLength="35.2539" font-family="sans-serif">génère</text></g><!--link client to chq--><g class="link" data-entity-1="ent0004" data-entity-2="ent0011" id="lnk22" data-source-line="134" data-link-type="crowfoot"><path d="M425.51,558.7675 C425.51,614.5875 425.51,652.0975 425.51,652.0975 C425.51,652.0975 492.59,652.0975 571.86,652.0975" style="stroke:#BBBBBB;stroke-width:1;" fill="none" id="client-chq" codeLine="134"/><line x1="421.51" y1="554.7675" x2="429.51" y2="554.7675" style="stroke:#BBBBBB;stroke-width:1;"/><line x1="421.51" y1="557.7675" x2="429.51" y2="557.7675" style="stroke:#BBBBBB;stroke-width:1;"/><line x1="425.51" y1="558.7675" x2="425.51" y2="550.7675" style="stroke:#BBBBBB;stroke-width:1;"/><line x1="581.86" y1="652.0975" x2="589.86" y2="646.0975" style="stroke:#BBBBBB;stroke-width:1;"/><line x1="581.86" y1="652.0975" x2="589.86" y2="658.0975" style="stroke:#BBBBBB;stroke-width:1;"/><line x1="581.86" y1="652.0975" x2="589.86" y2="652.0975" style="stroke:#BBBBBB;stroke-width:1;"/><ellipse cx="575.86" cy="652.0975" rx="4" ry="4" fill="none" style="stroke:#BBBBBB;stroke-width:1;"/><text x="397.02" y="637.3797" fill="#000000" font-size="10" lengthAdjust="spacing" textLength="47.207" font-family="sans-serif">demande</text></g><!--link account to chq--><g class="link" data-entity-1="ent0005" data-entity-2="ent0011" id="lnk23" data-source-line="135" data-link-type="crowfoot"><path d="M215.15,520.8575 C215.15,594.5575 215.15,657.0975 215.15,657.0975 C215.15,657.0975 421.07,657.0975 571.74,657.0975" style="stroke:#BBBBBB;stroke-width:1;" fill="none" id="account-chq" codeLine="135"/><line x1="211.15" y1="516.8575" x2="219.15" y2="516.8575" style="stroke:#BBBBBB;stroke-width:1;"/><line x1="211.15" y1="519.8575" x2="219.15" y2="519.8575" style="stroke:#BBBBBB;stroke-width:1;"/><line x1="215.15" y1="520.8575" x2="215.15" y2="512.8575" style="stroke:#BBBBBB;stroke-width:1;"/><line x1="581.74" y1="657.0975" x2="589.74" y2="651.0975" style="stroke:#BBBBBB;stroke-width:1;"/><line x1="581.74" y1="657.0975" x2="589.74" y2="663.0975" style="stroke:#BBBBBB;stroke-width:1;"/><line x1="581.74" y1="657.0975" x2="589.74" y2="657.0975" style="stroke:#BBBBBB;stroke-width:1;"/><ellipse cx="575.74" cy="657.0975" rx="4" ry="4" fill="none" style="stroke:#BBBBBB;stroke-width:1;"/><text x="261.33" y="642.3797" fill="#000000" font-size="10" lengthAdjust="spacing" textLength="56.0645" font-family="sans-serif">commande</text></g><!--link account to chq--><!--link user to chq--><g class="link" data-entity-1="ent0002" data-entity-2="ent0011" id="lnk24" data-source-line="136" data-link-type="crowfoot"><path d="M958.07,385.0975 C855.44,385.0975 723.68,385.0975 723.68,385.0975 C723.68,385.0975 723.68,515.0575 723.68,628.3475" style="stroke:#BBBBBB;stroke-width:1;" fill="none" id="user-chq" codeLine="136"/><line x1="962.07" y1="381.0975" x2="962.07" y2="389.0975" style="stroke:#BBBBBB;stroke-width:1;"/><line x1="959.07" y1="381.0975" x2="959.07" y2="389.0975" style="stroke:#BBBBBB;stroke-width:1;"/><line x1="958.07" y1="385.0975" x2="966.07" y2="385.0975" style="stroke:#BBBBBB;stroke-width:1;"/><line x1="723.68" y1="638.3475" x2="729.68" y2="646.3475" style="stroke:#BBBBBB;stroke-width:1;"/><line x1="723.68" y1="638.3475" x2="717.68" y2="646.3475" style="stroke:#BBBBBB;stroke-width:1;"/><line x1="723.68" y1="638.3475" x2="723.68" y2="646.3475" style="stroke:#BBBBBB;stroke-width:1;"/><ellipse cx="723.68" cy="632.3475" rx="4" ry="4" fill="none" style="stroke:#BBBBBB;stroke-width:1;"/><text x="683.68" y="379.8097" fill="#000000" font-size="10" lengthAdjust="spacing" textLength="27.0117" font-family="sans-serif">traite</text></g><!--link client to notif--><g class="link" data-entity-1="ent0004" data-entity-2="ent0013" id="lnk25" data-source-line="139" data-link-type="crowfoot"><path d="M330.11,558.8875 C330.11,878.5575 330.11,1455.0975 330.11,1455.0975 C330.11,1455.0975 455.59,1455.0975 550.87,1455.0975" style="stroke:#BBBBBB;stroke-width:1;" fill="none" id="client-notif" codeLine="139"/><line x1="326.11" y1="554.8875" x2="334.11" y2="554.8875" style="stroke:#BBBBBB;stroke-width:1;"/><line x1="326.11" y1="557.8875" x2="334.11" y2="557.8875" style="stroke:#BBBBBB;stroke-width:1;"/><line x1="330.11" y1="558.8875" x2="330.11" y2="550.8875" style="stroke:#BBBBBB;stroke-width:1;"/><line x1="560.87" y1="1455.0975" x2="568.87" y2="1449.0975" style="stroke:#BBBBBB;stroke-width:1;"/><line x1="560.87" y1="1455.0975" x2="568.87" y2="1461.0975" style="stroke:#BBBBBB;stroke-width:1;"/><line x1="560.87" y1="1455.0975" x2="568.87" y2="1455.0975" style="stroke:#BBBBBB;stroke-width:1;"/><ellipse cx="554.87" cy="1455.0975" rx="4" ry="4" fill="none" style="stroke:#BBBBBB;stroke-width:1;"/><text x="289.11" y="1107.6497" fill="#000000" font-size="10" lengthAdjust="spacing" textLength="28.5791" font-family="sans-serif">reçoit</text></g><!--link user to notif--><g class="link" data-entity-1="ent0002" data-entity-2="ent0013" id="lnk26" data-source-line="140" data-link-type="crowfoot"><path d="M1128.45,539.8775 C1128.45,716.6675 1128.45,949.0975 1128.45,949.0975 C1128.45,949.0975 675.01,949.0975 675.01,949.0975 C675.01,949.0975 675.01,1179.4175 675.01,1327.8275" style="stroke:#BBBBBB;stroke-width:1;" fill="none" id="user-notif" codeLine="140"/><line x1="1124.45" y1="535.8775" x2="1132.45" y2="535.8775" style="stroke:#BBBBBB;stroke-width:1;"/><line x1="1124.45" y1="538.8775" x2="1132.45" y2="538.8775" style="stroke:#BBBBBB;stroke-width:1;"/><line x1="1128.45" y1="539.8775" x2="1128.45" y2="531.8775" style="stroke:#BBBBBB;stroke-width:1;"/><line x1="675.01" y1="1337.8275" x2="681.01" y2="1345.8275" style="stroke:#BBBBBB;stroke-width:1;"/><line x1="675.01" y1="1337.8275" x2="669.01" y2="1345.8275" style="stroke:#BBBBBB;stroke-width:1;"/><line x1="675.01" y1="1337.8275" x2="675.01" y2="1345.8275" style="stroke:#BBBBBB;stroke-width:1;"/><ellipse cx="675.01" cy="1331.8275" rx="4" ry="4" fill="none" style="stroke:#BBBBBB;stroke-width:1;"/><text x="870.98" y="934.3797" fill="#000000" font-size="10" lengthAdjust="spacing" textLength="28.5791" font-family="sans-serif">reçoit</text></g><!--link user to audit--><g class="link" data-entity-1="ent0002" data-entity-2="ent0014" id="lnk27" data-source-line="141" data-link-type="crowfoot"><path d="M958.15,459.0975 C914.67,459.0975 882.42,459.0975 882.42,459.0975 C882.42,459.0975 882.42,1069.8875 882.42,1327.7875" style="stroke:#BBBBBB;stroke-width:1;" fill="none" id="user-audit" codeLine="141"/><line x1="962.15" y1="455.0975" x2="962.15" y2="463.0975" style="stroke:#BBBBBB;stroke-width:1;"/><line x1="959.15" y1="455.0975" x2="959.15" y2="463.0975" style="stroke:#BBBBBB;stroke-width:1;"/><line x1="958.15" y1="459.0975" x2="966.15" y2="459.0975" style="stroke:#BBBBBB;stroke-width:1;"/><line x1="882.42" y1="1337.7875" x2="888.42" y2="1345.7875" style="stroke:#BBBBBB;stroke-width:1;"/><line x1="882.42" y1="1337.7875" x2="876.42" y2="1345.7875" style="stroke:#BBBBBB;stroke-width:1;"/><line x1="882.42" y1="1337.7875" x2="882.42" y2="1345.7875" style="stroke:#BBBBBB;stroke-width:1;"/><ellipse cx="882.42" cy="1331.7875" rx="4" ry="4" fill="none" style="stroke:#BBBBBB;stroke-width:1;"/><text x="861.92" y="882.8597" fill="#000000" font-size="10" lengthAdjust="spacing" textLength="41.2549" font-family="sans-serif">effectue</text></g><!--link user to client--><!--link bill to chq--><!--link notif to audit--><!--link user to provider--><!--link client to bill--><!--link transaction to notif--><g class="legend" data-source-line="158"><rect x="697.9564" y="1599.0975" width="492.7236" height="239.4844" fill="none" style="stroke:#000000;stroke-width:1;" rx="7.5" ry="7.5"/><text x="731.8304" y="1643.0926" fill="#000000" font-size="14" lengthAdjust="spacing" textLength="44.5908" font-weight="700" font-family="sans-serif">Règle</text><text x="857.8021" y="1643.0926" fill="#000000" font-size="14" lengthAdjust="spacing" textLength="99.3809" font-weight="700" font-family="sans-serif">Signification</text><text x="731.4066" y="1683.3895" fill="#000000" font-size="14" lengthAdjust="spacing" textLength="42.3213" font-family="sans-serif">R1-R2</text><text x="857.3782" y="1683.3895" fill="#000000" font-size="14" lengthAdjust="spacing" textLength="299.8516" font-family="sans-serif">1 client → N comptes ; 1 compte → 1 client</text><text x="731.4066" y="1723.6864" fill="#000000" font-size="14" lengthAdjust="spacing" textLength="42.3213" font-family="sans-serif">R3-R4</text><text x="857.3782" y="1723.6864" fill="#000000" font-size="14" lengthAdjust="spacing" textLength="219.3037" font-family="sans-serif">Solde suffisant · comptes actifs</text><text x="731.4066" y="1763.9832" fill="#000000" font-size="14" lengthAdjust="spacing" textLength="60.1357" font-family="sans-serif">R12-R14</text><text x="857.3782" y="1763.9832" fill="#000000" font-size="14" lengthAdjust="spacing" textLength="270.4297" font-family="sans-serif">Chéquier : workflow sans impact solde</text><text x="726.9564" y="1804.2801" fill="#000000" font-size="14" lengthAdjust="spacing" textLength="4.4502" font-family="sans-serif"> </text><text x="731.4066" y="1804.2801" fill="#AAAAAA" font-size="14" lengthAdjust="spacing" textLength="93.0713" font-family="sans-serif">User ≠ Client</text><text x="824.4779" y="1804.2801" fill="#000000" font-size="14" lengthAdjust="spacing" textLength="4.4502" font-family="sans-serif"> </text><text x="857.3782" y="1804.2801" fill="#000000" font-size="14" lengthAdjust="spacing" textLength="249.04" font-family="sans-serif">Personnel agence ≠ client bancaire</text><line x1="714.9564" y1="1618.0975" x2="1173.68" y2="1618.0975" style="stroke:#000000;stroke-width:1;"/><line x1="714.9564" y1="1658.3944" x2="1173.68" y2="1658.3944" style="stroke:#000000;stroke-width:1;"/><line x1="714.9564" y1="1698.6913" x2="1173.68" y2="1698.6913" style="stroke:#000000;stroke-width:1;"/><line x1="714.9564" y1="1738.9881" x2="1173.68" y2="1738.9881" style="stroke:#000000;stroke-width:1;"/><line x1="714.9564" y1="1779.285" x2="1173.68" y2="1779.285" style="stroke:#000000;stroke-width:1;"/><line x1="714.9564" y1="1819.5819" x2="1173.68" y2="1819.5819" style="stroke:#000000;stroke-width:1;"/><line x1="714.9564" y1="1618.0975" x2="714.9564" y2="1819.5819" style="stroke:#000000;stroke-width:1;"/><line x1="840.928" y1="1618.0975" x2="840.928" y2="1819.5819" style="stroke:#000000;stroke-width:1;"/><line x1="1173.68" y1="1618.0975" x2="1173.68" y2="1819.5819" style="stroke:#000000;stroke-width:1;"/></g><?plantuml-src bLVTRjis5BxNKn0kq3R6ZCPfDXHT5q2HvKv3ucIEFM3OXe2MQ9i8JIeabPyr1NerOBT37s1NQtnVOFVJc-H9TaXHilpJpLK2IEBvuVdE-SuHhKMAj40ZeRMOeOHA4cigkATYp0YQuHlqV7Tt5rtJH4yzTK5vYYMU8JN5YRYcV8B6c2bIaunmV36H8kD989YGwD5kTxVRtgzfCCg9laq94b9FHKt0HK8KIT6NkxL5YVc5MVoglfYGCSwOxWgkp-Yl1BNtQa9VId6z4DNjKfma9kWbVMpqNR27zl8yJJN0VnMRrPUFklOwE0uwwE7TUtGialmUnB7WCKbrHXW4X1B1UJud2lappF4XXFtgcRK_y6gR4GwkRz4R3w73rKnrNWH1-C98X4o8TAlxllc3LGF9hRNjvRtrbh355tX2DhjkX-rmRytr2tijkowm6jUbmyOfaGh00Sp72CTnVgyQuD5l-tlxTZU7gJ4SH4VHcJy8X_q6mWfbYaYhW50JDPiqCOfZYhbkDkrggsLlt33lIQOfemfhaacxEXFQf3N5IX7qz32GjwdUgVHZCKiPqVQTp31bnJPDcNzafDb4J_tESTH3pv3_EkmDu1vy6tOBSsEg2I21OEm298JJ_5xQYd9oO_YFqDkb70ICGlGACb2OVo85mL44srdqiRNO2dyso-TIE0i798XwJil0_UTlbCfy3eyBn6PHvtEMpzEfuCGAS289vCi-AurrLhXBeTMCXS5ybS_Ny-iKBEmwd9FZqq5euK3XWK-VXyTcok4n7M_g0bwWfJLK1EB6Si89FAPIx3Yz8cgZQGi4mX4Jbra-XwUOvHzr1dceb0LBYDiy0UeWaLqH2IfaiUICo5f9JrA84fjffz2OSinZIu9FL7RGztjdVZ28Jdes7nfGA6o7vJOvMIGW0TmG4S2H19nGytG5StT6R5OUtlrLefj1LouSMJ14eocfu14LIvhgJNmDRpJXocA3OcXAv6PONO0qx4TXqR5GXok0i5NNnZ2jqTEZ7pjXy0KwwOLX5JcZ8yAOercCWQCJ8QaZgEkw9PgT-b5u37rpNaHJ46v46Tic3g3360f9O1RNEyWbhyO3KCHLhfP9VkptEk4vZ8ZlXsKgukdbPt8TndvIWBpCiF4Dd8KM7GivmngDIGQ0Y5PhF3yDUvseznez_FO7weH7qGzXF-piL84hgBDr3UImV2cPmkWLlAeDnHz8d7_0a40RmsEO82RskE3wPXxqJWPHDmhyYj_MPfiCs4-v6KLKI_imWma4OJWg46xMM4QsgCHt9yD-ppywzuUTg1YYE4leLZF7TQA9myH3YlnR4KtALoE6zZEJJctiAPl69-ZX_JluHtt2t7ZWuXPdRjbpW_tkhjKIRwgv-18r-krMV-zddWgbylk4D3px0NHwzNa1kkGcdyUP1gNImMOz1UCo_byjc0GQ9fXvRTG0r8Q0Ytt5ZUqnOv_FHq0ic4EuuLL3O4N97dSaXs3iYf7UtQr6Ce6Fb9cYZPKqcNQoWLegh-5nuhABbbFdX0Nvw_W6PcyO-0gppSKfI0osakGV1DNBVlzRMb3Fb6eyXaDnjhJp4RuLcIutjMQjdwOq0Nh-8kbagblbB781hKeT_YeFg_9QMhr5HLQrJ26AQgpjFhtql0BWsjO6cBSID9pcUQkQ_sjH5sAxtLh4XSniMEV2YjY6udcCJ0XFofyRDY1ekxjlK3-_dy2H6fxEw8HNqmhT6J6odGNtTdcgChEoLnx5qDT6K9pgZA3ISiRFM_rzk9-Pmm9IsNWCnqoGmZ0e7TYlagessslrsyOYcERpomo-dK23Qo4lnanS8x1LYCvWs6fapn_EhFonuDlhO6ZI-_3xdwWuEPQ_1K1nSPo6AMc-MaRBHJo2KmY6mm3uX3mLsVeN?></g></svg>