<svg xmlns="http://www.w3.org/2000/svg" xmlns:xlink="http://www.w3.org/1999/xlink" version="1.1" data-diagram-type="CLASS" style="width:970px;height:556px;background:#FFFFFF;" width="970px" height="556px" viewBox="0 0 970 556" zoomAndPan="magnify" preserveAspectRatio="none" contentStyleType="text/css"><?plantuml 1.2026.7beta3?><defs/><g><g class="title" data-source-line="14"><text x="266.761" y="34.9951" fill="#000000" font-size="14" lengthAdjust="spacing" textLength="430.3975" font-weight="700" font-family="sans-serif">Diagramme de classes — Vue 1 : Noyau transactionnel</text></g><rect x="3" y="64.2969" width="954.9195" height="16.6406" fill="#FFFFCC" style="stroke:#FFDD88;stroke-width:3;" rx="2.5" ry="2.5"/><text x="10" y="74.9375" fill="#000000" font-size="10" lengthAdjust="spacing" textLength="295.0049" font-family="monospace">Please use CSS style instead of skinparam padding</text><!--class Client--><g class="entity" data-qualified-name="Client" id="ent0001" data-source-line="21"><rect x="7" y="110.0775" width="191.1416" height="187.1875" fill="#E8F5E9" style="stroke:#333333;stroke-width:0.5;" rx="2.5" ry="2.5"/><ellipse cx="66.3057" cy="135.2259" rx="10" ry="10" fill="#ADD1B2" style="stroke:#181818;stroke-width:1;"/><path d="M68.6963,139.9291 Q68.2119,140.1791 67.6807,140.3041 Q67.165,140.4291 66.5869,140.4291 Q64.5244,140.4291 63.4307,139.0697 Q62.3525,137.7103 62.3525,135.1322 Q62.3525,132.5541 63.4307,131.1947 Q64.5244,129.8353 66.5869,129.8353 Q67.165,129.8353 67.6963,129.9603 Q68.2275,130.0853 68.6963,130.3197 L68.6963,132.5697 Q68.1807,132.0853 67.6807,131.8666 Q67.1963,131.6478 66.6807,131.6478 Q65.5713,131.6478 65.0088,132.5228 Q64.4463,133.3978 64.4463,135.1322 Q64.4463,136.8509 65.0088,137.7416 Q65.5713,138.6166 66.6807,138.6166 Q67.1963,138.6166 67.6807,138.3978 Q68.1807,138.1634 68.6963,137.6947 L68.6963,139.9291 Z " fill="#000000"/><text x="97.3057" y="140.0726" fill="#000000" font-size="14" lengthAdjust="spacing" textLength="40.5303" font-family="sans-serif">Client</text><line x1="8" y1="160.3744" x2="197.1416" y2="160.3744" style="stroke:#333333;stroke-width:0.5;"/><text x="25" y="189.3695" fill="#000000" font-size="14" lengthAdjust="spacing" textLength="155.1416" font-family="sans-serif">-clientNumber : String</text><text x="25" y="229.6664" fill="#000000" font-size="14" lengthAdjust="spacing" textLength="80.9102" font-family="sans-serif">-cin : String</text><text x="25" y="269.9632" fill="#000000" font-size="14" lengthAdjust="spacing" textLength="146.8291" font-family="sans-serif">-status : ClientStatus</text><line x1="8" y1="289.265" x2="197.1416" y2="289.265" style="stroke:#333333;stroke-width:0.5;"/></g><!--class Account--><g class="entity" data-qualified-name="Account" id="ent0002" data-source-line="27"><rect x="258.34" y="89.9375" width="208.4639" height="227.4844" fill="#FFFDE7" style="stroke:#333333;stroke-width:0.5;" rx="2.5" ry="2.5"/><ellipse cx="318.1857" cy="115.0859" rx="10" ry="10" fill="#ADD1B2" style="stroke:#181818;stroke-width:1;"/><path d="M320.5763,119.7891 Q320.092,120.0391 319.5607,120.1641 Q319.0451,120.2891 318.467,120.2891 Q316.4045,120.2891 315.3107,118.9297 Q314.2326,117.5703 314.2326,114.9922 Q314.2326,112.4141 315.3107,111.0547 Q316.4045,109.6953 318.467,109.6953 Q319.0451,109.6953 319.5763,109.8203 Q320.1076,109.9453 320.5763,110.1797 L320.5763,112.4297 Q320.0607,111.9453 319.5607,111.7266 Q319.0763,111.5078 318.5607,111.5078 Q317.4513,111.5078 316.8888,112.3828 Q316.3263,113.2578 316.3263,114.9922 Q316.3263,116.7109 316.8888,117.6016 Q317.4513,118.4766 318.5607,118.4766 Q319.0763,118.4766 319.5607,118.2578 Q320.0607,118.0234 320.5763,117.5547 L320.5763,119.7891 Z " fill="#000000"/><text x="349.1857" y="119.9326" fill="#000000" font-size="14" lengthAdjust="spacing" textLength="56.7725" font-family="sans-serif">Account</text><line x1="259.34" y1="140.2344" x2="465.8039" y2="140.2344" style="stroke:#333333;stroke-width:0.5;"/><text x="276.34" y="169.2295" fill="#000000" font-size="14" lengthAdjust="spacing" textLength="172.4639" font-family="sans-serif">-accountNumber : String</text><text x="276.34" y="209.5264" fill="#000000" font-size="14" lengthAdjust="spacing" textLength="141.0527" font-family="sans-serif">-type : AccountType</text><text x="276.34" y="249.8232" fill="#000000" font-size="14" lengthAdjust="spacing" textLength="153.2549" font-family="sans-serif">-balance : BigDecimal</text><text x="276.34" y="290.1201" fill="#000000" font-size="14" lengthAdjust="spacing" textLength="163.0713" font-family="sans-serif">-status : AccountStatus</text><line x1="259.34" y1="309.4219" x2="465.8039" y2="309.4219" style="stroke:#333333;stroke-width:0.5;"/></g><!--class Transaction--><g class="entity" data-qualified-name="Transaction" id="ent0003" data-source-line="34"><rect x="526.36" y="110.0775" width="202.4277" height="187.1875" fill="#FBE9E7" style="stroke:#333333;stroke-width:0.5;" rx="2.5" ry="2.5"/><ellipse cx="570.5001" cy="135.2259" rx="10" ry="10" fill="#ADD1B2" style="stroke:#181818;stroke-width:1;"/><path d="M572.8908,139.9291 Q572.4064,140.1791 571.8751,140.3041 Q571.3595,140.4291 570.7814,140.4291 Q568.7189,140.4291 567.6251,139.0697 Q566.547,137.7103 566.547,135.1322 Q566.547,132.5541 567.6251,131.1947 Q568.7189,129.8353 570.7814,129.8353 Q571.3595,129.8353 571.8908,129.9603 Q572.422,130.0853 572.8908,130.3197 L572.8908,132.5697 Q572.3751,132.0853 571.8751,131.8666 Q571.3908,131.6478 570.8751,131.6478 Q569.7658,131.6478 569.2033,132.5228 Q568.6408,133.3978 568.6408,135.1322 Q568.6408,136.8509 569.2033,137.7416 Q569.7658,138.6166 570.8751,138.6166 Q571.3908,138.6166 571.8751,138.3978 Q572.3751,138.1634 572.8908,137.6947 L572.8908,139.9291 Z " fill="#000000"/><text x="601.5001" y="140.0726" fill="#000000" font-size="14" lengthAdjust="spacing" textLength="82.1475" font-family="sans-serif">Transaction</text><line x1="527.36" y1="160.3744" x2="727.7877" y2="160.3744" style="stroke:#333333;stroke-width:0.5;"/><text x="544.36" y="189.3695" fill="#000000" font-size="14" lengthAdjust="spacing" textLength="166.4277" font-family="sans-serif">-type : TransactionType</text><text x="544.36" y="229.6664" fill="#000000" font-size="14" lengthAdjust="spacing" textLength="152.1543" font-family="sans-serif">-amount : BigDecimal</text><text x="544.36" y="269.9632" fill="#000000" font-size="14" lengthAdjust="spacing" textLength="147.5332" font-family="sans-serif">-executedAt : Instant</text><line x1="527.36" y1="289.265" x2="727.7877" y2="289.265" style="stroke:#333333;stroke-width:0.5;"/></g><!--class User--><g class="entity" data-qualified-name="User" id="ent0004" data-source-line="40"><rect x="789.23" y="110.0775" width="166.6895" height="187.1875" fill="#E3F2FD" style="stroke:#333333;stroke-width:0.5;" rx="2.5" ry="2.5"/><ellipse cx="840.6196" cy="135.2259" rx="10" ry="10" fill="#ADD1B2" style="stroke:#181818;stroke-width:1;"/><path d="M843.0103,139.9291 Q842.5259,140.1791 841.9946,140.3041 Q841.479,140.4291 840.9009,140.4291 Q838.8384,140.4291 837.7446,139.0697 Q836.6665,137.7103 836.6665,135.1322 Q836.6665,132.5541 837.7446,131.1947 Q838.8384,129.8353 840.9009,129.8353 Q841.479,129.8353 842.0103,129.9603 Q842.5415,130.0853 843.0103,130.3197 L843.0103,132.5697 Q842.4946,132.0853 841.9946,131.8666 Q841.5103,131.6478 840.9946,131.6478 Q839.8853,131.6478 839.3228,132.5228 Q838.7603,133.3978 838.7603,135.1322 Q838.7603,136.8509 839.3228,137.7416 Q839.8853,138.6166 840.9946,138.6166 Q841.5103,138.6166 841.9946,138.3978 Q842.4946,138.1634 843.0103,137.6947 L843.0103,139.9291 Z " fill="#000000"/><text x="871.6196" y="140.0726" fill="#000000" font-size="14" lengthAdjust="spacing" textLength="31.9102" font-family="sans-serif">User</text><line x1="790.23" y1="160.3744" x2="954.9195" y2="160.3744" style="stroke:#333333;stroke-width:0.5;"/><text x="807.23" y="189.3695" fill="#000000" font-size="14" lengthAdjust="spacing" textLength="130.6895" font-family="sans-serif">-username : String</text><text x="807.23" y="229.6664" fill="#000000" font-size="14" lengthAdjust="spacing" textLength="108.1992" font-family="sans-serif">-role : UserRole</text><text x="807.23" y="269.9632" fill="#000000" font-size="14" lengthAdjust="spacing" textLength="123.334" font-family="sans-serif">-fullName : String</text><line x1="790.23" y1="289.265" x2="954.9195" y2="289.265" style="stroke:#333333;stroke-width:0.5;"/></g><!--link Client to Account--><!--reverse link Client to Account--><g class="link" data-entity-1="ent0001" data-entity-2="ent0002" id="lnk8" data-source-line="51" data-link-type="aggregation"><path d="M210.28,173.4175 C229.68,173.4175 238.18,173.4175 257.87,173.4175" style="stroke:#181818;stroke-width:1;" fill="none" id="Client-backto-Account" codeLine="51"/><polygon points="198.28,173.4175,204.28,177.4175,210.28,173.4175,204.28,169.4175,198.28,173.4175" fill="none" style="stroke:#181818;stroke-width:1;stroke-linejoin:miter;stroke-miterlimit:10;"/><polygon points="170.83,193.4019,163.5939,191.0507,163.5939,195.753,170.83,193.4019" fill="#000000" style="stroke:#000000;stroke-width:1;stroke-linejoin:miter;stroke-miterlimit:10;"/><text x="187.83" y="197.5562" fill="#000000" font-size="12" lengthAdjust="spacing" textLength="49.8457" font-family="sans-serif">possède</text><text x="218.1217" y="156.1622" fill="#000000" font-size="12" lengthAdjust="spacing" textLength="7.6348" font-family="sans-serif">1</text><text x="217.1267" y="195.8689" fill="#000000" font-size="12" lengthAdjust="spacing" textLength="21.2637" font-family="sans-serif">0..*</text></g><!--link Account to Transaction--><!--reverse link Account to Transaction--><g class="link" data-entity-1="ent0002" data-entity-2="ent0003" id="lnk9" data-source-line="52" data-link-type="aggregation"><path d="M478.93,173.4175 C498.33,173.4175 506.59,173.4175 525.91,173.4175" style="stroke:#181818;stroke-width:1;" fill="none" id="Account-backto-Transaction" codeLine="52"/><polygon points="466.93,173.4175,472.93,177.4175,478.93,173.4175,472.93,169.4175,466.93,173.4175" fill="none" style="stroke:#181818;stroke-width:1;stroke-linejoin:miter;stroke-miterlimit:10;"/><polygon points="417.42,193.4019,410.1839,191.0507,410.1839,195.753,417.42,193.4019" fill="#000000" style="stroke:#000000;stroke-width:1;stroke-linejoin:miter;stroke-miterlimit:10;"/><text x="434.42" y="197.5562" fill="#000000" font-size="12" lengthAdjust="spacing" textLength="78.7559" font-family="sans-serif">mouvements</text><text x="485.2436" y="156.0541" fill="#000000" font-size="12" lengthAdjust="spacing" textLength="21.2637" font-family="sans-serif">0..*</text><text x="484.9642" y="195.8342" fill="#000000" font-size="12" lengthAdjust="spacing" textLength="21.2637" font-family="sans-serif">0..*</text></g><!--link Transaction to User--><!--link Transaction to User--><g class="link" data-entity-1="ent0003" data-entity-2="ent0004" id="lnk10" data-source-line="53" data-link-type="dependency"><path d="M728.99,173.4175 C748.87,173.4175 764.51,173.4175 783.74,173.4175" style="stroke:#181818;stroke-width:1;" fill="none" id="Transaction-to-User" codeLine="53"/><polygon points="788.74,173.4175,779.74,169.4175,783.74,173.4175,779.74,177.4175,788.74,173.4175" fill="#181818" style="stroke:#181818;stroke-width:1;stroke-linejoin:miter;stroke-miterlimit:10;"/><polygon points="708.36,193.4019,701.1239,191.0507,701.1239,195.753,708.36,193.4019" fill="#000000" style="stroke:#000000;stroke-width:1;stroke-linejoin:miter;stroke-miterlimit:10;"/><text x="725.36" y="197.5562" fill="#000000" font-size="12" lengthAdjust="spacing" textLength="79.2598" font-family="sans-serif">exécutée par</text><text x="748.054" y="156.0627" fill="#000000" font-size="12" lengthAdjust="spacing" textLength="21.2637" font-family="sans-serif">0..*</text><text x="761.5401" y="195.6229" fill="#000000" font-size="12" lengthAdjust="spacing" textLength="7.6348" font-family="sans-serif">1</text></g><g class="legend" data-source-line="55"><rect x="659.1333" y="338.4219" width="292.7861" height="199.1875" fill="#DDDDDD" style="stroke:#000000;stroke-width:1;" rx="7.5" ry="7.5"/><text x="693.0073" y="382.417" fill="#000000" font-size="14" lengthAdjust="spacing" textLength="44.5908" font-weight="700" font-family="sans-serif">Règle</text><text x="771.3462" y="382.417" fill="#000000" font-size="14" lengthAdjust="spacing" textLength="99.3809" font-weight="700" font-family="sans-serif">Signification</text><text x="692.5835" y="422.7139" fill="#000000" font-size="14" lengthAdjust="spacing" textLength="42.3213" font-family="sans-serif">R1-R2</text><text x="770.9224" y="422.7139" fill="#000000" font-size="14" lengthAdjust="spacing" textLength="147.5469" font-family="sans-serif">1 client → N comptes</text><text x="688.1333" y="463.0107" fill="#000000" font-size="14" lengthAdjust="spacing" textLength="4.4502" font-family="sans-serif"> </text><text x="770.9224" y="463.0107" fill="#000000" font-size="14" lengthAdjust="spacing" textLength="138.6875" font-family="sans-serif">1 compte → 1 client</text><text x="688.1333" y="503.3076" fill="#000000" font-size="14" lengthAdjust="spacing" textLength="4.4502" font-family="sans-serif"> </text><text x="766.4722" y="503.3076" fill="#000000" font-size="14" lengthAdjust="spacing" textLength="4.4502" font-family="sans-serif"> </text><text x="770.9224" y="503.3076" fill="#000000" font-size="14" lengthAdjust="spacing" textLength="103.6055" font-weight="700" font-family="sans-serif">User ≠ Client</text><text x="874.5279" y="503.3076" fill="#000000" font-size="14" lengthAdjust="spacing" textLength="4.4502" font-family="sans-serif"> </text><line x1="676.1333" y1="357.4219" x2="934.9195" y2="357.4219" style="stroke:#000000;stroke-width:1;"/><line x1="676.1333" y1="397.7188" x2="934.9195" y2="397.7188" style="stroke:#000000;stroke-width:1;"/><line x1="676.1333" y1="438.0156" x2="934.9195" y2="438.0156" style="stroke:#000000;stroke-width:1;"/><line x1="676.1333" y1="478.3125" x2="934.9195" y2="478.3125" style="stroke:#000000;stroke-width:1;"/><line x1="676.1333" y1="518.6094" x2="934.9195" y2="518.6094" style="stroke:#000000;stroke-width:1;"/><line x1="676.1333" y1="357.4219" x2="676.1333" y2="518.6094" style="stroke:#000000;stroke-width:1;"/><line x1="754.4722" y1="357.4219" x2="754.4722" y2="518.6094" style="stroke:#000000;stroke-width:1;"/><line x1="934.9195" y1="357.4219" x2="934.9195" y2="518.6094" style="stroke:#000000;stroke-width:1;"/></g><?plantuml-src RLDBRjim5Dph50_see011R7Jj8s11l1FG3P6OIVjekY25fybmXGfa5JJf0dGLO5kYnwWo-GSlebFqYTAjcKtziBKpF3DS4GxdOFJiD3EwGouC1WxeLKGs9LGEJCi0viohc-5Ic39fCK64qjcxS0v8nQ5mwjOgxcuHpXjI9JcQ367DqtGCBKgmVCco7792kaYhPoVqdrzxFGoDJ16t-wfNeEIGg6xon6qSQbk41yOv-M13jIPKAFIvfFWBeKk9GwSS19XB5X2WWmfOvK4BMn-_86F1Hb27wRwZXNWw5YM-VeKok0uFNmF08OiNYL65ugFjDG6sj6W_9QCDXnDZPxvJ_0O1DNMaHIe7BGdxwBpoOMV5DBK4fmMsG8DXPZJQr19nGXr25Z7N649gmRD_UD-_22EAHBDZw9eF7bRpsSL-fA1BxM_tNTDJnvUCCbKN393aOmn5XcJX_xrZkC0r_lgACHmSh4BKJir13itbldG_vdXDupfEl91oLqfybPkRtLZwJ3joLdKYyQrHq6GOXaUdj5eMIAbVaPBZoqBAQS7Ifhx2cuKWiM2z58aj4wr4VTq8nbjgrzT-3aLdAFwOaIIkd1RHB2j_fXl73XejdEiA-C5MvDMjmKw3A5rUdBIQUrUQnzoRUtwYMxlvSwmrZJaJPi-KBbVCQEfbZOrgLeTXfVUp_VPfzBNpzJw-Xc1xZnj2IGcg3Zud5JUmtkOhPyIweXMSwf9B4NC_CI7aePPDvprwBTRNspO_FmDKuXrbZlwlrKYJtl4qpljbkrqV9xDhx_rLUzqYACSLPf_?></g></svg>