<svg xmlns="http://www.w3.org/2000/svg" xmlns:xlink="http://www.w3.org/1999/xlink" contentStyleType="text/css" height="973px" preserveAspectRatio="none" style="width:1493px;height:973px;background:#FFFFFF;" version="1.1" viewBox="0 0 1493 973" width="1493px" zoomAndPan="magnify"><title>Diagramme de classes &#8212; domaine m&#233;tier</title><defs/><g><text fill="#000000" font-family="sans-serif" font-size="14" font-weight="bold" lengthAdjust="spacing" textLength="276.6709" x="601.3462" y="24.5332">Diagramme de classes &#8212; domaine m&#233;tier</text><!--cluster domain--><g id="cluster_domain"><path d="M15.4389,44.6094 L66.2182,44.6094 A3.75,3.75 0 0 1 68.7182,47.1094 L75.7182,68.2188 L929.4389,68.2188 A2.5,2.5 0 0 1 931.9389,70.7188 L931.9389,901.1094 A2.5,2.5 0 0 1 929.4389,903.6094 L15.4389,903.6094 A2.5,2.5 0 0 1 12.9389,901.1094 L12.9389,47.1094 A2.5,2.5 0 0 1 15.4389,44.6094 " fill="none" style="stroke:#000000;stroke-width:1.5;"/><line style="stroke:#000000;stroke-width:1.5;" x1="12.9389" x2="75.7182" y1="68.2188" y2="68.2188"/><text fill="#000000" font-family="sans-serif" font-size="14" font-weight="bold" lengthAdjust="spacing" textLength="49.7793" x="16.9389" y="61.1426">domain</text></g><!--cluster enums--><g id="cluster_enums"><path d="M452.4389,167.6094 L498.5629,167.6094 A3.75,3.75 0 0 1 501.0629,170.1094 L508.0629,191.2188 L905.4389,191.2188 A2.5,2.5 0 0 1 907.9389,193.7188 L907.9389,610.6094 A2.5,2.5 0 0 1 905.4389,613.1094 L452.4389,613.1094 A2.5,2.5 0 0 1 449.9389,610.6094 L449.9389,170.1094 A2.5,2.5 0 0 1 452.4389,167.6094 " fill="none" style="stroke:#000000;stroke-width:1.5;"/><line style="stroke:#000000;stroke-width:1.5;" x1="449.9389" x2="508.0629" y1="191.2188" y2="191.2188"/><text fill="#000000" font-family="sans-serif" font-size="14" font-weight="bold" lengthAdjust="spacing" textLength="45.124" x="453.9389" y="184.1426">enums</text></g><!--cluster entity--><g id="cluster_entity"><path d="M39.4389,88.6094 L77.7768,88.6094 A3.75,3.75 0 0 1 80.2768,91.1094 L87.2768,112.2188 L423.4389,112.2188 A2.5,2.5 0 0 1 425.9389,114.7188 L425.9389,877.1094 A2.5,2.5 0 0 1 423.4389,879.6094 L39.4389,879.6094 A2.5,2.5 0 0 1 36.9389,877.1094 L36.9389,91.1094 A2.5,2.5 0 0 1 39.4389,88.6094 " fill="none" style="stroke:#000000;stroke-width:1.5;"/><line style="stroke:#000000;stroke-width:1.5;" x1="36.9389" x2="87.2768" y1="112.2188" y2="112.2188"/><text fill="#000000" font-family="sans-serif" font-size="14" font-weight="bold" lengthAdjust="spacing" textLength="37.3379" x="40.9389" y="105.1426">entity</text></g><!--class UserRole--><g id="elem_UserRole"><rect codeLine="8" fill="#F1F1F1" height="100.8281" id="UserRole" rx="2.5" ry="2.5" style="stroke:#181818;stroke-width:0.5;" width="117.0205" x="466.4389" y="203.6094"/><ellipse cx="493.44" cy="219.6094" fill="#EB937F" rx="11" ry="11" style="stroke:#181818;stroke-width:1;"/><path d="M492.2993,220.4063 L492.2993,222.9063 L496.6275,222.9063 L496.6275,221.9844 Q496.6275,221.375 496.8618,221.1094 Q497.1118,220.8438 497.4868,220.8438 Q497.8618,220.8438 498.0962,221.1094 Q498.3306,221.375 498.3306,221.9844 L498.3306,224.6094 L490.3306,224.6094 Q489.7056,224.6094 489.44,224.375 Q489.19,224.1406 489.19,223.75 Q489.19,223.375 489.4556,223.1406 Q489.7212,222.9063 490.3306,222.9063 L490.5962,222.9063 L490.5962,216.25 L490.3306,216.25 Q489.7056,216.25 489.44,216.0156 Q489.19,215.7813 489.19,215.3906 Q489.19,215.0156 489.44,214.7813 Q489.7056,214.5469 490.3306,214.5469 L497.9556,214.5469 L497.9556,217.1406 Q497.9556,217.75 497.7212,218.0156 Q497.5025,218.2656 497.1118,218.2656 Q496.7368,218.2656 496.5025,218.0156 Q496.2681,217.75 496.2681,217.1406 L496.2681,216.25 L492.2993,216.25 L492.2993,218.7031 L493.7837,218.7031 Q493.7837,218.0469 493.9087,217.8594 Q494.1743,217.4531 494.6431,217.4531 Q495.0181,217.4531 495.2525,217.7188 Q495.4868,217.9688 495.4868,218.5781 L495.4868,220.5469 Q495.4868,221.0938 495.3618,221.2813 Q495.0962,221.6719 494.6431,221.6719 Q494.1743,221.6719 493.9087,221.2656 Q493.7837,221.0781 493.7837,220.4063 L492.2993,220.4063 Z " fill="#000000"/><text fill="#000000" font-family="sans-serif" font-size="14" lengthAdjust="spacing" textLength="58.3516" x="510.1068" y="225.3379">UserRole</text><line style="stroke:#181818;stroke-width:0.5;" x1="467.4389" x2="582.4594" y1="235.6094" y2="235.6094"/><text fill="#000000" font-family="sans-serif" font-size="14" lengthAdjust="spacing" textLength="45.1104" x="472.4389" y="254.1426">ADMIN</text><text fill="#000000" font-family="sans-serif" font-size="14" lengthAdjust="spacing" textLength="48.2275" x="472.4389" y="271.752">AGENT</text><text fill="#000000" font-family="sans-serif" font-size="14" lengthAdjust="spacing" textLength="105.0205" x="472.4389" y="289.3613">CHEF_AGENCE</text><line style="stroke:#181818;stroke-width:0.5;" x1="467.4389" x2="582.4594" y1="296.4375" y2="296.4375"/></g><!--class ClientStatus--><g id="elem_ClientStatus"><rect codeLine="13" fill="#F1F1F1" height="100.8281" id="ClientStatus" rx="2.5" ry="2.5" style="stroke:#181818;stroke-width:0.5;" width="107.4824" x="618.4389" y="203.6094"/><ellipse cx="633.4389" cy="219.6094" fill="#EB937F" rx="11" ry="11" style="stroke:#181818;stroke-width:1;"/><path d="M632.2983,220.4063 L632.2983,222.9063 L636.6264,222.9063 L636.6264,221.9844 Q636.6264,221.375 636.8608,221.1094 Q637.1108,220.8438 637.4858,220.8438 Q637.8608,220.8438 638.0952,221.1094 Q638.3296,221.375 638.3296,221.9844 L638.3296,224.6094 L630.3296,224.6094 Q629.7046,224.6094 629.4389,224.375 Q629.1889,224.1406 629.1889,223.75 Q629.1889,223.375 629.4546,223.1406 Q629.7202,222.9063 630.3296,222.9063 L630.5952,222.9063 L630.5952,216.25 L630.3296,216.25 Q629.7046,216.25 629.4389,216.0156 Q629.1889,215.7813 629.1889,215.3906 Q629.1889,215.0156 629.4389,214.7813 Q629.7046,214.5469 630.3296,214.5469 L637.9546,214.5469 L637.9546,217.1406 Q637.9546,217.75 637.7202,218.0156 Q637.5014,218.2656 637.1108,218.2656 Q636.7358,218.2656 636.5014,218.0156 Q636.2671,217.75 636.2671,217.1406 L636.2671,216.25 L632.2983,216.25 L632.2983,218.7031 L633.7827,218.7031 Q633.7827,218.0469 633.9077,217.8594 Q634.1733,217.4531 634.6421,217.4531 Q635.0171,217.4531 635.2514,217.7188 Q635.4858,217.9688 635.4858,218.5781 L635.4858,220.5469 Q635.4858,221.0938 635.3608,221.2813 Q635.0952,221.6719 634.6421,221.6719 Q634.1733,221.6719 633.9077,221.2656 Q633.7827,221.0781 633.7827,220.4063 L632.2983,220.4063 Z " fill="#000000"/><text fill="#000000" font-family="sans-serif" font-size="14" lengthAdjust="spacing" textLength="75.4824" x="647.4389" y="225.3379">ClientStatus</text><line style="stroke:#181818;stroke-width:0.5;" x1="619.4389" x2="724.9213" y1="235.6094" y2="235.6094"/><text fill="#000000" font-family="sans-serif" font-size="14" lengthAdjust="spacing" textLength="50.5654" x="624.4389" y="254.1426">ACTIVE</text><text fill="#000000" font-family="sans-serif" font-size="14" lengthAdjust="spacing" textLength="87.1309" x="624.4389" y="271.752">SUSPENDED</text><text fill="#000000" font-family="sans-serif" font-size="14" lengthAdjust="spacing" textLength="64.5654" x="624.4389" y="289.3613">INACTIVE</text><line style="stroke:#181818;stroke-width:0.5;" x1="619.4389" x2="724.9213" y1="296.4375" y2="296.4375"/></g><!--class AccountType--><g id="elem_AccountType"><rect codeLine="18" fill="#F1F1F1" height="100.8281" id="AccountType" rx="2.5" ry="2.5" style="stroke:#181818;stroke-width:0.5;" width="131.0273" x="760.4389" y="203.6094"/><ellipse cx="783.2317" cy="219.6094" fill="#EB937F" rx="11" ry="11" style="stroke:#181818;stroke-width:1;"/><path d="M782.0911,220.4063 L782.0911,222.9063 L786.4192,222.9063 L786.4192,221.9844 Q786.4192,221.375 786.6536,221.1094 Q786.9036,220.8438 787.2786,220.8438 Q787.6536,220.8438 787.888,221.1094 Q788.1224,221.375 788.1224,221.9844 L788.1224,224.6094 L780.1224,224.6094 Q779.4974,224.6094 779.2317,224.375 Q778.9817,224.1406 778.9817,223.75 Q778.9817,223.375 779.2474,223.1406 Q779.513,222.9063 780.1224,222.9063 L780.388,222.9063 L780.388,216.25 L780.1224,216.25 Q779.4974,216.25 779.2317,216.0156 Q778.9817,215.7813 778.9817,215.3906 Q778.9817,215.0156 779.2317,214.7813 Q779.4974,214.5469 780.1224,214.5469 L787.7474,214.5469 L787.7474,217.1406 Q787.7474,217.75 787.513,218.0156 Q787.2942,218.2656 786.9036,218.2656 Q786.5286,218.2656 786.2942,218.0156 Q786.0599,217.75 786.0599,217.1406 L786.0599,216.25 L782.0911,216.25 L782.0911,218.7031 L783.5755,218.7031 Q783.5755,218.0469 783.7005,217.8594 Q783.9661,217.4531 784.4349,217.4531 Q784.8099,217.4531 785.0442,217.7188 Q785.2786,217.9688 785.2786,218.5781 L785.2786,220.5469 Q785.2786,221.0938 785.1536,221.2813 Q784.888,221.6719 784.4349,221.6719 Q783.9661,221.6719 783.7005,221.2656 Q783.5755,221.0781 783.5755,220.4063 L782.0911,220.4063 Z " fill="#000000"/><text fill="#000000" font-family="sans-serif" font-size="14" lengthAdjust="spacing" textLength="81.71" x="798.9635" y="225.3379">AccountType</text><line style="stroke:#181818;stroke-width:0.5;" x1="761.4389" x2="890.4663" y1="235.6094" y2="235.6094"/><text fill="#000000" font-family="sans-serif" font-size="14" lengthAdjust="spacing" textLength="69.2207" x="766.4389" y="254.1426">COURANT</text><text fill="#000000" font-family="sans-serif" font-size="14" lengthAdjust="spacing" textLength="68.4619" x="766.4389" y="271.752">EPARGNE</text><text fill="#000000" font-family="sans-serif" font-size="14" lengthAdjust="spacing" textLength="119.0273" x="766.4389" y="289.3613">PROFESSIONNEL</text><line style="stroke:#181818;stroke-width:0.5;" x1="761.4389" x2="890.4663" y1="296.4375" y2="296.4375"/></g><!--class AccountStatus--><g id="elem_AccountStatus"><rect codeLine="23" fill="#F1F1F1" height="100.8281" id="AccountStatus" rx="2.5" ry="2.5" style="stroke:#181818;stroke-width:0.5;" width="122.2754" x="465.9389" y="496.1094"/><ellipse cx="480.9389" cy="512.1094" fill="#EB937F" rx="11" ry="11" style="stroke:#181818;stroke-width:1;"/><path d="M479.7983,512.9063 L479.7983,515.4063 L484.1264,515.4063 L484.1264,514.4844 Q484.1264,513.875 484.3608,513.6094 Q484.6108,513.3438 484.9858,513.3438 Q485.3608,513.3438 485.5952,513.6094 Q485.8296,513.875 485.8296,514.4844 L485.8296,517.1094 L477.8296,517.1094 Q477.2046,517.1094 476.9389,516.875 Q476.6889,516.6406 476.6889,516.25 Q476.6889,515.875 476.9546,515.6406 Q477.2202,515.4063 477.8296,515.4063 L478.0952,515.4063 L478.0952,508.75 L477.8296,508.75 Q477.2046,508.75 476.9389,508.5156 Q476.6889,508.2813 476.6889,507.8906 Q476.6889,507.5156 476.9389,507.2813 Q477.2046,507.0469 477.8296,507.0469 L485.4546,507.0469 L485.4546,509.6406 Q485.4546,510.25 485.2202,510.5156 Q485.0014,510.7656 484.6108,510.7656 Q484.2358,510.7656 484.0014,510.5156 Q483.7671,510.25 483.7671,509.6406 L483.7671,508.75 L479.7983,508.75 L479.7983,511.2031 L481.2827,511.2031 Q481.2827,510.5469 481.4077,510.3594 Q481.6733,509.9531 482.1421,509.9531 Q482.5171,509.9531 482.7514,510.2188 Q482.9858,510.4688 482.9858,511.0781 L482.9858,513.0469 Q482.9858,513.5938 482.8608,513.7813 Q482.5952,514.1719 482.1421,514.1719 Q481.6733,514.1719 481.4077,513.7656 Q481.2827,513.5781 481.2827,512.9063 L479.7983,512.9063 Z " fill="#000000"/><text fill="#000000" font-family="sans-serif" font-size="14" lengthAdjust="spacing" textLength="90.2754" x="494.9389" y="517.8379">AccountStatus</text><line style="stroke:#181818;stroke-width:0.5;" x1="466.9389" x2="587.2143" y1="528.1094" y2="528.1094"/><text fill="#000000" font-family="sans-serif" font-size="14" lengthAdjust="spacing" textLength="50.5654" x="471.9389" y="546.6426">ACTIVE</text><text fill="#000000" font-family="sans-serif" font-size="14" lengthAdjust="spacing" textLength="66.9102" x="471.9389" y="564.252">BLOCKED</text><text fill="#000000" font-family="sans-serif" font-size="14" lengthAdjust="spacing" textLength="57.5723" x="471.9389" y="581.8613">CLOSED</text><line style="stroke:#181818;stroke-width:0.5;" x1="466.9389" x2="587.2143" y1="588.9375" y2="588.9375"/></g><!--class TransactionType--><g id="elem_TransactionType"><rect codeLine="28" fill="#F1F1F1" height="100.8281" id="TransactionType" rx="2.5" ry="2.5" style="stroke:#181818;stroke-width:0.5;" width="136.2686" x="622.9389" y="496.1094"/><ellipse cx="637.9389" cy="512.1094" fill="#EB937F" rx="11" ry="11" style="stroke:#181818;stroke-width:1;"/><path d="M636.7983,512.9063 L636.7983,515.4063 L641.1264,515.4063 L641.1264,514.4844 Q641.1264,513.875 641.3608,513.6094 Q641.6108,513.3438 641.9858,513.3438 Q642.3608,513.3438 642.5952,513.6094 Q642.8296,513.875 642.8296,514.4844 L642.8296,517.1094 L634.8296,517.1094 Q634.2046,517.1094 633.9389,516.875 Q633.6889,516.6406 633.6889,516.25 Q633.6889,515.875 633.9546,515.6406 Q634.2202,515.4063 634.8296,515.4063 L635.0952,515.4063 L635.0952,508.75 L634.8296,508.75 Q634.2046,508.75 633.9389,508.5156 Q633.6889,508.2813 633.6889,507.8906 Q633.6889,507.5156 633.9389,507.2813 Q634.2046,507.0469 634.8296,507.0469 L642.4546,507.0469 L642.4546,509.6406 Q642.4546,510.25 642.2202,510.5156 Q642.0014,510.7656 641.6108,510.7656 Q641.2358,510.7656 641.0014,510.5156 Q640.7671,510.25 640.7671,509.6406 L640.7671,508.75 L636.7983,508.75 L636.7983,511.2031 L638.2827,511.2031 Q638.2827,510.5469 638.4077,510.3594 Q638.6733,509.9531 639.1421,509.9531 Q639.5171,509.9531 639.7514,510.2188 Q639.9858,510.4688 639.9858,511.0781 L639.9858,513.0469 Q639.9858,513.5938 639.8608,513.7813 Q639.5952,514.1719 639.1421,514.1719 Q638.6733,514.1719 638.4077,513.7656 Q638.2827,513.5781 638.2827,512.9063 L636.7983,512.9063 Z " fill="#000000"/><text fill="#000000" font-family="sans-serif" font-size="14" lengthAdjust="spacing" textLength="104.2686" x="651.9389" y="517.8379">TransactionType</text><line style="stroke:#181818;stroke-width:0.5;" x1="623.9389" x2="758.2075" y1="528.1094" y2="528.1094"/><text fill="#000000" font-family="sans-serif" font-size="14" lengthAdjust="spacing" textLength="48.2275" x="628.9389" y="546.6426">DEPOT</text><text fill="#000000" font-family="sans-serif" font-size="14" lengthAdjust="spacing" textLength="59.8896" x="628.9389" y="564.252">RETRAIT</text><text fill="#000000" font-family="sans-serif" font-size="14" lengthAdjust="spacing" textLength="72.3379" x="628.9389" y="581.8613">VIREMENT</text><line style="stroke:#181818;stroke-width:0.5;" x1="623.9389" x2="758.2075" y1="588.9375" y2="588.9375"/></g><!--class User--><g id="elem_User"><rect codeLine="37" fill="#F1F1F1" height="206.4844" id="User" rx="2.5" ry="2.5" style="stroke:#181818;stroke-width:0.5;" width="157.5029" x="251.9389" y="443.6094"/><ellipse cx="311.6611" cy="459.6094" fill="#ADD1B2" rx="11" ry="11" style="stroke:#181818;stroke-width:1;"/><path d="M314.4267,455.4844 Q314.583,455.2656 314.7705,455.1563 Q314.958,455.0469 315.1767,455.0469 Q315.5517,455.0469 315.7861,455.3125 Q316.0205,455.5625 316.0205,456.1719 L316.0205,457.625 Q316.0205,458.2344 315.7861,458.5 Q315.5517,458.7656 315.1767,458.7656 Q314.833,458.7656 314.6298,458.5625 Q314.4267,458.375 314.3173,457.8594 Q314.2705,457.5 314.083,457.3125 Q313.7548,456.9375 313.1455,456.7188 Q312.5361,456.5 311.9111,456.5 Q311.1455,456.5 310.5048,456.8281 Q309.8798,457.1563 309.3798,457.9063 Q308.8955,458.6563 308.8955,459.6875 L308.8955,460.7813 Q308.8955,462.0156 309.7861,462.8438 Q310.6767,463.6563 312.2705,463.6563 Q313.208,463.6563 313.8642,463.4063 Q314.2548,463.25 314.6767,462.8125 Q314.9423,462.5469 315.083,462.4688 Q315.2392,462.3906 315.4423,462.3906 Q315.7705,462.3906 316.0205,462.6563 Q316.2861,462.9063 316.2861,463.25 Q316.2861,463.5938 315.9423,464 Q315.4423,464.5781 314.6455,464.9063 Q313.5673,465.3594 312.2705,465.3594 Q310.7548,465.3594 309.5517,464.7344 Q308.5673,464.2344 307.8798,463.1719 Q307.1923,462.0938 307.1923,460.8125 L307.1923,459.6563 Q307.1923,458.3281 307.8017,457.1875 Q308.4267,456.0313 309.5205,455.4219 Q310.6142,454.7969 311.8486,454.7969 Q312.583,454.7969 313.2236,454.9688 Q313.8798,455.125 314.4267,455.4844 Z " fill="#000000"/><text fill="#000000" font-family="sans-serif" font-size="14" lengthAdjust="spacing" textLength="29.5586" x="332.1611" y="465.3379">User</text><line style="stroke:#181818;stroke-width:0.5;" x1="252.9389" x2="408.4419" y1="475.6094" y2="475.6094"/><text fill="#000000" font-family="sans-serif" font-size="14" lengthAdjust="spacing" textLength="58.3721" x="257.9389" y="494.1426">-id : Long</text><text fill="#000000" font-family="sans-serif" font-size="14" lengthAdjust="spacing" textLength="115.1582" x="257.9389" y="511.752">-username : String</text><text fill="#000000" font-family="sans-serif" font-size="14" lengthAdjust="spacing" textLength="145.5029" x="257.9389" y="529.3613">-passwordHash : String</text><text fill="#000000" font-family="sans-serif" font-size="14" lengthAdjust="spacing" textLength="108.1445" x="257.9389" y="546.9707">-fullName : String</text><text fill="#000000" font-family="sans-serif" font-size="14" lengthAdjust="spacing" textLength="86.3584" x="257.9389" y="564.5801">-email : String</text><text fill="#000000" font-family="sans-serif" font-size="14" lengthAdjust="spacing" textLength="98.0273" x="257.9389" y="582.1895">-role : UserRole</text><text fill="#000000" font-family="sans-serif" font-size="14" lengthAdjust="spacing" textLength="115.9854" x="257.9389" y="599.7988">-enabled : boolean</text><text fill="#000000" font-family="sans-serif" font-size="14" lengthAdjust="spacing" textLength="118.2822" x="257.9389" y="617.4082">-createdAt : Instant</text><text fill="#000000" font-family="sans-serif" font-size="14" lengthAdjust="spacing" textLength="127.627" x="257.9389" y="635.0176">-lastLoginAt : Instant</text><line style="stroke:#181818;stroke-width:0.5;" x1="252.9389" x2="408.4419" y1="642.0938" y2="642.0938"/></g><!--class Client--><g id="elem_Client"><rect codeLine="49" fill="#F1F1F1" height="259.3125" id="Client" rx="2.5" ry="2.5" style="stroke:#181818;stroke-width:0.5;" width="163.7441" x="52.9389" y="124.6094"/><ellipse cx="112.6645" cy="140.6094" fill="#ADD1B2" rx="11" ry="11" style="stroke:#181818;stroke-width:1;"/><path d="M115.4301,136.4844 Q115.5864,136.2656 115.7739,136.1563 Q115.9614,136.0469 116.1801,136.0469 Q116.5551,136.0469 116.7895,136.3125 Q117.0239,136.5625 117.0239,137.1719 L117.0239,138.625 Q117.0239,139.2344 116.7895,139.5 Q116.5551,139.7656 116.1801,139.7656 Q115.8364,139.7656 115.6333,139.5625 Q115.4301,139.375 115.3208,138.8594 Q115.2739,138.5 115.0864,138.3125 Q114.7583,137.9375 114.1489,137.7188 Q113.5395,137.5 112.9145,137.5 Q112.1489,137.5 111.5083,137.8281 Q110.8833,138.1563 110.3833,138.9063 Q109.8989,139.6563 109.8989,140.6875 L109.8989,141.7813 Q109.8989,143.0156 110.7895,143.8438 Q111.6801,144.6563 113.2739,144.6563 Q114.2114,144.6563 114.8676,144.4063 Q115.2583,144.25 115.6801,143.8125 Q115.9458,143.5469 116.0864,143.4688 Q116.2426,143.3906 116.4458,143.3906 Q116.7739,143.3906 117.0239,143.6563 Q117.2895,143.9063 117.2895,144.25 Q117.2895,144.5938 116.9458,145 Q116.4458,145.5781 115.6489,145.9063 Q114.5708,146.3594 113.2739,146.3594 Q111.7583,146.3594 110.5551,145.7344 Q109.5708,145.2344 108.8833,144.1719 Q108.1958,143.0938 108.1958,141.8125 L108.1958,140.6563 Q108.1958,139.3281 108.8051,138.1875 Q109.4301,137.0313 110.5239,136.4219 Q111.6176,135.7969 112.852,135.7969 Q113.5864,135.7969 114.227,135.9688 Q114.8833,136.125 115.4301,136.4844 Z " fill="#000000"/><text fill="#000000" font-family="sans-serif" font-size="14" lengthAdjust="spacing" textLength="35.793" x="133.1645" y="146.3379">Client</text><line style="stroke:#181818;stroke-width:0.5;" x1="53.9389" x2="215.6831" y1="156.6094" y2="156.6094"/><text fill="#000000" font-family="sans-serif" font-size="14" lengthAdjust="spacing" textLength="58.3721" x="58.9389" y="175.1426">-id : Long</text><text fill="#000000" font-family="sans-serif" font-size="14" lengthAdjust="spacing" textLength="135.3789" x="58.9389" y="192.752">-clientNumber : String</text><text fill="#000000" font-family="sans-serif" font-size="14" lengthAdjust="spacing" textLength="70.7998" x="58.9389" y="210.3613">-cin : String</text><text fill="#000000" font-family="sans-serif" font-size="14" lengthAdjust="spacing" textLength="112.7998" x="58.9389" y="227.9707">-firstName : String</text><text fill="#000000" font-family="sans-serif" font-size="14" lengthAdjust="spacing" textLength="112.0342" x="58.9389" y="245.5801">-lastName : String</text><text fill="#000000" font-family="sans-serif" font-size="14" lengthAdjust="spacing" textLength="86.3584" x="58.9389" y="263.1895">-email : String</text><text fill="#000000" font-family="sans-serif" font-size="14" lengthAdjust="spacing" textLength="91.834" x="58.9389" y="280.7988">-phone : String</text><text fill="#000000" font-family="sans-serif" font-size="14" lengthAdjust="spacing" textLength="102.71" x="58.9389" y="298.4082">-address : String</text><text fill="#000000" font-family="sans-serif" font-size="14" lengthAdjust="spacing" textLength="151.7441" x="58.9389" y="316.0176">-professionalInfo : String</text><text fill="#000000" font-family="sans-serif" font-size="14" lengthAdjust="spacing" textLength="129.165" x="58.9389" y="333.627">-status : ClientStatus</text><text fill="#000000" font-family="sans-serif" font-size="14" lengthAdjust="spacing" textLength="118.2822" x="58.9389" y="351.2363">-createdAt : Instant</text><text fill="#000000" font-family="sans-serif" font-size="14" lengthAdjust="spacing" textLength="122.1924" x="58.9389" y="368.8457">-updatedAt : Instant</text><line style="stroke:#181818;stroke-width:0.5;" x1="53.9389" x2="215.6831" y1="375.9219" y2="375.9219"/></g><!--class Account--><g id="elem_Account"><rect codeLine="64" fill="#F1F1F1" height="188.875" id="Account" rx="2.5" ry="2.5" style="stroke:#181818;stroke-width:0.5;" width="163.7305" x="52.9389" y="452.1094"/><ellipse cx="105.2612" cy="468.1094" fill="#ADD1B2" rx="11" ry="11" style="stroke:#181818;stroke-width:1;"/><path d="M108.0268,463.9844 Q108.1831,463.7656 108.3706,463.6563 Q108.5581,463.5469 108.7768,463.5469 Q109.1518,463.5469 109.3862,463.8125 Q109.6206,464.0625 109.6206,464.6719 L109.6206,466.125 Q109.6206,466.7344 109.3862,467 Q109.1518,467.2656 108.7768,467.2656 Q108.4331,467.2656 108.2299,467.0625 Q108.0268,466.875 107.9174,466.3594 Q107.8706,466 107.6831,465.8125 Q107.3549,465.4375 106.7456,465.2188 Q106.1362,465 105.5112,465 Q104.7456,465 104.1049,465.3281 Q103.4799,465.6563 102.9799,466.4063 Q102.4956,467.1563 102.4956,468.1875 L102.4956,469.2813 Q102.4956,470.5156 103.3862,471.3438 Q104.2768,472.1563 105.8706,472.1563 Q106.8081,472.1563 107.4643,471.9063 Q107.8549,471.75 108.2768,471.3125 Q108.5424,471.0469 108.6831,470.9688 Q108.8393,470.8906 109.0424,470.8906 Q109.3706,470.8906 109.6206,471.1563 Q109.8862,471.4063 109.8862,471.75 Q109.8862,472.0938 109.5424,472.5 Q109.0424,473.0781 108.2456,473.4063 Q107.1674,473.8594 105.8706,473.8594 Q104.3549,473.8594 103.1518,473.2344 Q102.1674,472.7344 101.4799,471.6719 Q100.7924,470.5938 100.7924,469.3125 L100.7924,468.1563 Q100.7924,466.8281 101.4018,465.6875 Q102.0268,464.5313 103.1206,463.9219 Q104.2143,463.2969 105.4487,463.2969 Q106.1831,463.2969 106.8237,463.4688 Q107.4799,463.625 108.0268,463.9844 Z " fill="#000000"/><text fill="#000000" font-family="sans-serif" font-size="14" lengthAdjust="spacing" textLength="50.5859" x="125.7612" y="473.8379">Account</text><line style="stroke:#181818;stroke-width:0.5;" x1="53.9389" x2="215.6694" y1="484.1094" y2="484.1094"/><text fill="#000000" font-family="sans-serif" font-size="14" lengthAdjust="spacing" textLength="58.3721" x="58.9389" y="502.6426">-id : Long</text><text fill="#000000" font-family="sans-serif" font-size="14" lengthAdjust="spacing" textLength="151.7305" x="58.9389" y="520.252">-accountNumber : String</text><text fill="#000000" font-family="sans-serif" font-size="14" lengthAdjust="spacing" textLength="124.5029" x="58.9389" y="537.8613">-type : AccountType</text><text fill="#000000" font-family="sans-serif" font-size="14" lengthAdjust="spacing" textLength="143.958" x="58.9389" y="555.4707">-status : AccountStatus</text><text fill="#000000" font-family="sans-serif" font-size="14" lengthAdjust="spacing" textLength="136.1719" x="58.9389" y="573.0801">-balance : BigDecimal</text><text fill="#000000" font-family="sans-serif" font-size="14" lengthAdjust="spacing" textLength="118.3027" x="58.9389" y="590.6895">-openedAt : Instant</text><text fill="#000000" font-family="sans-serif" font-size="14" lengthAdjust="spacing" textLength="112.0547" x="58.9389" y="608.2988">-closedAt : Instant</text><text fill="#000000" font-family="sans-serif" font-size="14" lengthAdjust="spacing" textLength="92.6064" x="58.9389" y="625.9082">-version : Long</text><line style="stroke:#181818;stroke-width:0.5;" x1="53.9389" x2="215.6694" y1="632.9844" y2="632.9844"/></g><!--class Transaction--><g id="elem_Transaction"><rect codeLine="75" fill="#F1F1F1" height="136.0469" id="Transaction" rx="2.5" ry="2.5" style="stroke:#181818;stroke-width:0.5;" width="159.0615" x="59.4389" y="718.6094"/><ellipse cx="98.7016" cy="734.6094" fill="#ADD1B2" rx="11" ry="11" style="stroke:#181818;stroke-width:1;"/><path d="M101.4672,730.4844 Q101.6234,730.2656 101.8109,730.1563 Q101.9984,730.0469 102.2172,730.0469 Q102.5922,730.0469 102.8266,730.3125 Q103.0609,730.5625 103.0609,731.1719 L103.0609,732.625 Q103.0609,733.2344 102.8266,733.5 Q102.5922,733.7656 102.2172,733.7656 Q101.8734,733.7656 101.6703,733.5625 Q101.4672,733.375 101.3578,732.8594 Q101.3109,732.5 101.1234,732.3125 Q100.7953,731.9375 100.1859,731.7188 Q99.5766,731.5 98.9516,731.5 Q98.1859,731.5 97.5453,731.8281 Q96.9203,732.1563 96.4203,732.9063 Q95.9359,733.6563 95.9359,734.6875 L95.9359,735.7813 Q95.9359,737.0156 96.8266,737.8438 Q97.7172,738.6563 99.3109,738.6563 Q100.2484,738.6563 100.9047,738.4063 Q101.2953,738.25 101.7172,737.8125 Q101.9828,737.5469 102.1234,737.4688 Q102.2797,737.3906 102.4828,737.3906 Q102.8109,737.3906 103.0609,737.6563 Q103.3266,737.9063 103.3266,738.25 Q103.3266,738.5938 102.9828,739 Q102.4828,739.5781 101.6859,739.9063 Q100.6078,740.3594 99.3109,740.3594 Q97.7953,740.3594 96.5922,739.7344 Q95.6078,739.2344 94.9203,738.1719 Q94.2328,737.0938 94.2328,735.8125 L94.2328,734.6563 Q94.2328,733.3281 94.8422,732.1875 Q95.4672,731.0313 96.5609,730.4219 Q97.6547,729.7969 98.8891,729.7969 Q99.6234,729.7969 100.2641,729.9688 Q100.9203,730.125 101.4672,730.4844 Z " fill="#000000"/><text fill="#000000" font-family="sans-serif" font-size="14" lengthAdjust="spacing" textLength="73.1445" x="118.0933" y="740.3379">Transaction</text><line style="stroke:#181818;stroke-width:0.5;" x1="60.4389" x2="217.5004" y1="750.6094" y2="750.6094"/><text fill="#000000" font-family="sans-serif" font-size="14" lengthAdjust="spacing" textLength="58.3721" x="65.4389" y="769.1426">-id : Long</text><text fill="#000000" font-family="sans-serif" font-size="14" lengthAdjust="spacing" textLength="147.0615" x="65.4389" y="786.752">-type : TransactionType</text><text fill="#000000" font-family="sans-serif" font-size="14" lengthAdjust="spacing" textLength="133.8271" x="65.4389" y="804.3613">-amount : BigDecimal</text><text fill="#000000" font-family="sans-serif" font-size="14" lengthAdjust="spacing" textLength="128.4063" x="65.4389" y="821.9707">-executedAt : Instant</text><text fill="#000000" font-family="sans-serif" font-size="14" lengthAdjust="spacing" textLength="120.6064" x="65.4389" y="839.5801">-description : String</text><line style="stroke:#181818;stroke-width:0.5;" x1="60.4389" x2="217.5004" y1="846.6563" y2="846.6563"/></g><!--class AuditLog--><g id="elem_AuditLog"><rect codeLine="83" fill="#F1F1F1" height="153.6563" id="AuditLog" rx="2.5" ry="2.5" style="stroke:#181818;stroke-width:0.5;" width="147.3926" x="257.4389" y="709.6094"/><ellipse cx="299.4947" cy="725.6094" fill="#ADD1B2" rx="11" ry="11" style="stroke:#181818;stroke-width:1;"/><path d="M302.2604,721.4844 Q302.4166,721.2656 302.6041,721.1563 Q302.7916,721.0469 303.0104,721.0469 Q303.3854,721.0469 303.6197,721.3125 Q303.8541,721.5625 303.8541,722.1719 L303.8541,723.625 Q303.8541,724.2344 303.6197,724.5 Q303.3854,724.7656 303.0104,724.7656 Q302.6666,724.7656 302.4635,724.5625 Q302.2604,724.375 302.151,723.8594 Q302.1041,723.5 301.9166,723.3125 Q301.5885,722.9375 300.9791,722.7188 Q300.3697,722.5 299.7447,722.5 Q298.9791,722.5 298.3385,722.8281 Q297.7135,723.1563 297.2135,723.9063 Q296.7291,724.6563 296.7291,725.6875 L296.7291,726.7813 Q296.7291,728.0156 297.6197,728.8438 Q298.5104,729.6563 300.1041,729.6563 Q301.0416,729.6563 301.6979,729.4063 Q302.0885,729.25 302.5104,728.8125 Q302.776,728.5469 302.9166,728.4688 Q303.0729,728.3906 303.276,728.3906 Q303.6041,728.3906 303.8541,728.6563 Q304.1197,728.9063 304.1197,729.25 Q304.1197,729.5938 303.776,730 Q303.276,730.5781 302.4791,730.9063 Q301.401,731.3594 300.1041,731.3594 Q298.5885,731.3594 297.3854,730.7344 Q296.401,730.2344 295.7135,729.1719 Q295.026,728.0938 295.026,726.8125 L295.026,725.6563 Q295.026,724.3281 295.6354,723.1875 Q296.2604,722.0313 297.3541,721.4219 Q298.4479,720.7969 299.6822,720.7969 Q300.4166,720.7969 301.0572,720.9688 Q301.7135,721.125 302.2604,721.4844 Z " fill="#000000"/><text fill="#000000" font-family="sans-serif" font-size="14" lengthAdjust="spacing" textLength="55.2686" x="319.5071" y="731.3379">AuditLog</text><line style="stroke:#181818;stroke-width:0.5;" x1="258.4389" x2="403.8315" y1="741.6094" y2="741.6094"/><text fill="#000000" font-family="sans-serif" font-size="14" lengthAdjust="spacing" textLength="58.3721" x="263.4389" y="760.1426">-id : Long</text><text fill="#000000" font-family="sans-serif" font-size="14" lengthAdjust="spacing" textLength="90.2617" x="263.4389" y="777.752">-action : String</text><text fill="#000000" font-family="sans-serif" font-size="14" lengthAdjust="spacing" textLength="117.4893" x="263.4389" y="795.3613">-entityType : String</text><text fill="#000000" font-family="sans-serif" font-size="14" lengthAdjust="spacing" textLength="92.6133" x="263.4389" y="812.9707">-entityId : Long</text><text fill="#000000" font-family="sans-serif" font-size="14" lengthAdjust="spacing" textLength="135.3926" x="263.4389" y="830.5801">-performedAt : Instant</text><text fill="#000000" font-family="sans-serif" font-size="14" lengthAdjust="spacing" textLength="93.3721" x="263.4389" y="848.1895">-details : String</text><line style="stroke:#181818;stroke-width:0.5;" x1="258.4389" x2="403.8315" y1="855.2656" y2="855.2656"/></g><g id="elem_GMN22"><path d="M947.9389,757.1094 L947.9389,816.1641 L1223.6386,816.1641 L1223.6386,767.1094 L1213.6386,757.1094 L947.9389,757.1094 " fill="#FEFFDD" style="stroke:#181818;stroke-width:0.5;"/><path d="M1213.6386,757.1094 L1213.6386,767.1094 L1223.6386,767.1094 L1213.6386,757.1094 " fill="#FEFFDD" style="stroke:#181818;stroke-width:1;"/><text fill="#000000" font-family="sans-serif" font-size="13" lengthAdjust="spacing" textLength="211.7197" x="953.9389" y="775.6045">Un client poss&#232;de plusieurs comptes</text><text fill="#000000" font-family="sans-serif" font-size="13" lengthAdjust="spacing" textLength="243.5469" x="953.9389" y="791.9561">Chaque compte appartient &#224; un seul client</text><text fill="#000000" font-family="sans-serif" font-size="13" lengthAdjust="spacing" textLength="254.6997" x="953.9389" y="808.3076">Compte bloqu&#233; ou cl&#244;tur&#233; : pas d'op&#233;rations</text></g><g id="elem_GMN25"><path d="M34.4389,923.6094 L34.4389,966.3125 A0,0 0 0 0 34.4389,966.3125 L243.6342,966.3125 A0,0 0 0 0 243.6342,966.3125 L243.6342,933.6094 L233.6342,923.6094 L142.9389,923.6094 L138.9389,854.7494 L134.9389,923.6094 L34.4389,923.6094 A0,0 0 0 0 34.4389,923.6094 " fill="#FEFFDD" style="stroke:#181818;stroke-width:0.5;"/><path d="M233.6342,923.6094 L233.6342,933.6094 L243.6342,933.6094 L233.6342,923.6094 " fill="#FEFFDD" style="stroke:#181818;stroke-width:0.5;"/><text fill="#000000" font-family="sans-serif" font-size="13" lengthAdjust="spacing" textLength="100.4644" x="40.4389" y="942.1045">Dat&#233;e, horodat&#233;e</text><text fill="#000000" font-family="sans-serif" font-size="13" lengthAdjust="spacing" textLength="188.1953" x="40.4389" y="958.4561">Associ&#233;e &#224; l'utilisateur ex&#233;cutant</text></g><g id="elem_GMN28"><path d="M1259.4389,773.6094 L1259.4389,799.9609 L1486.3632,799.9609 L1486.3632,783.6094 L1476.3632,773.6094 L1259.4389,773.6094 " fill="#FEFFDD" style="stroke:#181818;stroke-width:0.5;"/><path d="M1476.3632,773.6094 L1476.3632,783.6094 L1486.3632,783.6094 L1476.3632,773.6094 " fill="#FEFFDD" style="stroke:#181818;stroke-width:1;"/><text fill="#000000" font-family="sans-serif" font-size="13" lengthAdjust="spacing" textLength="205.9243" x="1265.4389" y="792.1045">Mot de passe jamais stock&#233; en clair</text></g><!--reverse link Client to Account--><g id="link_Client_Account"><path codeLine="93" d="M134.9389,395.6794 C134.9389,418.5994 134.9389,430.0794 134.9389,451.8194 " fill="none" id="Client-backto-Account" style="stroke:#181818;stroke-width:1;"/><polygon fill="none" points="134.9389,383.6794,130.9389,389.6794,134.9389,395.6794,138.9389,389.6794,134.9389,383.6794" style="stroke:#181818;stroke-width:1;"/><polygon fill="#000000" points="75.9389,413.9252,78.8779,404.8801,73,404.8801,75.9389,413.9252" style="stroke:#000000;stroke-width:1;"/><text fill="#000000" font-family="sans-serif" font-size="13" lengthAdjust="spacing" textLength="49.1499" x="84.9389" y="414.2445">poss&#232;de</text><text fill="#000000" font-family="sans-serif" font-size="13" lengthAdjust="spacing" textLength="7.23" x="127.7404" y="405.5589">1</text><text fill="#000000" font-family="sans-serif" font-size="13" lengthAdjust="spacing" textLength="19.5127" x="115.2131" y="441.1424">0..*</text></g><!--link User to Transaction--><g id="link_User_Transaction"><path codeLine="94" d="M251.6589,647.6094 C239.5189,647.6094 230.9389,647.6094 230.9389,647.6094 C230.9389,647.6094 230.9389,786.6094 230.9389,786.6094 C230.9389,786.6094 226.0489,786.6094 218.5289,786.6094 " fill="none" id="User-Transaction" style="stroke:#181818;stroke-width:1;"/><polygon fill="#000000" points="174.7797,708.9889,179.7356,700.8717,174.0179,699.5089,174.7797,708.9889" style="stroke:#000000;stroke-width:1;"/><text fill="#000000" font-family="sans-serif" font-size="13" lengthAdjust="spacing" textLength="45.5317" x="184.9389" y="709.4445">ex&#233;cute</text><text fill="#000000" font-family="sans-serif" font-size="13" lengthAdjust="spacing" textLength="7.23" x="236.8036" y="653.9622">1</text><text fill="#000000" font-family="sans-serif" font-size="13" lengthAdjust="spacing" textLength="19.5127" x="226.4836" y="783.4056">0..*</text></g><!--link Transaction to User--><g id="link_Transaction_User"><path codeLine="99" d="M185.4389,718.5194 C185.4389,682.0794 185.4389,644.6094 185.4389,644.6094 C185.4389,644.6094 211.6789,644.6094 245.7989,644.6094 " fill="none" id="Transaction-to-User" style="stroke:#181818;stroke-width:1;"/><polygon fill="#181818" points="251.7989,644.6094,242.7989,640.6094,246.7989,644.6094,242.7989,648.6094,251.7989,644.6094" style="stroke:#181818;stroke-width:1;"/><text fill="#000000" font-family="sans-serif" font-size="13" lengthAdjust="spacing" textLength="67.9326" x="169.1889" y="662.8745">executedBy</text></g><!--link User to AuditLog--><g id="link_User_AuditLog"><path codeLine="95" d="M355.4389,649.7794 C355.4389,669.7294 355.4389,690.3094 355.4389,709.2594 " fill="none" id="User-AuditLog" style="stroke:#181818;stroke-width:1;"/><polygon fill="#000000" points="360.4389,675.6952,363.3779,666.6501,357.5,666.6501,360.4389,675.6952" style="stroke:#000000;stroke-width:1;"/><text fill="#000000" font-family="sans-serif" font-size="13" lengthAdjust="spacing" textLength="46.2554" x="369.4389" y="676.0145">effectue</text><text fill="#000000" font-family="sans-serif" font-size="13" lengthAdjust="spacing" textLength="7.23" x="350.0078" y="671.4337">1</text><text fill="#000000" font-family="sans-serif" font-size="13" lengthAdjust="spacing" textLength="19.5127" x="337.8743" y="698.6527">0..*</text></g><!--link AuditLog to User--><g id="link_AuditLog_User"><path codeLine="100" d="M306.4389,709.3494 C306.4389,690.4394 306.4389,675.8994 306.4389,655.9894 " fill="none" id="AuditLog-to-User" style="stroke:#181818;stroke-width:1;"/><polygon fill="#181818" points="306.4389,649.9894,302.4389,658.9894,306.4389,654.9894,310.4389,658.9894,306.4389,649.9894" style="stroke:#181818;stroke-width:1;"/><text fill="#000000" font-family="sans-serif" font-size="13" lengthAdjust="spacing" textLength="74.4199" x="231.4389" y="694.1645">performedBy</text></g><!--link Account to Transaction--><g id="link_Account_Transaction"><path codeLine="96" d="M122.4389,641.1194 C122.4389,666.9594 122.4389,694.4594 122.4389,718.5094 " fill="none" id="Account-Transaction" style="stroke:#181818;stroke-width:1;"/><polygon fill="#000000" points="73.4389,675.9852,76.3779,666.9401,70.5,666.9401,73.4389,675.9852" style="stroke:#000000;stroke-width:1;"/><text fill="#000000" font-family="sans-serif" font-size="13" lengthAdjust="spacing" textLength="39.019" x="82.4389" y="676.3045">source</text><text fill="#000000" font-family="sans-serif" font-size="13" lengthAdjust="spacing" textLength="21.6836" x="99.7145" y="662.4812">0..1</text><text fill="#000000" font-family="sans-serif" font-size="13" lengthAdjust="spacing" textLength="19.5127" x="100.6198" y="707.6977">0..*</text></g><!--link Account to Transaction--><g id="link_Account_Transaction"><path codeLine="97" d="M90.9389,641.1194 C90.9389,666.9594 90.9389,694.4594 90.9389,718.5094 " fill="none" id="Account-Transaction-1" style="stroke:#181818;stroke-width:1;"/><polygon fill="#000000" points="18.9389,693.9852,21.8779,684.9401,16,684.9401,18.9389,693.9852" style="stroke:#000000;stroke-width:1;"/><text fill="#000000" font-family="sans-serif" font-size="13" lengthAdjust="spacing" textLength="62.8799" x="27.9389" y="694.3045">destination</text><text fill="#000000" font-family="sans-serif" font-size="13" lengthAdjust="spacing" textLength="21.6836" x="65.8028" y="662.4812">0..1</text><text fill="#000000" font-family="sans-serif" font-size="13" lengthAdjust="spacing" textLength="19.5127" x="65.6745" y="707.6977">0..*</text></g><!--link Account to GMN22--><g id="link_Account_GMN22"><path d="M153.9389,641.1394 C153.9389,662.7994 153.9389,679.6094 153.9389,679.6094 C153.9389,679.6094 1085.9389,679.6094 1085.9389,679.6094 C1085.9389,679.6094 1085.9389,725.4194 1085.9389,757.0894 " fill="none" id="Account-GMN22" style="stroke:#181818;stroke-width:1;stroke-dasharray:7.0,7.0;"/></g><!--link User to GMN28--><g id="link_User_GMN28"><path d="M410.1089,623.6094 C653.2789,623.6094 1372.9389,623.6094 1372.9389,623.6094 C1372.9389,623.6094 1372.9389,734.8694 1372.9389,773.5494 " fill="none" id="User-GMN28" style="stroke:#181818;stroke-width:1;stroke-dasharray:7.0,7.0;"/></g><!--SRC=[bLRDZjis4BxhAGXV0WJr8hdgi83NLX8XNdbXUtCjQ6fiCqjn5FuqtHOBz27w03tMzxw1twHFqg4aorgjd2Qt8R-PqJVV3CUs3rANtF22sJtFyQlKExRboa9aMqGeRkt4EICtta4gKA_aRy3UT5oKrE0UIs1et1wZo4cdWCqatn5Q0CkXpWAM_Vl7dop7WbC4Auu79y54KSd50zy16zN85MXVs17xFM8icEpUWbaYfGmtZ4rcjsbMM- -JR5rPqm_9kv_3SPhG-UaKELKIj5ivxhmzHK_NwQUaCbVtgxiacoMpwfHcBTJ6JuH0hzqw55U7JnVtoqdpqUHkidoVrRdkbejtoMgLBh8icG-akCJXPhwOVcmOJEUBLMMsmMl3jUN2ITGT3hFaRb4pM2RhvIIjxK_fChcjzNYAdePKfRuy1bd9e-f79MoJSynapc8sHxrhpfv0pQbzCLjHzzlxaYA_eia_SBllOrklL3OG0yH0zIzDQ6dSTlVaglb6GU2oGRhbkhaN1hY3VE88IRLrNBi6eLBS77TIzx2dSw7r75miLLHmveiDwT5ZAQH-KQKqrWsL6PXyT_db7lKBJvxd1eXmtzVWbgvf3BXAzHRxkAsdAtusyFyhd2_p0QGZMpEx5tNZDJuiNBKHukuJwfDzzZGQSCCLro84tiZT38Gik6eWB44FrY4Ksa7W5p11ipFfJcsTftMnlgQ4tYiy5LzKsWmGXLz1-679Sx32oDBLh5gzkfhxN8Pn_eRe_UZwsOJNlQu93o1fBqi9Pekck43IqRpQvmI9OlEAHcz73CTZDdfpTVLwr0v9p4gqzlWtRVlhgDeimV7irnKy9esEXo3Ii6yh0Zbkjo2S3uwdBmMdRwIsw8tu0N_gYPEQLwVhAEg2u_5rlIJZjgatZr7BhWEtUX8UQQJ2DkWS5Wot9uL8ndlTx9gpLgNoLe8tbWaiIWVX8Kpt_0jLN5ymNjBFhAkYZdynhva5hveymRdssYZyuey7XfwWup_E6ph4OLkp_1MMnuEfAhGHw9m5WYzeTWgdj3FkZWVuYUtHO5xPT3cn5eKaEp1HhxoJIbhQ8TwS6XgcwE8NWbQKvHPT-4yGVaY0VUQq72qj1HGFn1Y2GboQSvB_0000]--></g></svg>