<svg xmlns="http://www.w3.org/2000/svg" xmlns:xlink="http://www.w3.org/1999/xlink" version="1.1" data-diagram-type="ACTIVITY" style="width:590px;height:800px;background:#FFFFFF;" width="590px" height="800px" viewBox="0 0 590 800" zoomAndPan="magnify" preserveAspectRatio="none" contentStyleType="text/css"><?plantuml 1.2026.7beta3?><defs/><g><g class="title" data-source-line="9"><text x="165.4866" y="40.9951" fill="#000000" font-size="14" lengthAdjust="spacing" textLength="257.8311" font-weight="700" font-family="sans-serif">Activité — Effectuer un virement</text></g><rect x="13" y="66.2969" width="559.8042" height="16.6406" fill="#FFFFCC" style="stroke:#FFDD88;stroke-width:3;" rx="2.5" ry="2.5"/><text x="20" y="76.9375" fill="#000000" font-size="10" lengthAdjust="spacing" textLength="295.0049" font-family="monospace">Please use CSS style instead of skinparam padding</text><ellipse cx="238.8696" cy="99.9375" rx="10" ry="10" fill="#222222" style="stroke:#222222;stroke-width:1;"/><path d="M370.4233,120.9688 L370.4233,157.9063 L350.4233,161.9063 L370.4233,165.9063 L370.4233,202.8438 A0,0 0 0 0 370.4233,202.8438 L569.8042,202.8438 A0,0 0 0 0 569.8042,202.8438 L569.8042,130.9688 L559.8042,120.9688 L370.4233,120.9688 A0,0 0 0 0 370.4233,120.9688" style="stroke:#181818;stroke-width:0.5;" fill="#FEFFDD"/><path d="M559.8042,120.9688 L559.8042,130.9688 L569.8042,130.9688 L559.8042,120.9688" style="stroke:#181818;stroke-width:0.5;" fill="#FEFFDD"/><text x="384.4233" y="145.1074" fill="#000000" font-size="12" lengthAdjust="spacing" textLength="93.0703" font-weight="700" font-family="sans-serif">Cas de refus :</text><text x="384.4233" y="159.0762" fill="#000000" font-size="12" lengthAdjust="spacing" textLength="125.3203" font-family="sans-serif">compte introuvable ;</text><text x="384.4233" y="173.0449" fill="#000000" font-size="12" lengthAdjust="spacing" textLength="162.3809" font-family="sans-serif">compte bloqué ou clôturé ;</text><text x="384.4233" y="187.0137" fill="#000000" font-size="12" lengthAdjust="spacing" textLength="98.2383" font-family="sans-serif">solde insuffisant</text><rect x="127.3159" y="129.9375" width="223.1074" height="63.9375" fill="#F1F1F1" style="stroke:#181818;stroke-width:0.5;" rx="12.5" ry="12.5"/><text x="145.3159" y="159.0762" fill="#000000" font-size="12" lengthAdjust="spacing" textLength="167.4551" font-family="sans-serif">Agent saisit compte source,</text><text x="145.3159" y="173.0449" fill="#000000" font-size="12" lengthAdjust="spacing" textLength="187.1074" font-family="sans-serif">compte destination et montant</text><rect x="126.0825" y="222.8438" width="225.5742" height="63.9375" fill="#F1F1F1" style="stroke:#181818;stroke-width:0.5;" rx="12.5" ry="12.5"/><text x="144.0825" y="251.9824" fill="#000000" font-size="12" lengthAdjust="spacing" textLength="189.5742" font-family="sans-serif">Vérifier existence des comptes,</text><text x="144.0825" y="265.9512" fill="#000000" font-size="12" lengthAdjust="spacing" textLength="177.9609" font-family="sans-serif">statut ACTIVE et solde source</text><polygon points="176.5591,306.7813,301.1802,306.7813,313.1802,328.75,301.1802,350.7188,176.5591,350.7188,164.5591,328.75,176.5591,306.7813" fill="#F1F1F1" style="stroke:#181818;stroke-width:0.5;stroke-linejoin:miter;stroke-miterlimit:10;"/><text x="184.5591" y="325.9199" fill="#000000" font-size="12" lengthAdjust="spacing" textLength="108.6211" font-family="sans-serif">Tous les contrôles</text><text x="184.5591" y="339.8887" fill="#000000" font-size="12" lengthAdjust="spacing" textLength="82.2773" font-family="sans-serif">sont valides ?</text><text x="139.8013" y="318.1558" fill="#000000" font-size="11" lengthAdjust="spacing" textLength="16.7578" font-family="sans-serif">oui</text><text x="321.1802" y="318.1558" fill="#000000" font-size="11" lengthAdjust="spacing" textLength="20.6733" font-family="sans-serif">non</text><rect x="31.5977" y="360.7188" width="188.2031" height="49.9688" fill="#F1F1F1" style="stroke:#181818;stroke-width:0.5;" rx="12.5" ry="12.5"/><text x="49.5977" y="389.8574" fill="#000000" font-size="12" lengthAdjust="spacing" textLength="152.2031" font-family="sans-serif">Débiter le compte source</text><rect x="16" y="444.6563" width="219.3984" height="49.9688" fill="#F1F1F1" style="stroke:#181818;stroke-width:0.5;" rx="12.5" ry="12.5"/><text x="34" y="473.7949" fill="#000000" font-size="12" lengthAdjust="spacing" textLength="183.3984" font-family="sans-serif">Créditer le compte destination</text><rect x="31.3164" y="514.625" width="188.7656" height="49.9688" fill="#F1F1F1" style="stroke:#181818;stroke-width:0.5;" rx="12.5" ry="12.5"/><text x="49.3164" y="543.7637" fill="#000000" font-size="12" lengthAdjust="spacing" textLength="152.7656" font-family="sans-serif">Enregistrer la transaction</text><rect x="39.0391" y="584.5938" width="173.3203" height="49.9688" fill="#F1F1F1" style="stroke:#181818;stroke-width:0.5;" rx="12.5" ry="12.5"/><text x="57.0391" y="613.7324" fill="#000000" font-size="12" lengthAdjust="spacing" textLength="137.3203" font-family="sans-serif">Journaliser dans l'audit</text><rect x="16.3633" y="654.5625" width="218.6719" height="49.9688" fill="#F1F1F1" style="stroke:#181818;stroke-width:0.5;" rx="12.5" ry="12.5"/><text x="34.3633" y="683.7012" fill="#000000" font-size="12" lengthAdjust="spacing" textLength="182.6719" font-family="sans-serif">Afficher confirmation à l'agent</text><rect x="255.3984" y="360.7188" width="193.2832" height="63.9375" fill="#F1F1F1" style="stroke:#181818;stroke-width:0.5;" rx="12.5" ry="12.5"/><text x="273.3984" y="389.8574" fill="#000000" font-size="12" lengthAdjust="spacing" textLength="157.2832" font-family="sans-serif">Afficher message de refus</text><text x="273.3984" y="403.8262" fill="#000000" font-size="12" lengthAdjust="spacing" textLength="52.4648" font-family="sans-serif">à l'agent</text><polygon points="238.8696,714.5313,250.8696,726.5313,238.8696,738.5313,226.8696,726.5313,238.8696,714.5313" fill="#F1F1F1" style="stroke:#181818;stroke-width:0.5;stroke-linejoin:miter;stroke-miterlimit:10;"/><ellipse cx="238.8696" cy="769.5313" rx="11" ry="11" fill="none" style="stroke:#222222;stroke-width:1;"/><ellipse cx="238.8696" cy="769.5313" rx="6" ry="6" fill="#222222" style="stroke:#222222;stroke-width:1;"/><line x1="238.8696" y1="109.9375" x2="238.8696" y2="129.9375" style="stroke:#181818;stroke-width:1;"/><polygon points="234.8696,119.9375,238.8696,129.9375,242.8696,119.9375,238.8696,123.9375" fill="#181818" style="stroke:#181818;stroke-width:1;stroke-linejoin:miter;stroke-miterlimit:10;"/><line x1="238.8696" y1="193.875" x2="238.8696" y2="222.8438" style="stroke:#181818;stroke-width:1;"/><polygon points="234.8696,212.8438,238.8696,222.8438,242.8696,212.8438,238.8696,216.8438" fill="#181818" style="stroke:#181818;stroke-width:1;stroke-linejoin:miter;stroke-miterlimit:10;"/><line x1="125.6992" y1="410.6875" x2="125.6992" y2="444.6563" style="stroke:#181818;stroke-width:1;"/><polygon points="121.6992,434.6563,125.6992,444.6563,129.6992,434.6563,125.6992,438.6563" fill="#181818" style="stroke:#181818;stroke-width:1;stroke-linejoin:miter;stroke-miterlimit:10;"/><line x1="125.6992" y1="494.625" x2="125.6992" y2="514.625" style="stroke:#181818;stroke-width:1;"/><polygon points="121.6992,504.625,125.6992,514.625,129.6992,504.625,125.6992,508.625" fill="#181818" style="stroke:#181818;stroke-width:1;stroke-linejoin:miter;stroke-miterlimit:10;"/><line x1="125.6992" y1="564.5938" x2="125.6992" y2="584.5938" style="stroke:#181818;stroke-width:1;"/><polygon points="121.6992,574.5938,125.6992,584.5938,129.6992,574.5938,125.6992,578.5938" fill="#181818" style="stroke:#181818;stroke-width:1;stroke-linejoin:miter;stroke-miterlimit:10;"/><line x1="125.6992" y1="634.5625" x2="125.6992" y2="654.5625" style="stroke:#181818;stroke-width:1;"/><polygon points="121.6992,644.5625,125.6992,654.5625,129.6992,644.5625,125.6992,648.5625" fill="#181818" style="stroke:#181818;stroke-width:1;stroke-linejoin:miter;stroke-miterlimit:10;"/><line x1="164.5591" y1="328.75" x2="125.6992" y2="328.75" style="stroke:#181818;stroke-width:1;"/><line x1="125.6992" y1="328.75" x2="125.6992" y2="360.7188" style="stroke:#181818;stroke-width:1;"/><polygon points="121.6992,350.7188,125.6992,360.7188,129.6992,350.7188,125.6992,354.7188" fill="#181818" style="stroke:#181818;stroke-width:1;stroke-linejoin:miter;stroke-miterlimit:10;"/><line x1="313.1802" y1="328.75" x2="352.04" y2="328.75" style="stroke:#181818;stroke-width:1;"/><line x1="352.04" y1="328.75" x2="352.04" y2="360.7188" style="stroke:#181818;stroke-width:1;"/><polygon points="348.04,350.7188,352.04,360.7188,356.04,350.7188,352.04,354.7188" fill="#181818" style="stroke:#181818;stroke-width:1;stroke-linejoin:miter;stroke-miterlimit:10;"/><line x1="125.6992" y1="704.5313" x2="125.6992" y2="726.5313" style="stroke:#181818;stroke-width:1;"/><line x1="125.6992" y1="726.5313" x2="226.8696" y2="726.5313" style="stroke:#181818;stroke-width:1;"/><polygon points="216.8696,722.5313,226.8696,726.5313,216.8696,730.5313,220.8696,726.5313" fill="#181818" style="stroke:#181818;stroke-width:1;stroke-linejoin:miter;stroke-miterlimit:10;"/><line x1="352.04" y1="424.6563" x2="352.04" y2="726.5313" style="stroke:#181818;stroke-width:1;"/><line x1="352.04" y1="726.5313" x2="250.8696" y2="726.5313" style="stroke:#181818;stroke-width:1;"/><polygon points="260.8696,722.5313,250.8696,726.5313,260.8696,730.5313,256.8696,726.5313" fill="#181818" style="stroke:#181818;stroke-width:1;stroke-linejoin:miter;stroke-miterlimit:10;"/><line x1="238.8696" y1="286.7813" x2="238.8696" y2="306.7813" style="stroke:#181818;stroke-width:1;"/><polygon points="234.8696,296.7813,238.8696,306.7813,242.8696,296.7813,238.8696,300.7813" fill="#181818" style="stroke:#181818;stroke-width:1;stroke-linejoin:miter;stroke-miterlimit:10;"/><line x1="238.8696" y1="738.5313" x2="238.8696" y2="758.5313" style="stroke:#181818;stroke-width:1;"/><polygon points="234.8696,748.5313,238.8696,758.5313,242.8696,748.5313,238.8696,752.5313" fill="#181818" style="stroke:#181818;stroke-width:1;stroke-linejoin:miter;stroke-miterlimit:10;"/><?plantuml-src TPAzRXin3CVtUmfkjOqEJOi2XJqKXkC2xTeWKnRvHDb4xgYBI3bjfpv47w2hzxp1lKcVfDJPSSu5EadYdny_af9xuiubruBid8-Fn5i8hX6ivAnu32ut-YcoVgKV25TlH-AoLjgJVl-Fcb9yV96kHX97Zu8Tl7ipCYR7zuFn_SZOEUyBruUgKj86dsls1_ZpynUiGy1QCoR837jAs29hLOcwPCTykRKdY2CXXJgsdI98pAd6rtTyUXk94Zkbo80AhG4xraLLSJGrqNQd5S1ijd9Ylf0mP87vR6R6KmPYJJ7ltSRm5Y_cJHCVid7637NJFsbEzYYwnCQNACaXa5Yn2jb3AMV8j_qXKI3h2B-HA78z89wIYd5RSveLbgkRpxVhWdpCT-pBk2d0v2OQP3E46Lp_P5SBj3liNKCbtySfw0uP9Z7JrA3cr_rXGsfrhOkBKHNa-ShW_J_oQ7A3pveJReqv5Iy7QWiLLv_bBvQDhRgOx4s2vfNBbdCGbpQAUcUA0GTAxN4V_U_YL9QugD0-9amuylJ2lqKHypYlveulWjXJAFyXTdy1?></g></svg>