<svg xmlns="http://www.w3.org/2000/svg" xmlns:xlink="http://www.w3.org/1999/xlink" contentStyleType="text/css" height="798px" preserveAspectRatio="none" style="width:523px;height:798px;background:#FFFFFF;" version="1.1" viewBox="0 0 523 798" width="523px" zoomAndPan="magnify"><title>Diagramme de classes &#8212; domaine m&#233;tier</title><defs/><g><text fill="#000000" font-family="sans-serif" font-size="14" font-weight="bold" lengthAdjust="spacing" textLength="276.6709" x="116.1646" y="24.5332">Diagramme de classes &#8212; domaine m&#233;tier</text><!--cluster domain--><g id="cluster_domain"><rect fill="none" height="747" rx="2.5" ry="2.5" style="stroke:#000000;stroke-width:1.5;" width="510" x="7" y="45.6094"/><text fill="#000000" font-family="sans-serif" font-size="11" font-weight="bold" lengthAdjust="spacing" textLength="39.1123" x="242.4438" y="59.0283">domain</text></g><!--cluster entity--><g id="cluster_entity"><rect fill="none" height="683" rx="2.5" ry="2.5" style="stroke:#000000;stroke-width:1.5;" width="462" x="31" y="85.6094"/><text fill="#000000" font-family="sans-serif" font-size="11" font-weight="bold" lengthAdjust="spacing" textLength="29.3369" x="247.3315" y="99.0283">entity</text></g><!--class User--><g id="elem_User"><rect codeLine="14" fill="#F1F1F1" height="85.5078" id="User" rx="2.5" ry="2.5" style="stroke:#181818;stroke-width:0.5;" width="102.4814" x="311" y="125.6094"/><ellipse cx="347.0656" cy="139.6094" fill="#ADD1B2" rx="9" ry="9" style="stroke:#181818;stroke-width:1;"/><path d="M348.5968,136.875 Q348.6906,136.7344 348.8156,136.6719 Q348.9406,136.5938 349.0812,136.5938 Q349.3156,136.5938 349.4718,136.7656 Q349.6281,136.9375 349.6281,137.3281 L349.6281,138.2656 Q349.6281,138.6563 349.4718,138.8281 Q349.3156,139 349.0812,139 Q348.8625,139 348.7218,138.875 Q348.5812,138.75 348.5187,138.4219 Q348.4875,138.1875 348.3781,138.0625 Q348.1593,137.8281 347.7531,137.6875 Q347.3625,137.5313 346.9718,137.5313 Q346.4718,137.5313 346.05,137.75 Q345.6437,137.9688 345.3156,138.4531 Q345.0031,138.9375 345.0031,139.5938 L345.0031,140.3125 Q345.0031,141.1094 345.5812,141.6406 Q346.1593,142.1719 347.1906,142.1719 Q347.8,142.1719 348.2218,142 Q348.4718,141.9063 348.7531,141.625 Q348.925,141.4531 349.0187,141.4063 Q349.1125,141.3438 349.2375,141.3438 Q349.4562,141.3438 349.6281,141.5156 Q349.8,141.6875 349.8,141.9063 Q349.8,142.125 349.5656,142.3906 Q349.2375,142.7656 348.7218,142.9844 Q348.0343,143.2656 347.1906,143.2656 Q346.2218,143.2656 345.4406,142.875 Q344.8,142.5469 344.3468,141.8594 Q343.9093,141.1563 343.9093,140.3281 L343.9093,139.5781 Q343.9093,138.7188 344.3,137.9844 Q344.7062,137.2344 345.4093,136.8438 Q346.1281,136.4375 346.925,136.4375 Q347.3937,136.4375 347.8156,136.5469 Q348.2375,136.6563 348.5968,136.875 Z " fill="#000000"/><text fill="#000000" font-family="sans-serif" font-size="11" lengthAdjust="spacing" textLength="23.2246" x="364.1913" y="144.1104">User</text><line style="stroke:#181818;stroke-width:0.5;" x1="312" x2="412.4814" y1="153.6094" y2="153.6094"/><text fill="#000000" font-family="sans-serif" font-size="11" lengthAdjust="spacing" textLength="90.4814" x="317" y="169.0283">-username : String</text><text fill="#000000" font-family="sans-serif" font-size="11" lengthAdjust="spacing" textLength="77.0215" x="317" y="182.8643">-role : UserRole</text><text fill="#000000" font-family="sans-serif" font-size="11" lengthAdjust="spacing" textLength="84.9707" x="317" y="196.7002">-fullName : String</text><line style="stroke:#181818;stroke-width:0.5;" x1="312" x2="412.4814" y1="203.1172" y2="203.1172"/></g><!--class Client--><g id="elem_Client"><rect codeLine="19" fill="#F1F1F1" height="85.5078" id="Client" rx="2.5" ry="2.5" style="stroke:#181818;stroke-width:0.5;" width="118.3691" x="288" y="229.6094"/><ellipse cx="329.373" cy="243.6094" fill="#ADD1B2" rx="9" ry="9" style="stroke:#181818;stroke-width:1;"/><path d="M330.9043,240.875 Q330.998,240.7344 331.123,240.6719 Q331.248,240.5938 331.3887,240.5938 Q331.623,240.5938 331.7793,240.7656 Q331.9355,240.9375 331.9355,241.3281 L331.9355,242.2656 Q331.9355,242.6563 331.7793,242.8281 Q331.623,243 331.3887,243 Q331.1699,243 331.0293,242.875 Q330.8887,242.75 330.8262,242.4219 Q330.7949,242.1875 330.6855,242.0625 Q330.4668,241.8281 330.0605,241.6875 Q329.6699,241.5313 329.2793,241.5313 Q328.7793,241.5313 328.3574,241.75 Q327.9512,241.9688 327.623,242.4531 Q327.3105,242.9375 327.3105,243.5938 L327.3105,244.3125 Q327.3105,245.1094 327.8887,245.6406 Q328.4668,246.1719 329.498,246.1719 Q330.1074,246.1719 330.5293,246 Q330.7793,245.9063 331.0605,245.625 Q331.2324,245.4531 331.3262,245.4063 Q331.4199,245.3438 331.5449,245.3438 Q331.7637,245.3438 331.9355,245.5156 Q332.1074,245.6875 332.1074,245.9063 Q332.1074,246.125 331.873,246.3906 Q331.5449,246.7656 331.0293,246.9844 Q330.3418,247.2656 329.498,247.2656 Q328.5293,247.2656 327.748,246.875 Q327.1074,246.5469 326.6543,245.8594 Q326.2168,245.1563 326.2168,244.3281 L326.2168,243.5781 Q326.2168,242.7188 326.6074,241.9844 Q327.0137,241.2344 327.7168,240.8438 Q328.4355,240.4375 329.2324,240.4375 Q329.7012,240.4375 330.123,240.5469 Q330.5449,240.6563 330.9043,240.875 Z " fill="#000000"/><text fill="#000000" font-family="sans-serif" font-size="11" lengthAdjust="spacing" textLength="28.123" x="346.873" y="248.1104">Client</text><line style="stroke:#181818;stroke-width:0.5;" x1="289" x2="405.3691" y1="257.6094" y2="257.6094"/><text fill="#000000" font-family="sans-serif" font-size="11" lengthAdjust="spacing" textLength="106.3691" x="294" y="273.0283">-clientNumber : String</text><text fill="#000000" font-family="sans-serif" font-size="11" lengthAdjust="spacing" textLength="55.6284" x="294" y="286.8643">-cin : String</text><text fill="#000000" font-family="sans-serif" font-size="11" lengthAdjust="spacing" textLength="101.4868" x="294" y="300.7002">-status : ClientStatus</text><line style="stroke:#181818;stroke-width:0.5;" x1="289" x2="405.3691" y1="307.1172" y2="307.1172"/></g><!--class Account--><g id="elem_Account"><rect codeLine="24" fill="#F1F1F1" height="99.3438" id="Account" rx="2.5" ry="2.5" style="stroke:#181818;stroke-width:0.5;" width="131.2168" x="281.5" y="333.6094"/><ellipse cx="323.4854" cy="347.6094" fill="#ADD1B2" rx="9" ry="9" style="stroke:#181818;stroke-width:1;"/><path d="M325.0166,344.875 Q325.1104,344.7344 325.2354,344.6719 Q325.3604,344.5938 325.501,344.5938 Q325.7354,344.5938 325.8916,344.7656 Q326.0479,344.9375 326.0479,345.3281 L326.0479,346.2656 Q326.0479,346.6563 325.8916,346.8281 Q325.7354,347 325.501,347 Q325.2822,347 325.1416,346.875 Q325.001,346.75 324.9385,346.4219 Q324.9072,346.1875 324.7979,346.0625 Q324.5791,345.8281 324.1729,345.6875 Q323.7822,345.5313 323.3916,345.5313 Q322.8916,345.5313 322.4697,345.75 Q322.0635,345.9688 321.7354,346.4531 Q321.4229,346.9375 321.4229,347.5938 L321.4229,348.3125 Q321.4229,349.1094 322.001,349.6406 Q322.5791,350.1719 323.6104,350.1719 Q324.2197,350.1719 324.6416,350 Q324.8916,349.9063 325.1729,349.625 Q325.3447,349.4531 325.4385,349.4063 Q325.5322,349.3438 325.6572,349.3438 Q325.876,349.3438 326.0479,349.5156 Q326.2197,349.6875 326.2197,349.9063 Q326.2197,350.125 325.9854,350.3906 Q325.6572,350.7656 325.1416,350.9844 Q324.4541,351.2656 323.6104,351.2656 Q322.6416,351.2656 321.8604,350.875 Q321.2197,350.5469 320.7666,349.8594 Q320.3291,349.1563 320.3291,348.3281 L320.3291,347.5781 Q320.3291,346.7188 320.7197,345.9844 Q321.126,345.2344 321.8291,344.8438 Q322.5479,344.4375 323.3447,344.4375 Q323.8135,344.4375 324.2354,344.5469 Q324.6572,344.6563 325.0166,344.875 Z " fill="#000000"/><text fill="#000000" font-family="sans-serif" font-size="11" lengthAdjust="spacing" textLength="39.7461" x="340.9854" y="352.1104">Account</text><line style="stroke:#181818;stroke-width:0.5;" x1="282.5" x2="411.7168" y1="361.6094" y2="361.6094"/><text fill="#000000" font-family="sans-serif" font-size="11" lengthAdjust="spacing" textLength="119.2168" x="287.5" y="377.0283">-accountNumber : String</text><text fill="#000000" font-family="sans-serif" font-size="11" lengthAdjust="spacing" textLength="97.8237" x="287.5" y="390.8643">-type : AccountType</text><text fill="#000000" font-family="sans-serif" font-size="11" lengthAdjust="spacing" textLength="106.9922" x="287.5" y="404.7002">-balance : BigDecimal</text><text fill="#000000" font-family="sans-serif" font-size="11" lengthAdjust="spacing" textLength="113.1099" x="287.5" y="418.5361">-status : AccountStatus</text><line style="stroke:#181818;stroke-width:0.5;" x1="282.5" x2="411.7168" y1="424.9531" y2="424.9531"/></g><!--class Transaction--><g id="elem_Transaction"><rect codeLine="30" fill="#F1F1F1" height="85.5078" id="Transaction" rx="2.5" ry="2.5" style="stroke:#181818;stroke-width:0.5;" width="127.5483" x="283" y="450.6094"/><ellipse cx="314.9349" cy="464.6094" fill="#ADD1B2" rx="9" ry="9" style="stroke:#181818;stroke-width:1;"/><path d="M316.4662,461.875 Q316.5599,461.7344 316.6849,461.6719 Q316.8099,461.5938 316.9506,461.5938 Q317.1849,461.5938 317.3412,461.7656 Q317.4974,461.9375 317.4974,462.3281 L317.4974,463.2656 Q317.4974,463.6563 317.3412,463.8281 Q317.1849,464 316.9506,464 Q316.7318,464 316.5912,463.875 Q316.4506,463.75 316.3881,463.4219 Q316.3568,463.1875 316.2474,463.0625 Q316.0287,462.8281 315.6224,462.6875 Q315.2318,462.5313 314.8412,462.5313 Q314.3412,462.5313 313.9193,462.75 Q313.5131,462.9688 313.1849,463.4531 Q312.8724,463.9375 312.8724,464.5938 L312.8724,465.3125 Q312.8724,466.1094 313.4506,466.6406 Q314.0287,467.1719 315.0599,467.1719 Q315.6693,467.1719 316.0912,467 Q316.3412,466.9063 316.6224,466.625 Q316.7943,466.4531 316.8881,466.4063 Q316.9818,466.3438 317.1068,466.3438 Q317.3256,466.3438 317.4974,466.5156 Q317.6693,466.6875 317.6693,466.9063 Q317.6693,467.125 317.4349,467.3906 Q317.1068,467.7656 316.5912,467.9844 Q315.9037,468.2656 315.0599,468.2656 Q314.0912,468.2656 313.3099,467.875 Q312.6693,467.5469 312.2162,466.8594 Q311.7787,466.1563 311.7787,465.3281 L311.7787,464.5781 Q311.7787,463.7188 312.1693,462.9844 Q312.5756,462.2344 313.2787,461.8438 Q313.9974,461.4375 314.7943,461.4375 Q315.2631,461.4375 315.6849,461.5469 Q316.1068,461.6563 316.4662,461.875 Z " fill="#000000"/><text fill="#000000" font-family="sans-serif" font-size="11" lengthAdjust="spacing" textLength="57.4707" x="331.1427" y="469.1104">Transaction</text><line style="stroke:#181818;stroke-width:0.5;" x1="284" x2="409.5483" y1="478.6094" y2="478.6094"/><text fill="#000000" font-family="sans-serif" font-size="11" lengthAdjust="spacing" textLength="115.5483" x="289" y="494.0283">-type : TransactionType</text><text fill="#000000" font-family="sans-serif" font-size="11" lengthAdjust="spacing" textLength="105.1499" x="289" y="507.8643">-amount : BigDecimal</text><text fill="#000000" font-family="sans-serif" font-size="11" lengthAdjust="spacing" textLength="100.8906" x="289" y="521.7002">-executedAt : Instant</text><line style="stroke:#181818;stroke-width:0.5;" x1="284" x2="409.5483" y1="528.1172" y2="528.1172"/></g><!--class BillProvider--><g id="elem_BillProvider"><rect codeLine="41" fill="#F1F1F1" height="71.6719" id="BillProvider" rx="2.5" ry="2.5" style="stroke:#181818;stroke-width:0.5;" width="83.6284" x="144" y="236.6094"/><ellipse cx="157" cy="250.6094" fill="#ADD1B2" rx="9" ry="9" style="stroke:#181818;stroke-width:1;"/><path d="M158.5313,247.875 Q158.625,247.7344 158.75,247.6719 Q158.875,247.5938 159.0156,247.5938 Q159.25,247.5938 159.4063,247.7656 Q159.5625,247.9375 159.5625,248.3281 L159.5625,249.2656 Q159.5625,249.6563 159.4063,249.8281 Q159.25,250 159.0156,250 Q158.7969,250 158.6563,249.875 Q158.5156,249.75 158.4531,249.4219 Q158.4219,249.1875 158.3125,249.0625 Q158.0938,248.8281 157.6875,248.6875 Q157.2969,248.5313 156.9063,248.5313 Q156.4063,248.5313 155.9844,248.75 Q155.5781,248.9688 155.25,249.4531 Q154.9375,249.9375 154.9375,250.5938 L154.9375,251.3125 Q154.9375,252.1094 155.5156,252.6406 Q156.0938,253.1719 157.125,253.1719 Q157.7344,253.1719 158.1563,253 Q158.4063,252.9063 158.6875,252.625 Q158.8594,252.4531 158.9531,252.4063 Q159.0469,252.3438 159.1719,252.3438 Q159.3906,252.3438 159.5625,252.5156 Q159.7344,252.6875 159.7344,252.9063 Q159.7344,253.125 159.5,253.3906 Q159.1719,253.7656 158.6563,253.9844 Q157.9688,254.2656 157.125,254.2656 Q156.1563,254.2656 155.375,253.875 Q154.7344,253.5469 154.2813,252.8594 Q153.8438,252.1563 153.8438,251.3281 L153.8438,250.5781 Q153.8438,249.7188 154.2344,248.9844 Q154.6406,248.2344 155.3438,247.8438 Q156.0625,247.4375 156.8594,247.4375 Q157.3281,247.4375 157.75,247.5469 Q158.1719,247.6563 158.5313,247.875 Z " fill="#000000"/><text fill="#000000" font-family="sans-serif" font-size="11" lengthAdjust="spacing" textLength="55.6284" x="169" y="255.1104">BillProvider</text><line style="stroke:#181818;stroke-width:0.5;" x1="145" x2="226.6284" y1="264.6094" y2="264.6094"/><text fill="#000000" font-family="sans-serif" font-size="11" lengthAdjust="spacing" textLength="65.4199" x="150" y="280.0283">-code : String</text><text fill="#000000" font-family="sans-serif" font-size="11" lengthAdjust="spacing" textLength="69.083" x="150" y="293.8643">-name : String</text><line style="stroke:#181818;stroke-width:0.5;" x1="145" x2="226.6284" y1="300.2813" y2="300.2813"/></g><!--class BillPayment--><g id="elem_BillPayment"><rect codeLine="45" fill="#F1F1F1" height="71.6719" id="BillPayment" rx="2.5" ry="2.5" style="stroke:#181818;stroke-width:0.5;" width="129.9976" x="121" y="347.1094"/><ellipse cx="153.764" cy="361.1094" fill="#ADD1B2" rx="9" ry="9" style="stroke:#181818;stroke-width:1;"/><path d="M155.2952,358.375 Q155.389,358.2344 155.514,358.1719 Q155.639,358.0938 155.7796,358.0938 Q156.014,358.0938 156.1702,358.2656 Q156.3265,358.4375 156.3265,358.8281 L156.3265,359.7656 Q156.3265,360.1563 156.1702,360.3281 Q156.014,360.5 155.7796,360.5 Q155.5608,360.5 155.4202,360.375 Q155.2796,360.25 155.2171,359.9219 Q155.1858,359.6875 155.0765,359.5625 Q154.8577,359.3281 154.4515,359.1875 Q154.0608,359.0313 153.6702,359.0313 Q153.1702,359.0313 152.7483,359.25 Q152.3421,359.4688 152.014,359.9531 Q151.7015,360.4375 151.7015,361.0938 L151.7015,361.8125 Q151.7015,362.6094 152.2796,363.1406 Q152.8577,363.6719 153.889,363.6719 Q154.4983,363.6719 154.9202,363.5 Q155.1702,363.4063 155.4515,363.125 Q155.6233,362.9531 155.7171,362.9063 Q155.8108,362.8438 155.9358,362.8438 Q156.1546,362.8438 156.3265,363.0156 Q156.4983,363.1875 156.4983,363.4063 Q156.4983,363.625 156.264,363.8906 Q155.9358,364.2656 155.4202,364.4844 Q154.7327,364.7656 153.889,364.7656 Q152.9202,364.7656 152.139,364.375 Q151.4983,364.0469 151.0452,363.3594 Q150.6077,362.6563 150.6077,361.8281 L150.6077,361.0781 Q150.6077,360.2188 150.9983,359.4844 Q151.4046,358.7344 152.1077,358.3438 Q152.8265,357.9375 153.6233,357.9375 Q154.0921,357.9375 154.514,358.0469 Q154.9358,358.1563 155.2952,358.375 Z " fill="#000000"/><text fill="#000000" font-family="sans-serif" font-size="11" lengthAdjust="spacing" textLength="58.0776" x="170.156" y="365.6104">BillPayment</text><line style="stroke:#181818;stroke-width:0.5;" x1="122" x2="249.9976" y1="375.1094" y2="375.1094"/><text fill="#000000" font-family="sans-serif" font-size="11" lengthAdjust="spacing" textLength="117.9976" x="127" y="390.5283">-clientReference : String</text><text fill="#000000" font-family="sans-serif" font-size="11" lengthAdjust="spacing" textLength="105.1499" x="127" y="404.3643">-amount : BigDecimal</text><line style="stroke:#181818;stroke-width:0.5;" x1="122" x2="249.9976" y1="410.7813" y2="410.7813"/></g><!--class CheckbookOrder--><g id="elem_CheckbookOrder"><rect codeLine="49" fill="#F1F1F1" height="85.5078" id="CheckbookOrder" rx="2.5" ry="2.5" style="stroke:#181818;stroke-width:0.5;" width="194.2251" x="63" y="450.6094"/><ellipse cx="114.7876" cy="464.6094" fill="#ADD1B2" rx="9" ry="9" style="stroke:#181818;stroke-width:1;"/><path d="M116.3188,461.875 Q116.4126,461.7344 116.5376,461.6719 Q116.6626,461.5938 116.8032,461.5938 Q117.0376,461.5938 117.1938,461.7656 Q117.3501,461.9375 117.3501,462.3281 L117.3501,463.2656 Q117.3501,463.6563 117.1938,463.8281 Q117.0376,464 116.8032,464 Q116.5845,464 116.4438,463.875 Q116.3032,463.75 116.2407,463.4219 Q116.2095,463.1875 116.1001,463.0625 Q115.8813,462.8281 115.4751,462.6875 Q115.0845,462.5313 114.6938,462.5313 Q114.1938,462.5313 113.772,462.75 Q113.3657,462.9688 113.0376,463.4531 Q112.7251,463.9375 112.7251,464.5938 L112.7251,465.3125 Q112.7251,466.1094 113.3032,466.6406 Q113.8813,467.1719 114.9126,467.1719 Q115.522,467.1719 115.9438,467 Q116.1938,466.9063 116.4751,466.625 Q116.647,466.4531 116.7407,466.4063 Q116.8345,466.3438 116.9595,466.3438 Q117.1782,466.3438 117.3501,466.5156 Q117.522,466.6875 117.522,466.9063 Q117.522,467.125 117.2876,467.3906 Q116.9595,467.7656 116.4438,467.9844 Q115.7563,468.2656 114.9126,468.2656 Q113.9438,468.2656 113.1626,467.875 Q112.522,467.5469 112.0688,466.8594 Q111.6313,466.1563 111.6313,465.3281 L111.6313,464.5781 Q111.6313,463.7188 112.022,462.9844 Q112.4282,462.2344 113.1313,461.8438 Q113.8501,461.4375 114.647,461.4375 Q115.1157,461.4375 115.5376,461.5469 Q115.9595,461.6563 116.3188,461.875 Z " fill="#000000"/><text fill="#000000" font-family="sans-serif" font-size="11" lengthAdjust="spacing" textLength="83.1499" x="132.2876" y="469.1104">CheckbookOrder</text><line style="stroke:#181818;stroke-width:0.5;" x1="64" x2="256.2251" y1="478.6094" y2="478.6094"/><text fill="#000000" font-family="sans-serif" font-size="11" lengthAdjust="spacing" textLength="106.3691" x="69" y="494.0283">-orderNumber : String</text><text fill="#000000" font-family="sans-serif" font-size="11" lengthAdjust="spacing" textLength="156.5137" x="69" y="507.8643">-status : CheckbookOrderStatus</text><text fill="#000000" font-family="sans-serif" font-size="11" lengthAdjust="spacing" textLength="182.2251" x="69" y="521.7002">-sheetCount : CheckbookSheetCount</text><line style="stroke:#181818;stroke-width:0.5;" x1="64" x2="256.2251" y1="528.1172" y2="528.1172"/></g><!--class Notification--><g id="elem_Notification"><rect codeLine="54" fill="#F1F1F1" height="85.5078" id="Notification" rx="2.5" ry="2.5" style="stroke:#181818;stroke-width:0.5;" width="124.4922" x="115" y="554.6094"/><ellipse cx="146.9349" cy="568.6094" fill="#ADD1B2" rx="9" ry="9" style="stroke:#181818;stroke-width:1;"/><path d="M148.4662,565.875 Q148.5599,565.7344 148.6849,565.6719 Q148.8099,565.5938 148.9506,565.5938 Q149.1849,565.5938 149.3412,565.7656 Q149.4974,565.9375 149.4974,566.3281 L149.4974,567.2656 Q149.4974,567.6563 149.3412,567.8281 Q149.1849,568 148.9506,568 Q148.7318,568 148.5912,567.875 Q148.4506,567.75 148.3881,567.4219 Q148.3568,567.1875 148.2474,567.0625 Q148.0287,566.8281 147.6224,566.6875 Q147.2318,566.5313 146.8412,566.5313 Q146.3412,566.5313 145.9193,566.75 Q145.5131,566.9688 145.1849,567.4531 Q144.8724,567.9375 144.8724,568.5938 L144.8724,569.3125 Q144.8724,570.1094 145.4506,570.6406 Q146.0287,571.1719 147.0599,571.1719 Q147.6693,571.1719 148.0912,571 Q148.3412,570.9063 148.6224,570.625 Q148.7943,570.4531 148.8881,570.4063 Q148.9818,570.3438 149.1068,570.3438 Q149.3256,570.3438 149.4974,570.5156 Q149.6693,570.6875 149.6693,570.9063 Q149.6693,571.125 149.4349,571.3906 Q149.1068,571.7656 148.5912,571.9844 Q147.9037,572.2656 147.0599,572.2656 Q146.0912,572.2656 145.3099,571.875 Q144.6693,571.5469 144.2162,570.8594 Q143.7787,570.1563 143.7787,569.3281 L143.7787,568.5781 Q143.7787,567.7188 144.1693,566.9844 Q144.5756,566.2344 145.2787,565.8438 Q145.9974,565.4375 146.7943,565.4375 Q147.2631,565.4375 147.6849,565.5469 Q148.1068,565.6563 148.4662,565.875 Z " fill="#000000"/><text fill="#000000" font-family="sans-serif" font-size="11" lengthAdjust="spacing" textLength="54.4146" x="163.1427" y="573.1104">Notification</text><line style="stroke:#181818;stroke-width:0.5;" x1="116" x2="238.4922" y1="582.6094" y2="582.6094"/><text fill="#000000" font-family="sans-serif" font-size="11" lengthAdjust="spacing" textLength="112.4922" x="121" y="598.0283">-type : NotificationType</text><text fill="#000000" font-family="sans-serif" font-size="11" lengthAdjust="spacing" textLength="58.6846" x="121" y="611.8643">-title : String</text><text fill="#000000" font-family="sans-serif" font-size="11" lengthAdjust="spacing" textLength="73.9976" x="121" y="625.7002">-read : boolean</text><line style="stroke:#181818;stroke-width:0.5;" x1="116" x2="238.4922" y1="632.1172" y2="632.1172"/></g><!--class AuditLog--><g id="elem_AuditLog"><rect codeLine="59" fill="#F1F1F1" height="85.5078" id="AuditLog" rx="2.5" ry="2.5" style="stroke:#181818;stroke-width:0.5;" width="118.3799" x="139" y="658.6094"/><ellipse cx="173.1296" cy="672.6094" fill="#ADD1B2" rx="9" ry="9" style="stroke:#181818;stroke-width:1;"/><path d="M174.6608,669.875 Q174.7546,669.7344 174.8796,669.6719 Q175.0046,669.5938 175.1452,669.5938 Q175.3796,669.5938 175.5358,669.7656 Q175.6921,669.9375 175.6921,670.3281 L175.6921,671.2656 Q175.6921,671.6563 175.5358,671.8281 Q175.3796,672 175.1452,672 Q174.9264,672 174.7858,671.875 Q174.6452,671.75 174.5827,671.4219 Q174.5514,671.1875 174.4421,671.0625 Q174.2233,670.8281 173.8171,670.6875 Q173.4264,670.5313 173.0358,670.5313 Q172.5358,670.5313 172.1139,670.75 Q171.7077,670.9688 171.3796,671.4531 Q171.0671,671.9375 171.0671,672.5938 L171.0671,673.3125 Q171.0671,674.1094 171.6452,674.6406 Q172.2233,675.1719 173.2546,675.1719 Q173.8639,675.1719 174.2858,675 Q174.5358,674.9063 174.8171,674.625 Q174.9889,674.4531 175.0827,674.4063 Q175.1764,674.3438 175.3014,674.3438 Q175.5202,674.3438 175.6921,674.5156 Q175.8639,674.6875 175.8639,674.9063 Q175.8639,675.125 175.6296,675.3906 Q175.3014,675.7656 174.7858,675.9844 Q174.0983,676.2656 173.2546,676.2656 Q172.2858,676.2656 171.5046,675.875 Q170.8639,675.5469 170.4108,674.8594 Q169.9733,674.1563 169.9733,673.3281 L169.9733,672.5781 Q169.9733,671.7188 170.3639,670.9844 Q170.7702,670.2344 171.4733,669.8438 Q172.1921,669.4375 172.9889,669.4375 Q173.4577,669.4375 173.8796,669.5469 Q174.3014,669.6563 174.6608,669.875 Z " fill="#000000"/><text fill="#000000" font-family="sans-serif" font-size="11" lengthAdjust="spacing" textLength="43.4253" x="189.825" y="677.1104">AuditLog</text><line style="stroke:#181818;stroke-width:0.5;" x1="140" x2="256.3799" y1="686.6094" y2="686.6094"/><text fill="#000000" font-family="sans-serif" font-size="11" lengthAdjust="spacing" textLength="70.9199" x="145" y="702.0283">-action : String</text><text fill="#000000" font-family="sans-serif" font-size="11" lengthAdjust="spacing" textLength="92.313" x="145" y="715.8643">-entityType : String</text><text fill="#000000" font-family="sans-serif" font-size="11" lengthAdjust="spacing" textLength="106.3799" x="145" y="729.7002">-performedAt : Instant</text><line style="stroke:#181818;stroke-width:0.5;" x1="140" x2="256.3799" y1="736.1172" y2="736.1172"/></g><!--link User to Client--><!--link Client to Account--><!--reverse link Client to Account--><g id="link_Client_Account"><path codeLine="72" d="M327.33,327.6494 C327.33,333.4694 327.33,327.4694 327.33,333.3994 " fill="none" id="Client-backto-Account" style="stroke:#181818;stroke-width:1;"/><polygon fill="none" points="327.33,315.6494,323.33,321.6494,327.33,327.6494,331.33,321.6494,327.33,315.6494" style="stroke:#181818;stroke-width:1;"/><polygon fill="#000000" points="277.33,336.4373,279.6811,329.2013,274.9789,329.2013,277.33,336.4373" style="stroke:#000000;stroke-width:1;"/><text fill="#000000" font-family="sans-serif" font-size="11" lengthAdjust="spacing" textLength="41.5884" x="285.33" y="336.9383">poss&#232;de</text><text fill="#000000" font-family="sans-serif" font-size="11" lengthAdjust="spacing" textLength="6.1177" x="312.6054" y="323.4406">1</text><text fill="#000000" font-family="sans-serif" font-size="11" lengthAdjust="spacing" textLength="16.5107" x="324.2757" y="323.4866">0..*</text></g><!--link Account to Transaction--><!--link Account to Transaction--><g id="link_Account_Transaction"><path codeLine="74" d="M315,432.8594 C315,438.7094 315,444.6294 315,450.3794 " fill="none" id="Account-Transaction-1" style="stroke:#181818;stroke-width:1;"/><polygon fill="#000000" points="273,453.5373,275.3511,446.3013,270.6489,446.3013,273,453.5373" style="stroke:#000000;stroke-width:1;"/><text fill="#000000" font-family="sans-serif" font-size="11" lengthAdjust="spacing" textLength="33.0161" x="281" y="454.0383">source</text><text fill="#000000" font-family="sans-serif" font-size="11" lengthAdjust="spacing" textLength="18.3477" x="278.7852" y="439.957">0..1</text><text fill="#000000" font-family="sans-serif" font-size="11" lengthAdjust="spacing" textLength="16.5107" x="306.9297" y="440.0874">0..*</text></g><!--link Account to Transaction--><g id="link_Account_Transaction"><path codeLine="75" d="M347,432.8594 C347,438.7094 347,444.6294 347,450.3794 " fill="none" id="Account-Transaction-2" style="stroke:#181818;stroke-width:1;"/><polygon fill="#000000" points="351,453.5373,353.3511,446.3013,348.6489,446.3013,351,453.5373" style="stroke:#000000;stroke-width:1;"/><text fill="#000000" font-family="sans-serif" font-size="11" lengthAdjust="spacing" textLength="53.2061" x="359" y="454.0383">destination</text><text fill="#000000" font-family="sans-serif" font-size="11" lengthAdjust="spacing" textLength="18.3477" x="351.1436" y="439.957">0..1</text><text fill="#000000" font-family="sans-serif" font-size="11" lengthAdjust="spacing" textLength="16.5107" x="328.4033" y="440.0874">0..*</text></g><!--link BillProvider to BillPayment--><!--link BillProvider to BillPayment--><g id="link_BillProvider_BillPayment"><path codeLine="82" d="M200,308.7894 C200,320.9994 200,334.6294 200,346.8494 " fill="none" id="BillProvider-BillPayment-1" style="stroke:#181818;stroke-width:1;"/><text fill="#000000" font-family="sans-serif" font-size="11" lengthAdjust="spacing" textLength="6.1177" x="195.9327" y="327.644">1</text><text fill="#000000" font-family="sans-serif" font-size="11" lengthAdjust="spacing" textLength="16.5107" x="185.2904" y="336.5691">0..*</text></g><!--link BillPayment to CheckbookOrder--><!--link CheckbookOrder to Notification--><!--link Notification to AuditLog--><!--link User to BillProvider--><!--link User to Transaction--><g id="link_User_Transaction"><path codeLine="73" d="M413.27,154.6094 C426.45,154.6094 437,154.6094 437,154.6094 C437,154.6094 437,508.6094 437,508.6094 C437,508.6094 425.88,508.6094 411.45,508.6094 " fill="none" id="User-Transaction" style="stroke:#181818;stroke-width:1;"/><polygon fill="#000000" points="389.9794,329.4373,392.3677,322.2134,387.6655,322.1892,389.9794,329.4373" style="stroke:#000000;stroke-width:1;"/><text fill="#000000" font-family="sans-serif" font-size="11" lengthAdjust="spacing" textLength="38.5269" x="398" y="329.9383">ex&#233;cute</text><text fill="#000000" font-family="sans-serif" font-size="11" lengthAdjust="spacing" textLength="6.1177" x="421.5522" y="149.9909">1</text><text fill="#000000" font-family="sans-serif" font-size="11" lengthAdjust="spacing" textLength="16.5107" x="418.6292" y="507.9304">0..*</text></g><!--link Transaction to User--><g id="link_Transaction_User"><path codeLine="76" d="M411.06,479.6094 C419.33,479.6094 425,479.6094 425,479.6094 C425,479.6094 425,183.6094 425,183.6094 C425,183.6094 426.15,183.6094 419.15,183.6094 " fill="none" id="Transaction-to-User" style="stroke:#181818;stroke-width:1;"/><polygon fill="#181818" points="413.15,183.6094,422.15,187.6094,418.15,183.6094,422.15,179.6094,413.15,183.6094" style="stroke:#181818;stroke-width:1;"/><text fill="#000000" font-family="sans-serif" font-size="11" lengthAdjust="spacing" textLength="57.4814" x="426" y="345.0783">executedBy</text></g><!--reverse link Client to CheckbookOrder--><g id="link_Client_CheckbookOrder"><path codeLine="78" d="M275.92,311.6094 C203.33,311.6094 101.67,311.6094 101.67,311.6094 C101.67,311.6094 101.67,396.6594 101.67,450.4794 " fill="none" id="Client-backto-CheckbookOrder" style="stroke:#181818;stroke-width:1;"/><polygon fill="none" points="287.92,311.6094,281.92,307.6094,275.92,311.6094,281.92,315.6094,287.92,311.6094" style="stroke:#181818;stroke-width:1;"/><polygon fill="#000000" points="68.2319,307.0203,75.356,304.3491,72.4254,300.6718,68.2319,307.0203" style="stroke:#000000;stroke-width:1;"/><text fill="#000000" font-family="sans-serif" font-size="11" lengthAdjust="spacing" textLength="45.8691" x="79.36" y="309.0283">demande</text><text fill="#000000" font-family="sans-serif" font-size="11" lengthAdjust="spacing" textLength="6.1177" x="273.9499" y="314.2775">1</text><text fill="#000000" font-family="sans-serif" font-size="11" lengthAdjust="spacing" textLength="16.5107" x="73.8804" y="440.1763">0..*</text></g><!--link Client to Notification--><g id="link_Client_Notification"><path codeLine="79" d="M287.89,313.6094 C279.32,313.6094 273.33,313.6094 273.33,313.6094 C273.33,313.6094 273.33,612.6094 273.33,612.6094 C273.33,612.6094 257.74,612.6094 239.1,612.6094 " fill="none" id="Client-Notification" style="stroke:#181818;stroke-width:1;"/><polygon fill="#000000" points="247.4358,484.8151,250.9216,478.0522,246.2807,477.2949,247.4358,484.8151" style="stroke:#000000;stroke-width:1;"/><text fill="#000000" font-family="sans-serif" font-size="11" lengthAdjust="spacing" textLength="26.8984" x="256.08" y="485.3683">re&#231;oit</text><text fill="#000000" font-family="sans-serif" font-size="11" lengthAdjust="spacing" textLength="6.1177" x="267.4506" y="325.9831">1</text><text fill="#000000" font-family="sans-serif" font-size="11" lengthAdjust="spacing" textLength="16.5107" x="247.6446" y="612.1452">0..*</text></g><!--reverse link Account to BillPayment--><g id="link_Account_BillPayment"><path codeLine="80" d="M269.05,371.6094 C259.15,371.6094 260.95,371.6094 251.07,371.6094 " fill="none" id="Account-backto-BillPayment" style="stroke:#181818;stroke-width:1;"/><polygon fill="none" points="281.05,371.6094,275.05,367.6094,269.05,371.6094,275.05,375.6094,281.05,371.6094" style="stroke:#181818;stroke-width:1;"/><polygon fill="#000000" points="266.06,364.5273,273.2961,366.8785,273.2961,362.1762,266.06,364.5273" style="stroke:#000000;stroke-width:1;"/><text fill="#000000" font-family="sans-serif" font-size="11" lengthAdjust="spacing" textLength="37.9146" x="278.06" y="369.0283">paie via</text><text fill="#000000" font-family="sans-serif" font-size="11" lengthAdjust="spacing" textLength="6.1177" x="267.5032" y="382.5084">1</text><text fill="#000000" font-family="sans-serif" font-size="11" lengthAdjust="spacing" textLength="16.5107" x="259.0901" y="382.5451">0..*</text></g><!--reverse link Account to CheckbookOrder--><g id="link_Account_CheckbookOrder"><path codeLine="81" d="M269.41,426.6094 C233.27,426.6094 207.67,426.6094 207.67,426.6094 C207.67,426.6094 207.67,437.4594 207.67,450.4194 " fill="none" id="Account-backto-CheckbookOrder" style="stroke:#181818;stroke-width:1;"/><polygon fill="none" points="281.41,426.6094,275.41,422.6094,269.41,426.6094,275.41,430.6094,281.41,426.6094" style="stroke:#181818;stroke-width:1;"/><polygon fill="#000000" points="165.8979,435.9666,173.4953,435.5566,171.8033,431.1693,165.8979,435.9666" style="stroke:#000000;stroke-width:1;"/><text fill="#000000" font-family="sans-serif" font-size="11" lengthAdjust="spacing" textLength="54.4146" x="177.63" y="439.0283">commande</text><text fill="#000000" font-family="sans-serif" font-size="11" lengthAdjust="spacing" textLength="6.1177" x="267.4736" y="429.3349">1</text><text fill="#000000" font-family="sans-serif" font-size="11" lengthAdjust="spacing" textLength="16.5107" x="198.7617" y="440.1056">0..*</text></g><!--link BillPayment to Transaction--><g id="link_BillPayment_Transaction"><path codeLine="83" d="M251.46,395.6094 C266.12,395.6094 277.42,395.6094 277.42,395.6094 C277.42,395.6094 277.42,493.6094 277.42,493.6094 C277.42,493.6094 279.47,493.6094 282.88,493.6094 " fill="none" id="BillPayment-Transaction" style="stroke:#181818;stroke-width:1;"/><polygon fill="#000000" points="235.6412,431.0864,235.6709,423.478,231.1931,424.9136,235.6412,431.0864" style="stroke:#000000;stroke-width:1;"/><text fill="#000000" font-family="sans-serif" font-size="11" lengthAdjust="spacing" textLength="34.2515" x="242.42" y="431.7783">g&#233;n&#232;re</text><text fill="#000000" font-family="sans-serif" font-size="11" lengthAdjust="spacing" textLength="6.1177" x="258.9544" y="409.1701">1</text><text fill="#000000" font-family="sans-serif" font-size="11" lengthAdjust="spacing" textLength="6.1177" x="268.7344" y="505.9014">1</text></g><!--link User to CheckbookOrder--><g id="link_User_CheckbookOrder"><path codeLine="84" d="M310.7,140.6094 C229.97,140.6094 82.33,140.6094 82.33,140.6094 C82.33,140.6094 82.33,356.0594 82.33,450.3294 " fill="none" id="User-CheckbookOrder" style="stroke:#181818;stroke-width:1;"/><polygon fill="#000000" points="46.9562,177.4168,53.1428,172.9881,49.3581,170.1974,46.9562,177.4168" style="stroke:#000000;stroke-width:1;"/><text fill="#000000" font-family="sans-serif" font-size="11" lengthAdjust="spacing" textLength="24.4546" x="57.33" y="178.6983">traite</text><text fill="#000000" font-family="sans-serif" font-size="11" lengthAdjust="spacing" textLength="6.1177" x="297.0385" y="134.2701">1</text><text fill="#000000" font-family="sans-serif" font-size="11" lengthAdjust="spacing" textLength="16.5107" x="51.63" y="440.3065">0..*</text></g><!--link User to AuditLog--><g id="link_User_AuditLog"><path codeLine="85" d="M310.74,197.6094 C289.29,197.6094 269.25,197.6094 269.25,197.6094 C269.25,197.6094 269.25,687.6094 269.25,687.6094 C269.25,687.6094 264.37,687.6094 257.16,687.6094 " fill="none" id="User-AuditLog" style="stroke:#181818;stroke-width:1;"/><polygon fill="#000000" points="220.8152,439.8036,223.939,432.866,219.2645,432.3549,220.8152,439.8036" style="stroke:#000000;stroke-width:1;"/><text fill="#000000" font-family="sans-serif" font-size="11" lengthAdjust="spacing" textLength="39.1392" x="229.25" y="440.3283">effectue</text><text fill="#000000" font-family="sans-serif" font-size="11" lengthAdjust="spacing" textLength="6.1177" x="296.7438" y="199.4305">1</text><text fill="#000000" font-family="sans-serif" font-size="11" lengthAdjust="spacing" textLength="16.5107" x="265.3531" y="683.6108">0..*</text></g><!--link AuditLog to User--><g id="link_AuditLog_User"><path codeLine="87" d="M257.2,716.6094 C262.07,716.6094 265.17,716.6094 265.17,716.6094 C265.17,716.6094 265.17,183.6094 265.17,183.6094 C265.17,183.6094 281.52,183.6094 304.75,183.6094 " fill="none" id="AuditLog-to-User" style="stroke:#181818;stroke-width:1;"/><polygon fill="#181818" points="310.75,183.6094,301.75,179.6094,305.75,183.6094,301.75,187.6094,310.75,183.6094" style="stroke:#181818;stroke-width:1;"/><text fill="#000000" font-family="sans-serif" font-size="11" lengthAdjust="spacing" textLength="62.9707" x="266.17" y="443.7183">performedBy</text></g><!--link User to Notification--><g id="link_User_Notification"><path codeLine="86" d="M310.95,168.6094 C285.92,168.6094 261.08,168.6094 261.08,168.6094 C261.08,168.6094 261.08,583.6094 261.08,583.6094 C261.08,583.6094 251.81,583.6094 239.43,583.6094 " fill="none" id="User-Notification" style="stroke:#181818;stroke-width:1;"/><polygon fill="#000000" points="254.6507,373.8592,258.1966,367.1276,253.5626,366.329,254.6507,373.8592" style="stroke:#000000;stroke-width:1;"/><text fill="#000000" font-family="sans-serif" font-size="11" lengthAdjust="spacing" textLength="26.8984" x="263.33" y="374.4183">re&#231;oit</text><text fill="#000000" font-family="sans-serif" font-size="11" lengthAdjust="spacing" textLength="6.1177" x="296.9847" y="166.1712">1</text><text fill="#000000" font-family="sans-serif" font-size="11" lengthAdjust="spacing" textLength="16.5107" x="247.5745" y="579.7348">0..*</text></g><!--SRC=[bLLBRjim4Dth58IN1HJ4G1U55m7oGO40HLh4wQheWgP64c6ADCXHMhS8q4Fq3atEuPlq91rH7vDIPA0xQ-RDlAUPDpAQ7KF3DWRHL2oJ5WHAenEtbNh7BQ-OAtbclabTi9mh1q56AExS9QALcnhXLXYzbZ-0dGSGRJ9mi6FBjq7GShtrmNT1K4aDkDy1CnPB4oGoo7cjyBtHwDilbq5onyMM5x36lGBMQEUwK90aA942Dv8NXAg0chHgmR6_ltwpp5IS-5XrU449DacwFcpHPiv0KuVzWlrC68sd02p1-WVMzc6VtH1WB6KrFMfEH2ksfddeOiXOevfeWx-ddqCyhvMwcrGy1HJNIfACW4Jum5rTROXxGYIadWOTSgmTnTjcQ_yuOReKmjGH5MyZSrn-KQk-xe6UXjI6Awv5axsInGq8MN4rbTDLpkXv88SuxeqOQEf8WsH4p2l_3g_omdSGPD7iiidVQfAXCM3roqo_b3BBG7ybj-kq6vXFTuiO0RfNy8X-W2D883LfkERCT2ML-cJDeymYKmawdkdizKdJ-5PyNxtcd7l8mKAxd57JkU55VYn1R3V6R3_QMATfdkUiSdHWL1vitgDA0BpkD0p8zH2TYBapA7Cf-EiU2REHIThlmlH8WMSK9Ku5N4_leyuaVZ15T22UUTAf_N0yj396kHtOtDXgreQH3KPM2lPwn7Px7Zit6dJhu7Xreu9mMXuU3NTi-suMlQ7Zsx6oA36DtgG1THUqM2wOILEsE3yxUxCOhcR5TiQvmpEv_QBls42FoF23iA9hFhmqv-pHVPC6UQB6cTgA_wgWFowKkfr1KnPcq_IYbRaQFYrN-_aN7Os_wLrntRrkK7AiY3Qm8dyU_XY9iVoO8pG43PHBO8-IdwgOg1AcEigAp1YBYxqO4lUuvNYOnU557vxjx88dMj1oYRFmuI1f_dbEV_lrBFJK9FikmJg76wLzFYN_0000]--></g></svg>