<svg xmlns="http://www.w3.org/2000/svg" xmlns:xlink="http://www.w3.org/1999/xlink" version="1.1" data-diagram-type="SEQUENCE" style="width:1100px;height:834px;background:#FFFFFF;" width="1100px" height="834px" viewBox="0 0 1100 834" zoomAndPan="magnify" preserveAspectRatio="none" contentStyleType="text/css"><?plantuml 1.2026.7beta3?><defs/><g><g class="title" data-source-line="4"><text x="349.229" y="27.9951" fill="#000000" font-size="14" lengthAdjust="spacing" textLength="394.9531" font-weight="700" font-family="sans-serif">Séquence — Authentification (personnel et client)</text></g><g><title>LoginController</title><rect x="346.2764" y="149.7266" width="10" height="527.3438" fill="#FFFFFF" style="stroke:#181818;stroke-width:1;"/></g><g><title>UserDetailsServiceImpl</title><rect x="727.8423" y="178.8594" width="10" height="318.9375" fill="#FFFFFF" style="stroke:#181818;stroke-width:1;"/></g><rect x="270.6826" y="222.9922" width="796.7119" height="267.8047" fill="none" style="stroke:#000000;stroke-width:1.5;"/><rect x="280.6826" y="364.4609" width="776.7119" height="119.3359" fill="none" style="stroke:#000000;stroke-width:1.5;"/><rect x="10" y="504.7969" width="421.8701" height="165.2734" fill="none" style="stroke:#000000;stroke-width:1.5;"/><rect x="20" y="528.9297" width="401.8701" height="90.2031" fill="none" style="stroke:#000000;stroke-width:1.5;"/><g class="participant-lifeline" data-qualified-name="U" data-entity-uid="part1" id="part1-lifeline" data-source-line="6"><g><title>Utilisateur</title><rect x="65.0049" y="118.5938" width="8" height="633.875" fill="#000000" fill-opacity="0.00000"/><line x1="69" y1="118.5938" x2="69" y2="752.4688" style="stroke:#181818;stroke-width:0.5;stroke-dasharray:5,5;"/></g></g><g class="participant-lifeline" data-qualified-name="C" data-entity-uid="part2" id="part2-lifeline" data-source-line="7"><g><title>LoginController</title><rect x="347.2764" y="118.5938" width="8" height="633.875" fill="#000000" fill-opacity="0.00000"/><line x1="350.6826" y1="118.5938" x2="350.6826" y2="752.4688" style="stroke:#181818;stroke-width:0.5;stroke-dasharray:5,5;"/></g></g><g class="participant-lifeline" data-qualified-name="S" data-entity-uid="part3" id="part3-lifeline" data-source-line="8"><g><title>UserDetailsServiceImpl</title><rect x="728.8423" y="118.5938" width="8" height="633.875" fill="#000000" fill-opacity="0.00000"/><line x1="732.4775" y1="118.5938" x2="732.4775" y2="752.4688" style="stroke:#181818;stroke-width:0.5;stroke-dasharray:5,5;"/></g></g><g class="participant-lifeline" data-qualified-name="DB" data-entity-uid="part4" id="part4-lifeline" data-source-line="9"><g><title>PostgreSQL</title><rect x="1000.0181" y="118.5938" width="8" height="633.875" fill="#000000" fill-opacity="0.00000"/><line x1="1003.6416" y1="118.5938" x2="1003.6416" y2="752.4688" style="stroke:#181818;stroke-width:0.5;stroke-dasharray:5,5;"/></g></g><g class="participant participant-head" data-qualified-name="U" data-entity-uid="part1" id="part1-head" data-source-line="6"><text x="30" y="115.292" fill="#000000" font-size="14" lengthAdjust="spacing" textLength="72.0098" font-family="sans-serif">Utilisateur</text><ellipse cx="69.0049" cy="50.7969" rx="8" ry="8" fill="#E2E2F0" style="stroke:#181818;stroke-width:0.5;"/><path d="M69.0049,58.7969 L69.0049,85.7969 M56.0049,66.7969 L82.0049,66.7969 M69.0049,85.7969 L56.0049,100.7969 M69.0049,85.7969 L82.0049,100.7969" style="stroke:#181818;stroke-width:0.5;" fill="none"/></g><g class="participant participant-tail" data-qualified-name="U" data-entity-uid="part1" id="part1-tail" data-source-line="6"><text x="30" y="764.4639" fill="#000000" font-size="14" lengthAdjust="spacing" textLength="72.0098" font-family="sans-serif">Utilisateur</text><ellipse cx="69.0049" cy="776.2656" rx="8" ry="8" fill="#E2E2F0" style="stroke:#181818;stroke-width:0.5;"/><path d="M69.0049,784.2656 L69.0049,811.2656 M56.0049,792.2656 L82.0049,792.2656 M69.0049,811.2656 L56.0049,826.2656 M69.0049,811.2656 L82.0049,826.2656" style="stroke:#181818;stroke-width:0.5;" fill="none"/></g><g class="participant participant-head" data-qualified-name="C" data-entity-uid="part2" id="part2-head" data-source-line="7"><rect x="290.6826" y="87.2969" width="121.1875" height="30.2969" fill="#E2E2F0" style="stroke:#181818;stroke-width:0.5;" rx="2.5" ry="2.5"/><text x="297.6826" y="107.292" fill="#000000" font-size="14" lengthAdjust="spacing" textLength="107.1875" font-family="sans-serif">LoginController</text></g><g class="participant participant-tail" data-qualified-name="C" data-entity-uid="part2" id="part2-tail" data-source-line="7"><rect x="290.6826" y="751.4688" width="121.1875" height="30.2969" fill="#E2E2F0" style="stroke:#181818;stroke-width:0.5;" rx="2.5" ry="2.5"/><text x="297.6826" y="771.4639" fill="#000000" font-size="14" lengthAdjust="spacing" textLength="107.1875" font-family="sans-serif">LoginController</text></g><g class="participant participant-head" data-qualified-name="S" data-entity-uid="part3" id="part3-head" data-source-line="8"><rect x="644.4775" y="87.2969" width="176.7295" height="30.2969" fill="#E2E2F0" style="stroke:#181818;stroke-width:0.5;" rx="2.5" ry="2.5"/><text x="651.4775" y="107.292" fill="#000000" font-size="14" lengthAdjust="spacing" textLength="162.7295" font-family="sans-serif">UserDetailsServiceImpl</text></g><g class="participant participant-tail" data-qualified-name="S" data-entity-uid="part3" id="part3-tail" data-source-line="8"><rect x="644.4775" y="751.4688" width="176.7295" height="30.2969" fill="#E2E2F0" style="stroke:#181818;stroke-width:0.5;" rx="2.5" ry="2.5"/><text x="651.4775" y="771.4639" fill="#000000" font-size="14" lengthAdjust="spacing" textLength="162.7295" font-family="sans-serif">UserDetailsServiceImpl</text></g><g class="participant participant-head" data-qualified-name="DB" data-entity-uid="part4" id="part4-head" data-source-line="9"><text x="960.6416" y="115.292" fill="#000000" font-size="14" lengthAdjust="spacing" textLength="80.7529" font-family="sans-serif">PostgreSQL</text><path d="M986.0181,66.2969 C986.0181,56.2969 1004.0181,56.2969 1004.0181,56.2969 C1004.0181,56.2969 1022.0181,56.2969 1022.0181,66.2969 L1022.0181,92.2969 C1022.0181,102.2969 1004.0181,102.2969 1004.0181,102.2969 C1004.0181,102.2969 986.0181,102.2969 986.0181,92.2969 L986.0181,66.2969" style="stroke:#181818;stroke-width:0.5;" fill="#E2E2F0"/><path d="M986.0181,66.2969 C986.0181,76.2969 1004.0181,76.2969 1004.0181,76.2969 C1004.0181,76.2969 1022.0181,76.2969 1022.0181,66.2969" style="stroke:#181818;stroke-width:0.5;" fill="none"/></g><g class="participant participant-tail" data-qualified-name="DB" data-entity-uid="part4" id="part4-tail" data-source-line="9"><text x="960.6416" y="764.4639" fill="#000000" font-size="14" lengthAdjust="spacing" textLength="80.7529" font-family="sans-serif">PostgreSQL</text><path d="M986.0181,777.7656 C986.0181,767.7656 1004.0181,767.7656 1004.0181,767.7656 C1004.0181,767.7656 1022.0181,767.7656 1022.0181,777.7656 L1022.0181,803.7656 C1022.0181,813.7656 1004.0181,813.7656 1004.0181,813.7656 C1004.0181,813.7656 986.0181,813.7656 986.0181,803.7656 L986.0181,777.7656" style="stroke:#181818;stroke-width:0.5;" fill="#E2E2F0"/><path d="M986.0181,777.7656 C986.0181,787.7656 1004.0181,787.7656 1004.0181,787.7656 C1004.0181,787.7656 1022.0181,787.7656 1022.0181,777.7656" style="stroke:#181818;stroke-width:0.5;" fill="none"/></g><g><title>LoginController</title><rect x="346.2764" y="149.7266" width="10" height="527.3438" fill="#FFFFFF" style="stroke:#181818;stroke-width:1;"/></g><g><title>UserDetailsServiceImpl</title><rect x="727.8423" y="178.8594" width="10" height="318.9375" fill="#FFFFFF" style="stroke:#181818;stroke-width:1;"/></g><g class="message" data-entity-1="part1" data-entity-2="part2" id="msg1" data-source-line="11"><polygon points="334.2764,145.7266,344.2764,149.7266,334.2764,153.7266,338.2764,149.7266" fill="#181818" style="stroke:#181818;stroke-width:1;stroke-linejoin:miter;stroke-miterlimit:10;"/><line x1="69.0049" y1="149.7266" x2="340.2764" y2="149.7266" style="stroke:#181818;stroke-width:1;"/><text x="76.0049" y="144.6606" fill="#000000" font-size="13" lengthAdjust="spacing" textLength="251.2783" font-family="sans-serif">POST /login (identifiant, mot de passe)</text></g><g class="message" data-entity-1="part2" data-entity-2="part3" id="msg2" data-source-line="13"><polygon points="715.8423,174.8594,725.8423,178.8594,715.8423,182.8594,719.8423,178.8594" fill="#181818" style="stroke:#181818;stroke-width:1;stroke-linejoin:miter;stroke-miterlimit:10;"/><line x1="356.2764" y1="178.8594" x2="721.8423" y2="178.8594" style="stroke:#181818;stroke-width:1;"/><text x="363.2764" y="173.7935" fill="#000000" font-size="13" lengthAdjust="spacing" textLength="216.9692" font-family="sans-serif">loadUserByUsername(identifiant)</text></g><g class="message" data-entity-1="part3" data-entity-2="part4" id="msg3" data-source-line="16"><polygon points="992.0181,203.9922,1002.0181,207.9922,992.0181,211.9922,996.0181,207.9922" fill="#181818" style="stroke:#181818;stroke-width:1;stroke-linejoin:miter;stroke-miterlimit:10;"/><line x1="737.8423" y1="207.9922" x2="998.0181" y2="207.9922" style="stroke:#181818;stroke-width:1;"/><text x="744.8423" y="202.9263" fill="#000000" font-size="13" lengthAdjust="spacing" textLength="229.0615" font-family="sans-serif">SELECT user WHERE username = ?</text></g><path d="M270.6826,222.9922 L335.1255,222.9922 L335.1255,230.125 L325.1255,240.125 L270.6826,240.125 L270.6826,222.9922" style="stroke:#000000;stroke-width:1.5;" fill="#EEEEEE"/><rect x="270.6826" y="222.9922" width="796.7119" height="267.8047" fill="none" style="stroke:#000000;stroke-width:1.5;"/><text x="285.6826" y="236.0591" fill="#000000" font-size="13" lengthAdjust="spacing" textLength="19.4429" font-weight="700" font-family="sans-serif">alt</text><text x="350.1255" y="235.2026" fill="#000000" font-size="11" lengthAdjust="spacing" textLength="116.5313" font-weight="700" font-family="sans-serif">[Personnel trouvé]</text><g class="message" data-entity-1="part4" data-entity-2="part3" id="msg4" data-source-line="18"><polygon points="748.8423,257.2578,738.8423,261.2578,748.8423,265.2578,744.8423,261.2578" fill="#181818" style="stroke:#181818;stroke-width:1;stroke-linejoin:miter;stroke-miterlimit:10;"/><line x1="742.8423" y1="261.2578" x2="1003.0181" y2="261.2578" style="stroke:#181818;stroke-width:1;stroke-dasharray:2,2;"/><text x="754.8423" y="256.1919" fill="#000000" font-size="13" lengthAdjust="spacing" textLength="232.3623" font-family="sans-serif">User (passwordHash, role, enabled)</text></g><g class="message" data-entity-1="part3" data-entity-2="part2" id="msg5" data-source-line="19"><polygon points="367.2764,286.3906,357.2764,290.3906,367.2764,294.3906,363.2764,290.3906" fill="#181818" style="stroke:#181818;stroke-width:1;stroke-linejoin:miter;stroke-miterlimit:10;"/><line x1="361.2764" y1="290.3906" x2="726.8423" y2="290.3906" style="stroke:#181818;stroke-width:1;stroke-dasharray:2,2;"/><text x="373.2764" y="285.3247" fill="#000000" font-size="13" lengthAdjust="spacing" textLength="347.5659" font-family="sans-serif">SecurityUser (ROLE_ADMIN / AGENT / CHEF_AGENCE)</text></g><line x1="270.6826" y1="299.3906" x2="1067.3945" y2="299.3906" style="stroke:#000000;stroke-width:1;stroke-dasharray:2,2;"/><text x="275.6826" y="309.6011" fill="#000000" font-size="11" lengthAdjust="spacing" textLength="147.2002" font-weight="700" font-family="sans-serif">[Personnel introuvable]</text><g class="message" data-entity-1="part3" data-entity-2="part4" id="msg6" data-source-line="21"><polygon points="992.0181,345.4609,1002.0181,349.4609,992.0181,353.4609,996.0181,349.4609" fill="#181818" style="stroke:#181818;stroke-width:1;stroke-linejoin:miter;stroke-miterlimit:10;"/><line x1="737.8423" y1="349.4609" x2="998.0181" y2="349.4609" style="stroke:#181818;stroke-width:1;"/><text x="744.8423" y="329.2622" fill="#000000" font-size="13" lengthAdjust="spacing" textLength="242.1758" font-family="sans-serif">SELECT client WHERE portal_enabled</text><text x="744.8423" y="344.395" fill="#000000" font-size="13" lengthAdjust="spacing" textLength="234.4888" font-family="sans-serif">AND (cin = ? OR client_number = ?)</text></g><path d="M280.6826,364.4609 L345.1255,364.4609 L345.1255,371.5938 L335.1255,381.5938 L280.6826,381.5938 L280.6826,364.4609" style="stroke:#000000;stroke-width:1.5;" fill="#EEEEEE"/><rect x="280.6826" y="364.4609" width="776.7119" height="119.3359" fill="none" style="stroke:#000000;stroke-width:1.5;"/><text x="295.6826" y="377.5278" fill="#000000" font-size="13" lengthAdjust="spacing" textLength="19.4429" font-weight="700" font-family="sans-serif">alt</text><text x="360.1255" y="376.6714" fill="#000000" font-size="11" lengthAdjust="spacing" textLength="122.7134" font-weight="700" font-family="sans-serif">[Client portail actif]</text><g class="message" data-entity-1="part4" data-entity-2="part3" id="msg7" data-source-line="23"><polygon points="748.8423,398.7266,738.8423,402.7266,748.8423,406.7266,744.8423,402.7266" fill="#181818" style="stroke:#181818;stroke-width:1;stroke-linejoin:miter;stroke-miterlimit:10;"/><line x1="742.8423" y1="402.7266" x2="1003.0181" y2="402.7266" style="stroke:#181818;stroke-width:1;stroke-dasharray:2,2;"/><text x="754.8423" y="397.6606" fill="#000000" font-size="13" lengthAdjust="spacing" textLength="201.7285" font-family="sans-serif">Client (passwordHash, ACTIVE)</text></g><g class="message" data-entity-1="part3" data-entity-2="part2" id="msg8" data-source-line="24"><polygon points="367.2764,427.8594,357.2764,431.8594,367.2764,435.8594,363.2764,431.8594" fill="#181818" style="stroke:#181818;stroke-width:1;stroke-linejoin:miter;stroke-miterlimit:10;"/><line x1="361.2764" y1="431.8594" x2="726.8423" y2="431.8594" style="stroke:#181818;stroke-width:1;stroke-dasharray:2,2;"/><text x="373.2764" y="426.7935" fill="#000000" font-size="13" lengthAdjust="spacing" textLength="192.5498" font-family="sans-serif">SecurityClient (ROLE_CLIENT)</text></g><line x1="280.6826" y1="440.8594" x2="1057.3945" y2="440.8594" style="stroke:#000000;stroke-width:1;stroke-dasharray:2,2;"/><text x="285.6826" y="451.0698" fill="#000000" font-size="11" lengthAdjust="spacing" textLength="128.4121" font-weight="700" font-family="sans-serif">[Identifiant inconnu]</text><g class="message" data-entity-1="part3" data-entity-2="part2" id="msg9" data-source-line="26"><polygon points="367.2764,471.7969,357.2764,475.7969,367.2764,479.7969,363.2764,475.7969" fill="#181818" style="stroke:#181818;stroke-width:1;stroke-linejoin:miter;stroke-miterlimit:10;"/><line x1="361.2764" y1="475.7969" x2="726.8423" y2="475.7969" style="stroke:#181818;stroke-width:1;stroke-dasharray:2,2;"/><text x="373.2764" y="470.731" fill="#000000" font-size="13" lengthAdjust="spacing" textLength="193.6416" font-family="sans-serif">UsernameNotFoundException</text></g><path d="M10,504.7969 L74.4429,504.7969 L74.4429,511.9297 L64.4429,521.9297 L10,521.9297 L10,504.7969" style="stroke:#000000;stroke-width:1.5;" fill="#EEEEEE"/><rect x="10" y="504.7969" width="421.8701" height="165.2734" fill="none" style="stroke:#000000;stroke-width:1.5;"/><text x="25" y="517.8638" fill="#000000" font-size="13" lengthAdjust="spacing" textLength="19.4429" font-weight="700" font-family="sans-serif">alt</text><text x="89.4429" y="517.0073" fill="#000000" font-size="11" lengthAdjust="spacing" textLength="227.9009" font-weight="700" font-family="sans-serif">[Identifiants valides et compte actif]</text><path d="M20,528.9297 L84.4429,528.9297 L84.4429,536.0625 L74.4429,546.0625 L20,546.0625 L20,528.9297" style="stroke:#000000;stroke-width:1.5;" fill="#EEEEEE"/><rect x="20" y="528.9297" width="401.8701" height="90.2031" fill="none" style="stroke:#000000;stroke-width:1.5;"/><text x="35" y="541.9966" fill="#000000" font-size="13" lengthAdjust="spacing" textLength="19.4429" font-weight="700" font-family="sans-serif">alt</text><text x="99.4429" y="541.1401" fill="#000000" font-size="11" lengthAdjust="spacing" textLength="91.2979" font-weight="700" font-family="sans-serif">[ROLE_CLIENT]</text><g class="message" data-entity-1="part2" data-entity-2="part1" id="msg10" data-source-line="33"><polygon points="80.0049,563.1953,70.0049,567.1953,80.0049,571.1953,76.0049,567.1953" fill="#181818" style="stroke:#181818;stroke-width:1;stroke-linejoin:miter;stroke-miterlimit:10;"/><line x1="74.0049" y1="567.1953" x2="345.2764" y2="567.1953" style="stroke:#181818;stroke-width:1;stroke-dasharray:2,2;"/><text x="86.0049" y="562.1294" fill="#000000" font-size="13" lengthAdjust="spacing" textLength="194.4033" font-family="sans-serif">Redirection /portal/dashboard</text></g><line x1="20" y1="576.1953" x2="421.8701" y2="576.1953" style="stroke:#000000;stroke-width:1;stroke-dasharray:2,2;"/><text x="25" y="586.4058" fill="#000000" font-size="11" lengthAdjust="spacing" textLength="71.9995" font-weight="700" font-family="sans-serif">[Personnel]</text><g class="message" data-entity-1="part2" data-entity-2="part1" id="msg11" data-source-line="35"><polygon points="80.0049,607.1328,70.0049,611.1328,80.0049,615.1328,76.0049,611.1328" fill="#181818" style="stroke:#181818;stroke-width:1;stroke-linejoin:miter;stroke-miterlimit:10;"/><line x1="74.0049" y1="611.1328" x2="345.2764" y2="611.1328" style="stroke:#181818;stroke-width:1;stroke-dasharray:2,2;"/><text x="86.0049" y="606.0669" fill="#000000" font-size="13" lengthAdjust="spacing" textLength="151.7979" font-family="sans-serif">Redirection /dashboard</text></g><line x1="10" y1="627.1328" x2="431.8701" y2="627.1328" style="stroke:#000000;stroke-width:1;stroke-dasharray:2,2;"/><text x="15" y="637.3433" fill="#000000" font-size="11" lengthAdjust="spacing" textLength="273.8989" font-weight="700" font-family="sans-serif">[Identifiants invalides ou compte désactivé]</text><g class="message" data-entity-1="part2" data-entity-2="part1" id="msg12" data-source-line="38"><polygon points="80.0049,658.0703,70.0049,662.0703,80.0049,666.0703,76.0049,662.0703" fill="#181818" style="stroke:#181818;stroke-width:1;stroke-linejoin:miter;stroke-miterlimit:10;"/><line x1="74.0049" y1="662.0703" x2="345.2764" y2="662.0703" style="stroke:#181818;stroke-width:1;stroke-dasharray:2,2;"/><text x="86.0049" y="657.0044" fill="#000000" font-size="13" lengthAdjust="spacing" textLength="253.2715" font-family="sans-serif">Page login + « Identifiants incorrects »</text></g><path d="M646,682.0703 L646,737.0703 L1089,737.0703 L1089,692.0703 L1079,682.0703 L646,682.0703" style="stroke:#181818;stroke-width:0.5;" fill="#FEFFDD"/><path d="M1079,682.0703 L1079,692.0703 L1089,692.0703 L1079,682.0703" style="stroke:#181818;stroke-width:0.5;" fill="#FEFFDD"/><text x="652" y="699.1372" fill="#000000" font-size="13" lengthAdjust="spacing" textLength="203.4297" font-family="sans-serif">Mot de passe vérifié via BCrypt</text><text x="652" y="714.27" fill="#000000" font-size="13" lengthAdjust="spacing" textLength="276.1865" font-family="sans-serif">Même page /login pour personnel et client</text><text x="652" y="729.4028" fill="#000000" font-size="13" lengthAdjust="spacing" textLength="422.4111" font-family="sans-serif">Démo : DemoPortalSync active le portail (CD789012, BE123456)</text><?plantuml-src VLJBZX915DtNLzpC2Y8JdF5jeWQwMuU4OP0UT6D2YkuxJCNgghQg6cJdH_WJw2Uu6_x4B_5MyPW6ZGiQw3hdtdFke-ndeKfkU07sbkTw8TGCRhYqoEp-nA0jjR9uYTRo6NPHwaN76Bq0Pofap0ad4TBrwak5AaFu_UqxT2ftYyg96v5n9xI2Hed6QgLG0Zh8fA3J9cCySzh0s0afB7TO6U0MnemIEv69aYi79tqz4ohIoXaj9PeJ3uaE8MEB9aR7XRGfchd8i5UKCY1JbdF7fzmYd0orTJE3wVj-E8gxZ8tXz3L4y1A6L-arjANF1GsHRyHJy1OKsa6EK79hiUaLYpb99GcHvwR4bPhdNa9twP-A5rYFKEEaZAMU57U9bIRz9Bg6YYZmyI8P9U6dPyChUCEuT33S5utCL_FrYe7ddcxp-cnKMHAsq2Q_uFQs1LGaR04gFfMODmcV1hYtc69M6U6M6zhegfzCEl5bRm1jwBnB1cGVeelaxSJ_YP8cGvg3cWIXWWWVU1FsqCUcfridfJQEoybMnYVL6SJGoAYqv0okHblmH5N5bBJGIw_KEuusKG9VIF2Lkw6Z0zjRp97nJdJT-v0q0_XlppjES1trUsJNGuF5tdslo6H6RgkZABks3hHxgokL9rypBFrS-n0gP_wJOxtDtaijheKvbpGJDao_Baf2xRnvQ4rMI1s5r6DAFS9S6Cp24hKtPMtdP7YgkSbt3lPD-X_vWEL57tctP7wdKbSxbVbwPOEnC7pteOTq5S1cNHx0tS_ZG9asFh65kr_7rOaOKvg-zPnQdxRy6W9SrfOCA9UXKEiLp0M7RcIMfVEOzO_2GoZnTb5BJJV6FsuMloRhLQ59Puo57eQofKkLXQBFIJZkHwmHnS-UltXuTjw2Rd9s_kZnawTDBncyo3y0?></g></svg>