<svg xmlns="http://www.w3.org/2000/svg" xmlns:xlink="http://www.w3.org/1999/xlink" contentStyleType="text/css" height="536px" preserveAspectRatio="none" style="width:792px;height:536px;background:#FFFFFF;" version="1.1" viewBox="0 0 792 536" width="792px" zoomAndPan="magnify"><title>S&#233;quence &#8212; Authentification</title><defs/><g><text fill="#000000" font-family="sans-serif" font-size="14" font-weight="bold" lengthAdjust="spacing" textLength="194.8994" x="297.3433" y="29.5332">S&#233;quence &#8212; Authentification</text><rect fill="#FFFFFF" height="238.2969" style="stroke:#181818;stroke-width:1;" width="10" x="263.3164" y="153.5703"/><rect fill="#FFFFFF" height="91.0547" style="stroke:#181818;stroke-width:1;" width="10" x="485.9453" y="183.9219"/><rect fill="none" height="94.8906" style="stroke:#000000;stroke-width:1.5;" width="322.7886" x="10" y="289.9766"/><line style="stroke:#181818;stroke-width:0.5;stroke-dasharray:5.0,5.0;" x1="41" x2="41" y1="121.2188" y2="454.5703"/><line style="stroke:#181818;stroke-width:0.5;stroke-dasharray:5.0,5.0;" x1="267.8442" x2="267.8442" y1="121.2188" y2="454.5703"/><line style="stroke:#181818;stroke-width:0.5;stroke-dasharray:5.0,5.0;" x1="490.4282" x2="490.4282" y1="121.2188" y2="454.5703"/><line style="stroke:#181818;stroke-width:0.5;stroke-dasharray:5.0,5.0;" x1="734.7524" x2="734.7524" y1="121.2188" y2="454.5703"/><text fill="#000000" font-family="sans-serif" font-size="14" lengthAdjust="spacing" textLength="36.5859" x="20" y="118.1426">Agent</text><ellipse cx="41.293" cy="52.1094" fill="#E2E2F0" rx="8" ry="8" style="stroke:#181818;stroke-width:0.5;"/><path d="M41.293,60.1094 L41.293,87.1094 M28.293,68.1094 L54.293,68.1094 M41.293,87.1094 L28.293,102.1094 M41.293,87.1094 L54.293,102.1094 " fill="none" style="stroke:#181818;stroke-width:0.5;"/><text fill="#000000" font-family="sans-serif" font-size="14" lengthAdjust="spacing" textLength="36.5859" x="20" y="468.1035">Agent</text><ellipse cx="41.293" cy="479.6797" fill="#E2E2F0" rx="8" ry="8" style="stroke:#181818;stroke-width:0.5;"/><path d="M41.293,487.6797 L41.293,514.6797 M28.293,495.6797 L54.293,495.6797 M41.293,514.6797 L28.293,529.6797 M41.293,514.6797 L54.293,529.6797 " fill="none" style="stroke:#181818;stroke-width:0.5;"/><rect fill="#E2E2F0" height="31.6094" rx="2.5" ry="2.5" style="stroke:#181818;stroke-width:0.5;" width="108.9443" x="213.8442" y="88.6094"/><text fill="#000000" font-family="sans-serif" font-size="14" lengthAdjust="spacing" textLength="94.9443" x="220.8442" y="110.1426">LoginController</text><rect fill="#E2E2F0" height="31.6094" rx="2.5" ry="2.5" style="stroke:#181818;stroke-width:0.5;" width="108.9443" x="213.8442" y="453.5703"/><text fill="#000000" font-family="sans-serif" font-size="14" lengthAdjust="spacing" textLength="94.9443" x="220.8442" y="475.1035">LoginController</text><rect fill="#E2E2F0" height="31.6094" rx="2.5" ry="2.5" style="stroke:#181818;stroke-width:0.5;" width="133.0342" x="424.4282" y="88.6094"/><text fill="#000000" font-family="sans-serif" font-size="14" lengthAdjust="spacing" textLength="119.0342" x="431.4282" y="110.1426">UserDetailsService</text><rect fill="#E2E2F0" height="31.6094" rx="2.5" ry="2.5" style="stroke:#181818;stroke-width:0.5;" width="133.0342" x="424.4282" y="453.5703"/><text fill="#000000" font-family="sans-serif" font-size="14" lengthAdjust="spacing" textLength="119.0342" x="431.4282" y="475.1035">UserDetailsService</text><text fill="#000000" font-family="sans-serif" font-size="14" lengthAdjust="spacing" textLength="76.2617" x="693.7524" y="118.1426">PostgreSQL</text><path d="M716.8833,67.6094 C716.8833,57.6094 734.8833,57.6094 734.8833,57.6094 C734.8833,57.6094 752.8833,57.6094 752.8833,67.6094 L752.8833,93.6094 C752.8833,103.6094 734.8833,103.6094 734.8833,103.6094 C734.8833,103.6094 716.8833,103.6094 716.8833,93.6094 L716.8833,67.6094 " fill="#E2E2F0" style="stroke:#181818;stroke-width:1.5;"/><path d="M716.8833,67.6094 C716.8833,77.6094 734.8833,77.6094 734.8833,77.6094 C734.8833,77.6094 752.8833,77.6094 752.8833,67.6094 " fill="none" style="stroke:#181818;stroke-width:1.5;"/><text fill="#000000" font-family="sans-serif" font-size="14" lengthAdjust="spacing" textLength="76.2617" x="693.7524" y="468.1035">PostgreSQL</text><path d="M716.8833,481.1797 C716.8833,471.1797 734.8833,471.1797 734.8833,471.1797 C734.8833,471.1797 752.8833,471.1797 752.8833,481.1797 L752.8833,507.1797 C752.8833,517.1797 734.8833,517.1797 734.8833,517.1797 C734.8833,517.1797 716.8833,517.1797 716.8833,507.1797 L716.8833,481.1797 " fill="#E2E2F0" style="stroke:#181818;stroke-width:1.5;"/><path d="M716.8833,481.1797 C716.8833,491.1797 734.8833,491.1797 734.8833,491.1797 C734.8833,491.1797 752.8833,491.1797 752.8833,481.1797 " fill="none" style="stroke:#181818;stroke-width:1.5;"/><rect fill="#FFFFFF" height="238.2969" style="stroke:#181818;stroke-width:1;" width="10" x="263.3164" y="153.5703"/><rect fill="#FFFFFF" height="91.0547" style="stroke:#181818;stroke-width:1;" width="10" x="485.9453" y="183.9219"/><polygon fill="#181818" points="251.3164,149.5703,261.3164,153.5703,251.3164,157.5703,255.3164,153.5703" style="stroke:#181818;stroke-width:1;"/><line style="stroke:#181818;stroke-width:1;" x1="41.293" x2="257.3164" y1="153.5703" y2="153.5703"/><text fill="#000000" font-family="sans-serif" font-size="13" lengthAdjust="spacing" textLength="203.0234" x="48.293" y="148.7139">POST /login (username, password)</text><polygon fill="#181818" points="473.9453,179.9219,483.9453,183.9219,473.9453,187.9219,477.9453,183.9219" style="stroke:#181818;stroke-width:1;"/><line style="stroke:#181818;stroke-width:1;" x1="273.3164" x2="479.9453" y1="183.9219" y2="183.9219"/><text fill="#000000" font-family="sans-serif" font-size="13" lengthAdjust="spacing" textLength="193.6289" x="280.3164" y="179.0654">loadUserByUsername(username)</text><polygon fill="#181818" points="722.8833,210.2734,732.8833,214.2734,722.8833,218.2734,726.8833,214.2734" style="stroke:#181818;stroke-width:1;"/><line style="stroke:#181818;stroke-width:1;" x1="495.9453" x2="728.8833" y1="214.2734" y2="214.2734"/><text fill="#000000" font-family="sans-serif" font-size="13" lengthAdjust="spacing" textLength="214.938" x="502.9453" y="209.417">SELECT user WHERE username = ?</text><polygon fill="#181818" points="506.9453,240.625,496.9453,244.625,506.9453,248.625,502.9453,244.625" style="stroke:#181818;stroke-width:1;"/><line style="stroke:#181818;stroke-width:1;stroke-dasharray:2.0,2.0;" x1="500.9453" x2="733.8833" y1="244.625" y2="244.625"/><text fill="#000000" font-family="sans-serif" font-size="13" lengthAdjust="spacing" textLength="208.0952" x="512.9453" y="239.7686">User (passwordHash, role, enabled)</text><polygon fill="#181818" points="284.3164,270.9766,274.3164,274.9766,284.3164,278.9766,280.3164,274.9766" style="stroke:#181818;stroke-width:1;"/><line style="stroke:#181818;stroke-width:1;stroke-dasharray:2.0,2.0;" x1="278.3164" x2="489.9453" y1="274.9766" y2="274.9766"/><text fill="#000000" font-family="sans-serif" font-size="13" lengthAdjust="spacing" textLength="67.1836" x="290.3164" y="270.1201">UserDetails</text><path d="M10,289.9766 L70.1709,289.9766 L70.1709,298.3281 L60.1709,308.3281 L10,308.3281 L10,289.9766 " fill="#EEEEEE" style="stroke:#000000;stroke-width:1.5;"/><rect fill="none" height="94.8906" style="stroke:#000000;stroke-width:1.5;" width="322.7886" x="10" y="289.9766"/><text fill="#000000" font-family="sans-serif" font-size="13" font-weight="bold" lengthAdjust="spacing" textLength="15.1709" x="25" y="304.4717">alt</text><text fill="#000000" font-family="sans-serif" font-size="11" font-weight="bold" lengthAdjust="spacing" textLength="187.0376" x="85.1709" y="303.3955">[Identifiants valides et compte actif]</text><polygon fill="#181818" points="52.293,326.6797,42.293,330.6797,52.293,334.6797,48.293,330.6797" style="stroke:#181818;stroke-width:1;"/><line style="stroke:#181818;stroke-width:1;stroke-dasharray:2.0,2.0;" x1="46.293" x2="262.3164" y1="330.6797" y2="330.6797"/><text fill="#000000" font-family="sans-serif" font-size="13" lengthAdjust="spacing" textLength="134.418" x="58.293" y="325.8232">Redirection /dashboard</text><line style="stroke:#000000;stroke-width:1;stroke-dasharray:2.0,2.0;" x1="10" x2="332.7886" y1="339.6797" y2="339.6797"/><text fill="#000000" font-family="sans-serif" font-size="11" font-weight="bold" lengthAdjust="spacing" textLength="227.9976" x="15" y="351.0986">[Identifiants invalides ou compte d&#233;sactiv&#233;]</text><polygon fill="#181818" points="52.293,372.8672,42.293,376.8672,52.293,380.8672,48.293,376.8672" style="stroke:#181818;stroke-width:1;"/><line style="stroke:#181818;stroke-width:1;stroke-dasharray:2.0,2.0;" x1="46.293" x2="262.3164" y1="376.8672" y2="376.8672"/><text fill="#000000" font-family="sans-serif" font-size="13" lengthAdjust="spacing" textLength="177.0044" x="58.293" y="372.0107">Page login + message d'erreur</text><path d="M439,396.8672 L439,438.8672 L785,438.8672 L785,406.8672 L775,396.8672 L439,396.8672 " fill="#FEFFDD" style="stroke:#181818;stroke-width:0.5;"/><path d="M775,396.8672 L775,406.8672 L785,406.8672 L775,396.8672 " fill="#FEFFDD" style="stroke:#181818;stroke-width:0.5;"/><text fill="#000000" font-family="sans-serif" font-size="13" lengthAdjust="spacing" textLength="179.9053" x="517.8403" y="415.3623">Mot de passe v&#233;rifi&#233; via BCrypt</text><text fill="#000000" font-family="sans-serif" font-size="13" lengthAdjust="spacing" textLength="156.0825" x="517.8403" y="431.7139">Acc&#232;s selon le r&#244;le attribu&#233;</text><!--SRC=[PL9DRXen5Dxx59_OD5M9ie_KLZ0WfH9HQPoewyVuCLWrzjJsWBBh8Ng8ikyDvYOzIPy7Y8YoyKZszpVVU-c7zIr5sY9jo8IzzGtMv1AhzF8IERN19xxdbAZXARkmdyGOziYnOwMopOwX-yFFZdtD-FVhDoPTth3FTcrhoZPufQZE8MBIoAqItMnhsvBF62r2OtqLV8x1EOuZK4Br6lAKECuuatL9SzpPcWUKLeOohIWnHikGSXDPVriCJxEfKeCNhZ-XmYsMN_KZRbpnmbKdUfwsF4PBAUr3DEzBFhkZpE9T5P8MaWjaYlVq-Ud4UA5U4BJIXJ2R2aFF5_Fg4GM5xtVpXpdE17p4PoMOwvDsKSJLsV-EqcOCQK0oiQULOuca1t1r0fyAK8Old1MvZ2_cMBLqbR0ZPmqdS4OTjgsW2doj8495xjZABHxOsCXr6GvkZDYl0aMZM6R_Mj3wisJepfAcFwGXHNzu8xoK7S6nw0_O7dS6vXt7o5rKxCtb7rHA-I3Vi9CszBZC3RWF6OQ7sJ348agK_e2T9Koh-DncmKpgkl-Ja6GPFMJzOlzNJievsbKdgSG7HLdz1m00]--></g></svg>