<svg xmlns="http://www.w3.org/2000/svg" xmlns:xlink="http://www.w3.org/1999/xlink" version="1.1" data-diagram-type="SEQUENCE" style="width:864px;height:521px;background:#FFFFFF;" width="864px" height="521px" viewBox="0 0 864 521" zoomAndPan="magnify" preserveAspectRatio="none" contentStyleType="text/css"><?plantuml 1.2026.7beta3?><defs/><g><g class="title" data-source-line="4"><text x="314.5679" y="27.9951" fill="#000000" font-size="14" lengthAdjust="spacing" textLength="228.6963" font-weight="700" font-family="sans-serif">Séquence — Authentification</text></g><g><title>LoginController</title><rect x="286.8745" y="149.7266" width="10" height="228.7344" fill="#FFFFFF" style="stroke:#181818;stroke-width:1;"/></g><g><title>UserDetailsService</title><rect x="531.7646" y="178.8594" width="10" height="87.3984" fill="#FFFFFF" style="stroke:#181818;stroke-width:1;"/></g><rect x="10" y="281.2578" width="352.4683" height="90.2031" fill="none" style="stroke:#000000;stroke-width:1.5;"/><g class="participant-lifeline" data-qualified-name="Agent" data-entity-uid="part1" id="part1-lifeline" data-source-line="6"><g><title>Agent</title><rect x="39.7197" y="118.5938" width="8" height="320.1328" fill="#000000" fill-opacity="0.00000"/><line x1="43" y1="118.5938" x2="43" y2="438.7266" style="stroke:#181818;stroke-width:0.5;stroke-dasharray:5,5;"/></g></g><g class="participant-lifeline" data-qualified-name="C" data-entity-uid="part2" id="part2-lifeline" data-source-line="7"><g><title>LoginController</title><rect x="287.8745" y="118.5938" width="8" height="320.1328" fill="#000000" fill-opacity="0.00000"/><line x1="291.2808" y1="118.5938" x2="291.2808" y2="438.7266" style="stroke:#181818;stroke-width:0.5;stroke-dasharray:5,5;"/></g></g><g class="participant-lifeline" data-qualified-name="S" data-entity-uid="part3" id="part3-lifeline" data-source-line="8"><g><title>UserDetailsService</title><rect x="532.7646" y="118.5938" width="8" height="320.1328" fill="#000000" fill-opacity="0.00000"/><line x1="536.6714" y1="118.5938" x2="536.6714" y2="438.7266" style="stroke:#181818;stroke-width:0.5;stroke-dasharray:5,5;"/></g></g><g class="participant-lifeline" data-qualified-name="DB" data-entity-uid="part4" id="part4-lifeline" data-source-line="9"><g><title>PostgreSQL</title><rect x="794.127" y="118.5938" width="8" height="320.1328" fill="#000000" fill-opacity="0.00000"/><line x1="797.7505" y1="118.5938" x2="797.7505" y2="438.7266" style="stroke:#181818;stroke-width:0.5;stroke-dasharray:5,5;"/></g></g><g class="participant participant-head" data-qualified-name="Agent" data-entity-uid="part1" id="part1-head" data-source-line="6"><text x="20" y="115.292" fill="#000000" font-size="14" lengthAdjust="spacing" textLength="41.4395" font-family="sans-serif">Agent</text><ellipse cx="43.7197" cy="50.7969" rx="8" ry="8" fill="#E2E2F0" style="stroke:#181818;stroke-width:0.5;"/><path d="M43.7197,58.7969 L43.7197,85.7969 M30.7197,66.7969 L56.7197,66.7969 M43.7197,85.7969 L30.7197,100.7969 M43.7197,85.7969 L56.7197,100.7969" style="stroke:#181818;stroke-width:0.5;" fill="none"/></g><g class="participant participant-tail" data-qualified-name="Agent" data-entity-uid="part1" id="part1-tail" data-source-line="6"><text x="20" y="450.7217" fill="#000000" font-size="14" lengthAdjust="spacing" textLength="41.4395" font-family="sans-serif">Agent</text><ellipse cx="43.7197" cy="462.5234" rx="8" ry="8" fill="#E2E2F0" style="stroke:#181818;stroke-width:0.5;"/><path d="M43.7197,470.5234 L43.7197,497.5234 M30.7197,478.5234 L56.7197,478.5234 M43.7197,497.5234 L30.7197,512.5234 M43.7197,497.5234 L56.7197,512.5234" style="stroke:#181818;stroke-width:0.5;" fill="none"/></g><g class="participant participant-head" data-qualified-name="C" data-entity-uid="part2" id="part2-head" data-source-line="7"><rect x="231.2808" y="87.2969" width="121.1875" height="30.2969" fill="#E2E2F0" style="stroke:#181818;stroke-width:0.5;" rx="2.5" ry="2.5"/><text x="238.2808" y="107.292" fill="#000000" font-size="14" lengthAdjust="spacing" textLength="107.1875" font-family="sans-serif">LoginController</text></g><g class="participant participant-tail" data-qualified-name="C" data-entity-uid="part2" id="part2-tail" data-source-line="7"><rect x="231.2808" y="437.7266" width="121.1875" height="30.2969" fill="#E2E2F0" style="stroke:#181818;stroke-width:0.5;" rx="2.5" ry="2.5"/><text x="238.2808" y="457.7217" fill="#000000" font-size="14" lengthAdjust="spacing" textLength="107.1875" font-family="sans-serif">LoginController</text></g><g class="participant participant-head" data-qualified-name="S" data-entity-uid="part3" id="part3-head" data-source-line="8"><rect x="463.6714" y="87.2969" width="146.1865" height="30.2969" fill="#E2E2F0" style="stroke:#181818;stroke-width:0.5;" rx="2.5" ry="2.5"/><text x="470.6714" y="107.292" fill="#000000" font-size="14" lengthAdjust="spacing" textLength="132.1865" font-family="sans-serif">UserDetailsService</text></g><g class="participant participant-tail" data-qualified-name="S" data-entity-uid="part3" id="part3-tail" data-source-line="8"><rect x="463.6714" y="437.7266" width="146.1865" height="30.2969" fill="#E2E2F0" style="stroke:#181818;stroke-width:0.5;" rx="2.5" ry="2.5"/><text x="470.6714" y="457.7217" fill="#000000" font-size="14" lengthAdjust="spacing" textLength="132.1865" font-family="sans-serif">UserDetailsService</text></g><g class="participant participant-head" data-qualified-name="DB" data-entity-uid="part4" id="part4-head" data-source-line="9"><text x="754.7505" y="115.292" fill="#000000" font-size="14" lengthAdjust="spacing" textLength="80.7529" font-family="sans-serif">PostgreSQL</text><path d="M780.127,66.2969 C780.127,56.2969 798.127,56.2969 798.127,56.2969 C798.127,56.2969 816.127,56.2969 816.127,66.2969 L816.127,92.2969 C816.127,102.2969 798.127,102.2969 798.127,102.2969 C798.127,102.2969 780.127,102.2969 780.127,92.2969 L780.127,66.2969" style="stroke:#181818;stroke-width:0.5;" fill="#E2E2F0"/><path d="M780.127,66.2969 C780.127,76.2969 798.127,76.2969 798.127,76.2969 C798.127,76.2969 816.127,76.2969 816.127,66.2969" style="stroke:#181818;stroke-width:0.5;" fill="none"/></g><g class="participant participant-tail" data-qualified-name="DB" data-entity-uid="part4" id="part4-tail" data-source-line="9"><text x="754.7505" y="450.7217" fill="#000000" font-size="14" lengthAdjust="spacing" textLength="80.7529" font-family="sans-serif">PostgreSQL</text><path d="M780.127,464.0234 C780.127,454.0234 798.127,454.0234 798.127,454.0234 C798.127,454.0234 816.127,454.0234 816.127,464.0234 L816.127,490.0234 C816.127,500.0234 798.127,500.0234 798.127,500.0234 C798.127,500.0234 780.127,500.0234 780.127,490.0234 L780.127,464.0234" style="stroke:#181818;stroke-width:0.5;" fill="#E2E2F0"/><path d="M780.127,464.0234 C780.127,474.0234 798.127,474.0234 798.127,474.0234 C798.127,474.0234 816.127,474.0234 816.127,464.0234" style="stroke:#181818;stroke-width:0.5;" fill="none"/></g><g><title>LoginController</title><rect x="286.8745" y="149.7266" width="10" height="228.7344" fill="#FFFFFF" style="stroke:#181818;stroke-width:1;"/></g><g><title>UserDetailsService</title><rect x="531.7646" y="178.8594" width="10" height="87.3984" fill="#FFFFFF" style="stroke:#181818;stroke-width:1;"/></g><g class="message" data-entity-1="part1" data-entity-2="part2" id="msg1" data-source-line="11"><polygon points="274.8745,145.7266,284.8745,149.7266,274.8745,153.7266,278.8745,149.7266" fill="#181818" style="stroke:#181818;stroke-width:1;stroke-linejoin:miter;stroke-miterlimit:10;"/><line x1="43.7197" y1="149.7266" x2="280.8745" y2="149.7266" style="stroke:#181818;stroke-width:1;"/><text x="50.7197" y="144.6606" fill="#000000" font-size="13" lengthAdjust="spacing" textLength="224.1548" font-family="sans-serif">POST /login (username, password)</text></g><g class="message" data-entity-1="part2" data-entity-2="part3" id="msg2" data-source-line="13"><polygon points="519.7646,174.8594,529.7646,178.8594,519.7646,182.8594,523.7646,178.8594" fill="#181818" style="stroke:#181818;stroke-width:1;stroke-linejoin:miter;stroke-miterlimit:10;"/><line x1="296.8745" y1="178.8594" x2="525.7646" y2="178.8594" style="stroke:#181818;stroke-width:1;"/><text x="303.8745" y="173.7935" fill="#000000" font-size="13" lengthAdjust="spacing" textLength="215.8901" font-family="sans-serif">loadUserByUsername(username)</text></g><g class="message" data-entity-1="part3" data-entity-2="part4" id="msg3" data-source-line="15"><polygon points="786.127,203.9922,796.127,207.9922,786.127,211.9922,790.127,207.9922" fill="#181818" style="stroke:#181818;stroke-width:1;stroke-linejoin:miter;stroke-miterlimit:10;"/><line x1="541.7646" y1="207.9922" x2="792.127" y2="207.9922" style="stroke:#181818;stroke-width:1;"/><text x="548.7646" y="202.9263" fill="#000000" font-size="13" lengthAdjust="spacing" textLength="229.0615" font-family="sans-serif">SELECT user WHERE username = ?</text></g><g class="message" data-entity-1="part4" data-entity-2="part3" id="msg4" data-source-line="16"><polygon points="552.7646,233.125,542.7646,237.125,552.7646,241.125,548.7646,237.125" fill="#181818" style="stroke:#181818;stroke-width:1;stroke-linejoin:miter;stroke-miterlimit:10;"/><line x1="546.7646" y1="237.125" x2="797.127" y2="237.125" style="stroke:#181818;stroke-width:1;stroke-dasharray:2,2;"/><text x="558.7646" y="232.0591" fill="#000000" font-size="13" lengthAdjust="spacing" textLength="232.3623" font-family="sans-serif">User (passwordHash, role, enabled)</text></g><g class="message" data-entity-1="part3" data-entity-2="part2" id="msg5" data-source-line="17"><polygon points="307.8745,262.2578,297.8745,266.2578,307.8745,270.2578,303.8745,266.2578" fill="#181818" style="stroke:#181818;stroke-width:1;stroke-linejoin:miter;stroke-miterlimit:10;"/><line x1="301.8745" y1="266.2578" x2="535.7646" y2="266.2578" style="stroke:#181818;stroke-width:1;stroke-dasharray:2,2;"/><text x="313.8745" y="261.1919" fill="#000000" font-size="13" lengthAdjust="spacing" textLength="74.6992" font-family="sans-serif">UserDetails</text></g><path d="M10,281.2578 L74.4429,281.2578 L74.4429,288.3906 L64.4429,298.3906 L10,298.3906 L10,281.2578" style="stroke:#000000;stroke-width:1.5;" fill="#EEEEEE"/><rect x="10" y="281.2578" width="352.4683" height="90.2031" fill="none" style="stroke:#000000;stroke-width:1.5;"/><text x="25" y="294.3247" fill="#000000" font-size="13" lengthAdjust="spacing" textLength="19.4429" font-weight="700" font-family="sans-serif">alt</text><text x="89.4429" y="293.4683" fill="#000000" font-size="11" lengthAdjust="spacing" textLength="227.9009" font-weight="700" font-family="sans-serif">[Identifiants valides et compte actif]</text><g class="message" data-entity-1="part2" data-entity-2="part1" id="msg6" data-source-line="21"><polygon points="54.7197,315.5234,44.7197,319.5234,54.7197,323.5234,50.7197,319.5234" fill="#181818" style="stroke:#181818;stroke-width:1;stroke-linejoin:miter;stroke-miterlimit:10;"/><line x1="48.7197" y1="319.5234" x2="285.8745" y2="319.5234" style="stroke:#181818;stroke-width:1;stroke-dasharray:2,2;"/><text x="60.7197" y="314.4575" fill="#000000" font-size="13" lengthAdjust="spacing" textLength="151.7979" font-family="sans-serif">Redirection /dashboard</text></g><line x1="10" y1="328.5234" x2="362.4683" y2="328.5234" style="stroke:#000000;stroke-width:1;stroke-dasharray:2,2;"/><text x="15" y="338.7339" fill="#000000" font-size="11" lengthAdjust="spacing" textLength="273.8989" font-weight="700" font-family="sans-serif">[Identifiants invalides ou compte désactivé]</text><g class="message" data-entity-1="part2" data-entity-2="part1" id="msg7" data-source-line="23"><polygon points="54.7197,359.4609,44.7197,363.4609,54.7197,367.4609,50.7197,363.4609" fill="#181818" style="stroke:#181818;stroke-width:1;stroke-linejoin:miter;stroke-miterlimit:10;"/><line x1="48.7197" y1="363.4609" x2="285.8745" y2="363.4609" style="stroke:#181818;stroke-width:1;stroke-dasharray:2,2;"/><text x="60.7197" y="358.395" fill="#000000" font-size="13" lengthAdjust="spacing" textLength="201.665" font-family="sans-serif">Page login + message d'erreur</text></g><path d="M481,383.4609 L481,423.4609 L853,423.4609 L853,393.4609 L843,383.4609 L481,383.4609" style="stroke:#181818;stroke-width:0.5;" fill="#FEFFDD"/><path d="M843,383.4609 L843,393.4609 L853,393.4609 L843,383.4609" style="stroke:#181818;stroke-width:0.5;" fill="#FEFFDD"/><text x="561.2012" y="400.5278" fill="#000000" font-size="13" lengthAdjust="spacing" textLength="203.4297" font-family="sans-serif">Mot de passe vérifié via BCrypt</text><text x="561.2012" y="415.6606" fill="#000000" font-size="13" lengthAdjust="spacing" textLength="177.1885" font-family="sans-serif">Accès selon le rôle attribué</text><?plantuml-src PL9DRXen5Dxx59_OD5M9ie_KLZ0WfH9HQPoewyVuCLWrzjJsWBBh8Ng8ikyDvYOzIPy7Y8YoyKZszpVVU-c7zIr5sY9jo8IzzGtMv1AhzF8IERN19xxdbAZXARkmdyGOziYnOwMopOwX-yFFZdtD-FVhDoPTth3FTcrhoZPufQZE8MBIoAqItMnhsvBF62r2OtqLV8x1EOuZK4Br6lAKECuuatL9SzpPcWUKLeOohIWnHikGSXDPVriCJxEfKeCNhZ-XmYsMN_KZRbpnmbKdUfwsF4PBAUr3DEzBFhkZpE9T5P8MaWjaYlVq-Ud4UA5U4BJIXJ2R2aFF5_Fg4GM5xtVpXpdE17p4PoMOwvDsKSJLsV-EqcOCQK0oiQULOuca1t1r0fyAK8Old1MvZ2_cMBLqbR0ZPmqdS4OTjgsW2doj8495xjZABHxOsCXr6GvkZDYl0aMZM6R_Mj3wisJepfAcFwGXHNzu8xoK7S6nw0_O7dS6vXt7o5rKxCtb7rHA-I3Vi9CszBZC3RWF6OQ7sJ348agK_e2T9Koh-DncmKpgkl-Ja6GPFMJzOlzNJievsbKdgSG7HVa_?></g></svg>