<svg xmlns="http://www.w3.org/2000/svg" xmlns:xlink="http://www.w3.org/1999/xlink" version="1.1" data-diagram-type="SEQUENCE" style="width:1079px;height:1326px;background:#FFFFFF;" width="1079px" height="1326px" viewBox="0 0 1079 1326" zoomAndPan="magnify" preserveAspectRatio="none" contentStyleType="text/css"><?plantuml 1.2026.7beta3?><defs/><g><g class="title" data-source-line="10"><text x="338.9824" y="35.9951" fill="#000000" font-size="14" lengthAdjust="spacing" textLength="394.9531" font-weight="700" font-family="sans-serif">Séquence — Authentification (personnel et client)</text></g><rect x="3" y="61.2969" width="1063.918" height="38.2813" fill="#FFFFCC" style="stroke:#FFDD88;stroke-width:3;" rx="2.5" ry="2.5"/><text x="10" y="71.9375" fill="#000000" font-size="10" lengthAdjust="spacing" textLength="361.2305" font-family="monospace">Please use CSS style instead of skinparam ParticipantPadding</text><text x="10" y="93.5781" fill="#000000" font-size="10" lengthAdjust="spacing" textLength="295.0049" font-family="monospace">Please use CSS style instead of skinparam padding</text><g><title>LoginController</title><rect x="345.6504" y="237.5156" width="10" height="877.25" fill="#FFFFFF" style="stroke:#181818;stroke-width:1;"/></g><g><title>UserDetailsServiceImpl</title><rect x="716.4805" y="281.4844" width="10" height="515.5625" fill="#FFFFFF" style="stroke:#181818;stroke-width:1;"/></g><rect x="269.7129" y="340.4531" width="785.9229" height="449.5938" fill="none" style="stroke:#000000;stroke-width:1.5;"/><rect x="279.7129" y="572.2344" width="765.9229" height="210.8125" fill="none" style="stroke:#000000;stroke-width:1.5;"/><rect x="10" y="804.0469" width="421.5879" height="303.7188" fill="none" style="stroke:#000000;stroke-width:1.5;"/><rect x="20" y="857.9844" width="401.5879" height="166.8438" fill="none" style="stroke:#000000;stroke-width:1.5;"/><g class="participant-lifeline" data-qualified-name="U" data-entity-uid="part1" id="part1-lifeline" data-source-line="12"><g><title>Utilisateur</title><rect x="67.8613" y="191.5469" width="8" height="1039.0625" fill="#000000" fill-opacity="0.00000"/><line x1="71" y1="191.5469" x2="71" y2="1230.6094" style="stroke:#181818;stroke-width:0.5;stroke-dasharray:5,5;"/></g></g><g class="participant-lifeline" data-qualified-name="C" data-entity-uid="part2" id="part2-lifeline" data-source-line="13"><g><title>LoginController</title><rect x="346.6504" y="191.5469" width="8" height="1039.0625" fill="#000000" fill-opacity="0.00000"/><line x1="349.7129" y1="191.5469" x2="349.7129" y2="1230.6094" style="stroke:#181818;stroke-width:0.5;stroke-dasharray:5,5;"/></g></g><g class="participant-lifeline" data-qualified-name="S" data-entity-uid="part3" id="part3-lifeline" data-source-line="14"><g><title>UserDetailsServiceImpl</title><rect x="717.4805" y="191.5469" width="8" height="1039.0625" fill="#000000" fill-opacity="0.00000"/><line x1="720.7393" y1="191.5469" x2="720.7393" y2="1230.6094" style="stroke:#181818;stroke-width:0.5;stroke-dasharray:5,5;"/></g></g><g class="participant-lifeline" data-qualified-name="DB" data-entity-uid="part4" id="part4-lifeline" data-source-line="15"><g><title>PostgreSQL</title><rect x="986.0273" y="191.5469" width="8" height="1039.0625" fill="#000000" fill-opacity="0.00000"/><line x1="989.4189" y1="191.5469" x2="989.4189" y2="1230.6094" style="stroke:#181818;stroke-width:0.5;stroke-dasharray:5,5;"/></g></g><g class="participant participant-head" data-qualified-name="U" data-entity-uid="part1" id="part1-head" data-source-line="12"><text x="38" y="180.7168" fill="#000000" font-size="12" lengthAdjust="spacing" textLength="61.7227" font-family="sans-serif">Utilisateur</text><ellipse cx="71.8613" cy="110.0781" rx="8" ry="8" fill="#E2E2F0" style="stroke:#181818;stroke-width:0.5;"/><path d="M71.8613,118.0781 L71.8613,145.0781 M58.8613,126.0781 L84.8613,126.0781 M71.8613,145.0781 L58.8613,160.0781 M71.8613,145.0781 L84.8613,160.0781" style="stroke:#181818;stroke-width:0.5;" fill="none"/></g><g class="participant participant-tail" data-qualified-name="U" data-entity-uid="part1" id="part1-tail" data-source-line="12"><text x="38" y="1248.748" fill="#000000" font-size="12" lengthAdjust="spacing" textLength="61.7227" font-family="sans-serif">Utilisateur</text><ellipse cx="71.8613" cy="1268.0781" rx="8" ry="8" fill="#E2E2F0" style="stroke:#181818;stroke-width:0.5;"/><path d="M71.8613,1276.0781 L71.8613,1303.0781 M58.8613,1284.0781 L84.8613,1284.0781 M71.8613,1303.0781 L58.8613,1318.0781 M71.8613,1303.0781 L84.8613,1318.0781" style="stroke:#181818;stroke-width:0.5;" fill="none"/></g><g class="participant participant-head" data-qualified-name="C" data-entity-uid="part2" id="part2-head" data-source-line="13"><rect x="289.7129" y="146.5781" width="121.875" height="43.9688" fill="#E2E2F0" style="stroke:#181818;stroke-width:0.5;" rx="2.5" ry="2.5"/><text x="304.7129" y="172.7168" fill="#000000" font-size="12" lengthAdjust="spacing" textLength="91.875" font-family="sans-serif">LoginController</text></g><g class="participant participant-tail" data-qualified-name="C" data-entity-uid="part2" id="part2-tail" data-source-line="13"><rect x="289.7129" y="1229.6094" width="121.875" height="43.9688" fill="#E2E2F0" style="stroke:#181818;stroke-width:0.5;" rx="2.5" ry="2.5"/><text x="304.7129" y="1255.748" fill="#000000" font-size="12" lengthAdjust="spacing" textLength="91.875" font-family="sans-serif">LoginController</text></g><g class="participant participant-head" data-qualified-name="S" data-entity-uid="part3" id="part3-head" data-source-line="14"><rect x="636.7393" y="146.5781" width="169.4824" height="43.9688" fill="#E2E2F0" style="stroke:#181818;stroke-width:0.5;" rx="2.5" ry="2.5"/><text x="651.7393" y="172.7168" fill="#000000" font-size="12" lengthAdjust="spacing" textLength="139.4824" font-family="sans-serif">UserDetailsServiceImpl</text></g><g class="participant participant-tail" data-qualified-name="S" data-entity-uid="part3" id="part3-tail" data-source-line="14"><rect x="636.7393" y="1229.6094" width="169.4824" height="43.9688" fill="#E2E2F0" style="stroke:#181818;stroke-width:0.5;" rx="2.5" ry="2.5"/><text x="651.7393" y="1255.748" fill="#000000" font-size="12" lengthAdjust="spacing" textLength="139.4824" font-family="sans-serif">UserDetailsServiceImpl</text></g><g class="participant participant-head" data-qualified-name="DB" data-entity-uid="part4" id="part4-head" data-source-line="15"><text x="952.4189" y="180.7168" fill="#000000" font-size="12" lengthAdjust="spacing" textLength="69.2168" font-family="sans-serif">PostgreSQL</text><path d="M972.0273,125.5781 C972.0273,115.5781 990.0273,115.5781 990.0273,115.5781 C990.0273,115.5781 1008.0273,115.5781 1008.0273,125.5781 L1008.0273,151.5781 C1008.0273,161.5781 990.0273,161.5781 990.0273,161.5781 C990.0273,161.5781 972.0273,161.5781 972.0273,151.5781 L972.0273,125.5781" style="stroke:#181818;stroke-width:0.5;" fill="#E2E2F0"/><path d="M972.0273,125.5781 C972.0273,135.5781 990.0273,135.5781 990.0273,135.5781 C990.0273,135.5781 1008.0273,135.5781 1008.0273,125.5781" style="stroke:#181818;stroke-width:0.5;" fill="none"/></g><g class="participant participant-tail" data-qualified-name="DB" data-entity-uid="part4" id="part4-tail" data-source-line="15"><text x="952.4189" y="1248.748" fill="#000000" font-size="12" lengthAdjust="spacing" textLength="69.2168" font-family="sans-serif">PostgreSQL</text><path d="M972.0273,1269.5781 C972.0273,1259.5781 990.0273,1259.5781 990.0273,1259.5781 C990.0273,1259.5781 1008.0273,1259.5781 1008.0273,1269.5781 L1008.0273,1295.5781 C1008.0273,1305.5781 990.0273,1305.5781 990.0273,1305.5781 C990.0273,1305.5781 972.0273,1305.5781 972.0273,1295.5781 L972.0273,1269.5781" style="stroke:#181818;stroke-width:0.5;" fill="#E2E2F0"/><path d="M972.0273,1269.5781 C972.0273,1279.5781 990.0273,1279.5781 990.0273,1279.5781 C990.0273,1279.5781 1008.0273,1279.5781 1008.0273,1269.5781" style="stroke:#181818;stroke-width:0.5;" fill="none"/></g><g><title>LoginController</title><rect x="345.6504" y="237.5156" width="10" height="877.25" fill="#FFFFFF" style="stroke:#181818;stroke-width:1;"/></g><g><title>UserDetailsServiceImpl</title><rect x="716.4805" y="281.4844" width="10" height="515.5625" fill="#FFFFFF" style="stroke:#181818;stroke-width:1;"/></g><g class="message" data-entity-1="part1" data-entity-2="part2" id="msg1" data-source-line="17"><polygon points="333.6504,233.5156,343.6504,237.5156,333.6504,241.5156,337.6504,237.5156" fill="#181818" style="stroke:#181818;stroke-width:1;stroke-linejoin:miter;stroke-miterlimit:10;"/><line x1="71.8613" y1="237.5156" x2="339.6504" y2="237.5156" style="stroke:#181818;stroke-width:1;"/><text x="86.8613" y="224.6855" fill="#000000" font-size="12" lengthAdjust="spacing" textLength="231.9492" font-family="sans-serif">POST /login (identifiant, mot de passe)</text></g><g class="message" data-entity-1="part2" data-entity-2="part3" id="msg2" data-source-line="19"><polygon points="704.4805,277.4844,714.4805,281.4844,704.4805,285.4844,708.4805,281.4844" fill="#181818" style="stroke:#181818;stroke-width:1;stroke-linejoin:miter;stroke-miterlimit:10;"/><line x1="355.6504" y1="281.4844" x2="710.4805" y2="281.4844" style="stroke:#181818;stroke-width:1;"/><text x="370.6504" y="268.6543" fill="#000000" font-size="12" lengthAdjust="spacing" textLength="200.2793" font-family="sans-serif">loadUserByUsername(identifiant)</text></g><g class="message" data-entity-1="part3" data-entity-2="part4" id="msg3" data-source-line="22"><polygon points="978.0273,321.4531,988.0273,325.4531,978.0273,329.4531,982.0273,325.4531" fill="#181818" style="stroke:#181818;stroke-width:1;stroke-linejoin:miter;stroke-miterlimit:10;"/><line x1="726.4805" y1="325.4531" x2="984.0273" y2="325.4531" style="stroke:#181818;stroke-width:1;"/><text x="741.4805" y="312.623" fill="#000000" font-size="12" lengthAdjust="spacing" textLength="211.4414" font-family="sans-serif">SELECT user WHERE username = ?</text></g><path d="M269.7129,340.4531 L348.6602,340.4531 L348.6602,362.4219 L338.6602,372.4219 L269.7129,372.4219 L269.7129,340.4531" style="stroke:#000000;stroke-width:1.5;" fill="#EEEEEE"/><rect x="269.7129" y="340.4531" width="785.9229" height="449.5938" fill="none" style="stroke:#000000;stroke-width:1.5;"/><text x="292.7129" y="360.5918" fill="#000000" font-size="12" lengthAdjust="spacing" textLength="17.9473" font-weight="700" font-family="sans-serif">alt</text><text x="371.6602" y="361.5918" fill="#000000" font-size="12" lengthAdjust="spacing" textLength="127.125" font-weight="700" font-family="sans-serif">[Personnel trouvé]</text><g class="message" data-entity-1="part4" data-entity-2="part3" id="msg4" data-source-line="24"><polygon points="737.4805,419.3594,727.4805,423.3594,737.4805,427.3594,733.4805,423.3594" fill="#181818" style="stroke:#181818;stroke-width:1;stroke-linejoin:miter;stroke-miterlimit:10;"/><line x1="731.4805" y1="423.3594" x2="989.0273" y2="423.3594" style="stroke:#181818;stroke-width:1;stroke-dasharray:2,2;"/><text x="751.4805" y="410.5293" fill="#000000" font-size="12" lengthAdjust="spacing" textLength="214.4883" font-family="sans-serif">User (passwordHash, role, enabled)</text></g><g class="message" data-entity-1="part3" data-entity-2="part2" id="msg5" data-source-line="25"><polygon points="366.6504,463.3281,356.6504,467.3281,366.6504,471.3281,362.6504,467.3281" fill="#181818" style="stroke:#181818;stroke-width:1;stroke-linejoin:miter;stroke-miterlimit:10;"/><line x1="360.6504" y1="467.3281" x2="715.4805" y2="467.3281" style="stroke:#181818;stroke-width:1;stroke-dasharray:2,2;"/><text x="380.6504" y="454.498" fill="#000000" font-size="12" lengthAdjust="spacing" textLength="320.8301" font-family="sans-serif">SecurityUser (ROLE_ADMIN / AGENT / CHEF_AGENCE)</text></g><line x1="269.7129" y1="476.3281" x2="1055.6357" y2="476.3281" style="stroke:#000000;stroke-width:1;stroke-dasharray:2,2;"/><text x="282.7129" y="495.4668" fill="#000000" font-size="12" lengthAdjust="spacing" textLength="160.582" font-weight="700" font-family="sans-serif">[Personnel introuvable]</text><g class="message" data-entity-1="part3" data-entity-2="part4" id="msg6" data-source-line="27"><polygon points="978.0273,553.2344,988.0273,557.2344,978.0273,561.2344,982.0273,557.2344" fill="#181818" style="stroke:#181818;stroke-width:1;stroke-linejoin:miter;stroke-miterlimit:10;"/><line x1="726.4805" y1="557.2344" x2="984.0273" y2="557.2344" style="stroke:#181818;stroke-width:1;"/><text x="741.4805" y="530.4355" fill="#000000" font-size="12" lengthAdjust="spacing" textLength="223.5469" font-family="sans-serif">SELECT client WHERE portal_enabled</text><text x="741.4805" y="544.4043" fill="#000000" font-size="12" lengthAdjust="spacing" textLength="216.4512" font-family="sans-serif">AND (cin = ? OR client_number = ?)</text></g><path d="M279.7129,572.2344 L358.6602,572.2344 L358.6602,594.2031 L348.6602,604.2031 L279.7129,604.2031 L279.7129,572.2344" style="stroke:#000000;stroke-width:1.5;" fill="#EEEEEE"/><rect x="279.7129" y="572.2344" width="765.9229" height="210.8125" fill="none" style="stroke:#000000;stroke-width:1.5;"/><text x="302.7129" y="592.373" fill="#000000" font-size="12" lengthAdjust="spacing" textLength="17.9473" font-weight="700" font-family="sans-serif">alt</text><text x="381.6602" y="593.373" fill="#000000" font-size="12" lengthAdjust="spacing" textLength="133.8691" font-weight="700" font-family="sans-serif">[Client portail actif]</text><g class="message" data-entity-1="part4" data-entity-2="part3" id="msg7" data-source-line="29"><polygon points="737.4805,651.1406,727.4805,655.1406,737.4805,659.1406,733.4805,655.1406" fill="#181818" style="stroke:#181818;stroke-width:1;stroke-linejoin:miter;stroke-miterlimit:10;"/><line x1="731.4805" y1="655.1406" x2="989.0273" y2="655.1406" style="stroke:#181818;stroke-width:1;stroke-dasharray:2,2;"/><text x="751.4805" y="642.3105" fill="#000000" font-size="12" lengthAdjust="spacing" textLength="186.2109" font-family="sans-serif">Client (passwordHash, ACTIVE)</text></g><g class="message" data-entity-1="part3" data-entity-2="part2" id="msg8" data-source-line="30"><polygon points="366.6504,695.1094,356.6504,699.1094,366.6504,703.1094,362.6504,699.1094" fill="#181818" style="stroke:#181818;stroke-width:1;stroke-linejoin:miter;stroke-miterlimit:10;"/><line x1="360.6504" y1="699.1094" x2="715.4805" y2="699.1094" style="stroke:#181818;stroke-width:1;stroke-dasharray:2,2;"/><text x="380.6504" y="686.2793" fill="#000000" font-size="12" lengthAdjust="spacing" textLength="177.7383" font-family="sans-serif">SecurityClient (ROLE_CLIENT)</text></g><line x1="279.7129" y1="708.1094" x2="1045.6357" y2="708.1094" style="stroke:#000000;stroke-width:1;stroke-dasharray:2,2;"/><text x="292.7129" y="727.248" fill="#000000" font-size="12" lengthAdjust="spacing" textLength="140.0859" font-weight="700" font-family="sans-serif">[Identifiant inconnu]</text><g class="message" data-entity-1="part3" data-entity-2="part2" id="msg9" data-source-line="32"><polygon points="366.6504,771.0469,356.6504,775.0469,366.6504,779.0469,362.6504,775.0469" fill="#181818" style="stroke:#181818;stroke-width:1;stroke-linejoin:miter;stroke-miterlimit:10;"/><line x1="360.6504" y1="775.0469" x2="715.4805" y2="775.0469" style="stroke:#181818;stroke-width:1;stroke-dasharray:2,2;"/><text x="380.6504" y="762.2168" fill="#000000" font-size="12" lengthAdjust="spacing" textLength="178.7461" font-family="sans-serif">UsernameNotFoundException</text></g><path d="M10,804.0469 L88.9473,804.0469 L88.9473,826.0156 L78.9473,836.0156 L10,836.0156 L10,804.0469" style="stroke:#000000;stroke-width:1.5;" fill="#EEEEEE"/><rect x="10" y="804.0469" width="421.5879" height="303.7188" fill="none" style="stroke:#000000;stroke-width:1.5;"/><text x="33" y="824.1855" fill="#000000" font-size="12" lengthAdjust="spacing" textLength="17.9473" font-weight="700" font-family="sans-serif">alt</text><text x="111.9473" y="825.1855" fill="#000000" font-size="12" lengthAdjust="spacing" textLength="248.6191" font-weight="700" font-family="sans-serif">[Identifiants valides et compte actif]</text><path d="M20,857.9844 L98.9473,857.9844 L98.9473,879.9531 L88.9473,889.9531 L20,889.9531 L20,857.9844" style="stroke:#000000;stroke-width:1.5;" fill="#EEEEEE"/><rect x="20" y="857.9844" width="401.5879" height="166.8438" fill="none" style="stroke:#000000;stroke-width:1.5;"/><text x="43" y="878.123" fill="#000000" font-size="12" lengthAdjust="spacing" textLength="17.9473" font-weight="700" font-family="sans-serif">alt</text><text x="121.9473" y="879.123" fill="#000000" font-size="12" lengthAdjust="spacing" textLength="99.5977" font-weight="700" font-family="sans-serif">[ROLE_CLIENT]</text><g class="message" data-entity-1="part2" data-entity-2="part1" id="msg10" data-source-line="39"><polygon points="82.8613,936.8906,72.8613,940.8906,82.8613,944.8906,78.8613,940.8906" fill="#181818" style="stroke:#181818;stroke-width:1;stroke-linejoin:miter;stroke-miterlimit:10;"/><line x1="76.8613" y1="940.8906" x2="344.6504" y2="940.8906" style="stroke:#181818;stroke-width:1;stroke-dasharray:2,2;"/><text x="96.8613" y="928.0605" fill="#000000" font-size="12" lengthAdjust="spacing" textLength="179.4492" font-family="sans-serif">Redirection /portal/dashboard</text></g><line x1="20" y1="949.8906" x2="421.5879" y2="949.8906" style="stroke:#000000;stroke-width:1;stroke-dasharray:2,2;"/><text x="33" y="969.0293" fill="#000000" font-size="12" lengthAdjust="spacing" textLength="78.5449" font-weight="700" font-family="sans-serif">[Personnel]</text><g class="message" data-entity-1="part2" data-entity-2="part1" id="msg11" data-source-line="41"><polygon points="82.8613,1012.8281,72.8613,1016.8281,82.8613,1020.8281,78.8613,1016.8281" fill="#181818" style="stroke:#181818;stroke-width:1;stroke-linejoin:miter;stroke-miterlimit:10;"/><line x1="76.8613" y1="1016.8281" x2="344.6504" y2="1016.8281" style="stroke:#181818;stroke-width:1;stroke-dasharray:2,2;"/><text x="96.8613" y="1003.998" fill="#000000" font-size="12" lengthAdjust="spacing" textLength="140.1211" font-family="sans-serif">Redirection /dashboard</text></g><line x1="10" y1="1032.8281" x2="431.5879" y2="1032.8281" style="stroke:#000000;stroke-width:1;stroke-dasharray:2,2;"/><text x="23" y="1051.9668" fill="#000000" font-size="12" lengthAdjust="spacing" textLength="298.7988" font-weight="700" font-family="sans-serif">[Identifiants invalides ou compte désactivé]</text><g class="message" data-entity-1="part2" data-entity-2="part1" id="msg12" data-source-line="44"><polygon points="82.8613,1095.7656,72.8613,1099.7656,82.8613,1103.7656,78.8613,1099.7656" fill="#181818" style="stroke:#181818;stroke-width:1;stroke-linejoin:miter;stroke-miterlimit:10;"/><line x1="76.8613" y1="1099.7656" x2="344.6504" y2="1099.7656" style="stroke:#181818;stroke-width:1;stroke-dasharray:2,2;"/><text x="96.8613" y="1086.9355" fill="#000000" font-size="12" lengthAdjust="spacing" textLength="233.7891" font-family="sans-serif">Page login + « Identifiants incorrects »</text></g><path d="M642,1119.7656 L642,1214.7656 L1068,1214.7656 L1068,1129.7656 L1058,1119.7656 L642,1119.7656" style="stroke:#181818;stroke-width:0.5;" fill="#FEFFDD"/><path d="M1058,1119.7656 L1058,1129.7656 L1068,1129.7656 L1058,1119.7656" style="stroke:#181818;stroke-width:0.5;" fill="#FEFFDD"/><text x="656" y="1143.9043" fill="#000000" font-size="12" lengthAdjust="spacing" textLength="187.7813" font-family="sans-serif">Mot de passe vérifié via BCrypt</text><text x="656" y="1157.873" fill="#000000" font-size="12" lengthAdjust="spacing" textLength="225.6328" font-family="sans-serif">Page /login unique (icônes Bootstrap)</text><text x="656" y="1171.8418" fill="#000000" font-size="12" lengthAdjust="spacing" textLength="239.2969" font-family="sans-serif">Personnel → /dashboard (sidebar bleue)</text><text x="656" y="1185.8105" fill="#000000" font-size="12" lengthAdjust="spacing" textLength="290.2324" font-family="sans-serif">Client → /portal/dashboard (sidebar teal, cloche)</text><text x="656" y="1199.7793" fill="#000000" font-size="12" lengthAdjust="spacing" textLength="389.918" font-family="sans-serif">Démo : DemoPortalSync active le portail (CD789012, BE123456)</text><?plantuml-src VLHBRXf14DttAKfUWOA5ZVDn8YKH3ECO2Mp2c6GJ2JKpPMYbwPvqzs0xgwnoW2YNGDbcbvsvYK-IwWRCc5XPyAttgjwhpzZFGkNSy1dOAS_qbL0JkEJI8hFt4OCsryfY3wtb4soXr5TDO_GLE5EKWHbUyaAw4wrS8huY73PAmS1uFDJdnebKv5ovFiyoh-7euF5uZvk9KD0eXrlwUaFRIRlwyvWn9vn4I9QBBmMg5E7ksqze5cwAoebBaN8dj89AZiPgfL02EaYbe6YLCPuwRM3eX1IMEomCS0j3bcz5mLvNawg8p1aj9Pez3uaUGeOMJHiT5z8cQEOYnSuibm6Pi8mxFkOMOQ-lhPiOJDvtGwZTOcm8-syWWbVGFqyke2vzBQY8R2MUajTWfXrr7t9kBLQzOZ4dgIGXyjo4k5Bpp4jetVXtnMTOpb3Y98mbdjHk4Ik9kt5q0GLHuEDfF8Z3Ly-6r_2MSUcWVzyqCb_Cbmi6dhk_hkkhKMT9s9KssIctqnfGax06gFXOObObV1BWtcA2QM64krdH1kVTUDHizpfdK8Vck_YCx4Dq6f-C_8yehZAaLIr942g8y8bNQH_wMCrqxIJNnd4vMiluf9fdRQYar5fo1kU3DNYaYjcOjD2VNgbt7Aso1BwGu3jtIQ47jjUO7UFDwABp8Qu6yB-UDvpWEkfsoAw71ekTxQp8P4fkYvqicx6UQJh0GcNnTOgvtskVGcNClp8iZzbxAUMrCEUITiA6xTUpd50RRnvQaXLAHw7qa4eFC1C6qt14zLLRwnaP7cjkies3-o7zZ_o0vKNlUBTaVgDI5nkLsN9XWx6mVDlKVNfQmUfSdi3jhzr4gJQ-i8NRFxlTYHXJcZxrd4QVrFmP0lHAHmPKor2gvGBcWaChCZUv8qmekJxHGWbwtD2bfilVYWItj7RM6PxxgMvtzkxxZv9ng5XoD-O6Q2iBzD3rNWJSRdUtS8TSrcXfTJeDhFPoCTFKX3RET3-maXkLXedEgIjulx-LgFtY-EN1OQC6hVYmSVJqsVEgxmVu3lm5?></g></svg>