<svg xmlns="http://www.w3.org/2000/svg" xmlns:xlink="http://www.w3.org/1999/xlink" version="1.1" data-diagram-type="SEQUENCE" style="width:1186px;height:1146px;background:#FFFFFF;" width="1186px" height="1146px" viewBox="0 0 1186 1146" zoomAndPan="magnify" preserveAspectRatio="none" contentStyleType="text/css"><?plantuml 1.2026.7beta3?><defs/><g><g class="title" data-source-line="10"><text x="397.9756" y="35.9951" fill="#000000" font-size="14" lengthAdjust="spacing" textLength="383.4893" font-weight="700" font-family="sans-serif">Séquence — Ajout client et ouverture de compte</text></g><rect x="3" y="61.2969" width="1170.4404" height="38.2813" fill="#FFFFCC" style="stroke:#FFDD88;stroke-width:3;" rx="2.5" ry="2.5"/><text x="10" y="71.9375" fill="#000000" font-size="10" lengthAdjust="spacing" textLength="361.2305" font-family="monospace">Please use CSS style instead of skinparam ParticipantPadding</text><text x="10" y="93.5781" fill="#000000" font-size="10" lengthAdjust="spacing" textLength="295.0049" font-family="monospace">Please use CSS style instead of skinparam padding</text><g><title>ClientController</title><rect x="297.4414" y="295.4844" width="10" height="263.8125" fill="#FFFFFF" style="stroke:#181818;stroke-width:1;"/></g><g><title>ClientService</title><rect x="444.5645" y="339.4531" width="10" height="175.875" fill="#FFFFFF" style="stroke:#181818;stroke-width:1;"/></g><g><title>AccountController</title><rect x="578.0859" y="661.2344" width="10" height="307.7813" fill="#FFFFFF" style="stroke:#181818;stroke-width:1;"/></g><g><title>AccountService</title><rect x="789.6094" y="705.2031" width="10" height="219.8438" fill="#FFFFFF" style="stroke:#181818;stroke-width:1;"/></g><g class="participant-lifeline" data-qualified-name="Agent" data-entity-uid="part1" id="part1-lifeline" data-source-line="12"><g><title>Agent</title><rect x="29.7598" y="191.5469" width="8" height="859.4063" fill="#000000" fill-opacity="0.00000"/><line x1="33" y1="191.5469" x2="33" y2="1050.9531" style="stroke:#181818;stroke-width:0.5;stroke-dasharray:5,5;"/></g></g><g class="participant-lifeline" data-qualified-name="CC" data-entity-uid="part2" id="part2-lifeline" data-source-line="13"><g><title>ClientController</title><rect x="298.4414" y="191.5469" width="8" height="859.4063" fill="#000000" fill-opacity="0.00000"/><line x1="302.4258" y1="191.5469" x2="302.4258" y2="1050.9531" style="stroke:#181818;stroke-width:0.5;stroke-dasharray:5,5;"/></g></g><g class="participant-lifeline" data-qualified-name="CS" data-entity-uid="part3" id="part3-lifeline" data-source-line="14"><g><title>ClientService</title><rect x="445.5645" y="191.5469" width="8" height="859.4063" fill="#000000" fill-opacity="0.00000"/><line x1="449.0195" y1="191.5469" x2="449.0195" y2="1050.9531" style="stroke:#181818;stroke-width:0.5;stroke-dasharray:5,5;"/></g></g><g class="participant-lifeline" data-qualified-name="AC" data-entity-uid="part4" id="part4-lifeline" data-source-line="15"><g><title>AccountController</title><rect x="579.0859" y="191.5469" width="8" height="859.4063" fill="#000000" fill-opacity="0.00000"/><line x1="582.1094" y1="191.5469" x2="582.1094" y2="1050.9531" style="stroke:#181818;stroke-width:0.5;stroke-dasharray:5,5;"/></g></g><g class="participant-lifeline" data-qualified-name="AS" data-entity-uid="part5" id="part5-lifeline" data-source-line="16"><g><title>AccountService</title><rect x="790.6094" y="191.5469" width="8" height="859.4063" fill="#000000" fill-opacity="0.00000"/><line x1="794.1035" y1="191.5469" x2="794.1035" y2="1050.9531" style="stroke:#181818;stroke-width:0.5;stroke-dasharray:5,5;"/></g></g><g class="participant-lifeline" data-qualified-name="AUD" data-entity-uid="part6" id="part6-lifeline" data-source-line="17"><g><title>AuditService</title><rect x="978.8301" y="191.5469" width="8" height="859.4063" fill="#000000" fill-opacity="0.00000"/><line x1="981.9199" y1="191.5469" x2="981.9199" y2="1050.9531" style="stroke:#181818;stroke-width:0.5;stroke-dasharray:5,5;"/></g></g><g class="participant-lifeline" data-qualified-name="DB" data-entity-uid="part7" id="part7-lifeline" data-source-line="18"><g><title>PostgreSQL</title><rect x="1120.9355" y="191.5469" width="8" height="859.4063" fill="#000000" fill-opacity="0.00000"/><line x1="1124.3271" y1="191.5469" x2="1124.3271" y2="1050.9531" style="stroke:#181818;stroke-width:0.5;stroke-dasharray:5,5;"/></g></g><g class="participant participant-head" data-qualified-name="Agent" data-entity-uid="part1" id="part1-head" data-source-line="12"><text x="13" y="180.7168" fill="#000000" font-size="12" lengthAdjust="spacing" textLength="35.5195" font-family="sans-serif">Agent</text><ellipse cx="33.7598" cy="110.0781" rx="8" ry="8" fill="#E2E2F0" style="stroke:#181818;stroke-width:0.5;"/><path d="M33.7598,118.0781 L33.7598,145.0781 M20.7598,126.0781 L46.7598,126.0781 M33.7598,145.0781 L20.7598,160.0781 M33.7598,145.0781 L46.7598,160.0781" style="stroke:#181818;stroke-width:0.5;" fill="none"/></g><g class="participant participant-tail" data-qualified-name="Agent" data-entity-uid="part1" id="part1-tail" data-source-line="12"><text x="13" y="1069.0918" fill="#000000" font-size="12" lengthAdjust="spacing" textLength="35.5195" font-family="sans-serif">Agent</text><ellipse cx="33.7598" cy="1088.4219" rx="8" ry="8" fill="#E2E2F0" style="stroke:#181818;stroke-width:0.5;"/><path d="M33.7598,1096.4219 L33.7598,1123.4219 M20.7598,1104.4219 L46.7598,1104.4219 M33.7598,1123.4219 L20.7598,1138.4219 M33.7598,1123.4219 L46.7598,1138.4219" style="stroke:#181818;stroke-width:0.5;" fill="none"/></g><g class="participant participant-head" data-qualified-name="CC" data-entity-uid="part2" id="part2-head" data-source-line="13"><rect x="240.4258" y="146.5781" width="124.0313" height="43.9688" fill="#E2E2F0" style="stroke:#181818;stroke-width:0.5;" rx="2.5" ry="2.5"/><text x="255.4258" y="172.7168" fill="#000000" font-size="12" lengthAdjust="spacing" textLength="94.0313" font-family="sans-serif">ClientController</text></g><g class="participant participant-tail" data-qualified-name="CC" data-entity-uid="part2" id="part2-tail" data-source-line="13"><rect x="240.4258" y="1049.9531" width="124.0313" height="43.9688" fill="#E2E2F0" style="stroke:#181818;stroke-width:0.5;" rx="2.5" ry="2.5"/><text x="255.4258" y="1076.0918" fill="#000000" font-size="12" lengthAdjust="spacing" textLength="94.0313" font-family="sans-serif">ClientController</text></g><g class="participant participant-head" data-qualified-name="CS" data-entity-uid="part3" id="part3-head" data-source-line="14"><rect x="395.0195" y="146.5781" width="109.0898" height="43.9688" fill="#E2E2F0" style="stroke:#181818;stroke-width:0.5;" rx="2.5" ry="2.5"/><text x="410.0195" y="172.7168" fill="#000000" font-size="12" lengthAdjust="spacing" textLength="79.0898" font-family="sans-serif">ClientService</text></g><g class="participant participant-tail" data-qualified-name="CS" data-entity-uid="part3" id="part3-tail" data-source-line="14"><rect x="395.0195" y="1049.9531" width="109.0898" height="43.9688" fill="#E2E2F0" style="stroke:#181818;stroke-width:0.5;" rx="2.5" ry="2.5"/><text x="410.0195" y="1076.0918" fill="#000000" font-size="12" lengthAdjust="spacing" textLength="79.0898" font-family="sans-serif">ClientService</text></g><g class="participant participant-head" data-qualified-name="AC" data-entity-uid="part4" id="part4-head" data-source-line="15"><rect x="514.1094" y="146.5781" width="137.9531" height="43.9688" fill="#E2E2F0" style="stroke:#181818;stroke-width:0.5;" rx="2.5" ry="2.5"/><text x="529.1094" y="172.7168" fill="#000000" font-size="12" lengthAdjust="spacing" textLength="107.9531" font-family="sans-serif">AccountController</text></g><g class="participant participant-tail" data-qualified-name="AC" data-entity-uid="part4" id="part4-tail" data-source-line="15"><rect x="514.1094" y="1049.9531" width="137.9531" height="43.9688" fill="#E2E2F0" style="stroke:#181818;stroke-width:0.5;" rx="2.5" ry="2.5"/><text x="529.1094" y="1076.0918" fill="#000000" font-size="12" lengthAdjust="spacing" textLength="107.9531" font-family="sans-serif">AccountController</text></g><g class="participant participant-head" data-qualified-name="AS" data-entity-uid="part5" id="part5-head" data-source-line="16"><rect x="733.1035" y="146.5781" width="123.0117" height="43.9688" fill="#E2E2F0" style="stroke:#181818;stroke-width:0.5;" rx="2.5" ry="2.5"/><text x="748.1035" y="172.7168" fill="#000000" font-size="12" lengthAdjust="spacing" textLength="93.0117" font-family="sans-serif">AccountService</text></g><g class="participant participant-tail" data-qualified-name="AS" data-entity-uid="part5" id="part5-tail" data-source-line="16"><rect x="733.1035" y="1049.9531" width="123.0117" height="43.9688" fill="#E2E2F0" style="stroke:#181818;stroke-width:0.5;" rx="2.5" ry="2.5"/><text x="748.1035" y="1076.0918" fill="#000000" font-size="12" lengthAdjust="spacing" textLength="93.0117" font-family="sans-serif">AccountService</text></g><g class="participant participant-head" data-qualified-name="AUD" data-entity-uid="part6" id="part6-head" data-source-line="17"><rect x="929.9199" y="146.5781" width="105.8203" height="43.9688" fill="#E2E2F0" style="stroke:#181818;stroke-width:0.5;" rx="2.5" ry="2.5"/><text x="944.9199" y="172.7168" fill="#000000" font-size="12" lengthAdjust="spacing" textLength="75.8203" font-family="sans-serif">AuditService</text></g><g class="participant participant-tail" data-qualified-name="AUD" data-entity-uid="part6" id="part6-tail" data-source-line="17"><rect x="929.9199" y="1049.9531" width="105.8203" height="43.9688" fill="#E2E2F0" style="stroke:#181818;stroke-width:0.5;" rx="2.5" ry="2.5"/><text x="944.9199" y="1076.0918" fill="#000000" font-size="12" lengthAdjust="spacing" textLength="75.8203" font-family="sans-serif">AuditService</text></g><g class="participant participant-head" data-qualified-name="DB" data-entity-uid="part7" id="part7-head" data-source-line="18"><text x="1087.3271" y="180.7168" fill="#000000" font-size="12" lengthAdjust="spacing" textLength="69.2168" font-family="sans-serif">PostgreSQL</text><path d="M1106.9355,125.5781 C1106.9355,115.5781 1124.9355,115.5781 1124.9355,115.5781 C1124.9355,115.5781 1142.9355,115.5781 1142.9355,125.5781 L1142.9355,151.5781 C1142.9355,161.5781 1124.9355,161.5781 1124.9355,161.5781 C1124.9355,161.5781 1106.9355,161.5781 1106.9355,151.5781 L1106.9355,125.5781" style="stroke:#181818;stroke-width:0.5;" fill="#E2E2F0"/><path d="M1106.9355,125.5781 C1106.9355,135.5781 1124.9355,135.5781 1124.9355,135.5781 C1124.9355,135.5781 1142.9355,135.5781 1142.9355,125.5781" style="stroke:#181818;stroke-width:0.5;" fill="none"/></g><g class="participant participant-tail" data-qualified-name="DB" data-entity-uid="part7" id="part7-tail" data-source-line="18"><text x="1087.3271" y="1069.0918" fill="#000000" font-size="12" lengthAdjust="spacing" textLength="69.2168" font-family="sans-serif">PostgreSQL</text><path d="M1106.9355,1089.9219 C1106.9355,1079.9219 1124.9355,1079.9219 1124.9355,1079.9219 C1124.9355,1079.9219 1142.9355,1079.9219 1142.9355,1089.9219 L1142.9355,1115.9219 C1142.9355,1125.9219 1124.9355,1125.9219 1124.9355,1125.9219 C1124.9355,1125.9219 1106.9355,1125.9219 1106.9355,1115.9219 L1106.9355,1089.9219" style="stroke:#181818;stroke-width:0.5;" fill="#E2E2F0"/><path d="M1106.9355,1089.9219 C1106.9355,1099.9219 1124.9355,1099.9219 1124.9355,1099.9219 C1124.9355,1099.9219 1142.9355,1099.9219 1142.9355,1089.9219" style="stroke:#181818;stroke-width:0.5;" fill="none"/></g><g><title>ClientController</title><rect x="297.4414" y="295.4844" width="10" height="263.8125" fill="#FFFFFF" style="stroke:#181818;stroke-width:1;"/></g><g><title>ClientService</title><rect x="444.5645" y="339.4531" width="10" height="175.875" fill="#FFFFFF" style="stroke:#181818;stroke-width:1;"/></g><g><title>AccountController</title><rect x="578.0859" y="661.2344" width="10" height="307.7813" fill="#FFFFFF" style="stroke:#181818;stroke-width:1;"/></g><g><title>AccountService</title><rect x="789.6094" y="705.2031" width="10" height="219.8438" fill="#FFFFFF" style="stroke:#181818;stroke-width:1;"/></g><rect x="0" y="229.5313" width="1180.4404" height="3" fill="#EEEEEE" style="stroke:#EEEEEE;stroke-width:1;"/><line x1="0" y1="229.5313" x2="1180.4404" y2="229.5313" style="stroke:#000000;stroke-width:1;"/><line x1="0" y1="232.5313" x2="1180.4404" y2="232.5313" style="stroke:#000000;stroke-width:1;"/><rect x="516.5415" y="211.5469" width="147.3574" height="37.9688" fill="#EEEEEE" style="stroke:#000000;stroke-width:2;"/><text x="530.5415" y="234.6855" fill="#000000" font-size="12" lengthAdjust="spacing" textLength="113.1797" font-weight="700" font-family="sans-serif">Ajouter un client</text><g class="message" data-entity-1="part1" data-entity-2="part2" id="msg1" data-source-line="22"><polygon points="285.4414,291.4844,295.4414,295.4844,285.4414,299.4844,289.4414,295.4844" fill="#181818" style="stroke:#181818;stroke-width:1;stroke-linejoin:miter;stroke-miterlimit:10;"/><line x1="33.7598" y1="295.4844" x2="291.4414" y2="295.4844" style="stroke:#181818;stroke-width:1;"/><text x="48.7598" y="282.6543" fill="#000000" font-size="12" lengthAdjust="spacing" textLength="205.2129" font-family="sans-serif">POST /clients (infos perso. et pro.)</text></g><g class="message" data-entity-1="part2" data-entity-2="part3" id="msg2" data-source-line="24"><polygon points="432.5645,335.4531,442.5645,339.4531,432.5645,343.4531,436.5645,339.4531" fill="#181818" style="stroke:#181818;stroke-width:1;stroke-linejoin:miter;stroke-miterlimit:10;"/><line x1="307.4414" y1="339.4531" x2="438.5645" y2="339.4531" style="stroke:#181818;stroke-width:1;"/><text x="322.4414" y="326.623" fill="#000000" font-size="12" lengthAdjust="spacing" textLength="102.123" font-family="sans-serif">createClient(dto)</text></g><g class="message" data-entity-1="part3" data-entity-2="part7" id="msg3" data-source-line="26"><polygon points="1112.9355,379.4219,1122.9355,383.4219,1112.9355,387.4219,1116.9355,383.4219" fill="#181818" style="stroke:#181818;stroke-width:1;stroke-linejoin:miter;stroke-miterlimit:10;"/><line x1="454.5645" y1="383.4219" x2="1118.9355" y2="383.4219" style="stroke:#181818;stroke-width:1;"/><text x="469.5645" y="370.5918" fill="#000000" font-size="12" lengthAdjust="spacing" textLength="80.1563" font-family="sans-serif">INSERT client</text></g><g class="message" data-entity-1="part3" data-entity-2="part6" id="msg4" data-source-line="27"><polygon points="970.8301,423.3906,980.8301,427.3906,970.8301,431.3906,974.8301,427.3906" fill="#181818" style="stroke:#181818;stroke-width:1;stroke-linejoin:miter;stroke-miterlimit:10;"/><line x1="454.5645" y1="427.3906" x2="976.8301" y2="427.3906" style="stroke:#181818;stroke-width:1;"/><text x="469.5645" y="414.5605" fill="#000000" font-size="12" lengthAdjust="spacing" textLength="132.8086" font-family="sans-serif">log(CLIENT_CREATED)</text></g><g class="message" data-entity-1="part6" data-entity-2="part7" id="msg5" data-source-line="28"><polygon points="1112.9355,467.3594,1122.9355,471.3594,1112.9355,475.3594,1116.9355,471.3594" fill="#181818" style="stroke:#181818;stroke-width:1;stroke-linejoin:miter;stroke-miterlimit:10;"/><line x1="982.8301" y1="471.3594" x2="1118.9355" y2="471.3594" style="stroke:#181818;stroke-width:1;"/><text x="997.8301" y="458.5293" fill="#000000" font-size="12" lengthAdjust="spacing" textLength="102.1055" font-family="sans-serif">INSERT audit_log</text></g><g class="message" data-entity-1="part3" data-entity-2="part2" id="msg6" data-source-line="29"><polygon points="318.4414,511.3281,308.4414,515.3281,318.4414,519.3281,314.4414,515.3281" fill="#181818" style="stroke:#181818;stroke-width:1;stroke-linejoin:miter;stroke-miterlimit:10;"/><line x1="312.4414" y1="515.3281" x2="448.5645" y2="515.3281" style="stroke:#181818;stroke-width:1;stroke-dasharray:2,2;"/><text x="332.4414" y="502.498" fill="#000000" font-size="12" lengthAdjust="spacing" textLength="34.7402" font-family="sans-serif">Client</text></g><g class="message" data-entity-1="part2" data-entity-2="part1" id="msg7" data-source-line="31"><polygon points="44.7598,555.2969,34.7598,559.2969,44.7598,563.2969,40.7598,559.2969" fill="#181818" style="stroke:#181818;stroke-width:1;stroke-linejoin:miter;stroke-miterlimit:10;"/><line x1="38.7598" y1="559.2969" x2="301.4414" y2="559.2969" style="stroke:#181818;stroke-width:1;stroke-dasharray:2,2;"/><text x="58.7598" y="546.4668" fill="#000000" font-size="12" lengthAdjust="spacing" textLength="223.6816" font-family="sans-serif">Fiche client (avec liste comptes vide)</text></g><rect x="0" y="595.2813" width="1180.4404" height="3" fill="#EEEEEE" style="stroke:#EEEEEE;stroke-width:1;"/><line x1="0" y1="595.2813" x2="1180.4404" y2="595.2813" style="stroke:#000000;stroke-width:1;"/><line x1="0" y1="598.2813" x2="1180.4404" y2="598.2813" style="stroke:#000000;stroke-width:1;"/><rect x="513.9897" y="577.2969" width="152.4609" height="37.9688" fill="#EEEEEE" style="stroke:#000000;stroke-width:2;"/><text x="527.9897" y="600.4355" fill="#000000" font-size="12" lengthAdjust="spacing" textLength="118.2832" font-weight="700" font-family="sans-serif">Ouvrir un compte</text><g class="message" data-entity-1="part1" data-entity-2="part4" id="msg8" data-source-line="36"><polygon points="566.0859,657.2344,576.0859,661.2344,566.0859,665.2344,570.0859,661.2344" fill="#181818" style="stroke:#181818;stroke-width:1;stroke-linejoin:miter;stroke-miterlimit:10;"/><line x1="33.7598" y1="661.2344" x2="572.0859" y2="661.2344" style="stroke:#181818;stroke-width:1;"/><text x="48.7598" y="648.4043" fill="#000000" font-size="12" lengthAdjust="spacing" textLength="185.2734" font-family="sans-serif">POST /accounts (clientId, type)</text></g><g class="message" data-entity-1="part4" data-entity-2="part5" id="msg9" data-source-line="38"><polygon points="777.6094,701.2031,787.6094,705.2031,777.6094,709.2031,781.6094,705.2031" fill="#181818" style="stroke:#181818;stroke-width:1;stroke-linejoin:miter;stroke-miterlimit:10;"/><line x1="588.0859" y1="705.2031" x2="783.6094" y2="705.2031" style="stroke:#181818;stroke-width:1;"/><text x="603.0859" y="692.373" fill="#000000" font-size="12" lengthAdjust="spacing" textLength="166.5234" font-family="sans-serif">openAccount(clientId, type)</text></g><g class="message" data-entity-1="part5" data-entity-2="part7" id="msg10" data-source-line="40"><polygon points="1112.9355,745.1719,1122.9355,749.1719,1112.9355,753.1719,1116.9355,749.1719" fill="#181818" style="stroke:#181818;stroke-width:1;stroke-linejoin:miter;stroke-miterlimit:10;"/><line x1="799.6094" y1="749.1719" x2="1118.9355" y2="749.1719" style="stroke:#181818;stroke-width:1;"/><text x="814.6094" y="736.3418" fill="#000000" font-size="12" lengthAdjust="spacing" textLength="168.9727" font-family="sans-serif">SELECT client WHERE id = ?</text></g><g class="message" data-entity-1="part5" data-entity-2="part7" id="msg11" data-source-line="41"><polygon points="1112.9355,789.1406,1122.9355,793.1406,1112.9355,797.1406,1116.9355,793.1406" fill="#181818" style="stroke:#181818;stroke-width:1;stroke-linejoin:miter;stroke-miterlimit:10;"/><line x1="799.6094" y1="793.1406" x2="1118.9355" y2="793.1406" style="stroke:#181818;stroke-width:1;"/><text x="814.6094" y="780.3105" fill="#000000" font-size="12" lengthAdjust="spacing" textLength="180.7441" font-family="sans-serif">INSERT account (balance = 0)</text></g><g class="message" data-entity-1="part5" data-entity-2="part6" id="msg12" data-source-line="42"><polygon points="970.8301,833.1094,980.8301,837.1094,970.8301,841.1094,974.8301,837.1094" fill="#181818" style="stroke:#181818;stroke-width:1;stroke-linejoin:miter;stroke-miterlimit:10;"/><line x1="799.6094" y1="837.1094" x2="976.8301" y2="837.1094" style="stroke:#181818;stroke-width:1;"/><text x="814.6094" y="824.2793" fill="#000000" font-size="12" lengthAdjust="spacing" textLength="143.2207" font-family="sans-serif">log(ACCOUNT_OPENED)</text></g><g class="message" data-entity-1="part6" data-entity-2="part7" id="msg13" data-source-line="43"><polygon points="1112.9355,877.0781,1122.9355,881.0781,1112.9355,885.0781,1116.9355,881.0781" fill="#181818" style="stroke:#181818;stroke-width:1;stroke-linejoin:miter;stroke-miterlimit:10;"/><line x1="982.8301" y1="881.0781" x2="1118.9355" y2="881.0781" style="stroke:#181818;stroke-width:1;"/><text x="997.8301" y="868.248" fill="#000000" font-size="12" lengthAdjust="spacing" textLength="102.1055" font-family="sans-serif">INSERT audit_log</text></g><g class="message" data-entity-1="part5" data-entity-2="part4" id="msg14" data-source-line="44"><polygon points="599.0859,921.0469,589.0859,925.0469,599.0859,929.0469,595.0859,925.0469" fill="#181818" style="stroke:#181818;stroke-width:1;stroke-linejoin:miter;stroke-miterlimit:10;"/><line x1="593.0859" y1="925.0469" x2="793.6094" y2="925.0469" style="stroke:#181818;stroke-width:1;stroke-dasharray:2,2;"/><text x="613.0859" y="912.2168" fill="#000000" font-size="12" lengthAdjust="spacing" textLength="48.6621" font-family="sans-serif">Account</text></g><g class="message" data-entity-1="part4" data-entity-2="part1" id="msg15" data-source-line="46"><polygon points="44.7598,965.0156,34.7598,969.0156,44.7598,973.0156,40.7598,969.0156" fill="#181818" style="stroke:#181818;stroke-width:1;stroke-linejoin:miter;stroke-miterlimit:10;"/><line x1="38.7598" y1="969.0156" x2="582.0859" y2="969.0156" style="stroke:#181818;stroke-width:1;stroke-dasharray:2,2;"/><text x="58.7598" y="956.1855" fill="#000000" font-size="12" lengthAdjust="spacing" textLength="169.0313" font-family="sans-serif">Fiche compte (solde, statut)</text></g><path d="M743,982.0156 L743,1035.0156 L1175,1035.0156 L1175,992.0156 L1165,982.0156 L743,982.0156" style="stroke:#181818;stroke-width:0.5;" fill="#FEFFDD"/><path d="M1165,982.0156 L1165,992.0156 L1175,992.0156 L1165,982.0156" style="stroke:#181818;stroke-width:0.5;" fill="#FEFFDD"/><text x="835.0923" y="1006.1543" fill="#000000" font-size="12" lengthAdjust="spacing" textLength="239.2559" font-family="sans-serif">Types : courant, épargne, professionnel</text><text x="835.0923" y="1020.123" fill="#000000" font-size="12" lengthAdjust="spacing" textLength="214.6641" font-family="sans-serif">Compte associé à un client existant</text><?plantuml-src XPHFRXCn5CRtFiLJLuaKIYaRL2aWnvcAIcqJEgbOLkxuPMgOseFjIGih3i41sFOSkGaduNcS8PCImMxaxtl_VduU_rcRMZfv3_vEAlkWJGbBMNba_e_YqDVMUBn0xsM94wpi0tVEFa1mJT-eS2cRAfnQ4tBz3U7LSKzi8_PBS-c2BdGjJPXBfM8Fhu_swnVIbTh0SL-UsCSkx5dQTFY6iQ13XP2ldxuqQ0g4Nzz_0Fzacm15fT44m02sMQ4BZKEQ0mfxNmTaJ1R1Ek0bULYzRGCEH1idQ1vdgmhT0KWFGkmpvUXMki3ao7STl2XiyrSUBlQw-eduyqIDqhk6wobJCiXRwH4EvjQ7qc7-uRmLfnF6nkE401qqfkCm7ZFMJWiltj8uS0BpMRw0bqdsCD1cQJtKwBmzZDHgPm-74PDUoO2H04N5s9nY2uTqc2WCLB1zOyx8GiRfX8ndbtbsjTWqiH5e058gMmx4-LbskRWHLnbVPDCXYygpI1d7lo5p6zprdYepXJjbHMj8Kvx0gIxki1j_85TOGALzw5R0mqeh7Exa42syMRDoEh5hdRli-9QTJBT7y5ALCpM2yBN67WswSDvYun6RhT5ihlmV8JdZMu1vTfw93Y1yV9zTPQ0LZE5TtzN1IhbXS2ih6P_368w66z-MEXTYTatOP_Fiyh_KUQBUJhrflOyiDhiNUo8tyBPIE08VP6Z23cmYmuob3qkla_ACuku2B0Y6Znjc6qVxFuBr4ps7qb0IsiWb_QcqDGOhiefKGtfl2xr-WlNFthxZ8zqr9M1e5CGwlm40?></g></svg>