<svg xmlns="http://www.w3.org/2000/svg" xmlns:xlink="http://www.w3.org/1999/xlink" contentStyleType="text/css" height="820px" preserveAspectRatio="none" style="width:1067px;height:820px;background:#FFFFFF;" version="1.1" viewBox="0 0 1067 820" width="1067px" zoomAndPan="magnify"><title>S&#233;quence &#8212; Ajout client et ouverture de compte</title><defs/><g><text fill="#000000" font-family="sans-serif" font-size="14" font-weight="bold" lengthAdjust="spacing" textLength="323.2783" x="367.9756" y="29.5332">S&#233;quence &#8212; Ajout client et ouverture de compte</text><rect fill="#FFFFFF" height="182.1094" style="stroke:#181818;stroke-width:1;" width="10" x="262.7046" y="197.9219"/><rect fill="#FFFFFF" height="121.4063" style="stroke:#181818;stroke-width:1;" width="10" x="387.8018" y="228.2734"/><rect fill="#FFFFFF" height="212.4609" style="stroke:#181818;stroke-width:1;" width="10" x="508.6772" y="454.7344"/><rect fill="#FFFFFF" height="151.7578" style="stroke:#181818;stroke-width:1;" width="10" x="695.2134" y="485.0859"/><line style="stroke:#181818;stroke-width:0.5;stroke-dasharray:5.0,5.0;" x1="26" x2="26" y1="121.2188" y2="737.8984"/><line style="stroke:#181818;stroke-width:0.5;stroke-dasharray:5.0,5.0;" x1="267.4634" x2="267.4634" y1="121.2188" y2="737.8984"/><line style="stroke:#181818;stroke-width:0.5;stroke-dasharray:5.0,5.0;" x1="392.564" x2="392.564" y1="121.2188" y2="737.8984"/><line style="stroke:#181818;stroke-width:0.5;stroke-dasharray:5.0,5.0;" x1="513.0396" x2="513.0396" y1="121.2188" y2="737.8984"/><line style="stroke:#181818;stroke-width:0.5;stroke-dasharray:5.0,5.0;" x1="699.5791" x2="699.5791" y1="121.2188" y2="737.8984"/><line style="stroke:#181818;stroke-width:0.5;stroke-dasharray:5.0,5.0;" x1="881.3306" x2="881.3306" y1="121.2188" y2="737.8984"/><line style="stroke:#181818;stroke-width:0.5;stroke-dasharray:5.0,5.0;" x1="1009.5469" x2="1009.5469" y1="121.2188" y2="737.8984"/><text fill="#000000" font-family="sans-serif" font-size="14" lengthAdjust="spacing" textLength="36.5859" x="5" y="118.1426">Agent</text><ellipse cx="26.293" cy="52.1094" fill="#E2E2F0" rx="8" ry="8" style="stroke:#181818;stroke-width:0.5;"/><path d="M26.293,60.1094 L26.293,87.1094 M13.293,68.1094 L39.293,68.1094 M26.293,87.1094 L13.293,102.1094 M26.293,87.1094 L39.293,102.1094 " fill="none" style="stroke:#181818;stroke-width:0.5;"/><text fill="#000000" font-family="sans-serif" font-size="14" lengthAdjust="spacing" textLength="36.5859" x="5" y="751.4316">Agent</text><ellipse cx="26.293" cy="763.0078" fill="#E2E2F0" rx="8" ry="8" style="stroke:#181818;stroke-width:0.5;"/><path d="M26.293,771.0078 L26.293,798.0078 M13.293,779.0078 L39.293,779.0078 M26.293,798.0078 L13.293,813.0078 M26.293,798.0078 L39.293,813.0078 " fill="none" style="stroke:#181818;stroke-width:0.5;"/><rect fill="#E2E2F0" height="31.6094" rx="2.5" ry="2.5" style="stroke:#181818;stroke-width:0.5;" width="110.4824" x="212.4634" y="88.6094"/><text fill="#000000" font-family="sans-serif" font-size="14" lengthAdjust="spacing" textLength="96.4824" x="219.4634" y="110.1426">ClientController</text><rect fill="#E2E2F0" height="31.6094" rx="2.5" ry="2.5" style="stroke:#181818;stroke-width:0.5;" width="110.4824" x="212.4634" y="736.8984"/><text fill="#000000" font-family="sans-serif" font-size="14" lengthAdjust="spacing" textLength="96.4824" x="219.4634" y="758.4316">ClientController</text><rect fill="#E2E2F0" height="31.6094" rx="2.5" ry="2.5" style="stroke:#181818;stroke-width:0.5;" width="96.4756" x="344.564" y="88.6094"/><text fill="#000000" font-family="sans-serif" font-size="14" lengthAdjust="spacing" textLength="82.4756" x="351.564" y="110.1426">ClientService</text><rect fill="#E2E2F0" height="31.6094" rx="2.5" ry="2.5" style="stroke:#181818;stroke-width:0.5;" width="96.4756" x="344.564" y="736.8984"/><text fill="#000000" font-family="sans-serif" font-size="14" lengthAdjust="spacing" textLength="82.4756" x="351.564" y="758.4316">ClientService</text><rect fill="#E2E2F0" height="31.6094" rx="2.5" ry="2.5" style="stroke:#181818;stroke-width:0.5;" width="125.2754" x="451.0396" y="88.6094"/><text fill="#000000" font-family="sans-serif" font-size="14" lengthAdjust="spacing" textLength="111.2754" x="458.0396" y="110.1426">AccountController</text><rect fill="#E2E2F0" height="31.6094" rx="2.5" ry="2.5" style="stroke:#181818;stroke-width:0.5;" width="125.2754" x="451.0396" y="736.8984"/><text fill="#000000" font-family="sans-serif" font-size="14" lengthAdjust="spacing" textLength="111.2754" x="458.0396" y="758.4316">AccountController</text><rect fill="#E2E2F0" height="31.6094" rx="2.5" ry="2.5" style="stroke:#181818;stroke-width:0.5;" width="111.2686" x="644.5791" y="88.6094"/><text fill="#000000" font-family="sans-serif" font-size="14" lengthAdjust="spacing" textLength="97.2686" x="651.5791" y="110.1426">AccountService</text><rect fill="#E2E2F0" height="31.6094" rx="2.5" ry="2.5" style="stroke:#181818;stroke-width:0.5;" width="111.2686" x="644.5791" y="736.8984"/><text fill="#000000" font-family="sans-serif" font-size="14" lengthAdjust="spacing" textLength="97.2686" x="651.5791" y="758.4316">AccountService</text><rect fill="#E2E2F0" height="31.6094" rx="2.5" ry="2.5" style="stroke:#181818;stroke-width:0.5;" width="92.5928" x="835.3306" y="88.6094"/><text fill="#000000" font-family="sans-serif" font-size="14" lengthAdjust="spacing" textLength="78.5928" x="842.3306" y="110.1426">AuditService</text><rect fill="#E2E2F0" height="31.6094" rx="2.5" ry="2.5" style="stroke:#181818;stroke-width:0.5;" width="92.5928" x="835.3306" y="736.8984"/><text fill="#000000" font-family="sans-serif" font-size="14" lengthAdjust="spacing" textLength="78.5928" x="842.3306" y="758.4316">AuditService</text><text fill="#000000" font-family="sans-serif" font-size="14" lengthAdjust="spacing" textLength="76.2617" x="968.5469" y="118.1426">PostgreSQL</text><path d="M991.6777,67.6094 C991.6777,57.6094 1009.6777,57.6094 1009.6777,57.6094 C1009.6777,57.6094 1027.6777,57.6094 1027.6777,67.6094 L1027.6777,93.6094 C1027.6777,103.6094 1009.6777,103.6094 1009.6777,103.6094 C1009.6777,103.6094 991.6777,103.6094 991.6777,93.6094 L991.6777,67.6094 " fill="#E2E2F0" style="stroke:#181818;stroke-width:1.5;"/><path d="M991.6777,67.6094 C991.6777,77.6094 1009.6777,77.6094 1009.6777,77.6094 C1009.6777,77.6094 1027.6777,77.6094 1027.6777,67.6094 " fill="none" style="stroke:#181818;stroke-width:1.5;"/><text fill="#000000" font-family="sans-serif" font-size="14" lengthAdjust="spacing" textLength="76.2617" x="968.5469" y="751.4316">PostgreSQL</text><path d="M991.6777,764.5078 C991.6777,754.5078 1009.6777,754.5078 1009.6777,754.5078 C1009.6777,754.5078 1027.6777,754.5078 1027.6777,764.5078 L1027.6777,790.5078 C1027.6777,800.5078 1009.6777,800.5078 1009.6777,800.5078 C1009.6777,800.5078 991.6777,800.5078 991.6777,790.5078 L991.6777,764.5078 " fill="#E2E2F0" style="stroke:#181818;stroke-width:1.5;"/><path d="M991.6777,764.5078 C991.6777,774.5078 1009.6777,774.5078 1009.6777,774.5078 C1009.6777,774.5078 1027.6777,774.5078 1027.6777,764.5078 " fill="none" style="stroke:#181818;stroke-width:1.5;"/><rect fill="#FFFFFF" height="182.1094" style="stroke:#181818;stroke-width:1;" width="10" x="262.7046" y="197.9219"/><rect fill="#FFFFFF" height="121.4063" style="stroke:#181818;stroke-width:1;" width="10" x="387.8018" y="228.2734"/><rect fill="#FFFFFF" height="212.4609" style="stroke:#181818;stroke-width:1;" width="10" x="508.6772" y="454.7344"/><rect fill="#FFFFFF" height="151.7578" style="stroke:#181818;stroke-width:1;" width="10" x="695.2134" y="485.0859"/><rect fill="#EEEEEE" height="3" style="stroke:#EEEEEE;stroke-width:1;" width="1060.2295" x="0" y="152.3945"/><line style="stroke:#000000;stroke-width:1;" x1="0" x2="1060.2295" y1="152.3945" y2="152.3945"/><line style="stroke:#000000;stroke-width:1;" x1="0" x2="1060.2295" y1="155.3945" y2="155.3945"/><rect fill="#EEEEEE" height="24.3516" style="stroke:#000000;stroke-width:2;" width="120.1709" x="470.0293" y="141.2188"/><text fill="#000000" font-family="sans-serif" font-size="13" font-weight="bold" lengthAdjust="spacing" textLength="102.5591" x="476.0293" y="158.7139">Ajouter un client</text><polygon fill="#181818" points="250.7046,193.9219,260.7046,197.9219,250.7046,201.9219,254.7046,197.9219" style="stroke:#181818;stroke-width:1;"/><line style="stroke:#181818;stroke-width:1;" x1="26.293" x2="256.7046" y1="197.9219" y2="197.9219"/><text fill="#000000" font-family="sans-serif" font-size="13" lengthAdjust="spacing" textLength="199.4053" x="33.293" y="193.0654">POST /clients (infos perso. et pro.)</text><polygon fill="#181818" points="375.8018,224.2734,385.8018,228.2734,375.8018,232.2734,379.8018,228.2734" style="stroke:#181818;stroke-width:1;"/><line style="stroke:#181818;stroke-width:1;" x1="272.7046" x2="381.8018" y1="228.2734" y2="228.2734"/><text fill="#000000" font-family="sans-serif" font-size="13" lengthAdjust="spacing" textLength="96.0972" x="279.7046" y="223.417">createClient(dto)</text><polygon fill="#181818" points="997.6777,254.625,1007.6777,258.625,997.6777,262.625,1001.6777,258.625" style="stroke:#181818;stroke-width:1;"/><line style="stroke:#181818;stroke-width:1;" x1="397.8018" x2="1003.6777" y1="258.625" y2="258.625"/><text fill="#000000" font-family="sans-serif" font-size="13" lengthAdjust="spacing" textLength="81.6309" x="404.8018" y="253.7686">INSERT client</text><polygon fill="#181818" points="869.627,284.9766,879.627,288.9766,869.627,292.9766,873.627,288.9766" style="stroke:#181818;stroke-width:1;"/><line style="stroke:#181818;stroke-width:1;" x1="397.8018" x2="875.627" y1="288.9766" y2="288.9766"/><text fill="#000000" font-family="sans-serif" font-size="13" lengthAdjust="spacing" textLength="141.5845" x="404.8018" y="284.1201">log(CLIENT_CREATED)</text><polygon fill="#181818" points="997.6777,315.3281,1007.6777,319.3281,997.6777,323.3281,1001.6777,319.3281" style="stroke:#181818;stroke-width:1;"/><line style="stroke:#181818;stroke-width:1;" x1="881.627" x2="1003.6777" y1="319.3281" y2="319.3281"/><text fill="#000000" font-family="sans-serif" font-size="13" lengthAdjust="spacing" textLength="104.0508" x="888.627" y="314.4717">INSERT audit_log</text><polygon fill="#181818" points="283.7046,345.6797,273.7046,349.6797,283.7046,353.6797,279.7046,349.6797" style="stroke:#181818;stroke-width:1;"/><line style="stroke:#181818;stroke-width:1;stroke-dasharray:2.0,2.0;" x1="277.7046" x2="391.8018" y1="349.6797" y2="349.6797"/><text fill="#000000" font-family="sans-serif" font-size="13" lengthAdjust="spacing" textLength="33.2363" x="289.7046" y="344.8232">Client</text><polygon fill="#181818" points="37.293,376.0313,27.293,380.0313,37.293,384.0313,33.293,380.0313" style="stroke:#181818;stroke-width:1;"/><line style="stroke:#181818;stroke-width:1;stroke-dasharray:2.0,2.0;" x1="31.293" x2="266.7046" y1="380.0313" y2="380.0313"/><text fill="#000000" font-family="sans-serif" font-size="13" lengthAdjust="spacing" textLength="212.4116" x="43.293" y="375.1748">Fiche client (avec liste comptes vide)</text><rect fill="#EEEEEE" height="3" style="stroke:#EEEEEE;stroke-width:1;" width="1060.2295" x="0" y="409.207"/><line style="stroke:#000000;stroke-width:1;" x1="0" x2="1060.2295" y1="409.207" y2="409.207"/><line style="stroke:#000000;stroke-width:1;" x1="0" x2="1060.2295" y1="412.207" y2="412.207"/><rect fill="#EEEEEE" height="24.3516" style="stroke:#000000;stroke-width:2;" width="125.96" x="467.1348" y="398.0313"/><text fill="#000000" font-family="sans-serif" font-size="13" font-weight="bold" lengthAdjust="spacing" textLength="108.3481" x="473.1348" y="415.5264">Ouvrir un compte</text><polygon fill="#181818" points="496.6772,450.7344,506.6772,454.7344,496.6772,458.7344,500.6772,454.7344" style="stroke:#181818;stroke-width:1;"/><line style="stroke:#181818;stroke-width:1;" x1="26.293" x2="502.6772" y1="454.7344" y2="454.7344"/><text fill="#000000" font-family="sans-serif" font-size="13" lengthAdjust="spacing" textLength="179.9053" x="33.293" y="449.8779">POST /accounts (clientId, type)</text><polygon fill="#181818" points="683.2134,481.0859,693.2134,485.0859,683.2134,489.0859,687.2134,485.0859" style="stroke:#181818;stroke-width:1;"/><line style="stroke:#181818;stroke-width:1;" x1="518.6772" x2="689.2134" y1="485.0859" y2="485.0859"/><text fill="#000000" font-family="sans-serif" font-size="13" lengthAdjust="spacing" textLength="157.5361" x="525.6772" y="480.2295">openAccount(clientId, type)</text><polygon fill="#181818" points="997.6777,511.4375,1007.6777,515.4375,997.6777,519.4375,1001.6777,515.4375" style="stroke:#181818;stroke-width:1;"/><line style="stroke:#181818;stroke-width:1;" x1="705.2134" x2="1003.6777" y1="515.4375" y2="515.4375"/><text fill="#000000" font-family="sans-serif" font-size="13" lengthAdjust="spacing" textLength="172.3071" x="712.2134" y="510.5811">SELECT client WHERE id = ?</text><polygon fill="#181818" points="997.6777,541.7891,1007.6777,545.7891,997.6777,549.7891,1001.6777,545.7891" style="stroke:#181818;stroke-width:1;"/><line style="stroke:#181818;stroke-width:1;" x1="705.2134" x2="1003.6777" y1="545.7891" y2="545.7891"/><text fill="#000000" font-family="sans-serif" font-size="13" lengthAdjust="spacing" textLength="176.668" x="712.2134" y="540.9326">INSERT account (balance = 0)</text><polygon fill="#181818" points="869.627,572.1406,879.627,576.1406,869.627,580.1406,873.627,576.1406" style="stroke:#181818;stroke-width:1;"/><line style="stroke:#181818;stroke-width:1;" x1="705.2134" x2="875.627" y1="576.1406" y2="576.1406"/><text fill="#000000" font-family="sans-serif" font-size="13" lengthAdjust="spacing" textLength="152.4136" x="712.2134" y="571.2842">log(ACCOUNT_OPENED)</text><polygon fill="#181818" points="997.6777,602.4922,1007.6777,606.4922,997.6777,610.4922,1001.6777,606.4922" style="stroke:#181818;stroke-width:1;"/><line style="stroke:#181818;stroke-width:1;" x1="881.627" x2="1003.6777" y1="606.4922" y2="606.4922"/><text fill="#000000" font-family="sans-serif" font-size="13" lengthAdjust="spacing" textLength="104.0508" x="888.627" y="601.6357">INSERT audit_log</text><polygon fill="#181818" points="529.6772,632.8438,519.6772,636.8438,529.6772,640.8438,525.6772,636.8438" style="stroke:#181818;stroke-width:1;"/><line style="stroke:#181818;stroke-width:1;stroke-dasharray:2.0,2.0;" x1="523.6772" x2="699.2134" y1="636.8438" y2="636.8438"/><text fill="#000000" font-family="sans-serif" font-size="13" lengthAdjust="spacing" textLength="46.9727" x="535.6772" y="631.9873">Account</text><polygon fill="#181818" points="37.293,663.1953,27.293,667.1953,37.293,671.1953,33.293,667.1953" style="stroke:#181818;stroke-width:1;"/><line style="stroke:#181818;stroke-width:1;stroke-dasharray:2.0,2.0;" x1="31.293" x2="512.6772" y1="667.1953" y2="667.1953"/><text fill="#000000" font-family="sans-serif" font-size="13" lengthAdjust="spacing" textLength="160.3989" x="43.293" y="662.3389">Fiche compte (solde, statut)</text><path d="M654,680.1953 L654,722.1953 L1055,722.1953 L1055,690.1953 L1045,680.1953 L654,680.1953 " fill="#FEFFDD" style="stroke:#181818;stroke-width:0.5;"/><path d="M1045,680.1953 L1045,690.1953 L1055,690.1953 L1045,680.1953 " fill="#FEFFDD" style="stroke:#181818;stroke-width:0.5;"/><text fill="#000000" font-family="sans-serif" font-size="13" lengthAdjust="spacing" textLength="229.0806" x="735.5745" y="698.6904">Types : courant, &#233;pargne, professionnel</text><text fill="#000000" font-family="sans-serif" font-size="13" lengthAdjust="spacing" textLength="204.4961" x="735.5745" y="715.042">Compte associ&#233; &#224; un client existant</text><!--SRC=[XPJ1ZjCm443l_efHJwbK5iuh1UIwGLGgRMcwuhZo9jEi8Mi7sqdXnaVm0Lpx7VqJleH9tD1qgU1MPTxCU9x7TP-LhgILJ-0UPMxsIXUmawL3vlv4BBhAQ8VlqJbPu1HBi-VMcZruMoDZNlaI8JqUljIeCuHVtty0_sHg3rcfK7j03wPkqFhQ8kG8cNcgF2NAp1iBl226KIklCbL9uaUYonD6UslA4kq8f0CXha4fsaPb68Zqak1PPkg_wd1nbHeMuiyBrRcw1EvcB9TUFaY7C5eRvmkBwOT55vnD6OlZe00jrBht4CUCTTF2YzSq3jp2UfLkuMK8EuYKtXa75LfdRbfhbJKturQJQgJ7rW1bjRafvMOMwMEm4ENU3C6K4KBWR4hWV9acc-tf4AS03K2HqXIHMCoJvVPUR1A-JMPZraQUPSfs_7k2k-J-xA4po_6YhUY0CEKjl5NP8_RZHxB134hbVBy23XgLu_YYXkZahUh6gk2k8o_TyRCx6MwFv8Kkytm2_bk50njquRpJnbjjfa9zkl9_fAICdmMcoI8HlK3u-2xP9A1oYE7DaEfbXTeGFSXIjiyXXbVZ4tUspeLOtP7srJfP_jSw3zQxgKz77ofh3tjLUp0NELFcE07dfQ_zXMmomxIX7uPU9zMPjBiBi2KPhjqmKrlQ_maS3_GS2ar5Q2Dtz3UWZDPO4Yf23-cSoTJn0CUVWtt7htJNL82Xpg7jmtu3]--></g></svg>