<svg xmlns="http://www.w3.org/2000/svg" xmlns:xlink="http://www.w3.org/1999/xlink" version="1.1" data-diagram-type="SEQUENCE" style="width:1161px;height:794px;background:#FFFFFF;" width="1161px" height="794px" viewBox="0 0 1161 794" zoomAndPan="magnify" preserveAspectRatio="none" contentStyleType="text/css"><?plantuml 1.2026.7beta3?><defs/><g><g class="title" data-source-line="4"><text x="385.457" y="27.9951" fill="#000000" font-size="14" lengthAdjust="spacing" textLength="383.4893" font-weight="700" font-family="sans-serif">Séquence — Ajout client et ouverture de compte</text></g><g><title>ClientController</title><rect x="295.0415" y="192.8594" width="10" height="174.7969" fill="#FFFFFF" style="stroke:#181818;stroke-width:1;"/></g><g><title>ClientService</title><rect x="434.6748" y="221.9922" width="10" height="116.5313" fill="#FFFFFF" style="stroke:#181818;stroke-width:1;"/></g><g><title>AccountController</title><rect x="567.7832" y="439.9219" width="10" height="203.9297" fill="#FFFFFF" style="stroke:#181818;stroke-width:1;"/></g><g><title>AccountService</title><rect x="777.1836" y="469.0547" width="10" height="145.6641" fill="#FFFFFF" style="stroke:#181818;stroke-width:1;"/></g><g class="participant-lifeline" data-qualified-name="Agent" data-entity-uid="part1" id="part1-lifeline" data-source-line="6"><g><title>Agent</title><rect x="24.7197" y="118.5938" width="8" height="593.5234" fill="#000000" fill-opacity="0.00000"/><line x1="28" y1="118.5938" x2="28" y2="712.1172" style="stroke:#181818;stroke-width:0.5;stroke-dasharray:5,5;"/></g></g><g class="participant-lifeline" data-qualified-name="CC" data-entity-uid="part2" id="part2-lifeline" data-source-line="7"><g><title>ClientController</title><rect x="296.0415" y="118.5938" width="8" height="593.5234" fill="#000000" fill-opacity="0.00000"/><line x1="299.1899" y1="118.5938" x2="299.1899" y2="712.1172" style="stroke:#181818;stroke-width:0.5;stroke-dasharray:5,5;"/></g></g><g class="participant-lifeline" data-qualified-name="CS" data-entity-uid="part3" id="part3-lifeline" data-source-line="8"><g><title>ClientService</title><rect x="435.6748" y="118.5938" width="8" height="593.5234" fill="#000000" fill-opacity="0.00000"/><line x1="439.5391" y1="118.5938" x2="439.5391" y2="712.1172" style="stroke:#181818;stroke-width:0.5;stroke-dasharray:5,5;"/></g></g><g class="participant-lifeline" data-qualified-name="AC" data-entity-uid="part4" id="part4-lifeline" data-source-line="9"><g><title>AccountController</title><rect x="568.7832" y="118.5938" width="8" height="593.5234" fill="#000000" fill-opacity="0.00000"/><line x1="571.8105" y1="118.5938" x2="571.8105" y2="712.1172" style="stroke:#181818;stroke-width:0.5;stroke-dasharray:5,5;"/></g></g><g class="participant-lifeline" data-qualified-name="AS" data-entity-uid="part5" id="part5-lifeline" data-source-line="10"><g><title>AccountService</title><rect x="778.1836" y="118.5938" width="8" height="593.5234" fill="#000000" fill-opacity="0.00000"/><line x1="781.9268" y1="118.5938" x2="781.9268" y2="712.1172" style="stroke:#181818;stroke-width:0.5;stroke-dasharray:5,5;"/></g></g><g class="participant-lifeline" data-qualified-name="AUD" data-entity-uid="part6" id="part6-lifeline" data-source-line="11"><g><title>AuditService</title><rect x="962.3394" y="118.5938" width="8" height="593.5234" fill="#000000" fill-opacity="0.00000"/><line x1="966.1108" y1="118.5938" x2="966.1108" y2="712.1172" style="stroke:#181818;stroke-width:0.5;stroke-dasharray:5,5;"/></g></g><g class="participant-lifeline" data-qualified-name="DB" data-entity-uid="part7" id="part7-lifeline" data-source-line="12"><g><title>PostgreSQL</title><rect x="1096.9536" y="118.5938" width="8" height="593.5234" fill="#000000" fill-opacity="0.00000"/><line x1="1100.5771" y1="118.5938" x2="1100.5771" y2="712.1172" style="stroke:#181818;stroke-width:0.5;stroke-dasharray:5,5;"/></g></g><g class="participant participant-head" data-qualified-name="Agent" data-entity-uid="part1" id="part1-head" data-source-line="6"><text x="5" y="115.292" fill="#000000" font-size="14" lengthAdjust="spacing" textLength="41.4395" font-family="sans-serif">Agent</text><ellipse cx="28.7197" cy="50.7969" rx="8" ry="8" fill="#E2E2F0" style="stroke:#181818;stroke-width:0.5;"/><path d="M28.7197,58.7969 L28.7197,85.7969 M15.7197,66.7969 L41.7197,66.7969 M28.7197,85.7969 L15.7197,100.7969 M28.7197,85.7969 L41.7197,100.7969" style="stroke:#181818;stroke-width:0.5;" fill="none"/></g><g class="participant participant-tail" data-qualified-name="Agent" data-entity-uid="part1" id="part1-tail" data-source-line="6"><text x="5" y="724.1123" fill="#000000" font-size="14" lengthAdjust="spacing" textLength="41.4395" font-family="sans-serif">Agent</text><ellipse cx="28.7197" cy="735.9141" rx="8" ry="8" fill="#E2E2F0" style="stroke:#181818;stroke-width:0.5;"/><path d="M28.7197,743.9141 L28.7197,770.9141 M15.7197,751.9141 L41.7197,751.9141 M28.7197,770.9141 L15.7197,785.9141 M28.7197,770.9141 L41.7197,785.9141" style="stroke:#181818;stroke-width:0.5;" fill="none"/></g><g class="participant participant-head" data-qualified-name="CC" data-entity-uid="part2" id="part2-head" data-source-line="7"><rect x="238.1899" y="87.2969" width="123.7031" height="30.2969" fill="#E2E2F0" style="stroke:#181818;stroke-width:0.5;" rx="2.5" ry="2.5"/><text x="245.1899" y="107.292" fill="#000000" font-size="14" lengthAdjust="spacing" textLength="109.7031" font-family="sans-serif">ClientController</text></g><g class="participant participant-tail" data-qualified-name="CC" data-entity-uid="part2" id="part2-tail" data-source-line="7"><rect x="238.1899" y="711.1172" width="123.7031" height="30.2969" fill="#E2E2F0" style="stroke:#181818;stroke-width:0.5;" rx="2.5" ry="2.5"/><text x="245.1899" y="731.1123" fill="#000000" font-size="14" lengthAdjust="spacing" textLength="109.7031" font-family="sans-serif">ClientController</text></g><g class="participant participant-head" data-qualified-name="CS" data-entity-uid="part3" id="part3-head" data-source-line="8"><rect x="386.5391" y="87.2969" width="106.2715" height="30.2969" fill="#E2E2F0" style="stroke:#181818;stroke-width:0.5;" rx="2.5" ry="2.5"/><text x="393.5391" y="107.292" fill="#000000" font-size="14" lengthAdjust="spacing" textLength="92.2715" font-family="sans-serif">ClientService</text></g><g class="participant participant-tail" data-qualified-name="CS" data-entity-uid="part3" id="part3-tail" data-source-line="8"><rect x="386.5391" y="711.1172" width="106.2715" height="30.2969" fill="#E2E2F0" style="stroke:#181818;stroke-width:0.5;" rx="2.5" ry="2.5"/><text x="393.5391" y="731.1123" fill="#000000" font-size="14" lengthAdjust="spacing" textLength="92.2715" font-family="sans-serif">ClientService</text></g><g class="participant participant-head" data-qualified-name="AC" data-entity-uid="part4" id="part4-head" data-source-line="9"><rect x="502.8105" y="87.2969" width="139.9453" height="30.2969" fill="#E2E2F0" style="stroke:#181818;stroke-width:0.5;" rx="2.5" ry="2.5"/><text x="509.8105" y="107.292" fill="#000000" font-size="14" lengthAdjust="spacing" textLength="125.9453" font-family="sans-serif">AccountController</text></g><g class="participant participant-tail" data-qualified-name="AC" data-entity-uid="part4" id="part4-tail" data-source-line="9"><rect x="502.8105" y="711.1172" width="139.9453" height="30.2969" fill="#E2E2F0" style="stroke:#181818;stroke-width:0.5;" rx="2.5" ry="2.5"/><text x="509.8105" y="731.1123" fill="#000000" font-size="14" lengthAdjust="spacing" textLength="125.9453" font-family="sans-serif">AccountController</text></g><g class="participant participant-head" data-qualified-name="AS" data-entity-uid="part5" id="part5-head" data-source-line="10"><rect x="720.9268" y="87.2969" width="122.5137" height="30.2969" fill="#E2E2F0" style="stroke:#181818;stroke-width:0.5;" rx="2.5" ry="2.5"/><text x="727.9268" y="107.292" fill="#000000" font-size="14" lengthAdjust="spacing" textLength="108.5137" font-family="sans-serif">AccountService</text></g><g class="participant participant-tail" data-qualified-name="AS" data-entity-uid="part5" id="part5-tail" data-source-line="10"><rect x="720.9268" y="711.1172" width="122.5137" height="30.2969" fill="#E2E2F0" style="stroke:#181818;stroke-width:0.5;" rx="2.5" ry="2.5"/><text x="727.9268" y="731.1123" fill="#000000" font-size="14" lengthAdjust="spacing" textLength="108.5137" font-family="sans-serif">AccountService</text></g><g class="participant participant-head" data-qualified-name="AUD" data-entity-uid="part6" id="part6-head" data-source-line="11"><rect x="915.1108" y="87.2969" width="102.457" height="30.2969" fill="#E2E2F0" style="stroke:#181818;stroke-width:0.5;" rx="2.5" ry="2.5"/><text x="922.1108" y="107.292" fill="#000000" font-size="14" lengthAdjust="spacing" textLength="88.457" font-family="sans-serif">AuditService</text></g><g class="participant participant-tail" data-qualified-name="AUD" data-entity-uid="part6" id="part6-tail" data-source-line="11"><rect x="915.1108" y="711.1172" width="102.457" height="30.2969" fill="#E2E2F0" style="stroke:#181818;stroke-width:0.5;" rx="2.5" ry="2.5"/><text x="922.1108" y="731.1123" fill="#000000" font-size="14" lengthAdjust="spacing" textLength="88.457" font-family="sans-serif">AuditService</text></g><g class="participant participant-head" data-qualified-name="DB" data-entity-uid="part7" id="part7-head" data-source-line="12"><text x="1057.5771" y="115.292" fill="#000000" font-size="14" lengthAdjust="spacing" textLength="80.7529" font-family="sans-serif">PostgreSQL</text><path d="M1082.9536,66.2969 C1082.9536,56.2969 1100.9536,56.2969 1100.9536,56.2969 C1100.9536,56.2969 1118.9536,56.2969 1118.9536,66.2969 L1118.9536,92.2969 C1118.9536,102.2969 1100.9536,102.2969 1100.9536,102.2969 C1100.9536,102.2969 1082.9536,102.2969 1082.9536,92.2969 L1082.9536,66.2969" style="stroke:#181818;stroke-width:0.5;" fill="#E2E2F0"/><path d="M1082.9536,66.2969 C1082.9536,76.2969 1100.9536,76.2969 1100.9536,76.2969 C1100.9536,76.2969 1118.9536,76.2969 1118.9536,66.2969" style="stroke:#181818;stroke-width:0.5;" fill="none"/></g><g class="participant participant-tail" data-qualified-name="DB" data-entity-uid="part7" id="part7-tail" data-source-line="12"><text x="1057.5771" y="724.1123" fill="#000000" font-size="14" lengthAdjust="spacing" textLength="80.7529" font-family="sans-serif">PostgreSQL</text><path d="M1082.9536,737.4141 C1082.9536,727.4141 1100.9536,727.4141 1100.9536,727.4141 C1100.9536,727.4141 1118.9536,727.4141 1118.9536,737.4141 L1118.9536,763.4141 C1118.9536,773.4141 1100.9536,773.4141 1100.9536,773.4141 C1100.9536,773.4141 1082.9536,773.4141 1082.9536,763.4141 L1082.9536,737.4141" style="stroke:#181818;stroke-width:0.5;" fill="#E2E2F0"/><path d="M1082.9536,737.4141 C1082.9536,747.4141 1100.9536,747.4141 1100.9536,747.4141 C1100.9536,747.4141 1118.9536,747.4141 1118.9536,737.4141" style="stroke:#181818;stroke-width:0.5;" fill="none"/></g><g><title>ClientController</title><rect x="295.0415" y="192.8594" width="10" height="174.7969" fill="#FFFFFF" style="stroke:#181818;stroke-width:1;"/></g><g><title>ClientService</title><rect x="434.6748" y="221.9922" width="10" height="116.5313" fill="#FFFFFF" style="stroke:#181818;stroke-width:1;"/></g><g><title>AccountController</title><rect x="567.7832" y="439.9219" width="10" height="203.9297" fill="#FFFFFF" style="stroke:#181818;stroke-width:1;"/></g><g><title>AccountService</title><rect x="777.1836" y="469.0547" width="10" height="145.6641" fill="#FFFFFF" style="stroke:#181818;stroke-width:1;"/></g><rect x="0" y="149.1602" width="1155.4033" height="3" fill="#EEEEEE" style="stroke:#EEEEEE;stroke-width:1;"/><line x1="0" y1="149.1602" x2="1155.4033" y2="149.1602" style="stroke:#000000;stroke-width:1;"/><line x1="0" y1="152.1602" x2="1155.4033" y2="152.1602" style="stroke:#000000;stroke-width:1;"/><rect x="507.1331" y="138.5938" width="141.1372" height="23.1328" fill="#EEEEEE" style="stroke:#000000;stroke-width:2;"/><text x="513.1331" y="154.6606" fill="#000000" font-size="13" lengthAdjust="spacing" textLength="122.6113" font-weight="700" font-family="sans-serif">Ajouter un client</text><g class="message" data-entity-1="part1" data-entity-2="part2" id="msg1" data-source-line="16"><polygon points="283.0415,188.8594,293.0415,192.8594,283.0415,196.8594,287.0415,192.8594" fill="#181818" style="stroke:#181818;stroke-width:1;stroke-linejoin:miter;stroke-miterlimit:10;"/><line x1="28.7197" y1="192.8594" x2="289.0415" y2="192.8594" style="stroke:#181818;stroke-width:1;"/><text x="35.7197" y="187.7935" fill="#000000" font-size="13" lengthAdjust="spacing" textLength="222.314" font-family="sans-serif">POST /clients (infos perso. et pro.)</text></g><g class="message" data-entity-1="part2" data-entity-2="part3" id="msg2" data-source-line="18"><polygon points="422.6748,217.9922,432.6748,221.9922,422.6748,225.9922,426.6748,221.9922" fill="#181818" style="stroke:#181818;stroke-width:1;stroke-linejoin:miter;stroke-miterlimit:10;"/><line x1="305.0415" y1="221.9922" x2="428.6748" y2="221.9922" style="stroke:#181818;stroke-width:1;"/><text x="312.0415" y="216.9263" fill="#000000" font-size="13" lengthAdjust="spacing" textLength="110.6333" font-family="sans-serif">createClient(dto)</text></g><g class="message" data-entity-1="part3" data-entity-2="part7" id="msg3" data-source-line="20"><polygon points="1088.9536,247.125,1098.9536,251.125,1088.9536,255.125,1092.9536,251.125" fill="#181818" style="stroke:#181818;stroke-width:1;stroke-linejoin:miter;stroke-miterlimit:10;"/><line x1="444.6748" y1="251.125" x2="1094.9536" y2="251.125" style="stroke:#181818;stroke-width:1;"/><text x="451.6748" y="246.0591" fill="#000000" font-size="13" lengthAdjust="spacing" textLength="86.8359" font-family="sans-serif">INSERT client</text></g><g class="message" data-entity-1="part3" data-entity-2="part6" id="msg4" data-source-line="21"><polygon points="954.3394,276.2578,964.3394,280.2578,954.3394,284.2578,958.3394,280.2578" fill="#181818" style="stroke:#181818;stroke-width:1;stroke-linejoin:miter;stroke-miterlimit:10;"/><line x1="444.6748" y1="280.2578" x2="960.3394" y2="280.2578" style="stroke:#181818;stroke-width:1;"/><text x="451.6748" y="275.1919" fill="#000000" font-size="13" lengthAdjust="spacing" textLength="143.876" font-family="sans-serif">log(CLIENT_CREATED)</text></g><g class="message" data-entity-1="part6" data-entity-2="part7" id="msg5" data-source-line="22"><polygon points="1088.9536,305.3906,1098.9536,309.3906,1088.9536,313.3906,1092.9536,309.3906" fill="#181818" style="stroke:#181818;stroke-width:1;stroke-linejoin:miter;stroke-miterlimit:10;"/><line x1="966.3394" y1="309.3906" x2="1094.9536" y2="309.3906" style="stroke:#181818;stroke-width:1;"/><text x="973.3394" y="304.3247" fill="#000000" font-size="13" lengthAdjust="spacing" textLength="110.6143" font-family="sans-serif">INSERT audit_log</text></g><g class="message" data-entity-1="part3" data-entity-2="part2" id="msg6" data-source-line="23"><polygon points="316.0415,334.5234,306.0415,338.5234,316.0415,342.5234,312.0415,338.5234" fill="#181818" style="stroke:#181818;stroke-width:1;stroke-linejoin:miter;stroke-miterlimit:10;"/><line x1="310.0415" y1="338.5234" x2="438.6748" y2="338.5234" style="stroke:#181818;stroke-width:1;stroke-dasharray:2,2;"/><text x="322.0415" y="333.4575" fill="#000000" font-size="13" lengthAdjust="spacing" textLength="37.6353" font-family="sans-serif">Client</text></g><g class="message" data-entity-1="part2" data-entity-2="part1" id="msg7" data-source-line="25"><polygon points="39.7197,363.6563,29.7197,367.6563,39.7197,371.6563,35.7197,367.6563" fill="#181818" style="stroke:#181818;stroke-width:1;stroke-linejoin:miter;stroke-miterlimit:10;"/><line x1="33.7197" y1="367.6563" x2="299.0415" y2="367.6563" style="stroke:#181818;stroke-width:1;stroke-dasharray:2,2;"/><text x="45.7197" y="362.5903" fill="#000000" font-size="13" lengthAdjust="spacing" textLength="242.3218" font-family="sans-serif">Fiche client (avec liste comptes vide)</text></g><rect x="0" y="396.2227" width="1155.4033" height="3" fill="#EEEEEE" style="stroke:#EEEEEE;stroke-width:1;"/><line x1="0" y1="396.2227" x2="1155.4033" y2="396.2227" style="stroke:#000000;stroke-width:1;"/><line x1="0" y1="399.2227" x2="1155.4033" y2="399.2227" style="stroke:#000000;stroke-width:1;"/><rect x="504.3687" y="385.6563" width="146.666" height="23.1328" fill="#EEEEEE" style="stroke:#000000;stroke-width:2;"/><text x="510.3687" y="401.7231" fill="#000000" font-size="13" lengthAdjust="spacing" textLength="128.1401" font-weight="700" font-family="sans-serif">Ouvrir un compte</text><g class="message" data-entity-1="part1" data-entity-2="part4" id="msg8" data-source-line="30"><polygon points="555.7832,435.9219,565.7832,439.9219,555.7832,443.9219,559.7832,439.9219" fill="#181818" style="stroke:#181818;stroke-width:1;stroke-linejoin:miter;stroke-miterlimit:10;"/><line x1="28.7197" y1="439.9219" x2="561.7832" y2="439.9219" style="stroke:#181818;stroke-width:1;"/><text x="35.7197" y="434.856" fill="#000000" font-size="13" lengthAdjust="spacing" textLength="200.7129" font-family="sans-serif">POST /accounts (clientId, type)</text></g><g class="message" data-entity-1="part4" data-entity-2="part5" id="msg9" data-source-line="32"><polygon points="765.1836,465.0547,775.1836,469.0547,765.1836,473.0547,769.1836,469.0547" fill="#181818" style="stroke:#181818;stroke-width:1;stroke-linejoin:miter;stroke-miterlimit:10;"/><line x1="577.7832" y1="469.0547" x2="771.1836" y2="469.0547" style="stroke:#181818;stroke-width:1;"/><text x="584.7832" y="463.9888" fill="#000000" font-size="13" lengthAdjust="spacing" textLength="180.4004" font-family="sans-serif">openAccount(clientId, type)</text></g><g class="message" data-entity-1="part5" data-entity-2="part7" id="msg10" data-source-line="34"><polygon points="1088.9536,494.1875,1098.9536,498.1875,1088.9536,502.1875,1092.9536,498.1875" fill="#181818" style="stroke:#181818;stroke-width:1;stroke-linejoin:miter;stroke-miterlimit:10;"/><line x1="787.1836" y1="498.1875" x2="1094.9536" y2="498.1875" style="stroke:#181818;stroke-width:1;"/><text x="794.1836" y="493.1216" fill="#000000" font-size="13" lengthAdjust="spacing" textLength="183.0537" font-family="sans-serif">SELECT client WHERE id = ?</text></g><g class="message" data-entity-1="part5" data-entity-2="part7" id="msg11" data-source-line="35"><polygon points="1088.9536,523.3203,1098.9536,527.3203,1088.9536,531.3203,1092.9536,527.3203" fill="#181818" style="stroke:#181818;stroke-width:1;stroke-linejoin:miter;stroke-miterlimit:10;"/><line x1="787.1836" y1="527.3203" x2="1094.9536" y2="527.3203" style="stroke:#181818;stroke-width:1;"/><text x="794.1836" y="522.2544" fill="#000000" font-size="13" lengthAdjust="spacing" textLength="195.8062" font-family="sans-serif">INSERT account (balance = 0)</text></g><g class="message" data-entity-1="part5" data-entity-2="part6" id="msg12" data-source-line="36"><polygon points="954.3394,552.4531,964.3394,556.4531,954.3394,560.4531,958.3394,556.4531" fill="#181818" style="stroke:#181818;stroke-width:1;stroke-linejoin:miter;stroke-miterlimit:10;"/><line x1="787.1836" y1="556.4531" x2="960.3394" y2="556.4531" style="stroke:#181818;stroke-width:1;"/><text x="794.1836" y="551.3872" fill="#000000" font-size="13" lengthAdjust="spacing" textLength="155.1558" font-family="sans-serif">log(ACCOUNT_OPENED)</text></g><g class="message" data-entity-1="part6" data-entity-2="part7" id="msg13" data-source-line="37"><polygon points="1088.9536,581.5859,1098.9536,585.5859,1088.9536,589.5859,1092.9536,585.5859" fill="#181818" style="stroke:#181818;stroke-width:1;stroke-linejoin:miter;stroke-miterlimit:10;"/><line x1="966.3394" y1="585.5859" x2="1094.9536" y2="585.5859" style="stroke:#181818;stroke-width:1;"/><text x="973.3394" y="580.52" fill="#000000" font-size="13" lengthAdjust="spacing" textLength="110.6143" font-family="sans-serif">INSERT audit_log</text></g><g class="message" data-entity-1="part5" data-entity-2="part4" id="msg14" data-source-line="38"><polygon points="588.7832,610.7188,578.7832,614.7188,588.7832,618.7188,584.7832,614.7188" fill="#181818" style="stroke:#181818;stroke-width:1;stroke-linejoin:miter;stroke-miterlimit:10;"/><line x1="582.7832" y1="614.7188" x2="781.1836" y2="614.7188" style="stroke:#181818;stroke-width:1;stroke-dasharray:2,2;"/><text x="594.7832" y="609.6528" fill="#000000" font-size="13" lengthAdjust="spacing" textLength="52.7173" font-family="sans-serif">Account</text></g><g class="message" data-entity-1="part4" data-entity-2="part1" id="msg15" data-source-line="40"><polygon points="39.7197,639.8516,29.7197,643.8516,39.7197,647.8516,35.7197,643.8516" fill="#181818" style="stroke:#181818;stroke-width:1;stroke-linejoin:miter;stroke-miterlimit:10;"/><line x1="33.7197" y1="643.8516" x2="571.7832" y2="643.8516" style="stroke:#181818;stroke-width:1;stroke-dasharray:2,2;"/><text x="45.7197" y="638.7856" fill="#000000" font-size="13" lengthAdjust="spacing" textLength="183.1172" font-family="sans-serif">Fiche compte (solde, statut)</text></g><path d="M732,656.8516 L732,696.8516 L1150,696.8516 L1150,666.8516 L1140,656.8516 L732,656.8516" style="stroke:#181818;stroke-width:0.5;" fill="#FEFFDD"/><path d="M1140,656.8516 L1140,666.8516 L1150,666.8516 L1140,656.8516" style="stroke:#181818;stroke-width:0.5;" fill="#FEFFDD"/><text x="807.1047" y="673.9185" fill="#000000" font-size="13" lengthAdjust="spacing" textLength="259.1938" font-family="sans-serif">Types : courant, épargne, professionnel</text><text x="807.1047" y="689.0513" fill="#000000" font-size="13" lengthAdjust="spacing" textLength="232.5527" font-family="sans-serif">Compte associé à un client existant</text><?plantuml-src XPJ1ZjCm443l_efHJwbK5iuh1UIwGLGgRMcwuhZo9jEi8Mi7sqdXnaVm0Lpx7VqJleH9tD1qgU1MPTxCU9x7TP-LhgILJ-0UPMxsIXUmawL3vlv4BBhAQ8VlqJbPu1HBi-VMcZruMoDZNlaI8JqUljIeCuHVtty0_sHg3rcfK7j03wPkqFhQ8kG8cNcgF2NAp1iBl226KIklCbL9uaUYonD6UslA4kq8f0CXha4fsaPb68Zqak1PPkg_wd1nbHeMuiyBrRcw1EvcB9TUFaY7C5eRvmkBwOT55vnD6OlZe00jrBht4CUCTTF2YzSq3jp2UfLkuMK8EuYKtXa75LfdRbfhbJKturQJQgJ7rW1bjRafvMOMwMEm4ENU3C6K4KBWR4hWV9acc-tf4AS03K2HqXIHMCoJvVPUR1A-JMPZraQUPSfs_7k2k-J-xA4po_6YhUY0CEKjl5NP8_RZHxB134hbVBy23XgLu_YYXkZahUh6gk2k8o_TyRCx6MwFv8Kkytm2_bk50njquRpJnbjjfa9zkl9_fAICdmMcoI8HlK3u-2xP9A1oYE7DaEfbXTeGFSXIjiyXXbVZ4tUspeLOtP7srJfP_jSw3zQxgKz77ofh3tjLUp0NELFcE07dfQ_zXMmomxIX7uPU9zMPjBiBi2KPhjqmKrlQ_maS3_GS2ar5Q2Dtz3UWZDPO4Yf23-cSoTJn0CUVWtt7htJNL82Xpg7jyni0?></g></svg>