<svg xmlns="http://www.w3.org/2000/svg" xmlns:xlink="http://www.w3.org/1999/xlink" contentStyleType="text/css" height="1818px" preserveAspectRatio="none" style="width:989px;height:1818px;background:#FFFFFF;" version="1.1" viewBox="0 0 989 1818" width="989px" zoomAndPan="magnify"><title>S&#233;quence &#8212; D&#233;p&#244;t, retrait et virement</title><defs/><g><text fill="#000000" font-family="sans-serif" font-size="14" font-weight="bold" lengthAdjust="spacing" textLength="254.0645" x="363.562" y="29.5332">S&#233;quence &#8212; D&#233;p&#244;t, retrait et virement</text><rect fill="#FFFFFF" height="403.0547" style="stroke:#181818;stroke-width:1;" width="10" x="302.3354" y="197.9219"/><rect fill="#FFFFFF" height="446.4063" style="stroke:#181818;stroke-width:1;" width="10" x="302.3354" y="667.6797"/><rect fill="#FFFFFF" height="476.7578" style="stroke:#181818;stroke-width:1;" width="10" x="302.3354" y="1180.7891"/><rect fill="#FFFFFF" height="372.7031" style="stroke:#181818;stroke-width:1;" width="10" x="559.6606" y="228.2734"/><rect fill="#FFFFFF" height="416.0547" style="stroke:#181818;stroke-width:1;" width="10" x="559.6606" y="698.0313"/><rect fill="#FFFFFF" height="446.4063" style="stroke:#181818;stroke-width:1;" width="10" x="559.6606" y="1211.1406"/><rect fill="none" height="277" style="stroke:#000000;stroke-width:1.5;" width="962.1885" x="10" y="316.9766"/><rect fill="none" height="277" style="stroke:#000000;stroke-width:1.5;" width="962.1885" x="10" y="830.0859"/><rect fill="none" height="307.3516" style="stroke:#000000;stroke-width:1.5;" width="962.1885" x="10" y="1343.1953"/><line style="stroke:#181818;stroke-width:0.5;stroke-dasharray:5.0,5.0;" x1="41" x2="41" y1="121.2188" y2="1736.6016"/><line style="stroke:#181818;stroke-width:0.5;stroke-dasharray:5.0,5.0;" x1="306.4185" x2="306.4185" y1="121.2188" y2="1736.6016"/><line style="stroke:#181818;stroke-width:0.5;stroke-dasharray:5.0,5.0;" x1="563.7471" x2="563.7471" y1="121.2188" y2="1736.6016"/><line style="stroke:#181818;stroke-width:0.5;stroke-dasharray:5.0,5.0;" x1="792.7104" x2="792.7104" y1="121.2188" y2="1736.6016"/><line style="stroke:#181818;stroke-width:0.5;stroke-dasharray:5.0,5.0;" x1="920.9268" x2="920.9268" y1="121.2188" y2="1736.6016"/><text fill="#000000" font-family="sans-serif" font-size="14" lengthAdjust="spacing" textLength="36.5859" x="20" y="118.1426">Agent</text><ellipse cx="41.293" cy="52.1094" fill="#E2E2F0" rx="8" ry="8" style="stroke:#181818;stroke-width:0.5;"/><path d="M41.293,60.1094 L41.293,87.1094 M28.293,68.1094 L54.293,68.1094 M41.293,87.1094 L28.293,102.1094 M41.293,87.1094 L54.293,102.1094 " fill="none" style="stroke:#181818;stroke-width:0.5;"/><text fill="#000000" font-family="sans-serif" font-size="14" lengthAdjust="spacing" textLength="36.5859" x="20" y="1750.1348">Agent</text><ellipse cx="41.293" cy="1761.7109" fill="#E2E2F0" rx="8" ry="8" style="stroke:#181818;stroke-width:0.5;"/><path d="M41.293,1769.7109 L41.293,1796.7109 M28.293,1777.7109 L54.293,1777.7109 M41.293,1796.7109 L28.293,1811.7109 M41.293,1796.7109 L54.293,1811.7109 " fill="none" style="stroke:#181818;stroke-width:0.5;"/><rect fill="#E2E2F0" height="31.6094" rx="2.5" ry="2.5" style="stroke:#181818;stroke-width:0.5;" width="147.834" x="233.4185" y="88.6094"/><text fill="#000000" font-family="sans-serif" font-size="14" lengthAdjust="spacing" textLength="133.834" x="240.4185" y="110.1426">TransactionController</text><rect fill="#E2E2F0" height="31.6094" rx="2.5" ry="2.5" style="stroke:#181818;stroke-width:0.5;" width="147.834" x="233.4185" y="1735.6016"/><text fill="#000000" font-family="sans-serif" font-size="14" lengthAdjust="spacing" textLength="133.834" x="240.4185" y="1757.1348">TransactionController</text><rect fill="#E2E2F0" height="31.6094" rx="2.5" ry="2.5" style="stroke:#181818;stroke-width:0.5;" width="133.8271" x="497.7471" y="88.6094"/><text fill="#000000" font-family="sans-serif" font-size="14" lengthAdjust="spacing" textLength="119.8271" x="504.7471" y="110.1426">TransactionService</text><rect fill="#E2E2F0" height="31.6094" rx="2.5" ry="2.5" style="stroke:#181818;stroke-width:0.5;" width="133.8271" x="497.7471" y="1735.6016"/><text fill="#000000" font-family="sans-serif" font-size="14" lengthAdjust="spacing" textLength="119.8271" x="504.7471" y="1757.1348">TransactionService</text><rect fill="#E2E2F0" height="31.6094" rx="2.5" ry="2.5" style="stroke:#181818;stroke-width:0.5;" width="92.5928" x="746.7104" y="88.6094"/><text fill="#000000" font-family="sans-serif" font-size="14" lengthAdjust="spacing" textLength="78.5928" x="753.7104" y="110.1426">AuditService</text><rect fill="#E2E2F0" height="31.6094" rx="2.5" ry="2.5" style="stroke:#181818;stroke-width:0.5;" width="92.5928" x="746.7104" y="1735.6016"/><text fill="#000000" font-family="sans-serif" font-size="14" lengthAdjust="spacing" textLength="78.5928" x="753.7104" y="1757.1348">AuditService</text><text fill="#000000" font-family="sans-serif" font-size="14" lengthAdjust="spacing" textLength="76.2617" x="879.9268" y="118.1426">PostgreSQL</text><path d="M903.0576,67.6094 C903.0576,57.6094 921.0576,57.6094 921.0576,57.6094 C921.0576,57.6094 939.0576,57.6094 939.0576,67.6094 L939.0576,93.6094 C939.0576,103.6094 921.0576,103.6094 921.0576,103.6094 C921.0576,103.6094 903.0576,103.6094 903.0576,93.6094 L903.0576,67.6094 " fill="#E2E2F0" style="stroke:#181818;stroke-width:1.5;"/><path d="M903.0576,67.6094 C903.0576,77.6094 921.0576,77.6094 921.0576,77.6094 C921.0576,77.6094 939.0576,77.6094 939.0576,67.6094 " fill="none" style="stroke:#181818;stroke-width:1.5;"/><text fill="#000000" font-family="sans-serif" font-size="14" lengthAdjust="spacing" textLength="76.2617" x="879.9268" y="1750.1348">PostgreSQL</text><path d="M903.0576,1763.2109 C903.0576,1753.2109 921.0576,1753.2109 921.0576,1753.2109 C921.0576,1753.2109 939.0576,1753.2109 939.0576,1763.2109 L939.0576,1789.2109 C939.0576,1799.2109 921.0576,1799.2109 921.0576,1799.2109 C921.0576,1799.2109 903.0576,1799.2109 903.0576,1789.2109 L903.0576,1763.2109 " fill="#E2E2F0" style="stroke:#181818;stroke-width:1.5;"/><path d="M903.0576,1763.2109 C903.0576,1773.2109 921.0576,1773.2109 921.0576,1773.2109 C921.0576,1773.2109 939.0576,1773.2109 939.0576,1763.2109 " fill="none" style="stroke:#181818;stroke-width:1.5;"/><rect fill="#FFFFFF" height="403.0547" style="stroke:#181818;stroke-width:1;" width="10" x="302.3354" y="197.9219"/><rect fill="#FFFFFF" height="446.4063" style="stroke:#181818;stroke-width:1;" width="10" x="302.3354" y="667.6797"/><rect fill="#FFFFFF" height="476.7578" style="stroke:#181818;stroke-width:1;" width="10" x="302.3354" y="1180.7891"/><rect fill="#FFFFFF" height="372.7031" style="stroke:#181818;stroke-width:1;" width="10" x="559.6606" y="228.2734"/><rect fill="#FFFFFF" height="416.0547" style="stroke:#181818;stroke-width:1;" width="10" x="559.6606" y="698.0313"/><rect fill="#FFFFFF" height="446.4063" style="stroke:#181818;stroke-width:1;" width="10" x="559.6606" y="1211.1406"/><rect fill="#EEEEEE" height="3" style="stroke:#EEEEEE;stroke-width:1;" width="982.1885" x="0" y="152.3945"/><line style="stroke:#000000;stroke-width:1;" x1="0" x2="982.1885" y1="152.3945" y2="152.3945"/><line style="stroke:#000000;stroke-width:1;" x1="0" x2="982.1885" y1="155.3945" y2="155.3945"/><rect fill="#EEEEEE" height="24.3516" style="stroke:#000000;stroke-width:2;" width="54.4409" x="463.8738" y="141.2188"/><text fill="#000000" font-family="sans-serif" font-size="13" font-weight="bold" lengthAdjust="spacing" textLength="36.8291" x="469.8738" y="158.7139">D&#233;p&#244;t</text><polygon fill="#181818" points="290.3354,193.9219,300.3354,197.9219,290.3354,201.9219,294.3354,197.9219" style="stroke:#181818;stroke-width:1;"/><line style="stroke:#181818;stroke-width:1;" x1="41.293" x2="296.3354" y1="197.9219" y2="197.9219"/><text fill="#000000" font-family="sans-serif" font-size="13" lengthAdjust="spacing" textLength="203.7661" x="48.293" y="193.0654">POST /deposit (accountId, amount)</text><polygon fill="#181818" points="547.6606,224.2734,557.6606,228.2734,547.6606,232.2734,551.6606,228.2734" style="stroke:#181818;stroke-width:1;"/><line style="stroke:#181818;stroke-width:1;" x1="312.3354" x2="553.6606" y1="228.2734" y2="228.2734"/><text fill="#000000" font-family="sans-serif" font-size="13" lengthAdjust="spacing" textLength="190.0488" x="319.3354" y="223.417">deposit(accountId, amount, user)</text><polygon fill="#181818" points="909.0576,254.625,919.0576,258.625,909.0576,262.625,913.0576,258.625" style="stroke:#181818;stroke-width:1;"/><line style="stroke:#181818;stroke-width:1;" x1="569.6606" x2="915.0576" y1="258.625" y2="258.625"/><text fill="#000000" font-family="sans-serif" font-size="13" lengthAdjust="spacing" textLength="187.1099" x="576.6606" y="253.7686">SELECT account FOR UPDATE</text><line style="stroke:#181818;stroke-width:1;" x1="569.6606" x2="611.6606" y1="288.9766" y2="288.9766"/><line style="stroke:#181818;stroke-width:1;" x1="611.6606" x2="611.6606" y1="288.9766" y2="301.9766"/><line style="stroke:#181818;stroke-width:1;" x1="570.6606" x2="611.6606" y1="301.9766" y2="301.9766"/><polygon fill="#181818" points="580.6606,297.9766,570.6606,301.9766,580.6606,305.9766,576.6606,301.9766" style="stroke:#181818;stroke-width:1;"/><text fill="#000000" font-family="sans-serif" font-size="13" lengthAdjust="spacing" textLength="135.8145" x="576.6606" y="284.1201">v&#233;rifier compte ACTIVE</text><path d="M10,316.9766 L70.1709,316.9766 L70.1709,325.3281 L60.1709,335.3281 L10,335.3281 L10,316.9766 " fill="#EEEEEE" style="stroke:#000000;stroke-width:1.5;"/><rect fill="none" height="277" style="stroke:#000000;stroke-width:1.5;" width="962.1885" x="10" y="316.9766"/><text fill="#000000" font-family="sans-serif" font-size="13" font-weight="bold" lengthAdjust="spacing" textLength="15.1709" x="25" y="331.4717">alt</text><text fill="#000000" font-family="sans-serif" font-size="11" font-weight="bold" lengthAdjust="spacing" textLength="73.9438" x="85.1709" y="330.3955">[Compte actif]</text><polygon fill="#181818" points="909.0576,353.6797,919.0576,357.6797,909.0576,361.6797,913.0576,357.6797" style="stroke:#181818;stroke-width:1;"/><line style="stroke:#181818;stroke-width:1;" x1="569.6606" x2="915.0576" y1="357.6797" y2="357.6797"/><text fill="#000000" font-family="sans-serif" font-size="13" lengthAdjust="spacing" textLength="168.7144" x="576.6606" y="352.8232">UPDATE balance (+ amount)</text><polygon fill="#181818" points="909.0576,384.0313,919.0576,388.0313,909.0576,392.0313,913.0576,388.0313" style="stroke:#181818;stroke-width:1;"/><line style="stroke:#181818;stroke-width:1;" x1="569.6606" x2="915.0576" y1="388.0313" y2="388.0313"/><text fill="#000000" font-family="sans-serif" font-size="13" lengthAdjust="spacing" textLength="171.9263" x="576.6606" y="383.1748">INSERT transaction (DEPOT)</text><polygon fill="#181818" points="781.0068,414.3828,791.0068,418.3828,781.0068,422.3828,785.0068,418.3828" style="stroke:#181818;stroke-width:1;"/><line style="stroke:#181818;stroke-width:1;" x1="569.6606" x2="787.0068" y1="418.3828" y2="418.3828"/><text fill="#000000" font-family="sans-serif" font-size="13" lengthAdjust="spacing" textLength="83.0718" x="576.6606" y="413.5264">log(DEPOSIT)</text><polygon fill="#181818" points="909.0576,444.7344,919.0576,448.7344,909.0576,452.7344,913.0576,448.7344" style="stroke:#181818;stroke-width:1;"/><line style="stroke:#181818;stroke-width:1;" x1="793.0068" x2="915.0576" y1="448.7344" y2="448.7344"/><text fill="#000000" font-family="sans-serif" font-size="13" lengthAdjust="spacing" textLength="104.0508" x="800.0068" y="443.8779">INSERT audit_log</text><polygon fill="#181818" points="323.3354,475.0859,313.3354,479.0859,323.3354,483.0859,319.3354,479.0859" style="stroke:#181818;stroke-width:1;"/><line style="stroke:#181818;stroke-width:1;stroke-dasharray:2.0,2.0;" x1="317.3354" x2="558.6606" y1="479.0859" y2="479.0859"/><text fill="#000000" font-family="sans-serif" font-size="13" lengthAdjust="spacing" textLength="18.7827" x="329.3354" y="474.2295">OK</text><polygon fill="#181818" points="52.293,505.4375,42.293,509.4375,52.293,513.4375,48.293,509.4375" style="stroke:#181818;stroke-width:1;"/><line style="stroke:#181818;stroke-width:1;stroke-dasharray:2.0,2.0;" x1="46.293" x2="301.3354" y1="509.4375" y2="509.4375"/><text fill="#000000" font-family="sans-serif" font-size="13" lengthAdjust="spacing" textLength="142.0161" x="58.293" y="504.5811">Succ&#232;s + nouveau solde</text><line style="stroke:#000000;stroke-width:1;stroke-dasharray:2.0,2.0;" x1="10" x2="972.1885" y1="518.4375" y2="518.4375"/><text fill="#000000" font-family="sans-serif" font-size="11" font-weight="bold" lengthAdjust="spacing" textLength="143.6016" x="15" y="529.8564">[Compte bloqu&#233; ou cl&#244;tur&#233;]</text><polygon fill="#181818" points="323.3354,551.625,313.3354,555.625,323.3354,559.625,319.3354,555.625" style="stroke:#181818;stroke-width:1;"/><line style="stroke:#181818;stroke-width:1;stroke-dasharray:2.0,2.0;" x1="317.3354" x2="558.6606" y1="555.625" y2="555.625"/><text fill="#000000" font-family="sans-serif" font-size="13" lengthAdjust="spacing" textLength="75.8481" x="329.3354" y="550.7686">Erreur m&#233;tier</text><polygon fill="#181818" points="52.293,581.9766,42.293,585.9766,52.293,589.9766,48.293,585.9766" style="stroke:#181818;stroke-width:1;"/><line style="stroke:#181818;stroke-width:1;stroke-dasharray:2.0,2.0;" x1="46.293" x2="301.3354" y1="585.9766" y2="585.9766"/><text fill="#000000" font-family="sans-serif" font-size="13" lengthAdjust="spacing" textLength="100.75" x="58.293" y="581.1201">Message d'erreur</text><rect fill="#EEEEEE" height="3" style="stroke:#EEEEEE;stroke-width:1;" width="982.1885" x="0" y="622.1523"/><line style="stroke:#000000;stroke-width:1;" x1="0" x2="982.1885" y1="622.1523" y2="622.1523"/><line style="stroke:#000000;stroke-width:1;" x1="0" x2="982.1885" y1="625.1523" y2="625.1523"/><rect fill="#EEEEEE" height="24.3516" style="stroke:#000000;stroke-width:2;" width="58.7891" x="461.6997" y="610.9766"/><text fill="#000000" font-family="sans-serif" font-size="13" font-weight="bold" lengthAdjust="spacing" textLength="41.1772" x="467.6997" y="628.4717">Retrait</text><polygon fill="#181818" points="290.3354,663.6797,300.3354,667.6797,290.3354,671.6797,294.3354,667.6797" style="stroke:#181818;stroke-width:1;"/><line style="stroke:#181818;stroke-width:1;" x1="41.293" x2="296.3354" y1="667.6797" y2="667.6797"/><text fill="#000000" font-family="sans-serif" font-size="13" lengthAdjust="spacing" textLength="213.1416" x="48.293" y="662.8232">POST /withdraw (accountId, amount)</text><polygon fill="#181818" points="547.6606,694.0313,557.6606,698.0313,547.6606,702.0313,551.6606,698.0313" style="stroke:#181818;stroke-width:1;"/><line style="stroke:#181818;stroke-width:1;" x1="312.3354" x2="553.6606" y1="698.0313" y2="698.0313"/><text fill="#000000" font-family="sans-serif" font-size="13" lengthAdjust="spacing" textLength="199.4243" x="319.3354" y="693.1748">withdraw(accountId, amount, user)</text><polygon fill="#181818" points="909.0576,724.3828,919.0576,728.3828,909.0576,732.3828,913.0576,728.3828" style="stroke:#181818;stroke-width:1;"/><line style="stroke:#181818;stroke-width:1;" x1="569.6606" x2="915.0576" y1="728.3828" y2="728.3828"/><text fill="#000000" font-family="sans-serif" font-size="13" lengthAdjust="spacing" textLength="187.1099" x="576.6606" y="723.5264">SELECT account FOR UPDATE</text><line style="stroke:#181818;stroke-width:1;" x1="569.6606" x2="611.6606" y1="758.7344" y2="758.7344"/><line style="stroke:#181818;stroke-width:1;" x1="611.6606" x2="611.6606" y1="758.7344" y2="771.7344"/><line style="stroke:#181818;stroke-width:1;" x1="570.6606" x2="611.6606" y1="771.7344" y2="771.7344"/><polygon fill="#181818" points="580.6606,767.7344,570.6606,771.7344,580.6606,775.7344,576.6606,771.7344" style="stroke:#181818;stroke-width:1;"/><text fill="#000000" font-family="sans-serif" font-size="13" lengthAdjust="spacing" textLength="135.8145" x="576.6606" y="753.8779">v&#233;rifier compte ACTIVE</text><line style="stroke:#181818;stroke-width:1;" x1="569.6606" x2="611.6606" y1="802.0859" y2="802.0859"/><line style="stroke:#181818;stroke-width:1;" x1="611.6606" x2="611.6606" y1="802.0859" y2="815.0859"/><line style="stroke:#181818;stroke-width:1;" x1="570.6606" x2="611.6606" y1="815.0859" y2="815.0859"/><polygon fill="#181818" points="580.6606,811.0859,570.6606,815.0859,580.6606,819.0859,576.6606,815.0859" style="stroke:#181818;stroke-width:1;"/><text fill="#000000" font-family="sans-serif" font-size="13" lengthAdjust="spacing" textLength="153.9243" x="576.6606" y="797.2295">v&#233;rifier balance &gt;= amount</text><path d="M10,830.0859 L70.1709,830.0859 L70.1709,838.4375 L60.1709,848.4375 L10,848.4375 L10,830.0859 " fill="#EEEEEE" style="stroke:#000000;stroke-width:1.5;"/><rect fill="none" height="277" style="stroke:#000000;stroke-width:1.5;" width="962.1885" x="10" y="830.0859"/><text fill="#000000" font-family="sans-serif" font-size="13" font-weight="bold" lengthAdjust="spacing" textLength="15.1709" x="25" y="844.5811">alt</text><text fill="#000000" font-family="sans-serif" font-size="11" font-weight="bold" lengthAdjust="spacing" textLength="166.853" x="85.1709" y="843.5049">[Solde suffisant et compte actif]</text><polygon fill="#181818" points="909.0576,866.7891,919.0576,870.7891,909.0576,874.7891,913.0576,870.7891" style="stroke:#181818;stroke-width:1;"/><line style="stroke:#181818;stroke-width:1;" x1="569.6606" x2="915.0576" y1="870.7891" y2="870.7891"/><text fill="#000000" font-family="sans-serif" font-size="13" lengthAdjust="spacing" textLength="165.4517" x="576.6606" y="865.9326">UPDATE balance (- amount)</text><polygon fill="#181818" points="909.0576,897.1406,919.0576,901.1406,909.0576,905.1406,913.0576,901.1406" style="stroke:#181818;stroke-width:1;"/><line style="stroke:#181818;stroke-width:1;" x1="569.6606" x2="915.0576" y1="901.1406" y2="901.1406"/><text fill="#000000" font-family="sans-serif" font-size="13" lengthAdjust="spacing" textLength="182.7554" x="576.6606" y="896.2842">INSERT transaction (RETRAIT)</text><polygon fill="#181818" points="781.0068,927.4922,791.0068,931.4922,781.0068,935.4922,785.0068,931.4922" style="stroke:#181818;stroke-width:1;"/><line style="stroke:#181818;stroke-width:1;" x1="569.6606" x2="787.0068" y1="931.4922" y2="931.4922"/><text fill="#000000" font-family="sans-serif" font-size="13" lengthAdjust="spacing" textLength="98.9346" x="576.6606" y="926.6357">log(WITHDRAW)</text><polygon fill="#181818" points="909.0576,957.8438,919.0576,961.8438,909.0576,965.8438,913.0576,961.8438" style="stroke:#181818;stroke-width:1;"/><line style="stroke:#181818;stroke-width:1;" x1="793.0068" x2="915.0576" y1="961.8438" y2="961.8438"/><text fill="#000000" font-family="sans-serif" font-size="13" lengthAdjust="spacing" textLength="104.0508" x="800.0068" y="956.9873">INSERT audit_log</text><polygon fill="#181818" points="323.3354,988.1953,313.3354,992.1953,323.3354,996.1953,319.3354,992.1953" style="stroke:#181818;stroke-width:1;"/><line style="stroke:#181818;stroke-width:1;stroke-dasharray:2.0,2.0;" x1="317.3354" x2="558.6606" y1="992.1953" y2="992.1953"/><text fill="#000000" font-family="sans-serif" font-size="13" lengthAdjust="spacing" textLength="18.7827" x="329.3354" y="987.3389">OK</text><polygon fill="#181818" points="52.293,1018.5469,42.293,1022.5469,52.293,1026.5469,48.293,1022.5469" style="stroke:#181818;stroke-width:1;"/><line style="stroke:#181818;stroke-width:1;stroke-dasharray:2.0,2.0;" x1="46.293" x2="301.3354" y1="1022.5469" y2="1022.5469"/><text fill="#000000" font-family="sans-serif" font-size="13" lengthAdjust="spacing" textLength="142.0161" x="58.293" y="1017.6904">Succ&#232;s + nouveau solde</text><line style="stroke:#000000;stroke-width:1;stroke-dasharray:2.0,2.0;" x1="10" x2="972.1885" y1="1031.5469" y2="1031.5469"/><text fill="#000000" font-family="sans-serif" font-size="11" font-weight="bold" lengthAdjust="spacing" textLength="190.0615" x="15" y="1042.9658">[Solde insuffisant ou compte inactif]</text><polygon fill="#181818" points="323.3354,1064.7344,313.3354,1068.7344,323.3354,1072.7344,319.3354,1068.7344" style="stroke:#181818;stroke-width:1;"/><line style="stroke:#181818;stroke-width:1;stroke-dasharray:2.0,2.0;" x1="317.3354" x2="558.6606" y1="1068.7344" y2="1068.7344"/><text fill="#000000" font-family="sans-serif" font-size="13" lengthAdjust="spacing" textLength="75.8481" x="329.3354" y="1063.8779">Erreur m&#233;tier</text><polygon fill="#181818" points="52.293,1095.0859,42.293,1099.0859,52.293,1103.0859,48.293,1099.0859" style="stroke:#181818;stroke-width:1;"/><line style="stroke:#181818;stroke-width:1;stroke-dasharray:2.0,2.0;" x1="46.293" x2="301.3354" y1="1099.0859" y2="1099.0859"/><text fill="#000000" font-family="sans-serif" font-size="13" lengthAdjust="spacing" textLength="100.75" x="58.293" y="1094.2295">Message d'erreur</text><rect fill="#EEEEEE" height="3" style="stroke:#EEEEEE;stroke-width:1;" width="982.1885" x="0" y="1135.2617"/><line style="stroke:#000000;stroke-width:1;" x1="0" x2="982.1885" y1="1135.2617" y2="1135.2617"/><line style="stroke:#000000;stroke-width:1;" x1="0" x2="982.1885" y1="1138.2617" y2="1138.2617"/><rect fill="#EEEEEE" height="24.3516" style="stroke:#000000;stroke-width:2;" width="73.2427" x="454.4729" y="1124.0859"/><text fill="#000000" font-family="sans-serif" font-size="13" font-weight="bold" lengthAdjust="spacing" textLength="55.6309" x="460.4729" y="1141.5811">Virement</text><polygon fill="#181818" points="290.3354,1176.7891,300.3354,1180.7891,290.3354,1184.7891,294.3354,1180.7891" style="stroke:#181818;stroke-width:1;"/><line style="stroke:#181818;stroke-width:1;" x1="41.293" x2="296.3354" y1="1180.7891" y2="1180.7891"/><text fill="#000000" font-family="sans-serif" font-size="13" lengthAdjust="spacing" textLength="242.0425" x="48.293" y="1175.9326">POST /transfer (sourceId, destId, amount)</text><polygon fill="#181818" points="547.6606,1207.1406,557.6606,1211.1406,547.6606,1215.1406,551.6606,1211.1406" style="stroke:#181818;stroke-width:1;"/><line style="stroke:#181818;stroke-width:1;" x1="312.3354" x2="553.6606" y1="1211.1406" y2="1211.1406"/><text fill="#000000" font-family="sans-serif" font-size="13" lengthAdjust="spacing" textLength="228.3252" x="319.3354" y="1206.2842">transfer(sourceId, destId, amount, user)</text><polygon fill="#181818" points="909.0576,1237.4922,919.0576,1241.4922,909.0576,1245.4922,913.0576,1241.4922" style="stroke:#181818;stroke-width:1;"/><line style="stroke:#181818;stroke-width:1;" x1="569.6606" x2="915.0576" y1="1241.4922" y2="1241.4922"/><text fill="#000000" font-family="sans-serif" font-size="13" lengthAdjust="spacing" textLength="226.8906" x="576.6606" y="1236.6357">SELECT comptes source et destination</text><line style="stroke:#181818;stroke-width:1;" x1="569.6606" x2="611.6606" y1="1271.8438" y2="1271.8438"/><line style="stroke:#181818;stroke-width:1;" x1="611.6606" x2="611.6606" y1="1271.8438" y2="1284.8438"/><line style="stroke:#181818;stroke-width:1;" x1="570.6606" x2="611.6606" y1="1284.8438" y2="1284.8438"/><polygon fill="#181818" points="580.6606,1280.8438,570.6606,1284.8438,580.6606,1288.8438,576.6606,1284.8438" style="stroke:#181818;stroke-width:1;"/><text fill="#000000" font-family="sans-serif" font-size="13" lengthAdjust="spacing" textLength="194.3462" x="576.6606" y="1266.9873">v&#233;rifier les deux comptes ACTIVE</text><line style="stroke:#181818;stroke-width:1;" x1="569.6606" x2="611.6606" y1="1315.1953" y2="1315.1953"/><line style="stroke:#181818;stroke-width:1;" x1="611.6606" x2="611.6606" y1="1315.1953" y2="1328.1953"/><line style="stroke:#181818;stroke-width:1;" x1="570.6606" x2="611.6606" y1="1328.1953" y2="1328.1953"/><polygon fill="#181818" points="580.6606,1324.1953,570.6606,1328.1953,580.6606,1332.1953,576.6606,1328.1953" style="stroke:#181818;stroke-width:1;"/><text fill="#000000" font-family="sans-serif" font-size="13" lengthAdjust="spacing" textLength="182.0952" x="576.6606" y="1310.3389">v&#233;rifier solde source &gt;= amount</text><path d="M10,1343.1953 L70.1709,1343.1953 L70.1709,1351.5469 L60.1709,1361.5469 L10,1361.5469 L10,1343.1953 " fill="#EEEEEE" style="stroke:#000000;stroke-width:1.5;"/><rect fill="none" height="307.3516" style="stroke:#000000;stroke-width:1.5;" width="962.1885" x="10" y="1343.1953"/><text fill="#000000" font-family="sans-serif" font-size="13" font-weight="bold" lengthAdjust="spacing" textLength="15.1709" x="25" y="1357.6904">alt</text><text fill="#000000" font-family="sans-serif" font-size="11" font-weight="bold" lengthAdjust="spacing" textLength="150.3584" x="85.1709" y="1356.6143">[Comptes actifs et solde OK]</text><polygon fill="#181818" points="909.0576,1379.8984,919.0576,1383.8984,909.0576,1387.8984,913.0576,1383.8984" style="stroke:#181818;stroke-width:1;"/><line style="stroke:#181818;stroke-width:1;" x1="569.6606" x2="915.0576" y1="1383.8984" y2="1383.8984"/><text fill="#000000" font-family="sans-serif" font-size="13" lengthAdjust="spacing" textLength="158.9326" x="576.6606" y="1379.042">UPDATE source (- amount)</text><polygon fill="#181818" points="909.0576,1410.25,919.0576,1414.25,909.0576,1418.25,913.0576,1414.25" style="stroke:#181818;stroke-width:1;"/><line style="stroke:#181818;stroke-width:1;" x1="569.6606" x2="915.0576" y1="1414.25" y2="1414.25"/><text fill="#000000" font-family="sans-serif" font-size="13" lengthAdjust="spacing" textLength="186.0562" x="576.6606" y="1409.3936">UPDATE destination (+ amount)</text><polygon fill="#181818" points="909.0576,1440.6016,919.0576,1444.6016,909.0576,1448.6016,913.0576,1444.6016" style="stroke:#181818;stroke-width:1;"/><line style="stroke:#181818;stroke-width:1;" x1="569.6606" x2="915.0576" y1="1444.6016" y2="1444.6016"/><text fill="#000000" font-family="sans-serif" font-size="13" lengthAdjust="spacing" textLength="194.3145" x="576.6606" y="1439.7451">INSERT transaction (VIREMENT)</text><polygon fill="#181818" points="781.0068,1470.9531,791.0068,1474.9531,781.0068,1478.9531,785.0068,1474.9531" style="stroke:#181818;stroke-width:1;"/><line style="stroke:#181818;stroke-width:1;" x1="569.6606" x2="787.0068" y1="1474.9531" y2="1474.9531"/><text fill="#000000" font-family="sans-serif" font-size="13" lengthAdjust="spacing" textLength="96.0654" x="576.6606" y="1470.0967">log(TRANSFER)</text><polygon fill="#181818" points="909.0576,1501.3047,919.0576,1505.3047,909.0576,1509.3047,913.0576,1505.3047" style="stroke:#181818;stroke-width:1;"/><line style="stroke:#181818;stroke-width:1;" x1="793.0068" x2="915.0576" y1="1505.3047" y2="1505.3047"/><text fill="#000000" font-family="sans-serif" font-size="13" lengthAdjust="spacing" textLength="104.0508" x="800.0068" y="1500.4482">INSERT audit_log</text><polygon fill="#181818" points="323.3354,1531.6563,313.3354,1535.6563,323.3354,1539.6563,319.3354,1535.6563" style="stroke:#181818;stroke-width:1;"/><line style="stroke:#181818;stroke-width:1;stroke-dasharray:2.0,2.0;" x1="317.3354" x2="558.6606" y1="1535.6563" y2="1535.6563"/><text fill="#000000" font-family="sans-serif" font-size="13" lengthAdjust="spacing" textLength="18.7827" x="329.3354" y="1530.7998">OK</text><polygon fill="#181818" points="52.293,1562.0078,42.293,1566.0078,52.293,1570.0078,48.293,1566.0078" style="stroke:#181818;stroke-width:1;"/><line style="stroke:#181818;stroke-width:1;stroke-dasharray:2.0,2.0;" x1="46.293" x2="301.3354" y1="1566.0078" y2="1566.0078"/><text fill="#000000" font-family="sans-serif" font-size="13" lengthAdjust="spacing" textLength="42.6309" x="58.293" y="1561.1514">Succ&#232;s</text><line style="stroke:#000000;stroke-width:1;stroke-dasharray:2.0,2.0;" x1="10" x2="972.1885" y1="1575.0078" y2="1575.0078"/><text fill="#000000" font-family="sans-serif" font-size="11" font-weight="bold" lengthAdjust="spacing" textLength="190.6685" x="15" y="1586.4268">[Compte inactif ou solde insuffisant]</text><polygon fill="#181818" points="323.3354,1608.1953,313.3354,1612.1953,323.3354,1616.1953,319.3354,1612.1953" style="stroke:#181818;stroke-width:1;"/><line style="stroke:#181818;stroke-width:1;stroke-dasharray:2.0,2.0;" x1="317.3354" x2="558.6606" y1="1612.1953" y2="1612.1953"/><text fill="#000000" font-family="sans-serif" font-size="13" lengthAdjust="spacing" textLength="75.8481" x="329.3354" y="1607.3389">Erreur m&#233;tier</text><polygon fill="#181818" points="52.293,1638.5469,42.293,1642.5469,52.293,1646.5469,48.293,1642.5469" style="stroke:#181818;stroke-width:1;"/><line style="stroke:#181818;stroke-width:1;stroke-dasharray:2.0,2.0;" x1="46.293" x2="301.3354" y1="1642.5469" y2="1642.5469"/><text fill="#000000" font-family="sans-serif" font-size="13" lengthAdjust="spacing" textLength="100.75" x="58.293" y="1637.6904">Message d'erreur</text><path d="M437,1662.5469 L437,1721.5469 L692,1721.5469 L692,1672.5469 L682,1662.5469 L437,1662.5469 " fill="#FEFFDD" style="stroke:#181818;stroke-width:0.5;"/><path d="M682,1662.5469 L682,1672.5469 L692,1672.5469 L682,1662.5469 " fill="#FEFFDD" style="stroke:#181818;stroke-width:0.5;"/><text fill="#000000" font-family="sans-serif" font-size="13" lengthAdjust="spacing" textLength="192.9624" x="443" y="1681.042">Chaque transaction : date, heure,</text><text fill="#000000" font-family="sans-serif" font-size="13" lengthAdjust="spacing" textLength="184.2725" x="443" y="1697.3936">montant, utilisateur responsable</text><text fill="#000000" font-family="sans-serif" font-size="13" lengthAdjust="spacing" textLength="234.1016" x="443" y="1713.7451">Op&#233;rations importantes &#8594; journal d'audit</text><!--SRC=[lPPBRjim48RtFCKWcxg8W-uBE80YAwZH94ub9LaMj3IssTAaGb9sbrtr04KFKUzx0zqa9-bGaXqxiL4NQBgoAVx_S1wV7lQpK0KtV0PsodEz46e2OoujChlUCMWBhInUehLyWcSezI8mHY_0cH8PSy99XAHQtfUeCeI7hp-WNosBwfVhajaPBXoWWxamE4Fb6EEPqmQ2YL_G6Kvaek3AmL5gkBAqAxGAjN96Iudc2BY5SAymGJCN6TQgP5iLbBbmc_l1JP_btF4HjmX7rzgwYS7amqMzsJzZhDTRfGwz7cDrYd1o2Y6yXUjXaiAR70jjgQ0Epp9TAZV8ky1d_jzhNvUOSuUKRUXT2RbQ_NDv5qgBPiEKiCIR-cVaIgABA4oXDS7vC8QRwtwGHet61vvNIoF60WraUbQGFmZJmMr4tPKEmkQIZprc08-1coWmufBxMNMEryblgWPNIHIdDDzrbw7JZww7wLf6dIITr9FwUZAeT_p59o6u7y57qZN6jfN3zxGCwsNJOggupBBgfuLZKBgS8o_1QfaZGu9nLSv8wlkoMe8k8PCqez9KowsuaJ5O6fXLIqUDUNP6Ip3ahx0MCbGvot5Z0XkBiAOXRldTGyD2k6bk-E9W75Q6_yV33i5g-gUzzkm6ciGt76mv7Wlhxn-wPxD3EJevcACuIkDWi8kakq7whXy7To-AKbEaK8zbUfgQCeNQAFJ5aBfjduFxcAgxDQOnTQmkJOOUaHpj7z5Q-VRQ3Y6iwOI59eP7mCUWnlZXxM99aZZ7yilQkHyxs_3LH7x2NjYwwm5OVswZhiVx3BisnXxgMj56ud_pdBiTnD5bTBKBK0BtAZcFudy4wDQphMNFqsYV8lgIG2fDltfEuqbyh2cdj_XMG-WLHj8kJ2aOTaapepSphsboGb9-pgVJVYJmaKII30iQUjrv2s9MQECDDDs7Rz_X4yrESKa9rlto-O5FWlq6]--></g></svg>