<svg xmlns="http://www.w3.org/2000/svg" xmlns:xlink="http://www.w3.org/1999/xlink" version="1.1" data-diagram-type="SEQUENCE" style="width:1087px;height:2617px;background:#FFFFFF;" width="1087px" height="2617px" viewBox="0 0 1087 2617" zoomAndPan="magnify" preserveAspectRatio="none" contentStyleType="text/css"><?plantuml 1.2026.7beta3?><defs/><g><g class="title" data-source-line="10"><text x="387.1074" y="35.9951" fill="#000000" font-size="14" lengthAdjust="spacing" textLength="306.1475" font-weight="700" font-family="sans-serif">Séquence — Dépôt, retrait et virement</text></g><rect x="3" y="61.2969" width="1071.3623" height="38.2813" fill="#FFFFCC" style="stroke:#FFDD88;stroke-width:3;" rx="2.5" ry="2.5"/><text x="10" y="71.9375" fill="#000000" font-size="10" lengthAdjust="spacing" textLength="361.2305" font-family="monospace">Please use CSS style instead of skinparam ParticipantPadding</text><text x="10" y="93.5781" fill="#000000" font-size="10" lengthAdjust="spacing" textLength="295.0049" font-family="monospace">Please use CSS style instead of skinparam padding</text><g><title>TransactionController</title><rect x="333.7559" y="295.4844" width="10" height="597.5625" fill="#FFFFFF" style="stroke:#181818;stroke-width:1;"/></g><g><title>TransactionController</title><rect x="333.7559" y="986.9844" width="10" height="654.5313" fill="#FFFFFF" style="stroke:#181818;stroke-width:1;"/></g><g><title>TransactionController</title><rect x="333.7559" y="1735.4531" width="10" height="698.5" fill="#FFFFFF" style="stroke:#181818;stroke-width:1;"/></g><g><title>TransactionService</title><rect x="619.2539" y="339.4531" width="10" height="553.5938" fill="#FFFFFF" style="stroke:#181818;stroke-width:1;"/></g><g><title>TransactionService</title><rect x="619.2539" y="1030.9531" width="10" height="610.5625" fill="#FFFFFF" style="stroke:#181818;stroke-width:1;"/></g><g><title>TransactionService</title><rect x="619.2539" y="1779.4219" width="10" height="654.5313" fill="#FFFFFF" style="stroke:#181818;stroke-width:1;"/></g><rect x="10" y="455.3906" width="1061.3623" height="430.6563" fill="none" style="stroke:#000000;stroke-width:1.5;"/><rect x="10" y="1203.8594" width="1061.3623" height="430.6563" fill="none" style="stroke:#000000;stroke-width:1.5;"/><rect x="10" y="1952.3281" width="1061.3623" height="474.625" fill="none" style="stroke:#000000;stroke-width:1.5;"/><g class="participant-lifeline" data-qualified-name="Agent" data-entity-uid="part1" id="part1-lifeline" data-source-line="12"><g><title>Agent</title><rect x="44.7598" y="191.5469" width="8" height="2330.3125" fill="#000000" fill-opacity="0.00000"/><line x1="48" y1="191.5469" x2="48" y2="2521.8594" style="stroke:#181818;stroke-width:0.5;stroke-dasharray:5,5;"/></g></g><g class="participant-lifeline" data-qualified-name="C" data-entity-uid="part2" id="part2-lifeline" data-source-line="13"><g><title>TransactionController</title><rect x="334.7559" y="191.5469" width="8" height="2330.3125" fill="#000000" fill-opacity="0.00000"/><line x1="337.9043" y1="191.5469" x2="337.9043" y2="2521.8594" style="stroke:#181818;stroke-width:0.5;stroke-dasharray:5,5;"/></g></g><g class="participant-lifeline" data-qualified-name="S" data-entity-uid="part3" id="part3-lifeline" data-source-line="14"><g><title>TransactionService</title><rect x="620.2539" y="191.5469" width="8" height="2330.3125" fill="#000000" fill-opacity="0.00000"/><line x1="623.873" y1="191.5469" x2="623.873" y2="2521.8594" style="stroke:#181818;stroke-width:0.5;stroke-dasharray:5,5;"/></g></g><g class="participant-lifeline" data-qualified-name="AUD" data-entity-uid="part4" id="part4-lifeline" data-source-line="15"><g><title>AuditService</title><rect x="869.6484" y="191.5469" width="8" height="2330.3125" fill="#000000" fill-opacity="0.00000"/><line x1="872.7383" y1="191.5469" x2="872.7383" y2="2521.8594" style="stroke:#181818;stroke-width:0.5;stroke-dasharray:5,5;"/></g></g><g class="participant-lifeline" data-qualified-name="DB" data-entity-uid="part5" id="part5-lifeline" data-source-line="16"><g><title>PostgreSQL</title><rect x="1011.7539" y="191.5469" width="8" height="2330.3125" fill="#000000" fill-opacity="0.00000"/><line x1="1015.1455" y1="191.5469" x2="1015.1455" y2="2521.8594" style="stroke:#181818;stroke-width:0.5;stroke-dasharray:5,5;"/></g></g><g class="participant participant-head" data-qualified-name="Agent" data-entity-uid="part1" id="part1-head" data-source-line="12"><text x="28" y="180.7168" fill="#000000" font-size="12" lengthAdjust="spacing" textLength="35.5195" font-family="sans-serif">Agent</text><ellipse cx="48.7598" cy="110.0781" rx="8" ry="8" fill="#E2E2F0" style="stroke:#181818;stroke-width:0.5;"/><path d="M48.7598,118.0781 L48.7598,145.0781 M35.7598,126.0781 L61.7598,126.0781 M48.7598,145.0781 L35.7598,160.0781 M48.7598,145.0781 L61.7598,160.0781" style="stroke:#181818;stroke-width:0.5;" fill="none"/></g><g class="participant participant-tail" data-qualified-name="Agent" data-entity-uid="part1" id="part1-tail" data-source-line="12"><text x="28" y="2539.998" fill="#000000" font-size="12" lengthAdjust="spacing" textLength="35.5195" font-family="sans-serif">Agent</text><ellipse cx="48.7598" cy="2559.3281" rx="8" ry="8" fill="#E2E2F0" style="stroke:#181818;stroke-width:0.5;"/><path d="M48.7598,2567.3281 L48.7598,2594.3281 M35.7598,2575.3281 L61.7598,2575.3281 M48.7598,2594.3281 L35.7598,2609.3281 M48.7598,2594.3281 L61.7598,2609.3281" style="stroke:#181818;stroke-width:0.5;" fill="none"/></g><g class="participant participant-head" data-qualified-name="C" data-entity-uid="part2" id="part2-head" data-source-line="13"><rect x="258.9043" y="146.5781" width="159.7031" height="43.9688" fill="#E2E2F0" style="stroke:#181818;stroke-width:0.5;" rx="2.5" ry="2.5"/><text x="273.9043" y="172.7168" fill="#000000" font-size="12" lengthAdjust="spacing" textLength="129.7031" font-family="sans-serif">TransactionController</text></g><g class="participant participant-tail" data-qualified-name="C" data-entity-uid="part2" id="part2-tail" data-source-line="13"><rect x="258.9043" y="2520.8594" width="159.7031" height="43.9688" fill="#E2E2F0" style="stroke:#181818;stroke-width:0.5;" rx="2.5" ry="2.5"/><text x="273.9043" y="2546.998" fill="#000000" font-size="12" lengthAdjust="spacing" textLength="129.7031" font-family="sans-serif">TransactionController</text></g><g class="participant participant-head" data-qualified-name="S" data-entity-uid="part3" id="part3-head" data-source-line="14"><rect x="551.873" y="146.5781" width="144.7617" height="43.9688" fill="#E2E2F0" style="stroke:#181818;stroke-width:0.5;" rx="2.5" ry="2.5"/><text x="566.873" y="172.7168" fill="#000000" font-size="12" lengthAdjust="spacing" textLength="114.7617" font-family="sans-serif">TransactionService</text></g><g class="participant participant-tail" data-qualified-name="S" data-entity-uid="part3" id="part3-tail" data-source-line="14"><rect x="551.873" y="2520.8594" width="144.7617" height="43.9688" fill="#E2E2F0" style="stroke:#181818;stroke-width:0.5;" rx="2.5" ry="2.5"/><text x="566.873" y="2546.998" fill="#000000" font-size="12" lengthAdjust="spacing" textLength="114.7617" font-family="sans-serif">TransactionService</text></g><g class="participant participant-head" data-qualified-name="AUD" data-entity-uid="part4" id="part4-head" data-source-line="15"><rect x="820.7383" y="146.5781" width="105.8203" height="43.9688" fill="#E2E2F0" style="stroke:#181818;stroke-width:0.5;" rx="2.5" ry="2.5"/><text x="835.7383" y="172.7168" fill="#000000" font-size="12" lengthAdjust="spacing" textLength="75.8203" font-family="sans-serif">AuditService</text></g><g class="participant participant-tail" data-qualified-name="AUD" data-entity-uid="part4" id="part4-tail" data-source-line="15"><rect x="820.7383" y="2520.8594" width="105.8203" height="43.9688" fill="#E2E2F0" style="stroke:#181818;stroke-width:0.5;" rx="2.5" ry="2.5"/><text x="835.7383" y="2546.998" fill="#000000" font-size="12" lengthAdjust="spacing" textLength="75.8203" font-family="sans-serif">AuditService</text></g><g class="participant participant-head" data-qualified-name="DB" data-entity-uid="part5" id="part5-head" data-source-line="16"><text x="978.1455" y="180.7168" fill="#000000" font-size="12" lengthAdjust="spacing" textLength="69.2168" font-family="sans-serif">PostgreSQL</text><path d="M997.7539,125.5781 C997.7539,115.5781 1015.7539,115.5781 1015.7539,115.5781 C1015.7539,115.5781 1033.7539,115.5781 1033.7539,125.5781 L1033.7539,151.5781 C1033.7539,161.5781 1015.7539,161.5781 1015.7539,161.5781 C1015.7539,161.5781 997.7539,161.5781 997.7539,151.5781 L997.7539,125.5781" style="stroke:#181818;stroke-width:0.5;" fill="#E2E2F0"/><path d="M997.7539,125.5781 C997.7539,135.5781 1015.7539,135.5781 1015.7539,135.5781 C1015.7539,135.5781 1033.7539,135.5781 1033.7539,125.5781" style="stroke:#181818;stroke-width:0.5;" fill="none"/></g><g class="participant participant-tail" data-qualified-name="DB" data-entity-uid="part5" id="part5-tail" data-source-line="16"><text x="978.1455" y="2539.998" fill="#000000" font-size="12" lengthAdjust="spacing" textLength="69.2168" font-family="sans-serif">PostgreSQL</text><path d="M997.7539,2560.8281 C997.7539,2550.8281 1015.7539,2550.8281 1015.7539,2550.8281 C1015.7539,2550.8281 1033.7539,2550.8281 1033.7539,2560.8281 L1033.7539,2586.8281 C1033.7539,2596.8281 1015.7539,2596.8281 1015.7539,2596.8281 C1015.7539,2596.8281 997.7539,2596.8281 997.7539,2586.8281 L997.7539,2560.8281" style="stroke:#181818;stroke-width:0.5;" fill="#E2E2F0"/><path d="M997.7539,2560.8281 C997.7539,2570.8281 1015.7539,2570.8281 1015.7539,2570.8281 C1015.7539,2570.8281 1033.7539,2570.8281 1033.7539,2560.8281" style="stroke:#181818;stroke-width:0.5;" fill="none"/></g><g><title>TransactionController</title><rect x="333.7559" y="295.4844" width="10" height="597.5625" fill="#FFFFFF" style="stroke:#181818;stroke-width:1;"/></g><g><title>TransactionController</title><rect x="333.7559" y="986.9844" width="10" height="654.5313" fill="#FFFFFF" style="stroke:#181818;stroke-width:1;"/></g><g><title>TransactionController</title><rect x="333.7559" y="1735.4531" width="10" height="698.5" fill="#FFFFFF" style="stroke:#181818;stroke-width:1;"/></g><g><title>TransactionService</title><rect x="619.2539" y="339.4531" width="10" height="553.5938" fill="#FFFFFF" style="stroke:#181818;stroke-width:1;"/></g><g><title>TransactionService</title><rect x="619.2539" y="1030.9531" width="10" height="610.5625" fill="#FFFFFF" style="stroke:#181818;stroke-width:1;"/></g><g><title>TransactionService</title><rect x="619.2539" y="1779.4219" width="10" height="654.5313" fill="#FFFFFF" style="stroke:#181818;stroke-width:1;"/></g><rect x="0" y="229.5313" width="1081.3623" height="3" fill="#EEEEEE" style="stroke:#EEEEEE;stroke-width:1;"/><line x1="0" y1="229.5313" x2="1081.3623" y2="229.5313" style="stroke:#000000;stroke-width:1;"/><line x1="0" y1="232.5313" x2="1081.3623" y2="232.5313" style="stroke:#000000;stroke-width:1;"/><rect x="503.2573" y="211.5469" width="74.8477" height="37.9688" fill="#EEEEEE" style="stroke:#000000;stroke-width:2;"/><text x="517.2573" y="234.6855" fill="#000000" font-size="12" lengthAdjust="spacing" textLength="40.6699" font-weight="700" font-family="sans-serif">Dépôt</text><g class="message" data-entity-1="part1" data-entity-2="part2" id="msg1" data-source-line="20"><polygon points="321.7559,291.4844,331.7559,295.4844,321.7559,299.4844,325.7559,295.4844" fill="#181818" style="stroke:#181818;stroke-width:1;stroke-linejoin:miter;stroke-miterlimit:10;"/><line x1="48.7598" y1="295.4844" x2="327.7559" y2="295.4844" style="stroke:#181818;stroke-width:1;"/><text x="63.7598" y="282.6543" fill="#000000" font-size="12" lengthAdjust="spacing" textLength="209.8066" font-family="sans-serif">POST /deposit (accountId, amount)</text></g><g class="message" data-entity-1="part2" data-entity-2="part3" id="msg2" data-source-line="22"><polygon points="607.2539,335.4531,617.2539,339.4531,607.2539,343.4531,611.2539,339.4531" fill="#181818" style="stroke:#181818;stroke-width:1;stroke-linejoin:miter;stroke-miterlimit:10;"/><line x1="343.7559" y1="339.4531" x2="613.2539" y2="339.4531" style="stroke:#181818;stroke-width:1;"/><text x="358.7559" y="326.623" fill="#000000" font-size="12" lengthAdjust="spacing" textLength="200.3086" font-family="sans-serif">deposit(accountId, amount, user)</text></g><g class="message" data-entity-1="part3" data-entity-2="part5" id="msg3" data-source-line="24"><polygon points="1003.7539,379.4219,1013.7539,383.4219,1003.7539,387.4219,1007.7539,383.4219" fill="#181818" style="stroke:#181818;stroke-width:1;stroke-linejoin:miter;stroke-miterlimit:10;"/><line x1="629.2539" y1="383.4219" x2="1009.7539" y2="383.4219" style="stroke:#181818;stroke-width:1;"/><text x="644.2539" y="370.5918" fill="#000000" font-size="12" lengthAdjust="spacing" textLength="177.4922" font-family="sans-serif">SELECT account FOR UPDATE</text></g><g class="message" data-entity-1="part3" data-entity-2="part3" id="msg4" data-source-line="25"><line x1="629.2539" y1="427.3906" x2="671.2539" y2="427.3906" style="stroke:#181818;stroke-width:1;"/><line x1="671.2539" y1="427.3906" x2="671.2539" y2="440.3906" style="stroke:#181818;stroke-width:1;"/><line x1="630.2539" y1="440.3906" x2="671.2539" y2="440.3906" style="stroke:#181818;stroke-width:1;"/><polygon points="640.2539,436.3906,630.2539,440.3906,640.2539,444.3906,636.2539,440.3906" fill="#181818" style="stroke:#181818;stroke-width:1;stroke-linejoin:miter;stroke-miterlimit:10;"/><text x="644.2539" y="414.5605" fill="#000000" font-size="12" lengthAdjust="spacing" textLength="138.8379" font-family="sans-serif">vérifier compte ACTIVE</text></g><path d="M10,455.3906 L88.9473,455.3906 L88.9473,477.3594 L78.9473,487.3594 L10,487.3594 L10,455.3906" style="stroke:#000000;stroke-width:1.5;" fill="#EEEEEE"/><rect x="10" y="455.3906" width="1061.3623" height="430.6563" fill="none" style="stroke:#000000;stroke-width:1.5;"/><text x="33" y="475.5293" fill="#000000" font-size="12" lengthAdjust="spacing" textLength="17.9473" font-weight="700" font-family="sans-serif">alt</text><text x="111.9473" y="476.5293" fill="#000000" font-size="12" lengthAdjust="spacing" textLength="97.4473" font-weight="700" font-family="sans-serif">[Compte actif]</text><g class="message" data-entity-1="part3" data-entity-2="part5" id="msg5" data-source-line="28"><polygon points="1003.7539,534.2969,1013.7539,538.2969,1003.7539,542.2969,1007.7539,538.2969" fill="#181818" style="stroke:#181818;stroke-width:1;stroke-linejoin:miter;stroke-miterlimit:10;"/><line x1="629.2539" y1="538.2969" x2="1009.7539" y2="538.2969" style="stroke:#181818;stroke-width:1;"/><text x="644.2539" y="525.4668" fill="#000000" font-size="12" lengthAdjust="spacing" textLength="172.7871" font-family="sans-serif">UPDATE balance (+ amount)</text></g><g class="message" data-entity-1="part3" data-entity-2="part5" id="msg6" data-source-line="29"><polygon points="1003.7539,578.2656,1013.7539,582.2656,1003.7539,586.2656,1007.7539,582.2656" fill="#181818" style="stroke:#181818;stroke-width:1;stroke-linejoin:miter;stroke-miterlimit:10;"/><line x1="629.2539" y1="582.2656" x2="1009.7539" y2="582.2656" style="stroke:#181818;stroke-width:1;"/><text x="644.2539" y="569.4355" fill="#000000" font-size="12" lengthAdjust="spacing" textLength="168.9961" font-family="sans-serif">INSERT transaction (DEPOT)</text></g><g class="message" data-entity-1="part3" data-entity-2="part4" id="msg7" data-source-line="30"><polygon points="861.6484,622.2344,871.6484,626.2344,861.6484,630.2344,865.6484,626.2344" fill="#181818" style="stroke:#181818;stroke-width:1;stroke-linejoin:miter;stroke-miterlimit:10;"/><line x1="629.2539" y1="626.2344" x2="867.6484" y2="626.2344" style="stroke:#181818;stroke-width:1;"/><text x="644.2539" y="613.4043" fill="#000000" font-size="12" lengthAdjust="spacing" textLength="79.6465" font-family="sans-serif">log(DEPOSIT)</text></g><g class="message" data-entity-1="part4" data-entity-2="part5" id="msg8" data-source-line="31"><polygon points="1003.7539,666.2031,1013.7539,670.2031,1003.7539,674.2031,1007.7539,670.2031" fill="#181818" style="stroke:#181818;stroke-width:1;stroke-linejoin:miter;stroke-miterlimit:10;"/><line x1="873.6484" y1="670.2031" x2="1009.7539" y2="670.2031" style="stroke:#181818;stroke-width:1;"/><text x="888.6484" y="657.373" fill="#000000" font-size="12" lengthAdjust="spacing" textLength="102.1055" font-family="sans-serif">INSERT audit_log</text></g><g class="message" data-entity-1="part3" data-entity-2="part2" id="msg9" data-source-line="32"><polygon points="354.7559,710.1719,344.7559,714.1719,354.7559,718.1719,350.7559,714.1719" fill="#181818" style="stroke:#181818;stroke-width:1;stroke-linejoin:miter;stroke-miterlimit:10;"/><line x1="348.7559" y1="714.1719" x2="618.2539" y2="714.1719" style="stroke:#181818;stroke-width:1;stroke-dasharray:2,2;"/><text x="368.7559" y="701.3418" fill="#000000" font-size="12" lengthAdjust="spacing" textLength="17.3145" font-family="sans-serif">OK</text></g><g class="message" data-entity-1="part2" data-entity-2="part1" id="msg10" data-source-line="33"><polygon points="59.7598,754.1406,49.7598,758.1406,59.7598,762.1406,55.7598,758.1406" fill="#181818" style="stroke:#181818;stroke-width:1;stroke-linejoin:miter;stroke-miterlimit:10;"/><line x1="53.7598" y1="758.1406" x2="332.7559" y2="758.1406" style="stroke:#181818;stroke-width:1;stroke-dasharray:2,2;"/><text x="73.7598" y="745.3105" fill="#000000" font-size="12" lengthAdjust="spacing" textLength="147.4746" font-family="sans-serif">Succès + nouveau solde</text></g><line x1="10" y1="767.1406" x2="1071.3623" y2="767.1406" style="stroke:#000000;stroke-width:1;stroke-dasharray:2,2;"/><text x="23" y="786.2793" fill="#000000" font-size="12" lengthAdjust="spacing" textLength="186.334" font-weight="700" font-family="sans-serif">[Compte bloqué ou clôturé]</text><g class="message" data-entity-1="part3" data-entity-2="part2" id="msg11" data-source-line="35"><polygon points="354.7559,830.0781,344.7559,834.0781,354.7559,838.0781,350.7559,834.0781" fill="#181818" style="stroke:#181818;stroke-width:1;stroke-linejoin:miter;stroke-miterlimit:10;"/><line x1="348.7559" y1="834.0781" x2="618.2539" y2="834.0781" style="stroke:#181818;stroke-width:1;stroke-dasharray:2,2;"/><text x="368.7559" y="821.248" fill="#000000" font-size="12" lengthAdjust="spacing" textLength="80.6133" font-family="sans-serif">Erreur métier</text></g><g class="message" data-entity-1="part2" data-entity-2="part1" id="msg12" data-source-line="36"><polygon points="59.7598,874.0469,49.7598,878.0469,59.7598,882.0469,55.7598,878.0469" fill="#181818" style="stroke:#181818;stroke-width:1;stroke-linejoin:miter;stroke-miterlimit:10;"/><line x1="53.7598" y1="878.0469" x2="332.7559" y2="878.0469" style="stroke:#181818;stroke-width:1;stroke-dasharray:2,2;"/><text x="73.7598" y="865.2168" fill="#000000" font-size="12" lengthAdjust="spacing" textLength="104.4961" font-family="sans-serif">Message d'erreur</text></g><rect x="0" y="921.0313" width="1081.3623" height="3" fill="#EEEEEE" style="stroke:#EEEEEE;stroke-width:1;"/><line x1="0" y1="921.0313" x2="1081.3623" y2="921.0313" style="stroke:#000000;stroke-width:1;"/><line x1="0" y1="924.0313" x2="1081.3623" y2="924.0313" style="stroke:#000000;stroke-width:1;"/><rect x="500.1021" y="903.0469" width="81.1582" height="37.9688" fill="#EEEEEE" style="stroke:#000000;stroke-width:2;"/><text x="514.1021" y="926.1855" fill="#000000" font-size="12" lengthAdjust="spacing" textLength="46.9805" font-weight="700" font-family="sans-serif">Retrait</text><g class="message" data-entity-1="part1" data-entity-2="part2" id="msg13" data-source-line="43"><polygon points="321.7559,982.9844,331.7559,986.9844,321.7559,990.9844,325.7559,986.9844" fill="#181818" style="stroke:#181818;stroke-width:1;stroke-linejoin:miter;stroke-miterlimit:10;"/><line x1="48.7598" y1="986.9844" x2="327.7559" y2="986.9844" style="stroke:#181818;stroke-width:1;"/><text x="63.7598" y="974.1543" fill="#000000" font-size="12" lengthAdjust="spacing" textLength="220.7344" font-family="sans-serif">POST /withdraw (accountId, amount)</text></g><g class="message" data-entity-1="part2" data-entity-2="part3" id="msg14" data-source-line="45"><polygon points="607.2539,1026.9531,617.2539,1030.9531,607.2539,1034.9531,611.2539,1030.9531" fill="#181818" style="stroke:#181818;stroke-width:1;stroke-linejoin:miter;stroke-miterlimit:10;"/><line x1="343.7559" y1="1030.9531" x2="613.2539" y2="1030.9531" style="stroke:#181818;stroke-width:1;"/><text x="358.7559" y="1018.123" fill="#000000" font-size="12" lengthAdjust="spacing" textLength="211.2363" font-family="sans-serif">withdraw(accountId, amount, user)</text></g><g class="message" data-entity-1="part3" data-entity-2="part5" id="msg15" data-source-line="47"><polygon points="1003.7539,1070.9219,1013.7539,1074.9219,1003.7539,1078.9219,1007.7539,1074.9219" fill="#181818" style="stroke:#181818;stroke-width:1;stroke-linejoin:miter;stroke-miterlimit:10;"/><line x1="629.2539" y1="1074.9219" x2="1009.7539" y2="1074.9219" style="stroke:#181818;stroke-width:1;"/><text x="644.2539" y="1062.0918" fill="#000000" font-size="12" lengthAdjust="spacing" textLength="177.4922" font-family="sans-serif">SELECT account FOR UPDATE</text></g><g class="message" data-entity-1="part3" data-entity-2="part3" id="msg16" data-source-line="48"><line x1="629.2539" y1="1118.8906" x2="671.2539" y2="1118.8906" style="stroke:#181818;stroke-width:1;"/><line x1="671.2539" y1="1118.8906" x2="671.2539" y2="1131.8906" style="stroke:#181818;stroke-width:1;"/><line x1="630.2539" y1="1131.8906" x2="671.2539" y2="1131.8906" style="stroke:#181818;stroke-width:1;"/><polygon points="640.2539,1127.8906,630.2539,1131.8906,640.2539,1135.8906,636.2539,1131.8906" fill="#181818" style="stroke:#181818;stroke-width:1;stroke-linejoin:miter;stroke-miterlimit:10;"/><text x="644.2539" y="1106.0605" fill="#000000" font-size="12" lengthAdjust="spacing" textLength="138.8379" font-family="sans-serif">vérifier compte ACTIVE</text></g><g class="message" data-entity-1="part3" data-entity-2="part3" id="msg17" data-source-line="49"><line x1="629.2539" y1="1175.8594" x2="671.2539" y2="1175.8594" style="stroke:#181818;stroke-width:1;"/><line x1="671.2539" y1="1175.8594" x2="671.2539" y2="1188.8594" style="stroke:#181818;stroke-width:1;"/><line x1="630.2539" y1="1188.8594" x2="671.2539" y2="1188.8594" style="stroke:#181818;stroke-width:1;"/><polygon points="640.2539,1184.8594,630.2539,1188.8594,640.2539,1192.8594,636.2539,1188.8594" fill="#181818" style="stroke:#181818;stroke-width:1;stroke-linejoin:miter;stroke-miterlimit:10;"/><text x="644.2539" y="1163.0293" fill="#000000" font-size="12" lengthAdjust="spacing" textLength="167.7246" font-family="sans-serif">vérifier balance >= amount</text></g><path d="M10,1203.8594 L88.9473,1203.8594 L88.9473,1225.8281 L78.9473,1235.8281 L10,1235.8281 L10,1203.8594" style="stroke:#000000;stroke-width:1.5;" fill="#EEEEEE"/><rect x="10" y="1203.8594" width="1061.3623" height="430.6563" fill="none" style="stroke:#000000;stroke-width:1.5;"/><text x="33" y="1223.998" fill="#000000" font-size="12" lengthAdjust="spacing" textLength="17.9473" font-weight="700" font-family="sans-serif">alt</text><text x="111.9473" y="1224.998" fill="#000000" font-size="12" lengthAdjust="spacing" textLength="219.6504" font-weight="700" font-family="sans-serif">[Solde suffisant et compte actif]</text><g class="message" data-entity-1="part3" data-entity-2="part5" id="msg18" data-source-line="52"><polygon points="1003.7539,1282.7656,1013.7539,1286.7656,1003.7539,1290.7656,1007.7539,1286.7656" fill="#181818" style="stroke:#181818;stroke-width:1;stroke-linejoin:miter;stroke-miterlimit:10;"/><line x1="629.2539" y1="1286.7656" x2="1009.7539" y2="1286.7656" style="stroke:#181818;stroke-width:1;"/><text x="644.2539" y="1273.9355" fill="#000000" font-size="12" lengthAdjust="spacing" textLength="167.0625" font-family="sans-serif">UPDATE balance (- amount)</text></g><g class="message" data-entity-1="part3" data-entity-2="part5" id="msg19" data-source-line="53"><polygon points="1003.7539,1326.7344,1013.7539,1330.7344,1003.7539,1334.7344,1007.7539,1330.7344" fill="#181818" style="stroke:#181818;stroke-width:1;stroke-linejoin:miter;stroke-miterlimit:10;"/><line x1="629.2539" y1="1330.7344" x2="1009.7539" y2="1330.7344" style="stroke:#181818;stroke-width:1;"/><text x="644.2539" y="1317.9043" fill="#000000" font-size="12" lengthAdjust="spacing" textLength="178.8281" font-family="sans-serif">INSERT transaction (RETRAIT)</text></g><g class="message" data-entity-1="part3" data-entity-2="part4" id="msg20" data-source-line="54"><polygon points="861.6484,1370.7031,871.6484,1374.7031,861.6484,1378.7031,865.6484,1374.7031" fill="#181818" style="stroke:#181818;stroke-width:1;stroke-linejoin:miter;stroke-miterlimit:10;"/><line x1="629.2539" y1="1374.7031" x2="867.6484" y2="1374.7031" style="stroke:#181818;stroke-width:1;"/><text x="644.2539" y="1361.873" fill="#000000" font-size="12" lengthAdjust="spacing" textLength="97.0664" font-family="sans-serif">log(WITHDRAW)</text></g><g class="message" data-entity-1="part4" data-entity-2="part5" id="msg21" data-source-line="55"><polygon points="1003.7539,1414.6719,1013.7539,1418.6719,1003.7539,1422.6719,1007.7539,1418.6719" fill="#181818" style="stroke:#181818;stroke-width:1;stroke-linejoin:miter;stroke-miterlimit:10;"/><line x1="873.6484" y1="1418.6719" x2="1009.7539" y2="1418.6719" style="stroke:#181818;stroke-width:1;"/><text x="888.6484" y="1405.8418" fill="#000000" font-size="12" lengthAdjust="spacing" textLength="102.1055" font-family="sans-serif">INSERT audit_log</text></g><g class="message" data-entity-1="part3" data-entity-2="part2" id="msg22" data-source-line="56"><polygon points="354.7559,1458.6406,344.7559,1462.6406,354.7559,1466.6406,350.7559,1462.6406" fill="#181818" style="stroke:#181818;stroke-width:1;stroke-linejoin:miter;stroke-miterlimit:10;"/><line x1="348.7559" y1="1462.6406" x2="618.2539" y2="1462.6406" style="stroke:#181818;stroke-width:1;stroke-dasharray:2,2;"/><text x="368.7559" y="1449.8105" fill="#000000" font-size="12" lengthAdjust="spacing" textLength="17.3145" font-family="sans-serif">OK</text></g><g class="message" data-entity-1="part2" data-entity-2="part1" id="msg23" data-source-line="57"><polygon points="59.7598,1502.6094,49.7598,1506.6094,59.7598,1510.6094,55.7598,1506.6094" fill="#181818" style="stroke:#181818;stroke-width:1;stroke-linejoin:miter;stroke-miterlimit:10;"/><line x1="53.7598" y1="1506.6094" x2="332.7559" y2="1506.6094" style="stroke:#181818;stroke-width:1;stroke-dasharray:2,2;"/><text x="73.7598" y="1493.7793" fill="#000000" font-size="12" lengthAdjust="spacing" textLength="147.4746" font-family="sans-serif">Succès + nouveau solde</text></g><line x1="10" y1="1515.6094" x2="1071.3623" y2="1515.6094" style="stroke:#000000;stroke-width:1;stroke-dasharray:2,2;"/><text x="23" y="1534.748" fill="#000000" font-size="12" lengthAdjust="spacing" textLength="247.875" font-weight="700" font-family="sans-serif">[Solde insuffisant ou compte inactif]</text><g class="message" data-entity-1="part3" data-entity-2="part2" id="msg24" data-source-line="59"><polygon points="354.7559,1578.5469,344.7559,1582.5469,354.7559,1586.5469,350.7559,1582.5469" fill="#181818" style="stroke:#181818;stroke-width:1;stroke-linejoin:miter;stroke-miterlimit:10;"/><line x1="348.7559" y1="1582.5469" x2="618.2539" y2="1582.5469" style="stroke:#181818;stroke-width:1;stroke-dasharray:2,2;"/><text x="368.7559" y="1569.7168" fill="#000000" font-size="12" lengthAdjust="spacing" textLength="80.6133" font-family="sans-serif">Erreur métier</text></g><g class="message" data-entity-1="part2" data-entity-2="part1" id="msg25" data-source-line="60"><polygon points="59.7598,1622.5156,49.7598,1626.5156,59.7598,1630.5156,55.7598,1626.5156" fill="#181818" style="stroke:#181818;stroke-width:1;stroke-linejoin:miter;stroke-miterlimit:10;"/><line x1="53.7598" y1="1626.5156" x2="332.7559" y2="1626.5156" style="stroke:#181818;stroke-width:1;stroke-dasharray:2,2;"/><text x="73.7598" y="1613.6855" fill="#000000" font-size="12" lengthAdjust="spacing" textLength="104.4961" font-family="sans-serif">Message d'erreur</text></g><rect x="0" y="1669.5" width="1081.3623" height="3" fill="#EEEEEE" style="stroke:#EEEEEE;stroke-width:1;"/><line x1="0" y1="1669.5" x2="1081.3623" y2="1669.5" style="stroke:#000000;stroke-width:1;"/><line x1="0" y1="1672.5" x2="1081.3623" y2="1672.5" style="stroke:#000000;stroke-width:1;"/><rect x="492.4028" y="1651.5156" width="96.5566" height="37.9688" fill="#EEEEEE" style="stroke:#000000;stroke-width:2;"/><text x="506.4028" y="1674.6543" fill="#000000" font-size="12" lengthAdjust="spacing" textLength="62.3789" font-weight="700" font-family="sans-serif">Virement</text><g class="message" data-entity-1="part1" data-entity-2="part2" id="msg26" data-source-line="67"><polygon points="321.7559,1731.4531,331.7559,1735.4531,321.7559,1739.4531,325.7559,1735.4531" fill="#181818" style="stroke:#181818;stroke-width:1;stroke-linejoin:miter;stroke-miterlimit:10;"/><line x1="48.7598" y1="1735.4531" x2="327.7559" y2="1735.4531" style="stroke:#181818;stroke-width:1;"/><text x="63.7598" y="1722.623" fill="#000000" font-size="12" lengthAdjust="spacing" textLength="249.9961" font-family="sans-serif">POST /transfer (sourceId, destId, amount)</text></g><g class="message" data-entity-1="part2" data-entity-2="part3" id="msg27" data-source-line="69"><polygon points="607.2539,1775.4219,617.2539,1779.4219,607.2539,1783.4219,611.2539,1779.4219" fill="#181818" style="stroke:#181818;stroke-width:1;stroke-linejoin:miter;stroke-miterlimit:10;"/><line x1="343.7559" y1="1779.4219" x2="613.2539" y2="1779.4219" style="stroke:#181818;stroke-width:1;"/><text x="358.7559" y="1766.5918" fill="#000000" font-size="12" lengthAdjust="spacing" textLength="240.498" font-family="sans-serif">transfer(sourceId, destId, amount, user)</text></g><g class="message" data-entity-1="part3" data-entity-2="part5" id="msg28" data-source-line="71"><polygon points="1003.7539,1819.3906,1013.7539,1823.3906,1003.7539,1827.3906,1007.7539,1823.3906" fill="#181818" style="stroke:#181818;stroke-width:1;stroke-linejoin:miter;stroke-miterlimit:10;"/><line x1="629.2539" y1="1823.3906" x2="1009.7539" y2="1823.3906" style="stroke:#181818;stroke-width:1;"/><text x="644.2539" y="1810.5605" fill="#000000" font-size="12" lengthAdjust="spacing" textLength="231.457" font-family="sans-serif">SELECT comptes source et destination</text></g><g class="message" data-entity-1="part3" data-entity-2="part3" id="msg29" data-source-line="72"><line x1="629.2539" y1="1867.3594" x2="671.2539" y2="1867.3594" style="stroke:#181818;stroke-width:1;"/><line x1="671.2539" y1="1867.3594" x2="671.2539" y2="1880.3594" style="stroke:#181818;stroke-width:1;"/><line x1="630.2539" y1="1880.3594" x2="671.2539" y2="1880.3594" style="stroke:#181818;stroke-width:1;"/><polygon points="640.2539,1876.3594,630.2539,1880.3594,640.2539,1884.3594,636.2539,1880.3594" fill="#181818" style="stroke:#181818;stroke-width:1;stroke-linejoin:miter;stroke-miterlimit:10;"/><text x="644.2539" y="1854.5293" fill="#000000" font-size="12" lengthAdjust="spacing" textLength="199.3945" font-family="sans-serif">vérifier les deux comptes ACTIVE</text></g><g class="message" data-entity-1="part3" data-entity-2="part3" id="msg30" data-source-line="73"><line x1="629.2539" y1="1924.3281" x2="671.2539" y2="1924.3281" style="stroke:#181818;stroke-width:1;"/><line x1="671.2539" y1="1924.3281" x2="671.2539" y2="1937.3281" style="stroke:#181818;stroke-width:1;"/><line x1="630.2539" y1="1937.3281" x2="671.2539" y2="1937.3281" style="stroke:#181818;stroke-width:1;"/><polygon points="640.2539,1933.3281,630.2539,1937.3281,640.2539,1941.3281,636.2539,1937.3281" fill="#181818" style="stroke:#181818;stroke-width:1;stroke-linejoin:miter;stroke-miterlimit:10;"/><text x="644.2539" y="1911.498" fill="#000000" font-size="12" lengthAdjust="spacing" textLength="196.3359" font-family="sans-serif">vérifier solde source >= amount</text></g><path d="M10,1952.3281 L88.9473,1952.3281 L88.9473,1974.2969 L78.9473,1984.2969 L10,1984.2969 L10,1952.3281" style="stroke:#000000;stroke-width:1.5;" fill="#EEEEEE"/><rect x="10" y="1952.3281" width="1061.3623" height="474.625" fill="none" style="stroke:#000000;stroke-width:1.5;"/><text x="33" y="1972.4668" fill="#000000" font-size="12" lengthAdjust="spacing" textLength="17.9473" font-weight="700" font-family="sans-serif">alt</text><text x="111.9473" y="1973.4668" fill="#000000" font-size="12" lengthAdjust="spacing" textLength="193.8691" font-weight="700" font-family="sans-serif">[Comptes actifs et solde OK]</text><g class="message" data-entity-1="part3" data-entity-2="part5" id="msg31" data-source-line="76"><polygon points="1003.7539,2031.2344,1013.7539,2035.2344,1003.7539,2039.2344,1007.7539,2035.2344" fill="#181818" style="stroke:#181818;stroke-width:1;stroke-linejoin:miter;stroke-miterlimit:10;"/><line x1="629.2539" y1="2035.2344" x2="1009.7539" y2="2035.2344" style="stroke:#181818;stroke-width:1;"/><text x="644.2539" y="2022.4043" fill="#000000" font-size="12" lengthAdjust="spacing" textLength="159.9316" font-family="sans-serif">UPDATE source (- amount)</text></g><g class="message" data-entity-1="part3" data-entity-2="part5" id="msg32" data-source-line="77"><polygon points="1003.7539,2075.2031,1013.7539,2079.2031,1003.7539,2083.2031,1007.7539,2079.2031" fill="#181818" style="stroke:#181818;stroke-width:1;stroke-linejoin:miter;stroke-miterlimit:10;"/><line x1="629.2539" y1="2079.2031" x2="1009.7539" y2="2079.2031" style="stroke:#181818;stroke-width:1;"/><text x="644.2539" y="2066.373" fill="#000000" font-size="12" lengthAdjust="spacing" textLength="192.7793" font-family="sans-serif">UPDATE destination (+ amount)</text></g><g class="message" data-entity-1="part3" data-entity-2="part5" id="msg33" data-source-line="78"><polygon points="1003.7539,2119.1719,1013.7539,2123.1719,1003.7539,2127.1719,1007.7539,2123.1719" fill="#181818" style="stroke:#181818;stroke-width:1;stroke-linejoin:miter;stroke-miterlimit:10;"/><line x1="629.2539" y1="2123.1719" x2="1009.7539" y2="2123.1719" style="stroke:#181818;stroke-width:1;"/><text x="644.2539" y="2110.3418" fill="#000000" font-size="12" lengthAdjust="spacing" textLength="190.0723" font-family="sans-serif">INSERT transaction (VIREMENT)</text></g><g class="message" data-entity-1="part3" data-entity-2="part4" id="msg34" data-source-line="79"><polygon points="861.6484,2163.1406,871.6484,2167.1406,861.6484,2171.1406,865.6484,2167.1406" fill="#181818" style="stroke:#181818;stroke-width:1;stroke-linejoin:miter;stroke-miterlimit:10;"/><line x1="629.2539" y1="2167.1406" x2="867.6484" y2="2167.1406" style="stroke:#181818;stroke-width:1;"/><text x="644.2539" y="2154.3105" fill="#000000" font-size="12" lengthAdjust="spacing" textLength="90.9492" font-family="sans-serif">log(TRANSFER)</text></g><g class="message" data-entity-1="part4" data-entity-2="part5" id="msg35" data-source-line="80"><polygon points="1003.7539,2207.1094,1013.7539,2211.1094,1003.7539,2215.1094,1007.7539,2211.1094" fill="#181818" style="stroke:#181818;stroke-width:1;stroke-linejoin:miter;stroke-miterlimit:10;"/><line x1="873.6484" y1="2211.1094" x2="1009.7539" y2="2211.1094" style="stroke:#181818;stroke-width:1;"/><text x="888.6484" y="2198.2793" fill="#000000" font-size="12" lengthAdjust="spacing" textLength="102.1055" font-family="sans-serif">INSERT audit_log</text></g><g class="message" data-entity-1="part3" data-entity-2="part2" id="msg36" data-source-line="81"><polygon points="354.7559,2251.0781,344.7559,2255.0781,354.7559,2259.0781,350.7559,2255.0781" fill="#181818" style="stroke:#181818;stroke-width:1;stroke-linejoin:miter;stroke-miterlimit:10;"/><line x1="348.7559" y1="2255.0781" x2="618.2539" y2="2255.0781" style="stroke:#181818;stroke-width:1;stroke-dasharray:2,2;"/><text x="368.7559" y="2242.248" fill="#000000" font-size="12" lengthAdjust="spacing" textLength="17.3145" font-family="sans-serif">OK</text></g><g class="message" data-entity-1="part2" data-entity-2="part1" id="msg37" data-source-line="82"><polygon points="59.7598,2295.0469,49.7598,2299.0469,59.7598,2303.0469,55.7598,2299.0469" fill="#181818" style="stroke:#181818;stroke-width:1;stroke-linejoin:miter;stroke-miterlimit:10;"/><line x1="53.7598" y1="2299.0469" x2="332.7559" y2="2299.0469" style="stroke:#181818;stroke-width:1;stroke-dasharray:2,2;"/><text x="73.7598" y="2286.2168" fill="#000000" font-size="12" lengthAdjust="spacing" textLength="42.0527" font-family="sans-serif">Succès</text></g><line x1="10" y1="2308.0469" x2="1071.3623" y2="2308.0469" style="stroke:#000000;stroke-width:1;stroke-dasharray:2,2;"/><text x="23" y="2327.1855" fill="#000000" font-size="12" lengthAdjust="spacing" textLength="248.0684" font-weight="700" font-family="sans-serif">[Compte inactif ou solde insuffisant]</text><g class="message" data-entity-1="part3" data-entity-2="part2" id="msg38" data-source-line="84"><polygon points="354.7559,2370.9844,344.7559,2374.9844,354.7559,2378.9844,350.7559,2374.9844" fill="#181818" style="stroke:#181818;stroke-width:1;stroke-linejoin:miter;stroke-miterlimit:10;"/><line x1="348.7559" y1="2374.9844" x2="618.2539" y2="2374.9844" style="stroke:#181818;stroke-width:1;stroke-dasharray:2,2;"/><text x="368.7559" y="2362.1543" fill="#000000" font-size="12" lengthAdjust="spacing" textLength="80.6133" font-family="sans-serif">Erreur métier</text></g><g class="message" data-entity-1="part2" data-entity-2="part1" id="msg39" data-source-line="85"><polygon points="59.7598,2414.9531,49.7598,2418.9531,59.7598,2422.9531,55.7598,2418.9531" fill="#181818" style="stroke:#181818;stroke-width:1;stroke-linejoin:miter;stroke-miterlimit:10;"/><line x1="53.7598" y1="2418.9531" x2="332.7559" y2="2418.9531" style="stroke:#181818;stroke-width:1;stroke-dasharray:2,2;"/><text x="73.7598" y="2406.123" fill="#000000" font-size="12" lengthAdjust="spacing" textLength="104.4961" font-family="sans-serif">Message d'erreur</text></g><path d="M482,2438.9531 L482,2505.9531 L766,2505.9531 L766,2448.9531 L756,2438.9531 L482,2438.9531" style="stroke:#181818;stroke-width:0.5;" fill="#FEFFDD"/><path d="M756,2438.9531 L756,2448.9531 L766,2448.9531 L756,2438.9531" style="stroke:#181818;stroke-width:0.5;" fill="#FEFFDD"/><text x="496" y="2463.0918" fill="#000000" font-size="12" lengthAdjust="spacing" textLength="202.6289" font-family="sans-serif">Chaque transaction : date, heure,</text><text x="496" y="2477.0605" fill="#000000" font-size="12" lengthAdjust="spacing" textLength="196.0664" font-family="sans-serif">montant, utilisateur responsable</text><text x="496" y="2491.0293" fill="#000000" font-size="12" lengthAdjust="spacing" textLength="247.2422" font-family="sans-serif">Opérations importantes → journal d'audit</text><?plantuml-src lPRFRjD04CRlVefHBmGr5L0k22cL7CSL4MqJRBSzeeqzIHUSNNTtdLISEF40Y8SWTzx0Rz8dOTPsKYTDH90efzQUxvkTFp_RqP-vo9XYKz0tB95pBYOmPgb6HwyY2dKcXSPpr9fDi8kfdBjAoJaObJU52OvPdffJAKp8lo2yEcu4IyVsq90fmsEUCM66B4bi3QzVRe-VCpNX0ewRuQwyMzesqbOttpYEuIP528l5ROuYHhZ_-WDwnI8hVfaszMSKumRGm8mhdA8mZiDY8nMu4tkHFPmF1v5YGbEKI-5HDqgcAQe3O1gydS8GrOp7MAh2TPMR9zmqu-vbpqcOOIEc4Gw6Kfk9ml33MHdiTHsdqrcM3fsEuvGbmj49UF0MXeCmWXS9Pb9JGoqMnp8Nff-qWKtjVyzjNtp635ArddM5vAhrZ-Ljo3MgXYbqGclgTSaL-cU-5q5jWjD109V3dXlvbSOcdXKBnSSS5SHocf7VzQB-bK_JJGrurIsRU-m0F2Ikii28fSpkgdMuAhwfwb-4VX0HWgifGwld3mVHIaQJ95qg9-Nzi5z6xCsD5Coku2FfAcCzoi5xklJAosh4r74UnyLF3OSWP3v3beEMQO8EqlEoR6UKojkyM83C8KvfHxag5cjvVQKmLp0j5eO6y-YC-Y63v1cMGWT5uYJOs43ZmYjf26f-Tz0mv-OcKMo-DmvBm__ZOOjWkVsJJdrs1Kre1muw7u-vjiyFFRFnlXmTxSrHu4U1szz6qdK_UjSBtEidHQbgaek7DYrDLPjSD1fzCgIkwlVWBgRAQOrfJIqjSnMZHIH1_KUqbhwTjdq8goQXeSfX4R0vQ31sUTjOIacSO7wtSkx6JbTyLPatsFDgTxa0RS-jrELw7s5NvzX1NIrg5FutxxchVk2V-nVR02LmBy9JF_X7WAwzsshsB8rw4z6d1598-Yjdj9xGvhfXz1LV6mXzmaZQXXjAXctIJEdBp4gQ34-fFcFBgN_7i56A91bajFHoyXhuD9FA6cYxzz--moVQdM0f5LZEozO7jeZV?></g></svg>