<svg xmlns="http://www.w3.org/2000/svg" xmlns:xlink="http://www.w3.org/1999/xlink" version="1.1" data-diagram-type="SEQUENCE" style="width:1185px;height:1110px;background:#FFFFFF;" width="1185px" height="1110px" viewBox="0 0 1185 1110" zoomAndPan="magnify" preserveAspectRatio="none" contentStyleType="text/css"><?plantuml 1.2026.7beta3?><defs/><g><g class="title" data-source-line="4"><text x="437.7961" y="27.9951" fill="#000000" font-size="14" lengthAdjust="spacing" textLength="303.0234" font-weight="700" font-family="sans-serif">Séquence — Historique, relevé et reçu</text></g><g><title>TransactionController</title><rect x="382.9717" y="192.8594" width="10" height="175.9297" fill="#FFFFFF" style="stroke:#181818;stroke-width:1;"/></g><g><title>TransactionController</title><rect x="382.9717" y="658.9844" width="10" height="359.5938" fill="#FFFFFF" style="stroke:#181818;stroke-width:1;"/></g><g><title>AccountController</title><rect x="545.6045" y="441.0547" width="10" height="145.6641" fill="#FFFFFF" style="stroke:#181818;stroke-width:1;"/></g><g><title>TransactionService</title><rect x="788.0571" y="221.9922" width="10" height="117.6641" fill="#FFFFFF" style="stroke:#181818;stroke-width:1;"/></g><g><title>TransactionService</title><rect x="788.0571" y="470.1875" width="10" height="87.3984" fill="#FFFFFF" style="stroke:#181818;stroke-width:1;"/></g><g><title>TransactionService</title><rect x="788.0571" y="688.1172" width="10" height="87.3984" fill="#FFFFFF" style="stroke:#181818;stroke-width:1;"/></g><g><title>TransactionService</title><rect x="788.0571" y="887.0469" width="10" height="87.3984" fill="#FFFFFF" style="stroke:#181818;stroke-width:1;"/></g><rect x="10" y="819.6484" width="1159.6157" height="191.9297" fill="none" style="stroke:#000000;stroke-width:1.5;"/><g class="participant-lifeline" data-qualified-name="Agent" data-entity-uid="part1" id="part1-lifeline" data-source-line="6"><g><title>Agent</title><rect x="39.7197" y="118.5938" width="8" height="909.9844" fill="#000000" fill-opacity="0.00000"/><line x1="43" y1="118.5938" x2="43" y2="1028.5781" style="stroke:#181818;stroke-width:0.5;stroke-dasharray:5,5;"/></g></g><g class="participant-lifeline" data-qualified-name="TC" data-entity-uid="part2" id="part2-lifeline" data-source-line="7"><g><title>TransactionController</title><rect x="383.9717" y="118.5938" width="8" height="909.9844" fill="#000000" fill-opacity="0.00000"/><line x1="387.3115" y1="118.5938" x2="387.3115" y2="1028.5781" style="stroke:#181818;stroke-width:0.5;stroke-dasharray:5,5;"/></g></g><g class="participant-lifeline" data-qualified-name="AC" data-entity-uid="part3" id="part3-lifeline" data-source-line="8"><g><title>AccountController</title><rect x="546.6045" y="118.5938" width="8" height="909.9844" fill="#000000" fill-opacity="0.00000"/><line x1="549.6318" y1="118.5938" x2="549.6318" y2="1028.5781" style="stroke:#181818;stroke-width:0.5;stroke-dasharray:5,5;"/></g></g><g class="participant-lifeline" data-qualified-name="TS" data-entity-uid="part4" id="part4-lifeline" data-source-line="9"><g><title>TransactionService</title><rect x="789.0571" y="118.5938" width="8" height="909.9844" fill="#000000" fill-opacity="0.00000"/><line x1="792.1128" y1="118.5938" x2="792.1128" y2="1028.5781" style="stroke:#181818;stroke-width:0.5;stroke-dasharray:5,5;"/></g></g><g class="participant-lifeline" data-qualified-name="DB" data-entity-uid="part5" id="part5-lifeline" data-source-line="10"><g><title>PostgreSQL</title><rect x="1112.2393" y="118.5938" width="8" height="909.9844" fill="#000000" fill-opacity="0.00000"/><line x1="1115.8628" y1="118.5938" x2="1115.8628" y2="1028.5781" style="stroke:#181818;stroke-width:0.5;stroke-dasharray:5,5;"/></g></g><g class="participant participant-head" data-qualified-name="Agent" data-entity-uid="part1" id="part1-head" data-source-line="6"><text x="20" y="115.292" fill="#000000" font-size="14" lengthAdjust="spacing" textLength="41.4395" font-family="sans-serif">Agent</text><ellipse cx="43.7197" cy="50.7969" rx="8" ry="8" fill="#E2E2F0" style="stroke:#181818;stroke-width:0.5;"/><path d="M43.7197,58.7969 L43.7197,85.7969 M30.7197,66.7969 L56.7197,66.7969 M43.7197,85.7969 L30.7197,100.7969 M43.7197,85.7969 L56.7197,100.7969" style="stroke:#181818;stroke-width:0.5;" fill="none"/></g><g class="participant participant-tail" data-qualified-name="Agent" data-entity-uid="part1" id="part1-tail" data-source-line="6"><text x="20" y="1040.5732" fill="#000000" font-size="14" lengthAdjust="spacing" textLength="41.4395" font-family="sans-serif">Agent</text><ellipse cx="43.7197" cy="1052.375" rx="8" ry="8" fill="#E2E2F0" style="stroke:#181818;stroke-width:0.5;"/><path d="M43.7197,1060.375 L43.7197,1087.375 M30.7197,1068.375 L56.7197,1068.375 M43.7197,1087.375 L30.7197,1102.375 M43.7197,1087.375 L56.7197,1102.375" style="stroke:#181818;stroke-width:0.5;" fill="none"/></g><g class="participant participant-head" data-qualified-name="TC" data-entity-uid="part2" id="part2-head" data-source-line="7"><rect x="305.3115" y="87.2969" width="165.3203" height="30.2969" fill="#E2E2F0" style="stroke:#181818;stroke-width:0.5;" rx="2.5" ry="2.5"/><text x="312.3115" y="107.292" fill="#000000" font-size="14" lengthAdjust="spacing" textLength="151.3203" font-family="sans-serif">TransactionController</text></g><g class="participant participant-tail" data-qualified-name="TC" data-entity-uid="part2" id="part2-tail" data-source-line="7"><rect x="305.3115" y="1027.5781" width="165.3203" height="30.2969" fill="#E2E2F0" style="stroke:#181818;stroke-width:0.5;" rx="2.5" ry="2.5"/><text x="312.3115" y="1047.5732" fill="#000000" font-size="14" lengthAdjust="spacing" textLength="151.3203" font-family="sans-serif">TransactionController</text></g><g class="participant participant-head" data-qualified-name="AC" data-entity-uid="part3" id="part3-head" data-source-line="8"><rect x="480.6318" y="87.2969" width="139.9453" height="30.2969" fill="#E2E2F0" style="stroke:#181818;stroke-width:0.5;" rx="2.5" ry="2.5"/><text x="487.6318" y="107.292" fill="#000000" font-size="14" lengthAdjust="spacing" textLength="125.9453" font-family="sans-serif">AccountController</text></g><g class="participant participant-tail" data-qualified-name="AC" data-entity-uid="part3" id="part3-tail" data-source-line="8"><rect x="480.6318" y="1027.5781" width="139.9453" height="30.2969" fill="#E2E2F0" style="stroke:#181818;stroke-width:0.5;" rx="2.5" ry="2.5"/><text x="487.6318" y="1047.5732" fill="#000000" font-size="14" lengthAdjust="spacing" textLength="125.9453" font-family="sans-serif">AccountController</text></g><g class="participant participant-head" data-qualified-name="TS" data-entity-uid="part4" id="part4-head" data-source-line="9"><rect x="719.1128" y="87.2969" width="147.8887" height="30.2969" fill="#E2E2F0" style="stroke:#181818;stroke-width:0.5;" rx="2.5" ry="2.5"/><text x="726.1128" y="107.292" fill="#000000" font-size="14" lengthAdjust="spacing" textLength="133.8887" font-family="sans-serif">TransactionService</text></g><g class="participant participant-tail" data-qualified-name="TS" data-entity-uid="part4" id="part4-tail" data-source-line="9"><rect x="719.1128" y="1027.5781" width="147.8887" height="30.2969" fill="#E2E2F0" style="stroke:#181818;stroke-width:0.5;" rx="2.5" ry="2.5"/><text x="726.1128" y="1047.5732" fill="#000000" font-size="14" lengthAdjust="spacing" textLength="133.8887" font-family="sans-serif">TransactionService</text></g><g class="participant participant-head" data-qualified-name="DB" data-entity-uid="part5" id="part5-head" data-source-line="10"><text x="1072.8628" y="115.292" fill="#000000" font-size="14" lengthAdjust="spacing" textLength="80.7529" font-family="sans-serif">PostgreSQL</text><path d="M1098.2393,66.2969 C1098.2393,56.2969 1116.2393,56.2969 1116.2393,56.2969 C1116.2393,56.2969 1134.2393,56.2969 1134.2393,66.2969 L1134.2393,92.2969 C1134.2393,102.2969 1116.2393,102.2969 1116.2393,102.2969 C1116.2393,102.2969 1098.2393,102.2969 1098.2393,92.2969 L1098.2393,66.2969" style="stroke:#181818;stroke-width:0.5;" fill="#E2E2F0"/><path d="M1098.2393,66.2969 C1098.2393,76.2969 1116.2393,76.2969 1116.2393,76.2969 C1116.2393,76.2969 1134.2393,76.2969 1134.2393,66.2969" style="stroke:#181818;stroke-width:0.5;" fill="none"/></g><g class="participant participant-tail" data-qualified-name="DB" data-entity-uid="part5" id="part5-tail" data-source-line="10"><text x="1072.8628" y="1040.5732" fill="#000000" font-size="14" lengthAdjust="spacing" textLength="80.7529" font-family="sans-serif">PostgreSQL</text><path d="M1098.2393,1053.875 C1098.2393,1043.875 1116.2393,1043.875 1116.2393,1043.875 C1116.2393,1043.875 1134.2393,1043.875 1134.2393,1053.875 L1134.2393,1079.875 C1134.2393,1089.875 1116.2393,1089.875 1116.2393,1089.875 C1116.2393,1089.875 1098.2393,1089.875 1098.2393,1079.875 L1098.2393,1053.875" style="stroke:#181818;stroke-width:0.5;" fill="#E2E2F0"/><path d="M1098.2393,1053.875 C1098.2393,1063.875 1116.2393,1063.875 1116.2393,1063.875 C1116.2393,1063.875 1134.2393,1063.875 1134.2393,1053.875" style="stroke:#181818;stroke-width:0.5;" fill="none"/></g><g><title>TransactionController</title><rect x="382.9717" y="192.8594" width="10" height="175.9297" fill="#FFFFFF" style="stroke:#181818;stroke-width:1;"/></g><g><title>TransactionController</title><rect x="382.9717" y="658.9844" width="10" height="359.5938" fill="#FFFFFF" style="stroke:#181818;stroke-width:1;"/></g><g><title>AccountController</title><rect x="545.6045" y="441.0547" width="10" height="145.6641" fill="#FFFFFF" style="stroke:#181818;stroke-width:1;"/></g><g><title>TransactionService</title><rect x="788.0571" y="221.9922" width="10" height="117.6641" fill="#FFFFFF" style="stroke:#181818;stroke-width:1;"/></g><g><title>TransactionService</title><rect x="788.0571" y="470.1875" width="10" height="87.3984" fill="#FFFFFF" style="stroke:#181818;stroke-width:1;"/></g><g><title>TransactionService</title><rect x="788.0571" y="688.1172" width="10" height="87.3984" fill="#FFFFFF" style="stroke:#181818;stroke-width:1;"/></g><g><title>TransactionService</title><rect x="788.0571" y="887.0469" width="10" height="87.3984" fill="#FFFFFF" style="stroke:#181818;stroke-width:1;"/></g><rect x="0" y="149.1602" width="1179.6157" height="3" fill="#EEEEEE" style="stroke:#EEEEEE;stroke-width:1;"/><line x1="0" y1="149.1602" x2="1179.6157" y2="149.1602" style="stroke:#000000;stroke-width:1;"/><line x1="0" y1="152.1602" x2="1179.6157" y2="152.1602" style="stroke:#000000;stroke-width:1;"/><rect x="501.3357" y="138.5938" width="176.9443" height="23.1328" fill="#EEEEEE" style="stroke:#000000;stroke-width:2;"/><text x="507.3357" y="154.6606" fill="#000000" font-size="13" lengthAdjust="spacing" textLength="158.4185" font-weight="700" font-family="sans-serif">Consulter l'historique</text><g class="message" data-entity-1="part1" data-entity-2="part2" id="msg1" data-source-line="14"><polygon points="370.9717,188.8594,380.9717,192.8594,370.9717,196.8594,374.9717,192.8594" fill="#181818" style="stroke:#181818;stroke-width:1;stroke-linejoin:miter;stroke-miterlimit:10;"/><line x1="43.7197" y1="192.8594" x2="376.9717" y2="192.8594" style="stroke:#181818;stroke-width:1;"/><text x="50.7197" y="187.7935" fill="#000000" font-size="13" lengthAdjust="spacing" textLength="320.252" font-family="sans-serif">GET /transactions?type=&amp;account=&amp;from=&amp;to=</text></g><g class="message" data-entity-1="part2" data-entity-2="part4" id="msg2" data-source-line="16"><polygon points="776.0571,217.9922,786.0571,221.9922,776.0571,225.9922,780.0571,221.9922" fill="#181818" style="stroke:#181818;stroke-width:1;stroke-linejoin:miter;stroke-miterlimit:10;"/><line x1="392.9717" y1="221.9922" x2="782.0571" y2="221.9922" style="stroke:#181818;stroke-width:1;"/><text x="399.9717" y="216.9263" fill="#000000" font-size="13" lengthAdjust="spacing" textLength="131.3584" font-family="sans-serif">search(filters, page)</text></g><g class="message" data-entity-1="part4" data-entity-2="part5" id="msg3" data-source-line="18"><polygon points="1104.2393,277.3906,1114.2393,281.3906,1104.2393,285.3906,1108.2393,281.3906" fill="#181818" style="stroke:#181818;stroke-width:1;stroke-linejoin:miter;stroke-miterlimit:10;"/><line x1="798.0571" y1="281.3906" x2="1110.2393" y2="281.3906" style="stroke:#181818;stroke-width:1;"/><text x="805.0571" y="246.0591" fill="#000000" font-size="13" lengthAdjust="spacing" textLength="133.2817" font-family="sans-serif">SELECT transactions</text><text x="805.0571" y="261.1919" fill="#000000" font-size="13" lengthAdjust="spacing" textLength="133.7134" font-family="sans-serif">JOIN accounts, users</text><text x="805.0571" y="276.3247" fill="#000000" font-size="13" lengthAdjust="spacing" textLength="89.2354" font-family="sans-serif">WHERE filtres</text></g><g class="message" data-entity-1="part5" data-entity-2="part4" id="msg4" data-source-line="19"><polygon points="809.0571,306.5234,799.0571,310.5234,809.0571,314.5234,805.0571,310.5234" fill="#181818" style="stroke:#181818;stroke-width:1;stroke-linejoin:miter;stroke-miterlimit:10;"/><line x1="803.0571" y1="310.5234" x2="1115.2393" y2="310.5234" style="stroke:#181818;stroke-width:1;stroke-dasharray:2,2;"/><text x="815.0571" y="305.4575" fill="#000000" font-size="13" lengthAdjust="spacing" textLength="130.1206" font-family="sans-serif">Page&lt;Transaction></text></g><g class="message" data-entity-1="part4" data-entity-2="part2" id="msg5" data-source-line="20"><polygon points="403.9717,335.6563,393.9717,339.6563,403.9717,343.6563,399.9717,339.6563" fill="#181818" style="stroke:#181818;stroke-width:1;stroke-linejoin:miter;stroke-miterlimit:10;"/><line x1="397.9717" y1="339.6563" x2="792.0571" y2="339.6563" style="stroke:#181818;stroke-width:1;stroke-dasharray:2,2;"/><text x="409.9717" y="334.5903" fill="#000000" font-size="13" lengthAdjust="spacing" textLength="112.125" font-family="sans-serif">résultats paginés</text></g><g class="message" data-entity-1="part2" data-entity-2="part1" id="msg6" data-source-line="22"><polygon points="54.7197,364.7891,44.7197,368.7891,54.7197,372.7891,50.7197,368.7891" fill="#181818" style="stroke:#181818;stroke-width:1;stroke-linejoin:miter;stroke-miterlimit:10;"/><line x1="48.7197" y1="368.7891" x2="386.9717" y2="368.7891" style="stroke:#181818;stroke-width:1;stroke-dasharray:2,2;"/><text x="60.7197" y="363.7231" fill="#000000" font-size="13" lengthAdjust="spacing" textLength="152.4517" font-family="sans-serif">Tableau des opérations</text></g><rect x="0" y="397.3555" width="1179.6157" height="3" fill="#EEEEEE" style="stroke:#EEEEEE;stroke-width:1;"/><line x1="0" y1="397.3555" x2="1179.6157" y2="397.3555" style="stroke:#000000;stroke-width:1;"/><line x1="0" y1="400.3555" x2="1179.6157" y2="400.3555" style="stroke:#000000;stroke-width:1;"/><rect x="521.8259" y="386.7891" width="135.9639" height="23.1328" fill="#EEEEEE" style="stroke:#000000;stroke-width:2;"/><text x="527.8259" y="402.856" fill="#000000" font-size="13" lengthAdjust="spacing" textLength="117.438" font-weight="700" font-family="sans-serif">Éditer un relevé</text><g class="message" data-entity-1="part1" data-entity-2="part3" id="msg7" data-source-line="27"><polygon points="533.6045,437.0547,543.6045,441.0547,533.6045,445.0547,537.6045,441.0547" fill="#181818" style="stroke:#181818;stroke-width:1;stroke-linejoin:miter;stroke-miterlimit:10;"/><line x1="43.7197" y1="441.0547" x2="539.6045" y2="441.0547" style="stroke:#181818;stroke-width:1;"/><text x="50.7197" y="435.9888" fill="#000000" font-size="13" lengthAdjust="spacing" textLength="279.811" font-family="sans-serif">GET /accounts/{id}/statement?from=&amp;to=</text></g><g class="message" data-entity-1="part3" data-entity-2="part4" id="msg8" data-source-line="29"><polygon points="776.0571,466.1875,786.0571,470.1875,776.0571,474.1875,780.0571,470.1875" fill="#181818" style="stroke:#181818;stroke-width:1;stroke-linejoin:miter;stroke-miterlimit:10;"/><line x1="555.6045" y1="470.1875" x2="782.0571" y2="470.1875" style="stroke:#181818;stroke-width:1;"/><text x="562.6045" y="465.1216" fill="#000000" font-size="13" lengthAdjust="spacing" textLength="213.4526" font-family="sans-serif">getStatement(accountId, period)</text></g><g class="message" data-entity-1="part4" data-entity-2="part5" id="msg9" data-source-line="31"><polygon points="1104.2393,495.3203,1114.2393,499.3203,1104.2393,503.3203,1108.2393,499.3203" fill="#181818" style="stroke:#181818;stroke-width:1;stroke-linejoin:miter;stroke-miterlimit:10;"/><line x1="798.0571" y1="499.3203" x2="1110.2393" y2="499.3203" style="stroke:#181818;stroke-width:1;"/><text x="805.0571" y="494.2544" fill="#000000" font-size="13" lengthAdjust="spacing" textLength="207.1494" font-family="sans-serif">SELECT transactions du compte</text></g><g class="message" data-entity-1="part5" data-entity-2="part4" id="msg10" data-source-line="32"><polygon points="809.0571,524.4531,799.0571,528.4531,809.0571,532.4531,805.0571,528.4531" fill="#181818" style="stroke:#181818;stroke-width:1;stroke-linejoin:miter;stroke-miterlimit:10;"/><line x1="803.0571" y1="528.4531" x2="1115.2393" y2="528.4531" style="stroke:#181818;stroke-width:1;stroke-dasharray:2,2;"/><text x="815.0571" y="523.3872" fill="#000000" font-size="13" lengthAdjust="spacing" textLength="134.9575" font-family="sans-serif">liste + solde courant</text></g><g class="message" data-entity-1="part4" data-entity-2="part3" id="msg11" data-source-line="33"><polygon points="566.6045,553.5859,556.6045,557.5859,566.6045,561.5859,562.6045,557.5859" fill="#181818" style="stroke:#181818;stroke-width:1;stroke-linejoin:miter;stroke-miterlimit:10;"/><line x1="560.6045" y1="557.5859" x2="792.0571" y2="557.5859" style="stroke:#181818;stroke-width:1;stroke-dasharray:2,2;"/><text x="572.6045" y="552.52" fill="#000000" font-size="13" lengthAdjust="spacing" textLength="40.644" font-family="sans-serif">relevé</text></g><g class="message" data-entity-1="part3" data-entity-2="part1" id="msg12" data-source-line="35"><polygon points="54.7197,582.7188,44.7197,586.7188,54.7197,590.7188,50.7197,586.7188" fill="#181818" style="stroke:#181818;stroke-width:1;stroke-linejoin:miter;stroke-miterlimit:10;"/><line x1="48.7197" y1="586.7188" x2="549.6045" y2="586.7188" style="stroke:#181818;stroke-width:1;stroke-dasharray:2,2;"/><text x="60.7197" y="581.6528" fill="#000000" font-size="13" lengthAdjust="spacing" textLength="122.4399" font-family="sans-serif">Relevé imprimable</text></g><rect x="0" y="615.2852" width="1179.6157" height="3" fill="#EEEEEE" style="stroke:#EEEEEE;stroke-width:1;"/><line x1="0" y1="615.2852" x2="1179.6157" y2="615.2852" style="stroke:#000000;stroke-width:1;"/><line x1="0" y1="618.2852" x2="1179.6157" y2="618.2852" style="stroke:#000000;stroke-width:1;"/><rect x="528.6274" y="604.7188" width="122.3608" height="23.1328" fill="#EEEEEE" style="stroke:#000000;stroke-width:2;"/><text x="534.6274" y="620.7856" fill="#000000" font-size="13" lengthAdjust="spacing" textLength="103.835" font-weight="700" font-family="sans-serif">Éditer un reçu</text><g class="message" data-entity-1="part1" data-entity-2="part2" id="msg13" data-source-line="40"><polygon points="370.9717,654.9844,380.9717,658.9844,370.9717,662.9844,374.9717,658.9844" fill="#181818" style="stroke:#181818;stroke-width:1;stroke-linejoin:miter;stroke-miterlimit:10;"/><line x1="43.7197" y1="658.9844" x2="376.9717" y2="658.9844" style="stroke:#181818;stroke-width:1;"/><text x="50.7197" y="653.9185" fill="#000000" font-size="13" lengthAdjust="spacing" textLength="197.5645" font-family="sans-serif">GET /transactions/{id}/receipt</text></g><g class="message" data-entity-1="part2" data-entity-2="part4" id="msg14" data-source-line="42"><polygon points="776.0571,684.1172,786.0571,688.1172,776.0571,692.1172,780.0571,688.1172" fill="#181818" style="stroke:#181818;stroke-width:1;stroke-linejoin:miter;stroke-miterlimit:10;"/><line x1="392.9717" y1="688.1172" x2="782.0571" y2="688.1172" style="stroke:#181818;stroke-width:1;"/><text x="399.9717" y="683.0513" fill="#000000" font-size="13" lengthAdjust="spacing" textLength="149.043" font-family="sans-serif">findById(transactionId)</text></g><g class="message" data-entity-1="part4" data-entity-2="part5" id="msg15" data-source-line="44"><polygon points="1104.2393,713.25,1114.2393,717.25,1104.2393,721.25,1108.2393,717.25" fill="#181818" style="stroke:#181818;stroke-width:1;stroke-linejoin:miter;stroke-miterlimit:10;"/><line x1="798.0571" y1="717.25" x2="1110.2393" y2="717.25" style="stroke:#181818;stroke-width:1;"/><text x="805.0571" y="712.1841" fill="#000000" font-size="13" lengthAdjust="spacing" textLength="249.063" font-family="sans-serif">SELECT transaction + comptes + user</text></g><g class="message" data-entity-1="part5" data-entity-2="part4" id="msg16" data-source-line="45"><polygon points="809.0571,742.3828,799.0571,746.3828,809.0571,750.3828,805.0571,746.3828" fill="#181818" style="stroke:#181818;stroke-width:1;stroke-linejoin:miter;stroke-miterlimit:10;"/><line x1="803.0571" y1="746.3828" x2="1115.2393" y2="746.3828" style="stroke:#181818;stroke-width:1;stroke-dasharray:2,2;"/><text x="815.0571" y="741.3169" fill="#000000" font-size="13" lengthAdjust="spacing" textLength="106.939" font-family="sans-serif">détails complets</text></g><g class="message" data-entity-1="part4" data-entity-2="part2" id="msg17" data-source-line="46"><polygon points="403.9717,771.5156,393.9717,775.5156,403.9717,779.5156,399.9717,775.5156" fill="#181818" style="stroke:#181818;stroke-width:1;stroke-linejoin:miter;stroke-miterlimit:10;"/><line x1="397.9717" y1="775.5156" x2="792.0571" y2="775.5156" style="stroke:#181818;stroke-width:1;stroke-dasharray:2,2;"/><text x="409.9717" y="770.4497" fill="#000000" font-size="13" lengthAdjust="spacing" textLength="73.436" font-family="sans-serif">transaction</text></g><g class="message" data-entity-1="part2" data-entity-2="part1" id="msg18" data-source-line="48"><polygon points="54.7197,800.6484,44.7197,804.6484,54.7197,808.6484,50.7197,804.6484" fill="#181818" style="stroke:#181818;stroke-width:1;stroke-linejoin:miter;stroke-miterlimit:10;"/><line x1="48.7197" y1="804.6484" x2="381.9717" y2="804.6484" style="stroke:#181818;stroke-width:1;stroke-dasharray:2,2;"/><text x="60.7197" y="799.5825" fill="#000000" font-size="13" lengthAdjust="spacing" textLength="160.9766" font-family="sans-serif">Reçu imprimable (HTML)</text></g><path d="M10,819.6484 L79.4512,819.6484 L79.4512,826.7813 L69.4512,836.7813 L10,836.7813 L10,819.6484" style="stroke:#000000;stroke-width:1.5;" fill="#EEEEEE"/><rect x="10" y="819.6484" width="1159.6157" height="191.9297" fill="none" style="stroke:#000000;stroke-width:1.5;"/><text x="25" y="832.7153" fill="#000000" font-size="13" lengthAdjust="spacing" textLength="24.4512" font-weight="700" font-family="sans-serif">opt</text><text x="94.4512" y="831.8589" fill="#000000" font-size="11" lengthAdjust="spacing" textLength="131.8657" font-weight="700" font-family="sans-serif">[Télécharger en PDF]</text><g class="message" data-entity-1="part1" data-entity-2="part2" id="msg19" data-source-line="51"><polygon points="370.9717,853.9141,380.9717,857.9141,370.9717,861.9141,374.9717,857.9141" fill="#181818" style="stroke:#181818;stroke-width:1;stroke-linejoin:miter;stroke-miterlimit:10;"/><line x1="43.7197" y1="857.9141" x2="376.9717" y2="857.9141" style="stroke:#181818;stroke-width:1;"/><text x="50.7197" y="852.8481" fill="#000000" font-size="13" lengthAdjust="spacing" textLength="222.7773" font-family="sans-serif">GET /transactions/{id}/receipt.pdf</text></g><g class="message" data-entity-1="part2" data-entity-2="part4" id="msg20" data-source-line="52"><polygon points="776.0571,883.0469,786.0571,887.0469,776.0571,891.0469,780.0571,887.0469" fill="#181818" style="stroke:#181818;stroke-width:1;stroke-linejoin:miter;stroke-miterlimit:10;"/><line x1="392.9717" y1="887.0469" x2="782.0571" y2="887.0469" style="stroke:#181818;stroke-width:1;"/><text x="399.9717" y="881.981" fill="#000000" font-size="13" lengthAdjust="spacing" textLength="149.043" font-family="sans-serif">findById(transactionId)</text></g><g class="message" data-entity-1="part4" data-entity-2="part5" id="msg21" data-source-line="54"><polygon points="1104.2393,912.1797,1114.2393,916.1797,1104.2393,920.1797,1108.2393,916.1797" fill="#181818" style="stroke:#181818;stroke-width:1;stroke-linejoin:miter;stroke-miterlimit:10;"/><line x1="798.0571" y1="916.1797" x2="1110.2393" y2="916.1797" style="stroke:#181818;stroke-width:1;"/><text x="805.0571" y="911.1138" fill="#000000" font-size="13" lengthAdjust="spacing" textLength="294.1821" font-family="sans-serif">SELECT transaction + bill_payment si facture</text></g><g class="message" data-entity-1="part5" data-entity-2="part4" id="msg22" data-source-line="55"><polygon points="809.0571,941.3125,799.0571,945.3125,809.0571,949.3125,805.0571,945.3125" fill="#181818" style="stroke:#181818;stroke-width:1;stroke-linejoin:miter;stroke-miterlimit:10;"/><line x1="803.0571" y1="945.3125" x2="1115.2393" y2="945.3125" style="stroke:#181818;stroke-width:1;stroke-dasharray:2,2;"/><text x="815.0571" y="940.2466" fill="#000000" font-size="13" lengthAdjust="spacing" textLength="106.939" font-family="sans-serif">détails complets</text></g><g class="message" data-entity-1="part4" data-entity-2="part2" id="msg23" data-source-line="56"><polygon points="403.9717,970.4453,393.9717,974.4453,403.9717,978.4453,399.9717,974.4453" fill="#181818" style="stroke:#181818;stroke-width:1;stroke-linejoin:miter;stroke-miterlimit:10;"/><line x1="397.9717" y1="974.4453" x2="792.0571" y2="974.4453" style="stroke:#181818;stroke-width:1;stroke-dasharray:2,2;"/><text x="409.9717" y="969.3794" fill="#000000" font-size="13" lengthAdjust="spacing" textLength="73.436" font-family="sans-serif">transaction</text></g><g class="message" data-entity-1="part2" data-entity-2="part1" id="msg24" data-source-line="58"><polygon points="54.7197,999.5781,44.7197,1003.5781,54.7197,1007.5781,50.7197,1003.5781" fill="#181818" style="stroke:#181818;stroke-width:1;stroke-linejoin:miter;stroke-miterlimit:10;"/><line x1="48.7197" y1="1003.5781" x2="381.9717" y2="1003.5781" style="stroke:#181818;stroke-width:1;stroke-dasharray:2,2;"/><text x="60.7197" y="998.5122" fill="#000000" font-size="13" lengthAdjust="spacing" textLength="169.2349" font-family="sans-serif">fichier reçu-TYPE-date.pdf</text></g><?plantuml-src bPJFJjj04CRl-nGZ3ZIefDnH3N92Mb91cyQMgaf8rUAT9AjkTjsTDGXLbNhjlUzG-Jdy9dsIZfq_s0Wet6plDz_Cz_FOz5NRN7gv15f8vQwrdSDC6a91snEFb3jBU8v4Seu3DEuwzjvTG_052X5qC0X9LNuhq6O8Vt_-XbDDmNdDJ_Qvtk1LLG86lgp-54B8Z0yXdgCDWdi4dUbSsW0xgPUM-5GxEtGsU6SC-XsG1Ecmguopp1Kst575mmVz4lHNEiELMIAK3F9I4iBEn56OUqm-dZLd9mCXeWZOc0eJq8DviTY6WIWIefaR-aSy4np2sr4A1-6s3ns7cnoZNRaQCDgTURUCTeEBwjZwIWQimt1jxP2m0w7qsQ8tqtKxseUS8U-rn8bW6OjF1YnEHcUZOGhjXXVstOVnUrWtP8E2sEV2VZeTJKTGs_8R55pTttISS8VNBJP7JOTD8b-LTNGPg1v5MxuL2Zlp31lr2iGXfFBIe2n08O7BgzBBPgvEqR2XMlrIkcPQsErMT8Z6MwARD0VVjVfnG3mDBbbqV0zDVkdnBSqvXcIZxgrTnegfejTEFOShg08ojym3Tk0PtWQ4bq3EA6H1mILX0x09i8vs1rhSXJPTvzVBtEjbJR2jZ-_XnP_EK_PlHSnZXZeF3-tSJ5irk1chNgjo_1mw3635XlYgNhWE8rMLGMf3ZSPWeCw2jMmUNwnfa_cM4FHEq_EpFI5S7Y2jIbELsKBwEHD22vEJDmBWENHUvMh69K_W0j0U4-1_R2wrCLzoULDl8P3cVseM2ezS-JYcbVDze02wg5PZjs3DTBRGJA9Pb7xwUJBgyqyEcuneLVTh_0S0?></g></svg>