<svg xmlns="http://www.w3.org/2000/svg" xmlns:xlink="http://www.w3.org/1999/xlink" contentStyleType="text/css" height="935px" preserveAspectRatio="none" style="width:990px;height:935px;background:#FFFFFF;" version="1.1" viewBox="0 0 990 935" width="990px" zoomAndPan="magnify"><title>S&#233;quence &#8212; Historique, relev&#233; et re&#231;u</title><defs/><g><text fill="#000000" font-family="sans-serif" font-size="14" font-weight="bold" lengthAdjust="spacing" textLength="255.6436" x="363.2366" y="29.5332">S&#233;quence &#8212; Historique, relev&#233; et re&#231;u</text><rect fill="#FFFFFF" height="184.4609" style="stroke:#181818;stroke-width:1;" width="10" x="319.8862" y="197.9219"/><rect fill="#FFFFFF" height="151.7578" style="stroke:#181818;stroke-width:1;" width="10" x="319.8862" y="683.5469"/><rect fill="#FFFFFF" height="151.7578" style="stroke:#181818;stroke-width:1;" width="10" x="466.4409" y="457.0859"/><rect fill="#FFFFFF" height="123.7578" style="stroke:#181818;stroke-width:1;" width="10" x="681.1606" y="228.2734"/><rect fill="#FFFFFF" height="91.0547" style="stroke:#181818;stroke-width:1;" width="10" x="681.1606" y="487.4375"/><rect fill="#FFFFFF" height="91.0547" style="stroke:#181818;stroke-width:1;" width="10" x="681.1606" y="713.8984"/><line style="stroke:#181818;stroke-width:0.5;stroke-dasharray:5.0,5.0;" x1="26" x2="26" y1="121.2188" y2="853.3047"/><line style="stroke:#181818;stroke-width:0.5;stroke-dasharray:5.0,5.0;" x1="323.9692" x2="323.9692" y1="121.2188" y2="853.3047"/><line style="stroke:#181818;stroke-width:0.5;stroke-dasharray:5.0,5.0;" x1="470.8032" x2="470.8032" y1="121.2188" y2="853.3047"/><line style="stroke:#181818;stroke-width:0.5;stroke-dasharray:5.0,5.0;" x1="685.2471" x2="685.2471" y1="121.2188" y2="853.3047"/><line style="stroke:#181818;stroke-width:0.5;stroke-dasharray:5.0,5.0;" x1="936.855" x2="936.855" y1="121.2188" y2="853.3047"/><text fill="#000000" font-family="sans-serif" font-size="14" lengthAdjust="spacing" textLength="36.5859" x="5" y="118.1426">Agent</text><ellipse cx="26.293" cy="52.1094" fill="#E2E2F0" rx="8" ry="8" style="stroke:#181818;stroke-width:0.5;"/><path d="M26.293,60.1094 L26.293,87.1094 M13.293,68.1094 L39.293,68.1094 M26.293,87.1094 L13.293,102.1094 M26.293,87.1094 L39.293,102.1094 " fill="none" style="stroke:#181818;stroke-width:0.5;"/><text fill="#000000" font-family="sans-serif" font-size="14" lengthAdjust="spacing" textLength="36.5859" x="5" y="866.8379">Agent</text><ellipse cx="26.293" cy="878.4141" fill="#E2E2F0" rx="8" ry="8" style="stroke:#181818;stroke-width:0.5;"/><path d="M26.293,886.4141 L26.293,913.4141 M13.293,894.4141 L39.293,894.4141 M26.293,913.4141 L13.293,928.4141 M26.293,913.4141 L39.293,928.4141 " fill="none" style="stroke:#181818;stroke-width:0.5;"/><rect fill="#E2E2F0" height="31.6094" rx="2.5" ry="2.5" style="stroke:#181818;stroke-width:0.5;" width="147.834" x="250.9692" y="88.6094"/><text fill="#000000" font-family="sans-serif" font-size="14" lengthAdjust="spacing" textLength="133.834" x="257.9692" y="110.1426">TransactionController</text><rect fill="#E2E2F0" height="31.6094" rx="2.5" ry="2.5" style="stroke:#181818;stroke-width:0.5;" width="147.834" x="250.9692" y="852.3047"/><text fill="#000000" font-family="sans-serif" font-size="14" lengthAdjust="spacing" textLength="133.834" x="257.9692" y="873.8379">TransactionController</text><rect fill="#E2E2F0" height="31.6094" rx="2.5" ry="2.5" style="stroke:#181818;stroke-width:0.5;" width="125.2754" x="408.8032" y="88.6094"/><text fill="#000000" font-family="sans-serif" font-size="14" lengthAdjust="spacing" textLength="111.2754" x="415.8032" y="110.1426">AccountController</text><rect fill="#E2E2F0" height="31.6094" rx="2.5" ry="2.5" style="stroke:#181818;stroke-width:0.5;" width="125.2754" x="408.8032" y="852.3047"/><text fill="#000000" font-family="sans-serif" font-size="14" lengthAdjust="spacing" textLength="111.2754" x="415.8032" y="873.8379">AccountController</text><rect fill="#E2E2F0" height="31.6094" rx="2.5" ry="2.5" style="stroke:#181818;stroke-width:0.5;" width="133.8271" x="619.2471" y="88.6094"/><text fill="#000000" font-family="sans-serif" font-size="14" lengthAdjust="spacing" textLength="119.8271" x="626.2471" y="110.1426">TransactionService</text><rect fill="#E2E2F0" height="31.6094" rx="2.5" ry="2.5" style="stroke:#181818;stroke-width:0.5;" width="133.8271" x="619.2471" y="852.3047"/><text fill="#000000" font-family="sans-serif" font-size="14" lengthAdjust="spacing" textLength="119.8271" x="626.2471" y="873.8379">TransactionService</text><text fill="#000000" font-family="sans-serif" font-size="14" lengthAdjust="spacing" textLength="76.2617" x="895.855" y="118.1426">PostgreSQL</text><path d="M918.9858,67.6094 C918.9858,57.6094 936.9858,57.6094 936.9858,57.6094 C936.9858,57.6094 954.9858,57.6094 954.9858,67.6094 L954.9858,93.6094 C954.9858,103.6094 936.9858,103.6094 936.9858,103.6094 C936.9858,103.6094 918.9858,103.6094 918.9858,93.6094 L918.9858,67.6094 " fill="#E2E2F0" style="stroke:#181818;stroke-width:1.5;"/><path d="M918.9858,67.6094 C918.9858,77.6094 936.9858,77.6094 936.9858,77.6094 C936.9858,77.6094 954.9858,77.6094 954.9858,67.6094 " fill="none" style="stroke:#181818;stroke-width:1.5;"/><text fill="#000000" font-family="sans-serif" font-size="14" lengthAdjust="spacing" textLength="76.2617" x="895.855" y="866.8379">PostgreSQL</text><path d="M918.9858,879.9141 C918.9858,869.9141 936.9858,869.9141 936.9858,869.9141 C936.9858,869.9141 954.9858,869.9141 954.9858,879.9141 L954.9858,905.9141 C954.9858,915.9141 936.9858,915.9141 936.9858,915.9141 C936.9858,915.9141 918.9858,915.9141 918.9858,905.9141 L918.9858,879.9141 " fill="#E2E2F0" style="stroke:#181818;stroke-width:1.5;"/><path d="M918.9858,879.9141 C918.9858,889.9141 936.9858,889.9141 936.9858,889.9141 C936.9858,889.9141 954.9858,889.9141 954.9858,879.9141 " fill="none" style="stroke:#181818;stroke-width:1.5;"/><rect fill="#FFFFFF" height="184.4609" style="stroke:#181818;stroke-width:1;" width="10" x="319.8862" y="197.9219"/><rect fill="#FFFFFF" height="151.7578" style="stroke:#181818;stroke-width:1;" width="10" x="319.8862" y="683.5469"/><rect fill="#FFFFFF" height="151.7578" style="stroke:#181818;stroke-width:1;" width="10" x="466.4409" y="457.0859"/><rect fill="#FFFFFF" height="123.7578" style="stroke:#181818;stroke-width:1;" width="10" x="681.1606" y="228.2734"/><rect fill="#FFFFFF" height="91.0547" style="stroke:#181818;stroke-width:1;" width="10" x="681.1606" y="487.4375"/><rect fill="#FFFFFF" height="91.0547" style="stroke:#181818;stroke-width:1;" width="10" x="681.1606" y="713.8984"/><rect fill="#EEEEEE" height="3" style="stroke:#EEEEEE;stroke-width:1;" width="983.1167" x="0" y="152.3945"/><line style="stroke:#000000;stroke-width:1;" x1="0" x2="983.1167" y1="152.3945" y2="152.3945"/><line style="stroke:#000000;stroke-width:1;" x1="0" x2="983.1167" y1="155.3945" y2="155.3945"/><rect fill="#EEEEEE" height="24.3516" style="stroke:#000000;stroke-width:2;" width="151.4331" x="415.8418" y="141.2188"/><text fill="#000000" font-family="sans-serif" font-size="13" font-weight="bold" lengthAdjust="spacing" textLength="133.8213" x="421.8418" y="158.7139">Consulter l'historique</text><polygon fill="#181818" points="307.8862,193.9219,317.8862,197.9219,307.8862,201.9219,311.8862,197.9219" style="stroke:#181818;stroke-width:1;"/><line style="stroke:#181818;stroke-width:1;" x1="26.293" x2="313.8862" y1="197.9219" y2="197.9219"/><text fill="#000000" font-family="sans-serif" font-size="13" lengthAdjust="spacing" textLength="274.5933" x="33.293" y="193.0654">GET /transactions?type=&amp;account=&amp;from=&amp;to=</text><polygon fill="#181818" points="669.1606,224.2734,679.1606,228.2734,669.1606,232.2734,673.1606,228.2734" style="stroke:#181818;stroke-width:1;"/><line style="stroke:#181818;stroke-width:1;" x1="329.8862" x2="675.1606" y1="228.2734" y2="228.2734"/><text fill="#000000" font-family="sans-serif" font-size="13" lengthAdjust="spacing" textLength="114.8799" x="336.8862" y="223.417">search(filters, page)</text><polygon fill="#181818" points="924.9858,287.3281,934.9858,291.3281,924.9858,295.3281,928.9858,291.3281" style="stroke:#181818;stroke-width:1;"/><line style="stroke:#181818;stroke-width:1;" x1="691.1606" x2="930.9858" y1="291.3281" y2="291.3281"/><text fill="#000000" font-family="sans-serif" font-size="13" lengthAdjust="spacing" textLength="124.2744" x="698.1606" y="253.7686">SELECT transactions</text><text fill="#000000" font-family="sans-serif" font-size="13" lengthAdjust="spacing" textLength="124.2681" x="698.1606" y="270.1201">JOIN accounts, users</text><text fill="#000000" font-family="sans-serif" font-size="13" lengthAdjust="spacing" textLength="83.0591" x="698.1606" y="286.4717">WHERE filtres</text><polygon fill="#181818" points="702.1606,317.6797,692.1606,321.6797,702.1606,325.6797,698.1606,321.6797" style="stroke:#181818;stroke-width:1;"/><line style="stroke:#181818;stroke-width:1;stroke-dasharray:2.0,2.0;" x1="696.1606" x2="935.9858" y1="321.6797" y2="321.6797"/><text fill="#000000" font-family="sans-serif" font-size="13" lengthAdjust="spacing" textLength="113.4644" x="708.1606" y="316.8232">Page&lt;Transaction&gt;</text><polygon fill="#181818" points="340.8862,348.0313,330.8862,352.0313,340.8862,356.0313,336.8862,352.0313" style="stroke:#181818;stroke-width:1;"/><line style="stroke:#181818;stroke-width:1;stroke-dasharray:2.0,2.0;" x1="334.8862" x2="685.1606" y1="352.0313" y2="352.0313"/><text fill="#000000" font-family="sans-serif" font-size="13" lengthAdjust="spacing" textLength="98.2808" x="346.8862" y="347.1748">r&#233;sultats pagin&#233;s</text><polygon fill="#181818" points="37.293,378.3828,27.293,382.3828,37.293,386.3828,33.293,382.3828" style="stroke:#181818;stroke-width:1;"/><line style="stroke:#181818;stroke-width:1;stroke-dasharray:2.0,2.0;" x1="31.293" x2="323.8862" y1="382.3828" y2="382.3828"/><text fill="#000000" font-family="sans-serif" font-size="13" lengthAdjust="spacing" textLength="135.8716" x="43.293" y="377.5264">Tableau des op&#233;rations</text><rect fill="#EEEEEE" height="3" style="stroke:#EEEEEE;stroke-width:1;" width="983.1167" x="0" y="411.5586"/><line style="stroke:#000000;stroke-width:1;" x1="0" x2="983.1167" y1="411.5586" y2="411.5586"/><line style="stroke:#000000;stroke-width:1;" x1="0" x2="983.1167" y1="414.5586" y2="414.5586"/><rect fill="#EEEEEE" height="24.3516" style="stroke:#000000;stroke-width:2;" width="115.1499" x="433.9834" y="400.3828"/><text fill="#000000" font-family="sans-serif" font-size="13" font-weight="bold" lengthAdjust="spacing" textLength="97.5381" x="439.9834" y="417.8779">&#201;diter un relev&#233;</text><polygon fill="#181818" points="454.4409,453.0859,464.4409,457.0859,454.4409,461.0859,458.4409,457.0859" style="stroke:#181818;stroke-width:1;"/><line style="stroke:#181818;stroke-width:1;" x1="26.293" x2="460.4409" y1="457.0859" y2="457.0859"/><text fill="#000000" font-family="sans-serif" font-size="13" lengthAdjust="spacing" textLength="237.0151" x="33.293" y="452.2295">GET /accounts/{id}/statement?from=&amp;to=</text><polygon fill="#181818" points="669.1606,483.4375,679.1606,487.4375,669.1606,491.4375,673.1606,487.4375" style="stroke:#181818;stroke-width:1;"/><line style="stroke:#181818;stroke-width:1;" x1="476.4409" x2="675.1606" y1="487.4375" y2="487.4375"/><text fill="#000000" font-family="sans-serif" font-size="13" lengthAdjust="spacing" textLength="185.7197" x="483.4409" y="482.5811">getStatement(accountId, period)</text><polygon fill="#181818" points="924.9858,513.7891,934.9858,517.7891,924.9858,521.7891,928.9858,517.7891" style="stroke:#181818;stroke-width:1;"/><line style="stroke:#181818;stroke-width:1;" x1="691.1606" x2="930.9858" y1="517.7891" y2="517.7891"/><text fill="#000000" font-family="sans-serif" font-size="13" lengthAdjust="spacing" textLength="188.5889" x="698.1606" y="512.9326">SELECT transactions du compte</text><polygon fill="#181818" points="702.1606,544.1406,692.1606,548.1406,702.1606,552.1406,698.1606,548.1406" style="stroke:#181818;stroke-width:1;"/><line style="stroke:#181818;stroke-width:1;stroke-dasharray:2.0,2.0;" x1="696.1606" x2="935.9858" y1="548.1406" y2="548.1406"/><text fill="#000000" font-family="sans-serif" font-size="13" lengthAdjust="spacing" textLength="115.9844" x="708.1606" y="543.2842">liste + solde courant</text><polygon fill="#181818" points="487.4409,574.4922,477.4409,578.4922,487.4409,582.4922,483.4409,578.4922" style="stroke:#181818;stroke-width:1;"/><line style="stroke:#181818;stroke-width:1;stroke-dasharray:2.0,2.0;" x1="481.4409" x2="685.1606" y1="578.4922" y2="578.4922"/><text fill="#000000" font-family="sans-serif" font-size="13" lengthAdjust="spacing" textLength="35.4072" x="493.4409" y="573.6357">relev&#233;</text><polygon fill="#181818" points="37.293,604.8438,27.293,608.8438,37.293,612.8438,33.293,608.8438" style="stroke:#181818;stroke-width:1;"/><line style="stroke:#181818;stroke-width:1;stroke-dasharray:2.0,2.0;" x1="31.293" x2="470.4409" y1="608.8438" y2="608.8438"/><text fill="#000000" font-family="sans-serif" font-size="13" lengthAdjust="spacing" textLength="107.6499" x="43.293" y="603.9873">Relev&#233; imprimable</text><rect fill="#EEEEEE" height="3" style="stroke:#EEEEEE;stroke-width:1;" width="983.1167" x="0" y="638.0195"/><line style="stroke:#000000;stroke-width:1;" x1="0" x2="983.1167" y1="638.0195" y2="638.0195"/><line style="stroke:#000000;stroke-width:1;" x1="0" x2="983.1167" y1="641.0195" y2="641.0195"/><rect fill="#EEEEEE" height="24.3516" style="stroke:#000000;stroke-width:2;" width="105.019" x="439.0488" y="626.8438"/><text fill="#000000" font-family="sans-serif" font-size="13" font-weight="bold" lengthAdjust="spacing" textLength="87.4072" x="445.0488" y="644.3389">&#201;diter un re&#231;u</text><polygon fill="#181818" points="307.8862,679.5469,317.8862,683.5469,307.8862,687.5469,311.8862,683.5469" style="stroke:#181818;stroke-width:1;"/><line style="stroke:#181818;stroke-width:1;" x1="26.293" x2="313.8862" y1="683.5469" y2="683.5469"/><text fill="#000000" font-family="sans-serif" font-size="13" lengthAdjust="spacing" textLength="169.0825" x="33.293" y="678.6904">GET /transactions/{id}/receipt</text><polygon fill="#181818" points="669.1606,709.8984,679.1606,713.8984,669.1606,717.8984,673.1606,713.8984" style="stroke:#181818;stroke-width:1;"/><line style="stroke:#181818;stroke-width:1;" x1="329.8862" x2="675.1606" y1="713.8984" y2="713.8984"/><text fill="#000000" font-family="sans-serif" font-size="13" lengthAdjust="spacing" textLength="145.2407" x="336.8862" y="709.042">getReceipt(transactionId)</text><polygon fill="#181818" points="924.9858,740.25,934.9858,744.25,924.9858,748.25,928.9858,744.25" style="stroke:#181818;stroke-width:1;"/><line style="stroke:#181818;stroke-width:1;" x1="691.1606" x2="930.9858" y1="744.25" y2="744.25"/><text fill="#000000" font-family="sans-serif" font-size="13" lengthAdjust="spacing" textLength="221.8252" x="698.1606" y="739.3936">SELECT transaction + comptes + user</text><polygon fill="#181818" points="702.1606,770.6016,692.1606,774.6016,702.1606,778.6016,698.1606,774.6016" style="stroke:#181818;stroke-width:1;"/><line style="stroke:#181818;stroke-width:1;stroke-dasharray:2.0,2.0;" x1="696.1606" x2="935.9858" y1="774.6016" y2="774.6016"/><text fill="#000000" font-family="sans-serif" font-size="13" lengthAdjust="spacing" textLength="93.209" x="708.1606" y="769.7451">d&#233;tails complets</text><polygon fill="#181818" points="340.8862,800.9531,330.8862,804.9531,340.8862,808.9531,336.8862,804.9531" style="stroke:#181818;stroke-width:1;"/><line style="stroke:#181818;stroke-width:1;stroke-dasharray:2.0,2.0;" x1="334.8862" x2="685.1606" y1="804.9531" y2="804.9531"/><text fill="#000000" font-family="sans-serif" font-size="13" lengthAdjust="spacing" textLength="25.2891" x="346.8862" y="800.0967">re&#231;u</text><polygon fill="#181818" points="37.293,831.3047,27.293,835.3047,37.293,839.3047,33.293,835.3047" style="stroke:#181818;stroke-width:1;"/><line style="stroke:#181818;stroke-width:1;stroke-dasharray:2.0,2.0;" x1="31.293" x2="323.8862" y1="835.3047" y2="835.3047"/><text fill="#000000" font-family="sans-serif" font-size="13" lengthAdjust="spacing" textLength="97.5317" x="43.293" y="830.4482">Re&#231;u imprimable</text><!--SRC=[bPJ1RjD048Rl-nIZ748GhNAlS2l7ZMXGWH97ujBBrfucApQxPcUS224ahjnv1vJdy9lm98pj98sh5D6RxVtdd_a_ZqsVZIjqq4kWXSxzshWvt6jBg6X_4f0AxmZV8P6UumYjNySX-3LmA54fDcmHqchpfKIN8VpvyGkk3B4FHfwSIBt5LRK1PBciVfTAwKmE8PwZOoKzs6Icq8wXDmlQaPmQxnBlE7XhCVH04yoIhZBECbywVgIAaoVzKWmhas5hbgfSixxJXD2xySJpWEd7w-RiSgHK584OKsaP0zWNYtqOY2AbchdXz5ncWZDuCvx1a1_wq0L_BJ3gwtR0g7yV_3Bgiu_gs6Qb6UimKbixfE90g4Es6DoRkXsTG26GNnw8KoKo4L-EH9oEhyV930uRthgt7oRlOTjG34eIdrltwMey7KDjAszGIVNfhkEDT7XzmEQywR1B5AfD7LqprQCO9xSgnyuyIQDkGPp1JDzPr2NaIE2BQXDqCrUdA6ceLZzpKpCjtNuhEaJZFT5Tck4tatyVaao3In5T7A4fBpr-e3b7JdVgmTPbaWjL3CRdp-4AUGcPNnQC7NXMjW7X5P2tEOgWb1BU0Mm2RACzWXPteKst-Sso26PP4ppKnqTuoQVpF_lN4WkOeIdugPqJIjDMCJYedJo7Zo1ewP1SrIlNePHN6zR6KgEnoDHTiUO_yC-bcZPvZzEHB7y1]--></g></svg>