<svg xmlns="http://www.w3.org/2000/svg" xmlns:xlink="http://www.w3.org/1999/xlink" version="1.1" data-diagram-type="SEQUENCE" style="width:1173px;height:1625px;background:#FFFFFF;" width="1173px" height="1625px" viewBox="0 0 1173 1625" zoomAndPan="magnify" preserveAspectRatio="none" contentStyleType="text/css"><?plantuml 1.2026.7beta3?><defs/><g><g class="title" data-source-line="10"><text x="431.688" y="35.9951" fill="#000000" font-size="14" lengthAdjust="spacing" textLength="303.0234" font-weight="700" font-family="sans-serif">Séquence — Historique, relevé et reçu</text></g><rect x="3" y="61.2969" width="1157.3994" height="38.2813" fill="#FFFFCC" style="stroke:#FFDD88;stroke-width:3;" rx="2.5" ry="2.5"/><text x="10" y="71.9375" fill="#000000" font-size="10" lengthAdjust="spacing" textLength="361.2305" font-family="monospace">Please use CSS style instead of skinparam ParticipantPadding</text><text x="10" y="93.5781" fill="#000000" font-size="10" lengthAdjust="spacing" textLength="295.0049" font-family="monospace">Please use CSS style instead of skinparam padding</text><g><title>TransactionController</title><rect x="379.377" y="295.4844" width="10" height="247.7813" fill="#FFFFFF" style="stroke:#181818;stroke-width:1;"/></g><g><title>TransactionController</title><rect x="379.377" y="966.9844" width="10" height="552.5938" fill="#FFFFFF" style="stroke:#181818;stroke-width:1;"/></g><g><title>AccountController</title><rect x="538.2051" y="645.2031" width="10" height="219.8438" fill="#FFFFFF" style="stroke:#181818;stroke-width:1;"/></g><g><title>TransactionService</title><rect x="780.2383" y="339.4531" width="10" height="159.8438" fill="#FFFFFF" style="stroke:#181818;stroke-width:1;"/></g><g><title>TransactionService</title><rect x="780.2383" y="689.1719" width="10" height="131.9063" fill="#FFFFFF" style="stroke:#181818;stroke-width:1;"/></g><g><title>TransactionService</title><rect x="780.2383" y="1010.9531" width="10" height="131.9063" fill="#FFFFFF" style="stroke:#181818;stroke-width:1;"/></g><g><title>TransactionService</title><rect x="780.2383" y="1328.7031" width="10" height="131.9063" fill="#FFFFFF" style="stroke:#181818;stroke-width:1;"/></g><rect x="10" y="1201.8281" width="1147.3994" height="310.75" fill="none" style="stroke:#000000;stroke-width:1.5;"/><g class="participant-lifeline" data-qualified-name="Agent" data-entity-uid="part1" id="part1-lifeline" data-source-line="12"><g><title>Agent</title><rect x="44.7598" y="191.5469" width="8" height="1338.0313" fill="#000000" fill-opacity="0.00000"/><line x1="48" y1="191.5469" x2="48" y2="1529.5781" style="stroke:#181818;stroke-width:0.5;stroke-dasharray:5,5;"/></g></g><g class="participant-lifeline" data-qualified-name="TC" data-entity-uid="part2" id="part2-lifeline" data-source-line="13"><g><title>TransactionController</title><rect x="380.377" y="191.5469" width="8" height="1338.0313" fill="#000000" fill-opacity="0.00000"/><line x1="383.5254" y1="191.5469" x2="383.5254" y2="1529.5781" style="stroke:#181818;stroke-width:0.5;stroke-dasharray:5,5;"/></g></g><g class="participant-lifeline" data-qualified-name="AC" data-entity-uid="part3" id="part3-lifeline" data-source-line="14"><g><title>AccountController</title><rect x="539.2051" y="191.5469" width="8" height="1338.0313" fill="#000000" fill-opacity="0.00000"/><line x1="542.2285" y1="191.5469" x2="542.2285" y2="1529.5781" style="stroke:#181818;stroke-width:0.5;stroke-dasharray:5,5;"/></g></g><g class="participant-lifeline" data-qualified-name="TS" data-entity-uid="part4" id="part4-lifeline" data-source-line="15"><g><title>TransactionService</title><rect x="781.2383" y="191.5469" width="8" height="1338.0313" fill="#000000" fill-opacity="0.00000"/><line x1="784.8574" y1="191.5469" x2="784.8574" y2="1529.5781" style="stroke:#181818;stroke-width:0.5;stroke-dasharray:5,5;"/></g></g><g class="participant-lifeline" data-qualified-name="DB" data-entity-uid="part5" id="part5-lifeline" data-source-line="16"><g><title>PostgreSQL</title><rect x="1097.791" y="191.5469" width="8" height="1338.0313" fill="#000000" fill-opacity="0.00000"/><line x1="1101.1826" y1="191.5469" x2="1101.1826" y2="1529.5781" style="stroke:#181818;stroke-width:0.5;stroke-dasharray:5,5;"/></g></g><g class="participant participant-head" data-qualified-name="Agent" data-entity-uid="part1" id="part1-head" data-source-line="12"><text x="28" y="180.7168" fill="#000000" font-size="12" lengthAdjust="spacing" textLength="35.5195" font-family="sans-serif">Agent</text><ellipse cx="48.7598" cy="110.0781" rx="8" ry="8" fill="#E2E2F0" style="stroke:#181818;stroke-width:0.5;"/><path d="M48.7598,118.0781 L48.7598,145.0781 M35.7598,126.0781 L61.7598,126.0781 M48.7598,145.0781 L35.7598,160.0781 M48.7598,145.0781 L61.7598,160.0781" style="stroke:#181818;stroke-width:0.5;" fill="none"/></g><g class="participant participant-tail" data-qualified-name="Agent" data-entity-uid="part1" id="part1-tail" data-source-line="12"><text x="28" y="1547.7168" fill="#000000" font-size="12" lengthAdjust="spacing" textLength="35.5195" font-family="sans-serif">Agent</text><ellipse cx="48.7598" cy="1567.0469" rx="8" ry="8" fill="#E2E2F0" style="stroke:#181818;stroke-width:0.5;"/><path d="M48.7598,1575.0469 L48.7598,1602.0469 M35.7598,1583.0469 L61.7598,1583.0469 M48.7598,1602.0469 L35.7598,1617.0469 M48.7598,1602.0469 L61.7598,1617.0469" style="stroke:#181818;stroke-width:0.5;" fill="none"/></g><g class="participant participant-head" data-qualified-name="TC" data-entity-uid="part2" id="part2-head" data-source-line="13"><rect x="304.5254" y="146.5781" width="159.7031" height="43.9688" fill="#E2E2F0" style="stroke:#181818;stroke-width:0.5;" rx="2.5" ry="2.5"/><text x="319.5254" y="172.7168" fill="#000000" font-size="12" lengthAdjust="spacing" textLength="129.7031" font-family="sans-serif">TransactionController</text></g><g class="participant participant-tail" data-qualified-name="TC" data-entity-uid="part2" id="part2-tail" data-source-line="13"><rect x="304.5254" y="1528.5781" width="159.7031" height="43.9688" fill="#E2E2F0" style="stroke:#181818;stroke-width:0.5;" rx="2.5" ry="2.5"/><text x="319.5254" y="1554.7168" fill="#000000" font-size="12" lengthAdjust="spacing" textLength="129.7031" font-family="sans-serif">TransactionController</text></g><g class="participant participant-head" data-qualified-name="AC" data-entity-uid="part3" id="part3-head" data-source-line="14"><rect x="474.2285" y="146.5781" width="137.9531" height="43.9688" fill="#E2E2F0" style="stroke:#181818;stroke-width:0.5;" rx="2.5" ry="2.5"/><text x="489.2285" y="172.7168" fill="#000000" font-size="12" lengthAdjust="spacing" textLength="107.9531" font-family="sans-serif">AccountController</text></g><g class="participant participant-tail" data-qualified-name="AC" data-entity-uid="part3" id="part3-tail" data-source-line="14"><rect x="474.2285" y="1528.5781" width="137.9531" height="43.9688" fill="#E2E2F0" style="stroke:#181818;stroke-width:0.5;" rx="2.5" ry="2.5"/><text x="489.2285" y="1554.7168" fill="#000000" font-size="12" lengthAdjust="spacing" textLength="107.9531" font-family="sans-serif">AccountController</text></g><g class="participant participant-head" data-qualified-name="TS" data-entity-uid="part4" id="part4-head" data-source-line="15"><rect x="712.8574" y="146.5781" width="144.7617" height="43.9688" fill="#E2E2F0" style="stroke:#181818;stroke-width:0.5;" rx="2.5" ry="2.5"/><text x="727.8574" y="172.7168" fill="#000000" font-size="12" lengthAdjust="spacing" textLength="114.7617" font-family="sans-serif">TransactionService</text></g><g class="participant participant-tail" data-qualified-name="TS" data-entity-uid="part4" id="part4-tail" data-source-line="15"><rect x="712.8574" y="1528.5781" width="144.7617" height="43.9688" fill="#E2E2F0" style="stroke:#181818;stroke-width:0.5;" rx="2.5" ry="2.5"/><text x="727.8574" y="1554.7168" fill="#000000" font-size="12" lengthAdjust="spacing" textLength="114.7617" font-family="sans-serif">TransactionService</text></g><g class="participant participant-head" data-qualified-name="DB" data-entity-uid="part5" id="part5-head" data-source-line="16"><text x="1064.1826" y="180.7168" fill="#000000" font-size="12" lengthAdjust="spacing" textLength="69.2168" font-family="sans-serif">PostgreSQL</text><path d="M1083.791,125.5781 C1083.791,115.5781 1101.791,115.5781 1101.791,115.5781 C1101.791,115.5781 1119.791,115.5781 1119.791,125.5781 L1119.791,151.5781 C1119.791,161.5781 1101.791,161.5781 1101.791,161.5781 C1101.791,161.5781 1083.791,161.5781 1083.791,151.5781 L1083.791,125.5781" style="stroke:#181818;stroke-width:0.5;" fill="#E2E2F0"/><path d="M1083.791,125.5781 C1083.791,135.5781 1101.791,135.5781 1101.791,135.5781 C1101.791,135.5781 1119.791,135.5781 1119.791,125.5781" style="stroke:#181818;stroke-width:0.5;" fill="none"/></g><g class="participant participant-tail" data-qualified-name="DB" data-entity-uid="part5" id="part5-tail" data-source-line="16"><text x="1064.1826" y="1547.7168" fill="#000000" font-size="12" lengthAdjust="spacing" textLength="69.2168" font-family="sans-serif">PostgreSQL</text><path d="M1083.791,1568.5469 C1083.791,1558.5469 1101.791,1558.5469 1101.791,1558.5469 C1101.791,1558.5469 1119.791,1558.5469 1119.791,1568.5469 L1119.791,1594.5469 C1119.791,1604.5469 1101.791,1604.5469 1101.791,1604.5469 C1101.791,1604.5469 1083.791,1604.5469 1083.791,1594.5469 L1083.791,1568.5469" style="stroke:#181818;stroke-width:0.5;" fill="#E2E2F0"/><path d="M1083.791,1568.5469 C1083.791,1578.5469 1101.791,1578.5469 1101.791,1578.5469 C1101.791,1578.5469 1119.791,1578.5469 1119.791,1568.5469" style="stroke:#181818;stroke-width:0.5;" fill="none"/></g><g><title>TransactionController</title><rect x="379.377" y="295.4844" width="10" height="247.7813" fill="#FFFFFF" style="stroke:#181818;stroke-width:1;"/></g><g><title>TransactionController</title><rect x="379.377" y="966.9844" width="10" height="552.5938" fill="#FFFFFF" style="stroke:#181818;stroke-width:1;"/></g><g><title>AccountController</title><rect x="538.2051" y="645.2031" width="10" height="219.8438" fill="#FFFFFF" style="stroke:#181818;stroke-width:1;"/></g><g><title>TransactionService</title><rect x="780.2383" y="339.4531" width="10" height="159.8438" fill="#FFFFFF" style="stroke:#181818;stroke-width:1;"/></g><g><title>TransactionService</title><rect x="780.2383" y="689.1719" width="10" height="131.9063" fill="#FFFFFF" style="stroke:#181818;stroke-width:1;"/></g><g><title>TransactionService</title><rect x="780.2383" y="1010.9531" width="10" height="131.9063" fill="#FFFFFF" style="stroke:#181818;stroke-width:1;"/></g><g><title>TransactionService</title><rect x="780.2383" y="1328.7031" width="10" height="131.9063" fill="#FFFFFF" style="stroke:#181818;stroke-width:1;"/></g><rect x="0" y="229.5313" width="1167.3994" height="3" fill="#EEEEEE" style="stroke:#EEEEEE;stroke-width:1;"/><line x1="0" y1="229.5313" x2="1167.3994" y2="229.5313" style="stroke:#000000;stroke-width:1;"/><line x1="0" y1="232.5313" x2="1167.3994" y2="232.5313" style="stroke:#000000;stroke-width:1;"/><rect x="493.4946" y="211.5469" width="180.4102" height="37.9688" fill="#EEEEEE" style="stroke:#000000;stroke-width:2;"/><text x="507.4946" y="234.6855" fill="#000000" font-size="12" lengthAdjust="spacing" textLength="146.2324" font-weight="700" font-family="sans-serif">Consulter l'historique</text><g class="message" data-entity-1="part1" data-entity-2="part2" id="msg1" data-source-line="20"><polygon points="367.377,291.4844,377.377,295.4844,367.377,299.4844,371.377,295.4844" fill="#181818" style="stroke:#181818;stroke-width:1;stroke-linejoin:miter;stroke-miterlimit:10;"/><line x1="48.7598" y1="295.4844" x2="373.377" y2="295.4844" style="stroke:#181818;stroke-width:1;"/><text x="63.7598" y="282.6543" fill="#000000" font-size="12" lengthAdjust="spacing" textLength="295.6172" font-family="sans-serif">GET /transactions?type=&amp;account=&amp;from=&amp;to=</text></g><g class="message" data-entity-1="part2" data-entity-2="part4" id="msg2" data-source-line="22"><polygon points="768.2383,335.4531,778.2383,339.4531,768.2383,343.4531,772.2383,339.4531" fill="#181818" style="stroke:#181818;stroke-width:1;stroke-linejoin:miter;stroke-miterlimit:10;"/><line x1="389.377" y1="339.4531" x2="774.2383" y2="339.4531" style="stroke:#181818;stroke-width:1;"/><text x="404.377" y="326.623" fill="#000000" font-size="12" lengthAdjust="spacing" textLength="121.2539" font-family="sans-serif">search(filters, page)</text></g><g class="message" data-entity-1="part4" data-entity-2="part5" id="msg3" data-source-line="24"><polygon points="1089.791,407.3594,1099.791,411.3594,1089.791,415.3594,1093.791,411.3594" fill="#181818" style="stroke:#181818;stroke-width:1;stroke-linejoin:miter;stroke-miterlimit:10;"/><line x1="790.2383" y1="411.3594" x2="1095.791" y2="411.3594" style="stroke:#181818;stroke-width:1;"/><text x="805.2383" y="370.5918" fill="#000000" font-size="12" lengthAdjust="spacing" textLength="123.0293" font-family="sans-serif">SELECT transactions</text><text x="805.2383" y="384.5605" fill="#000000" font-size="12" lengthAdjust="spacing" textLength="123.4277" font-family="sans-serif">JOIN accounts, users</text><text x="805.2383" y="398.5293" fill="#000000" font-size="12" lengthAdjust="spacing" textLength="82.3711" font-family="sans-serif">WHERE filtres</text></g><g class="message" data-entity-1="part5" data-entity-2="part4" id="msg4" data-source-line="25"><polygon points="801.2383,451.3281,791.2383,455.3281,801.2383,459.3281,797.2383,455.3281" fill="#181818" style="stroke:#181818;stroke-width:1;stroke-linejoin:miter;stroke-miterlimit:10;"/><line x1="795.2383" y1="455.3281" x2="1100.791" y2="455.3281" style="stroke:#181818;stroke-width:1;stroke-dasharray:2,2;"/><text x="815.2383" y="442.498" fill="#000000" font-size="12" lengthAdjust="spacing" textLength="120.1113" font-family="sans-serif">Page&lt;Transaction></text></g><g class="message" data-entity-1="part4" data-entity-2="part2" id="msg5" data-source-line="26"><polygon points="400.377,495.2969,390.377,499.2969,400.377,503.2969,396.377,499.2969" fill="#181818" style="stroke:#181818;stroke-width:1;stroke-linejoin:miter;stroke-miterlimit:10;"/><line x1="394.377" y1="499.2969" x2="784.2383" y2="499.2969" style="stroke:#181818;stroke-width:1;stroke-dasharray:2,2;"/><text x="414.377" y="486.4668" fill="#000000" font-size="12" lengthAdjust="spacing" textLength="103.5" font-family="sans-serif">résultats paginés</text></g><g class="message" data-entity-1="part2" data-entity-2="part1" id="msg6" data-source-line="28"><polygon points="59.7598,539.2656,49.7598,543.2656,59.7598,547.2656,55.7598,543.2656" fill="#181818" style="stroke:#181818;stroke-width:1;stroke-linejoin:miter;stroke-miterlimit:10;"/><line x1="53.7598" y1="543.2656" x2="383.377" y2="543.2656" style="stroke:#181818;stroke-width:1;stroke-dasharray:2,2;"/><text x="73.7598" y="530.4355" fill="#000000" font-size="12" lengthAdjust="spacing" textLength="140.7246" font-family="sans-serif">Tableau des opérations</text></g><rect x="0" y="579.25" width="1167.3994" height="3" fill="#EEEEEE" style="stroke:#EEEEEE;stroke-width:1;"/><line x1="0" y1="579.25" x2="1167.3994" y2="579.25" style="stroke:#000000;stroke-width:1;"/><line x1="0" y1="582.25" x2="1167.3994" y2="582.25" style="stroke:#000000;stroke-width:1;"/><rect x="512.4087" y="561.2656" width="142.582" height="37.9688" fill="#EEEEEE" style="stroke:#000000;stroke-width:2;"/><text x="526.4087" y="584.4043" fill="#000000" font-size="12" lengthAdjust="spacing" textLength="108.4043" font-weight="700" font-family="sans-serif">Éditer un relevé</text><g class="message" data-entity-1="part1" data-entity-2="part3" id="msg7" data-source-line="33"><polygon points="526.2051,641.2031,536.2051,645.2031,526.2051,649.2031,530.2051,645.2031" fill="#181818" style="stroke:#181818;stroke-width:1;stroke-linejoin:miter;stroke-miterlimit:10;"/><line x1="48.7598" y1="645.2031" x2="532.2051" y2="645.2031" style="stroke:#181818;stroke-width:1;"/><text x="63.7598" y="632.373" fill="#000000" font-size="12" lengthAdjust="spacing" textLength="258.2871" font-family="sans-serif">GET /accounts/{id}/statement?from=&amp;to=</text></g><g class="message" data-entity-1="part3" data-entity-2="part4" id="msg8" data-source-line="35"><polygon points="768.2383,685.1719,778.2383,689.1719,768.2383,693.1719,772.2383,689.1719" fill="#181818" style="stroke:#181818;stroke-width:1;stroke-linejoin:miter;stroke-miterlimit:10;"/><line x1="548.2051" y1="689.1719" x2="774.2383" y2="689.1719" style="stroke:#181818;stroke-width:1;"/><text x="563.2051" y="676.3418" fill="#000000" font-size="12" lengthAdjust="spacing" textLength="197.0332" font-family="sans-serif">getStatement(accountId, period)</text></g><g class="message" data-entity-1="part4" data-entity-2="part5" id="msg9" data-source-line="37"><polygon points="1089.791,729.1406,1099.791,733.1406,1089.791,737.1406,1093.791,733.1406" fill="#181818" style="stroke:#181818;stroke-width:1;stroke-linejoin:miter;stroke-miterlimit:10;"/><line x1="790.2383" y1="733.1406" x2="1095.791" y2="733.1406" style="stroke:#181818;stroke-width:1;"/><text x="805.2383" y="720.3105" fill="#000000" font-size="12" lengthAdjust="spacing" textLength="191.2148" font-family="sans-serif">SELECT transactions du compte</text></g><g class="message" data-entity-1="part5" data-entity-2="part4" id="msg10" data-source-line="38"><polygon points="801.2383,773.1094,791.2383,777.1094,801.2383,781.1094,797.2383,777.1094" fill="#181818" style="stroke:#181818;stroke-width:1;stroke-linejoin:miter;stroke-miterlimit:10;"/><line x1="795.2383" y1="777.1094" x2="1100.791" y2="777.1094" style="stroke:#181818;stroke-width:1;stroke-dasharray:2,2;"/><text x="815.2383" y="764.2793" fill="#000000" font-size="12" lengthAdjust="spacing" textLength="124.5762" font-family="sans-serif">liste + solde courant</text></g><g class="message" data-entity-1="part4" data-entity-2="part3" id="msg11" data-source-line="39"><polygon points="559.2051,817.0781,549.2051,821.0781,559.2051,825.0781,555.2051,821.0781" fill="#181818" style="stroke:#181818;stroke-width:1;stroke-linejoin:miter;stroke-miterlimit:10;"/><line x1="553.2051" y1="821.0781" x2="784.2383" y2="821.0781" style="stroke:#181818;stroke-width:1;stroke-dasharray:2,2;"/><text x="573.2051" y="808.248" fill="#000000" font-size="12" lengthAdjust="spacing" textLength="37.5176" font-family="sans-serif">relevé</text></g><g class="message" data-entity-1="part3" data-entity-2="part1" id="msg12" data-source-line="41"><polygon points="59.7598,861.0469,49.7598,865.0469,59.7598,869.0469,55.7598,865.0469" fill="#181818" style="stroke:#181818;stroke-width:1;stroke-linejoin:miter;stroke-miterlimit:10;"/><line x1="53.7598" y1="865.0469" x2="542.2051" y2="865.0469" style="stroke:#181818;stroke-width:1;stroke-dasharray:2,2;"/><text x="73.7598" y="852.2168" fill="#000000" font-size="12" lengthAdjust="spacing" textLength="113.0215" font-family="sans-serif">Relevé imprimable</text></g><rect x="0" y="901.0313" width="1167.3994" height="3" fill="#EEEEEE" style="stroke:#EEEEEE;stroke-width:1;"/><line x1="0" y1="901.0313" x2="1167.3994" y2="901.0313" style="stroke:#000000;stroke-width:1;"/><line x1="0" y1="904.0313" x2="1167.3994" y2="904.0313" style="stroke:#000000;stroke-width:1;"/><rect x="518.687" y="883.0469" width="130.0254" height="37.9688" fill="#EEEEEE" style="stroke:#000000;stroke-width:2;"/><text x="532.687" y="906.1855" fill="#000000" font-size="12" lengthAdjust="spacing" textLength="95.8477" font-weight="700" font-family="sans-serif">Éditer un reçu</text><g class="message" data-entity-1="part1" data-entity-2="part2" id="msg13" data-source-line="46"><polygon points="367.377,962.9844,377.377,966.9844,367.377,970.9844,371.377,966.9844" fill="#181818" style="stroke:#181818;stroke-width:1;stroke-linejoin:miter;stroke-miterlimit:10;"/><line x1="48.7598" y1="966.9844" x2="373.377" y2="966.9844" style="stroke:#181818;stroke-width:1;"/><text x="63.7598" y="954.1543" fill="#000000" font-size="12" lengthAdjust="spacing" textLength="182.3672" font-family="sans-serif">GET /transactions/{id}/receipt</text></g><g class="message" data-entity-1="part2" data-entity-2="part4" id="msg14" data-source-line="48"><polygon points="768.2383,1006.9531,778.2383,1010.9531,768.2383,1014.9531,772.2383,1010.9531" fill="#181818" style="stroke:#181818;stroke-width:1;stroke-linejoin:miter;stroke-miterlimit:10;"/><line x1="389.377" y1="1010.9531" x2="774.2383" y2="1010.9531" style="stroke:#181818;stroke-width:1;"/><text x="404.377" y="998.123" fill="#000000" font-size="12" lengthAdjust="spacing" textLength="137.5781" font-family="sans-serif">findById(transactionId)</text></g><g class="message" data-entity-1="part4" data-entity-2="part5" id="msg15" data-source-line="50"><polygon points="1089.791,1050.9219,1099.791,1054.9219,1089.791,1058.9219,1093.791,1054.9219" fill="#181818" style="stroke:#181818;stroke-width:1;stroke-linejoin:miter;stroke-miterlimit:10;"/><line x1="790.2383" y1="1054.9219" x2="1095.791" y2="1054.9219" style="stroke:#181818;stroke-width:1;"/><text x="805.2383" y="1042.0918" fill="#000000" font-size="12" lengthAdjust="spacing" textLength="229.9043" font-family="sans-serif">SELECT transaction + comptes + user</text></g><g class="message" data-entity-1="part5" data-entity-2="part4" id="msg16" data-source-line="51"><polygon points="801.2383,1094.8906,791.2383,1098.8906,801.2383,1102.8906,797.2383,1098.8906" fill="#181818" style="stroke:#181818;stroke-width:1;stroke-linejoin:miter;stroke-miterlimit:10;"/><line x1="795.2383" y1="1098.8906" x2="1100.791" y2="1098.8906" style="stroke:#181818;stroke-width:1;stroke-dasharray:2,2;"/><text x="815.2383" y="1086.0605" fill="#000000" font-size="12" lengthAdjust="spacing" textLength="98.7129" font-family="sans-serif">détails complets</text></g><g class="message" data-entity-1="part4" data-entity-2="part2" id="msg17" data-source-line="52"><polygon points="400.377,1138.8594,390.377,1142.8594,400.377,1146.8594,396.377,1142.8594" fill="#181818" style="stroke:#181818;stroke-width:1;stroke-linejoin:miter;stroke-miterlimit:10;"/><line x1="394.377" y1="1142.8594" x2="784.2383" y2="1142.8594" style="stroke:#181818;stroke-width:1;stroke-dasharray:2,2;"/><text x="414.377" y="1130.0293" fill="#000000" font-size="12" lengthAdjust="spacing" textLength="67.7871" font-family="sans-serif">transaction</text></g><g class="message" data-entity-1="part2" data-entity-2="part1" id="msg18" data-source-line="54"><polygon points="59.7598,1182.8281,49.7598,1186.8281,59.7598,1190.8281,55.7598,1186.8281" fill="#181818" style="stroke:#181818;stroke-width:1;stroke-linejoin:miter;stroke-miterlimit:10;"/><line x1="53.7598" y1="1186.8281" x2="378.377" y2="1186.8281" style="stroke:#181818;stroke-width:1;stroke-dasharray:2,2;"/><text x="73.7598" y="1173.998" fill="#000000" font-size="12" lengthAdjust="spacing" textLength="148.5938" font-family="sans-serif">Reçu imprimable (HTML)</text></g><path d="M10,1201.8281 L93.5703,1201.8281 L93.5703,1223.7969 L83.5703,1233.7969 L10,1233.7969 L10,1201.8281" style="stroke:#000000;stroke-width:1.5;" fill="#EEEEEE"/><rect x="10" y="1201.8281" width="1147.3994" height="310.75" fill="none" style="stroke:#000000;stroke-width:1.5;"/><text x="33" y="1221.9668" fill="#000000" font-size="12" lengthAdjust="spacing" textLength="22.5703" font-weight="700" font-family="sans-serif">opt</text><text x="116.5703" y="1222.9668" fill="#000000" font-size="12" lengthAdjust="spacing" textLength="143.8535" font-weight="700" font-family="sans-serif">[Télécharger en PDF]</text><g class="message" data-entity-1="part1" data-entity-2="part2" id="msg19" data-source-line="57"><polygon points="367.377,1280.7344,377.377,1284.7344,367.377,1288.7344,371.377,1284.7344" fill="#181818" style="stroke:#181818;stroke-width:1;stroke-linejoin:miter;stroke-miterlimit:10;"/><line x1="48.7598" y1="1284.7344" x2="373.377" y2="1284.7344" style="stroke:#181818;stroke-width:1;"/><text x="63.7598" y="1271.9043" fill="#000000" font-size="12" lengthAdjust="spacing" textLength="205.6406" font-family="sans-serif">GET /transactions/{id}/receipt.pdf</text></g><g class="message" data-entity-1="part2" data-entity-2="part4" id="msg20" data-source-line="58"><polygon points="768.2383,1324.7031,778.2383,1328.7031,768.2383,1332.7031,772.2383,1328.7031" fill="#181818" style="stroke:#181818;stroke-width:1;stroke-linejoin:miter;stroke-miterlimit:10;"/><line x1="389.377" y1="1328.7031" x2="774.2383" y2="1328.7031" style="stroke:#181818;stroke-width:1;"/><text x="404.377" y="1315.873" fill="#000000" font-size="12" lengthAdjust="spacing" textLength="137.5781" font-family="sans-serif">findById(transactionId)</text></g><g class="message" data-entity-1="part4" data-entity-2="part5" id="msg21" data-source-line="60"><polygon points="1089.791,1368.6719,1099.791,1372.6719,1089.791,1376.6719,1093.791,1372.6719" fill="#181818" style="stroke:#181818;stroke-width:1;stroke-linejoin:miter;stroke-miterlimit:10;"/><line x1="790.2383" y1="1372.6719" x2="1095.791" y2="1372.6719" style="stroke:#181818;stroke-width:1;"/><text x="805.2383" y="1359.8418" fill="#000000" font-size="12" lengthAdjust="spacing" textLength="271.5527" font-family="sans-serif">SELECT transaction + bill_payment si facture</text></g><g class="message" data-entity-1="part5" data-entity-2="part4" id="msg22" data-source-line="61"><polygon points="801.2383,1412.6406,791.2383,1416.6406,801.2383,1420.6406,797.2383,1416.6406" fill="#181818" style="stroke:#181818;stroke-width:1;stroke-linejoin:miter;stroke-miterlimit:10;"/><line x1="795.2383" y1="1416.6406" x2="1100.791" y2="1416.6406" style="stroke:#181818;stroke-width:1;stroke-dasharray:2,2;"/><text x="815.2383" y="1403.8105" fill="#000000" font-size="12" lengthAdjust="spacing" textLength="98.7129" font-family="sans-serif">détails complets</text></g><g class="message" data-entity-1="part4" data-entity-2="part2" id="msg23" data-source-line="62"><polygon points="400.377,1456.6094,390.377,1460.6094,400.377,1464.6094,396.377,1460.6094" fill="#181818" style="stroke:#181818;stroke-width:1;stroke-linejoin:miter;stroke-miterlimit:10;"/><line x1="394.377" y1="1460.6094" x2="784.2383" y2="1460.6094" style="stroke:#181818;stroke-width:1;stroke-dasharray:2,2;"/><text x="414.377" y="1447.7793" fill="#000000" font-size="12" lengthAdjust="spacing" textLength="67.7871" font-family="sans-serif">transaction</text></g><g class="message" data-entity-1="part2" data-entity-2="part1" id="msg24" data-source-line="64"><polygon points="59.7598,1500.5781,49.7598,1504.5781,59.7598,1508.5781,55.7598,1504.5781" fill="#181818" style="stroke:#181818;stroke-width:1;stroke-linejoin:miter;stroke-miterlimit:10;"/><line x1="53.7598" y1="1504.5781" x2="378.377" y2="1504.5781" style="stroke:#181818;stroke-width:1;stroke-dasharray:2,2;"/><text x="73.7598" y="1491.748" fill="#000000" font-size="12" lengthAdjust="spacing" textLength="156.2168" font-family="sans-serif">fichier reçu-TYPE-date.pdf</text></g><?plantuml-src bPJFRjD04CRl-nIZ7aeg6WhbWYhSoabJcgg5K5j2I9NGrZjELcnspUwwfI0ahjnv1vJdy9lm98pj_B6hjBItnFFDD_FzCh7xB7N6BP-2ct1XhgKUGygLG-QM5OikCzhX6Jh7nzX3PQv3QyqrU9itXG9JdYj_PBIFv3U45xkDOjMnlZJYrij4Pbpx4HUYtE7by_NrCsx7KiDkizmpNnTjjsphXwyOyz8hXAYOVSbH9mX_V_w6O-cyiPAUR5D4XLV53D3Jn-9FpXXFg0ZX6BLdsMe-RCIMQqTLQNIVqbYZ5DeDu0xYVbiP9ed9jR-b2ljt-aLehsI2jLd41FVyaZk4ZP5nVcmnUdzQrGvxZ0K1aB4Zt6X1FPaimq0GC5Rj3TrzsWdsuCqWXXs_ckCE_4s6mIQl5mmsKskcmQOtGHbRNd6FPHZgBHqYSd38RJBffB8SvxOXeplOQeWZHZ8I7_P870rE1_qOcWClzCcxuLkO3oI3t97FXVvmF3WVG6bBHyQekxkOEA89hnjizgi9YqIsc9NHkNVbAbBJLoQmjK-_KjSWzY3cbmfvJYVgm6J5pF9ghrPJlw9Q_1AoP9hhvLMqY8PBeeiqEz-b-B7ZQ1kSakXW3KtwqSCLpJ7wQA7kp5s6WgYYbKOyXYk8718ppJosu2cw1eIdu8mII8ASMlm2O1LW7kqMjB0DxNoUNqupAwSbmQO-NCEB_ZeFkR-QcCK4PURlkhbKQj6x6OfEetFu63e4e6RZw5DvS2r6efXvBfMhD0gzQnrOm-R-mpglCgy8GUSuFZlTOina7k9YfefPCg6N5X523QF38mRm63hFCf5IomEu03JN1FWVcqkfrAUCtvHN24xIQp_nkKNgl1zJxRmE540RLRrs0rOgauaa4jMXTEEFeq6NNd9OPKGjsl_6Vm00?></g></svg>