<svg xmlns="http://www.w3.org/2000/svg" xmlns:xlink="http://www.w3.org/1999/xlink" version="1.1" data-diagram-type="SEQUENCE" style="width:1110px;height:904px;background:#FFFFFF;" width="1110px" height="904px" viewBox="0 0 1110 904" zoomAndPan="magnify" preserveAspectRatio="none" contentStyleType="text/css"><?plantuml 1.2026.7beta3?><defs/><g><g class="title" data-source-line="4"><text x="400.2366" y="27.9951" fill="#000000" font-size="14" lengthAdjust="spacing" textLength="303.0234" font-weight="700" font-family="sans-serif">Séquence — Historique, relevé et reçu</text></g><g><title>TransactionController</title><rect x="367.9717" y="192.8594" width="10" height="175.9297" fill="#FFFFFF" style="stroke:#181818;stroke-width:1;"/></g><g><title>TransactionController</title><rect x="367.9717" y="658.9844" width="10" height="145.6641" fill="#FFFFFF" style="stroke:#181818;stroke-width:1;"/></g><g><title>AccountController</title><rect x="530.6045" y="441.0547" width="10" height="145.6641" fill="#FFFFFF" style="stroke:#181818;stroke-width:1;"/></g><g><title>TransactionService</title><rect x="773.0571" y="221.9922" width="10" height="117.6641" fill="#FFFFFF" style="stroke:#181818;stroke-width:1;"/></g><g><title>TransactionService</title><rect x="773.0571" y="470.1875" width="10" height="87.3984" fill="#FFFFFF" style="stroke:#181818;stroke-width:1;"/></g><g><title>TransactionService</title><rect x="773.0571" y="688.1172" width="10" height="87.3984" fill="#FFFFFF" style="stroke:#181818;stroke-width:1;"/></g><g class="participant-lifeline" data-qualified-name="Agent" data-entity-uid="part1" id="part1-lifeline" data-source-line="6"><g><title>Agent</title><rect x="24.7197" y="118.5938" width="8" height="704.0547" fill="#000000" fill-opacity="0.00000"/><line x1="28" y1="118.5938" x2="28" y2="822.6484" style="stroke:#181818;stroke-width:0.5;stroke-dasharray:5,5;"/></g></g><g class="participant-lifeline" data-qualified-name="TC" data-entity-uid="part2" id="part2-lifeline" data-source-line="7"><g><title>TransactionController</title><rect x="368.9717" y="118.5938" width="8" height="704.0547" fill="#000000" fill-opacity="0.00000"/><line x1="372.3115" y1="118.5938" x2="372.3115" y2="822.6484" style="stroke:#181818;stroke-width:0.5;stroke-dasharray:5,5;"/></g></g><g class="participant-lifeline" data-qualified-name="AC" data-entity-uid="part3" id="part3-lifeline" data-source-line="8"><g><title>AccountController</title><rect x="531.6045" y="118.5938" width="8" height="704.0547" fill="#000000" fill-opacity="0.00000"/><line x1="534.6318" y1="118.5938" x2="534.6318" y2="822.6484" style="stroke:#181818;stroke-width:0.5;stroke-dasharray:5,5;"/></g></g><g class="participant-lifeline" data-qualified-name="TS" data-entity-uid="part4" id="part4-lifeline" data-source-line="9"><g><title>TransactionService</title><rect x="774.0571" y="118.5938" width="8" height="704.0547" fill="#000000" fill-opacity="0.00000"/><line x1="777.1128" y1="118.5938" x2="777.1128" y2="822.6484" style="stroke:#181818;stroke-width:0.5;stroke-dasharray:5,5;"/></g></g><g class="participant-lifeline" data-qualified-name="DB" data-entity-uid="part5" id="part5-lifeline" data-source-line="10"><g><title>PostgreSQL</title><rect x="1052.1201" y="118.5938" width="8" height="704.0547" fill="#000000" fill-opacity="0.00000"/><line x1="1055.7437" y1="118.5938" x2="1055.7437" y2="822.6484" style="stroke:#181818;stroke-width:0.5;stroke-dasharray:5,5;"/></g></g><g class="participant participant-head" data-qualified-name="Agent" data-entity-uid="part1" id="part1-head" data-source-line="6"><text x="5" y="115.292" fill="#000000" font-size="14" lengthAdjust="spacing" textLength="41.4395" font-family="sans-serif">Agent</text><ellipse cx="28.7197" cy="50.7969" rx="8" ry="8" fill="#E2E2F0" style="stroke:#181818;stroke-width:0.5;"/><path d="M28.7197,58.7969 L28.7197,85.7969 M15.7197,66.7969 L41.7197,66.7969 M28.7197,85.7969 L15.7197,100.7969 M28.7197,85.7969 L41.7197,100.7969" style="stroke:#181818;stroke-width:0.5;" fill="none"/></g><g class="participant participant-tail" data-qualified-name="Agent" data-entity-uid="part1" id="part1-tail" data-source-line="6"><text x="5" y="834.6436" fill="#000000" font-size="14" lengthAdjust="spacing" textLength="41.4395" font-family="sans-serif">Agent</text><ellipse cx="28.7197" cy="846.4453" rx="8" ry="8" fill="#E2E2F0" style="stroke:#181818;stroke-width:0.5;"/><path d="M28.7197,854.4453 L28.7197,881.4453 M15.7197,862.4453 L41.7197,862.4453 M28.7197,881.4453 L15.7197,896.4453 M28.7197,881.4453 L41.7197,896.4453" style="stroke:#181818;stroke-width:0.5;" fill="none"/></g><g class="participant participant-head" data-qualified-name="TC" data-entity-uid="part2" id="part2-head" data-source-line="7"><rect x="290.3115" y="87.2969" width="165.3203" height="30.2969" fill="#E2E2F0" style="stroke:#181818;stroke-width:0.5;" rx="2.5" ry="2.5"/><text x="297.3115" y="107.292" fill="#000000" font-size="14" lengthAdjust="spacing" textLength="151.3203" font-family="sans-serif">TransactionController</text></g><g class="participant participant-tail" data-qualified-name="TC" data-entity-uid="part2" id="part2-tail" data-source-line="7"><rect x="290.3115" y="821.6484" width="165.3203" height="30.2969" fill="#E2E2F0" style="stroke:#181818;stroke-width:0.5;" rx="2.5" ry="2.5"/><text x="297.3115" y="841.6436" fill="#000000" font-size="14" lengthAdjust="spacing" textLength="151.3203" font-family="sans-serif">TransactionController</text></g><g class="participant participant-head" data-qualified-name="AC" data-entity-uid="part3" id="part3-head" data-source-line="8"><rect x="465.6318" y="87.2969" width="139.9453" height="30.2969" fill="#E2E2F0" style="stroke:#181818;stroke-width:0.5;" rx="2.5" ry="2.5"/><text x="472.6318" y="107.292" fill="#000000" font-size="14" lengthAdjust="spacing" textLength="125.9453" font-family="sans-serif">AccountController</text></g><g class="participant participant-tail" data-qualified-name="AC" data-entity-uid="part3" id="part3-tail" data-source-line="8"><rect x="465.6318" y="821.6484" width="139.9453" height="30.2969" fill="#E2E2F0" style="stroke:#181818;stroke-width:0.5;" rx="2.5" ry="2.5"/><text x="472.6318" y="841.6436" fill="#000000" font-size="14" lengthAdjust="spacing" textLength="125.9453" font-family="sans-serif">AccountController</text></g><g class="participant participant-head" data-qualified-name="TS" data-entity-uid="part4" id="part4-head" data-source-line="9"><rect x="704.1128" y="87.2969" width="147.8887" height="30.2969" fill="#E2E2F0" style="stroke:#181818;stroke-width:0.5;" rx="2.5" ry="2.5"/><text x="711.1128" y="107.292" fill="#000000" font-size="14" lengthAdjust="spacing" textLength="133.8887" font-family="sans-serif">TransactionService</text></g><g class="participant participant-tail" data-qualified-name="TS" data-entity-uid="part4" id="part4-tail" data-source-line="9"><rect x="704.1128" y="821.6484" width="147.8887" height="30.2969" fill="#E2E2F0" style="stroke:#181818;stroke-width:0.5;" rx="2.5" ry="2.5"/><text x="711.1128" y="841.6436" fill="#000000" font-size="14" lengthAdjust="spacing" textLength="133.8887" font-family="sans-serif">TransactionService</text></g><g class="participant participant-head" data-qualified-name="DB" data-entity-uid="part5" id="part5-head" data-source-line="10"><text x="1012.7437" y="115.292" fill="#000000" font-size="14" lengthAdjust="spacing" textLength="80.7529" font-family="sans-serif">PostgreSQL</text><path d="M1038.1201,66.2969 C1038.1201,56.2969 1056.1201,56.2969 1056.1201,56.2969 C1056.1201,56.2969 1074.1201,56.2969 1074.1201,66.2969 L1074.1201,92.2969 C1074.1201,102.2969 1056.1201,102.2969 1056.1201,102.2969 C1056.1201,102.2969 1038.1201,102.2969 1038.1201,92.2969 L1038.1201,66.2969" style="stroke:#181818;stroke-width:0.5;" fill="#E2E2F0"/><path d="M1038.1201,66.2969 C1038.1201,76.2969 1056.1201,76.2969 1056.1201,76.2969 C1056.1201,76.2969 1074.1201,76.2969 1074.1201,66.2969" style="stroke:#181818;stroke-width:0.5;" fill="none"/></g><g class="participant participant-tail" data-qualified-name="DB" data-entity-uid="part5" id="part5-tail" data-source-line="10"><text x="1012.7437" y="834.6436" fill="#000000" font-size="14" lengthAdjust="spacing" textLength="80.7529" font-family="sans-serif">PostgreSQL</text><path d="M1038.1201,847.9453 C1038.1201,837.9453 1056.1201,837.9453 1056.1201,837.9453 C1056.1201,837.9453 1074.1201,837.9453 1074.1201,847.9453 L1074.1201,873.9453 C1074.1201,883.9453 1056.1201,883.9453 1056.1201,883.9453 C1056.1201,883.9453 1038.1201,883.9453 1038.1201,873.9453 L1038.1201,847.9453" style="stroke:#181818;stroke-width:0.5;" fill="#E2E2F0"/><path d="M1038.1201,847.9453 C1038.1201,857.9453 1056.1201,857.9453 1056.1201,857.9453 C1056.1201,857.9453 1074.1201,857.9453 1074.1201,847.9453" style="stroke:#181818;stroke-width:0.5;" fill="none"/></g><g><title>TransactionController</title><rect x="367.9717" y="192.8594" width="10" height="175.9297" fill="#FFFFFF" style="stroke:#181818;stroke-width:1;"/></g><g><title>TransactionController</title><rect x="367.9717" y="658.9844" width="10" height="145.6641" fill="#FFFFFF" style="stroke:#181818;stroke-width:1;"/></g><g><title>AccountController</title><rect x="530.6045" y="441.0547" width="10" height="145.6641" fill="#FFFFFF" style="stroke:#181818;stroke-width:1;"/></g><g><title>TransactionService</title><rect x="773.0571" y="221.9922" width="10" height="117.6641" fill="#FFFFFF" style="stroke:#181818;stroke-width:1;"/></g><g><title>TransactionService</title><rect x="773.0571" y="470.1875" width="10" height="87.3984" fill="#FFFFFF" style="stroke:#181818;stroke-width:1;"/></g><g><title>TransactionService</title><rect x="773.0571" y="688.1172" width="10" height="87.3984" fill="#FFFFFF" style="stroke:#181818;stroke-width:1;"/></g><rect x="0" y="149.1602" width="1104.4966" height="3" fill="#EEEEEE" style="stroke:#EEEEEE;stroke-width:1;"/><line x1="0" y1="149.1602" x2="1104.4966" y2="149.1602" style="stroke:#000000;stroke-width:1;"/><line x1="0" y1="152.1602" x2="1104.4966" y2="152.1602" style="stroke:#000000;stroke-width:1;"/><rect x="463.7761" y="138.5938" width="176.9443" height="23.1328" fill="#EEEEEE" style="stroke:#000000;stroke-width:2;"/><text x="469.7761" y="154.6606" fill="#000000" font-size="13" lengthAdjust="spacing" textLength="158.4185" font-weight="700" font-family="sans-serif">Consulter l'historique</text><g class="message" data-entity-1="part1" data-entity-2="part2" id="msg1" data-source-line="14"><polygon points="355.9717,188.8594,365.9717,192.8594,355.9717,196.8594,359.9717,192.8594" fill="#181818" style="stroke:#181818;stroke-width:1;stroke-linejoin:miter;stroke-miterlimit:10;"/><line x1="28.7197" y1="192.8594" x2="361.9717" y2="192.8594" style="stroke:#181818;stroke-width:1;"/><text x="35.7197" y="187.7935" fill="#000000" font-size="13" lengthAdjust="spacing" textLength="320.252" font-family="sans-serif">GET /transactions?type=&amp;account=&amp;from=&amp;to=</text></g><g class="message" data-entity-1="part2" data-entity-2="part4" id="msg2" data-source-line="16"><polygon points="761.0571,217.9922,771.0571,221.9922,761.0571,225.9922,765.0571,221.9922" fill="#181818" style="stroke:#181818;stroke-width:1;stroke-linejoin:miter;stroke-miterlimit:10;"/><line x1="377.9717" y1="221.9922" x2="767.0571" y2="221.9922" style="stroke:#181818;stroke-width:1;"/><text x="384.9717" y="216.9263" fill="#000000" font-size="13" lengthAdjust="spacing" textLength="131.3584" font-family="sans-serif">search(filters, page)</text></g><g class="message" data-entity-1="part4" data-entity-2="part5" id="msg3" data-source-line="18"><polygon points="1044.1201,277.3906,1054.1201,281.3906,1044.1201,285.3906,1048.1201,281.3906" fill="#181818" style="stroke:#181818;stroke-width:1;stroke-linejoin:miter;stroke-miterlimit:10;"/><line x1="783.0571" y1="281.3906" x2="1050.1201" y2="281.3906" style="stroke:#181818;stroke-width:1;"/><text x="790.0571" y="246.0591" fill="#000000" font-size="13" lengthAdjust="spacing" textLength="133.2817" font-family="sans-serif">SELECT transactions</text><text x="790.0571" y="261.1919" fill="#000000" font-size="13" lengthAdjust="spacing" textLength="133.7134" font-family="sans-serif">JOIN accounts, users</text><text x="790.0571" y="276.3247" fill="#000000" font-size="13" lengthAdjust="spacing" textLength="89.2354" font-family="sans-serif">WHERE filtres</text></g><g class="message" data-entity-1="part5" data-entity-2="part4" id="msg4" data-source-line="19"><polygon points="794.0571,306.5234,784.0571,310.5234,794.0571,314.5234,790.0571,310.5234" fill="#181818" style="stroke:#181818;stroke-width:1;stroke-linejoin:miter;stroke-miterlimit:10;"/><line x1="788.0571" y1="310.5234" x2="1055.1201" y2="310.5234" style="stroke:#181818;stroke-width:1;stroke-dasharray:2,2;"/><text x="800.0571" y="305.4575" fill="#000000" font-size="13" lengthAdjust="spacing" textLength="130.1206" font-family="sans-serif">Page&lt;Transaction></text></g><g class="message" data-entity-1="part4" data-entity-2="part2" id="msg5" data-source-line="20"><polygon points="388.9717,335.6563,378.9717,339.6563,388.9717,343.6563,384.9717,339.6563" fill="#181818" style="stroke:#181818;stroke-width:1;stroke-linejoin:miter;stroke-miterlimit:10;"/><line x1="382.9717" y1="339.6563" x2="777.0571" y2="339.6563" style="stroke:#181818;stroke-width:1;stroke-dasharray:2,2;"/><text x="394.9717" y="334.5903" fill="#000000" font-size="13" lengthAdjust="spacing" textLength="112.125" font-family="sans-serif">résultats paginés</text></g><g class="message" data-entity-1="part2" data-entity-2="part1" id="msg6" data-source-line="22"><polygon points="39.7197,364.7891,29.7197,368.7891,39.7197,372.7891,35.7197,368.7891" fill="#181818" style="stroke:#181818;stroke-width:1;stroke-linejoin:miter;stroke-miterlimit:10;"/><line x1="33.7197" y1="368.7891" x2="371.9717" y2="368.7891" style="stroke:#181818;stroke-width:1;stroke-dasharray:2,2;"/><text x="45.7197" y="363.7231" fill="#000000" font-size="13" lengthAdjust="spacing" textLength="152.4517" font-family="sans-serif">Tableau des opérations</text></g><rect x="0" y="397.3555" width="1104.4966" height="3" fill="#EEEEEE" style="stroke:#EEEEEE;stroke-width:1;"/><line x1="0" y1="397.3555" x2="1104.4966" y2="397.3555" style="stroke:#000000;stroke-width:1;"/><line x1="0" y1="400.3555" x2="1104.4966" y2="400.3555" style="stroke:#000000;stroke-width:1;"/><rect x="484.2664" y="386.7891" width="135.9639" height="23.1328" fill="#EEEEEE" style="stroke:#000000;stroke-width:2;"/><text x="490.2664" y="402.856" fill="#000000" font-size="13" lengthAdjust="spacing" textLength="117.438" font-weight="700" font-family="sans-serif">Éditer un relevé</text><g class="message" data-entity-1="part1" data-entity-2="part3" id="msg7" data-source-line="27"><polygon points="518.6045,437.0547,528.6045,441.0547,518.6045,445.0547,522.6045,441.0547" fill="#181818" style="stroke:#181818;stroke-width:1;stroke-linejoin:miter;stroke-miterlimit:10;"/><line x1="28.7197" y1="441.0547" x2="524.6045" y2="441.0547" style="stroke:#181818;stroke-width:1;"/><text x="35.7197" y="435.9888" fill="#000000" font-size="13" lengthAdjust="spacing" textLength="279.811" font-family="sans-serif">GET /accounts/{id}/statement?from=&amp;to=</text></g><g class="message" data-entity-1="part3" data-entity-2="part4" id="msg8" data-source-line="29"><polygon points="761.0571,466.1875,771.0571,470.1875,761.0571,474.1875,765.0571,470.1875" fill="#181818" style="stroke:#181818;stroke-width:1;stroke-linejoin:miter;stroke-miterlimit:10;"/><line x1="540.6045" y1="470.1875" x2="767.0571" y2="470.1875" style="stroke:#181818;stroke-width:1;"/><text x="547.6045" y="465.1216" fill="#000000" font-size="13" lengthAdjust="spacing" textLength="213.4526" font-family="sans-serif">getStatement(accountId, period)</text></g><g class="message" data-entity-1="part4" data-entity-2="part5" id="msg9" data-source-line="31"><polygon points="1044.1201,495.3203,1054.1201,499.3203,1044.1201,503.3203,1048.1201,499.3203" fill="#181818" style="stroke:#181818;stroke-width:1;stroke-linejoin:miter;stroke-miterlimit:10;"/><line x1="783.0571" y1="499.3203" x2="1050.1201" y2="499.3203" style="stroke:#181818;stroke-width:1;"/><text x="790.0571" y="494.2544" fill="#000000" font-size="13" lengthAdjust="spacing" textLength="207.1494" font-family="sans-serif">SELECT transactions du compte</text></g><g class="message" data-entity-1="part5" data-entity-2="part4" id="msg10" data-source-line="32"><polygon points="794.0571,524.4531,784.0571,528.4531,794.0571,532.4531,790.0571,528.4531" fill="#181818" style="stroke:#181818;stroke-width:1;stroke-linejoin:miter;stroke-miterlimit:10;"/><line x1="788.0571" y1="528.4531" x2="1055.1201" y2="528.4531" style="stroke:#181818;stroke-width:1;stroke-dasharray:2,2;"/><text x="800.0571" y="523.3872" fill="#000000" font-size="13" lengthAdjust="spacing" textLength="134.9575" font-family="sans-serif">liste + solde courant</text></g><g class="message" data-entity-1="part4" data-entity-2="part3" id="msg11" data-source-line="33"><polygon points="551.6045,553.5859,541.6045,557.5859,551.6045,561.5859,547.6045,557.5859" fill="#181818" style="stroke:#181818;stroke-width:1;stroke-linejoin:miter;stroke-miterlimit:10;"/><line x1="545.6045" y1="557.5859" x2="777.0571" y2="557.5859" style="stroke:#181818;stroke-width:1;stroke-dasharray:2,2;"/><text x="557.6045" y="552.52" fill="#000000" font-size="13" lengthAdjust="spacing" textLength="40.644" font-family="sans-serif">relevé</text></g><g class="message" data-entity-1="part3" data-entity-2="part1" id="msg12" data-source-line="35"><polygon points="39.7197,582.7188,29.7197,586.7188,39.7197,590.7188,35.7197,586.7188" fill="#181818" style="stroke:#181818;stroke-width:1;stroke-linejoin:miter;stroke-miterlimit:10;"/><line x1="33.7197" y1="586.7188" x2="534.6045" y2="586.7188" style="stroke:#181818;stroke-width:1;stroke-dasharray:2,2;"/><text x="45.7197" y="581.6528" fill="#000000" font-size="13" lengthAdjust="spacing" textLength="122.4399" font-family="sans-serif">Relevé imprimable</text></g><rect x="0" y="615.2852" width="1104.4966" height="3" fill="#EEEEEE" style="stroke:#EEEEEE;stroke-width:1;"/><line x1="0" y1="615.2852" x2="1104.4966" y2="615.2852" style="stroke:#000000;stroke-width:1;"/><line x1="0" y1="618.2852" x2="1104.4966" y2="618.2852" style="stroke:#000000;stroke-width:1;"/><rect x="491.0679" y="604.7188" width="122.3608" height="23.1328" fill="#EEEEEE" style="stroke:#000000;stroke-width:2;"/><text x="497.0679" y="620.7856" fill="#000000" font-size="13" lengthAdjust="spacing" textLength="103.835" font-weight="700" font-family="sans-serif">Éditer un reçu</text><g class="message" data-entity-1="part1" data-entity-2="part2" id="msg13" data-source-line="40"><polygon points="355.9717,654.9844,365.9717,658.9844,355.9717,662.9844,359.9717,658.9844" fill="#181818" style="stroke:#181818;stroke-width:1;stroke-linejoin:miter;stroke-miterlimit:10;"/><line x1="28.7197" y1="658.9844" x2="361.9717" y2="658.9844" style="stroke:#181818;stroke-width:1;"/><text x="35.7197" y="653.9185" fill="#000000" font-size="13" lengthAdjust="spacing" textLength="197.5645" font-family="sans-serif">GET /transactions/{id}/receipt</text></g><g class="message" data-entity-1="part2" data-entity-2="part4" id="msg14" data-source-line="42"><polygon points="761.0571,684.1172,771.0571,688.1172,761.0571,692.1172,765.0571,688.1172" fill="#181818" style="stroke:#181818;stroke-width:1;stroke-linejoin:miter;stroke-miterlimit:10;"/><line x1="377.9717" y1="688.1172" x2="767.0571" y2="688.1172" style="stroke:#181818;stroke-width:1;"/><text x="384.9717" y="683.0513" fill="#000000" font-size="13" lengthAdjust="spacing" textLength="166.1499" font-family="sans-serif">getReceipt(transactionId)</text></g><g class="message" data-entity-1="part4" data-entity-2="part5" id="msg15" data-source-line="44"><polygon points="1044.1201,713.25,1054.1201,717.25,1044.1201,721.25,1048.1201,717.25" fill="#181818" style="stroke:#181818;stroke-width:1;stroke-linejoin:miter;stroke-miterlimit:10;"/><line x1="783.0571" y1="717.25" x2="1050.1201" y2="717.25" style="stroke:#181818;stroke-width:1;"/><text x="790.0571" y="712.1841" fill="#000000" font-size="13" lengthAdjust="spacing" textLength="249.063" font-family="sans-serif">SELECT transaction + comptes + user</text></g><g class="message" data-entity-1="part5" data-entity-2="part4" id="msg16" data-source-line="45"><polygon points="794.0571,742.3828,784.0571,746.3828,794.0571,750.3828,790.0571,746.3828" fill="#181818" style="stroke:#181818;stroke-width:1;stroke-linejoin:miter;stroke-miterlimit:10;"/><line x1="788.0571" y1="746.3828" x2="1055.1201" y2="746.3828" style="stroke:#181818;stroke-width:1;stroke-dasharray:2,2;"/><text x="800.0571" y="741.3169" fill="#000000" font-size="13" lengthAdjust="spacing" textLength="106.939" font-family="sans-serif">détails complets</text></g><g class="message" data-entity-1="part4" data-entity-2="part2" id="msg17" data-source-line="46"><polygon points="388.9717,771.5156,378.9717,775.5156,388.9717,779.5156,384.9717,775.5156" fill="#181818" style="stroke:#181818;stroke-width:1;stroke-linejoin:miter;stroke-miterlimit:10;"/><line x1="382.9717" y1="775.5156" x2="777.0571" y2="775.5156" style="stroke:#181818;stroke-width:1;stroke-dasharray:2,2;"/><text x="394.9717" y="770.4497" fill="#000000" font-size="13" lengthAdjust="spacing" textLength="28.7295" font-family="sans-serif">reçu</text></g><g class="message" data-entity-1="part2" data-entity-2="part1" id="msg18" data-source-line="48"><polygon points="39.7197,800.6484,29.7197,804.6484,39.7197,808.6484,35.7197,804.6484" fill="#181818" style="stroke:#181818;stroke-width:1;stroke-linejoin:miter;stroke-miterlimit:10;"/><line x1="33.7197" y1="804.6484" x2="371.9717" y2="804.6484" style="stroke:#181818;stroke-width:1;stroke-dasharray:2,2;"/><text x="45.7197" y="799.5825" fill="#000000" font-size="13" lengthAdjust="spacing" textLength="110.5254" font-family="sans-serif">Reçu imprimable</text></g><?plantuml-src bPJ1RjD048Rl-nIZ748GhNAlS2l7ZMXGWH97ujBBrfucApQxPcUS224ahjnv1vJdy9lm98pj98sh5D6RxVtdd_a_ZqsVZIjqq4kWXSxzshWvt6jBg6X_4f0AxmZV8P6UumYjNySX-3LmA54fDcmHqchpfKIN8VpvyGkk3B4FHfwSIBt5LRK1PBciVfTAwKmE8PwZOoKzs6Icq8wXDmlQaPmQxnBlE7XhCVH04yoIhZBECbywVgIAaoVzKWmhas5hbgfSixxJXD2xySJpWEd7w-RiSgHK584OKsaP0zWNYtqOY2AbchdXz5ncWZDuCvx1a1_wq0L_BJ3gwtR0g7yV_3Bgiu_gs6Qb6UimKbixfE90g4Es6DoRkXsTG26GNnw8KoKo4L-EH9oEhyV930uRthgt7oRlOTjG34eIdrltwMey7KDjAszGIVNfhkEDT7XzmEQywR1B5AfD7LqprQCO9xSgnyuyIQDkGPp1JDzPr2NaIE2BQXDqCrUdA6ceLZzpKpCjtNuhEaJZFT5Tck4tatyVaao3In5T7A4fBpr-e3b7JdVgmTPbaWjL3CRdp-4AUGcPNnQC7NXMjW7X5P2tEOgWb1BU0Mm2RACzWXPteKst-Sso26PP4ppKnqTuoQVpF_lN4WkOeIdugPqJIjDMCJYedJo7Zo1ewP1SrIlNePHN6zR6KgEnoDHTiUO_yC-bcZPvZzEP9Ny1?></g></svg>