<svg xmlns="http://www.w3.org/2000/svg" xmlns:xlink="http://www.w3.org/1999/xlink" contentStyleType="text/css" height="833px" preserveAspectRatio="none" style="width:910px;height:833px;background:#FFFFFF;" version="1.1" viewBox="0 0 910 833" width="910px" zoomAndPan="magnify"><title>S&#233;quence &#8212; Gestion des utilisateurs</title><defs/><g><text fill="#000000" font-family="sans-serif" font-size="14" font-weight="bold" lengthAdjust="spacing" textLength="247.0645" x="327.917" y="29.5332">S&#233;quence &#8212; Gestion des utilisateurs</text><rect fill="#FFFFFF" height="225.4609" style="stroke:#181818;stroke-width:1;" width="10" x="369.8008" y="197.9219"/><rect fill="#FFFFFF" height="182.1094" style="stroke:#181818;stroke-width:1;" width="10" x="369.8008" y="498.0859"/><rect fill="#FFFFFF" height="164.7578" style="stroke:#181818;stroke-width:1;" width="10" x="510.0815" y="228.2734"/><rect fill="#FFFFFF" height="121.4063" style="stroke:#181818;stroke-width:1;" width="10" x="510.0815" y="528.4375"/><line style="stroke:#181818;stroke-width:0.5;stroke-dasharray:5.0,5.0;" x1="53" x2="53" y1="121.2188" y2="750.8984"/><line style="stroke:#181818;stroke-width:0.5;stroke-dasharray:5.0,5.0;" x1="374.6768" x2="374.6768" y1="121.2188" y2="750.8984"/><line style="stroke:#181818;stroke-width:0.5;stroke-dasharray:5.0,5.0;" x1="514.9609" x2="514.9609" y1="121.2188" y2="750.8984"/><line style="stroke:#181818;stroke-width:0.5;stroke-dasharray:5.0,5.0;" x1="729.4204" x2="729.4204" y1="121.2188" y2="750.8984"/><line style="stroke:#181818;stroke-width:0.5;stroke-dasharray:5.0,5.0;" x1="857.6367" x2="857.6367" y1="121.2188" y2="750.8984"/><text fill="#000000" font-family="sans-serif" font-size="14" lengthAdjust="spacing" textLength="90.2549" x="5" y="118.1426">Administrateur</text><ellipse cx="53.1274" cy="52.1094" fill="#E2E2F0" rx="8" ry="8" style="stroke:#181818;stroke-width:0.5;"/><path d="M53.1274,60.1094 L53.1274,87.1094 M40.1274,68.1094 L66.1274,68.1094 M53.1274,87.1094 L40.1274,102.1094 M53.1274,87.1094 L66.1274,102.1094 " fill="none" style="stroke:#181818;stroke-width:0.5;"/><text fill="#000000" font-family="sans-serif" font-size="14" lengthAdjust="spacing" textLength="90.2549" x="5" y="764.4316">Administrateur</text><ellipse cx="53.1274" cy="776.0078" fill="#E2E2F0" rx="8" ry="8" style="stroke:#181818;stroke-width:0.5;"/><path d="M53.1274,784.0078 L53.1274,811.0078 M40.1274,792.0078 L66.1274,792.0078 M53.1274,811.0078 L40.1274,826.0078 M53.1274,811.0078 L66.1274,826.0078 " fill="none" style="stroke:#181818;stroke-width:0.5;"/><rect fill="#E2E2F0" height="31.6094" rx="2.5" ry="2.5" style="stroke:#181818;stroke-width:0.5;" width="104.248" x="322.6768" y="88.6094"/><text fill="#000000" font-family="sans-serif" font-size="14" lengthAdjust="spacing" textLength="90.248" x="329.6768" y="110.1426">UserController</text><rect fill="#E2E2F0" height="31.6094" rx="2.5" ry="2.5" style="stroke:#181818;stroke-width:0.5;" width="104.248" x="322.6768" y="749.8984"/><text fill="#000000" font-family="sans-serif" font-size="14" lengthAdjust="spacing" textLength="90.248" x="329.6768" y="771.4316">UserController</text><rect fill="#E2E2F0" height="31.6094" rx="2.5" ry="2.5" style="stroke:#181818;stroke-width:0.5;" width="90.2412" x="469.9609" y="88.6094"/><text fill="#000000" font-family="sans-serif" font-size="14" lengthAdjust="spacing" textLength="76.2412" x="476.9609" y="110.1426">UserService</text><rect fill="#E2E2F0" height="31.6094" rx="2.5" ry="2.5" style="stroke:#181818;stroke-width:0.5;" width="90.2412" x="469.9609" y="749.8984"/><text fill="#000000" font-family="sans-serif" font-size="14" lengthAdjust="spacing" textLength="76.2412" x="476.9609" y="771.4316">UserService</text><rect fill="#E2E2F0" height="31.6094" rx="2.5" ry="2.5" style="stroke:#181818;stroke-width:0.5;" width="92.5928" x="683.4204" y="88.6094"/><text fill="#000000" font-family="sans-serif" font-size="14" lengthAdjust="spacing" textLength="78.5928" x="690.4204" y="110.1426">AuditService</text><rect fill="#E2E2F0" height="31.6094" rx="2.5" ry="2.5" style="stroke:#181818;stroke-width:0.5;" width="92.5928" x="683.4204" y="749.8984"/><text fill="#000000" font-family="sans-serif" font-size="14" lengthAdjust="spacing" textLength="78.5928" x="690.4204" y="771.4316">AuditService</text><text fill="#000000" font-family="sans-serif" font-size="14" lengthAdjust="spacing" textLength="76.2617" x="816.6367" y="118.1426">PostgreSQL</text><path d="M839.7676,67.6094 C839.7676,57.6094 857.7676,57.6094 857.7676,57.6094 C857.7676,57.6094 875.7676,57.6094 875.7676,67.6094 L875.7676,93.6094 C875.7676,103.6094 857.7676,103.6094 857.7676,103.6094 C857.7676,103.6094 839.7676,103.6094 839.7676,93.6094 L839.7676,67.6094 " fill="#E2E2F0" style="stroke:#181818;stroke-width:1.5;"/><path d="M839.7676,67.6094 C839.7676,77.6094 857.7676,77.6094 857.7676,77.6094 C857.7676,77.6094 875.7676,77.6094 875.7676,67.6094 " fill="none" style="stroke:#181818;stroke-width:1.5;"/><text fill="#000000" font-family="sans-serif" font-size="14" lengthAdjust="spacing" textLength="76.2617" x="816.6367" y="764.4316">PostgreSQL</text><path d="M839.7676,777.5078 C839.7676,767.5078 857.7676,767.5078 857.7676,767.5078 C857.7676,767.5078 875.7676,767.5078 875.7676,777.5078 L875.7676,803.5078 C875.7676,813.5078 857.7676,813.5078 857.7676,813.5078 C857.7676,813.5078 839.7676,813.5078 839.7676,803.5078 L839.7676,777.5078 " fill="#E2E2F0" style="stroke:#181818;stroke-width:1.5;"/><path d="M839.7676,777.5078 C839.7676,787.5078 857.7676,787.5078 857.7676,787.5078 C857.7676,787.5078 875.7676,787.5078 875.7676,777.5078 " fill="none" style="stroke:#181818;stroke-width:1.5;"/><rect fill="#FFFFFF" height="225.4609" style="stroke:#181818;stroke-width:1;" width="10" x="369.8008" y="197.9219"/><rect fill="#FFFFFF" height="182.1094" style="stroke:#181818;stroke-width:1;" width="10" x="369.8008" y="498.0859"/><rect fill="#FFFFFF" height="164.7578" style="stroke:#181818;stroke-width:1;" width="10" x="510.0815" y="228.2734"/><rect fill="#FFFFFF" height="121.4063" style="stroke:#181818;stroke-width:1;" width="10" x="510.0815" y="528.4375"/><rect fill="#EEEEEE" height="3" style="stroke:#EEEEEE;stroke-width:1;" width="903.8984" x="0" y="152.3945"/><line style="stroke:#000000;stroke-width:1;" x1="0" x2="903.8984" y1="152.3945" y2="152.3945"/><line style="stroke:#000000;stroke-width:1;" x1="0" x2="903.8984" y1="155.3945" y2="155.3945"/><rect fill="#EEEEEE" height="24.3516" style="stroke:#000000;stroke-width:2;" width="136.8081" x="383.5452" y="141.2188"/><text fill="#000000" font-family="sans-serif" font-size="13" font-weight="bold" lengthAdjust="spacing" textLength="119.1963" x="389.5452" y="158.7139">Cr&#233;er un utilisateur</text><polygon fill="#181818" points="357.8008,193.9219,367.8008,197.9219,357.8008,201.9219,361.8008,197.9219" style="stroke:#181818;stroke-width:1;"/><line style="stroke:#181818;stroke-width:1;" x1="53.1274" x2="363.8008" y1="197.9219" y2="197.9219"/><text fill="#000000" font-family="sans-serif" font-size="13" lengthAdjust="spacing" textLength="297.6733" x="60.1274" y="193.0654">POST /admin/users (username, r&#244;le, mot de passe)</text><polygon fill="#181818" points="498.0815,224.2734,508.0815,228.2734,498.0815,232.2734,502.0815,228.2734" style="stroke:#181818;stroke-width:1;"/><line style="stroke:#181818;stroke-width:1;" x1="379.8008" x2="504.0815" y1="228.2734" y2="228.2734"/><text fill="#000000" font-family="sans-serif" font-size="13" lengthAdjust="spacing" textLength="90.3081" x="386.8008" y="223.417">createUser(dto)</text><line style="stroke:#181818;stroke-width:1;" x1="520.0815" x2="562.0815" y1="258.625" y2="258.625"/><line style="stroke:#181818;stroke-width:1;" x1="562.0815" x2="562.0815" y1="258.625" y2="271.625"/><line style="stroke:#181818;stroke-width:1;" x1="521.0815" x2="562.0815" y1="271.625" y2="271.625"/><polygon fill="#181818" points="531.0815,267.625,521.0815,271.625,531.0815,275.625,527.0815,271.625" style="stroke:#181818;stroke-width:1;"/><text fill="#000000" font-family="sans-serif" font-size="13" lengthAdjust="spacing" textLength="180.6353" x="527.0815" y="253.7686">encoder mot de passe (BCrypt)</text><polygon fill="#181818" points="845.7676,297.9766,855.7676,301.9766,845.7676,305.9766,849.7676,301.9766" style="stroke:#181818;stroke-width:1;"/><line style="stroke:#181818;stroke-width:1;" x1="520.0815" x2="851.7676" y1="301.9766" y2="301.9766"/><text fill="#000000" font-family="sans-serif" font-size="13" lengthAdjust="spacing" textLength="76.5718" x="527.0815" y="297.1201">INSERT user</text><polygon fill="#181818" points="717.7168,328.3281,727.7168,332.3281,717.7168,336.3281,721.7168,332.3281" style="stroke:#181818;stroke-width:1;"/><line style="stroke:#181818;stroke-width:1;" x1="520.0815" x2="723.7168" y1="332.3281" y2="332.3281"/><text fill="#000000" font-family="sans-serif" font-size="13" lengthAdjust="spacing" textLength="131.4727" x="527.0815" y="327.4717">log(USER_CREATED)</text><polygon fill="#181818" points="845.7676,358.6797,855.7676,362.6797,845.7676,366.6797,849.7676,362.6797" style="stroke:#181818;stroke-width:1;"/><line style="stroke:#181818;stroke-width:1;" x1="729.7168" x2="851.7676" y1="362.6797" y2="362.6797"/><text fill="#000000" font-family="sans-serif" font-size="13" lengthAdjust="spacing" textLength="104.0508" x="736.7168" y="357.8232">INSERT audit_log</text><polygon fill="#181818" points="390.8008,389.0313,380.8008,393.0313,390.8008,397.0313,386.8008,393.0313" style="stroke:#181818;stroke-width:1;"/><line style="stroke:#181818;stroke-width:1;stroke-dasharray:2.0,2.0;" x1="384.8008" x2="514.0815" y1="393.0313" y2="393.0313"/><text fill="#000000" font-family="sans-serif" font-size="13" lengthAdjust="spacing" textLength="27.4473" x="396.8008" y="388.1748">User</text><polygon fill="#181818" points="64.1274,419.3828,54.1274,423.3828,64.1274,427.3828,60.1274,423.3828" style="stroke:#181818;stroke-width:1;"/><line style="stroke:#181818;stroke-width:1;stroke-dasharray:2.0,2.0;" x1="58.1274" x2="373.8008" y1="423.3828" y2="423.3828"/><text fill="#000000" font-family="sans-serif" font-size="13" lengthAdjust="spacing" textLength="160.3989" x="70.1274" y="418.5264">Liste utilisateurs mise &#224; jour</text><rect fill="#EEEEEE" height="3" style="stroke:#EEEEEE;stroke-width:1;" width="903.8984" x="0" y="452.5586"/><line style="stroke:#000000;stroke-width:1;" x1="0" x2="903.8984" y1="452.5586" y2="452.5586"/><line style="stroke:#000000;stroke-width:1;" x1="0" x2="903.8984" y1="455.5586" y2="455.5586"/><rect fill="#EEEEEE" height="24.3516" style="stroke:#000000;stroke-width:2;" width="155.5908" x="374.1538" y="441.3828"/><text fill="#000000" font-family="sans-serif" font-size="13" font-weight="bold" lengthAdjust="spacing" textLength="137.979" x="380.1538" y="458.8779">Modifier ou d&#233;sactiver</text><polygon fill="#181818" points="357.8008,494.0859,367.8008,498.0859,357.8008,502.0859,361.8008,498.0859" style="stroke:#181818;stroke-width:1;"/><line style="stroke:#181818;stroke-width:1;" x1="53.1274" x2="363.8008" y1="498.0859" y2="498.0859"/><text fill="#000000" font-family="sans-serif" font-size="13" lengthAdjust="spacing" textLength="223.2788" x="60.1274" y="493.2295">POST /admin/users/{id} (r&#244;le, enabled)</text><polygon fill="#181818" points="498.0815,524.4375,508.0815,528.4375,498.0815,532.4375,502.0815,528.4375" style="stroke:#181818;stroke-width:1;"/><line style="stroke:#181818;stroke-width:1;" x1="379.8008" x2="504.0815" y1="528.4375" y2="528.4375"/><text fill="#000000" font-family="sans-serif" font-size="13" lengthAdjust="spacing" textLength="111.2808" x="386.8008" y="523.5811">updateUser(id, dto)</text><polygon fill="#181818" points="845.7676,554.7891,855.7676,558.7891,845.7676,562.7891,849.7676,558.7891" style="stroke:#181818;stroke-width:1;"/><line style="stroke:#181818;stroke-width:1;" x1="520.0815" x2="851.7676" y1="558.7891" y2="558.7891"/><text fill="#000000" font-family="sans-serif" font-size="13" lengthAdjust="spacing" textLength="81.6309" x="527.0815" y="553.9326">UPDATE user</text><polygon fill="#181818" points="717.7168,585.1406,727.7168,589.1406,717.7168,593.1406,721.7168,589.1406" style="stroke:#181818;stroke-width:1;"/><line style="stroke:#181818;stroke-width:1;" x1="520.0815" x2="723.7168" y1="589.1406" y2="589.1406"/><text fill="#000000" font-family="sans-serif" font-size="13" lengthAdjust="spacing" textLength="131.4727" x="527.0815" y="584.2842">log(USER_UPDATED)</text><polygon fill="#181818" points="845.7676,615.4922,855.7676,619.4922,845.7676,623.4922,849.7676,619.4922" style="stroke:#181818;stroke-width:1;"/><line style="stroke:#181818;stroke-width:1;" x1="729.7168" x2="851.7676" y1="619.4922" y2="619.4922"/><text fill="#000000" font-family="sans-serif" font-size="13" lengthAdjust="spacing" textLength="104.0508" x="736.7168" y="614.6357">INSERT audit_log</text><polygon fill="#181818" points="390.8008,645.8438,380.8008,649.8438,390.8008,653.8438,386.8008,649.8438" style="stroke:#181818;stroke-width:1;"/><line style="stroke:#181818;stroke-width:1;stroke-dasharray:2.0,2.0;" x1="384.8008" x2="514.0815" y1="649.8438" y2="649.8438"/><text fill="#000000" font-family="sans-serif" font-size="13" lengthAdjust="spacing" textLength="18.7827" x="396.8008" y="644.9873">OK</text><polygon fill="#181818" points="64.1274,676.1953,54.1274,680.1953,64.1274,684.1953,60.1274,680.1953" style="stroke:#181818;stroke-width:1;"/><line style="stroke:#181818;stroke-width:1;stroke-dasharray:2.0,2.0;" x1="58.1274" x2="373.8008" y1="680.1953" y2="680.1953"/><text fill="#000000" font-family="sans-serif" font-size="13" lengthAdjust="spacing" textLength="73.6963" x="70.1274" y="675.3389">Confirmation</text><path d="M474,693.1953 L474,735.1953 L897,735.1953 L897,703.1953 L887,693.1953 L474,693.1953 " fill="#FEFFDD" style="stroke:#181818;stroke-width:0.5;"/><path d="M887,693.1953 L887,703.1953 L897,703.1953 L887,693.1953 " fill="#FEFFDD" style="stroke:#181818;stroke-width:0.5;"/><text fill="#000000" font-family="sans-serif" font-size="13" lengthAdjust="spacing" textLength="324.3652" x="519.2861" y="711.6904">Attribution des r&#244;les : ADMIN, AGENT, CHEF_AGENCE</text><text fill="#000000" font-family="sans-serif" font-size="13" lengthAdjust="spacing" textLength="246.7842" x="519.2861" y="728.042">Compte d&#233;sactiv&#233; &#8594; connexion impossible</text><!--SRC=[ZPF1RXCn48RlVefHJuaKb7kb86syIwbeqj1Dpf6pdWJ3hhrul0q88N7Y0H0Fm3Lttc3Vf4_2UDD6IIce9w_c7u___xENFXXRAwyge7TAkwsn6rYhab3GGV58jRE44oHI6nnZwRQ9zsuBmJSeH32XHCZRtSS6RO5mz-qdN205uone96Y2AGsfW8qd8LGHd8T4LyOQ2huhWw9zHV29mHIcLZR0sOBGIsU3TsM9_YnsoRyxSlItfi1Epa_bfD4c7El98XLQ1RLIX70sSnGs7lEtLvsOZeKOZK3wTeSU6dji74OZ8JgByE8bI3Y7sNK-Xw6AfM73DWXwSR6gmW7uzdV9I-K24u1Q4M4_9ZUtF8r3o3Wbvoc5Hwx463qTt55FBlA77eRgD3iwdWQziVIVwz3VjwLZxhkSvjdD7AABVPNJShbqczw2bQMyoP9vblP5h3_Qf2Af9RV6dVS9eokXySYIxBGzXdEuull3azk5oh2rzXUyTyt9LjcHdJXjreQJk0PqkwDEnkUm7Nun-Ylqxh6YLQiIzTD4cre_43Lw04zIxP8lPYdZ-3UklVvyNDTl_WUBt_7Q-4h5l-8H6UjuTH54FeYF4209mPjLS_Y3kjp4Kv9qSZaTG7AHJUS3aA-pLyluBJFU95rLyw03s7O7Tzz_GE6inKznagbgHsGOdK2h8Huh_W00]--></g></svg>