<svg xmlns="http://www.w3.org/2000/svg" xmlns:xlink="http://www.w3.org/1999/xlink" version="1.1" data-diagram-type="SEQUENCE" style="width:998px;height:807px;background:#FFFFFF;" width="998px" height="807px" viewBox="0 0 998 807" zoomAndPan="magnify" preserveAspectRatio="none" contentStyleType="text/css"><?plantuml 1.2026.7beta3?><defs/><g><g class="title" data-source-line="4"><text x="351.5857" y="27.9951" fill="#000000" font-size="14" lengthAdjust="spacing" textLength="288.791" font-weight="700" font-family="sans-serif">Séquence — Gestion des utilisateurs</text></g><g><title>UserController</title><rect x="411.2461" y="192.8594" width="10" height="216.9297" fill="#FFFFFF" style="stroke:#181818;stroke-width:1;"/></g><g><title>UserController</title><rect x="411.2461" y="482.0547" width="10" height="174.7969" fill="#FFFFFF" style="stroke:#181818;stroke-width:1;"/></g><g><title>UserService</title><rect x="567.2563" y="221.9922" width="10" height="158.6641" fill="#FFFFFF" style="stroke:#181818;stroke-width:1;"/></g><g><title>UserService</title><rect x="567.2563" y="511.1875" width="10" height="116.5313" fill="#FFFFFF" style="stroke:#181818;stroke-width:1;"/></g><g class="participant-lifeline" data-qualified-name="Admin" data-entity-uid="part1" id="part1-lifeline" data-source-line="6"><g><title>Administrateur</title><rect x="56.3018" y="118.5938" width="8" height="606.5234" fill="#000000" fill-opacity="0.00000"/><line x1="60" y1="118.5938" x2="60" y2="725.1172" style="stroke:#181818;stroke-width:0.5;stroke-dasharray:5,5;"/></g></g><g class="participant-lifeline" data-qualified-name="C" data-entity-uid="part2" id="part2-lifeline" data-source-line="7"><g><title>UserController</title><rect x="412.2461" y="118.5938" width="8" height="606.5234" fill="#000000" fill-opacity="0.00000"/><line x1="415.7046" y1="118.5938" x2="415.7046" y2="725.1172" style="stroke:#181818;stroke-width:0.5;stroke-dasharray:5,5;"/></g></g><g class="participant-lifeline" data-qualified-name="S" data-entity-uid="part3" id="part3-lifeline" data-source-line="8"><g><title>UserService</title><rect x="568.2563" y="118.5938" width="8" height="606.5234" fill="#000000" fill-opacity="0.00000"/><line x1="571.4307" y1="118.5938" x2="571.4307" y2="725.1172" style="stroke:#181818;stroke-width:0.5;stroke-dasharray:5,5;"/></g></g><g class="participant-lifeline" data-qualified-name="AUD" data-entity-uid="part4" id="part4-lifeline" data-source-line="9"><g><title>AuditService</title><rect x="805.9717" y="118.5938" width="8" height="606.5234" fill="#000000" fill-opacity="0.00000"/><line x1="809.7432" y1="118.5938" x2="809.7432" y2="725.1172" style="stroke:#181818;stroke-width:0.5;stroke-dasharray:5,5;"/></g></g><g class="participant-lifeline" data-qualified-name="DB" data-entity-uid="part5" id="part5-lifeline" data-source-line="10"><g><title>PostgreSQL</title><rect x="940.5859" y="118.5938" width="8" height="606.5234" fill="#000000" fill-opacity="0.00000"/><line x1="944.2095" y1="118.5938" x2="944.2095" y2="725.1172" style="stroke:#181818;stroke-width:0.5;stroke-dasharray:5,5;"/></g></g><g class="participant participant-head" data-qualified-name="Admin" data-entity-uid="part1" id="part1-head" data-source-line="6"><text x="5" y="115.292" fill="#000000" font-size="14" lengthAdjust="spacing" textLength="104.6035" font-family="sans-serif">Administrateur</text><ellipse cx="60.3018" cy="50.7969" rx="8" ry="8" fill="#E2E2F0" style="stroke:#181818;stroke-width:0.5;"/><path d="M60.3018,58.7969 L60.3018,85.7969 M47.3018,66.7969 L73.3018,66.7969 M60.3018,85.7969 L47.3018,100.7969 M60.3018,85.7969 L73.3018,100.7969" style="stroke:#181818;stroke-width:0.5;" fill="none"/></g><g class="participant participant-tail" data-qualified-name="Admin" data-entity-uid="part1" id="part1-tail" data-source-line="6"><text x="5" y="737.1123" fill="#000000" font-size="14" lengthAdjust="spacing" textLength="104.6035" font-family="sans-serif">Administrateur</text><ellipse cx="60.3018" cy="748.9141" rx="8" ry="8" fill="#E2E2F0" style="stroke:#181818;stroke-width:0.5;"/><path d="M60.3018,756.9141 L60.3018,783.9141 M47.3018,764.9141 L73.3018,764.9141 M60.3018,783.9141 L47.3018,798.9141 M60.3018,783.9141 L73.3018,798.9141" style="stroke:#181818;stroke-width:0.5;" fill="none"/></g><g class="participant participant-head" data-qualified-name="C" data-entity-uid="part2" id="part2-head" data-source-line="7"><rect x="358.7046" y="87.2969" width="115.083" height="30.2969" fill="#E2E2F0" style="stroke:#181818;stroke-width:0.5;" rx="2.5" ry="2.5"/><text x="365.7046" y="107.292" fill="#000000" font-size="14" lengthAdjust="spacing" textLength="101.083" font-family="sans-serif">UserController</text></g><g class="participant participant-tail" data-qualified-name="C" data-entity-uid="part2" id="part2-tail" data-source-line="7"><rect x="358.7046" y="724.1172" width="115.083" height="30.2969" fill="#E2E2F0" style="stroke:#181818;stroke-width:0.5;" rx="2.5" ry="2.5"/><text x="365.7046" y="744.1123" fill="#000000" font-size="14" lengthAdjust="spacing" textLength="101.083" font-family="sans-serif">UserController</text></g><g class="participant participant-head" data-qualified-name="S" data-entity-uid="part3" id="part3-head" data-source-line="8"><rect x="523.4307" y="87.2969" width="97.6514" height="30.2969" fill="#E2E2F0" style="stroke:#181818;stroke-width:0.5;" rx="2.5" ry="2.5"/><text x="530.4307" y="107.292" fill="#000000" font-size="14" lengthAdjust="spacing" textLength="83.6514" font-family="sans-serif">UserService</text></g><g class="participant participant-tail" data-qualified-name="S" data-entity-uid="part3" id="part3-tail" data-source-line="8"><rect x="523.4307" y="724.1172" width="97.6514" height="30.2969" fill="#E2E2F0" style="stroke:#181818;stroke-width:0.5;" rx="2.5" ry="2.5"/><text x="530.4307" y="744.1123" fill="#000000" font-size="14" lengthAdjust="spacing" textLength="83.6514" font-family="sans-serif">UserService</text></g><g class="participant participant-head" data-qualified-name="AUD" data-entity-uid="part4" id="part4-head" data-source-line="9"><rect x="758.7432" y="87.2969" width="102.457" height="30.2969" fill="#E2E2F0" style="stroke:#181818;stroke-width:0.5;" rx="2.5" ry="2.5"/><text x="765.7432" y="107.292" fill="#000000" font-size="14" lengthAdjust="spacing" textLength="88.457" font-family="sans-serif">AuditService</text></g><g class="participant participant-tail" data-qualified-name="AUD" data-entity-uid="part4" id="part4-tail" data-source-line="9"><rect x="758.7432" y="724.1172" width="102.457" height="30.2969" fill="#E2E2F0" style="stroke:#181818;stroke-width:0.5;" rx="2.5" ry="2.5"/><text x="765.7432" y="744.1123" fill="#000000" font-size="14" lengthAdjust="spacing" textLength="88.457" font-family="sans-serif">AuditService</text></g><g class="participant participant-head" data-qualified-name="DB" data-entity-uid="part5" id="part5-head" data-source-line="10"><text x="901.2095" y="115.292" fill="#000000" font-size="14" lengthAdjust="spacing" textLength="80.7529" font-family="sans-serif">PostgreSQL</text><path d="M926.5859,66.2969 C926.5859,56.2969 944.5859,56.2969 944.5859,56.2969 C944.5859,56.2969 962.5859,56.2969 962.5859,66.2969 L962.5859,92.2969 C962.5859,102.2969 944.5859,102.2969 944.5859,102.2969 C944.5859,102.2969 926.5859,102.2969 926.5859,92.2969 L926.5859,66.2969" style="stroke:#181818;stroke-width:0.5;" fill="#E2E2F0"/><path d="M926.5859,66.2969 C926.5859,76.2969 944.5859,76.2969 944.5859,76.2969 C944.5859,76.2969 962.5859,76.2969 962.5859,66.2969" style="stroke:#181818;stroke-width:0.5;" fill="none"/></g><g class="participant participant-tail" data-qualified-name="DB" data-entity-uid="part5" id="part5-tail" data-source-line="10"><text x="901.2095" y="737.1123" fill="#000000" font-size="14" lengthAdjust="spacing" textLength="80.7529" font-family="sans-serif">PostgreSQL</text><path d="M926.5859,750.4141 C926.5859,740.4141 944.5859,740.4141 944.5859,740.4141 C944.5859,740.4141 962.5859,740.4141 962.5859,750.4141 L962.5859,776.4141 C962.5859,786.4141 944.5859,786.4141 944.5859,786.4141 C944.5859,786.4141 926.5859,786.4141 926.5859,776.4141 L926.5859,750.4141" style="stroke:#181818;stroke-width:0.5;" fill="#E2E2F0"/><path d="M926.5859,750.4141 C926.5859,760.4141 944.5859,760.4141 944.5859,760.4141 C944.5859,760.4141 962.5859,760.4141 962.5859,750.4141" style="stroke:#181818;stroke-width:0.5;" fill="none"/></g><g><title>UserController</title><rect x="411.2461" y="192.8594" width="10" height="216.9297" fill="#FFFFFF" style="stroke:#181818;stroke-width:1;"/></g><g><title>UserController</title><rect x="411.2461" y="482.0547" width="10" height="174.7969" fill="#FFFFFF" style="stroke:#181818;stroke-width:1;"/></g><g><title>UserService</title><rect x="567.2563" y="221.9922" width="10" height="158.6641" fill="#FFFFFF" style="stroke:#181818;stroke-width:1;"/></g><g><title>UserService</title><rect x="567.2563" y="511.1875" width="10" height="116.5313" fill="#FFFFFF" style="stroke:#181818;stroke-width:1;"/></g><rect x="0" y="149.1602" width="992.9624" height="3" fill="#EEEEEE" style="stroke:#EEEEEE;stroke-width:1;"/><line x1="0" y1="149.1602" x2="992.9624" y2="149.1602" style="stroke:#000000;stroke-width:1;"/><line x1="0" y1="152.1602" x2="992.9624" y2="152.1602" style="stroke:#000000;stroke-width:1;"/><rect x="415.4167" y="138.5938" width="162.1289" height="23.1328" fill="#EEEEEE" style="stroke:#000000;stroke-width:2;"/><text x="421.4167" y="154.6606" fill="#000000" font-size="13" lengthAdjust="spacing" textLength="143.603" font-weight="700" font-family="sans-serif">Créer un utilisateur</text><g class="message" data-entity-1="part1" data-entity-2="part2" id="msg1" data-source-line="14"><polygon points="399.2461,188.8594,409.2461,192.8594,399.2461,196.8594,403.2461,192.8594" fill="#181818" style="stroke:#181818;stroke-width:1;stroke-linejoin:miter;stroke-miterlimit:10;"/><line x1="60.3018" y1="192.8594" x2="405.2461" y2="192.8594" style="stroke:#181818;stroke-width:1;"/><text x="67.3018" y="187.7935" fill="#000000" font-size="13" lengthAdjust="spacing" textLength="331.9443" font-family="sans-serif">POST /admin/users (username, rôle, mot de passe)</text></g><g class="message" data-entity-1="part2" data-entity-2="part3" id="msg2" data-source-line="16"><polygon points="555.2563,217.9922,565.2563,221.9922,555.2563,225.9922,559.2563,221.9922" fill="#181818" style="stroke:#181818;stroke-width:1;stroke-linejoin:miter;stroke-miterlimit:10;"/><line x1="421.2461" y1="221.9922" x2="561.2563" y2="221.9922" style="stroke:#181818;stroke-width:1;"/><text x="428.2461" y="216.9263" fill="#000000" font-size="13" lengthAdjust="spacing" textLength="102.6289" font-family="sans-serif">createUser(dto)</text></g><g class="message" data-entity-1="part3" data-entity-2="part3" id="msg3" data-source-line="18"><line x1="577.2563" y1="251.125" x2="619.2563" y2="251.125" style="stroke:#181818;stroke-width:1;"/><line x1="619.2563" y1="251.125" x2="619.2563" y2="264.125" style="stroke:#181818;stroke-width:1;"/><line x1="578.2563" y1="264.125" x2="619.2563" y2="264.125" style="stroke:#181818;stroke-width:1;"/><polygon points="588.2563,260.125,578.2563,264.125,588.2563,268.125,584.2563,264.125" fill="#181818" style="stroke:#181818;stroke-width:1;stroke-linejoin:miter;stroke-miterlimit:10;"/><text x="584.2563" y="246.0591" fill="#000000" font-size="13" lengthAdjust="spacing" textLength="203.7153" font-family="sans-serif">encoder mot de passe (BCrypt)</text></g><g class="message" data-entity-1="part3" data-entity-2="part5" id="msg4" data-source-line="19"><polygon points="932.5859,289.2578,942.5859,293.2578,932.5859,297.2578,936.5859,293.2578" fill="#181818" style="stroke:#181818;stroke-width:1;stroke-linejoin:miter;stroke-miterlimit:10;"/><line x1="577.2563" y1="293.2578" x2="938.5859" y2="293.2578" style="stroke:#181818;stroke-width:1;"/><text x="584.2563" y="288.1919" fill="#000000" font-size="13" lengthAdjust="spacing" textLength="79.4854" font-family="sans-serif">INSERT user</text></g><g class="message" data-entity-1="part3" data-entity-2="part4" id="msg5" data-source-line="20"><polygon points="797.9717,318.3906,807.9717,322.3906,797.9717,326.3906,801.9717,322.3906" fill="#181818" style="stroke:#181818;stroke-width:1;stroke-linejoin:miter;stroke-miterlimit:10;"/><line x1="577.2563" y1="322.3906" x2="803.9717" y2="322.3906" style="stroke:#181818;stroke-width:1;"/><text x="584.2563" y="317.3247" fill="#000000" font-size="13" lengthAdjust="spacing" textLength="132.8564" font-family="sans-serif">log(USER_CREATED)</text></g><g class="message" data-entity-1="part4" data-entity-2="part5" id="msg6" data-source-line="21"><polygon points="932.5859,347.5234,942.5859,351.5234,932.5859,355.5234,936.5859,351.5234" fill="#181818" style="stroke:#181818;stroke-width:1;stroke-linejoin:miter;stroke-miterlimit:10;"/><line x1="809.9717" y1="351.5234" x2="938.5859" y2="351.5234" style="stroke:#181818;stroke-width:1;"/><text x="816.9717" y="346.4575" fill="#000000" font-size="13" lengthAdjust="spacing" textLength="110.6143" font-family="sans-serif">INSERT audit_log</text></g><g class="message" data-entity-1="part3" data-entity-2="part2" id="msg7" data-source-line="22"><polygon points="432.2461,376.6563,422.2461,380.6563,432.2461,384.6563,428.2461,380.6563" fill="#181818" style="stroke:#181818;stroke-width:1;stroke-linejoin:miter;stroke-miterlimit:10;"/><line x1="426.2461" y1="380.6563" x2="571.2563" y2="380.6563" style="stroke:#181818;stroke-width:1;stroke-dasharray:2,2;"/><text x="438.2461" y="375.5903" fill="#000000" font-size="13" lengthAdjust="spacing" textLength="29.6309" font-family="sans-serif">User</text></g><g class="message" data-entity-1="part2" data-entity-2="part1" id="msg8" data-source-line="24"><polygon points="71.3018,405.7891,61.3018,409.7891,71.3018,413.7891,67.3018,409.7891" fill="#181818" style="stroke:#181818;stroke-width:1;stroke-linejoin:miter;stroke-miterlimit:10;"/><line x1="65.3018" y1="409.7891" x2="415.2461" y2="409.7891" style="stroke:#181818;stroke-width:1;stroke-dasharray:2,2;"/><text x="77.3018" y="404.7231" fill="#000000" font-size="13" lengthAdjust="spacing" textLength="183.7773" font-family="sans-serif">Liste utilisateurs mise à jour</text></g><rect x="0" y="438.3555" width="992.9624" height="3" fill="#EEEEEE" style="stroke:#EEEEEE;stroke-width:1;"/><line x1="0" y1="438.3555" x2="992.9624" y2="438.3555" style="stroke:#000000;stroke-width:1;"/><line x1="0" y1="441.3555" x2="992.9624" y2="441.3555" style="stroke:#000000;stroke-width:1;"/><rect x="404.759" y="427.7891" width="183.4443" height="23.1328" fill="#EEEEEE" style="stroke:#000000;stroke-width:2;"/><text x="410.759" y="443.856" fill="#000000" font-size="13" lengthAdjust="spacing" textLength="164.9185" font-weight="700" font-family="sans-serif">Modifier ou désactiver</text><g class="message" data-entity-1="part1" data-entity-2="part2" id="msg9" data-source-line="29"><polygon points="399.2461,478.0547,409.2461,482.0547,399.2461,486.0547,403.2461,482.0547" fill="#181818" style="stroke:#181818;stroke-width:1;stroke-linejoin:miter;stroke-miterlimit:10;"/><line x1="60.3018" y1="482.0547" x2="405.2461" y2="482.0547" style="stroke:#181818;stroke-width:1;"/><text x="67.3018" y="476.9888" fill="#000000" font-size="13" lengthAdjust="spacing" textLength="255.5693" font-family="sans-serif">POST /admin/users/{id} (rôle, enabled)</text></g><g class="message" data-entity-1="part2" data-entity-2="part3" id="msg10" data-source-line="31"><polygon points="555.2563,507.1875,565.2563,511.1875,555.2563,515.1875,559.2563,511.1875" fill="#181818" style="stroke:#181818;stroke-width:1;stroke-linejoin:miter;stroke-miterlimit:10;"/><line x1="421.2461" y1="511.1875" x2="561.2563" y2="511.1875" style="stroke:#181818;stroke-width:1;"/><text x="428.2461" y="506.1216" fill="#000000" font-size="13" lengthAdjust="spacing" textLength="127.0103" font-family="sans-serif">updateUser(id, dto)</text></g><g class="message" data-entity-1="part3" data-entity-2="part5" id="msg11" data-source-line="33"><polygon points="932.5859,536.3203,942.5859,540.3203,932.5859,544.3203,936.5859,540.3203" fill="#181818" style="stroke:#181818;stroke-width:1;stroke-linejoin:miter;stroke-miterlimit:10;"/><line x1="577.2563" y1="540.3203" x2="938.5859" y2="540.3203" style="stroke:#181818;stroke-width:1;"/><text x="584.2563" y="535.2544" fill="#000000" font-size="13" lengthAdjust="spacing" textLength="84.8999" font-family="sans-serif">UPDATE user</text></g><g class="message" data-entity-1="part3" data-entity-2="part4" id="msg12" data-source-line="34"><polygon points="797.9717,565.4531,807.9717,569.4531,797.9717,573.4531,801.9717,569.4531" fill="#181818" style="stroke:#181818;stroke-width:1;stroke-linejoin:miter;stroke-miterlimit:10;"/><line x1="577.2563" y1="569.4531" x2="803.9717" y2="569.4531" style="stroke:#181818;stroke-width:1;"/><text x="584.2563" y="564.3872" fill="#000000" font-size="13" lengthAdjust="spacing" textLength="133.8975" font-family="sans-serif">log(USER_UPDATED)</text></g><g class="message" data-entity-1="part4" data-entity-2="part5" id="msg13" data-source-line="35"><polygon points="932.5859,594.5859,942.5859,598.5859,932.5859,602.5859,936.5859,598.5859" fill="#181818" style="stroke:#181818;stroke-width:1;stroke-linejoin:miter;stroke-miterlimit:10;"/><line x1="809.9717" y1="598.5859" x2="938.5859" y2="598.5859" style="stroke:#181818;stroke-width:1;"/><text x="816.9717" y="593.52" fill="#000000" font-size="13" lengthAdjust="spacing" textLength="110.6143" font-family="sans-serif">INSERT audit_log</text></g><g class="message" data-entity-1="part3" data-entity-2="part2" id="msg14" data-source-line="36"><polygon points="432.2461,623.7188,422.2461,627.7188,432.2461,631.7188,428.2461,627.7188" fill="#181818" style="stroke:#181818;stroke-width:1;stroke-linejoin:miter;stroke-miterlimit:10;"/><line x1="426.2461" y1="627.7188" x2="571.2563" y2="627.7188" style="stroke:#181818;stroke-width:1;stroke-dasharray:2,2;"/><text x="438.2461" y="622.6528" fill="#000000" font-size="13" lengthAdjust="spacing" textLength="18.7573" font-family="sans-serif">OK</text></g><g class="message" data-entity-1="part2" data-entity-2="part1" id="msg15" data-source-line="38"><polygon points="71.3018,652.8516,61.3018,656.8516,71.3018,660.8516,67.3018,656.8516" fill="#181818" style="stroke:#181818;stroke-width:1;stroke-linejoin:miter;stroke-miterlimit:10;"/><line x1="65.3018" y1="656.8516" x2="415.2461" y2="656.8516" style="stroke:#181818;stroke-width:1;stroke-dasharray:2,2;"/><text x="77.3018" y="651.7856" fill="#000000" font-size="13" lengthAdjust="spacing" textLength="84.335" font-family="sans-serif">Confirmation</text></g><path d="M528,669.8516 L528,709.8516 L987,709.8516 L987,679.8516 L977,669.8516 L528,669.8516" style="stroke:#181818;stroke-width:0.5;" fill="#FEFFDD"/><path d="M977,669.8516 L977,679.8516 L987,679.8516 L977,669.8516" style="stroke:#181818;stroke-width:0.5;" fill="#FEFFDD"/><text x="580.5938" y="686.9185" fill="#000000" font-size="13" lengthAdjust="spacing" textLength="345.3442" font-family="sans-serif">Attribution des rôles : ADMIN, AGENT, CHEF_AGENCE</text><text x="580.5938" y="702.0513" fill="#000000" font-size="13" lengthAdjust="spacing" textLength="277.5767" font-family="sans-serif">Compte désactivé → connexion impossible</text><?plantuml-src ZPF1RXCn48RlVefHJuaKb7kb86syIwbeqj1Dpf6pdWJ3hhrul0q88N7Y0H0Fm3Lttc3Vf4_2UDD6IIce9w_c7u___xENFXXRAwyge7TAkwsn6rYhab3GGV58jRE44oHI6nnZwRQ9zsuBmJSeH32XHCZRtSS6RO5mz-qdN205uone96Y2AGsfW8qd8LGHd8T4LyOQ2huhWw9zHV29mHIcLZR0sOBGIsU3TsM9_YnsoRyxSlItfi1Epa_bfD4c7El98XLQ1RLIX70sSnGs7lEtLvsOZeKOZK3wTeSU6dji74OZ8JgByE8bI3Y7sNK-Xw6AfM73DWXwSR6gmW7uzdV9I-K24u1Q4M4_9ZUtF8r3o3Wbvoc5Hwx463qTt55FBlA77eRgD3iwdWQziVIVwz3VjwLZxhkSvjdD7AABVPNJShbqczw2bQMyoP9vblP5h3_Qf2Af9RV6dVS9eokXySYIxBGzXdEuull3azk5oh2rzXUyTyt9LjcHdJXjreQJk0PqkwDEnkUm7Nun-Ylqxh6YLQiIzTD4cre_43Lw04zIxP8lPYdZ-3UklVvyNDTl_WUBt_7Q-4h5l-8H6UjuTH54FeYF4209mPjLS_Y3kjp4Kv9qSZaTG7AHJUS3aA-pLyluBJFU95rLyw03s7O7Tzz_GE6inKznagbgHsGOdK2h8Hxx1m00?></g></svg>