<svg xmlns="http://www.w3.org/2000/svg" xmlns:xlink="http://www.w3.org/1999/xlink" version="1.1" data-diagram-type="SEQUENCE" style="width:1006px;height:1159px;background:#FFFFFF;" width="1006px" height="1159px" viewBox="0 0 1006 1159" zoomAndPan="magnify" preserveAspectRatio="none" contentStyleType="text/css"><?plantuml 1.2026.7beta3?><defs/><g><g class="title" data-source-line="10"><text x="355.2241" y="35.9951" fill="#000000" font-size="14" lengthAdjust="spacing" textLength="288.791" font-weight="700" font-family="sans-serif">Séquence — Gestion des utilisateurs</text></g><rect x="3" y="61.2969" width="990.2393" height="38.2813" fill="#FFFFCC" style="stroke:#FFDD88;stroke-width:3;" rx="2.5" ry="2.5"/><text x="10" y="71.9375" fill="#000000" font-size="10" lengthAdjust="spacing" textLength="361.2305" font-family="monospace">Please use CSS style instead of skinparam ParticipantPadding</text><text x="10" y="93.5781" fill="#000000" font-size="10" lengthAdjust="spacing" textLength="295.0049" font-family="monospace">Please use CSS style instead of skinparam padding</text><g><title>UserController</title><rect x="402.2402" y="295.4844" width="10" height="320.7813" fill="#FFFFFF" style="stroke:#181818;stroke-width:1;"/></g><g><title>UserController</title><rect x="402.2402" y="718.2031" width="10" height="263.8125" fill="#FFFFFF" style="stroke:#181818;stroke-width:1;"/></g><g><title>UserService</title><rect x="564.4805" y="339.4531" width="10" height="232.8438" fill="#FFFFFF" style="stroke:#181818;stroke-width:1;"/></g><g><title>UserService</title><rect x="564.4805" y="762.1719" width="10" height="175.875" fill="#FFFFFF" style="stroke:#181818;stroke-width:1;"/></g><g class="participant-lifeline" data-qualified-name="Admin" data-entity-uid="part1" id="part1-lifeline" data-source-line="12"><g><title>Administrateur</title><rect x="56.8301" y="191.5469" width="8" height="872.4063" fill="#000000" fill-opacity="0.00000"/><line x1="60" y1="191.5469" x2="60" y2="1063.9531" style="stroke:#181818;stroke-width:0.5;stroke-dasharray:5,5;"/></g></g><g class="participant-lifeline" data-qualified-name="C" data-entity-uid="part2" id="part2-lifeline" data-source-line="13"><g><title>UserController</title><rect x="403.2402" y="191.5469" width="8" height="872.4063" fill="#000000" fill-opacity="0.00000"/><line x1="406.9189" y1="191.5469" x2="406.9189" y2="1063.9531" style="stroke:#181818;stroke-width:0.5;stroke-dasharray:5,5;"/></g></g><g class="participant-lifeline" data-qualified-name="S" data-entity-uid="part3" id="part3-lifeline" data-source-line="14"><g><title>UserService</title><rect x="565.4805" y="191.5469" width="8" height="872.4063" fill="#000000" fill-opacity="0.00000"/><line x1="568.6299" y1="191.5469" x2="568.6299" y2="1063.9531" style="stroke:#181818;stroke-width:0.5;stroke-dasharray:5,5;"/></g></g><g class="participant-lifeline" data-qualified-name="AUD" data-entity-uid="part4" id="part4-lifeline" data-source-line="15"><g><title>AuditService</title><rect x="803.5254" y="191.5469" width="8" height="872.4063" fill="#000000" fill-opacity="0.00000"/><line x1="806.6152" y1="191.5469" x2="806.6152" y2="1063.9531" style="stroke:#181818;stroke-width:0.5;stroke-dasharray:5,5;"/></g></g><g class="participant-lifeline" data-qualified-name="DB" data-entity-uid="part5" id="part5-lifeline" data-source-line="16"><g><title>PostgreSQL</title><rect x="945.6309" y="191.5469" width="8" height="872.4063" fill="#000000" fill-opacity="0.00000"/><line x1="949.0225" y1="191.5469" x2="949.0225" y2="1063.9531" style="stroke:#181818;stroke-width:0.5;stroke-dasharray:5,5;"/></g></g><g class="participant participant-head" data-qualified-name="Admin" data-entity-uid="part1" id="part1-head" data-source-line="12"><text x="13" y="180.7168" fill="#000000" font-size="12" lengthAdjust="spacing" textLength="89.6602" font-family="sans-serif">Administrateur</text><ellipse cx="60.8301" cy="110.0781" rx="8" ry="8" fill="#E2E2F0" style="stroke:#181818;stroke-width:0.5;"/><path d="M60.8301,118.0781 L60.8301,145.0781 M47.8301,126.0781 L73.8301,126.0781 M60.8301,145.0781 L47.8301,160.0781 M60.8301,145.0781 L73.8301,160.0781" style="stroke:#181818;stroke-width:0.5;" fill="none"/></g><g class="participant participant-tail" data-qualified-name="Admin" data-entity-uid="part1" id="part1-tail" data-source-line="12"><text x="13" y="1082.0918" fill="#000000" font-size="12" lengthAdjust="spacing" textLength="89.6602" font-family="sans-serif">Administrateur</text><ellipse cx="60.8301" cy="1101.4219" rx="8" ry="8" fill="#E2E2F0" style="stroke:#181818;stroke-width:0.5;"/><path d="M60.8301,1109.4219 L60.8301,1136.4219 M47.8301,1117.4219 L73.8301,1117.4219 M60.8301,1136.4219 L47.8301,1151.4219 M60.8301,1136.4219 L73.8301,1151.4219" style="stroke:#181818;stroke-width:0.5;" fill="none"/></g><g class="participant participant-head" data-qualified-name="C" data-entity-uid="part2" id="part2-head" data-source-line="13"><rect x="348.9189" y="146.5781" width="116.6426" height="43.9688" fill="#E2E2F0" style="stroke:#181818;stroke-width:0.5;" rx="2.5" ry="2.5"/><text x="363.9189" y="172.7168" fill="#000000" font-size="12" lengthAdjust="spacing" textLength="86.6426" font-family="sans-serif">UserController</text></g><g class="participant participant-tail" data-qualified-name="C" data-entity-uid="part2" id="part2-tail" data-source-line="13"><rect x="348.9189" y="1062.9531" width="116.6426" height="43.9688" fill="#E2E2F0" style="stroke:#181818;stroke-width:0.5;" rx="2.5" ry="2.5"/><text x="363.9189" y="1089.0918" fill="#000000" font-size="12" lengthAdjust="spacing" textLength="86.6426" font-family="sans-serif">UserController</text></g><g class="participant participant-head" data-qualified-name="S" data-entity-uid="part3" id="part3-head" data-source-line="14"><rect x="518.6299" y="146.5781" width="101.7012" height="43.9688" fill="#E2E2F0" style="stroke:#181818;stroke-width:0.5;" rx="2.5" ry="2.5"/><text x="533.6299" y="172.7168" fill="#000000" font-size="12" lengthAdjust="spacing" textLength="71.7012" font-family="sans-serif">UserService</text></g><g class="participant participant-tail" data-qualified-name="S" data-entity-uid="part3" id="part3-tail" data-source-line="14"><rect x="518.6299" y="1062.9531" width="101.7012" height="43.9688" fill="#E2E2F0" style="stroke:#181818;stroke-width:0.5;" rx="2.5" ry="2.5"/><text x="533.6299" y="1089.0918" fill="#000000" font-size="12" lengthAdjust="spacing" textLength="71.7012" font-family="sans-serif">UserService</text></g><g class="participant participant-head" data-qualified-name="AUD" data-entity-uid="part4" id="part4-head" data-source-line="15"><rect x="754.6152" y="146.5781" width="105.8203" height="43.9688" fill="#E2E2F0" style="stroke:#181818;stroke-width:0.5;" rx="2.5" ry="2.5"/><text x="769.6152" y="172.7168" fill="#000000" font-size="12" lengthAdjust="spacing" textLength="75.8203" font-family="sans-serif">AuditService</text></g><g class="participant participant-tail" data-qualified-name="AUD" data-entity-uid="part4" id="part4-tail" data-source-line="15"><rect x="754.6152" y="1062.9531" width="105.8203" height="43.9688" fill="#E2E2F0" style="stroke:#181818;stroke-width:0.5;" rx="2.5" ry="2.5"/><text x="769.6152" y="1089.0918" fill="#000000" font-size="12" lengthAdjust="spacing" textLength="75.8203" font-family="sans-serif">AuditService</text></g><g class="participant participant-head" data-qualified-name="DB" data-entity-uid="part5" id="part5-head" data-source-line="16"><text x="912.0225" y="180.7168" fill="#000000" font-size="12" lengthAdjust="spacing" textLength="69.2168" font-family="sans-serif">PostgreSQL</text><path d="M931.6309,125.5781 C931.6309,115.5781 949.6309,115.5781 949.6309,115.5781 C949.6309,115.5781 967.6309,115.5781 967.6309,125.5781 L967.6309,151.5781 C967.6309,161.5781 949.6309,161.5781 949.6309,161.5781 C949.6309,161.5781 931.6309,161.5781 931.6309,151.5781 L931.6309,125.5781" style="stroke:#181818;stroke-width:0.5;" fill="#E2E2F0"/><path d="M931.6309,125.5781 C931.6309,135.5781 949.6309,135.5781 949.6309,135.5781 C949.6309,135.5781 967.6309,135.5781 967.6309,125.5781" style="stroke:#181818;stroke-width:0.5;" fill="none"/></g><g class="participant participant-tail" data-qualified-name="DB" data-entity-uid="part5" id="part5-tail" data-source-line="16"><text x="912.0225" y="1082.0918" fill="#000000" font-size="12" lengthAdjust="spacing" textLength="69.2168" font-family="sans-serif">PostgreSQL</text><path d="M931.6309,1102.9219 C931.6309,1092.9219 949.6309,1092.9219 949.6309,1092.9219 C949.6309,1092.9219 967.6309,1092.9219 967.6309,1102.9219 L967.6309,1128.9219 C967.6309,1138.9219 949.6309,1138.9219 949.6309,1138.9219 C949.6309,1138.9219 931.6309,1138.9219 931.6309,1128.9219 L931.6309,1102.9219" style="stroke:#181818;stroke-width:0.5;" fill="#E2E2F0"/><path d="M931.6309,1102.9219 C931.6309,1112.9219 949.6309,1112.9219 949.6309,1112.9219 C949.6309,1112.9219 967.6309,1112.9219 967.6309,1102.9219" style="stroke:#181818;stroke-width:0.5;" fill="none"/></g><g><title>UserController</title><rect x="402.2402" y="295.4844" width="10" height="320.7813" fill="#FFFFFF" style="stroke:#181818;stroke-width:1;"/></g><g><title>UserController</title><rect x="402.2402" y="718.2031" width="10" height="263.8125" fill="#FFFFFF" style="stroke:#181818;stroke-width:1;"/></g><g><title>UserService</title><rect x="564.4805" y="339.4531" width="10" height="232.8438" fill="#FFFFFF" style="stroke:#181818;stroke-width:1;"/></g><g><title>UserService</title><rect x="564.4805" y="762.1719" width="10" height="175.875" fill="#FFFFFF" style="stroke:#181818;stroke-width:1;"/></g><rect x="0" y="229.5313" width="1000.2393" height="3" fill="#EEEEEE" style="stroke:#EEEEEE;stroke-width:1;"/><line x1="0" y1="229.5313" x2="1000.2393" y2="229.5313" style="stroke:#000000;stroke-width:1;"/><line x1="0" y1="232.5313" x2="1000.2393" y2="232.5313" style="stroke:#000000;stroke-width:1;"/><rect x="416.7524" y="211.5469" width="166.7344" height="37.9688" fill="#EEEEEE" style="stroke:#000000;stroke-width:2;"/><text x="430.7524" y="234.6855" fill="#000000" font-size="12" lengthAdjust="spacing" textLength="132.5566" font-weight="700" font-family="sans-serif">Créer un utilisateur</text><g class="message" data-entity-1="part1" data-entity-2="part2" id="msg1" data-source-line="20"><polygon points="390.2402,291.4844,400.2402,295.4844,390.2402,299.4844,394.2402,295.4844" fill="#181818" style="stroke:#181818;stroke-width:1;stroke-linejoin:miter;stroke-miterlimit:10;"/><line x1="60.8301" y1="295.4844" x2="396.2402" y2="295.4844" style="stroke:#181818;stroke-width:1;"/><text x="75.8301" y="282.6543" fill="#000000" font-size="12" lengthAdjust="spacing" textLength="306.4102" font-family="sans-serif">POST /admin/users (username, rôle, mot de passe)</text></g><g class="message" data-entity-1="part2" data-entity-2="part3" id="msg2" data-source-line="22"><polygon points="552.4805,335.4531,562.4805,339.4531,552.4805,343.4531,556.4805,339.4531" fill="#181818" style="stroke:#181818;stroke-width:1;stroke-linejoin:miter;stroke-miterlimit:10;"/><line x1="412.2402" y1="339.4531" x2="558.4805" y2="339.4531" style="stroke:#181818;stroke-width:1;"/><text x="427.2402" y="326.623" fill="#000000" font-size="12" lengthAdjust="spacing" textLength="94.7344" font-family="sans-serif">createUser(dto)</text></g><g class="message" data-entity-1="part3" data-entity-2="part3" id="msg3" data-source-line="24"><line x1="574.4805" y1="383.4219" x2="616.4805" y2="383.4219" style="stroke:#181818;stroke-width:1;"/><line x1="616.4805" y1="383.4219" x2="616.4805" y2="396.4219" style="stroke:#181818;stroke-width:1;"/><line x1="575.4805" y1="396.4219" x2="616.4805" y2="396.4219" style="stroke:#181818;stroke-width:1;"/><polygon points="585.4805,392.4219,575.4805,396.4219,585.4805,400.4219,581.4805,396.4219" fill="#181818" style="stroke:#181818;stroke-width:1;stroke-linejoin:miter;stroke-miterlimit:10;"/><text x="589.4805" y="370.5918" fill="#000000" font-size="12" lengthAdjust="spacing" textLength="188.0449" font-family="sans-serif">encoder mot de passe (BCrypt)</text></g><g class="message" data-entity-1="part3" data-entity-2="part5" id="msg4" data-source-line="25"><polygon points="937.6309,436.3906,947.6309,440.3906,937.6309,444.3906,941.6309,440.3906" fill="#181818" style="stroke:#181818;stroke-width:1;stroke-linejoin:miter;stroke-miterlimit:10;"/><line x1="574.4805" y1="440.3906" x2="943.6309" y2="440.3906" style="stroke:#181818;stroke-width:1;"/><text x="589.4805" y="427.5605" fill="#000000" font-size="12" lengthAdjust="spacing" textLength="73.3711" font-family="sans-serif">INSERT user</text></g><g class="message" data-entity-1="part3" data-entity-2="part4" id="msg5" data-source-line="26"><polygon points="795.5254,480.3594,805.5254,484.3594,795.5254,488.3594,799.5254,484.3594" fill="#181818" style="stroke:#181818;stroke-width:1;stroke-linejoin:miter;stroke-miterlimit:10;"/><line x1="574.4805" y1="484.3594" x2="801.5254" y2="484.3594" style="stroke:#181818;stroke-width:1;"/><text x="589.4805" y="471.5293" fill="#000000" font-size="12" lengthAdjust="spacing" textLength="122.6367" font-family="sans-serif">log(USER_CREATED)</text></g><g class="message" data-entity-1="part4" data-entity-2="part5" id="msg6" data-source-line="27"><polygon points="937.6309,524.3281,947.6309,528.3281,937.6309,532.3281,941.6309,528.3281" fill="#181818" style="stroke:#181818;stroke-width:1;stroke-linejoin:miter;stroke-miterlimit:10;"/><line x1="807.5254" y1="528.3281" x2="943.6309" y2="528.3281" style="stroke:#181818;stroke-width:1;"/><text x="822.5254" y="515.498" fill="#000000" font-size="12" lengthAdjust="spacing" textLength="102.1055" font-family="sans-serif">INSERT audit_log</text></g><g class="message" data-entity-1="part3" data-entity-2="part2" id="msg7" data-source-line="28"><polygon points="423.2402,568.2969,413.2402,572.2969,423.2402,576.2969,419.2402,572.2969" fill="#181818" style="stroke:#181818;stroke-width:1;stroke-linejoin:miter;stroke-miterlimit:10;"/><line x1="417.2402" y1="572.2969" x2="568.4805" y2="572.2969" style="stroke:#181818;stroke-width:1;stroke-dasharray:2,2;"/><text x="437.2402" y="559.4668" fill="#000000" font-size="12" lengthAdjust="spacing" textLength="27.3516" font-family="sans-serif">User</text></g><g class="message" data-entity-1="part2" data-entity-2="part1" id="msg8" data-source-line="30"><polygon points="71.8301,612.2656,61.8301,616.2656,71.8301,620.2656,67.8301,616.2656" fill="#181818" style="stroke:#181818;stroke-width:1;stroke-linejoin:miter;stroke-miterlimit:10;"/><line x1="65.8301" y1="616.2656" x2="406.2402" y2="616.2656" style="stroke:#181818;stroke-width:1;stroke-dasharray:2,2;"/><text x="85.8301" y="603.4355" fill="#000000" font-size="12" lengthAdjust="spacing" textLength="169.6406" font-family="sans-serif">Liste utilisateurs mise à jour</text></g><rect x="0" y="652.25" width="1000.2393" height="3" fill="#EEEEEE" style="stroke:#EEEEEE;stroke-width:1;"/><line x1="0" y1="652.25" x2="1000.2393" y2="652.25" style="stroke:#000000;stroke-width:1;"/><line x1="0" y1="655.25" x2="1000.2393" y2="655.25" style="stroke:#000000;stroke-width:1;"/><rect x="406.9146" y="634.2656" width="186.4102" height="37.9688" fill="#EEEEEE" style="stroke:#000000;stroke-width:2;"/><text x="420.9146" y="657.4043" fill="#000000" font-size="12" lengthAdjust="spacing" textLength="152.2324" font-weight="700" font-family="sans-serif">Modifier ou désactiver</text><g class="message" data-entity-1="part1" data-entity-2="part2" id="msg9" data-source-line="35"><polygon points="390.2402,714.2031,400.2402,718.2031,390.2402,722.2031,394.2402,718.2031" fill="#181818" style="stroke:#181818;stroke-width:1;stroke-linejoin:miter;stroke-miterlimit:10;"/><line x1="60.8301" y1="718.2031" x2="396.2402" y2="718.2031" style="stroke:#181818;stroke-width:1;"/><text x="75.8301" y="705.373" fill="#000000" font-size="12" lengthAdjust="spacing" textLength="235.9102" font-family="sans-serif">POST /admin/users/{id} (rôle, enabled)</text></g><g class="message" data-entity-1="part2" data-entity-2="part3" id="msg10" data-source-line="37"><polygon points="552.4805,758.1719,562.4805,762.1719,552.4805,766.1719,556.4805,762.1719" fill="#181818" style="stroke:#181818;stroke-width:1;stroke-linejoin:miter;stroke-miterlimit:10;"/><line x1="412.2402" y1="762.1719" x2="558.4805" y2="762.1719" style="stroke:#181818;stroke-width:1;"/><text x="427.2402" y="749.3418" fill="#000000" font-size="12" lengthAdjust="spacing" textLength="117.2402" font-family="sans-serif">updateUser(id, dto)</text></g><g class="message" data-entity-1="part3" data-entity-2="part5" id="msg11" data-source-line="39"><polygon points="937.6309,802.1406,947.6309,806.1406,937.6309,810.1406,941.6309,806.1406" fill="#181818" style="stroke:#181818;stroke-width:1;stroke-linejoin:miter;stroke-miterlimit:10;"/><line x1="574.4805" y1="806.1406" x2="943.6309" y2="806.1406" style="stroke:#181818;stroke-width:1;"/><text x="589.4805" y="793.3105" fill="#000000" font-size="12" lengthAdjust="spacing" textLength="78.3691" font-family="sans-serif">UPDATE user</text></g><g class="message" data-entity-1="part3" data-entity-2="part4" id="msg12" data-source-line="40"><polygon points="795.5254,846.1094,805.5254,850.1094,795.5254,854.1094,799.5254,850.1094" fill="#181818" style="stroke:#181818;stroke-width:1;stroke-linejoin:miter;stroke-miterlimit:10;"/><line x1="574.4805" y1="850.1094" x2="801.5254" y2="850.1094" style="stroke:#181818;stroke-width:1;"/><text x="589.4805" y="837.2793" fill="#000000" font-size="12" lengthAdjust="spacing" textLength="123.5977" font-family="sans-serif">log(USER_UPDATED)</text></g><g class="message" data-entity-1="part4" data-entity-2="part5" id="msg13" data-source-line="41"><polygon points="937.6309,890.0781,947.6309,894.0781,937.6309,898.0781,941.6309,894.0781" fill="#181818" style="stroke:#181818;stroke-width:1;stroke-linejoin:miter;stroke-miterlimit:10;"/><line x1="807.5254" y1="894.0781" x2="943.6309" y2="894.0781" style="stroke:#181818;stroke-width:1;"/><text x="822.5254" y="881.248" fill="#000000" font-size="12" lengthAdjust="spacing" textLength="102.1055" font-family="sans-serif">INSERT audit_log</text></g><g class="message" data-entity-1="part3" data-entity-2="part2" id="msg14" data-source-line="42"><polygon points="423.2402,934.0469,413.2402,938.0469,423.2402,942.0469,419.2402,938.0469" fill="#181818" style="stroke:#181818;stroke-width:1;stroke-linejoin:miter;stroke-miterlimit:10;"/><line x1="417.2402" y1="938.0469" x2="568.4805" y2="938.0469" style="stroke:#181818;stroke-width:1;stroke-dasharray:2,2;"/><text x="437.2402" y="925.2168" fill="#000000" font-size="12" lengthAdjust="spacing" textLength="17.3145" font-family="sans-serif">OK</text></g><g class="message" data-entity-1="part2" data-entity-2="part1" id="msg15" data-source-line="44"><polygon points="71.8301,978.0156,61.8301,982.0156,71.8301,986.0156,67.8301,982.0156" fill="#181818" style="stroke:#181818;stroke-width:1;stroke-linejoin:miter;stroke-miterlimit:10;"/><line x1="65.8301" y1="982.0156" x2="406.2402" y2="982.0156" style="stroke:#181818;stroke-width:1;stroke-dasharray:2,2;"/><text x="85.8301" y="969.1855" fill="#000000" font-size="12" lengthAdjust="spacing" textLength="77.8477" font-family="sans-serif">Confirmation</text></g><path d="M523,995.0156 L523,1048.0156 L994,1048.0156 L994,1005.0156 L984,995.0156 L523,995.0156" style="stroke:#181818;stroke-width:0.5;" fill="#FEFFDD"/><path d="M984,995.0156 L984,1005.0156 L994,1005.0156 L984,995.0156" style="stroke:#181818;stroke-width:0.5;" fill="#FEFFDD"/><text x="594.915" y="1019.1543" fill="#000000" font-size="12" lengthAdjust="spacing" textLength="318.7793" font-family="sans-serif">Attribution des rôles : ADMIN, AGENT, CHEF_AGENCE</text><text x="594.915" y="1033.123" fill="#000000" font-size="12" lengthAdjust="spacing" textLength="256.2246" font-family="sans-serif">Compte désactivé → connexion impossible</text><?plantuml-src ZPF1RjD048Rl-nIZdX8fA50kg5AG7Dij5KqQwkGSRRoJi63lcjrrKq18d7W0n0DmpPqty9lqIPYrc-24W7fQQ_wPyVz_QzltKXNSy1piMoxqMgeLB7bcaTcTOj0MMbaSeRLyXKFCz3emHg_1cRBTA739oyoTQ-KI-GdXsMbBh2UEInDkd4nbmPMRS26yX-TFZ-iZRbPImMbR7kgxxTZ1sgRuWZ4dNOQGL9iF9QeKuVxh3xX0wwHMvDf2wMGcBNTO6iiOJvqs48XSAccTgSl0RLDXnHytS3ApQ48APNIMeJdnNU7V7GcQMvbYBIVxSb0AwTfwC8kOu8ulk4KucMZhLWQJDrUr60qP6mmWDDK63PIgRHm60yPgY_3a9OHm1fFhP0fzxalzacnOwFX3yHnxOAfV6HsvTaG02cujTdroUKlRA4JejoIq9JL85H-Z8vnkzIGisVOGL2t8KNiRT8QX-LYuRjCM3QdlSfp4DrFmBfegfQLofbUT6Idpy2OEfd7KPRv-CCGzgJcr-ic7XDuL4zYo5DPQW-4ChkZ-SEzs8PTahVe9xtIvDnhMP4TQoAMa9Be4KMriBUDZsFO_I_45EWzOKV55Xk8uqR8GMw9IzE0erJhvR18HZd_ZQlJ7uxf-_JzOz1qlfScv_oiEo2XDf_OWafx_2042vunSbBi_gCvjQKiGZIx7FGWkul6q1-6h-7pkdyEOXaAT5xHe1xRQmFstxv1gfV3ERv9veQsLX8wX4k1V-ni0?></g></svg>