<svg xmlns="http://www.w3.org/2000/svg" xmlns:xlink="http://www.w3.org/1999/xlink" contentStyleType="text/css" height="956px" preserveAspectRatio="none" style="width:1145px;height:956px;background:#FFFFFF;" version="1.1" viewBox="0 0 1145 956" width="1145px" zoomAndPan="magnify"><title>S&#233;quence &#8212; Paiement de facture avec re&#231;u</title><defs/><g><text fill="#000000" font-family="sans-serif" font-size="14" font-weight="bold" lengthAdjust="spacing" textLength="289.8984" x="428.6489" y="29.5332">S&#233;quence &#8212; Paiement de facture avec re&#231;u</text><rect fill="none" height="509.6484" style="stroke:#000000;stroke-width:1.5;" width="1128.1963" x="10" y="245.625"/><rect fill="none" height="370.4063" style="stroke:#000000;stroke-width:1.5;" width="1108.1963" x="20" y="377.8672"/><line style="stroke:#181818;stroke-width:0.5;stroke-dasharray:5.0,5.0;" x1="80" x2="80" y1="121.2188" y2="874.0313"/><line style="stroke:#181818;stroke-width:0.5;stroke-dasharray:5.0,5.0;" x1="275.0142" x2="275.0142" y1="121.2188" y2="874.0313"/><line style="stroke:#181818;stroke-width:0.5;stroke-dasharray:5.0,5.0;" x1="493.751" x2="493.751" y1="121.2188" y2="874.0313"/><line style="stroke:#181818;stroke-width:0.5;stroke-dasharray:5.0,5.0;" x1="689.7363" x2="689.7363" y1="121.2188" y2="874.0313"/><line style="stroke:#181818;stroke-width:0.5;stroke-dasharray:5.0,5.0;" x1="822.0049" x2="822.0049" y1="121.2188" y2="874.0313"/><line style="stroke:#181818;stroke-width:0.5;stroke-dasharray:5.0,5.0;" x1="1076.9346" x2="1076.9346" y1="121.2188" y2="874.0313"/><text fill="#000000" font-family="sans-serif" font-size="14" lengthAdjust="spacing" textLength="94.1787" x="30" y="118.1426">Agent bancaire</text><ellipse cx="80.0894" cy="52.1094" fill="#E2E2F0" rx="8" ry="8" style="stroke:#181818;stroke-width:0.5;"/><path d="M80.0894,60.1094 L80.0894,87.1094 M67.0894,68.1094 L93.0894,68.1094 M80.0894,87.1094 L67.0894,102.1094 M80.0894,87.1094 L93.0894,102.1094 " fill="none" style="stroke:#181818;stroke-width:0.5;"/><text fill="#000000" font-family="sans-serif" font-size="14" lengthAdjust="spacing" textLength="94.1787" x="30" y="887.5645">Agent bancaire</text><ellipse cx="80.0894" cy="899.1406" fill="#E2E2F0" rx="8" ry="8" style="stroke:#181818;stroke-width:0.5;"/><path d="M80.0894,907.1406 L80.0894,934.1406 M67.0894,915.1406 L93.0894,915.1406 M80.0894,934.1406 L67.0894,949.1406 M80.0894,934.1406 L93.0894,949.1406 " fill="none" style="stroke:#181818;stroke-width:0.5;"/><rect fill="#E2E2F0" height="31.6094" rx="2.5" ry="2.5" style="stroke:#181818;stroke-width:0.5;" width="148.6064" x="201.0142" y="88.6094"/><text fill="#000000" font-family="sans-serif" font-size="14" lengthAdjust="spacing" textLength="134.6064" x="208.0142" y="110.1426">BillPaymentController</text><rect fill="#E2E2F0" height="31.6094" rx="2.5" ry="2.5" style="stroke:#181818;stroke-width:0.5;" width="148.6064" x="201.0142" y="873.0313"/><text fill="#000000" font-family="sans-serif" font-size="14" lengthAdjust="spacing" textLength="134.6064" x="208.0142" y="894.5645">BillPaymentController</text><rect fill="#E2E2F0" height="31.6094" rx="2.5" ry="2.5" style="stroke:#181818;stroke-width:0.5;" width="134.5996" x="426.751" y="88.6094"/><text fill="#000000" font-family="sans-serif" font-size="14" lengthAdjust="spacing" textLength="120.5996" x="433.751" y="110.1426">BillPaymentService</text><rect fill="#E2E2F0" height="31.6094" rx="2.5" ry="2.5" style="stroke:#181818;stroke-width:0.5;" width="134.5996" x="426.751" y="873.0313"/><text fill="#000000" font-family="sans-serif" font-size="14" lengthAdjust="spacing" textLength="120.5996" x="433.751" y="894.5645">BillPaymentService</text><rect fill="#E2E2F0" height="31.6094" rx="2.5" ry="2.5" style="stroke:#181818;stroke-width:0.5;" width="111.2686" x="634.7363" y="88.6094"/><text fill="#000000" font-family="sans-serif" font-size="14" lengthAdjust="spacing" textLength="97.2686" x="641.7363" y="110.1426">AccountService</text><rect fill="#E2E2F0" height="31.6094" rx="2.5" ry="2.5" style="stroke:#181818;stroke-width:0.5;" width="111.2686" x="634.7363" y="873.0313"/><text fill="#000000" font-family="sans-serif" font-size="14" lengthAdjust="spacing" textLength="97.2686" x="641.7363" y="894.5645">AccountService</text><rect fill="#E2E2F0" height="31.6094" rx="2.5" ry="2.5" style="stroke:#181818;stroke-width:0.5;" width="133.8271" x="756.0049" y="88.6094"/><text fill="#000000" font-family="sans-serif" font-size="14" lengthAdjust="spacing" textLength="119.8271" x="763.0049" y="110.1426">TransactionService</text><rect fill="#E2E2F0" height="31.6094" rx="2.5" ry="2.5" style="stroke:#181818;stroke-width:0.5;" width="133.8271" x="756.0049" y="873.0313"/><text fill="#000000" font-family="sans-serif" font-size="14" lengthAdjust="spacing" textLength="119.8271" x="763.0049" y="894.5645">TransactionService</text><text fill="#000000" font-family="sans-serif" font-size="14" lengthAdjust="spacing" textLength="76.2617" x="1035.9346" y="118.1426">PostgreSQL</text><path d="M1059.0654,67.6094 C1059.0654,57.6094 1077.0654,57.6094 1077.0654,57.6094 C1077.0654,57.6094 1095.0654,57.6094 1095.0654,67.6094 L1095.0654,93.6094 C1095.0654,103.6094 1077.0654,103.6094 1077.0654,103.6094 C1077.0654,103.6094 1059.0654,103.6094 1059.0654,93.6094 L1059.0654,67.6094 " fill="#E2E2F0" style="stroke:#181818;stroke-width:1.5;"/><path d="M1059.0654,67.6094 C1059.0654,77.6094 1077.0654,77.6094 1077.0654,77.6094 C1077.0654,77.6094 1095.0654,77.6094 1095.0654,67.6094 " fill="none" style="stroke:#181818;stroke-width:1.5;"/><text fill="#000000" font-family="sans-serif" font-size="14" lengthAdjust="spacing" textLength="76.2617" x="1035.9346" y="887.5645">PostgreSQL</text><path d="M1059.0654,900.6406 C1059.0654,890.6406 1077.0654,890.6406 1077.0654,890.6406 C1077.0654,890.6406 1095.0654,890.6406 1095.0654,900.6406 L1095.0654,926.6406 C1095.0654,936.6406 1077.0654,936.6406 1077.0654,936.6406 C1077.0654,936.6406 1059.0654,936.6406 1059.0654,926.6406 L1059.0654,900.6406 " fill="#E2E2F0" style="stroke:#181818;stroke-width:1.5;"/><path d="M1059.0654,900.6406 C1059.0654,910.6406 1077.0654,910.6406 1077.0654,910.6406 C1077.0654,910.6406 1095.0654,910.6406 1095.0654,900.6406 " fill="none" style="stroke:#181818;stroke-width:1.5;"/><polygon fill="#181818" points="263.3174,165.9219,273.3174,169.9219,263.3174,173.9219,267.3174,169.9219" style="stroke:#181818;stroke-width:1;"/><line style="stroke:#181818;stroke-width:1;" x1="80.0894" x2="269.3174" y1="169.9219" y2="169.9219"/><text fill="#000000" font-family="sans-serif" font-size="13" lengthAdjust="spacing" textLength="136.5444" x="87.0894" y="148.7139">Saisir compte, facturier,</text><text fill="#000000" font-family="sans-serif" font-size="13" lengthAdjust="spacing" textLength="143.0762" x="87.0894" y="165.0654">r&#233;f&#233;rence client, montant</text><polygon fill="#181818" points="482.0508,196.2734,492.0508,200.2734,482.0508,204.2734,486.0508,200.2734" style="stroke:#181818;stroke-width:1;"/><line style="stroke:#181818;stroke-width:1;" x1="275.3174" x2="488.0508" y1="200.2734" y2="200.2734"/><text fill="#000000" font-family="sans-serif" font-size="13" lengthAdjust="spacing" textLength="105.4663" x="282.3174" y="195.417">payBill(form, user)</text><polygon fill="#181818" points="678.3706,226.625,688.3706,230.625,678.3706,234.625,682.3706,230.625" style="stroke:#181818;stroke-width:1;"/><line style="stroke:#181818;stroke-width:1;" x1="494.0508" x2="684.3706" y1="230.625" y2="230.625"/><text fill="#000000" font-family="sans-serif" font-size="13" lengthAdjust="spacing" textLength="172.3198" x="501.0508" y="225.7686">findAccount + v&#233;rifier ACTIVE</text><path d="M10,245.625 L70.1709,245.625 L70.1709,253.9766 L60.1709,263.9766 L10,263.9766 L10,245.625 " fill="#EEEEEE" style="stroke:#000000;stroke-width:1.5;"/><rect fill="none" height="509.6484" style="stroke:#000000;stroke-width:1.5;" width="1128.1963" x="10" y="245.625"/><text fill="#000000" font-family="sans-serif" font-size="13" font-weight="bold" lengthAdjust="spacing" textLength="15.1709" x="25" y="260.1201">alt</text><text fill="#000000" font-family="sans-serif" font-size="11" font-weight="bold" lengthAdjust="spacing" textLength="141.7754" x="85.1709" y="259.0439">[compte bloqu&#233; ou cl&#244;tur&#233;]</text><polygon fill="#181818" points="286.3174,282.3281,276.3174,286.3281,286.3174,290.3281,282.3174,286.3281" style="stroke:#181818;stroke-width:1;"/><line style="stroke:#181818;stroke-width:1;stroke-dasharray:2.0,2.0;" x1="280.3174" x2="493.0508" y1="286.3281" y2="286.3281"/><text fill="#000000" font-family="sans-serif" font-size="13" lengthAdjust="spacing" textLength="74.4072" x="292.3174" y="281.4717">erreur m&#233;tier</text><polygon fill="#181818" points="91.0894,312.6797,81.0894,316.6797,91.0894,320.6797,87.0894,316.6797" style="stroke:#181818;stroke-width:1;"/><line style="stroke:#181818;stroke-width:1;stroke-dasharray:2.0,2.0;" x1="85.0894" x2="274.3174" y1="316.6797" y2="316.6797"/><text fill="#000000" font-family="sans-serif" font-size="13" lengthAdjust="spacing" textLength="100.75" x="97.0894" y="311.8232">message d'erreur</text><line style="stroke:#000000;stroke-width:1;stroke-dasharray:2.0,2.0;" x1="10" x2="1138.1963" y1="325.6797" y2="325.6797"/><text fill="#000000" font-family="sans-serif" font-size="11" font-weight="bold" lengthAdjust="spacing" textLength="87.3984" x="15" y="337.0986">[compte &#233;ligible]</text><polygon fill="#181818" points="678.3706,358.8672,688.3706,362.8672,678.3706,366.8672,682.3706,362.8672" style="stroke:#181818;stroke-width:1;"/><line style="stroke:#181818;stroke-width:1;" x1="494.0508" x2="684.3706" y1="362.8672" y2="362.8672"/><text fill="#000000" font-family="sans-serif" font-size="13" lengthAdjust="spacing" textLength="136.7793" x="501.0508" y="358.0107">v&#233;rifier solde &#8805; montant</text><path d="M20,377.8672 L80.1709,377.8672 L80.1709,386.2188 L70.1709,396.2188 L20,396.2188 L20,377.8672 " fill="#EEEEEE" style="stroke:#000000;stroke-width:1.5;"/><rect fill="none" height="370.4063" style="stroke:#000000;stroke-width:1.5;" width="1108.1963" x="20" y="377.8672"/><text fill="#000000" font-family="sans-serif" font-size="13" font-weight="bold" lengthAdjust="spacing" textLength="15.1709" x="35" y="392.3623">alt</text><text fill="#000000" font-family="sans-serif" font-size="11" font-weight="bold" lengthAdjust="spacing" textLength="94.7246" x="95.1709" y="391.2861">[solde insuffisant]</text><polygon fill="#181818" points="286.3174,414.5703,276.3174,418.5703,286.3174,422.5703,282.3174,418.5703" style="stroke:#181818;stroke-width:1;"/><line style="stroke:#181818;stroke-width:1;stroke-dasharray:2.0,2.0;" x1="280.3174" x2="493.0508" y1="418.5703" y2="418.5703"/><text fill="#000000" font-family="sans-serif" font-size="13" lengthAdjust="spacing" textLength="69.3672" x="292.3174" y="413.7139">erreur solde</text><polygon fill="#181818" points="91.0894,444.9219,81.0894,448.9219,91.0894,452.9219,87.0894,448.9219" style="stroke:#181818;stroke-width:1;"/><line style="stroke:#181818;stroke-width:1;stroke-dasharray:2.0,2.0;" x1="85.0894" x2="274.3174" y1="448.9219" y2="448.9219"/><text fill="#000000" font-family="sans-serif" font-size="13" lengthAdjust="spacing" textLength="100.75" x="97.0894" y="444.0654">message d'erreur</text><line style="stroke:#000000;stroke-width:1;stroke-dasharray:2.0,2.0;" x1="20" x2="1128.1963" y1="457.9219" y2="457.9219"/><text fill="#000000" font-family="sans-serif" font-size="11" font-weight="bold" lengthAdjust="spacing" textLength="55.6123" x="25" y="469.3408">[solde OK]</text><polygon fill="#181818" points="810.9185,491.1094,820.9185,495.1094,810.9185,499.1094,814.9185,495.1094" style="stroke:#181818;stroke-width:1;"/><line style="stroke:#181818;stroke-width:1;" x1="494.0508" x2="816.9185" y1="495.1094" y2="495.1094"/><text fill="#000000" font-family="sans-serif" font-size="13" lengthAdjust="spacing" textLength="235.5044" x="501.0508" y="490.2529">cr&#233;er transaction PAIEMENT_FACTURE</text><polygon fill="#181818" points="1065.0654,521.4609,1075.0654,525.4609,1065.0654,529.4609,1069.0654,525.4609" style="stroke:#181818;stroke-width:1;"/><line style="stroke:#181818;stroke-width:1;" x1="822.9185" x2="1071.0654" y1="525.4609" y2="525.4609"/><text fill="#000000" font-family="sans-serif" font-size="13" lengthAdjust="spacing" textLength="230.147" x="829.9185" y="520.6045">d&#233;biter compte + enregistrer transaction</text><polygon fill="#181818" points="1065.0654,568.1641,1075.0654,572.1641,1065.0654,576.1641,1069.0654,572.1641" style="stroke:#181818;stroke-width:1;"/><line style="stroke:#181818;stroke-width:1;" x1="494.0508" x2="1071.0654" y1="572.1641" y2="572.1641"/><text fill="#000000" font-family="sans-serif" font-size="13" lengthAdjust="spacing" textLength="138.7344" x="501.0508" y="550.9561">enregistrer bill_payment</text><text fill="#000000" font-family="sans-serif" font-size="13" lengthAdjust="spacing" textLength="117.7617" x="501.0508" y="567.3076">(facturier, r&#233;f&#233;rence)</text><polygon fill="#181818" points="1065.0654,598.5156,1075.0654,602.5156,1065.0654,606.5156,1069.0654,602.5156" style="stroke:#181818;stroke-width:1;"/><line style="stroke:#181818;stroke-width:1;" x1="494.0508" x2="1071.0654" y1="602.5156" y2="602.5156"/><text fill="#000000" font-family="sans-serif" font-size="13" lengthAdjust="spacing" textLength="218.9243" x="501.0508" y="597.6592">audit log BILL_PAYMENT_CREATED</text><polygon fill="#181818" points="286.3174,628.8672,276.3174,632.8672,286.3174,636.8672,282.3174,632.8672" style="stroke:#181818;stroke-width:1;"/><line style="stroke:#181818;stroke-width:1;stroke-dasharray:2.0,2.0;" x1="280.3174" x2="493.0508" y1="632.8672" y2="632.8672"/><text fill="#000000" font-family="sans-serif" font-size="13" lengthAdjust="spacing" textLength="194.7334" x="292.3174" y="628.0107">BillPaymentResult + transactionId</text><polygon fill="#181818" points="91.0894,659.2188,81.0894,663.2188,91.0894,667.2188,87.0894,663.2188" style="stroke:#181818;stroke-width:1;"/><line style="stroke:#181818;stroke-width:1;stroke-dasharray:2.0,2.0;" x1="85.0894" x2="274.3174" y1="663.2188" y2="663.2188"/><text fill="#000000" font-family="sans-serif" font-size="13" lengthAdjust="spacing" textLength="104.4126" x="97.0894" y="658.3623">succ&#232;s + lien re&#231;u</text><polygon fill="#181818" points="263.3174,689.5703,273.3174,693.5703,263.3174,697.5703,267.3174,693.5703" style="stroke:#181818;stroke-width:1;"/><line style="stroke:#181818;stroke-width:1;" x1="80.0894" x2="269.3174" y1="693.5703" y2="693.5703"/><text fill="#000000" font-family="sans-serif" font-size="13" lengthAdjust="spacing" textLength="169.0825" x="87.0894" y="688.7139">GET /transactions/{id}/receipt</text><polygon fill="#181818" points="91.0894,736.2734,81.0894,740.2734,91.0894,744.2734,87.0894,740.2734" style="stroke:#181818;stroke-width:1;"/><line style="stroke:#181818;stroke-width:1;stroke-dasharray:2.0,2.0;" x1="85.0894" x2="274.3174" y1="740.2734" y2="740.2734"/><text fill="#000000" font-family="sans-serif" font-size="13" lengthAdjust="spacing" textLength="140.1309" x="97.0894" y="719.0654">re&#231;u imprimable (HTML)</text><text fill="#000000" font-family="sans-serif" font-size="13" lengthAdjust="spacing" textLength="171.228" x="97.0894" y="735.417">ou PDF (re&#231;u-TYPE-date.pdf)</text><path d="M499,767.2734 L499,858.2734 L742,858.2734 L742,777.2734 L732,767.2734 L499,767.2734 " fill="#FEFFDD" style="stroke:#181818;stroke-width:0.5;"/><path d="M732,767.2734 L732,777.2734 L742,777.2734 L732,767.2734 " fill="#FEFFDD" style="stroke:#181818;stroke-width:0.5;"/><text fill="#000000" font-family="sans-serif" font-size="13" lengthAdjust="spacing" textLength="47.6899" x="505" y="785.7686">R&#232;gles :</text><text fill="#000000" font-family="sans-serif" font-size="13" lengthAdjust="spacing" textLength="175.5762" x="505" y="802.1201">- Compte ACTIVE uniquement</text><text fill="#000000" font-family="sans-serif" font-size="13" lengthAdjust="spacing" textLength="76.959" x="505" y="818.4717">- Montant &gt; 0</text><text fill="#000000" font-family="sans-serif" font-size="13" lengthAdjust="spacing" textLength="174.8716" x="505" y="834.8232">- R&#233;f&#233;rence facture obligatoire</text><text fill="#000000" font-family="sans-serif" font-size="13" lengthAdjust="spacing" textLength="222.5552" x="505" y="851.1748">- M&#234;me re&#231;u que les autres op&#233;rations</text><!--SRC=[XLJ1RXCn4BtxAqQva8g4SkwXKffk8IA1a0IaIfKghtTsQ-6rjxOtfK98NBdp2uWkP_vW_wHVmgmtQRQb5OT86y-RDszcdkq-ILrmotDm5pmnLr9da7BbaBcxY4LN6ErmXixn38zGcQkHjUOAl2sHCI-zGbZMrMM9MY3SVli1SounH-qXGU8JlhG8V8s2oEfV9MDqP2pqHbc3YRaMN5hi0NV0coD6bRqKik0KxXr9fURykk4R6-sjKGfj00jlrPFO9Tgr52shMulxk94GfhoFuU81PcMvTgHK6jt5-SyiuPx7t27qviRvpEBo_JJ4afXw2qqD3uCwE80bbqvQ42OlF0usuv1e1sVQrbLQLpQCJIX9UGF8gKKgpq8siP1q8YduTTDQFpKs7q3fqEunreG8GS89aKgTRBg2vx0cMfbI5HYDLvEF4UFARoH0hCnbMLTWIYfQ_o4rTSKW51hkPAErM5h8wyeJ3SLRGKszqE01vAqX87dMOXcISRP5wah9JCOAjynRdJjbpYYon-ttdtSz0pGostEfNPccqhNdJyaBs13_lpo08B2bV_Tcntf8EwK4GNCWMNwtTfYF9j4iUhiwFw4nVbX48OV0b9B4b9BKLImzRhTBWqTjCPFEs_jCtM8XiukBQRFdHUlQCztVEGGw1jdxXuANYVIWJ0P7a-dqV3uw3LB7YsYqYeuV6rhdTYpGbQfnIaVa97byaguKehvn16uykhd33VAXrLz5AzZl4BhzBpBvkczHe2pyu-I13MHUM9bpyWlqNwzcqxqpJVQS7vz0Fm26gzDvDAHxXo-A96rcWJfXpOzfGuEtChlmOD9mqm4MzKscqC41VGzXt2wdlGbGQaalLJE349orteD3U1d-BpftSljqcPZCpBsXHwhDgN_dk55END2KuYNjqe4fA9c7vXjvqAXZVm40]--></g></svg>