<svg xmlns="http://www.w3.org/2000/svg" xmlns:xlink="http://www.w3.org/1999/xlink" version="1.1" data-diagram-type="SEQUENCE" style="width:1286px;height:1344px;background:#FFFFFF;" width="1286px" height="1344px" viewBox="0 0 1286 1344" zoomAndPan="magnify" preserveAspectRatio="none" contentStyleType="text/css"><?plantuml 1.2026.7beta3?><defs/><g><g class="title" data-source-line="10"><text x="468.8008" y="35.9951" fill="#000000" font-size="14" lengthAdjust="spacing" textLength="342.2549" font-weight="700" font-family="sans-serif">Séquence — Paiement de facture avec reçu</text></g><rect x="3" y="61.2969" width="1270.8564" height="38.2813" fill="#FFFFCC" style="stroke:#FFDD88;stroke-width:3;" rx="2.5" ry="2.5"/><text x="10" y="71.9375" fill="#000000" font-size="10" lengthAdjust="spacing" textLength="361.2305" font-family="monospace">Please use CSS style instead of skinparam ParticipantPadding</text><text x="10" y="93.5781" fill="#000000" font-size="10" lengthAdjust="spacing" textLength="295.0049" font-family="monospace">Please use CSS style instead of skinparam padding</text><rect x="10" y="354.4219" width="1260.8564" height="771.3438" fill="none" style="stroke:#000000;stroke-width:1.5;"/><rect x="20" y="572.2344" width="1240.8564" height="546.5313" fill="none" style="stroke:#000000;stroke-width:1.5;"/><g class="participant-lifeline" data-qualified-name="agent" data-entity-uid="part1" id="part1-lifeline" data-source-line="12"><g><title>Agent bancaire</title><rect x="82.7559" y="191.5469" width="8" height="1057.0625" fill="#000000" fill-opacity="0.00000"/><line x1="86" y1="191.5469" x2="86" y2="1248.6094" style="stroke:#181818;stroke-width:0.5;stroke-dasharray:5,5;"/></g></g><g class="participant-lifeline" data-qualified-name="ctrl" data-entity-uid="part2" id="part2-lifeline" data-source-line="13"><g><title>BillPaymentController</title><rect x="305.123" y="191.5469" width="8" height="1057.0625" fill="#000000" fill-opacity="0.00000"/><line x1="308.8232" y1="191.5469" x2="308.8232" y2="1248.6094" style="stroke:#181818;stroke-width:0.5;stroke-dasharray:5,5;"/></g></g><g class="participant-lifeline" data-qualified-name="svc" data-entity-uid="part3" id="part3-lifeline" data-source-line="14"><g><title>BillPaymentService</title><rect x="550.6758" y="191.5469" width="8" height="1057.0625" fill="#000000" fill-opacity="0.00000"/><line x1="553.8467" y1="191.5469" x2="553.8467" y2="1248.6094" style="stroke:#181818;stroke-width:0.5;stroke-dasharray:5,5;"/></g></g><g class="participant-lifeline" data-qualified-name="acc" data-entity-uid="part4" id="part4-lifeline" data-source-line="15"><g><title>AccountService</title><rect x="769.4922" y="191.5469" width="8" height="1057.0625" fill="#000000" fill-opacity="0.00000"/><line x1="772.9863" y1="191.5469" x2="772.9863" y2="1248.6094" style="stroke:#181818;stroke-width:0.5;stroke-dasharray:5,5;"/></g></g><g class="participant-lifeline" data-qualified-name="tx" data-entity-uid="part5" id="part5-lifeline" data-source-line="16"><g><title>TransactionService</title><rect x="913.3789" y="191.5469" width="8" height="1057.0625" fill="#000000" fill-opacity="0.00000"/><line x1="916.998" y1="191.5469" x2="916.998" y2="1248.6094" style="stroke:#181818;stroke-width:0.5;stroke-dasharray:5,5;"/></g></g><g class="participant-lifeline" data-qualified-name="db" data-entity-uid="part6" id="part6-lifeline" data-source-line="17"><g><title>PostgreSQL</title><rect x="1201.248" y="191.5469" width="8" height="1057.0625" fill="#000000" fill-opacity="0.00000"/><line x1="1204.6396" y1="191.5469" x2="1204.6396" y2="1248.6094" style="stroke:#181818;stroke-width:0.5;stroke-dasharray:5,5;"/></g></g><g class="participant participant-head" data-qualified-name="agent" data-entity-uid="part1" id="part1-head" data-source-line="12"><text x="38" y="180.7168" fill="#000000" font-size="12" lengthAdjust="spacing" textLength="91.5117" font-family="sans-serif">Agent bancaire</text><ellipse cx="86.7559" cy="110.0781" rx="8" ry="8" fill="#E2E2F0" style="stroke:#181818;stroke-width:0.5;"/><path d="M86.7559,118.0781 L86.7559,145.0781 M73.7559,126.0781 L99.7559,126.0781 M86.7559,145.0781 L73.7559,160.0781 M86.7559,145.0781 L99.7559,160.0781" style="stroke:#181818;stroke-width:0.5;" fill="none"/></g><g class="participant participant-tail" data-qualified-name="agent" data-entity-uid="part1" id="part1-tail" data-source-line="12"><text x="38" y="1266.748" fill="#000000" font-size="12" lengthAdjust="spacing" textLength="91.5117" font-family="sans-serif">Agent bancaire</text><ellipse cx="86.7559" cy="1286.0781" rx="8" ry="8" fill="#E2E2F0" style="stroke:#181818;stroke-width:0.5;"/><path d="M86.7559,1294.0781 L86.7559,1321.0781 M73.7559,1302.0781 L99.7559,1302.0781 M86.7559,1321.0781 L73.7559,1336.0781 M86.7559,1321.0781 L99.7559,1336.0781" style="stroke:#181818;stroke-width:0.5;" fill="none"/></g><g class="participant participant-head" data-qualified-name="ctrl" data-entity-uid="part2" id="part2-head" data-source-line="13"><rect x="228.8232" y="146.5781" width="160.5996" height="43.9688" fill="#E2E2F0" style="stroke:#181818;stroke-width:0.5;" rx="2.5" ry="2.5"/><text x="243.8232" y="172.7168" fill="#000000" font-size="12" lengthAdjust="spacing" textLength="130.5996" font-family="sans-serif">BillPaymentController</text></g><g class="participant participant-tail" data-qualified-name="ctrl" data-entity-uid="part2" id="part2-tail" data-source-line="13"><rect x="228.8232" y="1247.6094" width="160.5996" height="43.9688" fill="#E2E2F0" style="stroke:#181818;stroke-width:0.5;" rx="2.5" ry="2.5"/><text x="243.8232" y="1273.748" fill="#000000" font-size="12" lengthAdjust="spacing" textLength="130.5996" font-family="sans-serif">BillPaymentController</text></g><g class="participant participant-head" data-qualified-name="svc" data-entity-uid="part3" id="part3-head" data-source-line="14"><rect x="481.8467" y="146.5781" width="145.6582" height="43.9688" fill="#E2E2F0" style="stroke:#181818;stroke-width:0.5;" rx="2.5" ry="2.5"/><text x="496.8467" y="172.7168" fill="#000000" font-size="12" lengthAdjust="spacing" textLength="115.6582" font-family="sans-serif">BillPaymentService</text></g><g class="participant participant-tail" data-qualified-name="svc" data-entity-uid="part3" id="part3-tail" data-source-line="14"><rect x="481.8467" y="1247.6094" width="145.6582" height="43.9688" fill="#E2E2F0" style="stroke:#181818;stroke-width:0.5;" rx="2.5" ry="2.5"/><text x="496.8467" y="1273.748" fill="#000000" font-size="12" lengthAdjust="spacing" textLength="115.6582" font-family="sans-serif">BillPaymentService</text></g><g class="participant participant-head" data-qualified-name="acc" data-entity-uid="part4" id="part4-head" data-source-line="15"><rect x="711.9863" y="146.5781" width="123.0117" height="43.9688" fill="#E2E2F0" style="stroke:#181818;stroke-width:0.5;" rx="2.5" ry="2.5"/><text x="726.9863" y="172.7168" fill="#000000" font-size="12" lengthAdjust="spacing" textLength="93.0117" font-family="sans-serif">AccountService</text></g><g class="participant participant-tail" data-qualified-name="acc" data-entity-uid="part4" id="part4-tail" data-source-line="15"><rect x="711.9863" y="1247.6094" width="123.0117" height="43.9688" fill="#E2E2F0" style="stroke:#181818;stroke-width:0.5;" rx="2.5" ry="2.5"/><text x="726.9863" y="1273.748" fill="#000000" font-size="12" lengthAdjust="spacing" textLength="93.0117" font-family="sans-serif">AccountService</text></g><g class="participant participant-head" data-qualified-name="tx" data-entity-uid="part5" id="part5-head" data-source-line="16"><rect x="844.998" y="146.5781" width="144.7617" height="43.9688" fill="#E2E2F0" style="stroke:#181818;stroke-width:0.5;" rx="2.5" ry="2.5"/><text x="859.998" y="172.7168" fill="#000000" font-size="12" lengthAdjust="spacing" textLength="114.7617" font-family="sans-serif">TransactionService</text></g><g class="participant participant-tail" data-qualified-name="tx" data-entity-uid="part5" id="part5-tail" data-source-line="16"><rect x="844.998" y="1247.6094" width="144.7617" height="43.9688" fill="#E2E2F0" style="stroke:#181818;stroke-width:0.5;" rx="2.5" ry="2.5"/><text x="859.998" y="1273.748" fill="#000000" font-size="12" lengthAdjust="spacing" textLength="114.7617" font-family="sans-serif">TransactionService</text></g><g class="participant participant-head" data-qualified-name="db" data-entity-uid="part6" id="part6-head" data-source-line="17"><text x="1167.6396" y="180.7168" fill="#000000" font-size="12" lengthAdjust="spacing" textLength="69.2168" font-family="sans-serif">PostgreSQL</text><path d="M1187.248,125.5781 C1187.248,115.5781 1205.248,115.5781 1205.248,115.5781 C1205.248,115.5781 1223.248,115.5781 1223.248,125.5781 L1223.248,151.5781 C1223.248,161.5781 1205.248,161.5781 1205.248,161.5781 C1205.248,161.5781 1187.248,161.5781 1187.248,151.5781 L1187.248,125.5781" style="stroke:#181818;stroke-width:0.5;" fill="#E2E2F0"/><path d="M1187.248,125.5781 C1187.248,135.5781 1205.248,135.5781 1205.248,135.5781 C1205.248,135.5781 1223.248,135.5781 1223.248,125.5781" style="stroke:#181818;stroke-width:0.5;" fill="none"/></g><g class="participant participant-tail" data-qualified-name="db" data-entity-uid="part6" id="part6-tail" data-source-line="17"><text x="1167.6396" y="1266.748" fill="#000000" font-size="12" lengthAdjust="spacing" textLength="69.2168" font-family="sans-serif">PostgreSQL</text><path d="M1187.248,1287.5781 C1187.248,1277.5781 1205.248,1277.5781 1205.248,1277.5781 C1205.248,1277.5781 1223.248,1277.5781 1223.248,1287.5781 L1223.248,1313.5781 C1223.248,1323.5781 1205.248,1323.5781 1205.248,1323.5781 C1205.248,1323.5781 1187.248,1323.5781 1187.248,1313.5781 L1187.248,1287.5781" style="stroke:#181818;stroke-width:0.5;" fill="#E2E2F0"/><path d="M1187.248,1287.5781 C1187.248,1297.5781 1205.248,1297.5781 1205.248,1297.5781 C1205.248,1297.5781 1223.248,1297.5781 1223.248,1287.5781" style="stroke:#181818;stroke-width:0.5;" fill="none"/></g><g class="message" data-entity-1="part1" data-entity-2="part2" id="msg1" data-source-line="19"><polygon points="297.123,247.4844,307.123,251.4844,297.123,255.4844,301.123,251.4844" fill="#181818" style="stroke:#181818;stroke-width:1;stroke-linejoin:miter;stroke-miterlimit:10;"/><line x1="86.7559" y1="251.4844" x2="303.123" y2="251.4844" style="stroke:#181818;stroke-width:1;"/><text x="101.7559" y="224.6855" fill="#000000" font-size="12" lengthAdjust="spacing" textLength="144.4863" font-family="sans-serif">Saisir compte, facturier,</text><text x="101.7559" y="238.6543" fill="#000000" font-size="12" lengthAdjust="spacing" textLength="153.2344" font-family="sans-serif">référence client, montant</text></g><g class="message" data-entity-1="part2" data-entity-2="part3" id="msg2" data-source-line="20"><polygon points="542.6758,291.4531,552.6758,295.4531,542.6758,299.4531,546.6758,295.4531" fill="#181818" style="stroke:#181818;stroke-width:1;stroke-linejoin:miter;stroke-miterlimit:10;"/><line x1="309.123" y1="295.4531" x2="548.6758" y2="295.4531" style="stroke:#181818;stroke-width:1;"/><text x="324.123" y="282.623" fill="#000000" font-size="12" lengthAdjust="spacing" textLength="111.6621" font-family="sans-serif">payBill(form, user)</text></g><g class="message" data-entity-1="part3" data-entity-2="part4" id="msg3" data-source-line="22"><polygon points="761.4922,335.4219,771.4922,339.4219,761.4922,343.4219,765.4922,339.4219" fill="#181818" style="stroke:#181818;stroke-width:1;stroke-linejoin:miter;stroke-miterlimit:10;"/><line x1="554.6758" y1="339.4219" x2="767.4922" y2="339.4219" style="stroke:#181818;stroke-width:1;"/><text x="569.6758" y="326.5918" fill="#000000" font-size="12" lengthAdjust="spacing" textLength="178.8164" font-family="sans-serif">findAccount + vérifier ACTIVE</text></g><path d="M10,354.4219 L88.9473,354.4219 L88.9473,376.3906 L78.9473,386.3906 L10,386.3906 L10,354.4219" style="stroke:#000000;stroke-width:1.5;" fill="#EEEEEE"/><rect x="10" y="354.4219" width="1260.8564" height="771.3438" fill="none" style="stroke:#000000;stroke-width:1.5;"/><text x="33" y="374.5605" fill="#000000" font-size="12" lengthAdjust="spacing" textLength="17.9473" font-weight="700" font-family="sans-serif">alt</text><text x="111.9473" y="375.5605" fill="#000000" font-size="12" lengthAdjust="spacing" textLength="184.6406" font-weight="700" font-family="sans-serif">[compte bloqué ou clôturé]</text><g class="message" data-entity-1="part3" data-entity-2="part2" id="msg4" data-source-line="24"><polygon points="320.123,433.3281,310.123,437.3281,320.123,441.3281,316.123,437.3281" fill="#181818" style="stroke:#181818;stroke-width:1;stroke-linejoin:miter;stroke-miterlimit:10;"/><line x1="314.123" y1="437.3281" x2="553.6758" y2="437.3281" style="stroke:#181818;stroke-width:1;stroke-dasharray:2,2;"/><text x="334.123" y="424.498" fill="#000000" font-size="12" lengthAdjust="spacing" textLength="80.4141" font-family="sans-serif">erreur métier</text></g><g class="message" data-entity-1="part2" data-entity-2="part1" id="msg5" data-source-line="25"><polygon points="97.7559,477.2969,87.7559,481.2969,97.7559,485.2969,93.7559,481.2969" fill="#181818" style="stroke:#181818;stroke-width:1;stroke-linejoin:miter;stroke-miterlimit:10;"/><line x1="91.7559" y1="481.2969" x2="308.123" y2="481.2969" style="stroke:#181818;stroke-width:1;stroke-dasharray:2,2;"/><text x="111.7559" y="468.4668" fill="#000000" font-size="12" lengthAdjust="spacing" textLength="105.832" font-family="sans-serif">message d'erreur</text></g><line x1="10" y1="490.2969" x2="1270.8564" y2="490.2969" style="stroke:#000000;stroke-width:1;stroke-dasharray:2,2;"/><text x="23" y="509.4355" fill="#000000" font-size="12" lengthAdjust="spacing" textLength="115.3828" font-weight="700" font-family="sans-serif">[compte éligible]</text><g class="message" data-entity-1="part3" data-entity-2="part4" id="msg6" data-source-line="27"><polygon points="761.4922,553.2344,771.4922,557.2344,761.4922,561.2344,765.4922,557.2344" fill="#181818" style="stroke:#181818;stroke-width:1;stroke-linejoin:miter;stroke-miterlimit:10;"/><line x1="554.6758" y1="557.2344" x2="767.4922" y2="557.2344" style="stroke:#181818;stroke-width:1;"/><text x="569.6758" y="544.4043" fill="#000000" font-size="12" lengthAdjust="spacing" textLength="147.0586" font-family="sans-serif">vérifier solde ≥ montant</text></g><path d="M20,572.2344 L98.9473,572.2344 L98.9473,594.2031 L88.9473,604.2031 L20,604.2031 L20,572.2344" style="stroke:#000000;stroke-width:1.5;" fill="#EEEEEE"/><rect x="20" y="572.2344" width="1240.8564" height="546.5313" fill="none" style="stroke:#000000;stroke-width:1.5;"/><text x="43" y="592.373" fill="#000000" font-size="12" lengthAdjust="spacing" textLength="17.9473" font-weight="700" font-family="sans-serif">alt</text><text x="121.9473" y="593.373" fill="#000000" font-size="12" lengthAdjust="spacing" textLength="123.791" font-weight="700" font-family="sans-serif">[solde insuffisant]</text><g class="message" data-entity-1="part3" data-entity-2="part2" id="msg7" data-source-line="29"><polygon points="320.123,651.1406,310.123,655.1406,320.123,659.1406,316.123,655.1406" fill="#181818" style="stroke:#181818;stroke-width:1;stroke-linejoin:miter;stroke-miterlimit:10;"/><line x1="314.123" y1="655.1406" x2="553.6758" y2="655.1406" style="stroke:#181818;stroke-width:1;stroke-dasharray:2,2;"/><text x="334.123" y="642.3105" fill="#000000" font-size="12" lengthAdjust="spacing" textLength="72.9141" font-family="sans-serif">erreur solde</text></g><g class="message" data-entity-1="part2" data-entity-2="part1" id="msg8" data-source-line="30"><polygon points="97.7559,695.1094,87.7559,699.1094,97.7559,703.1094,93.7559,699.1094" fill="#181818" style="stroke:#181818;stroke-width:1;stroke-linejoin:miter;stroke-miterlimit:10;"/><line x1="91.7559" y1="699.1094" x2="308.123" y2="699.1094" style="stroke:#181818;stroke-width:1;stroke-dasharray:2,2;"/><text x="111.7559" y="686.2793" fill="#000000" font-size="12" lengthAdjust="spacing" textLength="105.832" font-family="sans-serif">message d'erreur</text></g><line x1="20" y1="708.1094" x2="1260.8564" y2="708.1094" style="stroke:#000000;stroke-width:1;stroke-dasharray:2,2;"/><text x="33" y="727.248" fill="#000000" font-size="12" lengthAdjust="spacing" textLength="70.875" font-weight="700" font-family="sans-serif">[solde OK]</text><g class="message" data-entity-1="part3" data-entity-2="part5" id="msg9" data-source-line="32"><polygon points="905.3789,771.0469,915.3789,775.0469,905.3789,779.0469,909.3789,775.0469" fill="#181818" style="stroke:#181818;stroke-width:1;stroke-linejoin:miter;stroke-miterlimit:10;"/><line x1="554.6758" y1="775.0469" x2="911.3789" y2="775.0469" style="stroke:#181818;stroke-width:1;"/><text x="569.6758" y="762.2168" fill="#000000" font-size="12" lengthAdjust="spacing" textLength="228.9785" font-family="sans-serif">créer transaction PAIEMENT_FACTURE</text></g><g class="message" data-entity-1="part5" data-entity-2="part6" id="msg10" data-source-line="33"><polygon points="1193.248,815.0156,1203.248,819.0156,1193.248,823.0156,1197.248,819.0156" fill="#181818" style="stroke:#181818;stroke-width:1;stroke-linejoin:miter;stroke-miterlimit:10;"/><line x1="917.3789" y1="819.0156" x2="1199.248" y2="819.0156" style="stroke:#181818;stroke-width:1;"/><text x="932.3789" y="806.1855" fill="#000000" font-size="12" lengthAdjust="spacing" textLength="247.8691" font-family="sans-serif">débiter compte + enregistrer transaction</text></g><g class="message" data-entity-1="part3" data-entity-2="part6" id="msg11" data-source-line="34"><polygon points="1193.248,872.9531,1203.248,876.9531,1193.248,880.9531,1197.248,876.9531" fill="#181818" style="stroke:#181818;stroke-width:1;stroke-linejoin:miter;stroke-miterlimit:10;"/><line x1="554.6758" y1="876.9531" x2="1199.248" y2="876.9531" style="stroke:#181818;stroke-width:1;"/><text x="569.6758" y="850.1543" fill="#000000" font-size="12" lengthAdjust="spacing" textLength="147.3516" font-family="sans-serif">enregistrer bill_payment</text><text x="569.6758" y="864.123" fill="#000000" font-size="12" lengthAdjust="spacing" textLength="125.8887" font-family="sans-serif">(facturier, référence)</text></g><g class="message" data-entity-1="part3" data-entity-2="part6" id="msg12" data-source-line="35"><polygon points="1193.248,916.9219,1203.248,920.9219,1193.248,924.9219,1197.248,920.9219" fill="#181818" style="stroke:#181818;stroke-width:1;stroke-linejoin:miter;stroke-miterlimit:10;"/><line x1="554.6758" y1="920.9219" x2="1199.248" y2="920.9219" style="stroke:#181818;stroke-width:1;"/><text x="569.6758" y="908.0918" fill="#000000" font-size="12" lengthAdjust="spacing" textLength="207.3574" font-family="sans-serif">audit log BILL_PAYMENT_CREATED</text></g><g class="message" data-entity-1="part3" data-entity-2="part2" id="msg13" data-source-line="36"><polygon points="320.123,960.8906,310.123,964.8906,320.123,968.8906,316.123,964.8906" fill="#181818" style="stroke:#181818;stroke-width:1;stroke-linejoin:miter;stroke-miterlimit:10;"/><line x1="314.123" y1="964.8906" x2="553.6758" y2="964.8906" style="stroke:#181818;stroke-width:1;stroke-dasharray:2,2;"/><text x="334.123" y="952.0605" fill="#000000" font-size="12" lengthAdjust="spacing" textLength="205.5527" font-family="sans-serif">BillPaymentResult + transactionId</text></g><g class="message" data-entity-1="part2" data-entity-2="part1" id="msg14" data-source-line="37"><polygon points="97.7559,1004.8594,87.7559,1008.8594,97.7559,1012.8594,93.7559,1008.8594" fill="#181818" style="stroke:#181818;stroke-width:1;stroke-linejoin:miter;stroke-miterlimit:10;"/><line x1="91.7559" y1="1008.8594" x2="308.123" y2="1008.8594" style="stroke:#181818;stroke-width:1;stroke-dasharray:2,2;"/><text x="111.7559" y="996.0293" fill="#000000" font-size="12" lengthAdjust="spacing" textLength="110.3613" font-family="sans-serif">succès + lien reçu</text></g><g class="message" data-entity-1="part1" data-entity-2="part2" id="msg15" data-source-line="38"><polygon points="297.123,1048.8281,307.123,1052.8281,297.123,1056.8281,301.123,1052.8281" fill="#181818" style="stroke:#181818;stroke-width:1;stroke-linejoin:miter;stroke-miterlimit:10;"/><line x1="86.7559" y1="1052.8281" x2="303.123" y2="1052.8281" style="stroke:#181818;stroke-width:1;"/><text x="101.7559" y="1039.998" fill="#000000" font-size="12" lengthAdjust="spacing" textLength="182.3672" font-family="sans-serif">GET /transactions/{id}/receipt</text></g><g class="message" data-entity-1="part2" data-entity-2="part1" id="msg16" data-source-line="39"><polygon points="97.7559,1106.7656,87.7559,1110.7656,97.7559,1114.7656,93.7559,1110.7656" fill="#181818" style="stroke:#181818;stroke-width:1;stroke-linejoin:miter;stroke-miterlimit:10;"/><line x1="91.7559" y1="1110.7656" x2="308.123" y2="1110.7656" style="stroke:#181818;stroke-width:1;stroke-dasharray:2,2;"/><text x="111.7559" y="1083.9668" fill="#000000" font-size="12" lengthAdjust="spacing" textLength="145.1895" font-family="sans-serif">reçu imprimable (HTML)</text><text x="111.7559" y="1097.9355" fill="#000000" font-size="12" lengthAdjust="spacing" textLength="170.3086" font-family="sans-serif">ou PDF (reçu-TYPE-date.pdf)</text></g><path d="M559,1137.7656 L559,1232.7656 L828,1232.7656 L828,1147.7656 L818,1137.7656 L559,1137.7656" style="stroke:#181818;stroke-width:0.5;" fill="#FEFFDD"/><path d="M818,1137.7656 L818,1147.7656 L828,1147.7656 L818,1137.7656" style="stroke:#181818;stroke-width:0.5;" fill="#FEFFDD"/><text x="573" y="1161.9043" fill="#000000" font-size="12" lengthAdjust="spacing" textLength="48.1641" font-family="sans-serif">Règles :</text><text x="573" y="1175.873" fill="#000000" font-size="12" lengthAdjust="spacing" textLength="178.6699" font-family="sans-serif">- Compte ACTIVE uniquement</text><text x="573" y="1189.8418" fill="#000000" font-size="12" lengthAdjust="spacing" textLength="83.1328" font-family="sans-serif">- Montant > 0</text><text x="573" y="1203.8105" fill="#000000" font-size="12" lengthAdjust="spacing" textLength="184.1016" font-family="sans-serif">- Référence facture obligatoire</text><text x="573" y="1217.7793" fill="#000000" font-size="12" lengthAdjust="spacing" textLength="232.2188" font-family="sans-serif">- Même reçu que les autres opérations</text><?plantuml-src XLJ1RjD04BtxAqQva8g4bd91FLHAqXGY4WX9GAfKgLgln-wAzQwxkqvR419Nxlm2ekRC7_XF-YMCrqdZbbGS8ZaxRzwycNcxzfDG6JCi1NlE8dqfL08nanO3UnSnQ3EjB4xGMfPW7wM-x1cZBy6Pl0cCC6QvTCTQkRduZF1yln7q6Tj3KsQSu29ZoarP55KQNknjZq-OIOI2_MQuhw_MQGzewyENGU24amZpihZ8KN64ssy_A2mmHUL8DhNCNMuGs18vzLl-oeE0ZhI1LY-fC25Jd0c3BM0MM7KKP1jLqEeBAQVikk8RK8z6Iud6Wxapyb7i7CrIy9hLBlbzN8zpdT_7CFu0ip1CML8gj6hYt5KGCST2PX5QKsrTOd3-VknZKKYz-QQwXruT7C2S2IiCS9rc3ZkhSGWqdLDboY8k2-F7ngMWl0war2AL3tmsiP1q8idOTTLQEzOcxK1kqUm4GHKY10adH2nKjEeAdiAIQ4LCLQ0tM8m-3WCctKe2X59Vv6K1EgUYvHzIKnO1-4BTZMmq1dC3QLaueg5uBQYgvniyWBJsB4HFQco0vErraRAG8X6Xn3NpMkT6cTMIx77x_UTTpm2LpFfSA9l7iR3r-MFoFDR7_oyFm0kiwT-zsR0UqaufWTCSI9RRh1sclT5mCdoxE3kcCNwO3NqEWIab2YabAejGE5nlbmQFoc0Yh3FtcPh5V6OJ5z9cpxBQjQUglN48D0ooymy5ooFXGEe4-gFn-6pQE_5I1xDXRp4ysZQqnksOeQNdX0GtH8wYxPEqEUVbZILmvT7L7QwG3wt-QhY0tGQXtVqYeg-x1ZcAp6qdzsmWqio8b95VeFrwCHdld2gov_Je6DeUq5sSJ8TTkdVuB8lYQXQeeg3w1KhJu8r8pXtesDzqW5bvaqYqS43VNHZKowbl0kHAq4jLpS079xNtu13s_FzPuqwkdouTafcPq_H8rJdbxnHNoeaBgb8ifrrQq1abCzzy9GygTNy1?></g></svg>