<svg xmlns="http://www.w3.org/2000/svg" xmlns:xlink="http://www.w3.org/1999/xlink" version="1.1" data-diagram-type="SEQUENCE" style="width:1289px;height:904px;background:#FFFFFF;" width="1289px" height="904px" viewBox="0 0 1289 904" zoomAndPan="magnify" preserveAspectRatio="none" contentStyleType="text/css"><?plantuml 1.2026.7beta3?><defs/><g><g class="title" data-source-line="4"><text x="470.0969" y="27.9951" fill="#000000" font-size="14" lengthAdjust="spacing" textLength="342.2549" font-weight="700" font-family="sans-serif">Séquence — Paiement de facture avec reçu</text></g><rect x="10" y="238.125" width="1263.4487" height="471.7344" fill="none" style="stroke:#000000;stroke-width:1.5;"/><rect x="20" y="364.4609" width="1243.4487" height="338.3984" fill="none" style="stroke:#000000;stroke-width:1.5;"/><g class="participant-lifeline" data-qualified-name="agent" data-entity-uid="part1" id="part1-lifeline" data-source-line="6"><g><title>Agent bancaire</title><rect x="82.3818" y="118.5938" width="8" height="703.9297" fill="#000000" fill-opacity="0.00000"/><line x1="86" y1="118.5938" x2="86" y2="822.5234" style="stroke:#181818;stroke-width:0.5;stroke-dasharray:5,5;"/></g></g><g class="participant-lifeline" data-qualified-name="ctrl" data-entity-uid="part2" id="part2-lifeline" data-source-line="7"><g><title>BillPaymentController</title><rect x="303.9463" y="118.5938" width="8" height="703.9297" fill="#000000" fill-opacity="0.00000"/><line x1="307.7632" y1="118.5938" x2="307.7632" y2="822.5234" style="stroke:#181818;stroke-width:0.5;stroke-dasharray:5,5;"/></g></g><g class="participant-lifeline" data-qualified-name="svc" data-entity-uid="part3" id="part3-lifeline" data-source-line="8"><g><title>BillPaymentService</title><rect x="550.6284" y="118.5938" width="8" height="703.9297" fill="#000000" fill-opacity="0.00000"/><line x1="554.1611" y1="118.5938" x2="554.1611" y2="822.5234" style="stroke:#181818;stroke-width:0.5;stroke-dasharray:5,5;"/></g></g><g class="participant-lifeline" data-qualified-name="acc" data-entity-uid="part4" id="part4-lifeline" data-source-line="9"><g><title>AccountService</title><rect x="768.3462" y="118.5938" width="8" height="703.9297" fill="#000000" fill-opacity="0.00000"/><line x1="772.0894" y1="118.5938" x2="772.0894" y2="822.5234" style="stroke:#181818;stroke-width:0.5;stroke-dasharray:5,5;"/></g></g><g class="participant-lifeline" data-qualified-name="tx" data-entity-uid="part5" id="part5-lifeline" data-source-line="10"><g><title>TransactionService</title><rect x="913.5474" y="118.5938" width="8" height="703.9297" fill="#000000" fill-opacity="0.00000"/><line x1="916.603" y1="118.5938" x2="916.603" y2="822.5234" style="stroke:#181818;stroke-width:0.5;stroke-dasharray:5,5;"/></g></g><g class="participant-lifeline" data-qualified-name="db" data-entity-uid="part6" id="part6-lifeline" data-source-line="11"><g><title>PostgreSQL</title><rect x="1206.0723" y="118.5938" width="8" height="703.9297" fill="#000000" fill-opacity="0.00000"/><line x1="1209.6958" y1="118.5938" x2="1209.6958" y2="822.5234" style="stroke:#181818;stroke-width:0.5;stroke-dasharray:5,5;"/></g></g><g class="participant participant-head" data-qualified-name="agent" data-entity-uid="part1" id="part1-head" data-source-line="6"><text x="30" y="115.292" fill="#000000" font-size="14" lengthAdjust="spacing" textLength="106.7637" font-family="sans-serif">Agent bancaire</text><ellipse cx="86.3818" cy="50.7969" rx="8" ry="8" fill="#E2E2F0" style="stroke:#181818;stroke-width:0.5;"/><path d="M86.3818,58.7969 L86.3818,85.7969 M73.3818,66.7969 L99.3818,66.7969 M86.3818,85.7969 L73.3818,100.7969 M86.3818,85.7969 L99.3818,100.7969" style="stroke:#181818;stroke-width:0.5;" fill="none"/></g><g class="participant participant-tail" data-qualified-name="agent" data-entity-uid="part1" id="part1-tail" data-source-line="6"><text x="30" y="834.5186" fill="#000000" font-size="14" lengthAdjust="spacing" textLength="106.7637" font-family="sans-serif">Agent bancaire</text><ellipse cx="86.3818" cy="846.3203" rx="8" ry="8" fill="#E2E2F0" style="stroke:#181818;stroke-width:0.5;"/><path d="M86.3818,854.3203 L86.3818,881.3203 M73.3818,862.3203 L99.3818,862.3203 M86.3818,881.3203 L73.3818,896.3203 M86.3818,881.3203 L99.3818,896.3203" style="stroke:#181818;stroke-width:0.5;" fill="none"/></g><g class="participant participant-head" data-qualified-name="ctrl" data-entity-uid="part2" id="part2-head" data-source-line="7"><rect x="224.7632" y="87.2969" width="166.3662" height="30.2969" fill="#E2E2F0" style="stroke:#181818;stroke-width:0.5;" rx="2.5" ry="2.5"/><text x="231.7632" y="107.292" fill="#000000" font-size="14" lengthAdjust="spacing" textLength="152.3662" font-family="sans-serif">BillPaymentController</text></g><g class="participant participant-tail" data-qualified-name="ctrl" data-entity-uid="part2" id="part2-tail" data-source-line="7"><rect x="224.7632" y="821.5234" width="166.3662" height="30.2969" fill="#E2E2F0" style="stroke:#181818;stroke-width:0.5;" rx="2.5" ry="2.5"/><text x="231.7632" y="841.5186" fill="#000000" font-size="14" lengthAdjust="spacing" textLength="152.3662" font-family="sans-serif">BillPaymentController</text></g><g class="participant participant-head" data-qualified-name="svc" data-entity-uid="part3" id="part3-head" data-source-line="8"><rect x="480.1611" y="87.2969" width="148.9346" height="30.2969" fill="#E2E2F0" style="stroke:#181818;stroke-width:0.5;" rx="2.5" ry="2.5"/><text x="487.1611" y="107.292" fill="#000000" font-size="14" lengthAdjust="spacing" textLength="134.9346" font-family="sans-serif">BillPaymentService</text></g><g class="participant participant-tail" data-qualified-name="svc" data-entity-uid="part3" id="part3-tail" data-source-line="8"><rect x="480.1611" y="821.5234" width="148.9346" height="30.2969" fill="#E2E2F0" style="stroke:#181818;stroke-width:0.5;" rx="2.5" ry="2.5"/><text x="487.1611" y="841.5186" fill="#000000" font-size="14" lengthAdjust="spacing" textLength="134.9346" font-family="sans-serif">BillPaymentService</text></g><g class="participant participant-head" data-qualified-name="acc" data-entity-uid="part4" id="part4-head" data-source-line="9"><rect x="711.0894" y="87.2969" width="122.5137" height="30.2969" fill="#E2E2F0" style="stroke:#181818;stroke-width:0.5;" rx="2.5" ry="2.5"/><text x="718.0894" y="107.292" fill="#000000" font-size="14" lengthAdjust="spacing" textLength="108.5137" font-family="sans-serif">AccountService</text></g><g class="participant participant-tail" data-qualified-name="acc" data-entity-uid="part4" id="part4-tail" data-source-line="9"><rect x="711.0894" y="821.5234" width="122.5137" height="30.2969" fill="#E2E2F0" style="stroke:#181818;stroke-width:0.5;" rx="2.5" ry="2.5"/><text x="718.0894" y="841.5186" fill="#000000" font-size="14" lengthAdjust="spacing" textLength="108.5137" font-family="sans-serif">AccountService</text></g><g class="participant participant-head" data-qualified-name="tx" data-entity-uid="part5" id="part5-head" data-source-line="10"><rect x="843.603" y="87.2969" width="147.8887" height="30.2969" fill="#E2E2F0" style="stroke:#181818;stroke-width:0.5;" rx="2.5" ry="2.5"/><text x="850.603" y="107.292" fill="#000000" font-size="14" lengthAdjust="spacing" textLength="133.8887" font-family="sans-serif">TransactionService</text></g><g class="participant participant-tail" data-qualified-name="tx" data-entity-uid="part5" id="part5-tail" data-source-line="10"><rect x="843.603" y="821.5234" width="147.8887" height="30.2969" fill="#E2E2F0" style="stroke:#181818;stroke-width:0.5;" rx="2.5" ry="2.5"/><text x="850.603" y="841.5186" fill="#000000" font-size="14" lengthAdjust="spacing" textLength="133.8887" font-family="sans-serif">TransactionService</text></g><g class="participant participant-head" data-qualified-name="db" data-entity-uid="part6" id="part6-head" data-source-line="11"><text x="1166.6958" y="115.292" fill="#000000" font-size="14" lengthAdjust="spacing" textLength="80.7529" font-family="sans-serif">PostgreSQL</text><path d="M1192.0723,66.2969 C1192.0723,56.2969 1210.0723,56.2969 1210.0723,56.2969 C1210.0723,56.2969 1228.0723,56.2969 1228.0723,66.2969 L1228.0723,92.2969 C1228.0723,102.2969 1210.0723,102.2969 1210.0723,102.2969 C1210.0723,102.2969 1192.0723,102.2969 1192.0723,92.2969 L1192.0723,66.2969" style="stroke:#181818;stroke-width:0.5;" fill="#E2E2F0"/><path d="M1192.0723,66.2969 C1192.0723,76.2969 1210.0723,76.2969 1210.0723,76.2969 C1210.0723,76.2969 1228.0723,76.2969 1228.0723,66.2969" style="stroke:#181818;stroke-width:0.5;" fill="none"/></g><g class="participant participant-tail" data-qualified-name="db" data-entity-uid="part6" id="part6-tail" data-source-line="11"><text x="1166.6958" y="834.5186" fill="#000000" font-size="14" lengthAdjust="spacing" textLength="80.7529" font-family="sans-serif">PostgreSQL</text><path d="M1192.0723,847.8203 C1192.0723,837.8203 1210.0723,837.8203 1210.0723,837.8203 C1210.0723,837.8203 1228.0723,837.8203 1228.0723,847.8203 L1228.0723,873.8203 C1228.0723,883.8203 1210.0723,883.8203 1210.0723,883.8203 C1210.0723,883.8203 1192.0723,883.8203 1192.0723,873.8203 L1192.0723,847.8203" style="stroke:#181818;stroke-width:0.5;" fill="#E2E2F0"/><path d="M1192.0723,847.8203 C1192.0723,857.8203 1210.0723,857.8203 1210.0723,857.8203 C1210.0723,857.8203 1228.0723,857.8203 1228.0723,847.8203" style="stroke:#181818;stroke-width:0.5;" fill="none"/></g><g class="message" data-entity-1="part1" data-entity-2="part2" id="msg1" data-source-line="13"><polygon points="295.9463,160.8594,305.9463,164.8594,295.9463,168.8594,299.9463,164.8594" fill="#181818" style="stroke:#181818;stroke-width:1;stroke-linejoin:miter;stroke-miterlimit:10;"/><line x1="86.3818" y1="164.8594" x2="301.9463" y2="164.8594" style="stroke:#181818;stroke-width:1;"/><text x="93.3818" y="144.6606" fill="#000000" font-size="13" lengthAdjust="spacing" textLength="156.5269" font-family="sans-serif">Saisir compte, facturier,</text><text x="93.3818" y="159.7935" fill="#000000" font-size="13" lengthAdjust="spacing" textLength="166.0039" font-family="sans-serif">référence client, montant</text></g><g class="message" data-entity-1="part2" data-entity-2="part3" id="msg2" data-source-line="14"><polygon points="542.6284,189.9922,552.6284,193.9922,542.6284,197.9922,546.6284,193.9922" fill="#181818" style="stroke:#181818;stroke-width:1;stroke-linejoin:miter;stroke-miterlimit:10;"/><line x1="307.9463" y1="193.9922" x2="548.6284" y2="193.9922" style="stroke:#181818;stroke-width:1;"/><text x="314.9463" y="188.9263" fill="#000000" font-size="13" lengthAdjust="spacing" textLength="120.9673" font-family="sans-serif">payBill(form, user)</text></g><g class="message" data-entity-1="part3" data-entity-2="part4" id="msg3" data-source-line="16"><polygon points="760.3462,219.125,770.3462,223.125,760.3462,227.125,764.3462,223.125" fill="#181818" style="stroke:#181818;stroke-width:1;stroke-linejoin:miter;stroke-miterlimit:10;"/><line x1="554.6284" y1="223.125" x2="766.3462" y2="223.125" style="stroke:#181818;stroke-width:1;"/><text x="561.6284" y="218.0591" fill="#000000" font-size="13" lengthAdjust="spacing" textLength="193.7178" font-family="sans-serif">findAccount + vérifier ACTIVE</text></g><path d="M10,238.125 L74.4429,238.125 L74.4429,245.2578 L64.4429,255.2578 L10,255.2578 L10,238.125" style="stroke:#000000;stroke-width:1.5;" fill="#EEEEEE"/><rect x="10" y="238.125" width="1263.4487" height="471.7344" fill="none" style="stroke:#000000;stroke-width:1.5;"/><text x="25" y="251.1919" fill="#000000" font-size="13" lengthAdjust="spacing" textLength="19.4429" font-weight="700" font-family="sans-serif">alt</text><text x="89.4429" y="250.3354" fill="#000000" font-size="11" lengthAdjust="spacing" textLength="169.2539" font-weight="700" font-family="sans-serif">[compte bloqué ou clôturé]</text><g class="message" data-entity-1="part3" data-entity-2="part2" id="msg4" data-source-line="18"><polygon points="318.9463,272.3906,308.9463,276.3906,318.9463,280.3906,314.9463,276.3906" fill="#181818" style="stroke:#181818;stroke-width:1;stroke-linejoin:miter;stroke-miterlimit:10;"/><line x1="312.9463" y1="276.3906" x2="553.6284" y2="276.3906" style="stroke:#181818;stroke-width:1;stroke-dasharray:2,2;"/><text x="324.9463" y="271.3247" fill="#000000" font-size="13" lengthAdjust="spacing" textLength="87.1152" font-family="sans-serif">erreur métier</text></g><g class="message" data-entity-1="part2" data-entity-2="part1" id="msg5" data-source-line="19"><polygon points="97.3818,301.5234,87.3818,305.5234,97.3818,309.5234,93.3818,305.5234" fill="#181818" style="stroke:#181818;stroke-width:1;stroke-linejoin:miter;stroke-miterlimit:10;"/><line x1="91.3818" y1="305.5234" x2="306.9463" y2="305.5234" style="stroke:#181818;stroke-width:1;stroke-dasharray:2,2;"/><text x="103.3818" y="300.4575" fill="#000000" font-size="13" lengthAdjust="spacing" textLength="114.6514" font-family="sans-serif">message d'erreur</text></g><line x1="10" y1="314.5234" x2="1273.4487" y2="314.5234" style="stroke:#000000;stroke-width:1;stroke-dasharray:2,2;"/><text x="15" y="324.7339" fill="#000000" font-size="11" lengthAdjust="spacing" textLength="105.7676" font-weight="700" font-family="sans-serif">[compte éligible]</text><g class="message" data-entity-1="part3" data-entity-2="part4" id="msg6" data-source-line="21"><polygon points="760.3462,345.4609,770.3462,349.4609,760.3462,353.4609,764.3462,349.4609" fill="#181818" style="stroke:#181818;stroke-width:1;stroke-linejoin:miter;stroke-miterlimit:10;"/><line x1="554.6284" y1="349.4609" x2="766.3462" y2="349.4609" style="stroke:#181818;stroke-width:1;"/><text x="561.6284" y="344.395" fill="#000000" font-size="13" lengthAdjust="spacing" textLength="159.3135" font-family="sans-serif">vérifier solde ≥ montant</text></g><path d="M20,364.4609 L84.4429,364.4609 L84.4429,371.5938 L74.4429,381.5938 L20,381.5938 L20,364.4609" style="stroke:#000000;stroke-width:1.5;" fill="#EEEEEE"/><rect x="20" y="364.4609" width="1243.4487" height="338.3984" fill="none" style="stroke:#000000;stroke-width:1.5;"/><text x="35" y="377.5278" fill="#000000" font-size="13" lengthAdjust="spacing" textLength="19.4429" font-weight="700" font-family="sans-serif">alt</text><text x="99.4429" y="376.6714" fill="#000000" font-size="11" lengthAdjust="spacing" textLength="113.4751" font-weight="700" font-family="sans-serif">[solde insuffisant]</text><g class="message" data-entity-1="part3" data-entity-2="part2" id="msg7" data-source-line="23"><polygon points="318.9463,398.7266,308.9463,402.7266,318.9463,406.7266,314.9463,402.7266" fill="#181818" style="stroke:#181818;stroke-width:1;stroke-linejoin:miter;stroke-miterlimit:10;"/><line x1="312.9463" y1="402.7266" x2="553.6284" y2="402.7266" style="stroke:#181818;stroke-width:1;stroke-dasharray:2,2;"/><text x="324.9463" y="397.6606" fill="#000000" font-size="13" lengthAdjust="spacing" textLength="78.9902" font-family="sans-serif">erreur solde</text></g><g class="message" data-entity-1="part2" data-entity-2="part1" id="msg8" data-source-line="24"><polygon points="97.3818,427.8594,87.3818,431.8594,97.3818,435.8594,93.3818,431.8594" fill="#181818" style="stroke:#181818;stroke-width:1;stroke-linejoin:miter;stroke-miterlimit:10;"/><line x1="91.3818" y1="431.8594" x2="306.9463" y2="431.8594" style="stroke:#181818;stroke-width:1;stroke-dasharray:2,2;"/><text x="103.3818" y="426.7935" fill="#000000" font-size="13" lengthAdjust="spacing" textLength="114.6514" font-family="sans-serif">message d'erreur</text></g><line x1="20" y1="440.8594" x2="1263.4487" y2="440.8594" style="stroke:#000000;stroke-width:1;stroke-dasharray:2,2;"/><text x="25" y="451.0698" fill="#000000" font-size="11" lengthAdjust="spacing" textLength="64.9688" font-weight="700" font-family="sans-serif">[solde OK]</text><g class="message" data-entity-1="part3" data-entity-2="part5" id="msg9" data-source-line="26"><polygon points="905.5474,471.7969,915.5474,475.7969,905.5474,479.7969,909.5474,475.7969" fill="#181818" style="stroke:#181818;stroke-width:1;stroke-linejoin:miter;stroke-miterlimit:10;"/><line x1="554.6284" y1="475.7969" x2="911.5474" y2="475.7969" style="stroke:#181818;stroke-width:1;"/><text x="561.6284" y="470.731" fill="#000000" font-size="13" lengthAdjust="spacing" textLength="248.0601" font-family="sans-serif">créer transaction PAIEMENT_FACTURE</text></g><g class="message" data-entity-1="part5" data-entity-2="part6" id="msg10" data-source-line="27"><polygon points="1198.0723,500.9297,1208.0723,504.9297,1198.0723,508.9297,1202.0723,504.9297" fill="#181818" style="stroke:#181818;stroke-width:1;stroke-linejoin:miter;stroke-miterlimit:10;"/><line x1="917.5474" y1="504.9297" x2="1204.0723" y2="504.9297" style="stroke:#181818;stroke-width:1;"/><text x="924.5474" y="499.8638" fill="#000000" font-size="13" lengthAdjust="spacing" textLength="268.5249" font-family="sans-serif">débiter compte + enregistrer transaction</text></g><g class="message" data-entity-1="part3" data-entity-2="part6" id="msg11" data-source-line="28"><polygon points="1198.0723,545.1953,1208.0723,549.1953,1198.0723,553.1953,1202.0723,549.1953" fill="#181818" style="stroke:#181818;stroke-width:1;stroke-linejoin:miter;stroke-miterlimit:10;"/><line x1="554.6284" y1="549.1953" x2="1204.0723" y2="549.1953" style="stroke:#181818;stroke-width:1;"/><text x="561.6284" y="528.9966" fill="#000000" font-size="13" lengthAdjust="spacing" textLength="159.6309" font-family="sans-serif">enregistrer bill_payment</text><text x="561.6284" y="544.1294" fill="#000000" font-size="13" lengthAdjust="spacing" textLength="136.3794" font-family="sans-serif">(facturier, référence)</text></g><g class="message" data-entity-1="part3" data-entity-2="part6" id="msg12" data-source-line="29"><polygon points="1198.0723,574.3281,1208.0723,578.3281,1198.0723,582.3281,1202.0723,578.3281" fill="#181818" style="stroke:#181818;stroke-width:1;stroke-linejoin:miter;stroke-miterlimit:10;"/><line x1="554.6284" y1="578.3281" x2="1204.0723" y2="578.3281" style="stroke:#181818;stroke-width:1;"/><text x="561.6284" y="573.2622" fill="#000000" font-size="13" lengthAdjust="spacing" textLength="224.6372" font-family="sans-serif">audit log BILL_PAYMENT_CREATED</text></g><g class="message" data-entity-1="part3" data-entity-2="part2" id="msg13" data-source-line="30"><polygon points="318.9463,603.4609,308.9463,607.4609,318.9463,611.4609,314.9463,607.4609" fill="#181818" style="stroke:#181818;stroke-width:1;stroke-linejoin:miter;stroke-miterlimit:10;"/><line x1="312.9463" y1="607.4609" x2="553.6284" y2="607.4609" style="stroke:#181818;stroke-width:1;stroke-dasharray:2,2;"/><text x="324.9463" y="602.395" fill="#000000" font-size="13" lengthAdjust="spacing" textLength="222.6821" font-family="sans-serif">BillPaymentResult + transactionId</text></g><g class="message" data-entity-1="part2" data-entity-2="part1" id="msg14" data-source-line="31"><polygon points="97.3818,632.5938,87.3818,636.5938,97.3818,640.5938,93.3818,636.5938" fill="#181818" style="stroke:#181818;stroke-width:1;stroke-linejoin:miter;stroke-miterlimit:10;"/><line x1="91.3818" y1="636.5938" x2="306.9463" y2="636.5938" style="stroke:#181818;stroke-width:1;stroke-dasharray:2,2;"/><text x="103.3818" y="631.5278" fill="#000000" font-size="13" lengthAdjust="spacing" textLength="119.5581" font-family="sans-serif">succès + lien reçu</text></g><g class="message" data-entity-1="part1" data-entity-2="part2" id="msg15" data-source-line="32"><polygon points="295.9463,661.7266,305.9463,665.7266,295.9463,669.7266,299.9463,665.7266" fill="#181818" style="stroke:#181818;stroke-width:1;stroke-linejoin:miter;stroke-miterlimit:10;"/><line x1="86.3818" y1="665.7266" x2="301.9463" y2="665.7266" style="stroke:#181818;stroke-width:1;"/><text x="93.3818" y="660.6606" fill="#000000" font-size="13" lengthAdjust="spacing" textLength="197.5645" font-family="sans-serif">GET /transactions/{id}/receipt</text></g><g class="message" data-entity-1="part2" data-entity-2="part1" id="msg16" data-source-line="33"><polygon points="97.3818,690.8594,87.3818,694.8594,97.3818,698.8594,93.3818,694.8594" fill="#181818" style="stroke:#181818;stroke-width:1;stroke-linejoin:miter;stroke-miterlimit:10;"/><line x1="91.3818" y1="694.8594" x2="306.9463" y2="694.8594" style="stroke:#181818;stroke-width:1;stroke-dasharray:2,2;"/><text x="103.3818" y="689.7935" fill="#000000" font-size="13" lengthAdjust="spacing" textLength="157.2886" font-family="sans-serif">reçu imprimable (HTML)</text></g><path d="M559,721.8594 L559,806.8594 L831,806.8594 L831,731.8594 L821,721.8594 L559,721.8594" style="stroke:#181818;stroke-width:0.5;" fill="#FEFFDD"/><path d="M821,721.8594 L821,731.8594 L831,731.8594 L821,721.8594" style="stroke:#181818;stroke-width:0.5;" fill="#FEFFDD"/><text x="565" y="738.9263" fill="#000000" font-size="13" lengthAdjust="spacing" textLength="52.1777" font-family="sans-serif">Règles :</text><text x="565" y="754.0591" fill="#000000" font-size="13" lengthAdjust="spacing" textLength="193.5591" font-family="sans-serif">- Compte ACTIVE uniquement</text><text x="565" y="769.1919" fill="#000000" font-size="13" lengthAdjust="spacing" textLength="90.0605" font-family="sans-serif">- Montant > 0</text><text x="565" y="784.3247" fill="#000000" font-size="13" lengthAdjust="spacing" textLength="199.4434" font-family="sans-serif">- Référence facture obligatoire</text><text x="565" y="799.4575" fill="#000000" font-size="13" lengthAdjust="spacing" textLength="251.5703" font-family="sans-serif">- Même reçu que les autres opérations</text><?plantuml-src XLJ1RXCn4BtxAqQvq8fKvTn3fJGi4950I08IKgNAwvtTMdZjhUrDgH0IL-xy0gBBcJ_OF-cNCFOcpRQquX1futdpvitCizqdgIjkUGdkd6VcKke2SguSCdSRiUWgentEq3bUu0agSpcorbo2jpKovgLN2CkskQXH2uIRRpzWpYMMg3raI7p2rnQ1hr4GMVkhPeoEZ8N1g0YOb6l1fSK1S0Sy736gxAMG5QVmu4GgDUTNWMzijBT6ARGHBBnLZsANQDTITAnkBUxYHaAO-Yw6YtkObUNQaL9fT1_dFxECUvvoXp2O6-SBYyjtqnZBKkejDdLm7DN14IovTDA2C6NbSRWPXqGxFDMsRVAsiN5iGadA6q99BL9v5hE9XQGJISMlGcjxkR7b46g7Tf-n42842IT4BdMswGgUmffePKvLO3HUJJuaZ2k_aG2fCXTrsu2fgMZxXzIq3ODOw60d6wt5saBPDfveADu92lLYWqTGTeQ0x4c7PKZ6sHPf6oKBcIhSCczrxfGveyWUDzz_tlOC46HsvrAxEi-bwyuVanUnCVv_UG1HO4V_zlMEzPXsIWc2va2o_6xjC1zDabdoPdNsWiRuVf74709JIfPIIjOsgVIutIuD7hN5GZflxpBrYyNCFYwbpPvLdMjFzTxE8T0poFu_5BpEf0Tb2ZYPJATdyz77A7MyI4QhvFb3G-lTZWMwMWMdz4HEieSdwMeXscj7uE3HpHqEoFjMVvciuB17w0w_oEpheKM1il8FaqSsa6LbPSd9Bx3tQZMRXcvHPopyc3OqMYkBSmycZtSPOD5U5meT7D7t0OoxyNTUXrfBUej2bp4uwzm5n_0i_b_qRjtsSJ8fsPLxGyzGbzF-Bd6ZZRWWbE8rRSk1gIYPn_Q2F0Zg_W80?></g></svg>