<svg xmlns="http://www.w3.org/2000/svg" xmlns:xlink="http://www.w3.org/1999/xlink" version="1.1" data-diagram-type="SEQUENCE" style="width:1348px;height:1020px;background:#FFFFFF;" width="1348px" height="1020px" viewBox="0 0 1348 1020" zoomAndPan="magnify" preserveAspectRatio="none" contentStyleType="text/css"><?plantuml 1.2026.7beta3?><defs/><g><g class="title" data-source-line="4"><text x="527.2424" y="27.9951" fill="#000000" font-size="14" lengthAdjust="spacing" textLength="286.7813" font-weight="700" font-family="sans-serif">Séquence — Commande de chéquier</text></g><rect x="10" y="238.125" width="1322.2661" height="413.4688" fill="none" style="stroke:#000000;stroke-width:1.5;"/><rect x="20" y="364.4609" width="1302.2661" height="280.1328" fill="none" style="stroke:#000000;stroke-width:1.5;"/><g class="participant-lifeline" data-qualified-name="agent" data-entity-uid="part1" id="part1-lifeline" data-source-line="6"><g><title>Agent bancaire</title><rect x="82.3818" y="118.5938" width="8" height="819.3281" fill="#000000" fill-opacity="0.00000"/><line x1="86" y1="118.5938" x2="86" y2="937.9219" style="stroke:#181818;stroke-width:0.5;stroke-dasharray:5,5;"/></g></g><g class="participant-lifeline" data-qualified-name="ctrl" data-entity-uid="part2" id="part2-lifeline" data-source-line="7"><g><title>CheckbookOrderController</title><rect x="331.0317" y="118.5938" width="8" height="819.3281" fill="#000000" fill-opacity="0.00000"/><line x1="334.834" y1="118.5938" x2="334.834" y2="937.9219" style="stroke:#181818;stroke-width:0.5;stroke-dasharray:5,5;"/></g></g><g class="participant-lifeline" data-qualified-name="svc" data-entity-uid="part3" id="part3-lifeline" data-source-line="8"><g><title>CheckbookOrderService</title><rect x="732.4888" y="118.5938" width="8" height="819.3281" fill="#000000" fill-opacity="0.00000"/><line x1="736.0068" y1="118.5938" x2="736.0068" y2="937.9219" style="stroke:#181818;stroke-width:0.5;stroke-dasharray:5,5;"/></g></g><g class="participant-lifeline" data-qualified-name="notif" data-entity-uid="part4" id="part4-lifeline" data-source-line="9"><g><title>NotificationService</title><rect x="1005.9644" y="118.5938" width="8" height="819.3281" fill="#000000" fill-opacity="0.00000"/><line x1="1009.9292" y1="118.5938" x2="1009.9292" y2="937.9219" style="stroke:#181818;stroke-width:0.5;stroke-dasharray:5,5;"/></g></g><g class="participant-lifeline" data-qualified-name="acc" data-entity-uid="part5" id="part5-lifeline" data-source-line="10"><g><title>AccountService</title><rect x="1150.2563" y="118.5938" width="8" height="819.3281" fill="#000000" fill-opacity="0.00000"/><line x1="1153.9995" y1="118.5938" x2="1153.9995" y2="937.9219" style="stroke:#181818;stroke-width:0.5;stroke-dasharray:5,5;"/></g></g><g class="participant-lifeline" data-qualified-name="db" data-entity-uid="part6" id="part6-lifeline" data-source-line="11"><g><title>PostgreSQL</title><rect x="1264.8896" y="118.5938" width="8" height="819.3281" fill="#000000" fill-opacity="0.00000"/><line x1="1268.5132" y1="118.5938" x2="1268.5132" y2="937.9219" style="stroke:#181818;stroke-width:0.5;stroke-dasharray:5,5;"/></g></g><g class="participant participant-head" data-qualified-name="agent" data-entity-uid="part1" id="part1-head" data-source-line="6"><text x="30" y="115.292" fill="#000000" font-size="14" lengthAdjust="spacing" textLength="106.7637" font-family="sans-serif">Agent bancaire</text><ellipse cx="86.3818" cy="50.7969" rx="8" ry="8" fill="#E2E2F0" style="stroke:#181818;stroke-width:0.5;"/><path d="M86.3818,58.7969 L86.3818,85.7969 M73.3818,66.7969 L99.3818,66.7969 M86.3818,85.7969 L73.3818,100.7969 M86.3818,85.7969 L99.3818,100.7969" style="stroke:#181818;stroke-width:0.5;" fill="none"/></g><g class="participant participant-tail" data-qualified-name="agent" data-entity-uid="part1" id="part1-tail" data-source-line="6"><text x="30" y="949.917" fill="#000000" font-size="14" lengthAdjust="spacing" textLength="106.7637" font-family="sans-serif">Agent bancaire</text><ellipse cx="86.3818" cy="961.7188" rx="8" ry="8" fill="#E2E2F0" style="stroke:#181818;stroke-width:0.5;"/><path d="M86.3818,969.7188 L86.3818,996.7188 M73.3818,977.7188 L99.3818,977.7188 M86.3818,996.7188 L73.3818,1011.7188 M86.3818,996.7188 L99.3818,1011.7188" style="stroke:#181818;stroke-width:0.5;" fill="none"/></g><g class="participant participant-head" data-qualified-name="ctrl" data-entity-uid="part2" id="part2-head" data-source-line="7"><rect x="234.834" y="87.2969" width="200.3955" height="30.2969" fill="#E2E2F0" style="stroke:#181818;stroke-width:0.5;" rx="2.5" ry="2.5"/><text x="241.834" y="107.292" fill="#000000" font-size="14" lengthAdjust="spacing" textLength="186.3955" font-family="sans-serif">CheckbookOrderController</text></g><g class="participant participant-tail" data-qualified-name="ctrl" data-entity-uid="part2" id="part2-tail" data-source-line="7"><rect x="234.834" y="936.9219" width="200.3955" height="30.2969" fill="#E2E2F0" style="stroke:#181818;stroke-width:0.5;" rx="2.5" ry="2.5"/><text x="241.834" y="956.917" fill="#000000" font-size="14" lengthAdjust="spacing" textLength="186.3955" font-family="sans-serif">CheckbookOrderController</text></g><g class="participant participant-head" data-qualified-name="svc" data-entity-uid="part3" id="part3-head" data-source-line="8"><rect x="645.0068" y="87.2969" width="182.9639" height="30.2969" fill="#E2E2F0" style="stroke:#181818;stroke-width:0.5;" rx="2.5" ry="2.5"/><text x="652.0068" y="107.292" fill="#000000" font-size="14" lengthAdjust="spacing" textLength="168.9639" font-family="sans-serif">CheckbookOrderService</text></g><g class="participant participant-tail" data-qualified-name="svc" data-entity-uid="part3" id="part3-tail" data-source-line="8"><rect x="645.0068" y="936.9219" width="182.9639" height="30.2969" fill="#E2E2F0" style="stroke:#181818;stroke-width:0.5;" rx="2.5" ry="2.5"/><text x="652.0068" y="956.917" fill="#000000" font-size="14" lengthAdjust="spacing" textLength="168.9639" font-family="sans-serif">CheckbookOrderService</text></g><g class="participant participant-head" data-qualified-name="notif" data-entity-uid="part4" id="part4-head" data-source-line="9"><rect x="936.9292" y="87.2969" width="146.0703" height="30.2969" fill="#E2E2F0" style="stroke:#181818;stroke-width:0.5;" rx="2.5" ry="2.5"/><text x="943.9292" y="107.292" fill="#000000" font-size="14" lengthAdjust="spacing" textLength="132.0703" font-family="sans-serif">NotificationService</text></g><g class="participant participant-tail" data-qualified-name="notif" data-entity-uid="part4" id="part4-tail" data-source-line="9"><rect x="936.9292" y="936.9219" width="146.0703" height="30.2969" fill="#E2E2F0" style="stroke:#181818;stroke-width:0.5;" rx="2.5" ry="2.5"/><text x="943.9292" y="956.917" fill="#000000" font-size="14" lengthAdjust="spacing" textLength="132.0703" font-family="sans-serif">NotificationService</text></g><g class="participant participant-head" data-qualified-name="acc" data-entity-uid="part5" id="part5-head" data-source-line="10"><rect x="1092.9995" y="87.2969" width="122.5137" height="30.2969" fill="#E2E2F0" style="stroke:#181818;stroke-width:0.5;" rx="2.5" ry="2.5"/><text x="1099.9995" y="107.292" fill="#000000" font-size="14" lengthAdjust="spacing" textLength="108.5137" font-family="sans-serif">AccountService</text></g><g class="participant participant-tail" data-qualified-name="acc" data-entity-uid="part5" id="part5-tail" data-source-line="10"><rect x="1092.9995" y="936.9219" width="122.5137" height="30.2969" fill="#E2E2F0" style="stroke:#181818;stroke-width:0.5;" rx="2.5" ry="2.5"/><text x="1099.9995" y="956.917" fill="#000000" font-size="14" lengthAdjust="spacing" textLength="108.5137" font-family="sans-serif">AccountService</text></g><g class="participant participant-head" data-qualified-name="db" data-entity-uid="part6" id="part6-head" data-source-line="11"><text x="1225.5132" y="115.292" fill="#000000" font-size="14" lengthAdjust="spacing" textLength="80.7529" font-family="sans-serif">PostgreSQL</text><path d="M1250.8896,66.2969 C1250.8896,56.2969 1268.8896,56.2969 1268.8896,56.2969 C1268.8896,56.2969 1286.8896,56.2969 1286.8896,66.2969 L1286.8896,92.2969 C1286.8896,102.2969 1268.8896,102.2969 1268.8896,102.2969 C1268.8896,102.2969 1250.8896,102.2969 1250.8896,92.2969 L1250.8896,66.2969" style="stroke:#181818;stroke-width:0.5;" fill="#E2E2F0"/><path d="M1250.8896,66.2969 C1250.8896,76.2969 1268.8896,76.2969 1268.8896,76.2969 C1268.8896,76.2969 1286.8896,76.2969 1286.8896,66.2969" style="stroke:#181818;stroke-width:0.5;" fill="none"/></g><g class="participant participant-tail" data-qualified-name="db" data-entity-uid="part6" id="part6-tail" data-source-line="11"><text x="1225.5132" y="949.917" fill="#000000" font-size="14" lengthAdjust="spacing" textLength="80.7529" font-family="sans-serif">PostgreSQL</text><path d="M1250.8896,963.2188 C1250.8896,953.2188 1268.8896,953.2188 1268.8896,953.2188 C1268.8896,953.2188 1286.8896,953.2188 1286.8896,963.2188 L1286.8896,989.2188 C1286.8896,999.2188 1268.8896,999.2188 1268.8896,999.2188 C1268.8896,999.2188 1250.8896,999.2188 1250.8896,989.2188 L1250.8896,963.2188" style="stroke:#181818;stroke-width:0.5;" fill="#E2E2F0"/><path d="M1250.8896,963.2188 C1250.8896,973.2188 1268.8896,973.2188 1268.8896,973.2188 C1268.8896,973.2188 1286.8896,973.2188 1286.8896,963.2188" style="stroke:#181818;stroke-width:0.5;" fill="none"/></g><g class="message" data-entity-1="part1" data-entity-2="part2" id="msg1" data-source-line="13"><polygon points="323.0317,160.8594,333.0317,164.8594,323.0317,168.8594,327.0317,164.8594" fill="#181818" style="stroke:#181818;stroke-width:1;stroke-linejoin:miter;stroke-miterlimit:10;"/><line x1="86.3818" y1="164.8594" x2="329.0317" y2="164.8594" style="stroke:#181818;stroke-width:1;"/><text x="93.3818" y="144.6606" fill="#000000" font-size="13" lengthAdjust="spacing" textLength="142.3462" font-family="sans-serif">Depuis fiche compte :</text><text x="93.3818" y="159.7935" fill="#000000" font-size="13" lengthAdjust="spacing" textLength="224.6499" font-family="sans-serif">quantité + format (20/40 feuillets)</text></g><g class="message" data-entity-1="part2" data-entity-2="part3" id="msg2" data-source-line="14"><polygon points="724.4888,189.9922,734.4888,193.9922,724.4888,197.9922,728.4888,193.9922" fill="#181818" style="stroke:#181818;stroke-width:1;stroke-linejoin:miter;stroke-miterlimit:10;"/><line x1="335.0317" y1="193.9922" x2="730.4888" y2="193.9922" style="stroke:#181818;stroke-width:1;"/><text x="342.0317" y="188.9263" fill="#000000" font-size="13" lengthAdjust="spacing" textLength="377.457" font-family="sans-serif">requestCheckbook(accountId, quantity, sheetCount, user)</text></g><g class="message" data-entity-1="part3" data-entity-2="part5" id="msg3" data-source-line="16"><polygon points="1142.2563,219.125,1152.2563,223.125,1142.2563,227.125,1146.2563,223.125" fill="#181818" style="stroke:#181818;stroke-width:1;stroke-linejoin:miter;stroke-miterlimit:10;"/><line x1="736.4888" y1="223.125" x2="1148.2563" y2="223.125" style="stroke:#181818;stroke-width:1;"/><text x="743.4888" y="218.0591" fill="#000000" font-size="13" lengthAdjust="spacing" textLength="218.5562" font-family="sans-serif">findAccount + vérifier type/statut</text></g><path d="M10,238.125 L74.4429,238.125 L74.4429,245.2578 L64.4429,255.2578 L10,255.2578 L10,238.125" style="stroke:#000000;stroke-width:1.5;" fill="#EEEEEE"/><rect x="10" y="238.125" width="1322.2661" height="413.4688" fill="none" style="stroke:#000000;stroke-width:1.5;"/><text x="25" y="251.1919" fill="#000000" font-size="13" lengthAdjust="spacing" textLength="19.4429" font-weight="700" font-family="sans-serif">alt</text><text x="89.4429" y="250.3354" fill="#000000" font-size="11" lengthAdjust="spacing" textLength="207.2114" font-weight="700" font-family="sans-serif">[compte épargne ou non éligible]</text><g class="message" data-entity-1="part3" data-entity-2="part2" id="msg4" data-source-line="18"><polygon points="346.0317,272.3906,336.0317,276.3906,346.0317,280.3906,342.0317,276.3906" fill="#181818" style="stroke:#181818;stroke-width:1;stroke-linejoin:miter;stroke-miterlimit:10;"/><line x1="340.0317" y1="276.3906" x2="735.4888" y2="276.3906" style="stroke:#181818;stroke-width:1;stroke-dasharray:2,2;"/><text x="352.0317" y="271.3247" fill="#000000" font-size="13" lengthAdjust="spacing" textLength="87.1152" font-family="sans-serif">erreur métier</text></g><g class="message" data-entity-1="part2" data-entity-2="part1" id="msg5" data-source-line="19"><polygon points="97.3818,301.5234,87.3818,305.5234,97.3818,309.5234,93.3818,305.5234" fill="#181818" style="stroke:#181818;stroke-width:1;stroke-linejoin:miter;stroke-miterlimit:10;"/><line x1="91.3818" y1="305.5234" x2="334.0317" y2="305.5234" style="stroke:#181818;stroke-width:1;stroke-dasharray:2,2;"/><text x="103.3818" y="300.4575" fill="#000000" font-size="13" lengthAdjust="spacing" textLength="114.6514" font-family="sans-serif">message d'erreur</text></g><line x1="10" y1="314.5234" x2="1332.2661" y2="314.5234" style="stroke:#000000;stroke-width:1;stroke-dasharray:2,2;"/><text x="15" y="324.7339" fill="#000000" font-size="11" lengthAdjust="spacing" textLength="164.3232" font-weight="700" font-family="sans-serif">[compte courant/pro actif]</text><g class="message" data-entity-1="part3" data-entity-2="part6" id="msg6" data-source-line="21"><polygon points="1256.8896,345.4609,1266.8896,349.4609,1256.8896,353.4609,1260.8896,349.4609" fill="#181818" style="stroke:#181818;stroke-width:1;stroke-linejoin:miter;stroke-miterlimit:10;"/><line x1="736.4888" y1="349.4609" x2="1262.8896" y2="349.4609" style="stroke:#181818;stroke-width:1;"/><text x="743.4888" y="344.395" fill="#000000" font-size="13" lengthAdjust="spacing" textLength="234.2539" font-family="sans-serif">vérifier pas de commande PENDING</text></g><path d="M20,364.4609 L84.4429,364.4609 L84.4429,371.5938 L74.4429,381.5938 L20,381.5938 L20,364.4609" style="stroke:#000000;stroke-width:1.5;" fill="#EEEEEE"/><rect x="20" y="364.4609" width="1302.2661" height="280.1328" fill="none" style="stroke:#000000;stroke-width:1.5;"/><text x="35" y="377.5278" fill="#000000" font-size="13" lengthAdjust="spacing" textLength="19.4429" font-weight="700" font-family="sans-serif">alt</text><text x="99.4429" y="376.6714" fill="#000000" font-size="11" lengthAdjust="spacing" textLength="196.4102" font-weight="700" font-family="sans-serif">[commande en cours existante]</text><g class="message" data-entity-1="part3" data-entity-2="part2" id="msg7" data-source-line="23"><polygon points="346.0317,398.7266,336.0317,402.7266,346.0317,406.7266,342.0317,402.7266" fill="#181818" style="stroke:#181818;stroke-width:1;stroke-linejoin:miter;stroke-miterlimit:10;"/><line x1="340.0317" y1="402.7266" x2="735.4888" y2="402.7266" style="stroke:#181818;stroke-width:1;stroke-dasharray:2,2;"/><text x="352.0317" y="397.6606" fill="#000000" font-size="13" lengthAdjust="spacing" textLength="96.9033" font-family="sans-serif">erreur doublon</text></g><g class="message" data-entity-1="part2" data-entity-2="part1" id="msg8" data-source-line="24"><polygon points="97.3818,427.8594,87.3818,431.8594,97.3818,435.8594,93.3818,431.8594" fill="#181818" style="stroke:#181818;stroke-width:1;stroke-linejoin:miter;stroke-miterlimit:10;"/><line x1="91.3818" y1="431.8594" x2="334.0317" y2="431.8594" style="stroke:#181818;stroke-width:1;stroke-dasharray:2,2;"/><text x="103.3818" y="426.7935" fill="#000000" font-size="13" lengthAdjust="spacing" textLength="114.6514" font-family="sans-serif">message d'erreur</text></g><line x1="20" y1="440.8594" x2="1322.2661" y2="440.8594" style="stroke:#000000;stroke-width:1;stroke-dasharray:2,2;"/><text x="25" y="451.0698" fill="#000000" font-size="11" lengthAdjust="spacing" textLength="27.9297" font-weight="700" font-family="sans-serif">[OK]</text><g class="message" data-entity-1="part3" data-entity-2="part6" id="msg9" data-source-line="26"><polygon points="1256.8896,486.9297,1266.8896,490.9297,1256.8896,494.9297,1260.8896,490.9297" fill="#181818" style="stroke:#181818;stroke-width:1;stroke-linejoin:miter;stroke-miterlimit:10;"/><line x1="736.4888" y1="490.9297" x2="1262.8896" y2="490.9297" style="stroke:#181818;stroke-width:1;"/><text x="743.4888" y="470.731" fill="#000000" font-size="13" lengthAdjust="spacing" textLength="162.2715" font-family="sans-serif">INSERT checkbook_order</text><text x="743.4888" y="485.8638" fill="#000000" font-size="13" lengthAdjust="spacing" textLength="189.3696" font-family="sans-serif">statut PENDING, sheet_count</text></g><g class="message" data-entity-1="part3" data-entity-2="part4" id="msg10" data-source-line="27"><polygon points="997.9644,516.0625,1007.9644,520.0625,997.9644,524.0625,1001.9644,520.0625" fill="#181818" style="stroke:#181818;stroke-width:1;stroke-linejoin:miter;stroke-miterlimit:10;"/><line x1="736.4888" y1="520.0625" x2="1003.9644" y2="520.0625" style="stroke:#181818;stroke-width:1;"/><text x="743.4888" y="514.9966" fill="#000000" font-size="13" lengthAdjust="spacing" textLength="249.4756" font-family="sans-serif">notifyChefsAboutNewCheckbookOrder</text></g><g class="message" data-entity-1="part4" data-entity-2="part6" id="msg11" data-source-line="28"><polygon points="1256.8896,545.1953,1266.8896,549.1953,1256.8896,553.1953,1260.8896,549.1953" fill="#181818" style="stroke:#181818;stroke-width:1;stroke-linejoin:miter;stroke-miterlimit:10;"/><line x1="1009.9644" y1="549.1953" x2="1262.8896" y2="549.1953" style="stroke:#181818;stroke-width:1;"/><text x="1016.9644" y="544.1294" fill="#000000" font-size="13" lengthAdjust="spacing" textLength="180.0195" font-family="sans-serif">INSERT notifications (chefs)</text></g><g class="message" data-entity-1="part3" data-entity-2="part6" id="msg12" data-source-line="29"><polygon points="1256.8896,574.3281,1266.8896,578.3281,1256.8896,582.3281,1260.8896,578.3281" fill="#181818" style="stroke:#181818;stroke-width:1;stroke-linejoin:miter;stroke-miterlimit:10;"/><line x1="736.4888" y1="578.3281" x2="1262.8896" y2="578.3281" style="stroke:#181818;stroke-width:1;"/><text x="743.4888" y="573.2622" fill="#000000" font-size="13" lengthAdjust="spacing" textLength="264.729" font-family="sans-serif">audit log CHECKBOOK_ORDER_CREATED</text></g><g class="message" data-entity-1="part3" data-entity-2="part2" id="msg13" data-source-line="30"><polygon points="346.0317,603.4609,336.0317,607.4609,346.0317,611.4609,342.0317,607.4609" fill="#181818" style="stroke:#181818;stroke-width:1;stroke-linejoin:miter;stroke-miterlimit:10;"/><line x1="340.0317" y1="607.4609" x2="735.4888" y2="607.4609" style="stroke:#181818;stroke-width:1;stroke-dasharray:2,2;"/><text x="352.0317" y="602.395" fill="#000000" font-size="13" lengthAdjust="spacing" textLength="108.8496" font-family="sans-serif">CheckbookOrder</text></g><g class="message" data-entity-1="part2" data-entity-2="part1" id="msg14" data-source-line="31"><polygon points="97.3818,632.5938,87.3818,636.5938,97.3818,640.5938,93.3818,636.5938" fill="#181818" style="stroke:#181818;stroke-width:1;stroke-linejoin:miter;stroke-miterlimit:10;"/><line x1="91.3818" y1="636.5938" x2="334.0317" y2="636.5938" style="stroke:#181818;stroke-width:1;stroke-dasharray:2,2;"/><text x="103.3818" y="631.5278" fill="#000000" font-size="13" lengthAdjust="spacing" textLength="181.8032" font-family="sans-serif">confirmation + n° demande</text></g><g class="message" data-entity-1="part1" data-entity-2="part2" id="msg15" data-source-line="35"><polygon points="323.0317,675.7266,333.0317,679.7266,323.0317,683.7266,327.0317,679.7266" fill="#181818" style="stroke:#181818;stroke-width:1;stroke-linejoin:miter;stroke-miterlimit:10;"/><line x1="86.3818" y1="679.7266" x2="329.0317" y2="679.7266" style="stroke:#181818;stroke-width:1;"/><text x="93.3818" y="674.6606" fill="#000000" font-size="13" lengthAdjust="spacing" textLength="187.1162" font-family="sans-serif">Marquer EN_COURS / LIVRÉE</text></g><g class="message" data-entity-1="part2" data-entity-2="part3" id="msg16" data-source-line="36"><polygon points="724.4888,704.8594,734.4888,708.8594,724.4888,712.8594,728.4888,708.8594" fill="#181818" style="stroke:#181818;stroke-width:1;stroke-linejoin:miter;stroke-miterlimit:10;"/><line x1="335.0317" y1="708.8594" x2="730.4888" y2="708.8594" style="stroke:#181818;stroke-width:1;"/><text x="342.0317" y="703.7935" fill="#000000" font-size="13" lengthAdjust="spacing" textLength="257.5308" font-family="sans-serif">updateStatus(orderId, newStatus, user)</text></g><g class="message" data-entity-1="part3" data-entity-2="part6" id="msg17" data-source-line="37"><polygon points="1256.8896,733.9922,1266.8896,737.9922,1256.8896,741.9922,1260.8896,737.9922" fill="#181818" style="stroke:#181818;stroke-width:1;stroke-linejoin:miter;stroke-miterlimit:10;"/><line x1="736.4888" y1="737.9922" x2="1262.8896" y2="737.9922" style="stroke:#181818;stroke-width:1;"/><text x="743.4888" y="732.9263" fill="#000000" font-size="13" lengthAdjust="spacing" textLength="150.0586" font-family="sans-serif">UPDATE statut + dates</text></g><g class="message" data-entity-1="part3" data-entity-2="part4" id="msg18" data-source-line="38"><polygon points="997.9644,763.125,1007.9644,767.125,997.9644,771.125,1001.9644,767.125" fill="#181818" style="stroke:#181818;stroke-width:1;stroke-linejoin:miter;stroke-miterlimit:10;"/><line x1="736.4888" y1="767.125" x2="1003.9644" y2="767.125" style="stroke:#181818;stroke-width:1;"/><text x="743.4888" y="762.0591" fill="#000000" font-size="13" lengthAdjust="spacing" textLength="233.5366" font-family="sans-serif">notifyRequesterAboutStatusChange</text></g><g class="message" data-entity-1="part4" data-entity-2="part6" id="msg19" data-source-line="39"><polygon points="1256.8896,792.2578,1266.8896,796.2578,1256.8896,800.2578,1260.8896,796.2578" fill="#181818" style="stroke:#181818;stroke-width:1;stroke-linejoin:miter;stroke-miterlimit:10;"/><line x1="1009.9644" y1="796.2578" x2="1262.8896" y2="796.2578" style="stroke:#181818;stroke-width:1;"/><text x="1016.9644" y="791.1919" fill="#000000" font-size="13" lengthAdjust="spacing" textLength="213.4653" font-family="sans-serif">INSERT notification (demandeur)</text></g><g class="message" data-entity-1="part3" data-entity-2="part6" id="msg20" data-source-line="40"><polygon points="1256.8896,821.3906,1266.8896,825.3906,1256.8896,829.3906,1260.8896,825.3906" fill="#181818" style="stroke:#181818;stroke-width:1;stroke-linejoin:miter;stroke-miterlimit:10;"/><line x1="736.4888" y1="825.3906" x2="1262.8896" y2="825.3906" style="stroke:#181818;stroke-width:1;"/><text x="743.4888" y="820.3247" fill="#000000" font-size="13" lengthAdjust="spacing" textLength="57.1162" font-family="sans-serif">audit log</text></g><g class="message" data-entity-1="part2" data-entity-2="part1" id="msg21" data-source-line="41"><polygon points="97.3818,850.5234,87.3818,854.5234,97.3818,858.5234,93.3818,854.5234" fill="#181818" style="stroke:#181818;stroke-width:1;stroke-linejoin:miter;stroke-miterlimit:10;"/><line x1="91.3818" y1="854.5234" x2="334.0317" y2="854.5234" style="stroke:#181818;stroke-width:1;stroke-dasharray:2,2;"/><text x="103.3818" y="849.4575" fill="#000000" font-size="13" lengthAdjust="spacing" textLength="185.1484" font-family="sans-serif">fiche commande mise à jour</text></g><path d="M741,867.5234 L741,922.5234 L1091,922.5234 L1091,877.5234 L1081,867.5234 L741,867.5234" style="stroke:#181818;stroke-width:0.5;" fill="#FEFFDD"/><path d="M1081,867.5234 L1081,877.5234 L1091,877.5234 L1081,867.5234" style="stroke:#181818;stroke-width:0.5;" fill="#FEFFDD"/><text x="747" y="884.5903" fill="#000000" font-size="13" lengthAdjust="spacing" textLength="186.5068" font-family="sans-serif">Pas de mouvement financier</text><text x="747" y="899.7231" fill="#000000" font-size="13" lengthAdjust="spacing" textLength="329.0308" font-family="sans-serif">Workflow : PENDING → PROCESSING → DELIVERED</text><text x="747" y="914.856" fill="#000000" font-size="13" lengthAdjust="spacing" textLength="108.1641" font-family="sans-serif">(ou CANCELLED)</text><?plantuml-src XLJ1RXen4BtxAqPSIfH4H5LFELGYowf5IO0kINk9XCpkxEAoQsziBpItdYhrMlK3UkNMRoX_aY_fsBiG4j960Y76upTlthoncGjPSiqBC3EUgAMG6QGyDyZCzaIZAPKqU8d6y0pFC5VBhjPg2LPNo9WLDaSOhrUt5SeOuVxhJmXKKN2P8D0ddhaZWPen7bkbeTNDK5gOSXbpeR45t01t8KO5hOX5oUcu5Smmda-LcWzrWZfGqcgLvwXzVcnr_h_qCUg5Y6jiiuWVfmwK5Qc8kHLAxYPA5t-SserZLKcxcyNZc2NSyYat2AsHCZRJEFvmuG-JANNfspj-wqd2AVImh8G1gZWZDLHHMeJJ6tbRKGLXroiuX5JfWbjelpxfl3c152j1dLfpm3m4GL4FXAIHD3PsssgRr_JwoH4qS7T7D4f46xZu4LG6zG5ZxZgXK3gXf48cJLzKUh5UQL83DTYx4Zl6SbjPndExeRfUaIAPH50LAIJfVouoCSsHWQTr_D0fQesLXcAzicxUKCTTGgt9AHIrYI1vLUSo9BDjAX4bJKrqIgs8gfj5K-4jwKgN7wYMJcf_hxRPA1pq-eDtbDyGhyCeFQO1_2AeCMaTvt-nJbGrpPNq6I_p1l3CX-SFY0tB_c0SHbTa-sP84-KCUIDhPJTKcp5D_1XsCRm92SR_tj6eKzETgieESFdOulvIdVsajDpnju5sx30EzdZoAX4MSfL1y3uCpi-6m_F9CEg5qII8mkvLs7jEgsSex6aLAvaAvsSgJmQJVtxJhFn0d6eoOUwxjoMNN9EvDOI3IJ2yZiRGWOl-nsZzFNoo15L9suTZfwPfUssT_IKkwz36yxkjNezwr10q4pW41s3Oiu97zOgXzgBNaC6CompPYrf3k-cpUb9_ApNR4slxAjIEBGIPQlqBFfDjcQk8e4Ksiw1I_uu1Z6hh5wfQOE4mQ9tf9QttxPFIyvJUPm9kV0Rtttx0A1e6uNYy-TiBITamyXDkqrO7tK4GNbo4lGCt6jSI_WK0?></g></svg>