<svg xmlns="http://www.w3.org/2000/svg" xmlns:xlink="http://www.w3.org/1999/xlink" version="1.1" data-diagram-type="SEQUENCE" style="width:1334px;height:1522px;background:#FFFFFF;" width="1334px" height="1522px" viewBox="0 0 1334 1522" zoomAndPan="magnify" preserveAspectRatio="none" contentStyleType="text/css"><?plantuml 1.2026.7beta3?><defs/><g><g class="title" data-source-line="10"><text x="520.4404" y="35.9951" fill="#000000" font-size="14" lengthAdjust="spacing" textLength="286.7813" font-weight="700" font-family="sans-serif">Séquence — Commande de chéquier</text></g><rect x="3" y="61.2969" width="1318.6621" height="38.2813" fill="#FFFFCC" style="stroke:#FFDD88;stroke-width:3;" rx="2.5" ry="2.5"/><text x="10" y="71.9375" fill="#000000" font-size="10" lengthAdjust="spacing" textLength="361.2305" font-family="monospace">Please use CSS style instead of skinparam ParticipantPadding</text><text x="10" y="93.5781" fill="#000000" font-size="10" lengthAdjust="spacing" textLength="295.0049" font-family="monospace">Please use CSS style instead of skinparam padding</text><rect x="10" y="354.4219" width="1308.6621" height="669.4375" fill="none" style="stroke:#000000;stroke-width:1.5;"/><rect x="20" y="572.2344" width="1288.6621" height="444.625" fill="none" style="stroke:#000000;stroke-width:1.5;"/><g class="participant-lifeline" data-qualified-name="agent" data-entity-uid="part1" id="part1-lifeline" data-source-line="12"><g><title>Agent bancaire</title><rect x="82.7559" y="191.5469" width="8" height="1235" fill="#000000" fill-opacity="0.00000"/><line x1="86" y1="191.5469" x2="86" y2="1426.5469" style="stroke:#181818;stroke-width:0.5;stroke-dasharray:5,5;"/></g></g><g class="participant-lifeline" data-qualified-name="ctrl" data-entity-uid="part2" id="part2-lifeline" data-source-line="13"><g><title>CheckbookOrderController</title><rect x="330.125" y="191.5469" width="8" height="1235" fill="#000000" fill-opacity="0.00000"/><line x1="333.2412" y1="191.5469" x2="333.2412" y2="1426.5469" style="stroke:#181818;stroke-width:0.5;stroke-dasharray:5,5;"/></g></g><g class="participant-lifeline" data-qualified-name="svc" data-entity-uid="part3" id="part3-lifeline" data-source-line="14"><g><title>CheckbookOrderService</title><rect x="718.5469" y="191.5469" width="8" height="1235" fill="#000000" fill-opacity="0.00000"/><line x1="722.1338" y1="191.5469" x2="722.1338" y2="1426.5469" style="stroke:#181818;stroke-width:0.5;stroke-dasharray:5,5;"/></g></g><g class="participant-lifeline" data-qualified-name="notif" data-entity-uid="part4" id="part4-lifeline" data-source-line="15"><g><title>NotificationService</title><rect x="988.832" y="191.5469" width="8" height="1235" fill="#000000" fill-opacity="0.00000"/><line x1="992.2305" y1="191.5469" x2="992.2305" y2="1426.5469" style="stroke:#181818;stroke-width:0.5;stroke-dasharray:5,5;"/></g></g><g class="participant-lifeline" data-qualified-name="acc" data-entity-uid="part5" id="part5-lifeline" data-source-line="16"><g><title>AccountService</title><rect x="1131.9395" y="191.5469" width="8" height="1235" fill="#000000" fill-opacity="0.00000"/><line x1="1135.4336" y1="191.5469" x2="1135.4336" y2="1426.5469" style="stroke:#181818;stroke-width:0.5;stroke-dasharray:5,5;"/></g></g><g class="participant-lifeline" data-qualified-name="db" data-entity-uid="part6" id="part6-lifeline" data-source-line="17"><g><title>PostgreSQL</title><rect x="1249.0537" y="191.5469" width="8" height="1235" fill="#000000" fill-opacity="0.00000"/><line x1="1252.4453" y1="191.5469" x2="1252.4453" y2="1426.5469" style="stroke:#181818;stroke-width:0.5;stroke-dasharray:5,5;"/></g></g><g class="participant participant-head" data-qualified-name="agent" data-entity-uid="part1" id="part1-head" data-source-line="12"><text x="38" y="180.7168" fill="#000000" font-size="12" lengthAdjust="spacing" textLength="91.5117" font-family="sans-serif">Agent bancaire</text><ellipse cx="86.7559" cy="110.0781" rx="8" ry="8" fill="#E2E2F0" style="stroke:#181818;stroke-width:0.5;"/><path d="M86.7559,118.0781 L86.7559,145.0781 M73.7559,126.0781 L99.7559,126.0781 M86.7559,145.0781 L73.7559,160.0781 M86.7559,145.0781 L99.7559,160.0781" style="stroke:#181818;stroke-width:0.5;" fill="none"/></g><g class="participant participant-tail" data-qualified-name="agent" data-entity-uid="part1" id="part1-tail" data-source-line="12"><text x="38" y="1444.6855" fill="#000000" font-size="12" lengthAdjust="spacing" textLength="91.5117" font-family="sans-serif">Agent bancaire</text><ellipse cx="86.7559" cy="1464.0156" rx="8" ry="8" fill="#E2E2F0" style="stroke:#181818;stroke-width:0.5;"/><path d="M86.7559,1472.0156 L86.7559,1499.0156 M73.7559,1480.0156 L99.7559,1480.0156 M86.7559,1499.0156 L73.7559,1514.0156 M86.7559,1499.0156 L99.7559,1514.0156" style="stroke:#181818;stroke-width:0.5;" fill="none"/></g><g class="participant participant-head" data-qualified-name="ctrl" data-entity-uid="part2" id="part2-head" data-source-line="13"><rect x="239.2412" y="146.5781" width="189.7676" height="43.9688" fill="#E2E2F0" style="stroke:#181818;stroke-width:0.5;" rx="2.5" ry="2.5"/><text x="254.2412" y="172.7168" fill="#000000" font-size="12" lengthAdjust="spacing" textLength="159.7676" font-family="sans-serif">CheckbookOrderController</text></g><g class="participant participant-tail" data-qualified-name="ctrl" data-entity-uid="part2" id="part2-tail" data-source-line="13"><rect x="239.2412" y="1425.5469" width="189.7676" height="43.9688" fill="#E2E2F0" style="stroke:#181818;stroke-width:0.5;" rx="2.5" ry="2.5"/><text x="254.2412" y="1451.6855" fill="#000000" font-size="12" lengthAdjust="spacing" textLength="159.7676" font-family="sans-serif">CheckbookOrderController</text></g><g class="participant participant-head" data-qualified-name="svc" data-entity-uid="part3" id="part3-head" data-source-line="14"><rect x="635.1338" y="146.5781" width="174.8262" height="43.9688" fill="#E2E2F0" style="stroke:#181818;stroke-width:0.5;" rx="2.5" ry="2.5"/><text x="650.1338" y="172.7168" fill="#000000" font-size="12" lengthAdjust="spacing" textLength="144.8262" font-family="sans-serif">CheckbookOrderService</text></g><g class="participant participant-tail" data-qualified-name="svc" data-entity-uid="part3" id="part3-tail" data-source-line="14"><rect x="635.1338" y="1425.5469" width="174.8262" height="43.9688" fill="#E2E2F0" style="stroke:#181818;stroke-width:0.5;" rx="2.5" ry="2.5"/><text x="650.1338" y="1451.6855" fill="#000000" font-size="12" lengthAdjust="spacing" textLength="144.8262" font-family="sans-serif">CheckbookOrderService</text></g><g class="participant participant-head" data-qualified-name="notif" data-entity-uid="part4" id="part4-head" data-source-line="15"><rect x="921.2305" y="146.5781" width="143.2031" height="43.9688" fill="#E2E2F0" style="stroke:#181818;stroke-width:0.5;" rx="2.5" ry="2.5"/><text x="936.2305" y="172.7168" fill="#000000" font-size="12" lengthAdjust="spacing" textLength="113.2031" font-family="sans-serif">NotificationService</text></g><g class="participant participant-tail" data-qualified-name="notif" data-entity-uid="part4" id="part4-tail" data-source-line="15"><rect x="921.2305" y="1425.5469" width="143.2031" height="43.9688" fill="#E2E2F0" style="stroke:#181818;stroke-width:0.5;" rx="2.5" ry="2.5"/><text x="936.2305" y="1451.6855" fill="#000000" font-size="12" lengthAdjust="spacing" textLength="113.2031" font-family="sans-serif">NotificationService</text></g><g class="participant participant-head" data-qualified-name="acc" data-entity-uid="part5" id="part5-head" data-source-line="16"><rect x="1074.4336" y="146.5781" width="123.0117" height="43.9688" fill="#E2E2F0" style="stroke:#181818;stroke-width:0.5;" rx="2.5" ry="2.5"/><text x="1089.4336" y="172.7168" fill="#000000" font-size="12" lengthAdjust="spacing" textLength="93.0117" font-family="sans-serif">AccountService</text></g><g class="participant participant-tail" data-qualified-name="acc" data-entity-uid="part5" id="part5-tail" data-source-line="16"><rect x="1074.4336" y="1425.5469" width="123.0117" height="43.9688" fill="#E2E2F0" style="stroke:#181818;stroke-width:0.5;" rx="2.5" ry="2.5"/><text x="1089.4336" y="1451.6855" fill="#000000" font-size="12" lengthAdjust="spacing" textLength="93.0117" font-family="sans-serif">AccountService</text></g><g class="participant participant-head" data-qualified-name="db" data-entity-uid="part6" id="part6-head" data-source-line="17"><text x="1215.4453" y="180.7168" fill="#000000" font-size="12" lengthAdjust="spacing" textLength="69.2168" font-family="sans-serif">PostgreSQL</text><path d="M1235.0537,125.5781 C1235.0537,115.5781 1253.0537,115.5781 1253.0537,115.5781 C1253.0537,115.5781 1271.0537,115.5781 1271.0537,125.5781 L1271.0537,151.5781 C1271.0537,161.5781 1253.0537,161.5781 1253.0537,161.5781 C1253.0537,161.5781 1235.0537,161.5781 1235.0537,151.5781 L1235.0537,125.5781" style="stroke:#181818;stroke-width:0.5;" fill="#E2E2F0"/><path d="M1235.0537,125.5781 C1235.0537,135.5781 1253.0537,135.5781 1253.0537,135.5781 C1253.0537,135.5781 1271.0537,135.5781 1271.0537,125.5781" style="stroke:#181818;stroke-width:0.5;" fill="none"/></g><g class="participant participant-tail" data-qualified-name="db" data-entity-uid="part6" id="part6-tail" data-source-line="17"><text x="1215.4453" y="1444.6855" fill="#000000" font-size="12" lengthAdjust="spacing" textLength="69.2168" font-family="sans-serif">PostgreSQL</text><path d="M1235.0537,1465.5156 C1235.0537,1455.5156 1253.0537,1455.5156 1253.0537,1455.5156 C1253.0537,1455.5156 1271.0537,1455.5156 1271.0537,1465.5156 L1271.0537,1491.5156 C1271.0537,1501.5156 1253.0537,1501.5156 1253.0537,1501.5156 C1253.0537,1501.5156 1235.0537,1501.5156 1235.0537,1491.5156 L1235.0537,1465.5156" style="stroke:#181818;stroke-width:0.5;" fill="#E2E2F0"/><path d="M1235.0537,1465.5156 C1235.0537,1475.5156 1253.0537,1475.5156 1253.0537,1475.5156 C1253.0537,1475.5156 1271.0537,1475.5156 1271.0537,1465.5156" style="stroke:#181818;stroke-width:0.5;" fill="none"/></g><g class="message" data-entity-1="part1" data-entity-2="part2" id="msg1" data-source-line="19"><polygon points="322.125,247.4844,332.125,251.4844,322.125,255.4844,326.125,251.4844" fill="#181818" style="stroke:#181818;stroke-width:1;stroke-linejoin:miter;stroke-miterlimit:10;"/><line x1="86.7559" y1="251.4844" x2="328.125" y2="251.4844" style="stroke:#181818;stroke-width:1;"/><text x="101.7559" y="224.6855" fill="#000000" font-size="12" lengthAdjust="spacing" textLength="131.3965" font-family="sans-serif">Depuis fiche compte :</text><text x="101.7559" y="238.6543" fill="#000000" font-size="12" lengthAdjust="spacing" textLength="207.3691" font-family="sans-serif">quantité + format (20/40 feuillets)</text></g><g class="message" data-entity-1="part2" data-entity-2="part3" id="msg2" data-source-line="20"><polygon points="710.5469,291.4531,720.5469,295.4531,710.5469,299.4531,714.5469,295.4531" fill="#181818" style="stroke:#181818;stroke-width:1;stroke-linejoin:miter;stroke-miterlimit:10;"/><line x1="334.125" y1="295.4531" x2="716.5469" y2="295.4531" style="stroke:#181818;stroke-width:1;"/><text x="349.125" y="282.623" fill="#000000" font-size="12" lengthAdjust="spacing" textLength="348.4219" font-family="sans-serif">requestCheckbook(accountId, quantity, sheetCount, user)</text></g><g class="message" data-entity-1="part3" data-entity-2="part5" id="msg3" data-source-line="22"><polygon points="1123.9395,335.4219,1133.9395,339.4219,1123.9395,343.4219,1127.9395,339.4219" fill="#181818" style="stroke:#181818;stroke-width:1;stroke-linejoin:miter;stroke-miterlimit:10;"/><line x1="722.5469" y1="339.4219" x2="1129.9395" y2="339.4219" style="stroke:#181818;stroke-width:1;"/><text x="737.5469" y="326.5918" fill="#000000" font-size="12" lengthAdjust="spacing" textLength="201.7441" font-family="sans-serif">findAccount + vérifier type/statut</text></g><path d="M10,354.4219 L88.9473,354.4219 L88.9473,376.3906 L78.9473,386.3906 L10,386.3906 L10,354.4219" style="stroke:#000000;stroke-width:1.5;" fill="#EEEEEE"/><rect x="10" y="354.4219" width="1308.6621" height="669.4375" fill="none" style="stroke:#000000;stroke-width:1.5;"/><text x="33" y="374.5605" fill="#000000" font-size="12" lengthAdjust="spacing" textLength="17.9473" font-weight="700" font-family="sans-serif">alt</text><text x="111.9473" y="375.5605" fill="#000000" font-size="12" lengthAdjust="spacing" textLength="226.0488" font-weight="700" font-family="sans-serif">[compte épargne ou non éligible]</text><g class="message" data-entity-1="part3" data-entity-2="part2" id="msg4" data-source-line="24"><polygon points="345.125,433.3281,335.125,437.3281,345.125,441.3281,341.125,437.3281" fill="#181818" style="stroke:#181818;stroke-width:1;stroke-linejoin:miter;stroke-miterlimit:10;"/><line x1="339.125" y1="437.3281" x2="721.5469" y2="437.3281" style="stroke:#181818;stroke-width:1;stroke-dasharray:2,2;"/><text x="359.125" y="424.498" fill="#000000" font-size="12" lengthAdjust="spacing" textLength="80.4141" font-family="sans-serif">erreur métier</text></g><g class="message" data-entity-1="part2" data-entity-2="part1" id="msg5" data-source-line="25"><polygon points="97.7559,477.2969,87.7559,481.2969,97.7559,485.2969,93.7559,481.2969" fill="#181818" style="stroke:#181818;stroke-width:1;stroke-linejoin:miter;stroke-miterlimit:10;"/><line x1="91.7559" y1="481.2969" x2="333.125" y2="481.2969" style="stroke:#181818;stroke-width:1;stroke-dasharray:2,2;"/><text x="111.7559" y="468.4668" fill="#000000" font-size="12" lengthAdjust="spacing" textLength="105.832" font-family="sans-serif">message d'erreur</text></g><line x1="10" y1="490.2969" x2="1318.6621" y2="490.2969" style="stroke:#000000;stroke-width:1;stroke-dasharray:2,2;"/><text x="23" y="509.4355" fill="#000000" font-size="12" lengthAdjust="spacing" textLength="179.2617" font-weight="700" font-family="sans-serif">[compte courant/pro actif]</text><g class="message" data-entity-1="part3" data-entity-2="part6" id="msg6" data-source-line="27"><polygon points="1241.0537,553.2344,1251.0537,557.2344,1241.0537,561.2344,1245.0537,557.2344" fill="#181818" style="stroke:#181818;stroke-width:1;stroke-linejoin:miter;stroke-miterlimit:10;"/><line x1="722.5469" y1="557.2344" x2="1247.0537" y2="557.2344" style="stroke:#181818;stroke-width:1;"/><text x="737.5469" y="544.4043" fill="#000000" font-size="12" lengthAdjust="spacing" textLength="216.2344" font-family="sans-serif">vérifier pas de commande PENDING</text></g><path d="M20,572.2344 L98.9473,572.2344 L98.9473,594.2031 L88.9473,604.2031 L20,604.2031 L20,572.2344" style="stroke:#000000;stroke-width:1.5;" fill="#EEEEEE"/><rect x="20" y="572.2344" width="1288.6621" height="444.625" fill="none" style="stroke:#000000;stroke-width:1.5;"/><text x="43" y="592.373" fill="#000000" font-size="12" lengthAdjust="spacing" textLength="17.9473" font-weight="700" font-family="sans-serif">alt</text><text x="121.9473" y="593.373" fill="#000000" font-size="12" lengthAdjust="spacing" textLength="214.2656" font-weight="700" font-family="sans-serif">[commande en cours existante]</text><g class="message" data-entity-1="part3" data-entity-2="part2" id="msg7" data-source-line="29"><polygon points="345.125,651.1406,335.125,655.1406,345.125,659.1406,341.125,655.1406" fill="#181818" style="stroke:#181818;stroke-width:1;stroke-linejoin:miter;stroke-miterlimit:10;"/><line x1="339.125" y1="655.1406" x2="721.5469" y2="655.1406" style="stroke:#181818;stroke-width:1;stroke-dasharray:2,2;"/><text x="359.125" y="642.3105" fill="#000000" font-size="12" lengthAdjust="spacing" textLength="89.4492" font-family="sans-serif">erreur doublon</text></g><g class="message" data-entity-1="part2" data-entity-2="part1" id="msg8" data-source-line="30"><polygon points="97.7559,695.1094,87.7559,699.1094,97.7559,703.1094,93.7559,699.1094" fill="#181818" style="stroke:#181818;stroke-width:1;stroke-linejoin:miter;stroke-miterlimit:10;"/><line x1="91.7559" y1="699.1094" x2="333.125" y2="699.1094" style="stroke:#181818;stroke-width:1;stroke-dasharray:2,2;"/><text x="111.7559" y="686.2793" fill="#000000" font-size="12" lengthAdjust="spacing" textLength="105.832" font-family="sans-serif">message d'erreur</text></g><line x1="20" y1="708.1094" x2="1308.6621" y2="708.1094" style="stroke:#000000;stroke-width:1;stroke-dasharray:2,2;"/><text x="33" y="727.248" fill="#000000" font-size="12" lengthAdjust="spacing" textLength="30.4688" font-weight="700" font-family="sans-serif">[OK]</text><g class="message" data-entity-1="part3" data-entity-2="part6" id="msg9" data-source-line="32"><polygon points="1241.0537,785.0156,1251.0537,789.0156,1241.0537,793.0156,1245.0537,789.0156" fill="#181818" style="stroke:#181818;stroke-width:1;stroke-linejoin:miter;stroke-miterlimit:10;"/><line x1="722.5469" y1="789.0156" x2="1247.0537" y2="789.0156" style="stroke:#181818;stroke-width:1;"/><text x="737.5469" y="762.2168" fill="#000000" font-size="12" lengthAdjust="spacing" textLength="149.7891" font-family="sans-serif">INSERT checkbook_order</text><text x="737.5469" y="776.1855" fill="#000000" font-size="12" lengthAdjust="spacing" textLength="174.8027" font-family="sans-serif">statut PENDING, sheet_count</text></g><g class="message" data-entity-1="part3" data-entity-2="part4" id="msg10" data-source-line="33"><polygon points="980.832,828.9844,990.832,832.9844,980.832,836.9844,984.832,832.9844" fill="#181818" style="stroke:#181818;stroke-width:1;stroke-linejoin:miter;stroke-miterlimit:10;"/><line x1="722.5469" y1="832.9844" x2="986.832" y2="832.9844" style="stroke:#181818;stroke-width:1;"/><text x="737.5469" y="820.1543" fill="#000000" font-size="12" lengthAdjust="spacing" textLength="230.2852" font-family="sans-serif">notifyChefsAboutNewCheckbookOrder</text></g><g class="message" data-entity-1="part4" data-entity-2="part6" id="msg11" data-source-line="34"><polygon points="1241.0537,872.9531,1251.0537,876.9531,1241.0537,880.9531,1245.0537,876.9531" fill="#181818" style="stroke:#181818;stroke-width:1;stroke-linejoin:miter;stroke-miterlimit:10;"/><line x1="992.832" y1="876.9531" x2="1247.0537" y2="876.9531" style="stroke:#181818;stroke-width:1;"/><text x="1007.832" y="864.123" fill="#000000" font-size="12" lengthAdjust="spacing" textLength="166.1719" font-family="sans-serif">INSERT notifications (chefs)</text></g><g class="message" data-entity-1="part3" data-entity-2="part6" id="msg12" data-source-line="35"><polygon points="1241.0537,916.9219,1251.0537,920.9219,1241.0537,924.9219,1245.0537,920.9219" fill="#181818" style="stroke:#181818;stroke-width:1;stroke-linejoin:miter;stroke-miterlimit:10;"/><line x1="722.5469" y1="920.9219" x2="1247.0537" y2="920.9219" style="stroke:#181818;stroke-width:1;"/><text x="737.5469" y="908.0918" fill="#000000" font-size="12" lengthAdjust="spacing" textLength="244.3652" font-family="sans-serif">audit log CHECKBOOK_ORDER_CREATED</text></g><g class="message" data-entity-1="part3" data-entity-2="part2" id="msg13" data-source-line="36"><polygon points="345.125,960.8906,335.125,964.8906,345.125,968.8906,341.125,964.8906" fill="#181818" style="stroke:#181818;stroke-width:1;stroke-linejoin:miter;stroke-miterlimit:10;"/><line x1="339.125" y1="964.8906" x2="721.5469" y2="964.8906" style="stroke:#181818;stroke-width:1;stroke-dasharray:2,2;"/><text x="359.125" y="952.0605" fill="#000000" font-size="12" lengthAdjust="spacing" textLength="100.4766" font-family="sans-serif">CheckbookOrder</text></g><g class="message" data-entity-1="part2" data-entity-2="part1" id="msg14" data-source-line="37"><polygon points="97.7559,1004.8594,87.7559,1008.8594,97.7559,1012.8594,93.7559,1008.8594" fill="#181818" style="stroke:#181818;stroke-width:1;stroke-linejoin:miter;stroke-miterlimit:10;"/><line x1="91.7559" y1="1008.8594" x2="333.125" y2="1008.8594" style="stroke:#181818;stroke-width:1;stroke-dasharray:2,2;"/><text x="111.7559" y="996.0293" fill="#000000" font-size="12" lengthAdjust="spacing" textLength="167.8184" font-family="sans-serif">confirmation + n° demande</text></g><g class="message" data-entity-1="part1" data-entity-2="part2" id="msg15" data-source-line="41"><polygon points="322.125,1062.8281,332.125,1066.8281,322.125,1070.8281,326.125,1066.8281" fill="#181818" style="stroke:#181818;stroke-width:1;stroke-linejoin:miter;stroke-miterlimit:10;"/><line x1="86.7559" y1="1066.8281" x2="328.125" y2="1066.8281" style="stroke:#181818;stroke-width:1;"/><text x="101.7559" y="1053.998" fill="#000000" font-size="12" lengthAdjust="spacing" textLength="172.7227" font-family="sans-serif">Marquer EN_COURS / LIVRÉE</text></g><g class="message" data-entity-1="part2" data-entity-2="part3" id="msg16" data-source-line="42"><polygon points="710.5469,1106.7969,720.5469,1110.7969,710.5469,1114.7969,714.5469,1110.7969" fill="#181818" style="stroke:#181818;stroke-width:1;stroke-linejoin:miter;stroke-miterlimit:10;"/><line x1="334.125" y1="1110.7969" x2="716.5469" y2="1110.7969" style="stroke:#181818;stroke-width:1;"/><text x="349.125" y="1097.9668" fill="#000000" font-size="12" lengthAdjust="spacing" textLength="237.7207" font-family="sans-serif">updateStatus(orderId, newStatus, user)</text></g><g class="message" data-entity-1="part3" data-entity-2="part6" id="msg17" data-source-line="43"><polygon points="1241.0537,1150.7656,1251.0537,1154.7656,1241.0537,1158.7656,1245.0537,1154.7656" fill="#181818" style="stroke:#181818;stroke-width:1;stroke-linejoin:miter;stroke-miterlimit:10;"/><line x1="722.5469" y1="1154.7656" x2="1247.0537" y2="1154.7656" style="stroke:#181818;stroke-width:1;"/><text x="737.5469" y="1141.9355" fill="#000000" font-size="12" lengthAdjust="spacing" textLength="138.5156" font-family="sans-serif">UPDATE statut + dates</text></g><g class="message" data-entity-1="part3" data-entity-2="part4" id="msg18" data-source-line="44"><polygon points="980.832,1194.7344,990.832,1198.7344,980.832,1202.7344,984.832,1198.7344" fill="#181818" style="stroke:#181818;stroke-width:1;stroke-linejoin:miter;stroke-miterlimit:10;"/><line x1="722.5469" y1="1198.7344" x2="986.832" y2="1198.7344" style="stroke:#181818;stroke-width:1;"/><text x="737.5469" y="1185.9043" fill="#000000" font-size="12" lengthAdjust="spacing" textLength="215.5723" font-family="sans-serif">notifyRequesterAboutStatusChange</text></g><g class="message" data-entity-1="part4" data-entity-2="part6" id="msg19" data-source-line="45"><polygon points="1241.0537,1238.7031,1251.0537,1242.7031,1241.0537,1246.7031,1245.0537,1242.7031" fill="#181818" style="stroke:#181818;stroke-width:1;stroke-linejoin:miter;stroke-miterlimit:10;"/><line x1="992.832" y1="1242.7031" x2="1247.0537" y2="1242.7031" style="stroke:#181818;stroke-width:1;"/><text x="1007.832" y="1229.873" fill="#000000" font-size="12" lengthAdjust="spacing" textLength="197.0449" font-family="sans-serif">INSERT notification (demandeur)</text></g><g class="message" data-entity-1="part3" data-entity-2="part6" id="msg20" data-source-line="46"><polygon points="1241.0537,1282.6719,1251.0537,1286.6719,1241.0537,1290.6719,1245.0537,1286.6719" fill="#181818" style="stroke:#181818;stroke-width:1;stroke-linejoin:miter;stroke-miterlimit:10;"/><line x1="722.5469" y1="1286.6719" x2="1247.0537" y2="1286.6719" style="stroke:#181818;stroke-width:1;"/><text x="737.5469" y="1273.8418" fill="#000000" font-size="12" lengthAdjust="spacing" textLength="52.7227" font-family="sans-serif">audit log</text></g><g class="message" data-entity-1="part2" data-entity-2="part1" id="msg21" data-source-line="47"><polygon points="97.7559,1326.6406,87.7559,1330.6406,97.7559,1334.6406,93.7559,1330.6406" fill="#181818" style="stroke:#181818;stroke-width:1;stroke-linejoin:miter;stroke-miterlimit:10;"/><line x1="91.7559" y1="1330.6406" x2="333.125" y2="1330.6406" style="stroke:#181818;stroke-width:1;stroke-dasharray:2,2;"/><text x="111.7559" y="1317.8105" fill="#000000" font-size="12" lengthAdjust="spacing" textLength="170.9063" font-family="sans-serif">fiche commande mise à jour</text></g><path d="M727,1343.6406 L727,1410.6406 L1067,1410.6406 L1067,1353.6406 L1057,1343.6406 L727,1343.6406" style="stroke:#181818;stroke-width:0.5;" fill="#FEFFDD"/><path d="M1057,1343.6406 L1057,1353.6406 L1067,1353.6406 L1057,1343.6406" style="stroke:#181818;stroke-width:0.5;" fill="#FEFFDD"/><text x="741" y="1367.7793" fill="#000000" font-size="12" lengthAdjust="spacing" textLength="172.1602" font-family="sans-serif">Pas de mouvement financier</text><text x="741" y="1381.748" fill="#000000" font-size="12" lengthAdjust="spacing" textLength="303.7207" font-family="sans-serif">Workflow : PENDING → PROCESSING → DELIVERED</text><text x="741" y="1395.7168" fill="#000000" font-size="12" lengthAdjust="spacing" textLength="99.8438" font-family="sans-serif">(ou CANCELLED)</text><?plantuml-src XLNDRjD04BxlKunw8HMjMWe7r0DIwXYeMf9WKxWWHHjxx2orTyt-D2qdJaXS4G_0DJUUWRm9JyBiscdJDi0XYZ8x-yqtttopCUT2Dbpp6ioCvsekP0a5hmmoStsYqJHA6do5nl0IZx1IyxxMQWvMk_N470lkAljSIPkAJmYF3jOEmutDHsEkhSX4mwKTyppt71xlRpv_nNKf91oi7n-fozMrEx1jy2bZLjWA8LqkFZgK6SBlpzyXKdNDPOv46xAPFnAe6UEPLHgs-YLA2rCkCouqRW4tm7s8DJTaO2kQONO-LUfyf7FK4NMdLLMX3lcPrTM_qbFK5o9hiSr5TZjrgAmeHCQjK78zKVhuxTH-bYb7kgvbyInZERTyoWt2rbWPMsfCNv-6mtnANORsTfy5ad080soSC40LPwI6gXkBSFXUVdHKGTZb0Xv2eNJDBVGEzlUUx4E1Jb2drcop045Gr0CXQIIDZRrkjSTRUiVv3dHmLplaDaGR-VWEE8Dwcp5_dL0edL0A8VEkBofziLneKWCrsAi6zupbrbd6AxkYkboG8gL4K8uKalIx4gMOLiWWqDgzwHIrHgUXNYwidpUqSP_GQd88TUjpo1-qkGnf7rQLY9Ac9lOQhOYgdqLNuHdfIfTlg3PUwd2ljTau7WwEXoyeloFUXb46J0DuAQWnQJtdlx7EbPjMIeQC__C62Cn79pU87SlZOHedRyZstP0coXlolMoLNL7jnZG9OrZ722OacF1zHQCkJ7-gd1tY_BR5mwKs-qvfkUPl0xtCOspVuybTBYnKgeJePHoT78r69vDHCeYJIPJ4_JVnO9DM6oZSqofJiX3UprIU32P__QHPXO5urMJE_EVUbj3hG-RM40ydqUWiIM4FJe_V9iklyPqbS0rj7wPUJTCBsdhxIvotePNdrriz6m-e8UWcy10yW64R1K_Q5KCTH6yXencN9RB_QWszhaztf_wrrEoUMDUlGklOMf2fbZ_W0zcM-Oe8MfGp2we8xnZGonkiNojtWRN7e7McbxJTjtTAdnVq5qB0dS_WzvTlC4v6KPocgv-3c9IDap3X7crrr1z6yUbfFDZse_4juHy0?></g></svg>