<svg xmlns="http://www.w3.org/2000/svg" xmlns:xlink="http://www.w3.org/1999/xlink" version="1.1" data-diagram-type="SEQUENCE" style="width:1173px;height:903px;background:#FFFFFF;" width="1173px" height="903px" viewBox="0 0 1173 903" zoomAndPan="magnify" preserveAspectRatio="none" contentStyleType="text/css"><?plantuml 1.2026.7beta3?><defs/><g><g class="title" data-source-line="4"><text x="439.6367" y="27.9951" fill="#000000" font-size="14" lengthAdjust="spacing" textLength="286.7813" font-weight="700" font-family="sans-serif">Séquence — Commande de chéquier</text></g><rect x="10" y="238.125" width="1147.0547" height="355.2031" fill="none" style="stroke:#000000;stroke-width:1.5;"/><rect x="20" y="364.4609" width="1127.0547" height="221.8672" fill="none" style="stroke:#000000;stroke-width:1.5;"/><g class="participant-lifeline" data-qualified-name="agent" data-entity-uid="part1" id="part1-lifeline" data-source-line="6"><g><title>Agent bancaire</title><rect x="82.3818" y="118.5938" width="8" height="702.7969" fill="#000000" fill-opacity="0.00000"/><line x1="86" y1="118.5938" x2="86" y2="821.3906" style="stroke:#181818;stroke-width:0.5;stroke-dasharray:5,5;"/></g></g><g class="participant-lifeline" data-qualified-name="ctrl" data-entity-uid="part2" id="part2-lifeline" data-source-line="7"><g><title>CheckbookOrderController</title><rect x="331.0317" y="118.5938" width="8" height="702.7969" fill="#000000" fill-opacity="0.00000"/><line x1="334.834" y1="118.5938" x2="334.834" y2="821.3906" style="stroke:#181818;stroke-width:0.5;stroke-dasharray:5,5;"/></g></g><g class="participant-lifeline" data-qualified-name="svc" data-entity-uid="part3" id="part3-lifeline" data-source-line="8"><g><title>CheckbookOrderService</title><rect x="732.4888" y="118.5938" width="8" height="702.7969" fill="#000000" fill-opacity="0.00000"/><line x1="736.0068" y1="118.5938" x2="736.0068" y2="821.3906" style="stroke:#181818;stroke-width:0.5;stroke-dasharray:5,5;"/></g></g><g class="participant-lifeline" data-qualified-name="acc" data-entity-uid="part4" id="part4-lifeline" data-source-line="9"><g><title>AccountService</title><rect x="975.0449" y="118.5938" width="8" height="702.7969" fill="#000000" fill-opacity="0.00000"/><line x1="978.7881" y1="118.5938" x2="978.7881" y2="821.3906" style="stroke:#181818;stroke-width:0.5;stroke-dasharray:5,5;"/></g></g><g class="participant-lifeline" data-qualified-name="db" data-entity-uid="part5" id="part5-lifeline" data-source-line="10"><g><title>PostgreSQL</title><rect x="1089.6782" y="118.5938" width="8" height="702.7969" fill="#000000" fill-opacity="0.00000"/><line x1="1093.3018" y1="118.5938" x2="1093.3018" y2="821.3906" style="stroke:#181818;stroke-width:0.5;stroke-dasharray:5,5;"/></g></g><g class="participant participant-head" data-qualified-name="agent" data-entity-uid="part1" id="part1-head" data-source-line="6"><text x="30" y="115.292" fill="#000000" font-size="14" lengthAdjust="spacing" textLength="106.7637" font-family="sans-serif">Agent bancaire</text><ellipse cx="86.3818" cy="50.7969" rx="8" ry="8" fill="#E2E2F0" style="stroke:#181818;stroke-width:0.5;"/><path d="M86.3818,58.7969 L86.3818,85.7969 M73.3818,66.7969 L99.3818,66.7969 M86.3818,85.7969 L73.3818,100.7969 M86.3818,85.7969 L99.3818,100.7969" style="stroke:#181818;stroke-width:0.5;" fill="none"/></g><g class="participant participant-tail" data-qualified-name="agent" data-entity-uid="part1" id="part1-tail" data-source-line="6"><text x="30" y="833.3857" fill="#000000" font-size="14" lengthAdjust="spacing" textLength="106.7637" font-family="sans-serif">Agent bancaire</text><ellipse cx="86.3818" cy="845.1875" rx="8" ry="8" fill="#E2E2F0" style="stroke:#181818;stroke-width:0.5;"/><path d="M86.3818,853.1875 L86.3818,880.1875 M73.3818,861.1875 L99.3818,861.1875 M86.3818,880.1875 L73.3818,895.1875 M86.3818,880.1875 L99.3818,895.1875" style="stroke:#181818;stroke-width:0.5;" fill="none"/></g><g class="participant participant-head" data-qualified-name="ctrl" data-entity-uid="part2" id="part2-head" data-source-line="7"><rect x="234.834" y="87.2969" width="200.3955" height="30.2969" fill="#E2E2F0" style="stroke:#181818;stroke-width:0.5;" rx="2.5" ry="2.5"/><text x="241.834" y="107.292" fill="#000000" font-size="14" lengthAdjust="spacing" textLength="186.3955" font-family="sans-serif">CheckbookOrderController</text></g><g class="participant participant-tail" data-qualified-name="ctrl" data-entity-uid="part2" id="part2-tail" data-source-line="7"><rect x="234.834" y="820.3906" width="200.3955" height="30.2969" fill="#E2E2F0" style="stroke:#181818;stroke-width:0.5;" rx="2.5" ry="2.5"/><text x="241.834" y="840.3857" fill="#000000" font-size="14" lengthAdjust="spacing" textLength="186.3955" font-family="sans-serif">CheckbookOrderController</text></g><g class="participant participant-head" data-qualified-name="svc" data-entity-uid="part3" id="part3-head" data-source-line="8"><rect x="645.0068" y="87.2969" width="182.9639" height="30.2969" fill="#E2E2F0" style="stroke:#181818;stroke-width:0.5;" rx="2.5" ry="2.5"/><text x="652.0068" y="107.292" fill="#000000" font-size="14" lengthAdjust="spacing" textLength="168.9639" font-family="sans-serif">CheckbookOrderService</text></g><g class="participant participant-tail" data-qualified-name="svc" data-entity-uid="part3" id="part3-tail" data-source-line="8"><rect x="645.0068" y="820.3906" width="182.9639" height="30.2969" fill="#E2E2F0" style="stroke:#181818;stroke-width:0.5;" rx="2.5" ry="2.5"/><text x="652.0068" y="840.3857" fill="#000000" font-size="14" lengthAdjust="spacing" textLength="168.9639" font-family="sans-serif">CheckbookOrderService</text></g><g class="participant participant-head" data-qualified-name="acc" data-entity-uid="part4" id="part4-head" data-source-line="9"><rect x="917.7881" y="87.2969" width="122.5137" height="30.2969" fill="#E2E2F0" style="stroke:#181818;stroke-width:0.5;" rx="2.5" ry="2.5"/><text x="924.7881" y="107.292" fill="#000000" font-size="14" lengthAdjust="spacing" textLength="108.5137" font-family="sans-serif">AccountService</text></g><g class="participant participant-tail" data-qualified-name="acc" data-entity-uid="part4" id="part4-tail" data-source-line="9"><rect x="917.7881" y="820.3906" width="122.5137" height="30.2969" fill="#E2E2F0" style="stroke:#181818;stroke-width:0.5;" rx="2.5" ry="2.5"/><text x="924.7881" y="840.3857" fill="#000000" font-size="14" lengthAdjust="spacing" textLength="108.5137" font-family="sans-serif">AccountService</text></g><g class="participant participant-head" data-qualified-name="db" data-entity-uid="part5" id="part5-head" data-source-line="10"><text x="1050.3018" y="115.292" fill="#000000" font-size="14" lengthAdjust="spacing" textLength="80.7529" font-family="sans-serif">PostgreSQL</text><path d="M1075.6782,66.2969 C1075.6782,56.2969 1093.6782,56.2969 1093.6782,56.2969 C1093.6782,56.2969 1111.6782,56.2969 1111.6782,66.2969 L1111.6782,92.2969 C1111.6782,102.2969 1093.6782,102.2969 1093.6782,102.2969 C1093.6782,102.2969 1075.6782,102.2969 1075.6782,92.2969 L1075.6782,66.2969" style="stroke:#181818;stroke-width:0.5;" fill="#E2E2F0"/><path d="M1075.6782,66.2969 C1075.6782,76.2969 1093.6782,76.2969 1093.6782,76.2969 C1093.6782,76.2969 1111.6782,76.2969 1111.6782,66.2969" style="stroke:#181818;stroke-width:0.5;" fill="none"/></g><g class="participant participant-tail" data-qualified-name="db" data-entity-uid="part5" id="part5-tail" data-source-line="10"><text x="1050.3018" y="833.3857" fill="#000000" font-size="14" lengthAdjust="spacing" textLength="80.7529" font-family="sans-serif">PostgreSQL</text><path d="M1075.6782,846.6875 C1075.6782,836.6875 1093.6782,836.6875 1093.6782,836.6875 C1093.6782,836.6875 1111.6782,836.6875 1111.6782,846.6875 L1111.6782,872.6875 C1111.6782,882.6875 1093.6782,882.6875 1093.6782,882.6875 C1093.6782,882.6875 1075.6782,882.6875 1075.6782,872.6875 L1075.6782,846.6875" style="stroke:#181818;stroke-width:0.5;" fill="#E2E2F0"/><path d="M1075.6782,846.6875 C1075.6782,856.6875 1093.6782,856.6875 1093.6782,856.6875 C1093.6782,856.6875 1111.6782,856.6875 1111.6782,846.6875" style="stroke:#181818;stroke-width:0.5;" fill="none"/></g><g class="message" data-entity-1="part1" data-entity-2="part2" id="msg1" data-source-line="12"><polygon points="323.0317,160.8594,333.0317,164.8594,323.0317,168.8594,327.0317,164.8594" fill="#181818" style="stroke:#181818;stroke-width:1;stroke-linejoin:miter;stroke-miterlimit:10;"/><line x1="86.3818" y1="164.8594" x2="329.0317" y2="164.8594" style="stroke:#181818;stroke-width:1;"/><text x="93.3818" y="144.6606" fill="#000000" font-size="13" lengthAdjust="spacing" textLength="142.3462" font-family="sans-serif">Depuis fiche compte :</text><text x="93.3818" y="159.7935" fill="#000000" font-size="13" lengthAdjust="spacing" textLength="224.6499" font-family="sans-serif">quantité + format (20/40 feuillets)</text></g><g class="message" data-entity-1="part2" data-entity-2="part3" id="msg2" data-source-line="13"><polygon points="724.4888,189.9922,734.4888,193.9922,724.4888,197.9922,728.4888,193.9922" fill="#181818" style="stroke:#181818;stroke-width:1;stroke-linejoin:miter;stroke-miterlimit:10;"/><line x1="335.0317" y1="193.9922" x2="730.4888" y2="193.9922" style="stroke:#181818;stroke-width:1;"/><text x="342.0317" y="188.9263" fill="#000000" font-size="13" lengthAdjust="spacing" textLength="377.457" font-family="sans-serif">requestCheckbook(accountId, quantity, sheetCount, user)</text></g><g class="message" data-entity-1="part3" data-entity-2="part4" id="msg3" data-source-line="15"><polygon points="967.0449,219.125,977.0449,223.125,967.0449,227.125,971.0449,223.125" fill="#181818" style="stroke:#181818;stroke-width:1;stroke-linejoin:miter;stroke-miterlimit:10;"/><line x1="736.4888" y1="223.125" x2="973.0449" y2="223.125" style="stroke:#181818;stroke-width:1;"/><text x="743.4888" y="218.0591" fill="#000000" font-size="13" lengthAdjust="spacing" textLength="218.5562" font-family="sans-serif">findAccount + vérifier type/statut</text></g><path d="M10,238.125 L74.4429,238.125 L74.4429,245.2578 L64.4429,255.2578 L10,255.2578 L10,238.125" style="stroke:#000000;stroke-width:1.5;" fill="#EEEEEE"/><rect x="10" y="238.125" width="1147.0547" height="355.2031" fill="none" style="stroke:#000000;stroke-width:1.5;"/><text x="25" y="251.1919" fill="#000000" font-size="13" lengthAdjust="spacing" textLength="19.4429" font-weight="700" font-family="sans-serif">alt</text><text x="89.4429" y="250.3354" fill="#000000" font-size="11" lengthAdjust="spacing" textLength="207.2114" font-weight="700" font-family="sans-serif">[compte épargne ou non éligible]</text><g class="message" data-entity-1="part3" data-entity-2="part2" id="msg4" data-source-line="17"><polygon points="346.0317,272.3906,336.0317,276.3906,346.0317,280.3906,342.0317,276.3906" fill="#181818" style="stroke:#181818;stroke-width:1;stroke-linejoin:miter;stroke-miterlimit:10;"/><line x1="340.0317" y1="276.3906" x2="735.4888" y2="276.3906" style="stroke:#181818;stroke-width:1;stroke-dasharray:2,2;"/><text x="352.0317" y="271.3247" fill="#000000" font-size="13" lengthAdjust="spacing" textLength="87.1152" font-family="sans-serif">erreur métier</text></g><g class="message" data-entity-1="part2" data-entity-2="part1" id="msg5" data-source-line="18"><polygon points="97.3818,301.5234,87.3818,305.5234,97.3818,309.5234,93.3818,305.5234" fill="#181818" style="stroke:#181818;stroke-width:1;stroke-linejoin:miter;stroke-miterlimit:10;"/><line x1="91.3818" y1="305.5234" x2="334.0317" y2="305.5234" style="stroke:#181818;stroke-width:1;stroke-dasharray:2,2;"/><text x="103.3818" y="300.4575" fill="#000000" font-size="13" lengthAdjust="spacing" textLength="114.6514" font-family="sans-serif">message d'erreur</text></g><line x1="10" y1="314.5234" x2="1157.0547" y2="314.5234" style="stroke:#000000;stroke-width:1;stroke-dasharray:2,2;"/><text x="15" y="324.7339" fill="#000000" font-size="11" lengthAdjust="spacing" textLength="164.3232" font-weight="700" font-family="sans-serif">[compte courant/pro actif]</text><g class="message" data-entity-1="part3" data-entity-2="part5" id="msg6" data-source-line="20"><polygon points="1081.6782,345.4609,1091.6782,349.4609,1081.6782,353.4609,1085.6782,349.4609" fill="#181818" style="stroke:#181818;stroke-width:1;stroke-linejoin:miter;stroke-miterlimit:10;"/><line x1="736.4888" y1="349.4609" x2="1087.6782" y2="349.4609" style="stroke:#181818;stroke-width:1;"/><text x="743.4888" y="344.395" fill="#000000" font-size="13" lengthAdjust="spacing" textLength="234.2539" font-family="sans-serif">vérifier pas de commande PENDING</text></g><path d="M20,364.4609 L84.4429,364.4609 L84.4429,371.5938 L74.4429,381.5938 L20,381.5938 L20,364.4609" style="stroke:#000000;stroke-width:1.5;" fill="#EEEEEE"/><rect x="20" y="364.4609" width="1127.0547" height="221.8672" fill="none" style="stroke:#000000;stroke-width:1.5;"/><text x="35" y="377.5278" fill="#000000" font-size="13" lengthAdjust="spacing" textLength="19.4429" font-weight="700" font-family="sans-serif">alt</text><text x="99.4429" y="376.6714" fill="#000000" font-size="11" lengthAdjust="spacing" textLength="196.4102" font-weight="700" font-family="sans-serif">[commande en cours existante]</text><g class="message" data-entity-1="part3" data-entity-2="part2" id="msg7" data-source-line="22"><polygon points="346.0317,398.7266,336.0317,402.7266,346.0317,406.7266,342.0317,402.7266" fill="#181818" style="stroke:#181818;stroke-width:1;stroke-linejoin:miter;stroke-miterlimit:10;"/><line x1="340.0317" y1="402.7266" x2="735.4888" y2="402.7266" style="stroke:#181818;stroke-width:1;stroke-dasharray:2,2;"/><text x="352.0317" y="397.6606" fill="#000000" font-size="13" lengthAdjust="spacing" textLength="96.9033" font-family="sans-serif">erreur doublon</text></g><g class="message" data-entity-1="part2" data-entity-2="part1" id="msg8" data-source-line="23"><polygon points="97.3818,427.8594,87.3818,431.8594,97.3818,435.8594,93.3818,431.8594" fill="#181818" style="stroke:#181818;stroke-width:1;stroke-linejoin:miter;stroke-miterlimit:10;"/><line x1="91.3818" y1="431.8594" x2="334.0317" y2="431.8594" style="stroke:#181818;stroke-width:1;stroke-dasharray:2,2;"/><text x="103.3818" y="426.7935" fill="#000000" font-size="13" lengthAdjust="spacing" textLength="114.6514" font-family="sans-serif">message d'erreur</text></g><line x1="20" y1="440.8594" x2="1147.0547" y2="440.8594" style="stroke:#000000;stroke-width:1;stroke-dasharray:2,2;"/><text x="25" y="451.0698" fill="#000000" font-size="11" lengthAdjust="spacing" textLength="27.9297" font-weight="700" font-family="sans-serif">[OK]</text><g class="message" data-entity-1="part3" data-entity-2="part5" id="msg9" data-source-line="25"><polygon points="1081.6782,486.9297,1091.6782,490.9297,1081.6782,494.9297,1085.6782,490.9297" fill="#181818" style="stroke:#181818;stroke-width:1;stroke-linejoin:miter;stroke-miterlimit:10;"/><line x1="736.4888" y1="490.9297" x2="1087.6782" y2="490.9297" style="stroke:#181818;stroke-width:1;"/><text x="743.4888" y="470.731" fill="#000000" font-size="13" lengthAdjust="spacing" textLength="162.2715" font-family="sans-serif">INSERT checkbook_order</text><text x="743.4888" y="485.8638" fill="#000000" font-size="13" lengthAdjust="spacing" textLength="189.3696" font-family="sans-serif">statut PENDING, sheet_count</text></g><g class="message" data-entity-1="part3" data-entity-2="part5" id="msg10" data-source-line="26"><polygon points="1081.6782,516.0625,1091.6782,520.0625,1081.6782,524.0625,1085.6782,520.0625" fill="#181818" style="stroke:#181818;stroke-width:1;stroke-linejoin:miter;stroke-miterlimit:10;"/><line x1="736.4888" y1="520.0625" x2="1087.6782" y2="520.0625" style="stroke:#181818;stroke-width:1;"/><text x="743.4888" y="514.9966" fill="#000000" font-size="13" lengthAdjust="spacing" textLength="264.729" font-family="sans-serif">audit log CHECKBOOK_ORDER_CREATED</text></g><g class="message" data-entity-1="part3" data-entity-2="part2" id="msg11" data-source-line="27"><polygon points="346.0317,545.1953,336.0317,549.1953,346.0317,553.1953,342.0317,549.1953" fill="#181818" style="stroke:#181818;stroke-width:1;stroke-linejoin:miter;stroke-miterlimit:10;"/><line x1="340.0317" y1="549.1953" x2="735.4888" y2="549.1953" style="stroke:#181818;stroke-width:1;stroke-dasharray:2,2;"/><text x="352.0317" y="544.1294" fill="#000000" font-size="13" lengthAdjust="spacing" textLength="108.8496" font-family="sans-serif">CheckbookOrder</text></g><g class="message" data-entity-1="part2" data-entity-2="part1" id="msg12" data-source-line="28"><polygon points="97.3818,574.3281,87.3818,578.3281,97.3818,582.3281,93.3818,578.3281" fill="#181818" style="stroke:#181818;stroke-width:1;stroke-linejoin:miter;stroke-miterlimit:10;"/><line x1="91.3818" y1="578.3281" x2="334.0317" y2="578.3281" style="stroke:#181818;stroke-width:1;stroke-dasharray:2,2;"/><text x="103.3818" y="573.2622" fill="#000000" font-size="13" lengthAdjust="spacing" textLength="181.8032" font-family="sans-serif">confirmation + n° demande</text></g><g class="message" data-entity-1="part1" data-entity-2="part2" id="msg13" data-source-line="32"><polygon points="323.0317,617.4609,333.0317,621.4609,323.0317,625.4609,327.0317,621.4609" fill="#181818" style="stroke:#181818;stroke-width:1;stroke-linejoin:miter;stroke-miterlimit:10;"/><line x1="86.3818" y1="621.4609" x2="329.0317" y2="621.4609" style="stroke:#181818;stroke-width:1;"/><text x="93.3818" y="616.395" fill="#000000" font-size="13" lengthAdjust="spacing" textLength="187.1162" font-family="sans-serif">Marquer EN_COURS / LIVRÉE</text></g><g class="message" data-entity-1="part2" data-entity-2="part3" id="msg14" data-source-line="33"><polygon points="724.4888,646.5938,734.4888,650.5938,724.4888,654.5938,728.4888,650.5938" fill="#181818" style="stroke:#181818;stroke-width:1;stroke-linejoin:miter;stroke-miterlimit:10;"/><line x1="335.0317" y1="650.5938" x2="730.4888" y2="650.5938" style="stroke:#181818;stroke-width:1;"/><text x="342.0317" y="645.5278" fill="#000000" font-size="13" lengthAdjust="spacing" textLength="257.5308" font-family="sans-serif">updateStatus(orderId, newStatus, user)</text></g><g class="message" data-entity-1="part3" data-entity-2="part5" id="msg15" data-source-line="34"><polygon points="1081.6782,675.7266,1091.6782,679.7266,1081.6782,683.7266,1085.6782,679.7266" fill="#181818" style="stroke:#181818;stroke-width:1;stroke-linejoin:miter;stroke-miterlimit:10;"/><line x1="736.4888" y1="679.7266" x2="1087.6782" y2="679.7266" style="stroke:#181818;stroke-width:1;"/><text x="743.4888" y="674.6606" fill="#000000" font-size="13" lengthAdjust="spacing" textLength="150.0586" font-family="sans-serif">UPDATE statut + dates</text></g><g class="message" data-entity-1="part3" data-entity-2="part5" id="msg16" data-source-line="35"><polygon points="1081.6782,704.8594,1091.6782,708.8594,1081.6782,712.8594,1085.6782,708.8594" fill="#181818" style="stroke:#181818;stroke-width:1;stroke-linejoin:miter;stroke-miterlimit:10;"/><line x1="736.4888" y1="708.8594" x2="1087.6782" y2="708.8594" style="stroke:#181818;stroke-width:1;"/><text x="743.4888" y="703.7935" fill="#000000" font-size="13" lengthAdjust="spacing" textLength="57.1162" font-family="sans-serif">audit log</text></g><g class="message" data-entity-1="part2" data-entity-2="part1" id="msg17" data-source-line="36"><polygon points="97.3818,733.9922,87.3818,737.9922,97.3818,741.9922,93.3818,737.9922" fill="#181818" style="stroke:#181818;stroke-width:1;stroke-linejoin:miter;stroke-miterlimit:10;"/><line x1="91.3818" y1="737.9922" x2="334.0317" y2="737.9922" style="stroke:#181818;stroke-width:1;stroke-dasharray:2,2;"/><text x="103.3818" y="732.9263" fill="#000000" font-size="13" lengthAdjust="spacing" textLength="185.1484" font-family="sans-serif">fiche commande mise à jour</text></g><path d="M741,750.9922 L741,805.9922 L1091,805.9922 L1091,760.9922 L1081,750.9922 L741,750.9922" style="stroke:#181818;stroke-width:0.5;" fill="#FEFFDD"/><path d="M1081,750.9922 L1081,760.9922 L1091,760.9922 L1081,750.9922" style="stroke:#181818;stroke-width:0.5;" fill="#FEFFDD"/><text x="747" y="768.0591" fill="#000000" font-size="13" lengthAdjust="spacing" textLength="186.5068" font-family="sans-serif">Pas de mouvement financier</text><text x="747" y="783.1919" fill="#000000" font-size="13" lengthAdjust="spacing" textLength="329.0308" font-family="sans-serif">Workflow : PENDING → PROCESSING → DELIVERED</text><text x="747" y="798.3247" fill="#000000" font-size="13" lengthAdjust="spacing" textLength="108.1641" font-family="sans-serif">(ou CANCELLED)</text><?plantuml-src XLJBRjim4BppAnQ-r44IE2XwoY608mkj4STsfQIz131eQIMpbaY5fEpcbbE1Nej-GA--zHlgFycNT4d9UJHf2qW7aSlPcTcXp5B8YcjUWbdmLAs5p27ZXK5cxdSqcaf9W-Te3C_n50krxckjrc1rZOnPOGk4UBkvhb4c27Utto5GPSbbYa1Fid1R0ZLZFB5AGwUVexGmvpBXGcC7k07kbXWrj28H5QVjJh30P3bNQZdHAUf0IQjLKQ3szOdLnR_AOzGhaJJOPfKyBUqdYQgbVLp3auIbtF8vDmYTgJ8srnY_7_dDT4xKFUV34zyPZc60LIqCP29Pa4HLLXRX-4fUrzH1sEq6zY5JkkGMkg-FUc-E8CDQ47rhzfY782WYHaWQoJXZx_btUKDlc1v02tTpGFD1j85RFu3QeDvZp1qd52edb4p8jDL5hLVRZHOPUGxsfiAUiTpMbl72xgXkD-H8BX5K3L99-Yv4BkO5Cl2q3X-KejPOQoYt6-k62CswAsWyEOQoIGQahvfQXfIWNIUYf4b4hzAAg5gHxJgSaAzq-85gvQpsvvhiJCFnO3X-I_KjyMOPfSSqW9y52PFMSVuRwrJLyq99N_5_tW2U-UJi0R5bEHp7ONH1MMw7D5CkPLUoSNP7jHtJp8_X6GQlKs6XK3a4xyBWx7GoEPjDea4OpO8ex5-4WvTqF8tropeI9JFXiYPealiWV_qa7xrPJf5CcNkV9VYSQmgUXd0y2oQNKGmz60q_HDkluHy1hIkw6HWxfQRhTRjeIbmtIxiyFfPwEHsG86ZTsGS7ODYBPh1dSkxlL3FlKj18jZ_W4msTCQaeKrha2migyrSRODe4frJr2ak7GPU1VYvDMZyglSpebqN0xPJWxiitc4QJ88pZtUSW9ErXv6VGfJiHzCT1E1g5Wprd7hYklm40?></g></svg>