<svg xmlns="http://www.w3.org/2000/svg" xmlns:xlink="http://www.w3.org/1999/xlink" version="1.1" data-diagram-type="SEQUENCE" style="width:1324px;height:1514px;background:#FFFFFF;" width="1324px" height="1514px" viewBox="0 0 1324 1514" zoomAndPan="magnify" preserveAspectRatio="none" contentStyleType="text/css"><?plantuml 1.2026.7beta3?><defs/><g><g class="title" data-source-line="10"><text x="517.834" y="35.9951" fill="#000000" font-size="14" lengthAdjust="spacing" textLength="281.7842" font-weight="700" font-family="sans-serif">Séquence — Centre de notifications</text></g><rect x="3" y="61.2969" width="1308.4521" height="38.2813" fill="#FFFFCC" style="stroke:#FFDD88;stroke-width:3;" rx="2.5" ry="2.5"/><text x="10" y="71.9375" fill="#000000" font-size="10" lengthAdjust="spacing" textLength="361.2305" font-family="monospace">Please use CSS style instead of skinparam ParticipantPadding</text><text x="10" y="93.5781" fill="#000000" font-size="10" lengthAdjust="spacing" textLength="295.0049" font-family="monospace">Please use CSS style instead of skinparam padding</text><rect x="723.9707" y="442.3906" width="431.3369" height="104.875" fill="none" style="stroke:#000000;stroke-width:1.5;"/><rect x="723.9707" y="1218.7969" width="431.3369" height="104.875" fill="none" style="stroke:#000000;stroke-width:1.5;"/><g class="participant-lifeline" data-qualified-name="agent" data-entity-uid="part1" id="part1-lifeline" data-source-line="12"><g><title>Agent bancaire</title><rect x="57.7559" y="191.5469" width="8" height="1227.0313" fill="#000000" fill-opacity="0.00000"/><line x1="61" y1="191.5469" x2="61" y2="1418.5781" style="stroke:#181818;stroke-width:0.5;stroke-dasharray:5,5;"/></g></g><g class="participant-lifeline" data-qualified-name="chef" data-entity-uid="part2" id="part2-lifeline" data-source-line="13"><g><title>Chef d.agence</title><rect x="178.6426" y="191.5469" width="8" height="1227.0313" fill="#000000" fill-opacity="0.00000"/><line x1="182.5117" y1="191.5469" x2="182.5117" y2="1418.5781" style="stroke:#181818;stroke-width:0.5;stroke-dasharray:5,5;"/></g></g><g class="participant-lifeline" data-qualified-name="chqSvc" data-entity-uid="part3" id="part3-lifeline" data-source-line="14"><g><title>CheckbookOrderService</title><rect x="470.9883" y="191.5469" width="8" height="1227.0313" fill="#000000" fill-opacity="0.00000"/><line x1="474.5752" y1="191.5469" x2="474.5752" y2="1418.5781" style="stroke:#181818;stroke-width:0.5;stroke-dasharray:5,5;"/></g></g><g class="participant-lifeline" data-qualified-name="notifSvc" data-entity-uid="part4" id="part4-lifeline" data-source-line="15"><g><title>NotificationService</title><rect x="801.5723" y="191.5469" width="8" height="1227.0313" fill="#000000" fill-opacity="0.00000"/><line x1="804.9707" y1="191.5469" x2="804.9707" y2="1418.5781" style="stroke:#181818;stroke-width:0.5;stroke-dasharray:5,5;"/></g></g><g class="participant-lifeline" data-qualified-name="db" data-entity-uid="part5" id="part5-lifeline" data-source-line="16"><g><title>PostgreSQL</title><rect x="1095.6992" y="191.5469" width="8" height="1227.0313" fill="#000000" fill-opacity="0.00000"/><line x1="1099.0908" y1="191.5469" x2="1099.0908" y2="1418.5781" style="stroke:#181818;stroke-width:0.5;stroke-dasharray:5,5;"/></g></g><g class="participant-lifeline" data-qualified-name="ctrl" data-entity-uid="part6" id="part6-lifeline" data-source-line="17"><g><title>NotificationController</title><rect x="1230.3799" y="191.5469" width="8" height="1227.0313" fill="#000000" fill-opacity="0.00000"/><line x1="1234.3076" y1="191.5469" x2="1234.3076" y2="1418.5781" style="stroke:#181818;stroke-width:0.5;stroke-dasharray:5,5;"/></g></g><g class="participant participant-head" data-qualified-name="agent" data-entity-uid="part1" id="part1-head" data-source-line="12"><text x="13" y="180.7168" fill="#000000" font-size="12" lengthAdjust="spacing" textLength="91.5117" font-family="sans-serif">Agent bancaire</text><ellipse cx="61.7559" cy="110.0781" rx="8" ry="8" fill="#E2E2F0" style="stroke:#181818;stroke-width:0.5;"/><path d="M61.7559,118.0781 L61.7559,145.0781 M48.7559,126.0781 L74.7559,126.0781 M61.7559,145.0781 L48.7559,160.0781 M61.7559,145.0781 L74.7559,160.0781" style="stroke:#181818;stroke-width:0.5;" fill="none"/></g><g class="participant participant-tail" data-qualified-name="agent" data-entity-uid="part1" id="part1-tail" data-source-line="12"><text x="13" y="1436.7168" fill="#000000" font-size="12" lengthAdjust="spacing" textLength="91.5117" font-family="sans-serif">Agent bancaire</text><ellipse cx="61.7559" cy="1456.0469" rx="8" ry="8" fill="#E2E2F0" style="stroke:#181818;stroke-width:0.5;"/><path d="M61.7559,1464.0469 L61.7559,1491.0469 M48.7559,1472.0469 L74.7559,1472.0469 M61.7559,1491.0469 L48.7559,1506.0469 M61.7559,1491.0469 L74.7559,1506.0469" style="stroke:#181818;stroke-width:0.5;" fill="none"/></g><g class="participant participant-head" data-qualified-name="chef" data-entity-uid="part2" id="part2-head" data-source-line="13"><text x="136.5117" y="180.7168" fill="#000000" font-size="12" lengthAdjust="spacing" textLength="86.2617" font-family="sans-serif">Chef d'agence</text><ellipse cx="182.6426" cy="110.0781" rx="8" ry="8" fill="#E2E2F0" style="stroke:#181818;stroke-width:0.5;"/><path d="M182.6426,118.0781 L182.6426,145.0781 M169.6426,126.0781 L195.6426,126.0781 M182.6426,145.0781 L169.6426,160.0781 M182.6426,145.0781 L195.6426,160.0781" style="stroke:#181818;stroke-width:0.5;" fill="none"/></g><g class="participant participant-tail" data-qualified-name="chef" data-entity-uid="part2" id="part2-tail" data-source-line="13"><text x="136.5117" y="1436.7168" fill="#000000" font-size="12" lengthAdjust="spacing" textLength="86.2617" font-family="sans-serif">Chef d'agence</text><ellipse cx="182.6426" cy="1456.0469" rx="8" ry="8" fill="#E2E2F0" style="stroke:#181818;stroke-width:0.5;"/><path d="M182.6426,1464.0469 L182.6426,1491.0469 M169.6426,1472.0469 L195.6426,1472.0469 M182.6426,1491.0469 L169.6426,1506.0469 M182.6426,1491.0469 L195.6426,1506.0469" style="stroke:#181818;stroke-width:0.5;" fill="none"/></g><g class="participant participant-head" data-qualified-name="chqSvc" data-entity-uid="part3" id="part3-head" data-source-line="14"><rect x="387.5752" y="146.5781" width="174.8262" height="43.9688" fill="#E2E2F0" style="stroke:#181818;stroke-width:0.5;" rx="2.5" ry="2.5"/><text x="402.5752" y="172.7168" fill="#000000" font-size="12" lengthAdjust="spacing" textLength="144.8262" font-family="sans-serif">CheckbookOrderService</text></g><g class="participant participant-tail" data-qualified-name="chqSvc" data-entity-uid="part3" id="part3-tail" data-source-line="14"><rect x="387.5752" y="1417.5781" width="174.8262" height="43.9688" fill="#E2E2F0" style="stroke:#181818;stroke-width:0.5;" rx="2.5" ry="2.5"/><text x="402.5752" y="1443.7168" fill="#000000" font-size="12" lengthAdjust="spacing" textLength="144.8262" font-family="sans-serif">CheckbookOrderService</text></g><g class="participant participant-head" data-qualified-name="notifSvc" data-entity-uid="part4" id="part4-head" data-source-line="15"><rect x="733.9707" y="146.5781" width="143.2031" height="43.9688" fill="#E2E2F0" style="stroke:#181818;stroke-width:0.5;" rx="2.5" ry="2.5"/><text x="748.9707" y="172.7168" fill="#000000" font-size="12" lengthAdjust="spacing" textLength="113.2031" font-family="sans-serif">NotificationService</text></g><g class="participant participant-tail" data-qualified-name="notifSvc" data-entity-uid="part4" id="part4-tail" data-source-line="15"><rect x="733.9707" y="1417.5781" width="143.2031" height="43.9688" fill="#E2E2F0" style="stroke:#181818;stroke-width:0.5;" rx="2.5" ry="2.5"/><text x="748.9707" y="1443.7168" fill="#000000" font-size="12" lengthAdjust="spacing" textLength="113.2031" font-family="sans-serif">NotificationService</text></g><g class="participant participant-head" data-qualified-name="db" data-entity-uid="part5" id="part5-head" data-source-line="16"><text x="1062.0908" y="180.7168" fill="#000000" font-size="12" lengthAdjust="spacing" textLength="69.2168" font-family="sans-serif">PostgreSQL</text><path d="M1081.6992,125.5781 C1081.6992,115.5781 1099.6992,115.5781 1099.6992,115.5781 C1099.6992,115.5781 1117.6992,115.5781 1117.6992,125.5781 L1117.6992,151.5781 C1117.6992,161.5781 1099.6992,161.5781 1099.6992,161.5781 C1099.6992,161.5781 1081.6992,161.5781 1081.6992,151.5781 L1081.6992,125.5781" style="stroke:#181818;stroke-width:0.5;" fill="#E2E2F0"/><path d="M1081.6992,125.5781 C1081.6992,135.5781 1099.6992,135.5781 1099.6992,135.5781 C1099.6992,135.5781 1117.6992,135.5781 1117.6992,125.5781" style="stroke:#181818;stroke-width:0.5;" fill="none"/></g><g class="participant participant-tail" data-qualified-name="db" data-entity-uid="part5" id="part5-tail" data-source-line="16"><text x="1062.0908" y="1436.7168" fill="#000000" font-size="12" lengthAdjust="spacing" textLength="69.2168" font-family="sans-serif">PostgreSQL</text><path d="M1081.6992,1457.5469 C1081.6992,1447.5469 1099.6992,1447.5469 1099.6992,1447.5469 C1099.6992,1447.5469 1117.6992,1447.5469 1117.6992,1457.5469 L1117.6992,1483.5469 C1117.6992,1493.5469 1099.6992,1493.5469 1099.6992,1493.5469 C1099.6992,1493.5469 1081.6992,1493.5469 1081.6992,1483.5469 L1081.6992,1457.5469" style="stroke:#181818;stroke-width:0.5;" fill="#E2E2F0"/><path d="M1081.6992,1457.5469 C1081.6992,1467.5469 1099.6992,1467.5469 1099.6992,1467.5469 C1099.6992,1467.5469 1117.6992,1467.5469 1117.6992,1457.5469" style="stroke:#181818;stroke-width:0.5;" fill="none"/></g><g class="participant participant-head" data-qualified-name="ctrl" data-entity-uid="part6" id="part6-head" data-source-line="17"><rect x="1155.3076" y="146.5781" width="158.1445" height="43.9688" fill="#E2E2F0" style="stroke:#181818;stroke-width:0.5;" rx="2.5" ry="2.5"/><text x="1170.3076" y="172.7168" fill="#000000" font-size="12" lengthAdjust="spacing" textLength="128.1445" font-family="sans-serif">NotificationController</text></g><g class="participant participant-tail" data-qualified-name="ctrl" data-entity-uid="part6" id="part6-tail" data-source-line="17"><rect x="1155.3076" y="1417.5781" width="158.1445" height="43.9688" fill="#E2E2F0" style="stroke:#181818;stroke-width:0.5;" rx="2.5" ry="2.5"/><text x="1170.3076" y="1443.7168" fill="#000000" font-size="12" lengthAdjust="spacing" textLength="128.1445" font-family="sans-serif">NotificationController</text></g><rect x="0" y="229.5313" width="1318.4521" height="3" fill="#EEEEEE" style="stroke:#EEEEEE;stroke-width:1;"/><line x1="0" y1="229.5313" x2="1318.4521" y2="229.5313" style="stroke:#000000;stroke-width:1;"/><line x1="0" y1="232.5313" x2="1318.4521" y2="232.5313" style="stroke:#000000;stroke-width:1;"/><rect x="541.9653" y="211.5469" width="234.5215" height="37.9688" fill="#EEEEEE" style="stroke:#000000;stroke-width:2;"/><text x="555.9653" y="234.6855" fill="#000000" font-size="12" lengthAdjust="spacing" textLength="200.3438" font-weight="700" font-family="sans-serif">Nouvelle commande chéquier</text><g class="message" data-entity-1="part1" data-entity-2="part3" id="msg1" data-source-line="20"><polygon points="462.9883,291.4844,472.9883,295.4844,462.9883,299.4844,466.9883,295.4844" fill="#181818" style="stroke:#181818;stroke-width:1;stroke-linejoin:miter;stroke-miterlimit:10;"/><line x1="61.7559" y1="295.4844" x2="468.9883" y2="295.4844" style="stroke:#181818;stroke-width:1;"/><text x="76.7559" y="282.6543" fill="#000000" font-size="12" lengthAdjust="spacing" textLength="132.8496" font-family="sans-serif">requestCheckbook(...)</text></g><g class="message" data-entity-1="part3" data-entity-2="part5" id="msg2" data-source-line="21"><polygon points="1087.6992,335.4531,1097.6992,339.4531,1087.6992,343.4531,1091.6992,339.4531" fill="#181818" style="stroke:#181818;stroke-width:1;stroke-linejoin:miter;stroke-miterlimit:10;"/><line x1="474.9883" y1="339.4531" x2="1093.6992" y2="339.4531" style="stroke:#181818;stroke-width:1;"/><text x="489.9883" y="326.623" fill="#000000" font-size="12" lengthAdjust="spacing" textLength="217.8164" font-family="sans-serif">INSERT checkbook_order (PENDING)</text></g><g class="message" data-entity-1="part3" data-entity-2="part4" id="msg3" data-source-line="22"><polygon points="793.5723,379.4219,803.5723,383.4219,793.5723,387.4219,797.5723,383.4219" fill="#181818" style="stroke:#181818;stroke-width:1;stroke-linejoin:miter;stroke-miterlimit:10;"/><line x1="474.9883" y1="383.4219" x2="799.5723" y2="383.4219" style="stroke:#181818;stroke-width:1;"/><text x="489.9883" y="370.5918" fill="#000000" font-size="12" lengthAdjust="spacing" textLength="271.8574" font-family="sans-serif">notifyChefsAboutNewCheckbookOrder(order)</text></g><g class="message" data-entity-1="part4" data-entity-2="part5" id="msg4" data-source-line="23"><polygon points="1087.6992,423.3906,1097.6992,427.3906,1087.6992,431.3906,1091.6992,427.3906" fill="#181818" style="stroke:#181818;stroke-width:1;stroke-linejoin:miter;stroke-miterlimit:10;"/><line x1="805.5723" y1="427.3906" x2="1093.6992" y2="427.3906" style="stroke:#181818;stroke-width:1;"/><text x="820.5723" y="414.5605" fill="#000000" font-size="12" lengthAdjust="spacing" textLength="209.4258" font-family="sans-serif">SELECT users CHEF_AGENCE actifs</text></g><path d="M723.9707,442.3906 L814.1621,442.3906 L814.1621,464.3594 L804.1621,474.3594 L723.9707,474.3594 L723.9707,442.3906" style="stroke:#000000;stroke-width:1.5;" fill="#EEEEEE"/><rect x="723.9707" y="442.3906" width="431.3369" height="104.875" fill="none" style="stroke:#000000;stroke-width:1.5;"/><text x="746.9707" y="462.5293" fill="#000000" font-size="12" lengthAdjust="spacing" textLength="29.1914" font-weight="700" font-family="sans-serif">loop</text><text x="837.1621" y="463.5293" fill="#000000" font-size="12" lengthAdjust="spacing" textLength="128.6602" font-weight="700" font-family="sans-serif">[pour chaque chef]</text><g class="message" data-entity-1="part4" data-entity-2="part5" id="msg5" data-source-line="25"><polygon points="1087.6992,535.2656,1097.6992,539.2656,1087.6992,543.2656,1091.6992,539.2656" fill="#181818" style="stroke:#181818;stroke-width:1;stroke-linejoin:miter;stroke-miterlimit:10;"/><line x1="805.5723" y1="539.2656" x2="1093.6992" y2="539.2656" style="stroke:#181818;stroke-width:1;"/><text x="820.5723" y="512.4668" fill="#000000" font-size="12" lengthAdjust="spacing" textLength="114.6797" font-family="sans-serif">INSERT notification</text><text x="820.5723" y="526.4355" fill="#000000" font-size="12" lengthAdjust="spacing" textLength="197.1914" font-family="sans-serif">(CHECKBOOK_ORDER_CREATED)</text></g><g class="message" data-entity-1="part4" data-entity-2="part3" id="msg6" data-source-line="27"><polygon points="485.9883,586.2344,475.9883,590.2344,485.9883,594.2344,481.9883,590.2344" fill="#181818" style="stroke:#181818;stroke-width:1;stroke-linejoin:miter;stroke-miterlimit:10;"/><line x1="479.9883" y1="590.2344" x2="804.5723" y2="590.2344" style="stroke:#181818;stroke-width:1;stroke-dasharray:2,2;"/><text x="499.9883" y="577.4043" fill="#000000" font-size="12" lengthAdjust="spacing" textLength="17.3145" font-family="sans-serif">OK</text></g><rect x="0" y="626.2188" width="1318.4521" height="3" fill="#EEEEEE" style="stroke:#EEEEEE;stroke-width:1;"/><line x1="0" y1="626.2188" x2="1318.4521" y2="626.2188" style="stroke:#000000;stroke-width:1;"/><line x1="0" y1="629.2188" x2="1318.4521" y2="629.2188" style="stroke:#000000;stroke-width:1;"/><rect x="561.0024" y="608.2344" width="196.4473" height="37.9688" fill="#EEEEEE" style="stroke:#000000;stroke-width:2;"/><text x="575.0024" y="631.373" fill="#000000" font-size="12" lengthAdjust="spacing" textLength="162.2695" font-weight="700" font-family="sans-serif">Consultation par le chef</text><g class="message" data-entity-1="part2" data-entity-2="part6" id="msg7" data-source-line="30"><polygon points="1222.3799,688.1719,1232.3799,692.1719,1222.3799,696.1719,1226.3799,692.1719" fill="#181818" style="stroke:#181818;stroke-width:1;stroke-linejoin:miter;stroke-miterlimit:10;"/><line x1="182.6426" y1="692.1719" x2="1228.3799" y2="692.1719" style="stroke:#181818;stroke-width:1;"/><text x="197.6426" y="679.3418" fill="#000000" font-size="12" lengthAdjust="spacing" textLength="105.8027" font-family="sans-serif">GET /notifications</text></g><g class="message" data-entity-1="part6" data-entity-2="part4" id="msg8" data-source-line="31"><polygon points="816.5723,732.1406,806.5723,736.1406,816.5723,740.1406,812.5723,736.1406" fill="#181818" style="stroke:#181818;stroke-width:1;stroke-linejoin:miter;stroke-miterlimit:10;"/><line x1="810.5723" y1="736.1406" x2="1233.3799" y2="736.1406" style="stroke:#181818;stroke-width:1;"/><text x="830.5723" y="723.3105" fill="#000000" font-size="12" lengthAdjust="spacing" textLength="136.9277" font-family="sans-serif">listForUser(chef, page)</text></g><g class="message" data-entity-1="part4" data-entity-2="part5" id="msg9" data-source-line="32"><polygon points="1087.6992,790.0781,1097.6992,794.0781,1087.6992,798.0781,1091.6992,794.0781" fill="#181818" style="stroke:#181818;stroke-width:1;stroke-linejoin:miter;stroke-miterlimit:10;"/><line x1="805.5723" y1="794.0781" x2="1093.6992" y2="794.0781" style="stroke:#181818;stroke-width:1;"/><text x="820.5723" y="767.2793" fill="#000000" font-size="12" lengthAdjust="spacing" textLength="122.7246" font-family="sans-serif">SELECT notifications</text><text x="820.5723" y="781.248" fill="#000000" font-size="12" lengthAdjust="spacing" textLength="166.7988" font-family="sans-serif">ORDER BY created_at DESC</text></g><g class="message" data-entity-1="part6" data-entity-2="part2" id="msg10" data-source-line="33"><polygon points="193.6426,834.0469,183.6426,838.0469,193.6426,842.0469,189.6426,838.0469" fill="#181818" style="stroke:#181818;stroke-width:1;stroke-linejoin:miter;stroke-miterlimit:10;"/><line x1="187.6426" y1="838.0469" x2="1233.3799" y2="838.0469" style="stroke:#181818;stroke-width:1;stroke-dasharray:2,2;"/><text x="207.6426" y="825.2168" fill="#000000" font-size="12" lengthAdjust="spacing" textLength="135.0352" font-family="sans-serif">liste + badge non lues</text></g><g class="message" data-entity-1="part2" data-entity-2="part6" id="msg11" data-source-line="35"><polygon points="1222.3799,878.0156,1232.3799,882.0156,1222.3799,886.0156,1226.3799,882.0156" fill="#181818" style="stroke:#181818;stroke-width:1;stroke-linejoin:miter;stroke-miterlimit:10;"/><line x1="182.6426" y1="882.0156" x2="1228.3799" y2="882.0156" style="stroke:#181818;stroke-width:1;"/><text x="197.6426" y="869.1855" fill="#000000" font-size="12" lengthAdjust="spacing" textLength="174.8145" font-family="sans-serif">POST /notifications/{id}/read</text></g><g class="message" data-entity-1="part6" data-entity-2="part4" id="msg12" data-source-line="36"><polygon points="816.5723,921.9844,806.5723,925.9844,816.5723,929.9844,812.5723,925.9844" fill="#181818" style="stroke:#181818;stroke-width:1;stroke-linejoin:miter;stroke-miterlimit:10;"/><line x1="810.5723" y1="925.9844" x2="1233.3799" y2="925.9844" style="stroke:#181818;stroke-width:1;"/><text x="830.5723" y="913.1543" fill="#000000" font-size="12" lengthAdjust="spacing" textLength="129.832" font-family="sans-serif">markAsRead(id, chef)</text></g><g class="message" data-entity-1="part4" data-entity-2="part5" id="msg13" data-source-line="37"><polygon points="1087.6992,965.9531,1097.6992,969.9531,1087.6992,973.9531,1091.6992,969.9531" fill="#181818" style="stroke:#181818;stroke-width:1;stroke-linejoin:miter;stroke-miterlimit:10;"/><line x1="805.5723" y1="969.9531" x2="1093.6992" y2="969.9531" style="stroke:#181818;stroke-width:1;"/><text x="820.5723" y="957.123" fill="#000000" font-size="12" lengthAdjust="spacing" textLength="121.793" font-family="sans-serif">UPDATE read = true</text></g><g class="message" data-entity-1="part6" data-entity-2="part2" id="msg14" data-source-line="38"><polygon points="193.6426,1009.9219,183.6426,1013.9219,193.6426,1017.9219,189.6426,1013.9219" fill="#181818" style="stroke:#181818;stroke-width:1;stroke-linejoin:miter;stroke-miterlimit:10;"/><line x1="187.6426" y1="1013.9219" x2="1233.3799" y2="1013.9219" style="stroke:#181818;stroke-width:1;stroke-dasharray:2,2;"/><text x="207.6426" y="1001.0918" fill="#000000" font-size="12" lengthAdjust="spacing" textLength="93.9902" font-family="sans-serif">redirection liste</text></g><rect x="0" y="1049.9063" width="1318.4521" height="3" fill="#EEEEEE" style="stroke:#EEEEEE;stroke-width:1;"/><line x1="0" y1="1049.9063" x2="1318.4521" y2="1049.9063" style="stroke:#000000;stroke-width:1;"/><line x1="0" y1="1052.9063" x2="1318.4521" y2="1052.9063" style="stroke:#000000;stroke-width:1;"/><rect x="566.2788" y="1031.9219" width="185.8945" height="37.9688" fill="#EEEEEE" style="stroke:#000000;stroke-width:2;"/><text x="580.2788" y="1055.0605" fill="#000000" font-size="12" lengthAdjust="spacing" textLength="151.7168" font-weight="700" font-family="sans-serif">Changement de statut</text><g class="message" data-entity-1="part2" data-entity-2="part3" id="msg15" data-source-line="41"><polygon points="462.9883,1111.8594,472.9883,1115.8594,462.9883,1119.8594,466.9883,1115.8594" fill="#181818" style="stroke:#181818;stroke-width:1;stroke-linejoin:miter;stroke-miterlimit:10;"/><line x1="182.6426" y1="1115.8594" x2="468.9883" y2="1115.8594" style="stroke:#181818;stroke-width:1;"/><text x="197.6426" y="1103.0293" fill="#000000" font-size="12" lengthAdjust="spacing" textLength="252.3457" font-family="sans-serif">updateStatus(orderId, PROCESSING, chef)</text></g><g class="message" data-entity-1="part3" data-entity-2="part5" id="msg16" data-source-line="42"><polygon points="1087.6992,1155.8281,1097.6992,1159.8281,1087.6992,1163.8281,1091.6992,1159.8281" fill="#181818" style="stroke:#181818;stroke-width:1;stroke-linejoin:miter;stroke-miterlimit:10;"/><line x1="474.9883" y1="1159.8281" x2="1093.6992" y2="1159.8281" style="stroke:#181818;stroke-width:1;"/><text x="489.9883" y="1146.998" fill="#000000" font-size="12" lengthAdjust="spacing" textLength="154.7871" font-family="sans-serif">UPDATE checkbook_order</text></g><g class="message" data-entity-1="part3" data-entity-2="part4" id="msg17" data-source-line="43"><polygon points="793.5723,1199.7969,803.5723,1203.7969,793.5723,1207.7969,797.5723,1203.7969" fill="#181818" style="stroke:#181818;stroke-width:1;stroke-linejoin:miter;stroke-miterlimit:10;"/><line x1="474.9883" y1="1203.7969" x2="799.5723" y2="1203.7969" style="stroke:#181818;stroke-width:1;"/><text x="489.9883" y="1190.9668" fill="#000000" font-size="12" lengthAdjust="spacing" textLength="290.584" font-family="sans-serif">notifyRequesterAboutStatusChange(order, chef)</text></g><path d="M723.9707,1218.7969 L802.918,1218.7969 L802.918,1240.7656 L792.918,1250.7656 L723.9707,1250.7656 L723.9707,1218.7969" style="stroke:#000000;stroke-width:1.5;" fill="#EEEEEE"/><rect x="723.9707" y="1218.7969" width="431.3369" height="104.875" fill="none" style="stroke:#000000;stroke-width:1.5;"/><text x="746.9707" y="1238.9355" fill="#000000" font-size="12" lengthAdjust="spacing" textLength="17.9473" font-weight="700" font-family="sans-serif">alt</text><text x="825.918" y="1239.9355" fill="#000000" font-size="12" lengthAdjust="spacing" textLength="149.9883" font-weight="700" font-family="sans-serif">[demandeur ≠ acteur]</text><g class="message" data-entity-1="part4" data-entity-2="part5" id="msg18" data-source-line="45"><polygon points="1087.6992,1311.6719,1097.6992,1315.6719,1087.6992,1319.6719,1091.6992,1315.6719" fill="#181818" style="stroke:#181818;stroke-width:1;stroke-linejoin:miter;stroke-miterlimit:10;"/><line x1="805.5723" y1="1315.6719" x2="1093.6992" y2="1315.6719" style="stroke:#181818;stroke-width:1;"/><text x="820.5723" y="1288.873" fill="#000000" font-size="12" lengthAdjust="spacing" textLength="114.6797" font-family="sans-serif">INSERT notification</text><text x="820.5723" y="1302.8418" fill="#000000" font-size="12" lengthAdjust="spacing" textLength="254.127" font-family="sans-serif">(CHECKBOOK_ORDER_STATUS_CHANGED)</text></g><path d="M810,1335.6719 L810,1402.6719 L1180,1402.6719 L1180,1345.6719 L1170,1335.6719 L810,1335.6719" style="stroke:#181818;stroke-width:0.5;" fill="#FEFFDD"/><path d="M1170,1335.6719 L1170,1345.6719 L1180,1345.6719 L1170,1335.6719" style="stroke:#181818;stroke-width:0.5;" fill="#FEFFDD"/><text x="824" y="1359.8105" fill="#000000" font-size="12" lengthAdjust="spacing" textLength="164.0566" font-family="sans-serif">Badge cloche dans la barre</text><text x="824" y="1373.7793" fill="#000000" font-size="12" lengthAdjust="spacing" textLength="233.1445" font-family="sans-serif">« Tout marquer comme lu » disponible</text><text x="824" y="1387.748" fill="#000000" font-size="12" lengthAdjust="spacing" textLength="333.8672" font-family="sans-serif">Alertes dashboard : compteurs PENDING / PROCESSING</text><?plantuml-src dLNDRXCn4BxlKunw8HMbWN91I47QRBO_Qhi9sVI0L2borfEDbOsTsjw67o5nvSu3S4Ky0hVo9dqInjuatOIK0wUiF9zdlldc6yTCXPmppMPW9eohXP0vZ5bXC33hY4OpLzBW9Hh3ScnZeHQXrce1LfTr8CSnAmjxhAHDnKU45qUreB-nEzHZsefCp9cqFSQvu_3o-Uxu9TEva71K3xVL-zMrhRJLuQiWiC8M2Edl7pSboWpX_iitY51QZKGQfB9YB39c1RKP12opIiDUc1C0HancJ6ZS0sQ0kQDLF9hW6FWJTvPLuOnEWla3MO_9fYEbfbtDKQUeRyKQUvFUPflefCQZZlNy79epoqRC8EprbB6vnlJjXKVmqUEP8j9Sgw90NHMskWY2LWiILTuY7KEcPZCcIOTiuWGIgA7L2dolyEpDaYcy9X-GUiQkUseS7Xxk1yim0Vc8G6T96lS7JeeAD5IkSsZqugHpbfpKyQksw9R__E0KDU58bJR1nQPq3PzcFrZVMTLBuuiu6a1fK1k8JkFZONWI9r4CD2KnDa6Xr1pcgjH4YH7_QaW0VoLQ4gzxuLesA6DqtkvspuVTVYVk3wD-70xYpdw0ajV8r6NgddjvINP3o-0J0Gq7YggsqzR_kZiq2xfn4W-WkMb27zdKg126LajVKQSDb-20ikRuk2GR2Q-bvm_jTv1fP1Rva5den6cqBEKx85PL7OIdv7oUkzsGKD3OWstIlMwwpRhvIV3FJKhFT_6VCJqDJP-Y3S4FVBKTvAzw7H8ON19eLG_CDa6Dd1Ooyy9wifNU4oPpd3dJafKD2L_Q3QrNyoddj4QOEe2fR7L6T7hzRXIdALbqHMtBs4jYMyR-bvtxrRwWzfQk2bOigxAhGgnmbFqAaatlltvttgNF_tTfEWW7L-amEWsJavLPdTG8MkGJ2shyyAO0jFsWiq8H7U1C6YWOJLzhfE3TJnWGUpSzwaRxnmB94N3t2xXmVmnYL3XWI0-CHNgAc9cC5DESs19uxZeni5n_QDQ4ThGS3_m3?></g></svg>