<svg xmlns="http://www.w3.org/2000/svg" xmlns:xlink="http://www.w3.org/1999/xlink" version="1.1" data-diagram-type="SEQUENCE" style="width:1344px;height:1047px;background:#FFFFFF;" width="1344px" height="1047px" viewBox="0 0 1344 1047" zoomAndPan="magnify" preserveAspectRatio="none" contentStyleType="text/css"><?plantuml 1.2026.7beta3?><defs/><g><g class="title" data-source-line="4"><text x="527.8276" y="27.9951" fill="#000000" font-size="14" lengthAdjust="spacing" textLength="281.7842" font-weight="700" font-family="sans-serif">Séquence — Centre de notifications</text></g><rect x="734.2217" y="295.2578" width="435.7158" height="61.3984" fill="none" style="stroke:#000000;stroke-width:1.5;"/><rect x="734.2217" y="821.6484" width="435.7158" height="61.3984" fill="none" style="stroke:#000000;stroke-width:1.5;"/><g class="participant-lifeline" data-qualified-name="agent" data-entity-uid="part1" id="part1-lifeline" data-source-line="6"><g><title>Agent bancaire</title><rect x="57.3818" y="118.5938" width="8" height="846.8516" fill="#000000" fill-opacity="0.00000"/><line x1="61" y1="118.5938" x2="61" y2="965.4453" style="stroke:#181818;stroke-width:0.5;stroke-dasharray:5,5;"/></g></g><g class="participant-lifeline" data-qualified-name="chef" data-entity-uid="part2" id="part2-lifeline" data-source-line="7"><g><title>Chef d.agence</title><rect x="177.083" y="118.5938" width="8" height="846.8516" fill="#000000" fill-opacity="0.00000"/><line x1="180.7637" y1="118.5938" x2="180.7637" y2="965.4453" style="stroke:#181818;stroke-width:0.5;stroke-dasharray:5,5;"/></g></g><g class="participant-lifeline" data-qualified-name="chqSvc" data-entity-uid="part3" id="part3-lifeline" data-source-line="8"><g><title>CheckbookOrderService</title><rect x="474.4575" y="118.5938" width="8" height="846.8516" fill="#000000" fill-opacity="0.00000"/><line x1="477.9756" y1="118.5938" x2="477.9756" y2="965.4453" style="stroke:#181818;stroke-width:0.5;stroke-dasharray:5,5;"/></g></g><g class="participant-lifeline" data-qualified-name="notifSvc" data-entity-uid="part4" id="part4-lifeline" data-source-line="9"><g><title>NotificationService</title><rect x="813.2568" y="118.5938" width="8" height="846.8516" fill="#000000" fill-opacity="0.00000"/><line x1="817.2217" y1="118.5938" x2="817.2217" y2="965.4453" style="stroke:#181818;stroke-width:0.5;stroke-dasharray:5,5;"/></g></g><g class="participant-lifeline" data-qualified-name="db" data-entity-uid="part5" id="part5-lifeline" data-source-line="10"><g><title>PostgreSQL</title><rect x="1112.561" y="118.5938" width="8" height="846.8516" fill="#000000" fill-opacity="0.00000"/><line x1="1116.1846" y1="118.5938" x2="1116.1846" y2="965.4453" style="stroke:#181818;stroke-width:0.5;stroke-dasharray:5,5;"/></g></g><g class="participant-lifeline" data-qualified-name="ctrl" data-entity-uid="part6" id="part6-lifeline" data-source-line="11"><g><title>NotificationController</title><rect x="1247.6885" y="118.5938" width="8" height="846.8516" fill="#000000" fill-opacity="0.00000"/><line x1="1250.9375" y1="118.5938" x2="1250.9375" y2="965.4453" style="stroke:#181818;stroke-width:0.5;stroke-dasharray:5,5;"/></g></g><g class="participant participant-head" data-qualified-name="agent" data-entity-uid="part1" id="part1-head" data-source-line="6"><text x="5" y="115.292" fill="#000000" font-size="14" lengthAdjust="spacing" textLength="106.7637" font-family="sans-serif">Agent bancaire</text><ellipse cx="61.3818" cy="50.7969" rx="8" ry="8" fill="#E2E2F0" style="stroke:#181818;stroke-width:0.5;"/><path d="M61.3818,58.7969 L61.3818,85.7969 M48.3818,66.7969 L74.3818,66.7969 M61.3818,85.7969 L48.3818,100.7969 M61.3818,85.7969 L74.3818,100.7969" style="stroke:#181818;stroke-width:0.5;" fill="none"/></g><g class="participant participant-tail" data-qualified-name="agent" data-entity-uid="part1" id="part1-tail" data-source-line="6"><text x="5" y="977.4404" fill="#000000" font-size="14" lengthAdjust="spacing" textLength="106.7637" font-family="sans-serif">Agent bancaire</text><ellipse cx="61.3818" cy="989.2422" rx="8" ry="8" fill="#E2E2F0" style="stroke:#181818;stroke-width:0.5;"/><path d="M61.3818,997.2422 L61.3818,1024.2422 M48.3818,1005.2422 L74.3818,1005.2422 M61.3818,1024.2422 L48.3818,1039.2422 M61.3818,1024.2422 L74.3818,1039.2422" style="stroke:#181818;stroke-width:0.5;" fill="none"/></g><g class="participant participant-head" data-qualified-name="chef" data-entity-uid="part2" id="part2-head" data-source-line="7"><text x="127.7637" y="115.292" fill="#000000" font-size="14" lengthAdjust="spacing" textLength="100.6387" font-family="sans-serif">Chef d'agence</text><ellipse cx="181.083" cy="50.7969" rx="8" ry="8" fill="#E2E2F0" style="stroke:#181818;stroke-width:0.5;"/><path d="M181.083,58.7969 L181.083,85.7969 M168.083,66.7969 L194.083,66.7969 M181.083,85.7969 L168.083,100.7969 M181.083,85.7969 L194.083,100.7969" style="stroke:#181818;stroke-width:0.5;" fill="none"/></g><g class="participant participant-tail" data-qualified-name="chef" data-entity-uid="part2" id="part2-tail" data-source-line="7"><text x="127.7637" y="977.4404" fill="#000000" font-size="14" lengthAdjust="spacing" textLength="100.6387" font-family="sans-serif">Chef d'agence</text><ellipse cx="181.083" cy="989.2422" rx="8" ry="8" fill="#E2E2F0" style="stroke:#181818;stroke-width:0.5;"/><path d="M181.083,997.2422 L181.083,1024.2422 M168.083,1005.2422 L194.083,1005.2422 M181.083,1024.2422 L168.083,1039.2422 M181.083,1024.2422 L194.083,1039.2422" style="stroke:#181818;stroke-width:0.5;" fill="none"/></g><g class="participant participant-head" data-qualified-name="chqSvc" data-entity-uid="part3" id="part3-head" data-source-line="8"><rect x="386.9756" y="87.2969" width="182.9639" height="30.2969" fill="#E2E2F0" style="stroke:#181818;stroke-width:0.5;" rx="2.5" ry="2.5"/><text x="393.9756" y="107.292" fill="#000000" font-size="14" lengthAdjust="spacing" textLength="168.9639" font-family="sans-serif">CheckbookOrderService</text></g><g class="participant participant-tail" data-qualified-name="chqSvc" data-entity-uid="part3" id="part3-tail" data-source-line="8"><rect x="386.9756" y="964.4453" width="182.9639" height="30.2969" fill="#E2E2F0" style="stroke:#181818;stroke-width:0.5;" rx="2.5" ry="2.5"/><text x="393.9756" y="984.4404" fill="#000000" font-size="14" lengthAdjust="spacing" textLength="168.9639" font-family="sans-serif">CheckbookOrderService</text></g><g class="participant participant-head" data-qualified-name="notifSvc" data-entity-uid="part4" id="part4-head" data-source-line="9"><rect x="744.2217" y="87.2969" width="146.0703" height="30.2969" fill="#E2E2F0" style="stroke:#181818;stroke-width:0.5;" rx="2.5" ry="2.5"/><text x="751.2217" y="107.292" fill="#000000" font-size="14" lengthAdjust="spacing" textLength="132.0703" font-family="sans-serif">NotificationService</text></g><g class="participant participant-tail" data-qualified-name="notifSvc" data-entity-uid="part4" id="part4-tail" data-source-line="9"><rect x="744.2217" y="964.4453" width="146.0703" height="30.2969" fill="#E2E2F0" style="stroke:#181818;stroke-width:0.5;" rx="2.5" ry="2.5"/><text x="751.2217" y="984.4404" fill="#000000" font-size="14" lengthAdjust="spacing" textLength="132.0703" font-family="sans-serif">NotificationService</text></g><g class="participant participant-head" data-qualified-name="db" data-entity-uid="part5" id="part5-head" data-source-line="10"><text x="1073.1846" y="115.292" fill="#000000" font-size="14" lengthAdjust="spacing" textLength="80.7529" font-family="sans-serif">PostgreSQL</text><path d="M1098.561,66.2969 C1098.561,56.2969 1116.561,56.2969 1116.561,56.2969 C1116.561,56.2969 1134.561,56.2969 1134.561,66.2969 L1134.561,92.2969 C1134.561,102.2969 1116.561,102.2969 1116.561,102.2969 C1116.561,102.2969 1098.561,102.2969 1098.561,92.2969 L1098.561,66.2969" style="stroke:#181818;stroke-width:0.5;" fill="#E2E2F0"/><path d="M1098.561,66.2969 C1098.561,76.2969 1116.561,76.2969 1116.561,76.2969 C1116.561,76.2969 1134.561,76.2969 1134.561,66.2969" style="stroke:#181818;stroke-width:0.5;" fill="none"/></g><g class="participant participant-tail" data-qualified-name="db" data-entity-uid="part5" id="part5-tail" data-source-line="10"><text x="1073.1846" y="977.4404" fill="#000000" font-size="14" lengthAdjust="spacing" textLength="80.7529" font-family="sans-serif">PostgreSQL</text><path d="M1098.561,990.7422 C1098.561,980.7422 1116.561,980.7422 1116.561,980.7422 C1116.561,980.7422 1134.561,980.7422 1134.561,990.7422 L1134.561,1016.7422 C1134.561,1026.7422 1116.561,1026.7422 1116.561,1026.7422 C1116.561,1026.7422 1098.561,1026.7422 1098.561,1016.7422 L1098.561,990.7422" style="stroke:#181818;stroke-width:0.5;" fill="#E2E2F0"/><path d="M1098.561,990.7422 C1098.561,1000.7422 1116.561,1000.7422 1116.561,1000.7422 C1116.561,1000.7422 1134.561,1000.7422 1134.561,990.7422" style="stroke:#181818;stroke-width:0.5;" fill="none"/></g><g class="participant participant-head" data-qualified-name="ctrl" data-entity-uid="part6" id="part6-head" data-source-line="11"><rect x="1169.9375" y="87.2969" width="163.502" height="30.2969" fill="#E2E2F0" style="stroke:#181818;stroke-width:0.5;" rx="2.5" ry="2.5"/><text x="1176.9375" y="107.292" fill="#000000" font-size="14" lengthAdjust="spacing" textLength="149.502" font-family="sans-serif">NotificationController</text></g><g class="participant participant-tail" data-qualified-name="ctrl" data-entity-uid="part6" id="part6-tail" data-source-line="11"><rect x="1169.9375" y="964.4453" width="163.502" height="30.2969" fill="#E2E2F0" style="stroke:#181818;stroke-width:0.5;" rx="2.5" ry="2.5"/><text x="1176.9375" y="984.4404" fill="#000000" font-size="14" lengthAdjust="spacing" textLength="149.502" font-family="sans-serif">NotificationController</text></g><rect x="0" y="149.1602" width="1338.4395" height="3" fill="#EEEEEE" style="stroke:#EEEEEE;stroke-width:1;"/><line x1="0" y1="149.1602" x2="1338.4395" y2="149.1602" style="stroke:#000000;stroke-width:1;"/><line x1="0" y1="152.1602" x2="1338.4395" y2="152.1602" style="stroke:#000000;stroke-width:1;"/><rect x="551.4373" y="138.5938" width="235.5649" height="23.1328" fill="#EEEEEE" style="stroke:#000000;stroke-width:2;"/><text x="557.4373" y="154.6606" fill="#000000" font-size="13" lengthAdjust="spacing" textLength="217.0391" font-weight="700" font-family="sans-serif">Nouvelle commande chéquier</text><g class="message" data-entity-1="part1" data-entity-2="part3" id="msg1" data-source-line="14"><polygon points="466.4575,188.8594,476.4575,192.8594,466.4575,196.8594,470.4575,192.8594" fill="#181818" style="stroke:#181818;stroke-width:1;stroke-linejoin:miter;stroke-miterlimit:10;"/><line x1="61.3818" y1="192.8594" x2="472.4575" y2="192.8594" style="stroke:#181818;stroke-width:1;"/><text x="68.3818" y="187.7935" fill="#000000" font-size="13" lengthAdjust="spacing" textLength="143.9204" font-family="sans-serif">requestCheckbook(...)</text></g><g class="message" data-entity-1="part3" data-entity-2="part5" id="msg2" data-source-line="15"><polygon points="1104.561,217.9922,1114.561,221.9922,1104.561,225.9922,1108.561,221.9922" fill="#181818" style="stroke:#181818;stroke-width:1;stroke-linejoin:miter;stroke-miterlimit:10;"/><line x1="478.4575" y1="221.9922" x2="1110.561" y2="221.9922" style="stroke:#181818;stroke-width:1;"/><text x="485.4575" y="216.9263" fill="#000000" font-size="13" lengthAdjust="spacing" textLength="235.9678" font-family="sans-serif">INSERT checkbook_order (PENDING)</text></g><g class="message" data-entity-1="part3" data-entity-2="part4" id="msg3" data-source-line="16"><polygon points="805.2568,247.125,815.2568,251.125,805.2568,255.125,809.2568,251.125" fill="#181818" style="stroke:#181818;stroke-width:1;stroke-linejoin:miter;stroke-miterlimit:10;"/><line x1="478.4575" y1="251.125" x2="811.2568" y2="251.125" style="stroke:#181818;stroke-width:1;"/><text x="485.4575" y="246.0591" fill="#000000" font-size="13" lengthAdjust="spacing" textLength="294.5122" font-family="sans-serif">notifyChefsAboutNewCheckbookOrder(order)</text></g><g class="message" data-entity-1="part4" data-entity-2="part5" id="msg4" data-source-line="17"><polygon points="1104.561,276.2578,1114.561,280.2578,1104.561,284.2578,1108.561,280.2578" fill="#181818" style="stroke:#181818;stroke-width:1;stroke-linejoin:miter;stroke-miterlimit:10;"/><line x1="817.2568" y1="280.2578" x2="1110.561" y2="280.2578" style="stroke:#181818;stroke-width:1;"/><text x="824.2568" y="275.1919" fill="#000000" font-size="13" lengthAdjust="spacing" textLength="226.8779" font-family="sans-serif">SELECT users CHEF_AGENCE actifs</text></g><path d="M734.2217,295.2578 L810.8457,295.2578 L810.8457,302.3906 L800.8457,312.3906 L734.2217,312.3906 L734.2217,295.2578" style="stroke:#000000;stroke-width:1.5;" fill="#EEEEEE"/><rect x="734.2217" y="295.2578" width="435.7158" height="61.3984" fill="none" style="stroke:#000000;stroke-width:1.5;"/><text x="749.2217" y="308.3247" fill="#000000" font-size="13" lengthAdjust="spacing" textLength="31.624" font-weight="700" font-family="sans-serif">loop</text><text x="825.8457" y="307.4683" fill="#000000" font-size="11" lengthAdjust="spacing" textLength="117.9385" font-weight="700" font-family="sans-serif">[pour chaque chef]</text><g class="message" data-entity-1="part4" data-entity-2="part5" id="msg5" data-source-line="19"><polygon points="1104.561,344.6563,1114.561,348.6563,1104.561,352.6563,1108.561,348.6563" fill="#181818" style="stroke:#181818;stroke-width:1;stroke-linejoin:miter;stroke-miterlimit:10;"/><line x1="817.2568" y1="348.6563" x2="1110.561" y2="348.6563" style="stroke:#181818;stroke-width:1;"/><text x="824.2568" y="328.4575" fill="#000000" font-size="13" lengthAdjust="spacing" textLength="124.2363" font-family="sans-serif">INSERT notification</text><text x="824.2568" y="343.5903" fill="#000000" font-size="13" lengthAdjust="spacing" textLength="213.624" font-family="sans-serif">(CHECKBOOK_ORDER_CREATED)</text></g><g class="message" data-entity-1="part4" data-entity-2="part3" id="msg6" data-source-line="21"><polygon points="489.4575,380.7891,479.4575,384.7891,489.4575,388.7891,485.4575,384.7891" fill="#181818" style="stroke:#181818;stroke-width:1;stroke-linejoin:miter;stroke-miterlimit:10;"/><line x1="483.4575" y1="384.7891" x2="816.2568" y2="384.7891" style="stroke:#181818;stroke-width:1;stroke-dasharray:2,2;"/><text x="495.4575" y="379.7231" fill="#000000" font-size="13" lengthAdjust="spacing" textLength="18.7573" font-family="sans-serif">OK</text></g><rect x="0" y="413.3555" width="1338.4395" height="3" fill="#EEEEEE" style="stroke:#EEEEEE;stroke-width:1;"/><line x1="0" y1="413.3555" x2="1338.4395" y2="413.3555" style="stroke:#000000;stroke-width:1;"/><line x1="0" y1="416.3555" x2="1338.4395" y2="416.3555" style="stroke:#000000;stroke-width:1;"/><rect x="572.0608" y="402.7891" width="194.3179" height="23.1328" fill="#EEEEEE" style="stroke:#000000;stroke-width:2;"/><text x="578.0608" y="418.856" fill="#000000" font-size="13" lengthAdjust="spacing" textLength="175.792" font-weight="700" font-family="sans-serif">Consultation par le chef</text><g class="message" data-entity-1="part2" data-entity-2="part6" id="msg7" data-source-line="24"><polygon points="1239.6885,453.0547,1249.6885,457.0547,1239.6885,461.0547,1243.6885,457.0547" fill="#181818" style="stroke:#181818;stroke-width:1;stroke-linejoin:miter;stroke-miterlimit:10;"/><line x1="181.083" y1="457.0547" x2="1245.6885" y2="457.0547" style="stroke:#181818;stroke-width:1;"/><text x="188.083" y="451.9888" fill="#000000" font-size="13" lengthAdjust="spacing" textLength="114.6196" font-family="sans-serif">GET /notifications</text></g><g class="message" data-entity-1="part6" data-entity-2="part4" id="msg8" data-source-line="25"><polygon points="828.2568,482.1875,818.2568,486.1875,828.2568,490.1875,824.2568,486.1875" fill="#181818" style="stroke:#181818;stroke-width:1;stroke-linejoin:miter;stroke-miterlimit:10;"/><line x1="822.2568" y1="486.1875" x2="1250.6885" y2="486.1875" style="stroke:#181818;stroke-width:1;"/><text x="834.2568" y="481.1216" fill="#000000" font-size="13" lengthAdjust="spacing" textLength="148.3384" font-family="sans-serif">listForUser(chef, page)</text></g><g class="message" data-entity-1="part4" data-entity-2="part5" id="msg9" data-source-line="26"><polygon points="1104.561,526.4531,1114.561,530.4531,1104.561,534.4531,1108.561,530.4531" fill="#181818" style="stroke:#181818;stroke-width:1;stroke-linejoin:miter;stroke-miterlimit:10;"/><line x1="817.2568" y1="530.4531" x2="1110.561" y2="530.4531" style="stroke:#181818;stroke-width:1;"/><text x="824.2568" y="510.2544" fill="#000000" font-size="13" lengthAdjust="spacing" textLength="132.9517" font-family="sans-serif">SELECT notifications</text><text x="824.2568" y="525.3872" fill="#000000" font-size="13" lengthAdjust="spacing" textLength="180.6987" font-family="sans-serif">ORDER BY created_at DESC</text></g><g class="message" data-entity-1="part6" data-entity-2="part2" id="msg10" data-source-line="27"><polygon points="192.083,555.5859,182.083,559.5859,192.083,563.5859,188.083,559.5859" fill="#181818" style="stroke:#181818;stroke-width:1;stroke-linejoin:miter;stroke-miterlimit:10;"/><line x1="186.083" y1="559.5859" x2="1250.6885" y2="559.5859" style="stroke:#181818;stroke-width:1;stroke-dasharray:2,2;"/><text x="198.083" y="554.52" fill="#000000" font-size="13" lengthAdjust="spacing" textLength="146.2881" font-family="sans-serif">liste + badge non lues</text></g><g class="message" data-entity-1="part2" data-entity-2="part6" id="msg11" data-source-line="29"><polygon points="1239.6885,584.7188,1249.6885,588.7188,1239.6885,592.7188,1243.6885,588.7188" fill="#181818" style="stroke:#181818;stroke-width:1;stroke-linejoin:miter;stroke-miterlimit:10;"/><line x1="181.083" y1="588.7188" x2="1245.6885" y2="588.7188" style="stroke:#181818;stroke-width:1;"/><text x="188.083" y="583.6528" fill="#000000" font-size="13" lengthAdjust="spacing" textLength="189.3823" font-family="sans-serif">POST /notifications/{id}/read</text></g><g class="message" data-entity-1="part6" data-entity-2="part4" id="msg12" data-source-line="30"><polygon points="828.2568,613.8516,818.2568,617.8516,828.2568,621.8516,824.2568,617.8516" fill="#181818" style="stroke:#181818;stroke-width:1;stroke-linejoin:miter;stroke-miterlimit:10;"/><line x1="822.2568" y1="617.8516" x2="1250.6885" y2="617.8516" style="stroke:#181818;stroke-width:1;"/><text x="834.2568" y="612.7856" fill="#000000" font-size="13" lengthAdjust="spacing" textLength="140.6514" font-family="sans-serif">markAsRead(id, chef)</text></g><g class="message" data-entity-1="part4" data-entity-2="part5" id="msg13" data-source-line="31"><polygon points="1104.561,642.9844,1114.561,646.9844,1104.561,650.9844,1108.561,646.9844" fill="#181818" style="stroke:#181818;stroke-width:1;stroke-linejoin:miter;stroke-miterlimit:10;"/><line x1="817.2568" y1="646.9844" x2="1110.561" y2="646.9844" style="stroke:#181818;stroke-width:1;"/><text x="824.2568" y="641.9185" fill="#000000" font-size="13" lengthAdjust="spacing" textLength="131.9424" font-family="sans-serif">UPDATE read = true</text></g><g class="message" data-entity-1="part6" data-entity-2="part2" id="msg14" data-source-line="32"><polygon points="192.083,672.1172,182.083,676.1172,192.083,680.1172,188.083,676.1172" fill="#181818" style="stroke:#181818;stroke-width:1;stroke-linejoin:miter;stroke-miterlimit:10;"/><line x1="186.083" y1="676.1172" x2="1250.6885" y2="676.1172" style="stroke:#181818;stroke-width:1;stroke-dasharray:2,2;"/><text x="198.083" y="671.0513" fill="#000000" font-size="13" lengthAdjust="spacing" textLength="101.8228" font-family="sans-serif">redirection liste</text></g><rect x="0" y="704.6836" width="1338.4395" height="3" fill="#EEEEEE" style="stroke:#EEEEEE;stroke-width:1;"/><line x1="0" y1="704.6836" x2="1338.4395" y2="704.6836" style="stroke:#000000;stroke-width:1;"/><line x1="0" y1="707.6836" x2="1338.4395" y2="707.6836" style="stroke:#000000;stroke-width:1;"/><rect x="577.7769" y="694.1172" width="182.8857" height="23.1328" fill="#EEEEEE" style="stroke:#000000;stroke-width:2;"/><text x="583.7769" y="710.1841" fill="#000000" font-size="13" lengthAdjust="spacing" textLength="164.3599" font-weight="700" font-family="sans-serif">Changement de statut</text><g class="message" data-entity-1="part2" data-entity-2="part3" id="msg15" data-source-line="35"><polygon points="466.4575,744.3828,476.4575,748.3828,466.4575,752.3828,470.4575,748.3828" fill="#181818" style="stroke:#181818;stroke-width:1;stroke-linejoin:miter;stroke-miterlimit:10;"/><line x1="181.083" y1="748.3828" x2="472.4575" y2="748.3828" style="stroke:#181818;stroke-width:1;"/><text x="188.083" y="743.3169" fill="#000000" font-size="13" lengthAdjust="spacing" textLength="273.3745" font-family="sans-serif">updateStatus(orderId, PROCESSING, chef)</text></g><g class="message" data-entity-1="part3" data-entity-2="part5" id="msg16" data-source-line="36"><polygon points="1104.561,773.5156,1114.561,777.5156,1104.561,781.5156,1108.561,777.5156" fill="#181818" style="stroke:#181818;stroke-width:1;stroke-linejoin:miter;stroke-miterlimit:10;"/><line x1="478.4575" y1="777.5156" x2="1110.561" y2="777.5156" style="stroke:#181818;stroke-width:1;"/><text x="485.4575" y="772.4497" fill="#000000" font-size="13" lengthAdjust="spacing" textLength="167.686" font-family="sans-serif">UPDATE checkbook_order</text></g><g class="message" data-entity-1="part3" data-entity-2="part4" id="msg17" data-source-line="37"><polygon points="805.2568,802.6484,815.2568,806.6484,805.2568,810.6484,809.2568,806.6484" fill="#181818" style="stroke:#181818;stroke-width:1;stroke-linejoin:miter;stroke-miterlimit:10;"/><line x1="478.4575" y1="806.6484" x2="811.2568" y2="806.6484" style="stroke:#181818;stroke-width:1;"/><text x="485.4575" y="801.5825" fill="#000000" font-size="13" lengthAdjust="spacing" textLength="314.7993" font-family="sans-serif">notifyRequesterAboutStatusChange(order, chef)</text></g><path d="M734.2217,821.6484 L798.6646,821.6484 L798.6646,828.7813 L788.6646,838.7813 L734.2217,838.7813 L734.2217,821.6484" style="stroke:#000000;stroke-width:1.5;" fill="#EEEEEE"/><rect x="734.2217" y="821.6484" width="435.7158" height="61.3984" fill="none" style="stroke:#000000;stroke-width:1.5;"/><text x="749.2217" y="834.7153" fill="#000000" font-size="13" lengthAdjust="spacing" textLength="19.4429" font-weight="700" font-family="sans-serif">alt</text><text x="813.6646" y="833.8589" fill="#000000" font-size="11" lengthAdjust="spacing" textLength="137.4893" font-weight="700" font-family="sans-serif">[demandeur ≠ acteur]</text><g class="message" data-entity-1="part4" data-entity-2="part5" id="msg18" data-source-line="39"><polygon points="1104.561,871.0469,1114.561,875.0469,1104.561,879.0469,1108.561,875.0469" fill="#181818" style="stroke:#181818;stroke-width:1;stroke-linejoin:miter;stroke-miterlimit:10;"/><line x1="817.2568" y1="875.0469" x2="1110.561" y2="875.0469" style="stroke:#181818;stroke-width:1;"/><text x="824.2568" y="854.8481" fill="#000000" font-size="13" lengthAdjust="spacing" textLength="124.2363" font-family="sans-serif">INSERT notification</text><text x="824.2568" y="869.981" fill="#000000" font-size="13" lengthAdjust="spacing" textLength="275.3042" font-family="sans-serif">(CHECKBOOK_ORDER_STATUS_CHANGED)</text></g><path d="M822,895.0469 L822,950.0469 L1204,950.0469 L1204,905.0469 L1194,895.0469 L822,895.0469" style="stroke:#181818;stroke-width:0.5;" fill="#FEFFDD"/><path d="M1194,895.0469 L1194,905.0469 L1204,905.0469 L1194,895.0469" style="stroke:#181818;stroke-width:0.5;" fill="#FEFFDD"/><text x="828" y="912.1138" fill="#000000" font-size="13" lengthAdjust="spacing" textLength="177.728" font-family="sans-serif">Badge cloche dans la barre</text><text x="828" y="927.2466" fill="#000000" font-size="13" lengthAdjust="spacing" textLength="252.5732" font-family="sans-serif">« Tout marquer comme lu » disponible</text><text x="828" y="942.3794" fill="#000000" font-size="13" lengthAdjust="spacing" textLength="361.6895" font-family="sans-serif">Alertes dashboard : compteurs PENDING / PROCESSING</text><?plantuml-src dLJ1RjD04BtxAqQza8hIt962v3XkMhKu8NOEI9MYjNVYhBBnkhlhHWWXSUNE1t15V0AtyYVz4cRNIKX2ou6JhPstCs_Ul5cp55NDD5k1MJ2krg8gOSwamS3i8XfDhIg3Rz4OLc8VfLg7MgirMDrW45XX9KBww_jTWrM1yFZvAqHOMOt04IfbnLmKp0hA4GIii4h3ILWI079M5KneF05cWBcZRJnQu1pu2tTMjE62JW8YP4KXQaQN7QPOvaejHvgZJb7VYntsBhql3j797ezzhEVdq9nPbZE3S39MnfOQqtSt7i7pvpD5YlfKKg9k2rijWw3NWqGrzqZ7KAZLYbMaGx5m0WdKqEi5lbTuzMR355wJoAIUiRkUEkVdvwV19an0dXFeAadZIUQaQ44pvJg7pZXE1bV9S1-_ROjk-TyFJb4Jvggn2QuFfUluDAV1xiwsNXhVn546ZK5j8BgCBsRXC4wY66XAOcu2gLGDjMeqKMB4lnqIm5-9DiJtlN1RTIXZTDqVZQvdeyaWdioYIHncyU0qm8hlaTcNQNJjvINPJIEjJmGq791jRQUj_xexD0kwCOmpw1wQq4SEDPB2s0kbfzHfnoKuewmbFY_9GSBRolE7_dieD3ABVCOi3E8qsfJo7H2hjWx2It8-BzrkL21fxC4nwV4eFMRT_IZufowbvq_nNp6z3Cs4eXt1ptor9yXFnmCI65mIwBNRUqnG8wU5BBomdcohzu9L9QwSQSdAXeHlx87Ms_aqDQqHfWvWMbjT4PtnP1J5QKeMtL8xClQ6s96n_sNdIRilgBsbsu8joxRijX2JZh9VGRBfuvTlphlq-_ykJRCmcwQpw39CXbkpEgaHj2WN5jJypvi2qFU3BgGYEi1PPK0ochxMIC677v0HUpSzwaRxnmB94V3m4xXmhwx8fGE6zC1OfAU8cKMkcER4bi2rwyJ0PlsXkoUqe-Luu6y0?></g></svg>