<svg xmlns="http://www.w3.org/2000/svg" xmlns:xlink="http://www.w3.org/1999/xlink" version="1.1" data-diagram-type="SEQUENCE" style="width:965px;height:550px;background:#FFFFFF;" width="965px" height="550px" viewBox="0 0 965 550" zoomAndPan="magnify" preserveAspectRatio="none" contentStyleType="text/css"><?plantuml 1.2026.7beta3?><defs/><g><g class="title" data-source-line="4"><text x="278.2588" y="27.9951" fill="#000000" font-size="14" lengthAdjust="spacing" textLength="402.2061" font-weight="700" font-family="sans-serif">Séquence — Opération agence → notification client</text></g><rect x="397.5068" y="222.9922" width="352.9932" height="46.2656" fill="none" style="stroke:#000000;stroke-width:1.5;"/><g class="participant-lifeline" data-qualified-name="agent" data-entity-uid="part1" id="part1-lifeline" data-source-line="6"><g><title>Agent bancaire</title><rect x="57.3818" y="118.5938" width="8" height="349.5938" fill="#000000" fill-opacity="0.00000"/><line x1="61" y1="118.5938" x2="61" y2="468.1875" style="stroke:#181818;stroke-width:0.5;stroke-dasharray:5,5;"/></g></g><g class="participant-lifeline" data-qualified-name="client" data-entity-uid="part2" id="part2-lifeline" data-source-line="7"><g><title>Client bancaire</title><rect x="179.6909" y="118.5938" width="8" height="349.5938" fill="#000000" fill-opacity="0.00000"/><line x1="182.7637" y1="118.5938" x2="182.7637" y2="468.1875" style="stroke:#181818;stroke-width:0.5;stroke-dasharray:5,5;"/></g></g><g class="participant-lifeline" data-qualified-name="txSvc" data-entity-uid="part3" id="part3-lifeline" data-source-line="8"><g><title>TransactionService</title><rect x="319.5625" y="118.5938" width="8" height="349.5938" fill="#000000" fill-opacity="0.00000"/><line x1="322.6182" y1="118.5938" x2="322.6182" y2="468.1875" style="stroke:#181818;stroke-width:0.5;stroke-dasharray:5,5;"/></g></g><g class="participant-lifeline" data-qualified-name="notifSvc" data-entity-uid="part4" id="part4-lifeline" data-source-line="9"><g><title>NotificationService</title><rect x="476.542" y="118.5938" width="8" height="349.5938" fill="#000000" fill-opacity="0.00000"/><line x1="480.5068" y1="118.5938" x2="480.5068" y2="468.1875" style="stroke:#181818;stroke-width:0.5;stroke-dasharray:5,5;"/></g></g><g class="participant-lifeline" data-qualified-name="db" data-entity-uid="part5" id="part5-lifeline" data-source-line="10"><g><title>PostgreSQL</title><rect x="693.1235" y="118.5938" width="8" height="349.5938" fill="#000000" fill-opacity="0.00000"/><line x1="696.7471" y1="118.5938" x2="696.7471" y2="468.1875" style="stroke:#181818;stroke-width:0.5;stroke-dasharray:5,5;"/></g></g><g class="participant-lifeline" data-qualified-name="portal" data-entity-uid="part6" id="part6-lifeline" data-source-line="11"><g><title>PortalNotificationController</title><rect x="848.6118" y="118.5938" width="8" height="349.5938" fill="#000000" fill-opacity="0.00000"/><line x1="852.5" y1="118.5938" x2="852.5" y2="468.1875" style="stroke:#181818;stroke-width:0.5;stroke-dasharray:5,5;"/></g></g><g class="participant participant-head" data-qualified-name="agent" data-entity-uid="part1" id="part1-head" data-source-line="6"><text x="5" y="115.292" fill="#000000" font-size="14" lengthAdjust="spacing" textLength="106.7637" font-family="sans-serif">Agent bancaire</text><ellipse cx="61.3818" cy="50.7969" rx="8" ry="8" fill="#E2E2F0" style="stroke:#181818;stroke-width:0.5;"/><path d="M61.3818,58.7969 L61.3818,85.7969 M48.3818,66.7969 L74.3818,66.7969 M61.3818,85.7969 L48.3818,100.7969 M61.3818,85.7969 L74.3818,100.7969" style="stroke:#181818;stroke-width:0.5;" fill="none"/></g><g class="participant participant-tail" data-qualified-name="agent" data-entity-uid="part1" id="part1-tail" data-source-line="6"><text x="5" y="480.1826" fill="#000000" font-size="14" lengthAdjust="spacing" textLength="106.7637" font-family="sans-serif">Agent bancaire</text><ellipse cx="61.3818" cy="491.9844" rx="8" ry="8" fill="#E2E2F0" style="stroke:#181818;stroke-width:0.5;"/><path d="M61.3818,499.9844 L61.3818,526.9844 M48.3818,507.9844 L74.3818,507.9844 M61.3818,526.9844 L48.3818,541.9844 M61.3818,526.9844 L74.3818,541.9844" style="stroke:#181818;stroke-width:0.5;" fill="none"/></g><g class="participant participant-head" data-qualified-name="client" data-entity-uid="part2" id="part2-head" data-source-line="7"><text x="127.7637" y="115.292" fill="#000000" font-size="14" lengthAdjust="spacing" textLength="105.8545" font-family="sans-serif">Client bancaire</text><ellipse cx="183.6909" cy="50.7969" rx="8" ry="8" fill="#E2E2F0" style="stroke:#181818;stroke-width:0.5;"/><path d="M183.6909,58.7969 L183.6909,85.7969 M170.6909,66.7969 L196.6909,66.7969 M183.6909,85.7969 L170.6909,100.7969 M183.6909,85.7969 L196.6909,100.7969" style="stroke:#181818;stroke-width:0.5;" fill="none"/></g><g class="participant participant-tail" data-qualified-name="client" data-entity-uid="part2" id="part2-tail" data-source-line="7"><text x="127.7637" y="480.1826" fill="#000000" font-size="14" lengthAdjust="spacing" textLength="105.8545" font-family="sans-serif">Client bancaire</text><ellipse cx="183.6909" cy="491.9844" rx="8" ry="8" fill="#E2E2F0" style="stroke:#181818;stroke-width:0.5;"/><path d="M183.6909,499.9844 L183.6909,526.9844 M170.6909,507.9844 L196.6909,507.9844 M183.6909,526.9844 L170.6909,541.9844 M183.6909,526.9844 L196.6909,541.9844" style="stroke:#181818;stroke-width:0.5;" fill="none"/></g><g class="participant participant-head" data-qualified-name="txSvc" data-entity-uid="part3" id="part3-head" data-source-line="8"><rect x="249.6182" y="87.2969" width="147.8887" height="30.2969" fill="#E2E2F0" style="stroke:#181818;stroke-width:0.5;" rx="2.5" ry="2.5"/><text x="256.6182" y="107.292" fill="#000000" font-size="14" lengthAdjust="spacing" textLength="133.8887" font-family="sans-serif">TransactionService</text></g><g class="participant participant-tail" data-qualified-name="txSvc" data-entity-uid="part3" id="part3-tail" data-source-line="8"><rect x="249.6182" y="467.1875" width="147.8887" height="30.2969" fill="#E2E2F0" style="stroke:#181818;stroke-width:0.5;" rx="2.5" ry="2.5"/><text x="256.6182" y="487.1826" fill="#000000" font-size="14" lengthAdjust="spacing" textLength="133.8887" font-family="sans-serif">TransactionService</text></g><g class="participant participant-head" data-qualified-name="notifSvc" data-entity-uid="part4" id="part4-head" data-source-line="9"><rect x="407.5068" y="87.2969" width="146.0703" height="30.2969" fill="#E2E2F0" style="stroke:#181818;stroke-width:0.5;" rx="2.5" ry="2.5"/><text x="414.5068" y="107.292" fill="#000000" font-size="14" lengthAdjust="spacing" textLength="132.0703" font-family="sans-serif">NotificationService</text></g><g class="participant participant-tail" data-qualified-name="notifSvc" data-entity-uid="part4" id="part4-tail" data-source-line="9"><rect x="407.5068" y="467.1875" width="146.0703" height="30.2969" fill="#E2E2F0" style="stroke:#181818;stroke-width:0.5;" rx="2.5" ry="2.5"/><text x="414.5068" y="487.1826" fill="#000000" font-size="14" lengthAdjust="spacing" textLength="132.0703" font-family="sans-serif">NotificationService</text></g><g class="participant participant-head" data-qualified-name="db" data-entity-uid="part5" id="part5-head" data-source-line="10"><text x="653.7471" y="115.292" fill="#000000" font-size="14" lengthAdjust="spacing" textLength="80.7529" font-family="sans-serif">PostgreSQL</text><path d="M679.1235,66.2969 C679.1235,56.2969 697.1235,56.2969 697.1235,56.2969 C697.1235,56.2969 715.1235,56.2969 715.1235,66.2969 L715.1235,92.2969 C715.1235,102.2969 697.1235,102.2969 697.1235,102.2969 C697.1235,102.2969 679.1235,102.2969 679.1235,92.2969 L679.1235,66.2969" style="stroke:#181818;stroke-width:0.5;" fill="#E2E2F0"/><path d="M679.1235,66.2969 C679.1235,76.2969 697.1235,76.2969 697.1235,76.2969 C697.1235,76.2969 715.1235,76.2969 715.1235,66.2969" style="stroke:#181818;stroke-width:0.5;" fill="none"/></g><g class="participant participant-tail" data-qualified-name="db" data-entity-uid="part5" id="part5-tail" data-source-line="10"><text x="653.7471" y="480.1826" fill="#000000" font-size="14" lengthAdjust="spacing" textLength="80.7529" font-family="sans-serif">PostgreSQL</text><path d="M679.1235,493.4844 C679.1235,483.4844 697.1235,483.4844 697.1235,483.4844 C697.1235,483.4844 715.1235,483.4844 715.1235,493.4844 L715.1235,519.4844 C715.1235,529.4844 697.1235,529.4844 697.1235,529.4844 C697.1235,529.4844 679.1235,529.4844 679.1235,519.4844 L679.1235,493.4844" style="stroke:#181818;stroke-width:0.5;" fill="#E2E2F0"/><path d="M679.1235,493.4844 C679.1235,503.4844 697.1235,503.4844 697.1235,503.4844 C697.1235,503.4844 715.1235,503.4844 715.1235,493.4844" style="stroke:#181818;stroke-width:0.5;" fill="none"/></g><g class="participant participant-head" data-qualified-name="portal" data-entity-uid="part6" id="part6-head" data-source-line="11"><rect x="750.5" y="87.2969" width="204.2236" height="30.2969" fill="#E2E2F0" style="stroke:#181818;stroke-width:0.5;" rx="2.5" ry="2.5"/><text x="757.5" y="107.292" fill="#000000" font-size="14" lengthAdjust="spacing" textLength="190.2236" font-family="sans-serif">PortalNotificationController</text></g><g class="participant participant-tail" data-qualified-name="portal" data-entity-uid="part6" id="part6-tail" data-source-line="11"><rect x="750.5" y="467.1875" width="204.2236" height="30.2969" fill="#E2E2F0" style="stroke:#181818;stroke-width:0.5;" rx="2.5" ry="2.5"/><text x="757.5" y="487.1826" fill="#000000" font-size="14" lengthAdjust="spacing" textLength="190.2236" font-family="sans-serif">PortalNotificationController</text></g><g class="message" data-entity-1="part1" data-entity-2="part3" id="msg1" data-source-line="13"><polygon points="311.5625,145.7266,321.5625,149.7266,311.5625,153.7266,315.5625,149.7266" fill="#181818" style="stroke:#181818;stroke-width:1;stroke-linejoin:miter;stroke-miterlimit:10;"/><line x1="61.3818" y1="149.7266" x2="317.5625" y2="149.7266" style="stroke:#181818;stroke-width:1;"/><text x="68.3818" y="144.6606" fill="#000000" font-size="13" lengthAdjust="spacing" textLength="237.3325" font-family="sans-serif">dépôt / virement / facture / chéquier</text></g><g class="message" data-entity-1="part3" data-entity-2="part5" id="msg2" data-source-line="14"><polygon points="685.1235,174.8594,695.1235,178.8594,685.1235,182.8594,689.1235,178.8594" fill="#181818" style="stroke:#181818;stroke-width:1;stroke-linejoin:miter;stroke-miterlimit:10;"/><line x1="323.5625" y1="178.8594" x2="691.1235" y2="178.8594" style="stroke:#181818;stroke-width:1;"/><text x="330.5625" y="173.7935" fill="#000000" font-size="13" lengthAdjust="spacing" textLength="147.5005" font-family="sans-serif">enregistrement métier</text></g><g class="message" data-entity-1="part3" data-entity-2="part4" id="msg3" data-source-line="15"><polygon points="468.542,203.9922,478.542,207.9922,468.542,211.9922,472.542,207.9922" fill="#181818" style="stroke:#181818;stroke-width:1;stroke-linejoin:miter;stroke-miterlimit:10;"/><line x1="323.5625" y1="207.9922" x2="474.542" y2="207.9922" style="stroke:#181818;stroke-width:1;"/><text x="330.5625" y="202.9263" fill="#000000" font-size="13" lengthAdjust="spacing" textLength="125.6392" font-family="sans-serif">notifyClientAbout...</text></g><path d="M397.5068,222.9922 L461.9497,222.9922 L461.9497,230.125 L451.9497,240.125 L397.5068,240.125 L397.5068,222.9922" style="stroke:#000000;stroke-width:1.5;" fill="#EEEEEE"/><rect x="397.5068" y="222.9922" width="352.9932" height="46.2656" fill="none" style="stroke:#000000;stroke-width:1.5;"/><text x="412.5068" y="236.0591" fill="#000000" font-size="13" lengthAdjust="spacing" textLength="19.4429" font-weight="700" font-family="sans-serif">alt</text><text x="476.9497" y="235.2026" fill="#000000" font-size="11" lengthAdjust="spacing" textLength="178.5835" font-weight="700" font-family="sans-serif">[portail activé pour le client]</text><g class="message" data-entity-1="part4" data-entity-2="part5" id="msg4" data-source-line="17"><polygon points="685.1235,257.2578,695.1235,261.2578,685.1235,265.2578,689.1235,261.2578" fill="#181818" style="stroke:#181818;stroke-width:1;stroke-linejoin:miter;stroke-miterlimit:10;"/><line x1="480.542" y1="261.2578" x2="691.1235" y2="261.2578" style="stroke:#181818;stroke-width:1;"/><text x="487.542" y="256.1919" fill="#000000" font-size="13" lengthAdjust="spacing" textLength="192.5815" font-family="sans-serif">INSERT notification (client_id)</text></g><g class="message" data-entity-1="part2" data-entity-2="part6" id="msg5" data-source-line="20"><polygon points="840.6118,293.3906,850.6118,297.3906,840.6118,301.3906,844.6118,297.3906" fill="#181818" style="stroke:#181818;stroke-width:1;stroke-linejoin:miter;stroke-miterlimit:10;"/><line x1="183.6909" y1="297.3906" x2="846.6118" y2="297.3906" style="stroke:#181818;stroke-width:1;"/><text x="190.6909" y="292.3247" fill="#000000" font-size="13" lengthAdjust="spacing" textLength="157.2251" font-family="sans-serif">GET /portal/notifications</text></g><g class="message" data-entity-1="part6" data-entity-2="part4" id="msg6" data-source-line="21"><polygon points="491.542,322.5234,481.542,326.5234,491.542,330.5234,487.542,326.5234" fill="#181818" style="stroke:#181818;stroke-width:1;stroke-linejoin:miter;stroke-miterlimit:10;"/><line x1="485.542" y1="326.5234" x2="851.6118" y2="326.5234" style="stroke:#181818;stroke-width:1;"/><text x="497.542" y="321.4575" fill="#000000" font-size="13" lengthAdjust="spacing" textLength="123.354" font-family="sans-serif">listForClient(client)</text></g><g class="message" data-entity-1="part4" data-entity-2="part5" id="msg7" data-source-line="22"><polygon points="685.1235,351.6563,695.1235,355.6563,685.1235,359.6563,689.1235,355.6563" fill="#181818" style="stroke:#181818;stroke-width:1;stroke-linejoin:miter;stroke-miterlimit:10;"/><line x1="480.542" y1="355.6563" x2="691.1235" y2="355.6563" style="stroke:#181818;stroke-width:1;"/><text x="487.542" y="350.5903" fill="#000000" font-size="13" lengthAdjust="spacing" textLength="172.7896" font-family="sans-serif">SELECT notifications client</text></g><g class="message" data-entity-1="part6" data-entity-2="part2" id="msg8" data-source-line="23"><polygon points="194.6909,380.7891,184.6909,384.7891,194.6909,388.7891,190.6909,384.7891" fill="#181818" style="stroke:#181818;stroke-width:1;stroke-linejoin:miter;stroke-miterlimit:10;"/><line x1="188.6909" y1="384.7891" x2="851.6118" y2="384.7891" style="stroke:#181818;stroke-width:1;stroke-dasharray:2,2;"/><text x="200.6909" y="379.7231" fill="#000000" font-size="13" lengthAdjust="spacing" textLength="146.2881" font-family="sans-serif">liste + badge non lues</text></g><path d="M485,397.7891 L485,452.7891 L683,452.7891 L683,407.7891 L673,397.7891 L485,397.7891" style="stroke:#181818;stroke-width:0.5;" fill="#FEFFDD"/><path d="M673,397.7891 L673,407.7891 L683,407.7891 L673,397.7891" style="stroke:#181818;stroke-width:0.5;" fill="#FEFFDD"/><text x="491" y="414.856" fill="#000000" font-size="13" lengthAdjust="spacing" textLength="141.4194" font-family="sans-serif">Événements notifiés :</text><text x="491" y="429.9888" fill="#000000" font-size="13" lengthAdjust="spacing" textLength="157.3203" font-family="sans-serif">dépôt, retrait, virement,</text><text x="491" y="445.1216" fill="#000000" font-size="13" lengthAdjust="spacing" textLength="177.4233" font-family="sans-serif">paiement facture, chéquier</text><?plantuml-src PLF1ZjCm4BtxAqOziQAqzpqWbQgWbPPb8RqZnvccrhfs64zQk752uehuYTpvW_m9NyB4JhUDkDcUzvxVpBFZa_MD9ds0kDTLE5bVmqwxY2e-LmXZ4tp4znYZhl4Dkd1Q4OKJCBMe55js24NVVMdH6uI_tt_3XwRlIBCD7eIIJd_y0X_Oxgp9vyPPzAoKDXm8PYk1CPJQ6sq9Pw1ZOlAvlaxmAM2K49jiZMsqr6TRqZuAHwuea8xMP2X_BOvcYdouSdCDJIu7TALPbpeYp1v3v9gm-7YV45KvLNeCnDfTwws3PmhE8IL2am3IQshorUji1swXwhkc_yEmXACqTHYgImd0S4ieAxCVfcgHL2O8iog5Xfwmjf57og7lU08wjo3GjFoMfxSgGykBnK9fnzcJTJ3CwjXticy99CXng70HETzwzr1iFcsdARx8yC-skb7eAwNoVk3afeNtRhE5PTujhybHZP2fOoUDlGsKBO_wD-e_DyNcVhEUkhcyY55NiAEVB8lmKbvGLQFGFBWMeng44SZMUuQmkuGFqF-KiVWquV5HsBwBS2kbCRQv_0qcRMLnZcykrKRRdCiOvFmgHvdHe8N_0000?></g></svg>