<svg xmlns="http://www.w3.org/2000/svg" xmlns:xlink="http://www.w3.org/1999/xlink" version="1.1" data-diagram-type="SEQUENCE" style="width:957px;height:798px;background:#FFFFFF;" width="957px" height="798px" viewBox="0 0 957 798" zoomAndPan="magnify" preserveAspectRatio="none" contentStyleType="text/css"><?plantuml 1.2026.7beta3?><defs/><g><g class="title" data-source-line="10"><text x="273.9092" y="35.9951" fill="#000000" font-size="14" lengthAdjust="spacing" textLength="402.2061" font-weight="700" font-family="sans-serif">Séquence — Opération agence → notification client</text></g><rect x="3" y="61.2969" width="941.0244" height="38.2813" fill="#FFFFCC" style="stroke:#FFDD88;stroke-width:3;" rx="2.5" ry="2.5"/><text x="10" y="71.9375" fill="#000000" font-size="10" lengthAdjust="spacing" textLength="361.2305" font-family="monospace">Please use CSS style instead of skinparam ParticipantPadding</text><text x="10" y="93.5781" fill="#000000" font-size="10" lengthAdjust="spacing" textLength="295.0049" font-family="monospace">Please use CSS style instead of skinparam padding</text><rect x="397.998" y="340.4531" width="354.9775" height="90.9063" fill="none" style="stroke:#000000;stroke-width:1.5;"/><g class="participant-lifeline" data-qualified-name="agent" data-entity-uid="part1" id="part1-lifeline" data-source-line="12"><g><title>Agent bancaire</title><rect x="57.7559" y="191.5469" width="8" height="510.5938" fill="#000000" fill-opacity="0.00000"/><line x1="61" y1="191.5469" x2="61" y2="702.1406" style="stroke:#181818;stroke-width:0.5;stroke-dasharray:5,5;"/></g></g><g class="participant-lifeline" data-qualified-name="client" data-entity-uid="part2" id="part2-lifeline" data-source-line="13"><g><title>Client bancaire</title><rect x="180.8779" y="191.5469" width="8" height="510.5938" fill="#000000" fill-opacity="0.00000"/><line x1="184.5117" y1="191.5469" x2="184.5117" y2="702.1406" style="stroke:#181818;stroke-width:0.5;stroke-dasharray:5,5;"/></g></g><g class="participant-lifeline" data-qualified-name="txSvc" data-entity-uid="part3" id="part3-lifeline" data-source-line="14"><g><title>TransactionService</title><rect x="319.625" y="191.5469" width="8" height="510.5938" fill="#000000" fill-opacity="0.00000"/><line x1="323.2441" y1="191.5469" x2="323.2441" y2="702.1406" style="stroke:#181818;stroke-width:0.5;stroke-dasharray:5,5;"/></g></g><g class="participant-lifeline" data-qualified-name="notifSvc" data-entity-uid="part4" id="part4-lifeline" data-source-line="15"><g><title>NotificationService</title><rect x="475.5996" y="191.5469" width="8" height="510.5938" fill="#000000" fill-opacity="0.00000"/><line x1="478.998" y1="191.5469" x2="478.998" y2="702.1406" style="stroke:#181818;stroke-width:0.5;stroke-dasharray:5,5;"/></g></g><g class="participant-lifeline" data-qualified-name="db" data-entity-uid="part5" id="part5-lifeline" data-source-line="16"><g><title>PostgreSQL</title><rect x="693.3672" y="191.5469" width="8" height="510.5938" fill="#000000" fill-opacity="0.00000"/><line x1="696.7588" y1="191.5469" x2="696.7588" y2="702.1406" style="stroke:#181818;stroke-width:0.5;stroke-dasharray:5,5;"/></g></g><g class="participant-lifeline" data-qualified-name="portal" data-entity-uid="part6" id="part6-lifeline" data-source-line="17"><g><title>PortalNotificationController</title><rect x="845.5" y="191.5469" width="8" height="510.5938" fill="#000000" fill-opacity="0.00000"/><line x1="848.9756" y1="191.5469" x2="848.9756" y2="702.1406" style="stroke:#181818;stroke-width:0.5;stroke-dasharray:5,5;"/></g></g><g class="participant participant-head" data-qualified-name="agent" data-entity-uid="part1" id="part1-head" data-source-line="12"><text x="13" y="180.7168" fill="#000000" font-size="12" lengthAdjust="spacing" textLength="91.5117" font-family="sans-serif">Agent bancaire</text><ellipse cx="61.7559" cy="110.0781" rx="8" ry="8" fill="#E2E2F0" style="stroke:#181818;stroke-width:0.5;"/><path d="M61.7559,118.0781 L61.7559,145.0781 M48.7559,126.0781 L74.7559,126.0781 M61.7559,145.0781 L48.7559,160.0781 M61.7559,145.0781 L74.7559,160.0781" style="stroke:#181818;stroke-width:0.5;" fill="none"/></g><g class="participant participant-tail" data-qualified-name="agent" data-entity-uid="part1" id="part1-tail" data-source-line="12"><text x="13" y="720.2793" fill="#000000" font-size="12" lengthAdjust="spacing" textLength="91.5117" font-family="sans-serif">Agent bancaire</text><ellipse cx="61.7559" cy="739.6094" rx="8" ry="8" fill="#E2E2F0" style="stroke:#181818;stroke-width:0.5;"/><path d="M61.7559,747.6094 L61.7559,774.6094 M48.7559,755.6094 L74.7559,755.6094 M61.7559,774.6094 L48.7559,789.6094 M61.7559,774.6094 L74.7559,789.6094" style="stroke:#181818;stroke-width:0.5;" fill="none"/></g><g class="participant participant-head" data-qualified-name="client" data-entity-uid="part2" id="part2-head" data-source-line="13"><text x="136.5117" y="180.7168" fill="#000000" font-size="12" lengthAdjust="spacing" textLength="90.7324" font-family="sans-serif">Client bancaire</text><ellipse cx="184.8779" cy="110.0781" rx="8" ry="8" fill="#E2E2F0" style="stroke:#181818;stroke-width:0.5;"/><path d="M184.8779,118.0781 L184.8779,145.0781 M171.8779,126.0781 L197.8779,126.0781 M184.8779,145.0781 L171.8779,160.0781 M184.8779,145.0781 L197.8779,160.0781" style="stroke:#181818;stroke-width:0.5;" fill="none"/></g><g class="participant participant-tail" data-qualified-name="client" data-entity-uid="part2" id="part2-tail" data-source-line="13"><text x="136.5117" y="720.2793" fill="#000000" font-size="12" lengthAdjust="spacing" textLength="90.7324" font-family="sans-serif">Client bancaire</text><ellipse cx="184.8779" cy="739.6094" rx="8" ry="8" fill="#E2E2F0" style="stroke:#181818;stroke-width:0.5;"/><path d="M184.8779,747.6094 L184.8779,774.6094 M171.8779,755.6094 L197.8779,755.6094 M184.8779,774.6094 L171.8779,789.6094 M184.8779,774.6094 L197.8779,789.6094" style="stroke:#181818;stroke-width:0.5;" fill="none"/></g><g class="participant participant-head" data-qualified-name="txSvc" data-entity-uid="part3" id="part3-head" data-source-line="14"><rect x="251.2441" y="146.5781" width="144.7617" height="43.9688" fill="#E2E2F0" style="stroke:#181818;stroke-width:0.5;" rx="2.5" ry="2.5"/><text x="266.2441" y="172.7168" fill="#000000" font-size="12" lengthAdjust="spacing" textLength="114.7617" font-family="sans-serif">TransactionService</text></g><g class="participant participant-tail" data-qualified-name="txSvc" data-entity-uid="part3" id="part3-tail" data-source-line="14"><rect x="251.2441" y="701.1406" width="144.7617" height="43.9688" fill="#E2E2F0" style="stroke:#181818;stroke-width:0.5;" rx="2.5" ry="2.5"/><text x="266.2441" y="727.2793" fill="#000000" font-size="12" lengthAdjust="spacing" textLength="114.7617" font-family="sans-serif">TransactionService</text></g><g class="participant participant-head" data-qualified-name="notifSvc" data-entity-uid="part4" id="part4-head" data-source-line="15"><rect x="407.998" y="146.5781" width="143.2031" height="43.9688" fill="#E2E2F0" style="stroke:#181818;stroke-width:0.5;" rx="2.5" ry="2.5"/><text x="422.998" y="172.7168" fill="#000000" font-size="12" lengthAdjust="spacing" textLength="113.2031" font-family="sans-serif">NotificationService</text></g><g class="participant participant-tail" data-qualified-name="notifSvc" data-entity-uid="part4" id="part4-tail" data-source-line="15"><rect x="407.998" y="701.1406" width="143.2031" height="43.9688" fill="#E2E2F0" style="stroke:#181818;stroke-width:0.5;" rx="2.5" ry="2.5"/><text x="422.998" y="727.2793" fill="#000000" font-size="12" lengthAdjust="spacing" textLength="113.2031" font-family="sans-serif">NotificationService</text></g><g class="participant participant-head" data-qualified-name="db" data-entity-uid="part5" id="part5-head" data-source-line="16"><text x="659.7588" y="180.7168" fill="#000000" font-size="12" lengthAdjust="spacing" textLength="69.2168" font-family="sans-serif">PostgreSQL</text><path d="M679.3672,125.5781 C679.3672,115.5781 697.3672,115.5781 697.3672,115.5781 C697.3672,115.5781 715.3672,115.5781 715.3672,125.5781 L715.3672,151.5781 C715.3672,161.5781 697.3672,161.5781 697.3672,161.5781 C697.3672,161.5781 679.3672,161.5781 679.3672,151.5781 L679.3672,125.5781" style="stroke:#181818;stroke-width:0.5;" fill="#E2E2F0"/><path d="M679.3672,125.5781 C679.3672,135.5781 697.3672,135.5781 697.3672,135.5781 C697.3672,135.5781 715.3672,135.5781 715.3672,125.5781" style="stroke:#181818;stroke-width:0.5;" fill="none"/></g><g class="participant participant-tail" data-qualified-name="db" data-entity-uid="part5" id="part5-tail" data-source-line="16"><text x="659.7588" y="720.2793" fill="#000000" font-size="12" lengthAdjust="spacing" textLength="69.2168" font-family="sans-serif">PostgreSQL</text><path d="M679.3672,741.1094 C679.3672,731.1094 697.3672,731.1094 697.3672,731.1094 C697.3672,731.1094 715.3672,731.1094 715.3672,741.1094 L715.3672,767.1094 C715.3672,777.1094 697.3672,777.1094 697.3672,777.1094 C697.3672,777.1094 679.3672,777.1094 679.3672,767.1094 L679.3672,741.1094" style="stroke:#181818;stroke-width:0.5;" fill="#E2E2F0"/><path d="M679.3672,741.1094 C679.3672,751.1094 697.3672,751.1094 697.3672,751.1094 C697.3672,751.1094 715.3672,751.1094 715.3672,741.1094" style="stroke:#181818;stroke-width:0.5;" fill="none"/></g><g class="participant participant-head" data-qualified-name="portal" data-entity-uid="part6" id="part6-head" data-source-line="17"><rect x="752.9756" y="146.5781" width="193.0488" height="43.9688" fill="#E2E2F0" style="stroke:#181818;stroke-width:0.5;" rx="2.5" ry="2.5"/><text x="767.9756" y="172.7168" fill="#000000" font-size="12" lengthAdjust="spacing" textLength="163.0488" font-family="sans-serif">PortalNotificationController</text></g><g class="participant participant-tail" data-qualified-name="portal" data-entity-uid="part6" id="part6-tail" data-source-line="17"><rect x="752.9756" y="701.1406" width="193.0488" height="43.9688" fill="#E2E2F0" style="stroke:#181818;stroke-width:0.5;" rx="2.5" ry="2.5"/><text x="767.9756" y="727.2793" fill="#000000" font-size="12" lengthAdjust="spacing" textLength="163.0488" font-family="sans-serif">PortalNotificationController</text></g><g class="message" data-entity-1="part1" data-entity-2="part3" id="msg1" data-source-line="19"><polygon points="311.625,233.5156,321.625,237.5156,311.625,241.5156,315.625,237.5156" fill="#181818" style="stroke:#181818;stroke-width:1;stroke-linejoin:miter;stroke-miterlimit:10;"/><line x1="61.7559" y1="237.5156" x2="317.625" y2="237.5156" style="stroke:#181818;stroke-width:1;"/><text x="76.7559" y="224.6855" fill="#000000" font-size="12" lengthAdjust="spacing" textLength="219.0762" font-family="sans-serif">dépôt / virement / facture / chéquier</text></g><g class="message" data-entity-1="part3" data-entity-2="part5" id="msg2" data-source-line="20"><polygon points="685.3672,277.4844,695.3672,281.4844,685.3672,285.4844,689.3672,281.4844" fill="#181818" style="stroke:#181818;stroke-width:1;stroke-linejoin:miter;stroke-miterlimit:10;"/><line x1="323.625" y1="281.4844" x2="691.3672" y2="281.4844" style="stroke:#181818;stroke-width:1;"/><text x="338.625" y="268.6543" fill="#000000" font-size="12" lengthAdjust="spacing" textLength="136.1543" font-family="sans-serif">enregistrement métier</text></g><g class="message" data-entity-1="part3" data-entity-2="part4" id="msg3" data-source-line="21"><polygon points="467.5996,321.4531,477.5996,325.4531,467.5996,329.4531,471.5996,325.4531" fill="#181818" style="stroke:#181818;stroke-width:1;stroke-linejoin:miter;stroke-miterlimit:10;"/><line x1="323.625" y1="325.4531" x2="473.5996" y2="325.4531" style="stroke:#181818;stroke-width:1;"/><text x="338.625" y="312.623" fill="#000000" font-size="12" lengthAdjust="spacing" textLength="115.9746" font-family="sans-serif">notifyClientAbout...</text></g><path d="M397.998,340.4531 L476.9453,340.4531 L476.9453,362.4219 L466.9453,372.4219 L397.998,372.4219 L397.998,340.4531" style="stroke:#000000;stroke-width:1.5;" fill="#EEEEEE"/><rect x="397.998" y="340.4531" width="354.9775" height="90.9063" fill="none" style="stroke:#000000;stroke-width:1.5;"/><text x="420.998" y="360.5918" fill="#000000" font-size="12" lengthAdjust="spacing" textLength="17.9473" font-weight="700" font-family="sans-serif">alt</text><text x="499.9453" y="361.5918" fill="#000000" font-size="12" lengthAdjust="spacing" textLength="194.8184" font-weight="700" font-family="sans-serif">[portail activé pour le client]</text><g class="message" data-entity-1="part4" data-entity-2="part5" id="msg4" data-source-line="23"><polygon points="685.3672,419.3594,695.3672,423.3594,685.3672,427.3594,689.3672,423.3594" fill="#181818" style="stroke:#181818;stroke-width:1;stroke-linejoin:miter;stroke-miterlimit:10;"/><line x1="479.5996" y1="423.3594" x2="691.3672" y2="423.3594" style="stroke:#181818;stroke-width:1;"/><text x="494.5996" y="410.5293" fill="#000000" font-size="12" lengthAdjust="spacing" textLength="177.7676" font-family="sans-serif">INSERT notification (client_id)</text></g><g class="message" data-entity-1="part2" data-entity-2="part6" id="msg5" data-source-line="26"><polygon points="837.5,470.3281,847.5,474.3281,837.5,478.3281,841.5,474.3281" fill="#181818" style="stroke:#181818;stroke-width:1;stroke-linejoin:miter;stroke-miterlimit:10;"/><line x1="184.8779" y1="474.3281" x2="843.5" y2="474.3281" style="stroke:#181818;stroke-width:1;"/><text x="199.8779" y="461.498" fill="#000000" font-size="12" lengthAdjust="spacing" textLength="145.1309" font-family="sans-serif">GET /portal/notifications</text></g><g class="message" data-entity-1="part6" data-entity-2="part4" id="msg6" data-source-line="27"><polygon points="490.5996,514.2969,480.5996,518.2969,490.5996,522.2969,486.5996,518.2969" fill="#181818" style="stroke:#181818;stroke-width:1;stroke-linejoin:miter;stroke-miterlimit:10;"/><line x1="484.5996" y1="518.2969" x2="848.5" y2="518.2969" style="stroke:#181818;stroke-width:1;"/><text x="504.5996" y="505.4668" fill="#000000" font-size="12" lengthAdjust="spacing" textLength="113.8652" font-family="sans-serif">listForClient(client)</text></g><g class="message" data-entity-1="part4" data-entity-2="part5" id="msg7" data-source-line="28"><polygon points="685.3672,558.2656,695.3672,562.2656,685.3672,566.2656,689.3672,562.2656" fill="#181818" style="stroke:#181818;stroke-width:1;stroke-linejoin:miter;stroke-miterlimit:10;"/><line x1="479.5996" y1="562.2656" x2="691.3672" y2="562.2656" style="stroke:#181818;stroke-width:1;"/><text x="494.5996" y="549.4355" fill="#000000" font-size="12" lengthAdjust="spacing" textLength="159.498" font-family="sans-serif">SELECT notifications client</text></g><g class="message" data-entity-1="part6" data-entity-2="part2" id="msg8" data-source-line="29"><polygon points="195.8779,602.2344,185.8779,606.2344,195.8779,610.2344,191.8779,606.2344" fill="#181818" style="stroke:#181818;stroke-width:1;stroke-linejoin:miter;stroke-miterlimit:10;"/><line x1="189.8779" y1="606.2344" x2="848.5" y2="606.2344" style="stroke:#181818;stroke-width:1;stroke-dasharray:2,2;"/><text x="209.8779" y="593.4043" fill="#000000" font-size="12" lengthAdjust="spacing" textLength="135.0352" font-family="sans-serif">liste + badge non lues</text></g><path d="M484,619.2344 L484,686.2344 L684,686.2344 L684,629.2344 L674,619.2344 L484,619.2344" style="stroke:#181818;stroke-width:0.5;" fill="#FEFFDD"/><path d="M674,619.2344 L674,629.2344 L684,629.2344 L674,619.2344" style="stroke:#181818;stroke-width:0.5;" fill="#FEFFDD"/><text x="498" y="643.373" fill="#000000" font-size="12" lengthAdjust="spacing" textLength="130.541" font-family="sans-serif">Événements notifiés :</text><text x="498" y="657.3418" fill="#000000" font-size="12" lengthAdjust="spacing" textLength="145.2188" font-family="sans-serif">dépôt, retrait, virement,</text><text x="498" y="671.3105" fill="#000000" font-size="12" lengthAdjust="spacing" textLength="163.7754" font-family="sans-serif">paiement facture, chéquier</text><?plantuml-src RLFDRjD04BxlKunoeY9De5nG3vNIA4L8RGauTpIn9ywApQxP7IU54oSahgWluJjlu3VXIHXx7M93Rxlx_VYR7uTFsXReSGTXYvaxQ9l31aqW5VuYdaBXRA0x2W5pkYRZ3ZFltG7ObtrYHXii3Tyuoud-Il3oeWUsYgUX9NhMgIxGyXAphCdmwiNJ-1twN5kuwCFNxk4e-ySsFhvMYZKRWgIkFfTaKuBVtnxXNL5N7bax2r9L-_hz9rZ7UgFJ-9uQJPQLmfITXz5CQ0nhj2bgJoF0q2hvYCzR-f3GMHId4c2qycY3QEGJ2VczJYEL7v9zEcJUzzBqgMtAXfqXune3mMZf0kUUalUtBIDR3vsMpZEQljzSPk6TCUHRGT4IfDQsoFEh60Sk8Qkhelx5C8Mz5BLhqAdiICgb9pcbswQhchoA0b5cQv6HzPJhm9raLrSy81rB46fx_1AxDrkxaYUJYKB3CPCsqFHgNrToBpt88Bkcmida-DMtzydYmseunMUH_b5dPufifbIyDvfOjEZUB5OmZRTfNnnKHnacDbBOZVCnSkT_flvBaonk5_DXcjD6TBx2xV94MuBdia5PJYApO4eAgZ4cy3hVChZDQVW0zGzfYsqxt2s5hgi0bm9rOnlBxyiUjHoEuniBMg2ES-a6EUxDKNhKUD4V?></g></svg>