<svg xmlns="http://www.w3.org/2000/svg" xmlns:xlink="http://www.w3.org/1999/xlink" version="1.1" data-diagram-type="DESCRIPTION" style="width:762px;height:933px;background:#FFFFFF;" width="762px" height="933px" viewBox="0 0 762 933" zoomAndPan="magnify" preserveAspectRatio="none" contentStyleType="text/css"><?plantuml 1.2026.7beta3?><defs/><g><g class="title" data-source-line="5"><text x="252.7469" y="22.9951" fill="#000000" font-size="14" lengthAdjust="spacing" textLength="250.3662" font-weight="700" font-family="sans-serif">Portail client — cas d'utilisation</text></g><!--cluster Accès commun /login--><g class="cluster" data-qualified-name="Acc.s commun .login" id="ent0002" data-source-line="9"><rect x="198.67" y="44.2969" width="200.35" height="170" fill="none" style="stroke:#181818;stroke-width:1;" rx="2.5" ry="2.5"/><text x="215.6687" y="59.292" fill="#000000" font-size="14" lengthAdjust="spacing" textLength="166.3525" font-weight="700" font-family="sans-serif">Accès commun /login</text></g><!--cluster Espace client /portal/**--><g class="cluster" data-qualified-name="Espace client .portal..." id="ent0005" data-source-line="14"><rect x="158.85" y="238.2969" width="590.01" height="352" fill="none" style="stroke:#181818;stroke-width:1;" rx="2.5" ry="2.5"/><text x="363.2002" y="253.292" fill="#000000" font-size="14" lengthAdjust="spacing" textLength="181.3096" font-weight="700" font-family="sans-serif">Espace client /portal/**</text></g><!--entity UC_LOGIN--><g class="entity" data-qualified-name="Acc.s commun .login.UC_LOGIN" id="ent0003" data-source-line="10"><ellipse cx="298.8446" cy="104.2991" rx="84.1746" ry="24.9722" fill="#F1F1F1" style="stroke:#181818;stroke-width:0.5;"/><text x="251.5433" y="99.2396" fill="#000000" font-size="14" lengthAdjust="spacing" textLength="94.6025" font-family="sans-serif">S'authentifier</text><text x="238.6371" y="115.5365" fill="#000000" font-size="14" lengthAdjust="spacing" textLength="120.415" font-family="sans-serif">(CIN ou n° client)</text></g><!--entity UC_LOGOUT--><g class="entity" data-qualified-name="Acc.s commun .login.UC_LOGOUT" id="ent0004" data-source-line="11"><ellipse cx="298.8371" cy="181.2963" rx="71.2971" ry="16.6594" fill="#F1F1F1" style="stroke:#181818;stroke-width:0.5;"/><text x="244.0232" y="185.9447" fill="#000000" font-size="14" lengthAdjust="spacing" textLength="109.6279" font-family="sans-serif">Se déconnecter</text></g><!--entity UC_DASH--><g class="entity" data-qualified-name="Espace client .portal....UC_DASH" id="ent0006" data-source-line="15"><ellipse cx="298.8422" cy="298.2973" rx="110.9522" ry="24.5904" fill="#F1F1F1" style="stroke:#181818;stroke-width:0.5;"/><text x="198.8734" y="302.9458" fill="#000000" font-size="14" lengthAdjust="spacing" textLength="199.9375" font-family="sans-serif">Consulter le tableau de bord</text></g><!--entity UC_ACCOUNTS--><g class="entity" data-qualified-name="Espace client .portal....UC_ACCOUNTS" id="ent0007" data-source-line="16"><ellipse cx="640.3361" cy="353.3001" rx="92.5161" ry="20.9032" fill="#F1F1F1" style="stroke:#181818;stroke-width:0.5;"/><text x="560.6291" y="357.9485" fill="#000000" font-size="14" lengthAdjust="spacing" textLength="159.4141" font-family="sans-serif">Consulter ses comptes</text></g><!--entity UC_HISTORY--><g class="entity" data-qualified-name="Espace client .portal....UC_HISTORY" id="ent0008" data-source-line="17"><ellipse cx="298.839" cy="378.2987" rx="88.109" ry="20.0218" fill="#F1F1F1" style="stroke:#181818;stroke-width:0.5;"/><text x="224.1154" y="382.9471" fill="#000000" font-size="14" lengthAdjust="spacing" textLength="149.4473" font-family="sans-serif">Consulter l'historique</text></g><!--entity UC_RECEIPT--><g class="entity" data-qualified-name="Espace client .portal....UC_RECEIPT" id="ent0009" data-source-line="18"><ellipse cx="640.3443" cy="472.2954" rx="87.8243" ry="25.1685" fill="#F1F1F1" style="stroke:#181818;stroke-width:0.5;"/><text x="577.9869" y="470.0638" fill="#000000" font-size="14" lengthAdjust="spacing" textLength="124.7148" font-family="sans-serif">Consulter un reçu</text><text x="588.5962" y="486.3607" fill="#000000" font-size="14" lengthAdjust="spacing" textLength="103.4961" font-family="sans-serif">(HTML ou PDF)</text></g><!--entity UC_CHQ--><g class="entity" data-qualified-name="Espace client .portal....UC_CHQ" id="ent0010" data-source-line="19"><ellipse cx="298.8372" cy="460.2943" rx="123.9872" ry="27.1974" fill="#F1F1F1" style="stroke:#181818;stroke-width:0.5;"/><text x="184.9163" y="464.9427" fill="#000000" font-size="14" lengthAdjust="spacing" textLength="227.8418" font-family="sans-serif">Suivre ses commandes chéquier</text></g><!--entity UC_NOTIF--><g class="entity" data-qualified-name="Espace client .portal....UC_NOTIF" id="ent0011" data-source-line="20"><ellipse cx="298.8396" cy="548.2928" rx="115.9796" ry="25.5959" fill="#F1F1F1" style="stroke:#181818;stroke-width:0.5;"/><text x="206.2127" y="548.1519" fill="#000000" font-size="14" lengthAdjust="spacing" textLength="185.2539" font-family="sans-serif">Consulter ses notifications</text><text x="243.1131" y="564.4488" fill="#000000" font-size="14" lengthAdjust="spacing" textLength="111.4531" font-family="sans-serif">(cloche en-tête)</text></g><!--entity client--><g class="entity" data-qualified-name="client" id="ent0001" data-source-line="7"><ellipse cx="58.9272" cy="400.6469" rx="8" ry="8" fill="#F1F1F1" style="stroke:#181818;stroke-width:0.5;"/><path d="M58.9272,408.6469 L58.9272,435.6469 M45.9272,416.6469 L71.9272,416.6469 M58.9272,435.6469 L45.9272,450.6469 M58.9272,435.6469 L71.9272,450.6469" style="stroke:#181818;stroke-width:0.5;" fill="none"/><text x="6" y="465.142" fill="#000000" font-size="14" lengthAdjust="spacing" textLength="105.8545" font-family="sans-serif">Client bancaire</text></g><!--link client to UC_LOGIN--><g class="link" data-entity-1="ent0001" data-entity-2="ent0003" id="lnk12" data-source-line="23" data-link-type="dependency"><path d="M61.28,391.9469 C65.53,331.3969 82.65,213.7269 150.85,147.2969 C169.23,129.3869 189.7906,120.0947 214.3206,113.9347" style="stroke:#181818;stroke-width:1;" fill="none" id="client-to-UC_LOGIN"/><polygon points="219.17,112.7169,209.4668,111.0294,214.3206,113.9347,211.4153,118.7884,219.17,112.7169" fill="#181818" style="stroke:#181818;stroke-width:1;stroke-linejoin:miter;stroke-miterlimit:10;"/></g><!--link client to UC_LOGOUT--><g class="link" data-entity-1="ent0001" data-entity-2="ent0004" id="lnk13" data-source-line="24" data-link-type="dependency"><path d="M72.45,391.6969 C86.45,353.5669 112.34,295.5469 150.85,257.2969 C180.61,227.7369 219.5687,208.9498 251.5587,196.7398" style="stroke:#181818;stroke-width:1;" fill="none" id="client-to-UC_LOGOUT"/><polygon points="256.23,194.9569,246.3953,194.4291,251.5587,196.7398,249.248,201.9032,256.23,194.9569" fill="#181818" style="stroke:#181818;stroke-width:1;stroke-linejoin:miter;stroke-miterlimit:10;"/></g><!--link client to UC_DASH--><g class="link" data-entity-1="ent0001" data-entity-2="ent0006" id="lnk14" data-source-line="25" data-link-type="dependency"><path d="M90.58,392.0169 C106.79,374.0269 128.04,353.6369 150.85,340.2969 C170.1,329.0369 187.7363,322.0341 209.2063,315.8341" style="stroke:#181818;stroke-width:1;" fill="none" id="client-to-UC_DASH"/><polygon points="214.01,314.4469,204.2536,313.1008,209.2063,315.8341,206.4731,320.7868,214.01,314.4469" fill="#181818" style="stroke:#181818;stroke-width:1;stroke-linejoin:miter;stroke-miterlimit:10;"/></g><!--link client to UC_ACCOUNTS--><g class="link" data-entity-1="ent0001" data-entity-2="ent0007" id="lnk15" data-source-line="26" data-link-type="dependency"><path d="M69.54,468.8669 C81.46,507.5669 105.94,565.0769 150.85,591.2969 C255.25,652.2269 314.35,644.6069 422.83,591.2969 C504.45,551.1769 484.69,494.7369 547.83,429.2969 C567.76,408.6369 589.0657,391.0539 607.9957,376.5039" style="stroke:#181818;stroke-width:1;" fill="none" id="client-to-UC_ACCOUNTS"/><polygon points="611.96,373.4569,602.3867,375.7701,607.9957,376.5039,607.2619,382.113,611.96,373.4569" fill="#181818" style="stroke:#181818;stroke-width:1;stroke-linejoin:miter;stroke-miterlimit:10;"/></g><!--link client to UC_HISTORY--><g class="link" data-entity-1="ent0001" data-entity-2="ent0008" id="lnk16" data-source-line="27" data-link-type="dependency"><path d="M112.14,418.8769 C148.11,411.0169 191.2454,401.5949 229.4354,393.2449" style="stroke:#181818;stroke-width:1;" fill="none" id="client-to-UC_HISTORY"/><polygon points="234.32,392.1769,224.6733,390.1916,229.4354,393.2449,226.3821,398.0069,234.32,392.1769" fill="#181818" style="stroke:#181818;stroke-width:1;stroke-linejoin:miter;stroke-miterlimit:10;"/></g><!--link client to UC_RECEIPT--><g class="link" data-entity-1="ent0001" data-entity-2="ent0009" id="lnk17" data-source-line="28" data-link-type="dependency"><path d="M61.38,468.5169 C65.65,520.3869 81.82,611.3869 141.85,653.2969 C278.88,748.9269 370.37,731.8969 517.83,653.2969 C580.12,620.0869 614.4423,543.8998 629.4123,502.4298" style="stroke:#181818;stroke-width:1;" fill="none" id="client-to-UC_RECEIPT"/><polygon points="631.11,497.7269,624.2918,504.834,629.4123,502.4298,631.8165,507.5504,631.11,497.7269" fill="#181818" style="stroke:#181818;stroke-width:1;stroke-linejoin:miter;stroke-miterlimit:10;"/></g><!--link client to UC_CHQ--><g class="link" data-entity-1="ent0001" data-entity-2="ent0010" id="lnk18" data-source-line="29" data-link-type="dependency"><path d="M112.14,436.8769 C135.26,439.7869 158.3791,442.7127 185.6391,446.1427" style="stroke:#181818;stroke-width:1;" fill="none" id="client-to-UC_CHQ"/><polygon points="190.6,446.7669,182.1698,441.6746,185.6391,446.1427,181.171,449.612,190.6,446.7669" fill="#181818" style="stroke:#181818;stroke-width:1;stroke-linejoin:miter;stroke-miterlimit:10;"/></g><!--link client to UC_NOTIF--><g class="link" data-entity-1="ent0001" data-entity-2="ent0011" id="lnk19" data-source-line="30" data-link-type="dependency"><path d="M99.48,468.8369 C114.59,481.9069 132.59,495.6169 150.85,505.2969 C170.59,515.7469 188.4041,522.5529 209.8741,528.8829" style="stroke:#181818;stroke-width:1;" fill="none" id="client-to-UC_NOTIF"/><polygon points="214.67,530.2969,207.1686,523.915,209.8741,528.8829,204.9062,531.5884,214.67,530.2969" fill="#181818" style="stroke:#181818;stroke-width:1;stroke-linejoin:miter;stroke-miterlimit:10;"/></g><!--link UC_DASH to UC_ACCOUNTS--><g class="link" data-entity-1="ent0006" data-entity-2="ent0007" id="lnk20" data-source-line="32" data-link-type="dependency"><path d="M389.49,312.8169 C443.9,321.6269 507.6343,331.9579 559.2143,340.3079" style="stroke:#181818;stroke-width:1;stroke-dasharray:7,7;" fill="none" id="UC_DASH-to-UC_ACCOUNTS"/><polygon points="564.15,341.1069,555.9049,335.72,559.2143,340.3079,554.6264,343.6172,564.15,341.1069" fill="#181818" style="stroke:#181818;stroke-width:1;stroke-linejoin:miter;stroke-miterlimit:10;"/><text x="453.83" y="320.3638" fill="#000000" font-size="13" lengthAdjust="spacing" textLength="63.0068" font-family="sans-serif">«include»</text></g><!--link UC_HISTORY to UC_RECEIPT--><g class="link" data-entity-1="ent0008" data-entity-2="ent0009" id="lnk21" data-source-line="33" data-link-type="dependency"><path d="M355.9,393.8169 C416.45,410.5769 507.9012,435.9031 571.1612,453.4131" style="stroke:#181818;stroke-width:1;stroke-dasharray:7,7;" fill="none" id="UC_HISTORY-to-UC_RECEIPT"/><polygon points="575.98,454.7469,568.3732,448.491,571.1612,453.4131,566.2391,456.201,575.98,454.7469" fill="#181818" style="stroke:#181818;stroke-width:1;stroke-linejoin:miter;stroke-miterlimit:10;"/><text x="454.83" y="419.3638" fill="#000000" font-size="13" lengthAdjust="spacing" textLength="61.1851" font-family="sans-serif">«extend»</text></g><g class="legend" data-source-line="35"><rect x="93.0701" y="769.9269" width="569.7197" height="144.375" fill="#DDDDDD" style="stroke:#000000;stroke-width:1;" rx="7.5" ry="7.5"/><text x="102.9442" y="789.922" fill="#000000" font-size="14" lengthAdjust="spacing" textLength="55.1865" font-weight="700" font-family="sans-serif">Détails</text><text x="218.5604" y="789.922" fill="#000000" font-size="14" lengthAdjust="spacing" textLength="4.874" font-weight="700" font-family="sans-serif"> </text><text x="102.5203" y="806.2189" fill="#000000" font-size="14" lengthAdjust="spacing" textLength="62.6787" font-family="sans-serif">Interface</text><text x="223.0106" y="806.2189" fill="#000000" font-size="14" lengthAdjust="spacing" textLength="430.3291" font-family="sans-serif">Même shell que le personnel : sidebar icônes, en-tête, cloche</text><text x="102.5203" y="822.5157" fill="#000000" font-size="14" lengthAdjust="spacing" textLength="54.3457" font-family="sans-serif">Couleur</text><text x="223.0106" y="822.5157" fill="#000000" font-size="14" lengthAdjust="spacing" textLength="308.6494" font-family="sans-serif">Thème teal (espace client) vs bleu (agence)</text><text x="102.5203" y="838.8126" fill="#000000" font-size="14" lengthAdjust="spacing" textLength="111.5898" font-family="sans-serif">Authentification</text><text x="223.0106" y="838.8126" fill="#000000" font-size="14" lengthAdjust="spacing" textLength="371.6631" font-family="sans-serif">Page /login partagée → redirection /portal/dashboard</text><text x="102.5203" y="855.1095" fill="#000000" font-size="14" lengthAdjust="spacing" textLength="68.8105" font-family="sans-serif">Périmètre</text><text x="223.0106" y="855.1095" fill="#000000" font-size="14" lengthAdjust="spacing" textLength="286.2549" font-family="sans-serif">Consultation et notifications uniquement</text><text x="102.5203" y="871.4064" fill="#000000" font-size="14" lengthAdjust="spacing" textLength="34.9111" font-family="sans-serif">Reçu</text><text x="223.0106" y="871.4064" fill="#000000" font-size="14" lengthAdjust="spacing" textLength="405.4395" font-family="sans-serif">Page HTML + téléchargement PDF (`reçu-TYPE-date.pdf`)</text><text x="102.5203" y="887.7032" fill="#000000" font-size="14" lengthAdjust="spacing" textLength="76.9658" font-family="sans-serif">Opérations</text><text x="223.0106" y="887.7032" fill="#000000" font-size="14" lengthAdjust="spacing" textLength="206.3975" font-family="sans-serif">Saisies par l'agent en agence</text><text x="102.5203" y="904.0001" fill="#000000" font-size="14" lengthAdjust="spacing" textLength="87.623" font-family="sans-serif">Notifications</text><text x="223.0106" y="904.0001" fill="#000000" font-size="14" lengthAdjust="spacing" textLength="295.8047" font-family="sans-serif">Dépôt, retrait, virement, facture, chéquier</text><line x1="98.0701" y1="776.9269" x2="657.7899" y2="776.9269" style="stroke:#000000;stroke-width:1;"/><line x1="98.0701" y1="793.2238" x2="657.7899" y2="793.2238" style="stroke:#000000;stroke-width:1;"/><line x1="98.0701" y1="809.5206" x2="657.7899" y2="809.5206" style="stroke:#000000;stroke-width:1;"/><line x1="98.0701" y1="825.8175" x2="657.7899" y2="825.8175" style="stroke:#000000;stroke-width:1;"/><line x1="98.0701" y1="842.1144" x2="657.7899" y2="842.1144" style="stroke:#000000;stroke-width:1;"/><line x1="98.0701" y1="858.4113" x2="657.7899" y2="858.4113" style="stroke:#000000;stroke-width:1;"/><line x1="98.0701" y1="874.7081" x2="657.7899" y2="874.7081" style="stroke:#000000;stroke-width:1;"/><line x1="98.0701" y1="891.005" x2="657.7899" y2="891.005" style="stroke:#000000;stroke-width:1;"/><line x1="98.0701" y1="907.3019" x2="657.7899" y2="907.3019" style="stroke:#000000;stroke-width:1;"/><line x1="98.0701" y1="776.9269" x2="98.0701" y2="907.3019" style="stroke:#000000;stroke-width:1;"/><line x1="218.5604" y1="776.9269" x2="218.5604" y2="907.3019" style="stroke:#000000;stroke-width:1;"/><line x1="657.7899" y1="776.9269" x2="657.7899" y2="907.3019" style="stroke:#000000;stroke-width:1;"/></g><?plantuml-src TLJDJjj04BxxAKQv46W2zueYHIQKI92an1oGAfMDFR5NhDTcVsYhfb9FVO2gxr32gGUUe7uJdgIp_WEtS5kDPxwPxvjlB71bm6IWU9mOYBZ2qF1CUlgAovmfbe9EM9Hzv3A65HCQdtp9MNZ5OboOpmB15J8P2_Gymmq5vfaoZ0i81KTfuE7RJmYPXcZB6YwuPcKRZuKcKz3pgwGbao6Z6Nf0cLMXvxN8q1k5ON5BNx8qjHBsH1PpsOCl7e3LIEYKijXYrYHKo5SSrNlPzoTJo2p8FxzhnEqI_Tp_S39xEvbsQX6YOXDcKb9BL4_oPkU1zxKpobWJVMpOxUMEhTZRsVbd73-JsWe20oeoR2cGMOWGbfcA6lp3qUBu-HgD9TdSe6wIHxu_Evy6YnUQR2LSawBysc9JSJnP1BEpY-SBI4Q5nIzBGXq7foTEgVdXKIlHsTWVJ-P1HoJBRnGsewLCHkwL59jhonyryu_VlKn9PcuxOMa1JPr3aOK90igXAUuCjjsdis1ov7IlLHuE3nxtzb_CxQWRB8NjXbhvkk56eswqOT-DEchTI3MdLtU4tTrEAtWD-_jSXi96U73WFNPh4kisPHv-CYWZIlC4nlGYenYJfQJb-WqS5XjtKjgzrou44qcQhfmHrt1QtAMqbmI505g_CroEIZit2yBMFC8bKy33ubwY7hHo3w3MluBqColGAde5IN5BY0QPW3u-zVist6WWBrleqmz0XhXT5u_QswksIw4vPTIdIdyCkfAus20yVFz1ncl_D-q1HKmdouofg0QS5nl5q-BMA2ndAsrKGQFf6ecyx6oVkiLKnMVEsSq8fRrVWIasWcuyOIgkKidkqByiZs0ONCp7muWPtCsZrML3QfRJ47MFDImOrvnCJ5pet1nzGr92fKDTCUtCjNQBoujxCo3AHZ5EZnjYxjeFwAyQ6glS5feR8X3QVBN_lm00?></g></svg>