<svg xmlns="http://www.w3.org/2000/svg" xmlns:xlink="http://www.w3.org/1999/xlink" version="1.1" data-diagram-type="ACTIVITY" style="width:946px;height:718px;background:#FFFFFF;" width="946px" height="718px" viewBox="0 0 946 718" zoomAndPan="magnify" preserveAspectRatio="none" contentStyleType="text/css"><?plantuml 1.2026.7beta3?><defs/><g><g class="title" data-source-line="3"><text x="343.5181" y="32.9951" fill="#000000" font-size="14" lengthAdjust="spacing" textLength="257.8311" font-weight="700" font-family="sans-serif">Activité — Effectuer un virement</text></g><ellipse cx="612.1473" cy="62.2969" rx="10" ry="10" fill="#222222" style="stroke:#222222;stroke-width:1;"/><rect x="508.5936" y="92.2969" width="207.1074" height="47.9375" fill="#F1F1F1" style="stroke:#181818;stroke-width:0.5;" rx="12.5" ry="12.5"/><text x="518.5936" y="113.4355" fill="#000000" font-size="12" lengthAdjust="spacing" textLength="167.4551" font-family="sans-serif">Agent saisit compte source,</text><text x="518.5936" y="127.4043" fill="#000000" font-size="12" lengthAdjust="spacing" textLength="187.1074" font-family="sans-serif">compte destination et montant</text><rect x="486.076" y="160.2344" width="252.1426" height="33.9688" fill="#F1F1F1" style="stroke:#181818;stroke-width:0.5;" rx="12.5" ry="12.5"/><text x="496.076" y="181.373" fill="#000000" font-size="12" lengthAdjust="spacing" textLength="232.1426" font-family="sans-serif">Vérifier que les deux comptes existent</text><polygon points="560.4989,214.2031,663.7958,214.2031,675.7958,226.2031,663.7958,238.2031,560.4989,238.2031,548.4989,226.2031,560.4989,214.2031" fill="#F1F1F1" style="stroke:#181818;stroke-width:0.5;stroke-linejoin:miter;stroke-miterlimit:10;"/><text x="560.4989" y="230.0112" fill="#000000" font-size="11" lengthAdjust="spacing" textLength="103.2969" font-family="sans-serif">Comptes trouvés ?</text><text x="531.7411" y="223.6089" fill="#000000" font-size="11" lengthAdjust="spacing" textLength="16.7578" font-family="sans-serif">oui</text><text x="675.7958" y="223.6089" fill="#000000" font-size="11" lengthAdjust="spacing" textLength="20.6733" font-family="sans-serif">non</text><polygon points="309.1047,248.2031,488.9612,248.2031,500.9612,260.2031,488.9612,272.2031,309.1047,272.2031,297.1047,260.2031,309.1047,248.2031" fill="#F1F1F1" style="stroke:#181818;stroke-width:0.5;stroke-linejoin:miter;stroke-miterlimit:10;"/><text x="309.1047" y="264.0112" fill="#000000" font-size="11" lengthAdjust="spacing" textLength="179.8564" font-family="sans-serif">Les deux comptes sont ACTIVE ?</text><text x="280.3469" y="257.6089" fill="#000000" font-size="11" lengthAdjust="spacing" textLength="16.7578" font-family="sans-serif">oui</text><text x="500.9612" y="257.6089" fill="#000000" font-size="11" lengthAdjust="spacing" textLength="20.6733" font-family="sans-serif">non</text><polygon points="148.394,282.2031,300.6968,282.2031,312.6968,294.2031,300.6968,306.2031,148.394,306.2031,136.394,294.2031,148.394,282.2031" fill="#F1F1F1" style="stroke:#181818;stroke-width:0.5;stroke-linejoin:miter;stroke-miterlimit:10;"/><text x="148.394" y="298.0112" fill="#000000" font-size="11" lengthAdjust="spacing" textLength="152.3027" font-family="sans-serif">Solde source >= montant ?</text><text x="119.6362" y="291.6089" fill="#000000" font-size="11" lengthAdjust="spacing" textLength="16.7578" font-family="sans-serif">oui</text><text x="312.6968" y="291.6089" fill="#000000" font-size="11" lengthAdjust="spacing" textLength="20.6733" font-family="sans-serif">non</text><rect x="31.5977" y="316.2031" width="172.2031" height="33.9688" fill="#F1F1F1" style="stroke:#181818;stroke-width:0.5;" rx="12.5" ry="12.5"/><text x="41.5977" y="337.3418" fill="#000000" font-size="12" lengthAdjust="spacing" textLength="152.2031" font-family="sans-serif">Débiter le compte source</text><rect x="16" y="370.1719" width="203.3984" height="33.9688" fill="#F1F1F1" style="stroke:#181818;stroke-width:0.5;" rx="12.5" ry="12.5"/><text x="26" y="391.3105" fill="#000000" font-size="12" lengthAdjust="spacing" textLength="183.3984" font-family="sans-serif">Créditer le compte destination</text><rect x="31.3164" y="424.1406" width="172.7656" height="33.9688" fill="#F1F1F1" style="stroke:#181818;stroke-width:0.5;" rx="12.5" ry="12.5"/><text x="41.3164" y="445.2793" fill="#000000" font-size="12" lengthAdjust="spacing" textLength="152.7656" font-family="sans-serif">Enregistrer la transaction</text><rect x="39.0391" y="478.1094" width="157.3203" height="33.9688" fill="#F1F1F1" style="stroke:#181818;stroke-width:0.5;" rx="12.5" ry="12.5"/><text x="49.0391" y="499.248" fill="#000000" font-size="12" lengthAdjust="spacing" textLength="137.3203" font-family="sans-serif">Journaliser dans l'audit</text><rect x="44.5029" y="532.0781" width="146.3926" height="33.9688" fill="#F1F1F1" style="stroke:#181818;stroke-width:0.5;" rx="12.5" ry="12.5"/><text x="54.5029" y="553.2168" fill="#000000" font-size="12" lengthAdjust="spacing" textLength="126.3926" font-family="sans-serif">Afficher confirmation</text><rect x="239.3984" y="316.2031" width="183.9863" height="33.9688" fill="#F1F1F1" style="stroke:#181818;stroke-width:0.5;" rx="12.5" ry="12.5"/><text x="249.3984" y="337.3418" fill="#000000" font-size="12" lengthAdjust="spacing" textLength="163.9863" font-family="sans-serif">Refuser — solde insuffisant</text><polygon points="224.5454,572.0469,236.5454,584.0469,224.5454,596.0469,212.5454,584.0469,224.5454,572.0469" fill="#F1F1F1" style="stroke:#181818;stroke-width:0.5;stroke-linejoin:miter;stroke-miterlimit:10;"/><rect x="453.3848" y="282.2031" width="240.2715" height="33.9688" fill="#F1F1F1" style="stroke:#181818;stroke-width:0.5;" rx="12.5" ry="12.5"/><text x="463.3848" y="303.3418" fill="#000000" font-size="12" lengthAdjust="spacing" textLength="220.2715" font-family="sans-serif">Refuser — compte bloqué ou clôturé</text><polygon points="399.033,602.0469,411.033,614.0469,399.033,626.0469,387.033,614.0469,399.033,602.0469" fill="#F1F1F1" style="stroke:#181818;stroke-width:0.5;stroke-linejoin:miter;stroke-miterlimit:10;"/><rect x="723.6563" y="248.2031" width="203.2109" height="33.9688" fill="#F1F1F1" style="stroke:#181818;stroke-width:0.5;" rx="12.5" ry="12.5"/><text x="733.6563" y="269.3418" fill="#000000" font-size="12" lengthAdjust="spacing" textLength="183.2109" font-family="sans-serif">Refuser — compte introuvable</text><polygon points="612.1473,632.0469,624.1473,644.0469,612.1473,656.0469,600.1473,644.0469,612.1473,632.0469" fill="#F1F1F1" style="stroke:#181818;stroke-width:0.5;stroke-linejoin:miter;stroke-miterlimit:10;"/><ellipse cx="612.1473" cy="687.0469" rx="11" ry="11" fill="none" style="stroke:#222222;stroke-width:1;"/><ellipse cx="612.1473" cy="687.0469" rx="6" ry="6" fill="#222222" style="stroke:#222222;stroke-width:1;"/><line x1="612.1473" y1="72.2969" x2="612.1473" y2="92.2969" style="stroke:#181818;stroke-width:1;"/><polygon points="608.1473,82.2969,612.1473,92.2969,616.1473,82.2969,612.1473,86.2969" fill="#181818" style="stroke:#181818;stroke-width:1;stroke-linejoin:miter;stroke-miterlimit:10;"/><line x1="612.1473" y1="140.2344" x2="612.1473" y2="160.2344" style="stroke:#181818;stroke-width:1;"/><polygon points="608.1473,150.2344,612.1473,160.2344,616.1473,150.2344,612.1473,154.2344" fill="#181818" style="stroke:#181818;stroke-width:1;stroke-linejoin:miter;stroke-miterlimit:10;"/><line x1="117.6992" y1="350.1719" x2="117.6992" y2="370.1719" style="stroke:#181818;stroke-width:1;"/><polygon points="113.6992,360.1719,117.6992,370.1719,121.6992,360.1719,117.6992,364.1719" fill="#181818" style="stroke:#181818;stroke-width:1;stroke-linejoin:miter;stroke-miterlimit:10;"/><line x1="117.6992" y1="404.1406" x2="117.6992" y2="424.1406" style="stroke:#181818;stroke-width:1;"/><polygon points="113.6992,414.1406,117.6992,424.1406,121.6992,414.1406,117.6992,418.1406" fill="#181818" style="stroke:#181818;stroke-width:1;stroke-linejoin:miter;stroke-miterlimit:10;"/><line x1="117.6992" y1="458.1094" x2="117.6992" y2="478.1094" style="stroke:#181818;stroke-width:1;"/><polygon points="113.6992,468.1094,117.6992,478.1094,121.6992,468.1094,117.6992,472.1094" fill="#181818" style="stroke:#181818;stroke-width:1;stroke-linejoin:miter;stroke-miterlimit:10;"/><line x1="117.6992" y1="512.0781" x2="117.6992" y2="532.0781" style="stroke:#181818;stroke-width:1;"/><polygon points="113.6992,522.0781,117.6992,532.0781,121.6992,522.0781,117.6992,526.0781" fill="#181818" style="stroke:#181818;stroke-width:1;stroke-linejoin:miter;stroke-miterlimit:10;"/><line x1="136.394" y1="294.2031" x2="117.6992" y2="294.2031" style="stroke:#181818;stroke-width:1;"/><line x1="117.6992" y1="294.2031" x2="117.6992" y2="316.2031" style="stroke:#181818;stroke-width:1;"/><polygon points="113.6992,306.2031,117.6992,316.2031,121.6992,306.2031,117.6992,310.2031" fill="#181818" style="stroke:#181818;stroke-width:1;stroke-linejoin:miter;stroke-miterlimit:10;"/><line x1="312.6968" y1="294.2031" x2="331.3916" y2="294.2031" style="stroke:#181818;stroke-width:1;"/><line x1="331.3916" y1="294.2031" x2="331.3916" y2="316.2031" style="stroke:#181818;stroke-width:1;"/><polygon points="327.3916,306.2031,331.3916,316.2031,335.3916,306.2031,331.3916,310.2031" fill="#181818" style="stroke:#181818;stroke-width:1;stroke-linejoin:miter;stroke-miterlimit:10;"/><line x1="117.6992" y1="566.0469" x2="117.6992" y2="584.0469" style="stroke:#181818;stroke-width:1;"/><line x1="117.6992" y1="584.0469" x2="212.5454" y2="584.0469" style="stroke:#181818;stroke-width:1;"/><polygon points="202.5454,580.0469,212.5454,584.0469,202.5454,588.0469,206.5454,584.0469" fill="#181818" style="stroke:#181818;stroke-width:1;stroke-linejoin:miter;stroke-miterlimit:10;"/><line x1="331.3916" y1="350.1719" x2="331.3916" y2="584.0469" style="stroke:#181818;stroke-width:1;"/><line x1="331.3916" y1="584.0469" x2="236.5454" y2="584.0469" style="stroke:#181818;stroke-width:1;"/><polygon points="246.5454,580.0469,236.5454,584.0469,246.5454,588.0469,242.5454,584.0469" fill="#181818" style="stroke:#181818;stroke-width:1;stroke-linejoin:miter;stroke-miterlimit:10;"/><line x1="297.1047" y1="260.2031" x2="224.5454" y2="260.2031" style="stroke:#181818;stroke-width:1;"/><line x1="224.5454" y1="260.2031" x2="224.5454" y2="282.2031" style="stroke:#181818;stroke-width:1;"/><polygon points="220.5454,272.2031,224.5454,282.2031,228.5454,272.2031,224.5454,276.2031" fill="#181818" style="stroke:#181818;stroke-width:1;stroke-linejoin:miter;stroke-miterlimit:10;"/><line x1="500.9612" y1="260.2031" x2="573.5205" y2="260.2031" style="stroke:#181818;stroke-width:1;"/><line x1="573.5205" y1="260.2031" x2="573.5205" y2="282.2031" style="stroke:#181818;stroke-width:1;"/><polygon points="569.5205,272.2031,573.5205,282.2031,577.5205,272.2031,573.5205,276.2031" fill="#181818" style="stroke:#181818;stroke-width:1;stroke-linejoin:miter;stroke-miterlimit:10;"/><line x1="224.5454" y1="596.0469" x2="224.5454" y2="614.0469" style="stroke:#181818;stroke-width:1;"/><line x1="224.5454" y1="614.0469" x2="387.033" y2="614.0469" style="stroke:#181818;stroke-width:1;"/><polygon points="377.033,610.0469,387.033,614.0469,377.033,618.0469,381.033,614.0469" fill="#181818" style="stroke:#181818;stroke-width:1;stroke-linejoin:miter;stroke-miterlimit:10;"/><line x1="573.5205" y1="316.1719" x2="573.5205" y2="614.0469" style="stroke:#181818;stroke-width:1;"/><line x1="573.5205" y1="614.0469" x2="411.033" y2="614.0469" style="stroke:#181818;stroke-width:1;"/><polygon points="421.033,610.0469,411.033,614.0469,421.033,618.0469,417.033,614.0469" fill="#181818" style="stroke:#181818;stroke-width:1;stroke-linejoin:miter;stroke-miterlimit:10;"/><line x1="548.4989" y1="226.2031" x2="399.033" y2="226.2031" style="stroke:#181818;stroke-width:1;"/><line x1="399.033" y1="226.2031" x2="399.033" y2="248.2031" style="stroke:#181818;stroke-width:1;"/><polygon points="395.033,238.2031,399.033,248.2031,403.033,238.2031,399.033,242.2031" fill="#181818" style="stroke:#181818;stroke-width:1;stroke-linejoin:miter;stroke-miterlimit:10;"/><line x1="675.7958" y1="226.2031" x2="825.2617" y2="226.2031" style="stroke:#181818;stroke-width:1;"/><line x1="825.2617" y1="226.2031" x2="825.2617" y2="248.2031" style="stroke:#181818;stroke-width:1;"/><polygon points="821.2617,238.2031,825.2617,248.2031,829.2617,238.2031,825.2617,242.2031" fill="#181818" style="stroke:#181818;stroke-width:1;stroke-linejoin:miter;stroke-miterlimit:10;"/><line x1="399.033" y1="626.0469" x2="399.033" y2="644.0469" style="stroke:#181818;stroke-width:1;"/><line x1="399.033" y1="644.0469" x2="600.1473" y2="644.0469" style="stroke:#181818;stroke-width:1;"/><polygon points="590.1473,640.0469,600.1473,644.0469,590.1473,648.0469,594.1473,644.0469" fill="#181818" style="stroke:#181818;stroke-width:1;stroke-linejoin:miter;stroke-miterlimit:10;"/><line x1="825.2617" y1="282.1719" x2="825.2617" y2="644.0469" style="stroke:#181818;stroke-width:1;"/><line x1="825.2617" y1="644.0469" x2="624.1473" y2="644.0469" style="stroke:#181818;stroke-width:1;"/><polygon points="634.1473,640.0469,624.1473,644.0469,634.1473,648.0469,630.1473,644.0469" fill="#181818" style="stroke:#181818;stroke-width:1;stroke-linejoin:miter;stroke-miterlimit:10;"/><line x1="612.1473" y1="194.2031" x2="612.1473" y2="214.2031" style="stroke:#181818;stroke-width:1;"/><polygon points="608.1473,204.2031,612.1473,214.2031,616.1473,204.2031,612.1473,208.2031" fill="#181818" style="stroke:#181818;stroke-width:1;stroke-linejoin:miter;stroke-miterlimit:10;"/><line x1="612.1473" y1="656.0469" x2="612.1473" y2="676.0469" style="stroke:#181818;stroke-width:1;"/><polygon points="608.1473,666.0469,612.1473,676.0469,616.1473,666.0469,612.1473,670.0469" fill="#181818" style="stroke:#181818;stroke-width:1;stroke-linejoin:miter;stroke-miterlimit:10;"/><?plantuml-src RP9DJWCn38NtSmhlQ2LEG0MeAbs0M05YnIQTSLgBZ5DYftJ98RZ4xBd1t8IJu9d-g2rTHKc-z-9dHzw9bowv6cJXglX9F0VlWc1HA6b069TAAzAsWT-lRvXwZwLcJ90PLfImHjQY47N9bglntBOWZeGKobWl5K5YJYLUll5sNw4eiLEA3AXGHrR7EZBrQziaycJc7naXe1YRrriV0LoJAFOeUHXCjiUQObwrZS3j47I138EOQLW0TD3ZgOdOSp2UlDo_Jly9DfBd6AfTrN1plIlm30rmTTSsCrAhs3frb7Uq8oQfRQeJvA05UsxA2USMC7MairIEnPL7o8CvimiaXbHs3U72PVFU0sFlgLpORHdPKweFNa0RAGmuyhxq9_IvS-h6AdrcOidc8FquUX5Nv8j_uYFfDj8in8zidoHcA4FxezbYToORYoE3StBYVenk5gnp6urzghZy0m00?></g></svg>