<svg xmlns="http://www.w3.org/2000/svg" xmlns:xlink="http://www.w3.org/1999/xlink" version="1.1" data-diagram-type="CLASS" style="width:783px;height:920px;background:#FFFFFF;" width="783px" height="920px" viewBox="0 0 783 920" zoomAndPan="magnify" preserveAspectRatio="none" contentStyleType="text/css"><?plantuml 1.2026.7beta3?><defs/><g><g class="title" data-source-line="4"><text x="236.1838" y="22.9951" fill="#000000" font-size="14" lengthAdjust="spacing" textLength="304.623" font-weight="700" font-family="sans-serif">MCD — Modèle conceptuel de données</text></g><!--class user--><g class="entity" data-qualified-name="user" id="ent0001" data-source-line="6"><rect x="122.22" y="315.2669" width="166.8203" height="162.0781" fill="#F1F1F1" style="stroke:#181818;stroke-width:0.5;" rx="2.5" ry="2.5"/><ellipse cx="157.0776" cy="331.2669" rx="11" ry="11" fill="#ADD1B2" style="stroke:#181818;stroke-width:1;"/><path d="M161.1869,337.2669 L153.4682,337.2669 L153.4682,324.8762 L161.1869,324.8762 L161.1869,327.0325 L155.9213,327.0325 L155.9213,329.7044 L160.6869,329.7044 L160.6869,331.8606 L155.9213,331.8606 L155.9213,335.1106 L161.1869,335.1106 L161.1869,337.2669 Z " fill="#000000"/><text x="175.4904" y="336.1136" fill="#000000" font-size="14" lengthAdjust="spacing" textLength="90.6924" font-family="sans-serif">UTILISATEUR</text><line x1="123.22" y1="347.2669" x2="288.0403" y2="347.2669" style="stroke:#181818;stroke-width:0.5;"/><g data-visibility-modifier="IE_MANDATORY"><ellipse cx="133.22" cy="360.9153" rx="3" ry="3" fill="#000000" style="stroke:#000000;stroke-width:1;"/></g><text x="142.22" y="364.262" fill="#000000" font-size="14" lengthAdjust="spacing" textLength="71.4014" font-family="sans-serif">identifiant</text><line x1="123.22" y1="371.5637" x2="288.0403" y2="371.5637" style="stroke:#181818;stroke-width:1;"/><text x="128.22" y="388.5589" fill="#000000" font-size="14" lengthAdjust="spacing" textLength="118.8975" font-family="sans-serif">nom d'utilisateur</text><text x="128.22" y="404.8557" fill="#000000" font-size="14" lengthAdjust="spacing" textLength="154.8203" font-family="sans-serif">mot de passe (chiffré)</text><text x="128.22" y="421.1526" fill="#000000" font-size="14" lengthAdjust="spacing" textLength="92.3057" font-family="sans-serif">nom complet</text><text x="128.22" y="437.4495" fill="#000000" font-size="14" lengthAdjust="spacing" textLength="38.6094" font-family="sans-serif">email</text><text x="128.22" y="453.7464" fill="#000000" font-size="14" lengthAdjust="spacing" textLength="26.8242" font-family="sans-serif">rôle</text><text x="128.22" y="470.0432" fill="#000000" font-size="14" lengthAdjust="spacing" textLength="87.9238" font-family="sans-serif">compte actif</text></g><!--class client--><g class="entity" data-qualified-name="client" id="ent0002" data-source-line="17"><rect x="384.71" y="44.2969" width="163.8398" height="210.9688" fill="#F1F1F1" style="stroke:#181818;stroke-width:0.5;" rx="2.5" ry="2.5"/><ellipse cx="437.5928" cy="60.2969" rx="11" ry="11" fill="#ADD1B2" style="stroke:#181818;stroke-width:1;"/><path d="M441.7022,66.2969 L433.9834,66.2969 L433.9834,53.9063 L441.7022,53.9063 L441.7022,56.0625 L436.4366,56.0625 L436.4366,58.7344 L441.2022,58.7344 L441.2022,60.8906 L436.4366,60.8906 L436.4366,64.1406 L441.7022,64.1406 L441.7022,66.2969 Z " fill="#000000"/><text x="458.0928" y="65.1436" fill="#000000" font-size="14" lengthAdjust="spacing" textLength="49.5742" font-family="sans-serif">CLIENT</text><line x1="385.71" y1="76.2969" x2="547.5498" y2="76.2969" style="stroke:#181818;stroke-width:0.5;"/><g data-visibility-modifier="IE_MANDATORY"><ellipse cx="395.71" cy="89.9453" rx="3" ry="3" fill="#000000" style="stroke:#000000;stroke-width:1;"/></g><text x="404.71" y="93.292" fill="#000000" font-size="14" lengthAdjust="spacing" textLength="71.4014" font-family="sans-serif">identifiant</text><line x1="385.71" y1="100.5938" x2="547.5498" y2="100.5938" style="stroke:#181818;stroke-width:1;"/><text x="390.71" y="117.5889" fill="#000000" font-size="14" lengthAdjust="spacing" textLength="97.2207" font-family="sans-serif">numéro client</text><text x="390.71" y="133.8857" fill="#000000" font-size="14" lengthAdjust="spacing" textLength="24.377" font-family="sans-serif">CIN</text><text x="390.71" y="150.1826" fill="#000000" font-size="14" lengthAdjust="spacing" textLength="31.0762" font-family="sans-serif">nom</text><text x="390.71" y="166.4795" fill="#000000" font-size="14" lengthAdjust="spacing" textLength="54.332" font-family="sans-serif">prénom</text><text x="390.71" y="182.7764" fill="#000000" font-size="14" lengthAdjust="spacing" textLength="38.6094" font-family="sans-serif">email</text><text x="390.71" y="199.0732" fill="#000000" font-size="14" lengthAdjust="spacing" textLength="70.417" font-family="sans-serif">téléphone</text><text x="390.71" y="215.3701" fill="#000000" font-size="14" lengthAdjust="spacing" textLength="55.0361" font-family="sans-serif">adresse</text><text x="390.71" y="231.667" fill="#000000" font-size="14" lengthAdjust="spacing" textLength="151.8398" font-family="sans-serif">infos professionnelles</text><text x="390.71" y="247.9639" fill="#000000" font-size="14" lengthAdjust="spacing" textLength="41.2139" font-family="sans-serif">statut</text></g><!--class account--><g class="entity" data-qualified-name="account" id="ent0003" data-source-line="31"><rect x="462.8" y="315.2669" width="123.6582" height="162.0781" fill="#F1F1F1" style="stroke:#181818;stroke-width:0.5;" rx="2.5" ry="2.5"/><ellipse cx="492.625" cy="331.2669" rx="11" ry="11" fill="#ADD1B2" style="stroke:#181818;stroke-width:1;"/><path d="M496.7343,337.2669 L489.0156,337.2669 L489.0156,324.8762 L496.7343,324.8762 L496.7343,327.0325 L491.4687,327.0325 L491.4687,329.7044 L496.2343,329.7044 L496.2343,331.8606 L491.4687,331.8606 L491.4687,335.1106 L496.7343,335.1106 L496.7343,337.2669 Z " fill="#000000"/><text x="509.9194" y="336.1136" fill="#000000" font-size="14" lengthAdjust="spacing" textLength="58.7139" font-family="sans-serif">COMPTE</text><line x1="463.8" y1="347.2669" x2="585.4582" y2="347.2669" style="stroke:#181818;stroke-width:0.5;"/><g data-visibility-modifier="IE_MANDATORY"><ellipse cx="473.8" cy="360.9153" rx="3" ry="3" fill="#000000" style="stroke:#000000;stroke-width:1;"/></g><text x="482.8" y="364.262" fill="#000000" font-size="14" lengthAdjust="spacing" textLength="71.4014" font-family="sans-serif">identifiant</text><line x1="463.8" y1="371.5637" x2="585.4582" y2="371.5637" style="stroke:#181818;stroke-width:1;"/><text x="468.8" y="388.5589" fill="#000000" font-size="14" lengthAdjust="spacing" textLength="111.6582" font-family="sans-serif">numéro compte</text><text x="468.8" y="404.8557" fill="#000000" font-size="14" lengthAdjust="spacing" textLength="31.2744" font-family="sans-serif">type</text><text x="468.8" y="421.1526" fill="#000000" font-size="14" lengthAdjust="spacing" textLength="41.2139" font-family="sans-serif">statut</text><text x="468.8" y="437.4495" fill="#000000" font-size="14" lengthAdjust="spacing" textLength="37.249" font-family="sans-serif">solde</text><text x="468.8" y="453.7464" fill="#000000" font-size="14" lengthAdjust="spacing" textLength="104.8428" font-family="sans-serif">date ouverture</text><text x="468.8" y="470.0432" fill="#000000" font-size="14" lengthAdjust="spacing" textLength="84.9023" font-family="sans-serif">date clôture</text></g><!--class transaction--><g class="entity" data-qualified-name="transaction" id="ent0004" data-source-line="42"><rect x="458.26" y="775.7269" width="132.7412" height="129.4844" fill="#F1F1F1" style="stroke:#181818;stroke-width:0.5;" rx="2.5" ry="2.5"/><ellipse cx="473.26" cy="791.7269" rx="11" ry="11" fill="#ADD1B2" style="stroke:#181818;stroke-width:1;"/><path d="M477.3694,797.7269 L469.6506,797.7269 L469.6506,785.3363 L477.3694,785.3363 L477.3694,787.4925 L472.1038,787.4925 L472.1038,790.1644 L476.8694,790.1644 L476.8694,792.3206 L472.1038,792.3206 L472.1038,795.5706 L477.3694,795.5706 L477.3694,797.7269 Z " fill="#000000"/><text x="487.26" y="796.5736" fill="#000000" font-size="14" lengthAdjust="spacing" textLength="100.7412" font-family="sans-serif">TRANSACTION</text><line x1="459.26" y1="807.7269" x2="590.0012" y2="807.7269" style="stroke:#181818;stroke-width:0.5;"/><g data-visibility-modifier="IE_MANDATORY"><ellipse cx="469.26" cy="821.3753" rx="3" ry="3" fill="#000000" style="stroke:#000000;stroke-width:1;"/></g><text x="478.26" y="824.722" fill="#000000" font-size="14" lengthAdjust="spacing" textLength="71.4014" font-family="sans-serif">identifiant</text><line x1="459.26" y1="832.0238" x2="590.0012" y2="832.0238" style="stroke:#181818;stroke-width:1;"/><text x="464.26" y="849.0189" fill="#000000" font-size="14" lengthAdjust="spacing" textLength="31.2744" font-family="sans-serif">type</text><text x="464.26" y="865.3157" fill="#000000" font-size="14" lengthAdjust="spacing" textLength="59.5068" font-family="sans-serif">montant</text><text x="464.26" y="881.6126" fill="#000000" font-size="14" lengthAdjust="spacing" textLength="95.2998" font-family="sans-serif">date et heure</text><text x="464.26" y="897.9095" fill="#000000" font-size="14" lengthAdjust="spacing" textLength="77.8408" font-family="sans-serif">description</text></g><!--class provider--><g class="entity" data-qualified-name="provider" id="ent0005" data-source-line="51"><rect x="626.31" y="331.5669" width="110.6338" height="129.4844" fill="#F1F1F1" style="stroke:#181818;stroke-width:0.5;" rx="2.5" ry="2.5"/><ellipse cx="641.31" cy="347.5669" rx="11" ry="11" fill="#ADD1B2" style="stroke:#181818;stroke-width:1;"/><path d="M645.4194,353.5669 L637.7006,353.5669 L637.7006,341.1763 L645.4194,341.1763 L645.4194,343.3325 L640.1538,343.3325 L640.1538,346.0044 L644.9194,346.0044 L644.9194,348.1606 L640.1538,348.1606 L640.1538,351.4106 L645.4194,351.4106 L645.4194,353.5669 Z " fill="#000000"/><text x="655.31" y="352.4136" fill="#000000" font-size="14" lengthAdjust="spacing" textLength="78.6338" font-family="sans-serif">FACTURIER</text><line x1="627.31" y1="363.5669" x2="735.9438" y2="363.5669" style="stroke:#181818;stroke-width:0.5;"/><g data-visibility-modifier="IE_MANDATORY"><ellipse cx="637.31" cy="377.2153" rx="3" ry="3" fill="#000000" style="stroke:#000000;stroke-width:1;"/></g><text x="646.31" y="380.562" fill="#000000" font-size="14" lengthAdjust="spacing" textLength="71.4014" font-family="sans-serif">identifiant</text><line x1="627.31" y1="387.8638" x2="735.9438" y2="387.8638" style="stroke:#181818;stroke-width:1;"/><text x="632.31" y="404.8589" fill="#000000" font-size="14" lengthAdjust="spacing" textLength="33.7627" font-family="sans-serif">code</text><text x="632.31" y="421.1557" fill="#000000" font-size="14" lengthAdjust="spacing" textLength="41.6719" font-family="sans-serif">libellé</text><text x="632.31" y="437.4526" fill="#000000" font-size="14" lengthAdjust="spacing" textLength="66.0898" font-family="sans-serif">catégorie</text><text x="632.31" y="453.7495" fill="#000000" font-size="14" lengthAdjust="spacing" textLength="30.584" font-family="sans-serif">actif</text></g><!--class bill--><g class="entity" data-qualified-name="bill" id="ent0006" data-source-line="60"><rect x="594.27" y="569.9369" width="174.7207" height="113.1875" fill="#F1F1F1" style="stroke:#181818;stroke-width:0.5;" rx="2.5" ry="2.5"/><ellipse cx="609.27" cy="585.9369" rx="11" ry="11" fill="#ADD1B2" style="stroke:#181818;stroke-width:1;"/><path d="M613.3794,591.9369 L605.6606,591.9369 L605.6606,579.5463 L613.3794,579.5463 L613.3794,581.7025 L608.1138,581.7025 L608.1138,584.3744 L612.8794,584.3744 L612.8794,586.5306 L608.1138,586.5306 L608.1138,589.7806 L613.3794,589.7806 L613.3794,591.9369 Z " fill="#000000"/><text x="623.27" y="590.7836" fill="#000000" font-size="14" lengthAdjust="spacing" textLength="142.7207" font-family="sans-serif">PAIEMENT_FACTURE</text><line x1="595.27" y1="601.9369" x2="767.9907" y2="601.9369" style="stroke:#181818;stroke-width:0.5;"/><g data-visibility-modifier="IE_MANDATORY"><ellipse cx="605.27" cy="615.5853" rx="3" ry="3" fill="#000000" style="stroke:#000000;stroke-width:1;"/></g><text x="614.27" y="618.932" fill="#000000" font-size="14" lengthAdjust="spacing" textLength="71.4014" font-family="sans-serif">identifiant</text><line x1="595.27" y1="626.2338" x2="767.9907" y2="626.2338" style="stroke:#181818;stroke-width:1;"/><text x="600.27" y="643.2289" fill="#000000" font-size="14" lengthAdjust="spacing" textLength="110.3662" font-family="sans-serif">référence client</text><text x="600.27" y="659.5257" fill="#000000" font-size="14" lengthAdjust="spacing" textLength="59.5068" font-family="sans-serif">montant</text><text x="600.27" y="675.8226" fill="#000000" font-size="14" lengthAdjust="spacing" textLength="93.4814" font-family="sans-serif">date création</text></g><!--class chq--><g class="entity" data-qualified-name="chq" id="ent0007" data-source-line="68"><rect x="258.26" y="537.3469" width="196.7461" height="178.375" fill="#F1F1F1" style="stroke:#181818;stroke-width:0.5;" rx="2.5" ry="2.5"/><ellipse cx="273.26" cy="553.3469" rx="11" ry="11" fill="#ADD1B2" style="stroke:#181818;stroke-width:1;"/><path d="M277.3694,559.3469 L269.6506,559.3469 L269.6506,546.9563 L277.3694,546.9563 L277.3694,549.1125 L272.1038,549.1125 L272.1038,551.7844 L276.8694,551.7844 L276.8694,553.9406 L272.1038,553.9406 L272.1038,557.1906 L277.3694,557.1906 L277.3694,559.3469 Z " fill="#000000"/><text x="287.26" y="558.1936" fill="#000000" font-size="14" lengthAdjust="spacing" textLength="164.7461" font-family="sans-serif">COMMANDE_CHEQUIER</text><line x1="259.26" y1="569.3469" x2="454.0061" y2="569.3469" style="stroke:#181818;stroke-width:0.5;"/><g data-visibility-modifier="IE_MANDATORY"><ellipse cx="269.26" cy="582.9953" rx="3" ry="3" fill="#000000" style="stroke:#000000;stroke-width:1;"/></g><text x="278.26" y="586.342" fill="#000000" font-size="14" lengthAdjust="spacing" textLength="71.4014" font-family="sans-serif">identifiant</text><line x1="259.26" y1="593.6438" x2="454.0061" y2="593.6438" style="stroke:#181818;stroke-width:1;"/><text x="264.26" y="610.6389" fill="#000000" font-size="14" lengthAdjust="spacing" textLength="137.2588" font-family="sans-serif">numéro commande</text><text x="264.26" y="626.9357" fill="#000000" font-size="14" lengthAdjust="spacing" textLength="58.6934" font-family="sans-serif">quantité</text><text x="264.26" y="643.2326" fill="#000000" font-size="14" lengthAdjust="spacing" textLength="106.8867" font-family="sans-serif">format feuillets</text><text x="264.26" y="659.5295" fill="#000000" font-size="14" lengthAdjust="spacing" textLength="41.2139" font-family="sans-serif">statut</text><text x="264.26" y="675.8264" fill="#000000" font-size="14" lengthAdjust="spacing" textLength="102.1084" font-family="sans-serif">date demande</text><text x="264.26" y="692.1232" fill="#000000" font-size="14" lengthAdjust="spacing" textLength="110.4482" font-family="sans-serif">date traitement</text><text x="264.26" y="708.4201" fill="#000000" font-size="14" lengthAdjust="spacing" textLength="95.04" font-family="sans-serif">date livraison</text></g><!--class audit--><g class="entity" data-qualified-name="audit" id="ent0008" data-source-line="80"><rect x="7" y="553.6469" width="145.2578" height="145.7813" fill="#F1F1F1" style="stroke:#181818;stroke-width:0.5;" rx="2.5" ry="2.5"/><ellipse cx="22" cy="569.6469" rx="11" ry="11" fill="#ADD1B2" style="stroke:#181818;stroke-width:1;"/><path d="M26.1094,575.6469 L18.3906,575.6469 L18.3906,563.2563 L26.1094,563.2563 L26.1094,565.4125 L20.8438,565.4125 L20.8438,568.0844 L25.6094,568.0844 L25.6094,570.2406 L20.8438,570.2406 L20.8438,573.4906 L26.1094,573.4906 L26.1094,575.6469 Z " fill="#000000"/><text x="36" y="574.4936" fill="#000000" font-size="14" lengthAdjust="spacing" textLength="113.2578" font-family="sans-serif">JOURNAL_AUDIT</text><line x1="8" y1="585.6469" x2="151.2578" y2="585.6469" style="stroke:#181818;stroke-width:0.5;"/><g data-visibility-modifier="IE_MANDATORY"><ellipse cx="18" cy="599.2953" rx="3" ry="3" fill="#000000" style="stroke:#000000;stroke-width:1;"/></g><text x="27" y="602.642" fill="#000000" font-size="14" lengthAdjust="spacing" textLength="71.4014" font-family="sans-serif">identifiant</text><line x1="8" y1="609.9438" x2="151.2578" y2="609.9438" style="stroke:#181818;stroke-width:1;"/><text x="13" y="626.9389" fill="#000000" font-size="14" lengthAdjust="spacing" textLength="43.0938" font-family="sans-serif">action</text><text x="13" y="643.2357" fill="#000000" font-size="14" lengthAdjust="spacing" textLength="76.6924" font-family="sans-serif">type entité</text><text x="13" y="659.5326" fill="#000000" font-size="14" lengthAdjust="spacing" textLength="58.1943" font-family="sans-serif">id entité</text><text x="13" y="675.8295" fill="#000000" font-size="14" lengthAdjust="spacing" textLength="95.2998" font-family="sans-serif">date et heure</text><text x="13" y="692.1264" fill="#000000" font-size="14" lengthAdjust="spacing" textLength="46.6416" font-family="sans-serif">détails</text></g><!--link client to account--><g class="link" data-entity-1="ent0002" data-entity-2="ent0003" id="lnk9" data-source-line="90" data-link-type="crowfoot"><path d="M505.67,263.7669 C505.67,283.5969 505.67,278.0469 505.67,296.9869" style="stroke:#181818;stroke-width:1;" fill="none" id="client-account" codeLine="90"/><line x1="501.67" y1="259.7669" x2="509.67" y2="259.7669" style="stroke:#181818;stroke-width:1;"/><line x1="501.67" y1="262.7669" x2="509.67" y2="262.7669" style="stroke:#181818;stroke-width:1;"/><line x1="505.67" y1="263.7669" x2="505.67" y2="255.7669" style="stroke:#181818;stroke-width:1;"/><line x1="505.67" y1="306.9869" x2="511.67" y2="314.9869" style="stroke:#181818;stroke-width:1;"/><line x1="505.67" y1="306.9869" x2="499.67" y2="314.9869" style="stroke:#181818;stroke-width:1;"/><line x1="505.67" y1="306.9869" x2="505.67" y2="314.9869" style="stroke:#181818;stroke-width:1;"/><ellipse cx="505.67" cy="300.9869" rx="4" ry="4" fill="none" style="stroke:#181818;stroke-width:1;"/><text x="451.67" y="281.4438" fill="#000000" font-size="13" lengthAdjust="spacing" textLength="53.9995" font-family="sans-serif">possède</text></g><!--link client to chq--><g class="link" data-entity-1="ent0002" data-entity-2="ent0007" id="lnk10" data-source-line="91" data-link-type="crowfoot"><path d="M419.86,263.5869 C419.86,348.0869 419.86,439.1569 419.86,519.0369" style="stroke:#181818;stroke-width:1;" fill="none" id="client-chq" codeLine="91"/><line x1="415.86" y1="259.5869" x2="423.86" y2="259.5869" style="stroke:#181818;stroke-width:1;"/><line x1="415.86" y1="262.5869" x2="423.86" y2="262.5869" style="stroke:#181818;stroke-width:1;"/><line x1="419.86" y1="263.5869" x2="419.86" y2="255.5869" style="stroke:#181818;stroke-width:1;"/><line x1="419.86" y1="529.0369" x2="425.86" y2="537.0369" style="stroke:#181818;stroke-width:1;"/><line x1="419.86" y1="529.0369" x2="413.86" y2="537.0369" style="stroke:#181818;stroke-width:1;"/><line x1="419.86" y1="529.0369" x2="419.86" y2="537.0369" style="stroke:#181818;stroke-width:1;"/><ellipse cx="419.86" cy="523.0369" rx="4" ry="4" fill="none" style="stroke:#181818;stroke-width:1;"/><text x="357.86" y="392.3838" fill="#000000" font-size="13" lengthAdjust="spacing" textLength="61.3691" font-family="sans-serif">demande</text></g><!--link user to transaction--><g class="link" data-entity-1="ent0001" data-entity-2="ent0004" id="lnk11" data-source-line="92" data-link-type="crowfoot"><path d="M205.26,485.6469 C205.26,614.0369 205.26,841.2069 205.26,841.2069 C205.26,841.2069 346.47,841.2069 440.07,841.2069" style="stroke:#181818;stroke-width:1;" fill="none" id="user-transaction" codeLine="92"/><line x1="201.26" y1="481.6469" x2="209.26" y2="481.6469" style="stroke:#181818;stroke-width:1;"/><line x1="201.26" y1="484.6469" x2="209.26" y2="484.6469" style="stroke:#181818;stroke-width:1;"/><line x1="205.26" y1="485.6469" x2="205.26" y2="477.6469" style="stroke:#181818;stroke-width:1;"/><line x1="450.07" y1="841.2069" x2="458.07" y2="835.2069" style="stroke:#181818;stroke-width:1;"/><line x1="450.07" y1="841.2069" x2="458.07" y2="847.2069" style="stroke:#181818;stroke-width:1;"/><line x1="450.07" y1="841.2069" x2="458.07" y2="841.2069" style="stroke:#181818;stroke-width:1;"/><ellipse cx="444.07" cy="841.2069" rx="4" ry="4" fill="none" style="stroke:#181818;stroke-width:1;"/><text x="152.26" y="781.9038" fill="#000000" font-size="13" lengthAdjust="spacing" textLength="52.1714" font-family="sans-serif">exécute</text></g><!--link user to chq--><g class="link" data-entity-1="ent0001" data-entity-2="ent0007" id="lnk12" data-source-line="93" data-link-type="crowfoot"><path d="M273.65,485.7969 C273.65,504.9469 273.65,499.4469 273.65,518.9269" style="stroke:#181818;stroke-width:1;" fill="none" id="user-chq" codeLine="93"/><line x1="269.65" y1="481.7969" x2="277.65" y2="481.7969" style="stroke:#181818;stroke-width:1;"/><line x1="269.65" y1="484.7969" x2="277.65" y2="484.7969" style="stroke:#181818;stroke-width:1;"/><line x1="273.65" y1="485.7969" x2="273.65" y2="477.7969" style="stroke:#181818;stroke-width:1;"/><line x1="273.65" y1="528.9269" x2="279.65" y2="536.9269" style="stroke:#181818;stroke-width:1;"/><line x1="273.65" y1="528.9269" x2="267.65" y2="536.9269" style="stroke:#181818;stroke-width:1;"/><line x1="273.65" y1="528.9269" x2="273.65" y2="536.9269" style="stroke:#181818;stroke-width:1;"/><ellipse cx="273.65" cy="522.9269" rx="4" ry="4" fill="none" style="stroke:#181818;stroke-width:1;"/><text x="237.65" y="503.4338" fill="#000000" font-size="13" lengthAdjust="spacing" textLength="35.1152" font-family="sans-serif">traite</text></g><!--link user to audit--><g class="link" data-entity-1="ent0001" data-entity-2="ent0008" id="lnk13" data-source-line="94" data-link-type="crowfoot"><path d="M137.24,485.7969 C137.24,510.3769 137.24,511.1969 137.24,535.2069" style="stroke:#181818;stroke-width:1;" fill="none" id="user-audit" codeLine="94"/><line x1="133.24" y1="481.7969" x2="141.24" y2="481.7969" style="stroke:#181818;stroke-width:1;"/><line x1="133.24" y1="484.7969" x2="141.24" y2="484.7969" style="stroke:#181818;stroke-width:1;"/><line x1="137.24" y1="485.7969" x2="137.24" y2="477.7969" style="stroke:#181818;stroke-width:1;"/><line x1="137.24" y1="545.2069" x2="143.24" y2="553.2069" style="stroke:#181818;stroke-width:1;"/><line x1="137.24" y1="545.2069" x2="131.24" y2="553.2069" style="stroke:#181818;stroke-width:1;"/><line x1="137.24" y1="545.2069" x2="137.24" y2="553.2069" style="stroke:#181818;stroke-width:1;"/><ellipse cx="137.24" cy="539.2069" rx="4" ry="4" fill="none" style="stroke:#181818;stroke-width:1;"/><text x="83.24" y="511.5738" fill="#000000" font-size="13" lengthAdjust="spacing" textLength="53.6313" font-family="sans-serif">effectue</text></g><!--link account to transaction--><g class="link" data-entity-1="ent0003" data-entity-2="ent0004" id="lnk14" data-source-line="95" data-link-type="crowfoot"><path d="M512.26,485.7769 C512.26,571.4269 512.26,678.4769 512.26,757.3869" style="stroke:#181818;stroke-width:1;" fill="none" id="account-transaction" codeLine="95"/><line x1="508.26" y1="481.7769" x2="516.26" y2="481.7769" style="stroke:#181818;stroke-width:1;"/><line x1="508.26" y1="484.7769" x2="516.26" y2="484.7769" style="stroke:#181818;stroke-width:1;"/><line x1="512.26" y1="485.7769" x2="512.26" y2="477.7769" style="stroke:#181818;stroke-width:1;"/><line x1="512.26" y1="767.3869" x2="518.26" y2="775.3869" style="stroke:#181818;stroke-width:1;"/><line x1="512.26" y1="767.3869" x2="506.26" y2="775.3869" style="stroke:#181818;stroke-width:1;"/><line x1="512.26" y1="767.3869" x2="512.26" y2="775.3869" style="stroke:#181818;stroke-width:1;"/><ellipse cx="512.26" cy="761.3869" rx="4" ry="4" fill="none" style="stroke:#181818;stroke-width:1;"/><text x="468.26" y="622.6438" fill="#000000" font-size="13" lengthAdjust="spacing" textLength="43.4561" font-family="sans-serif">source</text></g><!--link account to transaction--><g class="link" data-entity-1="ent0003" data-entity-2="ent0004" id="lnk15" data-source-line="96" data-link-type="crowfoot"><path d="M536.99,485.7769 C536.99,571.4269 536.99,678.4769 536.99,757.3869" style="stroke:#181818;stroke-width:1;" fill="none" id="account-transaction-1" codeLine="96"/><line x1="532.99" y1="481.7769" x2="540.99" y2="481.7769" style="stroke:#181818;stroke-width:1;"/><line x1="532.99" y1="484.7769" x2="540.99" y2="484.7769" style="stroke:#181818;stroke-width:1;"/><line x1="536.99" y1="485.7769" x2="536.99" y2="477.7769" style="stroke:#181818;stroke-width:1;"/><line x1="536.99" y1="767.3869" x2="542.99" y2="775.3869" style="stroke:#181818;stroke-width:1;"/><line x1="536.99" y1="767.3869" x2="530.99" y2="775.3869" style="stroke:#181818;stroke-width:1;"/><line x1="536.99" y1="767.3869" x2="536.99" y2="775.3869" style="stroke:#181818;stroke-width:1;"/><ellipse cx="536.99" cy="761.3869" rx="4" ry="4" fill="none" style="stroke:#181818;stroke-width:1;"/><text x="463.99" y="639.6438" fill="#000000" font-size="13" lengthAdjust="spacing" textLength="72.8394" font-family="sans-serif">destination</text></g><!--link account to bill--><g class="link" data-entity-1="ent0003" data-entity-2="ent0006" id="lnk16" data-source-line="97" data-link-type="crowfoot"><path d="M594.88,469.2069 C608.17,469.2069 610.29,469.2069 610.29,469.2069 C610.29,469.2069 610.29,506.6669 610.29,551.7369" style="stroke:#181818;stroke-width:1;" fill="none" id="account-bill" codeLine="97"/><line x1="590.88" y1="473.2069" x2="590.88" y2="465.2069" style="stroke:#181818;stroke-width:1;"/><line x1="593.88" y1="473.2069" x2="593.88" y2="465.2069" style="stroke:#181818;stroke-width:1;"/><line x1="594.88" y1="469.2069" x2="586.88" y2="469.2069" style="stroke:#181818;stroke-width:1;"/><line x1="610.29" y1="561.7369" x2="616.29" y2="569.7369" style="stroke:#181818;stroke-width:1;"/><line x1="610.29" y1="561.7369" x2="604.29" y2="569.7369" style="stroke:#181818;stroke-width:1;"/><line x1="610.29" y1="561.7369" x2="610.29" y2="569.7369" style="stroke:#181818;stroke-width:1;"/><ellipse cx="610.29" cy="555.7369" rx="4" ry="4" fill="none" style="stroke:#181818;stroke-width:1;"/><text x="545.29" y="503.8338" fill="#000000" font-size="13" lengthAdjust="spacing" textLength="64.6128" font-family="sans-serif">débite via</text></g><!--link account to chq--><g class="link" data-entity-1="ent0003" data-entity-2="ent0007" id="lnk17" data-source-line="98" data-link-type="crowfoot"><path d="M487.53,485.5669 C487.53,524.2569 487.53,554.2069 487.53,554.2069 C487.53,554.2069 491.77,554.2069 473.17,554.2069" style="stroke:#181818;stroke-width:1;" fill="none" id="account-chq" codeLine="98"/><line x1="483.53" y1="481.5669" x2="491.53" y2="481.5669" style="stroke:#181818;stroke-width:1;"/><line x1="483.53" y1="484.5669" x2="491.53" y2="484.5669" style="stroke:#181818;stroke-width:1;"/><line x1="487.53" y1="485.5669" x2="487.53" y2="477.5669" style="stroke:#181818;stroke-width:1;"/><line x1="463.17" y1="554.2069" x2="455.17" y2="560.2069" style="stroke:#181818;stroke-width:1;"/><line x1="463.17" y1="554.2069" x2="455.17" y2="548.2069" style="stroke:#181818;stroke-width:1;"/><line x1="463.17" y1="554.2069" x2="455.17" y2="554.2069" style="stroke:#181818;stroke-width:1;"/><ellipse cx="469.17" cy="554.2069" rx="4" ry="4" fill="none" style="stroke:#181818;stroke-width:1;"/><text x="414.53" y="528.1338" fill="#000000" font-size="13" lengthAdjust="spacing" textLength="72.8838" font-family="sans-serif">commande</text></g><!--link provider to bill--><g class="link" data-entity-1="ent0005" data-entity-2="ent0006" id="lnk18" data-source-line="99" data-link-type="crowfoot"><path d="M681.63,469.3569 C681.63,503.3969 681.63,518.6969 681.63,551.4769" style="stroke:#181818;stroke-width:1;" fill="none" id="provider-bill" codeLine="99"/><line x1="677.63" y1="465.3569" x2="685.63" y2="465.3569" style="stroke:#181818;stroke-width:1;"/><line x1="677.63" y1="468.3569" x2="685.63" y2="468.3569" style="stroke:#181818;stroke-width:1;"/><line x1="681.63" y1="469.3569" x2="681.63" y2="461.3569" style="stroke:#181818;stroke-width:1;"/><line x1="681.63" y1="561.4769" x2="687.63" y2="569.4769" style="stroke:#181818;stroke-width:1;"/><line x1="681.63" y1="561.4769" x2="675.63" y2="569.4769" style="stroke:#181818;stroke-width:1;"/><line x1="681.63" y1="561.4769" x2="681.63" y2="569.4769" style="stroke:#181818;stroke-width:1;"/><ellipse cx="681.63" cy="555.4769" rx="4" ry="4" fill="none" style="stroke:#181818;stroke-width:1;"/><text x="620.63" y="511.4838" fill="#000000" font-size="13" lengthAdjust="spacing" textLength="60.0679" font-family="sans-serif">concerne</text></g><!--link bill to transaction--><g class="link" data-entity-1="ent0006" data-entity-2="ent0004" id="lnk19" data-source-line="100" data-link-type="association"><path d="M585.86,627.2069 C567.57,627.2069 561.73,627.2069 561.73,627.2069 C561.73,627.2069 561.73,704.6069 561.73,767.3169" style="stroke:#181818;stroke-width:1;" fill="none" id="bill-transaction" codeLine="100"/><line x1="589.86" y1="623.2069" x2="589.86" y2="631.2069" style="stroke:#181818;stroke-width:1;"/><line x1="586.86" y1="623.2069" x2="586.86" y2="631.2069" style="stroke:#181818;stroke-width:1;"/><line x1="585.86" y1="627.2069" x2="593.86" y2="627.2069" style="stroke:#181818;stroke-width:1;"/><line x1="565.73" y1="771.3169" x2="557.73" y2="771.3169" style="stroke:#181818;stroke-width:1;"/><line x1="565.73" y1="768.3169" x2="557.73" y2="768.3169" style="stroke:#181818;stroke-width:1;"/><line x1="561.73" y1="767.3169" x2="561.73" y2="775.3169" style="stroke:#181818;stroke-width:1;"/><text x="515.73" y="681.2638" fill="#000000" font-size="13" lengthAdjust="spacing" textLength="45.8301" font-family="sans-serif">génère</text></g><?plantuml-src ZLHBRjim4Dth58Di-W5y0Uy4HqKLn4xgsEk0eKOsKOfK-74Rn0LwY1uYskS6kabFqY4bovysQJQIE1pDU_FUaFQhK3Kph0AxPeN-9jGAIYOj9dROaKAXUwWHj75hdIHEE8amdPp3xv-_OAgBzedMN2kEjVCeeK0ej59jWpP9K57-0vmj5_bbVfCkikNy39W5Rz70OmBm4KGHaah1bAFrQ4GFfIietdadfB3CeJSKgxGBfMjcBS9xlXPbQThcGv_DTLLB30MmOaBIsxJF4kaTTXm2uuIH_DWpcbpcsMmHoN0fAFeA7L-rZT5z7WKc-Qp3fMTDBBgl7R9h6zaszLghWCyAWqIPleGgjQLyNL90a4Ge9Ma4O1rptXsHkvfUBx98Zd6k_PlOnKO3FhcrhqeVMXOXK92KeFq6ZVDc273PFiVr0VnYdivkqiaYlvf53iumPOE2MhtCeuUjj79TD9P71sliuT1o8-fGvH3i4m4jvtdM3GR9iw7Yhmm7rx4RAUv8lxO94KQIhxGHKUzJew_JF9kIrRSTKAVgdP3oPGYoj2HDaMPwR_f9OvoIs6alvDiqdPrdjvFFsPVbhYU-ld-JVHLJiRLxpqAzs5kfJSKSbEY9CJfxQ6paKU3kjxWaguJ32lT4fTXGp1uJlRXQpcVfvMswFC-xGy1y8LwPiixztcR0WPye3XP_ETusZiw43SZz8TjkHoFzE4pr66fjRVj43Hmd1Ct6GtFnkkXt3eTn3FYzRRXtnodTpvqKHnjTa_HNMIAdsohPyVXdRQkzuV_9eQ5sGdM3S98OPsmSHBWZ7h0Hx3IZupauFyp-SO5ujngwJE8wx6st9onMT0UrJmR_0000?></g></svg>