<svg xmlns="http://www.w3.org/2000/svg" xmlns:xlink="http://www.w3.org/1999/xlink" version="1.1" data-diagram-type="CLASS" style="width:2075px;height:2224px;background:#FFFFFF;" width="2075px" height="2224px" viewBox="0 0 2075 2224" zoomAndPan="magnify" preserveAspectRatio="none" contentStyleType="text/css"><?plantuml 1.2026.7beta3?><defs/><g><g class="title" data-source-line="10"><text x="881.8287" y="36.9951" fill="#000000" font-size="14" lengthAdjust="spacing" textLength="304.623" font-weight="700" font-family="sans-serif">MCD — Modèle conceptuel de données</text></g><rect x="3" y="68.2969" width="2059.2805" height="16.6406" fill="#FFFFCC" style="stroke:#FFDD88;stroke-width:3;" rx="2.5" ry="2.5"/><text x="10" y="78.9375" fill="#000000" font-size="10" lengthAdjust="spacing" textLength="295.0049" font-family="monospace">Please use CSS style instead of skinparam padding</text><!--class user--><g class="entity" data-qualified-name="user" id="ent0001" data-source-line="12"><rect x="465.63" y="223.3375" width="183.7617" height="371.0625" fill="#F1F1F1" style="stroke:#181818;stroke-width:0.5;" rx="2.5" ry="2.5"/><ellipse cx="498.3263" cy="249.9039" rx="10" ry="10" fill="#ADD1B2" style="stroke:#181818;stroke-width:1;"/><path d="M500.7951,254.4039 L494.8888,254.4039 L494.8888,244.9195 L500.7951,244.9195 L500.7951,246.5758 L496.7638,246.5758 L496.7638,248.6227 L500.4201,248.6227 L500.4201,250.2789 L496.7638,250.2789 L496.7638,252.7477 L500.7951,252.7477 L500.7951,254.4039 Z " fill="#000000"/><text x="529.481" y="254.4044" fill="#000000" font-size="13" lengthAdjust="spacing" textLength="84.2144" font-family="sans-serif">UTILISATEUR</text><line x1="466.63" y1="276.4703" x2="648.3917" y2="276.4703" style="stroke:#181818;stroke-width:0.5;"/><g data-visibility-modifier="IE_MANDATORY"><ellipse cx="476.63" cy="303.5367" rx="3" ry="3" fill="#000000" style="stroke:#000000;stroke-width:1;"/></g><text x="498.63" y="306.5372" fill="#000000" font-size="13" lengthAdjust="spacing" textLength="66.3013" font-family="sans-serif">identifiant</text><line x1="466.63" y1="327.6031" x2="648.3917" y2="327.6031" style="stroke:#181818;stroke-width:1;"/><text x="485.63" y="357.67" fill="#000000" font-size="13" lengthAdjust="spacing" textLength="110.4048" font-family="sans-serif">nom d'utilisateur</text><text x="485.63" y="400.8028" fill="#000000" font-size="13" lengthAdjust="spacing" textLength="143.7617" font-family="sans-serif">mot de passe (chiffré)</text><text x="485.63" y="443.9356" fill="#000000" font-size="13" lengthAdjust="spacing" textLength="85.7124" font-family="sans-serif">nom complet</text><text x="485.63" y="487.0685" fill="#000000" font-size="13" lengthAdjust="spacing" textLength="35.8516" font-family="sans-serif">email</text><text x="485.63" y="530.2013" fill="#000000" font-size="13" lengthAdjust="spacing" textLength="24.9082" font-family="sans-serif">rôle</text><text x="485.63" y="573.3341" fill="#000000" font-size="13" lengthAdjust="spacing" textLength="81.6436" font-family="sans-serif">compte actif</text></g><!--class client--><g class="entity" data-qualified-name="client" id="ent0002" data-source-line="23"><rect x="932.64" y="93.9375" width="229.7314" height="629.8594" fill="#F1F1F1" style="stroke:#181818;stroke-width:0.5;" rx="2.5" ry="2.5"/><ellipse cx="1006.4891" cy="120.5039" rx="10" ry="10" fill="#ADD1B2" style="stroke:#181818;stroke-width:1;"/><path d="M1008.9579,125.0039 L1003.0516,125.0039 L1003.0516,115.5195 L1008.9579,115.5195 L1008.9579,117.1758 L1004.9266,117.1758 L1004.9266,119.2227 L1008.5829,119.2227 L1008.5829,120.8789 L1004.9266,120.8789 L1004.9266,123.3477 L1008.9579,123.3477 L1008.9579,125.0039 Z " fill="#000000"/><text x="1039.4891" y="125.0044" fill="#000000" font-size="13" lengthAdjust="spacing" textLength="46.0332" font-family="sans-serif">CLIENT</text><line x1="933.64" y1="147.0703" x2="1161.3714" y2="147.0703" style="stroke:#181818;stroke-width:0.5;"/><g data-visibility-modifier="IE_MANDATORY"><ellipse cx="943.64" cy="174.1367" rx="3" ry="3" fill="#000000" style="stroke:#000000;stroke-width:1;"/></g><text x="965.64" y="177.1372" fill="#000000" font-size="13" lengthAdjust="spacing" textLength="66.3013" font-family="sans-serif">identifiant</text><line x1="933.64" y1="198.2031" x2="1161.3714" y2="198.2031" style="stroke:#181818;stroke-width:1;"/><text x="952.64" y="228.27" fill="#000000" font-size="13" lengthAdjust="spacing" textLength="90.2764" font-family="sans-serif">numéro client</text><text x="952.64" y="271.4028" fill="#000000" font-size="13" lengthAdjust="spacing" textLength="22.6357" font-family="sans-serif">CIN</text><text x="952.64" y="314.5356" fill="#000000" font-size="13" lengthAdjust="spacing" textLength="28.8564" font-family="sans-serif">nom</text><text x="952.64" y="357.6685" fill="#000000" font-size="13" lengthAdjust="spacing" textLength="50.4512" font-family="sans-serif">prénom</text><text x="952.64" y="400.8013" fill="#000000" font-size="13" lengthAdjust="spacing" textLength="35.8516" font-family="sans-serif">email</text><text x="952.64" y="443.9341" fill="#000000" font-size="13" lengthAdjust="spacing" textLength="65.3872" font-family="sans-serif">téléphone</text><text x="952.64" y="487.0669" fill="#000000" font-size="13" lengthAdjust="spacing" textLength="51.105" font-family="sans-serif">adresse</text><text x="952.64" y="530.1997" fill="#000000" font-size="13" lengthAdjust="spacing" textLength="140.9941" font-family="sans-serif">infos professionnelles</text><text x="952.64" y="573.3325" fill="#000000" font-size="13" lengthAdjust="spacing" textLength="38.27" font-family="sans-serif">statut</text><text x="952.64" y="616.4653" fill="#000000" font-size="13" lengthAdjust="spacing" textLength="189.7314" font-family="sans-serif">mot de passe portail (chiffré)</text><text x="952.64" y="659.5981" fill="#000000" font-size="13" lengthAdjust="spacing" textLength="85.4839" font-family="sans-serif">portail activé</text><text x="952.64" y="702.731" fill="#000000" font-size="13" lengthAdjust="spacing" textLength="171.9644" font-family="sans-serif">dernière connexion portail</text></g><!--class account--><g class="entity" data-qualified-name="account" id="ent0003" data-source-line="40"><rect x="1417.67" y="223.3375" width="143.6826" height="371.0625" fill="#F1F1F1" style="stroke:#181818;stroke-width:0.5;" rx="2.5" ry="2.5"/><ellipse cx="1445.6932" cy="249.9039" rx="10" ry="10" fill="#ADD1B2" style="stroke:#181818;stroke-width:1;"/><path d="M1448.1619,254.4039 L1442.2557,254.4039 L1442.2557,244.9195 L1448.1619,244.9195 L1448.1619,246.5758 L1444.1307,246.5758 L1444.1307,248.6227 L1447.7869,248.6227 L1447.7869,250.2789 L1444.1307,250.2789 L1444.1307,252.7477 L1448.1619,252.7477 L1448.1619,254.4039 Z " fill="#000000"/><text x="1475.8094" y="254.4044" fill="#000000" font-size="13" lengthAdjust="spacing" textLength="54.52" font-family="sans-serif">COMPTE</text><line x1="1418.67" y1="276.4703" x2="1560.3526" y2="276.4703" style="stroke:#181818;stroke-width:0.5;"/><g data-visibility-modifier="IE_MANDATORY"><ellipse cx="1428.67" cy="303.5367" rx="3" ry="3" fill="#000000" style="stroke:#000000;stroke-width:1;"/></g><text x="1450.67" y="306.5372" fill="#000000" font-size="13" lengthAdjust="spacing" textLength="66.3013" font-family="sans-serif">identifiant</text><line x1="1418.67" y1="327.6031" x2="1560.3526" y2="327.6031" style="stroke:#181818;stroke-width:1;"/><text x="1437.67" y="357.67" fill="#000000" font-size="13" lengthAdjust="spacing" textLength="103.6826" font-family="sans-serif">numéro compte</text><text x="1437.67" y="400.8028" fill="#000000" font-size="13" lengthAdjust="spacing" textLength="29.0405" font-family="sans-serif">type</text><text x="1437.67" y="443.9356" fill="#000000" font-size="13" lengthAdjust="spacing" textLength="38.27" font-family="sans-serif">statut</text><text x="1437.67" y="487.0685" fill="#000000" font-size="13" lengthAdjust="spacing" textLength="34.5884" font-family="sans-serif">solde</text><text x="1437.67" y="530.2013" fill="#000000" font-size="13" lengthAdjust="spacing" textLength="97.354" font-family="sans-serif">date ouverture</text><text x="1437.67" y="573.3341" fill="#000000" font-size="13" lengthAdjust="spacing" textLength="78.8379" font-family="sans-serif">date clôture</text></g><!--class transaction--><g class="entity" data-qualified-name="transaction" id="ent0004" data-source-line="51"><rect x="1210.74" y="1435.5575" width="151.5454" height="284.7969" fill="#F1F1F1" style="stroke:#181818;stroke-width:0.5;" rx="2.5" ry="2.5"/><ellipse cx="1224.74" cy="1462.1239" rx="10" ry="10" fill="#ADD1B2" style="stroke:#181818;stroke-width:1;"/><path d="M1227.2088,1466.6239 L1221.3025,1466.6239 L1221.3025,1457.1395 L1227.2088,1457.1395 L1227.2088,1458.7958 L1223.1775,1458.7958 L1223.1775,1460.8427 L1226.8338,1460.8427 L1226.8338,1462.4989 L1223.1775,1462.4989 L1223.1775,1464.9677 L1227.2088,1464.9677 L1227.2088,1466.6239 Z " fill="#000000"/><text x="1251.74" y="1466.6244" fill="#000000" font-size="13" lengthAdjust="spacing" textLength="93.5454" font-family="sans-serif">TRANSACTION</text><line x1="1211.74" y1="1488.6903" x2="1361.2854" y2="1488.6903" style="stroke:#181818;stroke-width:0.5;"/><g data-visibility-modifier="IE_MANDATORY"><ellipse cx="1221.74" cy="1515.7567" rx="3" ry="3" fill="#000000" style="stroke:#000000;stroke-width:1;"/></g><text x="1243.74" y="1518.7572" fill="#000000" font-size="13" lengthAdjust="spacing" textLength="66.3013" font-family="sans-serif">identifiant</text><line x1="1211.74" y1="1539.8231" x2="1361.2854" y2="1539.8231" style="stroke:#181818;stroke-width:1;"/><text x="1230.74" y="1569.89" fill="#000000" font-size="13" lengthAdjust="spacing" textLength="29.0405" font-family="sans-serif">type</text><text x="1230.74" y="1613.0228" fill="#000000" font-size="13" lengthAdjust="spacing" textLength="55.2563" font-family="sans-serif">montant</text><text x="1230.74" y="1656.1556" fill="#000000" font-size="13" lengthAdjust="spacing" textLength="88.4927" font-family="sans-serif">date et heure</text><text x="1230.74" y="1699.2885" fill="#000000" font-size="13" lengthAdjust="spacing" textLength="72.2808" font-family="sans-serif">description</text></g><!--class provider--><g class="entity" data-qualified-name="provider" id="ent0005" data-source-line="60"><rect x="7" y="926.4975" width="131.0171" height="284.7969" fill="#F1F1F1" style="stroke:#181818;stroke-width:0.5;" rx="2.5" ry="2.5"/><ellipse cx="21" cy="953.0639" rx="10" ry="10" fill="#ADD1B2" style="stroke:#181818;stroke-width:1;"/><path d="M23.4688,957.5639 L17.5625,957.5639 L17.5625,948.0795 L23.4688,948.0795 L23.4688,949.7358 L19.4375,949.7358 L19.4375,951.7827 L23.0938,951.7827 L23.0938,953.4389 L19.4375,953.4389 L19.4375,955.9077 L23.4688,955.9077 L23.4688,957.5639 Z " fill="#000000"/><text x="48" y="957.5644" fill="#000000" font-size="13" lengthAdjust="spacing" textLength="73.0171" font-family="sans-serif">FACTURIER</text><line x1="8" y1="979.6303" x2="137.0171" y2="979.6303" style="stroke:#181818;stroke-width:0.5;"/><g data-visibility-modifier="IE_MANDATORY"><ellipse cx="18" cy="1006.6967" rx="3" ry="3" fill="#000000" style="stroke:#000000;stroke-width:1;"/></g><text x="40" y="1009.6972" fill="#000000" font-size="13" lengthAdjust="spacing" textLength="66.3013" font-family="sans-serif">identifiant</text><line x1="8" y1="1030.7631" x2="137.0171" y2="1030.7631" style="stroke:#181818;stroke-width:1;"/><text x="27" y="1060.83" fill="#000000" font-size="13" lengthAdjust="spacing" textLength="31.3511" font-family="sans-serif">code</text><text x="27" y="1103.9628" fill="#000000" font-size="13" lengthAdjust="spacing" textLength="38.6953" font-family="sans-serif">libellé</text><text x="27" y="1147.0956" fill="#000000" font-size="13" lengthAdjust="spacing" textLength="61.3691" font-family="sans-serif">catégorie</text><text x="27" y="1190.2285" fill="#000000" font-size="13" lengthAdjust="spacing" textLength="28.3994" font-family="sans-serif">actif</text></g><!--class bill--><g class="entity" data-qualified-name="bill" id="ent0006" data-source-line="69"><rect x="1315.25" y="948.0675" width="190.5264" height="241.6641" fill="#F1F1F1" style="stroke:#181818;stroke-width:0.5;" rx="2.5" ry="2.5"/><ellipse cx="1329.25" cy="974.6339" rx="10" ry="10" fill="#ADD1B2" style="stroke:#181818;stroke-width:1;"/><path d="M1331.7188,979.1339 L1325.8125,979.1339 L1325.8125,969.6495 L1331.7188,969.6495 L1331.7188,971.3058 L1327.6875,971.3058 L1327.6875,973.3527 L1331.3438,973.3527 L1331.3438,975.0089 L1327.6875,975.0089 L1327.6875,977.4777 L1331.7188,977.4777 L1331.7188,979.1339 Z " fill="#000000"/><text x="1356.25" y="979.1344" fill="#000000" font-size="13" lengthAdjust="spacing" textLength="132.5264" font-family="sans-serif">PAIEMENT_FACTURE</text><line x1="1316.25" y1="1001.2003" x2="1504.7764" y2="1001.2003" style="stroke:#181818;stroke-width:0.5;"/><g data-visibility-modifier="IE_MANDATORY"><ellipse cx="1326.25" cy="1028.2667" rx="3" ry="3" fill="#000000" style="stroke:#000000;stroke-width:1;"/></g><text x="1348.25" y="1031.2672" fill="#000000" font-size="13" lengthAdjust="spacing" textLength="66.3013" font-family="sans-serif">identifiant</text><line x1="1316.25" y1="1052.3331" x2="1504.7764" y2="1052.3331" style="stroke:#181818;stroke-width:1;"/><text x="1335.25" y="1082.4" fill="#000000" font-size="13" lengthAdjust="spacing" textLength="102.4829" font-family="sans-serif">référence client</text><text x="1335.25" y="1125.5328" fill="#000000" font-size="13" lengthAdjust="spacing" textLength="55.2563" font-family="sans-serif">montant</text><text x="1335.25" y="1168.6656" fill="#000000" font-size="13" lengthAdjust="spacing" textLength="86.8042" font-family="sans-serif">date création</text></g><!--class chq--><g class="entity" data-qualified-name="chq" id="ent0007" data-source-line="77"><rect x="1591.02" y="861.7975" width="210.9785" height="414.1953" fill="#F1F1F1" style="stroke:#181818;stroke-width:0.5;" rx="2.5" ry="2.5"/><ellipse cx="1605.02" cy="888.3639" rx="10" ry="10" fill="#ADD1B2" style="stroke:#181818;stroke-width:1;"/><path d="M1607.4888,892.8639 L1601.5825,892.8639 L1601.5825,883.3795 L1607.4888,883.3795 L1607.4888,885.0358 L1603.4575,885.0358 L1603.4575,887.0827 L1607.1138,887.0827 L1607.1138,888.7389 L1603.4575,888.7389 L1603.4575,891.2077 L1607.4888,891.2077 L1607.4888,892.8639 Z " fill="#000000"/><text x="1632.02" y="892.8644" fill="#000000" font-size="13" lengthAdjust="spacing" textLength="152.9785" font-family="sans-serif">COMMANDE_CHEQUIER</text><line x1="1592.02" y1="914.9303" x2="1800.9985" y2="914.9303" style="stroke:#181818;stroke-width:0.5;"/><g data-visibility-modifier="IE_MANDATORY"><ellipse cx="1602.02" cy="941.9967" rx="3" ry="3" fill="#000000" style="stroke:#000000;stroke-width:1;"/></g><text x="1624.02" y="944.9972" fill="#000000" font-size="13" lengthAdjust="spacing" textLength="66.3013" font-family="sans-serif">identifiant</text><line x1="1592.02" y1="966.0631" x2="1800.9985" y2="966.0631" style="stroke:#181818;stroke-width:1;"/><text x="1611.02" y="996.13" fill="#000000" font-size="13" lengthAdjust="spacing" textLength="127.4546" font-family="sans-serif">numéro commande</text><text x="1611.02" y="1039.2628" fill="#000000" font-size="13" lengthAdjust="spacing" textLength="54.501" font-family="sans-serif">quantité</text><text x="1611.02" y="1082.3956" fill="#000000" font-size="13" lengthAdjust="spacing" textLength="99.252" font-family="sans-serif">format feuillets</text><text x="1611.02" y="1125.5285" fill="#000000" font-size="13" lengthAdjust="spacing" textLength="38.27" font-family="sans-serif">statut</text><text x="1611.02" y="1168.6613" fill="#000000" font-size="13" lengthAdjust="spacing" textLength="94.8149" font-family="sans-serif">date demande</text><text x="1611.02" y="1211.7941" fill="#000000" font-size="13" lengthAdjust="spacing" textLength="102.5591" font-family="sans-serif">date traitement</text><text x="1611.02" y="1254.9269" fill="#000000" font-size="13" lengthAdjust="spacing" textLength="88.2515" font-family="sans-serif">date livraison</text></g><!--class notif--><g class="entity" data-qualified-name="notif" id="ent0008" data-source-line="89"><rect x="964.14" y="1838.9275" width="150.7456" height="371.0625" fill="#F1F1F1" style="stroke:#181818;stroke-width:0.5;" rx="2.5" ry="2.5"/><ellipse cx="978.14" cy="1865.4939" rx="10" ry="10" fill="#ADD1B2" style="stroke:#181818;stroke-width:1;"/><path d="M980.6088,1869.9939 L974.7025,1869.9939 L974.7025,1860.5095 L980.6088,1860.5095 L980.6088,1862.1658 L976.5775,1862.1658 L976.5775,1864.2127 L980.2338,1864.2127 L980.2338,1865.8689 L976.5775,1865.8689 L976.5775,1868.3377 L980.6088,1868.3377 L980.6088,1869.9939 Z " fill="#000000"/><text x="1005.14" y="1869.9944" fill="#000000" font-size="13" lengthAdjust="spacing" textLength="92.7456" font-family="sans-serif">NOTIFICATION</text><line x1="965.14" y1="1892.0603" x2="1113.8856" y2="1892.0603" style="stroke:#181818;stroke-width:0.5;"/><g data-visibility-modifier="IE_MANDATORY"><ellipse cx="975.14" cy="1919.1267" rx="3" ry="3" fill="#000000" style="stroke:#000000;stroke-width:1;"/></g><text x="997.14" y="1922.1272" fill="#000000" font-size="13" lengthAdjust="spacing" textLength="66.3013" font-family="sans-serif">identifiant</text><line x1="965.14" y1="1943.1931" x2="1113.8856" y2="1943.1931" style="stroke:#181818;stroke-width:1;"/><text x="984.14" y="1973.26" fill="#000000" font-size="13" lengthAdjust="spacing" textLength="29.0405" font-family="sans-serif">type</text><text x="984.14" y="2016.3928" fill="#000000" font-size="13" lengthAdjust="spacing" textLength="27.1489" font-family="sans-serif">titre</text><text x="984.14" y="2059.5256" fill="#000000" font-size="13" lengthAdjust="spacing" textLength="58.4238" font-family="sans-serif">message</text><text x="984.14" y="2102.6585" fill="#000000" font-size="13" lengthAdjust="spacing" textLength="23.4609" font-family="sans-serif">lien</text><text x="984.14" y="2145.7913" fill="#000000" font-size="13" lengthAdjust="spacing" textLength="19.8491" font-family="sans-serif">lue</text><text x="984.14" y="2188.9241" fill="#000000" font-size="13" lengthAdjust="spacing" textLength="86.8042" font-family="sans-serif">date création</text></g><!--class audit--><g class="entity" data-qualified-name="audit" id="ent0009" data-source-line="100"><rect x="177.92" y="1413.9975" width="163.168" height="327.9297" fill="#F1F1F1" style="stroke:#181818;stroke-width:0.5;" rx="2.5" ry="2.5"/><ellipse cx="191.92" cy="1440.5639" rx="10" ry="10" fill="#ADD1B2" style="stroke:#181818;stroke-width:1;"/><path d="M194.3888,1445.0639 L188.4825,1445.0639 L188.4825,1435.5795 L194.3888,1435.5795 L194.3888,1437.2358 L190.3575,1437.2358 L190.3575,1439.2827 L194.0138,1439.2827 L194.0138,1440.9389 L190.3575,1440.9389 L190.3575,1443.4077 L194.3888,1443.4077 L194.3888,1445.0639 Z " fill="#000000"/><text x="218.92" y="1445.0644" fill="#000000" font-size="13" lengthAdjust="spacing" textLength="105.168" font-family="sans-serif">JOURNAL_AUDIT</text><line x1="178.92" y1="1467.1303" x2="340.088" y2="1467.1303" style="stroke:#181818;stroke-width:0.5;"/><g data-visibility-modifier="IE_MANDATORY"><ellipse cx="188.92" cy="1494.1967" rx="3" ry="3" fill="#000000" style="stroke:#000000;stroke-width:1;"/></g><text x="210.92" y="1497.1972" fill="#000000" font-size="13" lengthAdjust="spacing" textLength="66.3013" font-family="sans-serif">identifiant</text><line x1="178.92" y1="1518.2631" x2="340.088" y2="1518.2631" style="stroke:#181818;stroke-width:1;"/><text x="197.92" y="1548.33" fill="#000000" font-size="13" lengthAdjust="spacing" textLength="40.0156" font-family="sans-serif">action</text><text x="197.92" y="1591.4628" fill="#000000" font-size="13" lengthAdjust="spacing" textLength="71.2144" font-family="sans-serif">type entité</text><text x="197.92" y="1634.5956" fill="#000000" font-size="13" lengthAdjust="spacing" textLength="54.0376" font-family="sans-serif">id entité</text><text x="197.92" y="1677.7285" fill="#000000" font-size="13" lengthAdjust="spacing" textLength="88.4927" font-family="sans-serif">date et heure</text><text x="197.92" y="1720.8613" fill="#000000" font-size="13" lengthAdjust="spacing" textLength="43.3101" font-family="sans-serif">détails</text></g><!--link user to client--><!--link client to account--><!--link client to account--><g class="link" data-entity-1="ent0002" data-entity-2="ent0003" id="lnk21" data-source-line="126" data-link-type="crowfoot"><path d="M1170.77,408.8675 C1251.35,408.8675 1330.45,408.8675 1399.4,408.8675" style="stroke:#181818;stroke-width:1;" fill="none" id="client-account-1" codeLine="126"/><line x1="1166.77" y1="412.8675" x2="1166.77" y2="404.8675" style="stroke:#181818;stroke-width:1;"/><line x1="1169.77" y1="412.8675" x2="1169.77" y2="404.8675" style="stroke:#181818;stroke-width:1;"/><line x1="1170.77" y1="408.8675" x2="1162.77" y2="408.8675" style="stroke:#181818;stroke-width:1;"/><line x1="1409.4" y1="408.8675" x2="1417.4" y2="402.8675" style="stroke:#181818;stroke-width:1;"/><line x1="1409.4" y1="408.8675" x2="1417.4" y2="414.8675" style="stroke:#181818;stroke-width:1;"/><line x1="1409.4" y1="408.8675" x2="1417.4" y2="408.8675" style="stroke:#181818;stroke-width:1;"/><ellipse cx="1403.4" cy="408.8675" rx="4" ry="4" fill="none" style="stroke:#181818;stroke-width:1;"/><text x="1267.52" y="389.0779" fill="#000000" font-size="11" lengthAdjust="spacing" textLength="45.6919" font-family="sans-serif">possède</text></g><!--link account to transaction--><!--link account to transaction--><g class="link" data-entity-1="ent0003" data-entity-2="ent0004" id="lnk28" data-source-line="133" data-link-type="crowfoot"><path d="M1568.218,466.394 C1707.578,566.474 1993.51,771.7975 1993.51,771.7975 C1993.51,771.7975 1993.51,1365.9975 1993.51,1365.9975 C1993.51,1365.9975 1562.3584,1494.6504 1379.7584,1549.1404" style="stroke:#181818;stroke-width:1;" fill="none" id="account-transaction-1" codeLine="133"/><line x1="1562.6358" y1="467.3097" x2="1567.3022" y2="460.8117" style="stroke:#181818;stroke-width:1;"/><line x1="1565.0725" y1="469.0597" x2="1569.739" y2="462.5617" style="stroke:#181818;stroke-width:1;"/><line x1="1568.218" y1="466.394" x2="1561.72" y2="461.7275" style="stroke:#181818;stroke-width:1;"/><line x1="1370.176" y1="1551.9999" x2="1364.2257" y2="1560.037" style="stroke:#181818;stroke-width:1;"/><line x1="1370.176" y1="1551.9999" x2="1360.7943" y2="1548.538" style="stroke:#181818;stroke-width:1;"/><line x1="1370.176" y1="1551.9999" x2="1362.51" y2="1554.2875" style="stroke:#181818;stroke-width:1;"/><ellipse cx="1375.9254" cy="1550.2842" rx="4" ry="4" fill="none" style="stroke:#181818;stroke-width:1;"/><text x="2008.51" y="1073.1079" fill="#000000" font-size="11" lengthAdjust="spacing" textLength="36.7705" font-family="sans-serif">source</text></g><!--link account to transaction--><g class="link" data-entity-1="ent0003" data-entity-2="ent0004" id="lnk29" data-source-line="134" data-link-type="crowfoot"><path d="M1412.8972,530.7546 C1337.1872,650.2046 1233.51,813.7975 1233.51,813.7975 C1233.51,813.7975 1181.51,861.7975 1181.51,861.7975 C1181.51,861.7975 1181.51,1275.9975 1181.51,1275.9975 C1181.51,1275.9975 1203.9213,1340.2319 1231.1513,1418.2919" style="stroke:#181818;stroke-width:1;" fill="none" id="account-transaction-2" codeLine="134"/><line x1="1411.6601" y1="525.2346" x2="1418.4171" y2="529.5174" style="stroke:#181818;stroke-width:1;"/><line x1="1410.054" y1="527.7685" x2="1416.8111" y2="532.0513" style="stroke:#181818;stroke-width:1;"/><line x1="1412.8972" y1="530.7546" x2="1417.18" y2="523.9975" style="stroke:#181818;stroke-width:1;"/><line x1="1234.445" y1="1427.7339" x2="1242.7452" y2="1433.3113" style="stroke:#181818;stroke-width:1;"/><line x1="1234.445" y1="1427.7339" x2="1231.4148" y2="1437.2637" style="stroke:#181818;stroke-width:1;"/><line x1="1234.445" y1="1427.7339" x2="1237.08" y2="1435.2875" style="stroke:#181818;stroke-width:1;"/><ellipse cx="1232.4688" cy="1422.0687" rx="4" ry="4" fill="none" style="stroke:#181818;stroke-width:1;"/><text x="1196.51" y="1073.1079" fill="#000000" font-size="11" lengthAdjust="spacing" textLength="61.6333" font-family="sans-serif">destination</text></g><!--link provider to bill--><!--link provider to bill--><g class="link" data-entity-1="ent0005" data-entity-2="ent0006" id="lnk32" data-source-line="137" data-link-type="crowfoot"><path d="M142.7135,957.052 C174.8935,905.792 202.51,861.7975 202.51,861.7975 C202.51,861.7975 650.51,817.8175 650.51,817.8175 C650.51,817.8175 730.51,817.8175 730.51,817.8175 C730.51,817.8175 1251.51,861.7975 1251.51,861.7975 C1251.51,861.7975 1271.7974,888.2309 1306.5974,933.5509" style="stroke:#181818;stroke-width:1;" fill="none" id="provider-bill-1" codeLine="137"/><line x1="143.9745" y1="962.5665" x2="137.199" y2="958.313" style="stroke:#181818;stroke-width:1;"/><line x1="145.5696" y1="960.0257" x2="138.7941" y2="955.7722" style="stroke:#181818;stroke-width:1;"/><line x1="142.7135" y1="957.052" x2="138.46" y2="963.8275" style="stroke:#181818;stroke-width:1;"/><line x1="1312.6877" y1="941.4823" x2="1322.3189" y2="944.1733" style="stroke:#181818;stroke-width:1;"/><line x1="1312.6877" y1="941.4823" x2="1312.8011" y2="951.4817" style="stroke:#181818;stroke-width:1;"/><line x1="1312.6877" y1="941.4823" x2="1317.56" y2="947.8275" style="stroke:#181818;stroke-width:1;"/><ellipse cx="1309.0335" cy="936.7235" rx="4" ry="4" fill="none" style="stroke:#181818;stroke-width:1;"/><text x="665.51" y="797.0079" fill="#000000" font-size="11" lengthAdjust="spacing" textLength="50.8267" font-family="sans-serif">concerne</text></g><!--link bill to chq--><!--link chq to notif--><!--link user to provider--><!--link client to bill--><!--link account to chq--><!--link account to chq--><g class="link" data-entity-1="ent0003" data-entity-2="ent0007" id="lnk31" data-source-line="136" data-link-type="crowfoot"><path d="M1550.1636,602.4379 C1578.2436,691.5779 1603.51,771.7975 1603.51,771.7975 C1603.51,771.7975 1610.5167,794.1245 1626.2667,844.2745" style="stroke:#181818;stroke-width:1;" fill="none" id="account-chq-1" codeLine="136"/><line x1="1545.1466" y1="599.8245" x2="1552.777" y2="597.4209" style="stroke:#181818;stroke-width:1;"/><line x1="1546.048" y1="602.6859" x2="1553.6784" y2="600.2822" style="stroke:#181818;stroke-width:1;"/><line x1="1550.1636" y1="602.4379" x2="1547.76" y2="594.8075" style="stroke:#181818;stroke-width:1;"/><line x1="1629.263" y1="853.8151" x2="1637.3843" y2="859.6497" style="stroke:#181818;stroke-width:1;"/><line x1="1629.263" y1="853.8151" x2="1625.9357" y2="863.2453" style="stroke:#181818;stroke-width:1;"/><line x1="1629.263" y1="853.8151" x2="1631.66" y2="861.4475" style="stroke:#181818;stroke-width:1;"/><ellipse cx="1627.4652" cy="848.0907" rx="4" ry="4" fill="none" style="stroke:#181818;stroke-width:1;"/><text x="1629.51" y="797.0079" fill="#000000" font-size="11" lengthAdjust="spacing" textLength="61.6709" font-family="sans-serif">commande</text></g><!--link transaction to notif--><!--link provider to audit--><!--link client to chq--><g class="link" data-entity-1="ent0002" data-entity-2="ent0007" id="lnk22" data-source-line="127" data-link-type="crowfoot"><path d="M1167.2003,595.8242 C1236.7003,703.7842 1307.51,813.7975 1307.51,813.7975 C1307.51,813.7975 1548.51,861.7975 1548.51,861.7975 C1548.51,861.7975 1556.3005,872.657 1580.0205,905.687" style="stroke:#181818;stroke-width:1;" fill="none" id="client-chq" codeLine="127"/><line x1="1161.6718" y1="594.626" x2="1168.3985" y2="590.2957" style="stroke:#181818;stroke-width:1;"/><line x1="1163.2957" y1="597.1485" x2="1170.0224" y2="592.8182" style="stroke:#181818;stroke-width:1;"/><line x1="1167.2003" y1="595.8242" x2="1162.87" y2="589.0975" style="stroke:#181818;stroke-width:1;"/><line x1="1585.8535" y1="913.8095" x2="1595.3935" y2="916.8077" style="stroke:#181818;stroke-width:1;"/><line x1="1585.8535" y1="913.8095" x2="1585.6465" y2="923.8073" style="stroke:#181818;stroke-width:1;"/><line x1="1585.8535" y1="913.8095" x2="1590.52" y2="920.3075" style="stroke:#181818;stroke-width:1;"/><ellipse cx="1582.3537" cy="908.936" rx="4" ry="4" fill="none" style="stroke:#181818;stroke-width:1;"/><text x="1322.51" y="797.0079" fill="#000000" font-size="11" lengthAdjust="spacing" textLength="51.9277" font-family="sans-serif">demande</text></g><!--link client to notif--><g class="link" data-entity-1="ent0002" data-entity-2="ent0008" id="lnk23" data-source-line="128" data-link-type="crowfoot"><path d="M1043.0595,732.1067 C1042.6595,761.0567 1042.51,771.7975 1042.51,771.7975 C1042.51,771.7975 1040.8334,1472.1376 1039.9934,1820.4376" style="stroke:#181818;stroke-width:1;" fill="none" id="client-notif" codeLine="128"/><line x1="1039.1151" y1="728.0519" x2="1047.1144" y2="728.1624" style="stroke:#181818;stroke-width:1;"/><line x1="1039.0737" y1="731.0516" x2="1047.0729" y2="731.1621" style="stroke:#181818;stroke-width:1;"/><line x1="1043.0595" y1="732.1067" x2="1043.17" y2="724.1075" style="stroke:#181818;stroke-width:1;"/><line x1="1039.9693" y1="1830.4375" x2="1045.95" y2="1838.452" style="stroke:#181818;stroke-width:1;"/><line x1="1039.9693" y1="1830.4375" x2="1033.95" y2="1838.423" style="stroke:#181818;stroke-width:1;"/><line x1="1039.9693" y1="1830.4375" x2="1039.95" y2="1838.4375" style="stroke:#181818;stroke-width:1;"/><ellipse cx="1039.9838" cy="1824.4375" rx="4" ry="4" fill="none" style="stroke:#181818;stroke-width:1;"/><text x="1055.51" y="1349.2079" fill="#000000" font-size="11" lengthAdjust="spacing" textLength="31.437" font-family="sans-serif">reçoit</text></g><!--link user to transaction--><g class="link" data-entity-1="ent0001" data-entity-2="ent0004" id="lnk24" data-source-line="129" data-link-type="crowfoot"><path d="M601.377,602.4977 C625.607,708.8577 649.51,813.7975 649.51,813.7975 C649.51,813.7975 820.51,1365.9975 820.51,1365.9975 C820.51,1365.9975 1061.822,1475.2442 1193.942,1535.0542" style="stroke:#181818;stroke-width:1;" fill="none" id="user-transaction" codeLine="129"/><line x1="596.5884" y1="599.4861" x2="604.3886" y2="597.7091" style="stroke:#181818;stroke-width:1;"/><line x1="597.2548" y1="602.4111" x2="605.0549" y2="600.6342" style="stroke:#181818;stroke-width:1;"/><line x1="601.377" y1="602.4977" x2="599.6" y2="594.6975" style="stroke:#181818;stroke-width:1;"/><line x1="1203.052" y1="1539.1783" x2="1212.8144" y2="1537.0115" style="stroke:#181818;stroke-width:1;"/><line x1="1203.052" y1="1539.1783" x2="1207.8656" y2="1547.9435" style="stroke:#181818;stroke-width:1;"/><line x1="1203.052" y1="1539.1783" x2="1210.34" y2="1542.4775" style="stroke:#181818;stroke-width:1;"/><ellipse cx="1197.586" cy="1536.7038" rx="4" ry="4" fill="none" style="stroke:#181818;stroke-width:1;"/><text x="805.51" y="1073.1079" fill="#000000" font-size="11" lengthAdjust="spacing" textLength="44.145" font-family="sans-serif">exécute</text></g><!--link user to chq--><g class="link" data-entity-1="ent0001" data-entity-2="ent0007" id="lnk25" data-source-line="130" data-link-type="crowfoot"><path d="M655.651,502.3853 C754.201,595.2953 890.51,723.7975 890.51,723.7975 C890.51,723.7975 1204.51,813.7975 1204.51,813.7975 C1204.51,813.7975 1548.51,861.7975 1548.51,861.7975 C1548.51,861.7975 1556.3005,872.657 1580.0205,905.687" style="stroke:#181818;stroke-width:1;" fill="none" id="user-chq" codeLine="130"/><line x1="649.9966" y1="502.5519" x2="655.4844" y2="496.7309" style="stroke:#181818;stroke-width:1;"/><line x1="652.1794" y1="504.6098" x2="657.6673" y2="498.7889" style="stroke:#181818;stroke-width:1;"/><line x1="655.651" y1="502.3853" x2="649.83" y2="496.8975" style="stroke:#181818;stroke-width:1;"/><line x1="1585.8535" y1="913.8095" x2="1595.3935" y2="916.8077" style="stroke:#181818;stroke-width:1;"/><line x1="1585.8535" y1="913.8095" x2="1585.6465" y2="923.8073" style="stroke:#181818;stroke-width:1;"/><line x1="1585.8535" y1="913.8095" x2="1590.52" y2="920.3075" style="stroke:#181818;stroke-width:1;"/><ellipse cx="1582.3537" cy="908.936" rx="4" ry="4" fill="none" style="stroke:#181818;stroke-width:1;"/><text x="1219.51" y="797.0079" fill="#000000" font-size="11" lengthAdjust="spacing" textLength="29.7129" font-family="sans-serif">traite</text></g><!--link user to audit--><g class="link" data-entity-1="ent0001" data-entity-2="ent0009" id="lnk26" data-source-line="131" data-link-type="crowfoot"><path d="M478.8293,602.0712 C427.7093,726.9512 372.51,861.7975 372.51,861.7975 C372.51,861.7975 321.4491,1184.928 288.0991,1396.008" style="stroke:#181818;stroke-width:1;" fill="none" id="user-audit" codeLine="131"/><line x1="476.6428" y1="596.854" x2="484.0465" y2="599.8847" style="stroke:#181818;stroke-width:1;"/><line x1="475.5063" y1="599.6304" x2="482.91" y2="602.6611" style="stroke:#181818;stroke-width:1;"/><line x1="478.8293" y1="602.0712" x2="481.86" y2="594.6675" style="stroke:#181818;stroke-width:1;"/><line x1="286.5385" y1="1405.8855" x2="291.2165" y2="1414.7239" style="stroke:#181818;stroke-width:1;"/><line x1="286.5385" y1="1405.8855" x2="279.3635" y2="1412.8511" style="stroke:#181818;stroke-width:1;"/><line x1="286.5385" y1="1405.8855" x2="285.29" y2="1413.7875" style="stroke:#181818;stroke-width:1;"/><ellipse cx="287.4749" cy="1399.959" rx="4" ry="4" fill="none" style="stroke:#181818;stroke-width:1;"/><text x="387.51" y="1073.1079" fill="#000000" font-size="11" lengthAdjust="spacing" textLength="45.3804" font-family="sans-serif">effectue</text></g><!--link user to notif--><g class="link" data-entity-1="ent0001" data-entity-2="ent0008" id="lnk27" data-source-line="132" data-link-type="crowfoot"><path d="M576.6705,602.8384 C601.9305,857.2384 643.51,1275.9975 643.51,1275.9975 C643.51,1275.9975 840.4935,1647.8017 955.4335,1864.7617" style="stroke:#181818;stroke-width:1;" fill="none" id="user-notif" codeLine="132"/><line x1="572.2948" y1="599.2532" x2="580.2557" y2="598.4627" style="stroke:#181818;stroke-width:1;"/><line x1="572.5912" y1="602.2385" x2="580.5521" y2="601.448" style="stroke:#181818;stroke-width:1;"/><line x1="576.6705" y1="602.8384" x2="575.88" y2="594.8775" style="stroke:#181818;stroke-width:1;"/><line x1="960.1149" y1="1873.5983" x2="969.1619" y2="1877.8587" style="stroke:#181818;stroke-width:1;"/><line x1="960.1149" y1="1873.5983" x2="958.5581" y2="1883.4763" style="stroke:#181818;stroke-width:1;"/><line x1="960.1149" y1="1873.5983" x2="963.86" y2="1880.6675" style="stroke:#181818;stroke-width:1;"/><ellipse cx="957.3061" cy="1868.2963" rx="4" ry="4" fill="none" style="stroke:#181818;stroke-width:1;"/><text x="705.51" y="1349.2079" fill="#000000" font-size="11" lengthAdjust="spacing" textLength="31.437" font-family="sans-serif">reçoit</text></g><!--link account to bill--><g class="link" data-entity-1="ent0003" data-entity-2="ent0006" id="lnk30" data-source-line="135" data-link-type="crowfoot"><path d="M1446.9037,602.619 C1427.2037,691.759 1409.51,771.7975 1409.51,771.7975 C1409.51,771.7975 1409.51,813.7975 1409.51,813.7975 C1409.51,813.7975 1409.7089,864.1276 1409.9689,929.9176" style="stroke:#181818;stroke-width:1;" fill="none" id="account-bill" codeLine="135"/><line x1="1443.8611" y1="597.8501" x2="1451.6726" y2="599.5764" style="stroke:#181818;stroke-width:1;"/><line x1="1443.2137" y1="600.7794" x2="1451.0252" y2="602.5057" style="stroke:#181818;stroke-width:1;"/><line x1="1446.9037" y1="602.619" x2="1448.63" y2="594.8075" style="stroke:#181818;stroke-width:1;"/><line x1="1410.0084" y1="939.9176" x2="1416.04" y2="947.8938" style="stroke:#181818;stroke-width:1;"/><line x1="1410.0084" y1="939.9176" x2="1404.04" y2="947.9412" style="stroke:#181818;stroke-width:1;"/><line x1="1410.0084" y1="939.9176" x2="1410.04" y2="947.9175" style="stroke:#181818;stroke-width:1;"/><ellipse cx="1409.9847" cy="933.9176" rx="4" ry="4" fill="none" style="stroke:#181818;stroke-width:1;"/><text x="1424.51" y="797.0079" fill="#000000" font-size="11" lengthAdjust="spacing" textLength="54.6724" font-family="sans-serif">débite via</text></g><!--link bill to transaction--><g class="link" data-entity-1="ent0006" data-entity-2="ent0004" id="lnk33" data-source-line="138" data-link-type="association"><path d="M1379.2203,1197.8387 C1361.2503,1271.3487 1341.9604,1350.2165 1323.0904,1427.3765" style="stroke:#181818;stroke-width:1;" fill="none" id="bill-transaction" codeLine="138"/><line x1="1376.2846" y1="1193.0032" x2="1384.0557" y2="1194.9029" style="stroke:#181818;stroke-width:1;"/><line x1="1375.5722" y1="1195.9174" x2="1383.3433" y2="1197.8171" style="stroke:#181818;stroke-width:1;"/><line x1="1379.2203" y1="1197.8387" x2="1381.12" y2="1190.0675" style="stroke:#181818;stroke-width:1;"/><line x1="1326.0257" y1="1432.2122" x2="1318.2547" y2="1430.3118" style="stroke:#181818;stroke-width:1;"/><line x1="1326.7384" y1="1429.2981" x2="1318.9674" y2="1427.3977" style="stroke:#181818;stroke-width:1;"/><line x1="1323.0904" y1="1427.3765" x2="1321.19" y2="1435.1475" style="stroke:#181818;stroke-width:1;"/><text x="1359.51" y="1349.2079" fill="#000000" font-size="11" lengthAdjust="spacing" textLength="38.7793" font-family="sans-serif">génère</text></g><?plantuml-src ZLNDSjis4BxpAJ2v9EcC3cxIcLGtZYotx5XoOakdJiS34qi94n2WyQFOYJEJXyWxrBhd3VWcVP8k098cgKRDXIHsb_Y-tVqMiAeYLf4RPQqg2UCQSikLJCnxBYkgQKdCbZBrWSiDAQWmqFC8Bi7ULq0g9UxzekUJYe61YhpvfMVKLBxtnb_xHWO5TSAUAMcl-4SW9wzwpbHhzU79TT9pLPGnp-haTP9ORWMGnUoK_FFbAraeLZ_YEbSoXyew40X2c9AoteD94f0OVq-UhLVPUNQLhkRhosU46k8CQF8f8UGdmfaFAZYL5jUJ2JwahyzpPxdWXbfm6csbidxhYXe3v4M-vKMXw_tB9ZfNPIN0Rm0bvGBVkluc0D_UOu5Gh7MHV7vYD3lFvijL89CBZjOZT5nPxxLguj0movOH5vyLieXVBRAjzwBULribFJvb6f0oVd5PA8Fnga03Dbw245WZGeobrjbnZfNI5ZSSvjeQVJgxUeyM1bho-b677aYumutRg46w5uktgtb8b-QvSZ-KRoYTpmYLr-Tfb63UmB0vHBaTQEjqPyX5_IsiU_2hotHvbSvMsSKoSB2eJqE3_h_Feu4jKPFH6hO7IxRGm879DQ_25FN0pX1eVPdDezImu3lS_8ZSSXMo4Vm6EnAAcbDiuaPf7ZeubixRD9ilK3pN4IXMzOOByNq8R5-1DGMSaYSPZHBBCOYESy6-BTBbwVnwzllytRhDAT_U_b3xIYf3QhUE-lr2ReNI9RMa08UCmGu467WmQ7yBIsmLjr324r71TsWpGwBBYrLsbitIhiLI8Q__RIx-75fPuapGJMm3IFzoSBGmVroiBvVf-NMwFitY65F7-15LHxKro0IwUd3MMnmehDxxIJ8U-JdvJVkIaTVaZloSX2DiykUMCyJwI_FDraxQtZOdojZRJ5xIJk3OtvkA9EbqEuxoIak2t0xGjxU9byRO7bgHZ1ZZJICdtNGSK8xkW7L0D_eyMd-EH-u6z32Dw0xTIbhOXuV9H7tgZgOf7c76r8-emc60psxQANJeYuAR4Wtrtmht3kaslZxFAO6xUfyxFDhw8N7hgFQ18-eA_oeAlB7Tq3a6RJFuJroZdCxXU0oUQPRBAFTHOEZvr6lo1ZcI7QVZY9X3D_XTxOSRXCjQu-qKrjxty31YiS5BpLyg_m80?></g></svg>