<svg xmlns="http://www.w3.org/2000/svg" xmlns:xlink="http://www.w3.org/1999/xlink" contentStyleType="text/css" height="1005px" preserveAspectRatio="none" style="width:949px;height:1005px;background:#FFFFFF;" version="1.1" viewBox="0 0 949 1005" width="949px" zoomAndPan="magnify"><title>MCD &#8212; Mod&#232;le conceptuel de donn&#233;es</title><defs/><g><text fill="#000000" font-family="sans-serif" font-size="14" font-weight="bold" lengthAdjust="spacing" textLength="261.8027" x="336.6641" y="24.5332">MCD &#8212; Mod&#232;le conceptuel de donn&#233;es</text><!--class user--><g id="elem_user"><rect codeLine="6" fill="#F1F1F1" height="171.2656" id="user" rx="2.5" ry="2.5" style="stroke:#181818;stroke-width:0.5;" width="147.3857" x="608" y="382.6094"/><ellipse cx="633.9674" cy="398.6094" fill="#ADD1B2" rx="11" ry="11" style="stroke:#181818;stroke-width:1;"/><path d="M632.8268,399.4063 L632.8268,401.9063 L637.1549,401.9063 L637.1549,400.9844 Q637.1549,400.375 637.3893,400.1094 Q637.6393,399.8438 638.0143,399.8438 Q638.3893,399.8438 638.6237,400.1094 Q638.8581,400.375 638.8581,400.9844 L638.8581,403.6094 L630.8581,403.6094 Q630.2331,403.6094 629.9674,403.375 Q629.7174,403.1406 629.7174,402.75 Q629.7174,402.375 629.9831,402.1406 Q630.2487,401.9063 630.8581,401.9063 L631.1237,401.9063 L631.1237,395.25 L630.8581,395.25 Q630.2331,395.25 629.9674,395.0156 Q629.7174,394.7813 629.7174,394.3906 Q629.7174,394.0156 629.9674,393.7813 Q630.2331,393.5469 630.8581,393.5469 L638.4831,393.5469 L638.4831,396.1406 Q638.4831,396.75 638.2487,397.0156 Q638.0299,397.2656 637.6393,397.2656 Q637.2643,397.2656 637.0299,397.0156 Q636.7956,396.75 636.7956,396.1406 L636.7956,395.25 L632.8268,395.25 L632.8268,397.7031 L634.3112,397.7031 Q634.3112,397.0469 634.4362,396.8594 Q634.7018,396.4531 635.1706,396.4531 Q635.5456,396.4531 635.7799,396.7188 Q636.0143,396.9688 636.0143,397.5781 L636.0143,399.5469 Q636.0143,400.0938 635.8893,400.2813 Q635.6237,400.6719 635.1706,400.6719 Q634.7018,400.6719 634.4362,400.2656 Q634.3112,400.0781 634.3112,399.4063 L632.8268,399.4063 Z " fill="#000000"/><text fill="#000000" font-family="sans-serif" font-size="14" lengthAdjust="spacing" textLength="91.0137" x="650.4046" y="404.3379">UTILISATEUR</text><line style="stroke:#181818;stroke-width:0.5;" x1="609" x2="754.3857" y1="414.6094" y2="414.6094"/><ellipse cx="619" cy="428.9141" fill="#000000" rx="3" ry="3" style="stroke:#000000;stroke-width:1;"/><text fill="#000000" font-family="sans-serif" font-size="14" lengthAdjust="spacing" textLength="59.9307" x="628" y="433.1426">identifiant</text><line style="stroke:#181818;stroke-width:1;" x1="609" x2="754.3857" y1="440.2188" y2="440.2188"/><text fill="#000000" font-family="sans-serif" font-size="14" lengthAdjust="spacing" textLength="101.5" x="614" y="458.752">nom d'utilisateur</text><text fill="#000000" font-family="sans-serif" font-size="14" lengthAdjust="spacing" textLength="135.3857" x="614" y="476.3613">mot de passe (chiffr&#233;)</text><text fill="#000000" font-family="sans-serif" font-size="14" lengthAdjust="spacing" textLength="80.1445" x="614" y="493.9707">nom complet</text><text fill="#000000" font-family="sans-serif" font-size="14" lengthAdjust="spacing" textLength="33.4551" x="614" y="511.5801">email</text><text fill="#000000" font-family="sans-serif" font-size="14" lengthAdjust="spacing" textLength="23.3447" x="614" y="529.1895">r&#244;le</text><text fill="#000000" font-family="sans-serif" font-size="14" lengthAdjust="spacing" textLength="75.4756" x="614" y="546.7988">compte actif</text></g><!--class client--><g id="elem_client"><rect codeLine="17" fill="#F1F1F1" height="276.9219" id="client" rx="2.5" ry="2.5" style="stroke:#181818;stroke-width:0.5;" width="189.4063" x="329" y="45.6094"/><ellipse cx="394.5601" cy="61.6094" fill="#ADD1B2" rx="11" ry="11" style="stroke:#181818;stroke-width:1;"/><path d="M393.4194,62.4063 L393.4194,64.9063 L397.7476,64.9063 L397.7476,63.9844 Q397.7476,63.375 397.9819,63.1094 Q398.2319,62.8438 398.6069,62.8438 Q398.9819,62.8438 399.2163,63.1094 Q399.4507,63.375 399.4507,63.9844 L399.4507,66.6094 L391.4507,66.6094 Q390.8257,66.6094 390.5601,66.375 Q390.3101,66.1406 390.3101,65.75 Q390.3101,65.375 390.5757,65.1406 Q390.8413,64.9063 391.4507,64.9063 L391.7163,64.9063 L391.7163,58.25 L391.4507,58.25 Q390.8257,58.25 390.5601,58.0156 Q390.3101,57.7813 390.3101,57.3906 Q390.3101,57.0156 390.5601,56.7813 Q390.8257,56.5469 391.4507,56.5469 L399.0757,56.5469 L399.0757,59.1406 Q399.0757,59.75 398.8413,60.0156 Q398.6226,60.2656 398.2319,60.2656 Q397.8569,60.2656 397.6226,60.0156 Q397.3882,59.75 397.3882,59.1406 L397.3882,58.25 L393.4194,58.25 L393.4194,60.7031 L394.9038,60.7031 Q394.9038,60.0469 395.0288,59.8594 Q395.2944,59.4531 395.7632,59.4531 Q396.1382,59.4531 396.3726,59.7188 Q396.6069,59.9688 396.6069,60.5781 L396.6069,62.5469 Q396.6069,63.0938 396.4819,63.2813 Q396.2163,63.6719 395.7632,63.6719 Q395.2944,63.6719 395.0288,63.2656 Q394.9038,63.0781 394.9038,62.4063 L393.4194,62.4063 Z " fill="#000000"/><text fill="#000000" font-family="sans-serif" font-size="14" lengthAdjust="spacing" textLength="49.7861" x="415.0601" y="67.3379">CLIENT</text><line style="stroke:#181818;stroke-width:0.5;" x1="330" x2="517.4063" y1="77.6094" y2="77.6094"/><ellipse cx="340" cy="91.9141" fill="#000000" rx="3" ry="3" style="stroke:#000000;stroke-width:1;"/><text fill="#000000" font-family="sans-serif" font-size="14" lengthAdjust="spacing" textLength="59.9307" x="349" y="96.1426">identifiant</text><line style="stroke:#181818;stroke-width:1;" x1="330" x2="517.4063" y1="103.2188" y2="103.2188"/><text fill="#000000" font-family="sans-serif" font-size="14" lengthAdjust="spacing" textLength="84.041" x="335" y="121.752">num&#233;ro client</text><text fill="#000000" font-family="sans-serif" font-size="14" lengthAdjust="spacing" textLength="24.1104" x="335" y="139.3613">CIN</text><text fill="#000000" font-family="sans-serif" font-size="14" lengthAdjust="spacing" textLength="27.2344" x="335" y="156.9707">nom</text><text fill="#000000" font-family="sans-serif" font-size="14" lengthAdjust="spacing" textLength="47.4688" x="335" y="174.5801">pr&#233;nom</text><text fill="#000000" font-family="sans-serif" font-size="14" lengthAdjust="spacing" textLength="33.4551" x="335" y="192.1895">email</text><text fill="#000000" font-family="sans-serif" font-size="14" lengthAdjust="spacing" textLength="61.5029" x="335" y="209.7988">t&#233;l&#233;phone</text><text fill="#000000" font-family="sans-serif" font-size="14" lengthAdjust="spacing" textLength="49.8066" x="335" y="227.4082">adresse</text><text fill="#000000" font-family="sans-serif" font-size="14" lengthAdjust="spacing" textLength="134.6338" x="335" y="245.0176">infos professionnelles</text><text fill="#000000" font-family="sans-serif" font-size="14" lengthAdjust="spacing" textLength="34.2412" x="335" y="262.627">statut</text><text fill="#000000" font-family="sans-serif" font-size="14" lengthAdjust="spacing" textLength="177.4063" x="335" y="280.2363">mot de passe portail (chiffr&#233;)</text><text fill="#000000" font-family="sans-serif" font-size="14" lengthAdjust="spacing" textLength="78.5928" x="335" y="297.8457">portail activ&#233;</text><text fill="#000000" font-family="sans-serif" font-size="14" lengthAdjust="spacing" textLength="161.1025" x="335" y="315.4551">derni&#232;re connexion portail</text></g><!--class account--><g id="elem_account"><rect codeLine="34" fill="#F1F1F1" height="171.2656" id="account" rx="2.5" ry="2.5" style="stroke:#181818;stroke-width:0.5;" width="109.2686" x="200" y="382.6094"/><ellipse cx="222.8205" cy="398.6094" fill="#ADD1B2" rx="11" ry="11" style="stroke:#181818;stroke-width:1;"/><path d="M221.6799,399.4063 L221.6799,401.9063 L226.008,401.9063 L226.008,400.9844 Q226.008,400.375 226.2424,400.1094 Q226.4924,399.8438 226.8674,399.8438 Q227.2424,399.8438 227.4768,400.1094 Q227.7111,400.375 227.7111,400.9844 L227.7111,403.6094 L219.7111,403.6094 Q219.0861,403.6094 218.8205,403.375 Q218.5705,403.1406 218.5705,402.75 Q218.5705,402.375 218.8361,402.1406 Q219.1018,401.9063 219.7111,401.9063 L219.9768,401.9063 L219.9768,395.25 L219.7111,395.25 Q219.0861,395.25 218.8205,395.0156 Q218.5705,394.7813 218.5705,394.3906 Q218.5705,394.0156 218.8205,393.7813 Q219.0861,393.5469 219.7111,393.5469 L227.3361,393.5469 L227.3361,396.1406 Q227.3361,396.75 227.1018,397.0156 Q226.883,397.2656 226.4924,397.2656 Q226.1174,397.2656 225.883,397.0156 Q225.6486,396.75 225.6486,396.1406 L225.6486,395.25 L221.6799,395.25 L221.6799,397.7031 L223.1643,397.7031 Q223.1643,397.0469 223.2893,396.8594 Q223.5549,396.4531 224.0236,396.4531 Q224.3986,396.4531 224.633,396.7188 Q224.8674,396.9688 224.8674,397.5781 L224.8674,399.5469 Q224.8674,400.0938 224.7424,400.2813 Q224.4768,400.6719 224.0236,400.6719 Q223.5549,400.6719 223.2893,400.2656 Q223.1643,400.0781 223.1643,399.4063 L221.6799,399.4063 Z " fill="#000000"/><text fill="#000000" font-family="sans-serif" font-size="14" lengthAdjust="spacing" textLength="59.8896" x="238.5584" y="404.3379">COMPTE</text><line style="stroke:#181818;stroke-width:0.5;" x1="201" x2="308.2686" y1="414.6094" y2="414.6094"/><ellipse cx="211" cy="428.9141" fill="#000000" rx="3" ry="3" style="stroke:#000000;stroke-width:1;"/><text fill="#000000" font-family="sans-serif" font-size="14" lengthAdjust="spacing" textLength="59.9307" x="220" y="433.1426">identifiant</text><line style="stroke:#181818;stroke-width:1;" x1="201" x2="308.2686" y1="440.2188" y2="440.2188"/><text fill="#000000" font-family="sans-serif" font-size="14" lengthAdjust="spacing" textLength="97.2686" x="206" y="458.752">num&#233;ro compte</text><text fill="#000000" font-family="sans-serif" font-size="14" lengthAdjust="spacing" textLength="26.4619" x="206" y="476.3613">type</text><text fill="#000000" font-family="sans-serif" font-size="14" lengthAdjust="spacing" textLength="34.2412" x="206" y="493.9707">statut</text><text fill="#000000" font-family="sans-serif" font-size="14" lengthAdjust="spacing" textLength="33.4688" x="206" y="511.5801">solde</text><text fill="#000000" font-family="sans-serif" font-size="14" lengthAdjust="spacing" textLength="90.2822" x="206" y="529.1895">date ouverture</text><text fill="#000000" font-family="sans-serif" font-size="14" lengthAdjust="spacing" textLength="73.1582" x="206" y="546.7988">date cl&#244;ture</text></g><!--class transaction--><g id="elem_transaction"><rect codeLine="45" fill="#F1F1F1" height="136.0469" id="transaction" rx="2.5" ry="2.5" style="stroke:#181818;stroke-width:0.5;" width="132.3379" x="188.5" y="862.6094"/><ellipse cx="203.5" cy="878.6094" fill="#ADD1B2" rx="11" ry="11" style="stroke:#181818;stroke-width:1;"/><path d="M202.3594,879.4063 L202.3594,881.9063 L206.6875,881.9063 L206.6875,880.9844 Q206.6875,880.375 206.9219,880.1094 Q207.1719,879.8438 207.5469,879.8438 Q207.9219,879.8438 208.1563,880.1094 Q208.3906,880.375 208.3906,880.9844 L208.3906,883.6094 L200.3906,883.6094 Q199.7656,883.6094 199.5,883.375 Q199.25,883.1406 199.25,882.75 Q199.25,882.375 199.5156,882.1406 Q199.7813,881.9063 200.3906,881.9063 L200.6563,881.9063 L200.6563,875.25 L200.3906,875.25 Q199.7656,875.25 199.5,875.0156 Q199.25,874.7813 199.25,874.3906 Q199.25,874.0156 199.5,873.7813 Q199.7656,873.5469 200.3906,873.5469 L208.0156,873.5469 L208.0156,876.1406 Q208.0156,876.75 207.7813,877.0156 Q207.5625,877.2656 207.1719,877.2656 Q206.7969,877.2656 206.5625,877.0156 Q206.3281,876.75 206.3281,876.1406 L206.3281,875.25 L202.3594,875.25 L202.3594,877.7031 L203.8438,877.7031 Q203.8438,877.0469 203.9688,876.8594 Q204.2344,876.4531 204.7031,876.4531 Q205.0781,876.4531 205.3125,876.7188 Q205.5469,876.9688 205.5469,877.5781 L205.5469,879.5469 Q205.5469,880.0938 205.4219,880.2813 Q205.1563,880.6719 204.7031,880.6719 Q204.2344,880.6719 203.9688,880.2656 Q203.8438,880.0781 203.8438,879.4063 L202.3594,879.4063 Z " fill="#000000"/><text fill="#000000" font-family="sans-serif" font-size="14" lengthAdjust="spacing" textLength="100.3379" x="217.5" y="884.3379">TRANSACTION</text><line style="stroke:#181818;stroke-width:0.5;" x1="189.5" x2="319.8379" y1="894.6094" y2="894.6094"/><ellipse cx="199.5" cy="908.9141" fill="#000000" rx="3" ry="3" style="stroke:#000000;stroke-width:1;"/><text fill="#000000" font-family="sans-serif" font-size="14" lengthAdjust="spacing" textLength="59.9307" x="208.5" y="913.1426">identifiant</text><line style="stroke:#181818;stroke-width:1;" x1="189.5" x2="319.8379" y1="920.2188" y2="920.2188"/><text fill="#000000" font-family="sans-serif" font-size="14" lengthAdjust="spacing" textLength="26.4619" x="194.5" y="938.752">type</text><text fill="#000000" font-family="sans-serif" font-size="14" lengthAdjust="spacing" textLength="50.5859" x="194.5" y="956.3613">montant</text><text fill="#000000" font-family="sans-serif" font-size="14" lengthAdjust="spacing" textLength="82.5098" x="194.5" y="973.9707">date et heure</text><text fill="#000000" font-family="sans-serif" font-size="14" lengthAdjust="spacing" textLength="67.7031" x="194.5" y="991.5801">description</text></g><!--class provider--><g id="elem_provider"><rect codeLine="54" fill="#F1F1F1" height="136.0469" id="provider" rx="2.5" ry="2.5" style="stroke:#181818;stroke-width:0.5;" width="112.1104" x="39.5" y="400.1094"/><ellipse cx="54.5" cy="416.1094" fill="#ADD1B2" rx="11" ry="11" style="stroke:#181818;stroke-width:1;"/><path d="M53.3594,416.9063 L53.3594,419.4063 L57.6875,419.4063 L57.6875,418.4844 Q57.6875,417.875 57.9219,417.6094 Q58.1719,417.3438 58.5469,417.3438 Q58.9219,417.3438 59.1563,417.6094 Q59.3906,417.875 59.3906,418.4844 L59.3906,421.1094 L51.3906,421.1094 Q50.7656,421.1094 50.5,420.875 Q50.25,420.6406 50.25,420.25 Q50.25,419.875 50.5156,419.6406 Q50.7813,419.4063 51.3906,419.4063 L51.6563,419.4063 L51.6563,412.75 L51.3906,412.75 Q50.7656,412.75 50.5,412.5156 Q50.25,412.2813 50.25,411.8906 Q50.25,411.5156 50.5,411.2813 Q50.7656,411.0469 51.3906,411.0469 L59.0156,411.0469 L59.0156,413.6406 Q59.0156,414.25 58.7813,414.5156 Q58.5625,414.7656 58.1719,414.7656 Q57.7969,414.7656 57.5625,414.5156 Q57.3281,414.25 57.3281,413.6406 L57.3281,412.75 L53.3594,412.75 L53.3594,415.2031 L54.8438,415.2031 Q54.8438,414.5469 54.9688,414.3594 Q55.2344,413.9531 55.7031,413.9531 Q56.0781,413.9531 56.3125,414.2188 Q56.5469,414.4688 56.5469,415.0781 L56.5469,417.0469 Q56.5469,417.5938 56.4219,417.7813 Q56.1563,418.1719 55.7031,418.1719 Q55.2344,418.1719 54.9688,417.7656 Q54.8438,417.5781 54.8438,416.9063 L53.3594,416.9063 Z " fill="#000000"/><text fill="#000000" font-family="sans-serif" font-size="14" lengthAdjust="spacing" textLength="80.1104" x="68.5" y="421.8379">FACTURIER</text><line style="stroke:#181818;stroke-width:0.5;" x1="40.5" x2="150.6104" y1="432.1094" y2="432.1094"/><ellipse cx="50.5" cy="446.4141" fill="#000000" rx="3" ry="3" style="stroke:#000000;stroke-width:1;"/><text fill="#000000" font-family="sans-serif" font-size="14" lengthAdjust="spacing" textLength="59.9307" x="59.5" y="450.6426">identifiant</text><line style="stroke:#181818;stroke-width:1;" x1="40.5" x2="150.6104" y1="457.7188" y2="457.7188"/><text fill="#000000" font-family="sans-serif" font-size="14" lengthAdjust="spacing" textLength="30.3584" x="45.5" y="476.252">code</text><text fill="#000000" font-family="sans-serif" font-size="14" lengthAdjust="spacing" textLength="35.7998" x="45.5" y="493.8613">libell&#233;</text><text fill="#000000" font-family="sans-serif" font-size="14" lengthAdjust="spacing" textLength="57.5928" x="45.5" y="511.4707">cat&#233;gorie</text><text fill="#000000" font-family="sans-serif" font-size="14" lengthAdjust="spacing" textLength="25.6758" x="45.5" y="529.0801">actif</text></g><!--class bill--><g id="elem_bill"><rect codeLine="63" fill="#F1F1F1" height="118.4375" id="bill" rx="2.5" ry="2.5" style="stroke:#181818;stroke-width:0.5;" width="177.4619" x="7" y="649.1094"/><ellipse cx="22" cy="665.1094" fill="#ADD1B2" rx="11" ry="11" style="stroke:#181818;stroke-width:1;"/><path d="M20.8594,665.9063 L20.8594,668.4063 L25.1875,668.4063 L25.1875,667.4844 Q25.1875,666.875 25.4219,666.6094 Q25.6719,666.3438 26.0469,666.3438 Q26.4219,666.3438 26.6563,666.6094 Q26.8906,666.875 26.8906,667.4844 L26.8906,670.1094 L18.8906,670.1094 Q18.2656,670.1094 18,669.875 Q17.75,669.6406 17.75,669.25 Q17.75,668.875 18.0156,668.6406 Q18.2813,668.4063 18.8906,668.4063 L19.1563,668.4063 L19.1563,661.75 L18.8906,661.75 Q18.2656,661.75 18,661.5156 Q17.75,661.2813 17.75,660.8906 Q17.75,660.5156 18,660.2813 Q18.2656,660.0469 18.8906,660.0469 L26.5156,660.0469 L26.5156,662.6406 Q26.5156,663.25 26.2813,663.5156 Q26.0625,663.7656 25.6719,663.7656 Q25.2969,663.7656 25.0625,663.5156 Q24.8281,663.25 24.8281,662.6406 L24.8281,661.75 L20.8594,661.75 L20.8594,664.2031 L22.3438,664.2031 Q22.3438,663.5469 22.4688,663.3594 Q22.7344,662.9531 23.2031,662.9531 Q23.5781,662.9531 23.8125,663.2188 Q24.0469,663.4688 24.0469,664.0781 L24.0469,666.0469 Q24.0469,666.5938 23.9219,666.7813 Q23.6563,667.1719 23.2031,667.1719 Q22.7344,667.1719 22.4688,666.7656 Q22.3438,666.5781 22.3438,665.9063 L20.8594,665.9063 Z " fill="#000000"/><text fill="#000000" font-family="sans-serif" font-size="14" lengthAdjust="spacing" textLength="145.4619" x="36" y="670.8379">PAIEMENT_FACTURE</text><line style="stroke:#181818;stroke-width:0.5;" x1="8" x2="183.4619" y1="681.1094" y2="681.1094"/><ellipse cx="18" cy="695.4141" fill="#000000" rx="3" ry="3" style="stroke:#000000;stroke-width:1;"/><text fill="#000000" font-family="sans-serif" font-size="14" lengthAdjust="spacing" textLength="59.9307" x="27" y="699.6426">identifiant</text><line style="stroke:#181818;stroke-width:1;" x1="8" x2="183.4619" y1="706.7188" y2="706.7188"/><text fill="#000000" font-family="sans-serif" font-size="14" lengthAdjust="spacing" textLength="95.7168" x="13" y="725.252">r&#233;f&#233;rence client</text><text fill="#000000" font-family="sans-serif" font-size="14" lengthAdjust="spacing" textLength="50.5859" x="13" y="742.8613">montant</text><text fill="#000000" font-family="sans-serif" font-size="14" lengthAdjust="spacing" textLength="80.9443" x="13" y="760.4707">date cr&#233;ation</text></g><!--class chq--><g id="elem_chq"><rect codeLine="71" fill="#F1F1F1" height="188.875" id="chq" rx="2.5" ry="2.5" style="stroke:#181818;stroke-width:0.5;" width="196.9033" x="325" y="613.6094"/><ellipse cx="340" cy="629.6094" fill="#ADD1B2" rx="11" ry="11" style="stroke:#181818;stroke-width:1;"/><path d="M338.8594,630.4063 L338.8594,632.9063 L343.1875,632.9063 L343.1875,631.9844 Q343.1875,631.375 343.4219,631.1094 Q343.6719,630.8438 344.0469,630.8438 Q344.4219,630.8438 344.6563,631.1094 Q344.8906,631.375 344.8906,631.9844 L344.8906,634.6094 L336.8906,634.6094 Q336.2656,634.6094 336,634.375 Q335.75,634.1406 335.75,633.75 Q335.75,633.375 336.0156,633.1406 Q336.2813,632.9063 336.8906,632.9063 L337.1563,632.9063 L337.1563,626.25 L336.8906,626.25 Q336.2656,626.25 336,626.0156 Q335.75,625.7813 335.75,625.3906 Q335.75,625.0156 336,624.7813 Q336.2656,624.5469 336.8906,624.5469 L344.5156,624.5469 L344.5156,627.1406 Q344.5156,627.75 344.2813,628.0156 Q344.0625,628.2656 343.6719,628.2656 Q343.2969,628.2656 343.0625,628.0156 Q342.8281,627.75 342.8281,627.1406 L342.8281,626.25 L338.8594,626.25 L338.8594,628.7031 L340.3438,628.7031 Q340.3438,628.0469 340.4688,627.8594 Q340.7344,627.4531 341.2031,627.4531 Q341.5781,627.4531 341.8125,627.7188 Q342.0469,627.9688 342.0469,628.5781 L342.0469,630.5469 Q342.0469,631.0938 341.9219,631.2813 Q341.6563,631.6719 341.2031,631.6719 Q340.7344,631.6719 340.4688,631.2656 Q340.3438,631.0781 340.3438,630.4063 L338.8594,630.4063 Z " fill="#000000"/><text fill="#000000" font-family="sans-serif" font-size="14" lengthAdjust="spacing" textLength="164.9033" x="354" y="635.3379">COMMANDE_CHEQUIER</text><line style="stroke:#181818;stroke-width:0.5;" x1="326" x2="520.9033" y1="645.6094" y2="645.6094"/><ellipse cx="336" cy="659.9141" fill="#000000" rx="3" ry="3" style="stroke:#000000;stroke-width:1;"/><text fill="#000000" font-family="sans-serif" font-size="14" lengthAdjust="spacing" textLength="59.9307" x="345" y="664.1426">identifiant</text><line style="stroke:#181818;stroke-width:1;" x1="326" x2="520.9033" y1="671.2188" y2="671.2188"/><text fill="#000000" font-family="sans-serif" font-size="14" lengthAdjust="spacing" textLength="120.6133" x="331" y="689.752">num&#233;ro commande</text><text fill="#000000" font-family="sans-serif" font-size="14" lengthAdjust="spacing" textLength="49.8203" x="331" y="707.3613">quantit&#233;</text><text fill="#000000" font-family="sans-serif" font-size="14" lengthAdjust="spacing" textLength="91.0342" x="331" y="724.9707">format feuillets</text><text fill="#000000" font-family="sans-serif" font-size="14" lengthAdjust="spacing" textLength="34.2412" x="331" y="742.5801">statut</text><text fill="#000000" font-family="sans-serif" font-size="14" lengthAdjust="spacing" textLength="89.5166" x="331" y="760.1895">date demande</text><text fill="#000000" font-family="sans-serif" font-size="14" lengthAdjust="spacing" textLength="93.3857" x="331" y="777.7988">date traitement</text><text fill="#000000" font-family="sans-serif" font-size="14" lengthAdjust="spacing" textLength="82.4893" x="331" y="795.4082">date livraison</text></g><!--class audit--><g id="elem_audit"><rect codeLine="83" fill="#F1F1F1" height="153.6563" id="audit" rx="2.5" ry="2.5" style="stroke:#181818;stroke-width:0.5;" width="147.1309" x="795" y="631.1094"/><ellipse cx="810" cy="647.1094" fill="#ADD1B2" rx="11" ry="11" style="stroke:#181818;stroke-width:1;"/><path d="M808.8594,647.9063 L808.8594,650.4063 L813.1875,650.4063 L813.1875,649.4844 Q813.1875,648.875 813.4219,648.6094 Q813.6719,648.3438 814.0469,648.3438 Q814.4219,648.3438 814.6563,648.6094 Q814.8906,648.875 814.8906,649.4844 L814.8906,652.1094 L806.8906,652.1094 Q806.2656,652.1094 806,651.875 Q805.75,651.6406 805.75,651.25 Q805.75,650.875 806.0156,650.6406 Q806.2813,650.4063 806.8906,650.4063 L807.1563,650.4063 L807.1563,643.75 L806.8906,643.75 Q806.2656,643.75 806,643.5156 Q805.75,643.2813 805.75,642.8906 Q805.75,642.5156 806,642.2813 Q806.2656,642.0469 806.8906,642.0469 L814.5156,642.0469 L814.5156,644.6406 Q814.5156,645.25 814.2813,645.5156 Q814.0625,645.7656 813.6719,645.7656 Q813.2969,645.7656 813.0625,645.5156 Q812.8281,645.25 812.8281,644.6406 L812.8281,643.75 L808.8594,643.75 L808.8594,646.2031 L810.3438,646.2031 Q810.3438,645.5469 810.4688,645.3594 Q810.7344,644.9531 811.2031,644.9531 Q811.5781,644.9531 811.8125,645.2188 Q812.0469,645.4688 812.0469,646.0781 L812.0469,648.0469 Q812.0469,648.5938 811.9219,648.7813 Q811.6563,649.1719 811.2031,649.1719 Q810.7344,649.1719 810.4688,648.7656 Q810.3438,648.5781 810.3438,647.9063 L808.8594,647.9063 Z " fill="#000000"/><text fill="#000000" font-family="sans-serif" font-size="14" lengthAdjust="spacing" textLength="115.1309" x="824" y="652.8379">JOURNAL_AUDIT</text><line style="stroke:#181818;stroke-width:0.5;" x1="796" x2="941.1309" y1="663.1094" y2="663.1094"/><ellipse cx="806" cy="677.4141" fill="#000000" rx="3" ry="3" style="stroke:#000000;stroke-width:1;"/><text fill="#000000" font-family="sans-serif" font-size="14" lengthAdjust="spacing" textLength="59.9307" x="815" y="681.6426">identifiant</text><line style="stroke:#181818;stroke-width:1;" x1="796" x2="941.1309" y1="688.7188" y2="688.7188"/><text fill="#000000" font-family="sans-serif" font-size="14" lengthAdjust="spacing" textLength="37.3584" x="801" y="707.252">action</text><text fill="#000000" font-family="sans-serif" font-size="14" lengthAdjust="spacing" textLength="64.5996" x="801" y="724.8613">type entit&#233;</text><text fill="#000000" font-family="sans-serif" font-size="14" lengthAdjust="spacing" textLength="49.0342" x="801" y="742.4707">id entit&#233;</text><text fill="#000000" font-family="sans-serif" font-size="14" lengthAdjust="spacing" textLength="82.5098" x="801" y="760.0801">date et heure</text><text fill="#000000" font-family="sans-serif" font-size="14" lengthAdjust="spacing" textLength="40.4688" x="801" y="777.6895">d&#233;tails</text></g><!--class notif--><g id="elem_notif"><rect codeLine="93" fill="#F1F1F1" height="171.2656" id="notif" rx="2.5" ry="2.5" style="stroke:#181818;stroke-width:0.5;" width="130.7725" x="557" y="622.6094"/><ellipse cx="572" cy="638.6094" fill="#ADD1B2" rx="11" ry="11" style="stroke:#181818;stroke-width:1;"/><path d="M570.8594,639.4063 L570.8594,641.9063 L575.1875,641.9063 L575.1875,640.9844 Q575.1875,640.375 575.4219,640.1094 Q575.6719,639.8438 576.0469,639.8438 Q576.4219,639.8438 576.6563,640.1094 Q576.8906,640.375 576.8906,640.9844 L576.8906,643.6094 L568.8906,643.6094 Q568.2656,643.6094 568,643.375 Q567.75,643.1406 567.75,642.75 Q567.75,642.375 568.0156,642.1406 Q568.2813,641.9063 568.8906,641.9063 L569.1563,641.9063 L569.1563,635.25 L568.8906,635.25 Q568.2656,635.25 568,635.0156 Q567.75,634.7813 567.75,634.3906 Q567.75,634.0156 568,633.7813 Q568.2656,633.5469 568.8906,633.5469 L576.5156,633.5469 L576.5156,636.1406 Q576.5156,636.75 576.2813,637.0156 Q576.0625,637.2656 575.6719,637.2656 Q575.2969,637.2656 575.0625,637.0156 Q574.8281,636.75 574.8281,636.1406 L574.8281,635.25 L570.8594,635.25 L570.8594,637.7031 L572.3438,637.7031 Q572.3438,637.0469 572.4688,636.8594 Q572.7344,636.4531 573.2031,636.4531 Q573.5781,636.4531 573.8125,636.7188 Q574.0469,636.9688 574.0469,637.5781 L574.0469,639.5469 Q574.0469,640.0938 573.9219,640.2813 Q573.6563,640.6719 573.2031,640.6719 Q572.7344,640.6719 572.4688,640.2656 Q572.3438,640.0781 572.3438,639.4063 L570.8594,639.4063 Z " fill="#000000"/><text fill="#000000" font-family="sans-serif" font-size="14" lengthAdjust="spacing" textLength="98.7725" x="586" y="644.3379">NOTIFICATION</text><line style="stroke:#181818;stroke-width:0.5;" x1="558" x2="686.7725" y1="654.6094" y2="654.6094"/><ellipse cx="568" cy="668.9141" fill="#000000" rx="3" ry="3" style="stroke:#000000;stroke-width:1;"/><text fill="#000000" font-family="sans-serif" font-size="14" lengthAdjust="spacing" textLength="59.9307" x="577" y="673.1426">identifiant</text><line style="stroke:#181818;stroke-width:1;" x1="558" x2="686.7725" y1="680.2188" y2="680.2188"/><text fill="#000000" font-family="sans-serif" font-size="14" lengthAdjust="spacing" textLength="26.4619" x="563" y="698.752">type</text><text fill="#000000" font-family="sans-serif" font-size="14" lengthAdjust="spacing" textLength="23.3379" x="563" y="716.3613">titre</text><text fill="#000000" font-family="sans-serif" font-size="14" lengthAdjust="spacing" textLength="56.8066" x="563" y="733.9707">message</text><text fill="#000000" font-family="sans-serif" font-size="14" lengthAdjust="spacing" textLength="21.793" x="563" y="751.5801">lien</text><text fill="#000000" font-family="sans-serif" font-size="14" lengthAdjust="spacing" textLength="18.6826" x="563" y="769.1895">lue</text><text fill="#000000" font-family="sans-serif" font-size="14" lengthAdjust="spacing" textLength="80.9443" x="563" y="786.7988">date cr&#233;ation</text></g><!--link client to account--><g id="link_client_account"><path codeLine="104" d="M392,330.6994 C392,390.7694 392,439.6094 392,439.6094 C392,439.6094 365.58,439.6094 327.24,439.6094 " fill="none" id="client-account" style="stroke:#181818;stroke-width:1;"/><line style="stroke:#181818;stroke-width:1;" x1="388" x2="396" y1="326.6994" y2="326.6994"/><line style="stroke:#181818;stroke-width:1;" x1="388" x2="396" y1="329.6994" y2="329.6994"/><line style="stroke:#181818;stroke-width:1;" x1="392" x2="392" y1="330.6994" y2="322.6994"/><line style="stroke:#181818;stroke-width:1;" x1="317.24" x2="309.24" y1="439.6094" y2="445.6094"/><line style="stroke:#181818;stroke-width:1;" x1="317.24" x2="309.24" y1="439.6094" y2="433.6094"/><line style="stroke:#181818;stroke-width:1;" x1="317.24" x2="309.24" y1="439.6094" y2="439.6094"/><ellipse cx="323.24" cy="439.6094" fill="none" rx="4" ry="4" style="stroke:#181818;stroke-width:1;"/><text fill="#000000" font-family="sans-serif" font-size="13" lengthAdjust="spacing" textLength="49.1499" x="342" y="419.0345">poss&#232;de</text></g><!--link client to chq--><g id="link_client_chq"><path codeLine="105" d="M455,330.8094 C455,422.5294 455,514.3694 455,595.4394 " fill="none" id="client-chq" style="stroke:#181818;stroke-width:1;"/><line style="stroke:#181818;stroke-width:1;" x1="451" x2="459" y1="326.8094" y2="326.8094"/><line style="stroke:#181818;stroke-width:1;" x1="451" x2="459" y1="329.8094" y2="329.8094"/><line style="stroke:#181818;stroke-width:1;" x1="455" x2="455" y1="330.8094" y2="322.8094"/><line style="stroke:#181818;stroke-width:1;" x1="455" x2="461" y1="605.4394" y2="613.4394"/><line style="stroke:#181818;stroke-width:1;" x1="455" x2="449" y1="605.4394" y2="613.4394"/><line style="stroke:#181818;stroke-width:1;" x1="455" x2="455" y1="605.4394" y2="613.4394"/><ellipse cx="455" cy="599.4394" fill="none" rx="4" ry="4" style="stroke:#181818;stroke-width:1;"/><text fill="#000000" font-family="sans-serif" font-size="13" lengthAdjust="spacing" textLength="54.209" x="400" y="464.6245">demande</text></g><!--link client to notif--><g id="link_client_notif"><path codeLine="106" d="M526.29,184.6094 C560.34,184.6094 582.5,184.6094 582.5,184.6094 C582.5,184.6094 582.5,456.1194 582.5,604.5394 " fill="none" id="client-notif" style="stroke:#181818;stroke-width:1;"/><line style="stroke:#181818;stroke-width:1;" x1="522.29" x2="522.29" y1="188.6094" y2="180.6094"/><line style="stroke:#181818;stroke-width:1;" x1="525.29" x2="525.29" y1="188.6094" y2="180.6094"/><line style="stroke:#181818;stroke-width:1;" x1="526.29" x2="518.29" y1="184.6094" y2="184.6094"/><line style="stroke:#181818;stroke-width:1;" x1="582.5" x2="588.5" y1="614.5394" y2="622.5394"/><line style="stroke:#181818;stroke-width:1;" x1="582.5" x2="576.5" y1="614.5394" y2="622.5394"/><line style="stroke:#181818;stroke-width:1;" x1="582.5" x2="582.5" y1="614.5394" y2="622.5394"/><ellipse cx="582.5" cy="608.5394" fill="none" rx="4" ry="4" style="stroke:#181818;stroke-width:1;"/><text fill="#000000" font-family="sans-serif" font-size="13" lengthAdjust="spacing" textLength="31.7891" x="550.5" y="367.9645">re&#231;oit</text></g><!--link user to transaction--><g id="link_user_transaction"><path codeLine="107" d="M599.72,496.6094 C492.63,496.6094 314.75,496.6094 314.75,496.6094 C314.75,496.6094 314.75,722.0994 314.75,844.3194 " fill="none" id="user-transaction" style="stroke:#181818;stroke-width:1;"/><line style="stroke:#181818;stroke-width:1;" x1="603.72" x2="603.72" y1="492.6094" y2="500.6094"/><line style="stroke:#181818;stroke-width:1;" x1="600.72" x2="600.72" y1="492.6094" y2="500.6094"/><line style="stroke:#181818;stroke-width:1;" x1="599.72" x2="607.72" y1="496.6094" y2="496.6094"/><line style="stroke:#181818;stroke-width:1;" x1="314.75" x2="320.75" y1="854.3194" y2="862.3194"/><line style="stroke:#181818;stroke-width:1;" x1="314.75" x2="308.75" y1="854.3194" y2="862.3194"/><line style="stroke:#181818;stroke-width:1;" x1="314.75" x2="314.75" y1="854.3194" y2="862.3194"/><ellipse cx="314.75" cy="848.3194" fill="none" rx="4" ry="4" style="stroke:#181818;stroke-width:1;"/><text fill="#000000" font-family="sans-serif" font-size="13" lengthAdjust="spacing" textLength="45.5317" x="315.75" y="529.4745">ex&#233;cute</text></g><!--link user to chq--><g id="link_user_chq"><path codeLine="108" d="M634.67,561.9094 C634.67,595.7094 634.67,618.6094 634.67,618.6094 C634.67,618.6094 595.24,618.6094 540.28,618.6094 " fill="none" id="user-chq" style="stroke:#181818;stroke-width:1;"/><line style="stroke:#181818;stroke-width:1;" x1="630.67" x2="638.67" y1="557.9094" y2="557.9094"/><line style="stroke:#181818;stroke-width:1;" x1="630.67" x2="638.67" y1="560.9094" y2="560.9094"/><line style="stroke:#181818;stroke-width:1;" x1="634.67" x2="634.67" y1="561.9094" y2="553.9094"/><line style="stroke:#181818;stroke-width:1;" x1="530.28" x2="522.28" y1="618.6094" y2="624.6094"/><line style="stroke:#181818;stroke-width:1;" x1="530.28" x2="522.28" y1="618.6094" y2="612.6094"/><line style="stroke:#181818;stroke-width:1;" x1="530.28" x2="522.28" y1="618.6094" y2="618.6094"/><ellipse cx="536.28" cy="618.6094" fill="none" rx="4" ry="4" style="stroke:#181818;stroke-width:1;"/><text fill="#000000" font-family="sans-serif" font-size="13" lengthAdjust="spacing" textLength="28.9009" x="581.82" y="615.1045">traite</text></g><!--link user to audit--><g id="link_user_audit"><path codeLine="109" d="M721.5,561.9194 C721.5,630.9894 721.5,708.6094 721.5,708.6094 C721.5,708.6094 739.96,708.6094 776.57,708.6094 " fill="none" id="user-audit" style="stroke:#181818;stroke-width:1;"/><line style="stroke:#181818;stroke-width:1;" x1="717.5" x2="725.5" y1="557.9194" y2="557.9194"/><line style="stroke:#181818;stroke-width:1;" x1="717.5" x2="725.5" y1="560.9194" y2="560.9194"/><line style="stroke:#181818;stroke-width:1;" x1="721.5" x2="721.5" y1="561.9194" y2="553.9194"/><line style="stroke:#181818;stroke-width:1;" x1="786.57" x2="794.57" y1="708.6094" y2="702.6094"/><line style="stroke:#181818;stroke-width:1;" x1="786.57" x2="794.57" y1="708.6094" y2="714.6094"/><line style="stroke:#181818;stroke-width:1;" x1="786.57" x2="794.57" y1="708.6094" y2="708.6094"/><ellipse cx="780.57" cy="708.6094" fill="none" rx="4" ry="4" style="stroke:#181818;stroke-width:1;"/><text fill="#000000" font-family="sans-serif" font-size="13" lengthAdjust="spacing" textLength="46.2554" x="722.5" y="664.2945">effectue</text></g><!--link user to notif--><g id="link_user_notif"><path codeLine="110" d="M661.33,561.7394 C661.33,584.0894 661.33,582.1694 661.33,604.5094 " fill="none" id="user-notif" style="stroke:#181818;stroke-width:1;"/><line style="stroke:#181818;stroke-width:1;" x1="657.33" x2="665.33" y1="557.7394" y2="557.7394"/><line style="stroke:#181818;stroke-width:1;" x1="657.33" x2="665.33" y1="560.7394" y2="560.7394"/><line style="stroke:#181818;stroke-width:1;" x1="661.33" x2="661.33" y1="561.7394" y2="553.7394"/><line style="stroke:#181818;stroke-width:1;" x1="661.33" x2="667.33" y1="614.5094" y2="622.5094"/><line style="stroke:#181818;stroke-width:1;" x1="661.33" x2="655.33" y1="614.5094" y2="622.5094"/><line style="stroke:#181818;stroke-width:1;" x1="661.33" x2="661.33" y1="614.5094" y2="622.5094"/><ellipse cx="661.33" cy="608.5094" fill="none" rx="4" ry="4" style="stroke:#181818;stroke-width:1;"/><text fill="#000000" font-family="sans-serif" font-size="13" lengthAdjust="spacing" textLength="31.7891" x="629.33" y="584.6245">re&#231;oit</text></g><!--link account to transaction--><g id="link_account_transaction"><path codeLine="111" d="M254.5,561.7494 C254.5,650.7894 254.5,762.3894 254.5,844.3694 " fill="none" id="account-transaction" style="stroke:#181818;stroke-width:1;"/><line style="stroke:#181818;stroke-width:1;" x1="250.5" x2="258.5" y1="557.7494" y2="557.7494"/><line style="stroke:#181818;stroke-width:1;" x1="250.5" x2="258.5" y1="560.7494" y2="560.7494"/><line style="stroke:#181818;stroke-width:1;" x1="254.5" x2="254.5" y1="561.7494" y2="553.7494"/><line style="stroke:#181818;stroke-width:1;" x1="254.5" x2="260.5" y1="854.3694" y2="862.3694"/><line style="stroke:#181818;stroke-width:1;" x1="254.5" x2="248.5" y1="854.3694" y2="862.3694"/><line style="stroke:#181818;stroke-width:1;" x1="254.5" x2="254.5" y1="854.3694" y2="862.3694"/><ellipse cx="254.5" cy="848.3694" fill="none" rx="4" ry="4" style="stroke:#181818;stroke-width:1;"/><text fill="#000000" font-family="sans-serif" font-size="13" lengthAdjust="spacing" textLength="39.019" x="214.5" y="704.5545">source</text></g><!--link account to transaction--><g id="link_account_transaction"><path codeLine="112" d="M227.25,561.7494 C227.25,650.7894 227.25,762.3894 227.25,844.3694 " fill="none" id="account-transaction-1" style="stroke:#181818;stroke-width:1;"/><line style="stroke:#181818;stroke-width:1;" x1="223.25" x2="231.25" y1="557.7494" y2="557.7494"/><line style="stroke:#181818;stroke-width:1;" x1="223.25" x2="231.25" y1="560.7494" y2="560.7494"/><line style="stroke:#181818;stroke-width:1;" x1="227.25" x2="227.25" y1="561.7494" y2="553.7494"/><line style="stroke:#181818;stroke-width:1;" x1="227.25" x2="233.25" y1="854.3694" y2="862.3694"/><line style="stroke:#181818;stroke-width:1;" x1="227.25" x2="221.25" y1="854.3694" y2="862.3694"/><line style="stroke:#181818;stroke-width:1;" x1="227.25" x2="227.25" y1="854.3694" y2="862.3694"/><ellipse cx="227.25" cy="848.3694" fill="none" rx="4" ry="4" style="stroke:#181818;stroke-width:1;"/><text fill="#000000" font-family="sans-serif" font-size="13" lengthAdjust="spacing" textLength="62.8799" x="228.25" y="722.5545">destination</text></g><!--link account to bill--><g id="link_account_bill"><path codeLine="113" d="M191.56,545.6094 C174.34,545.6094 167.75,545.6094 167.75,545.6094 C167.75,545.6094 167.75,584.5194 167.75,630.9794 " fill="none" id="account-bill" style="stroke:#181818;stroke-width:1;"/><line style="stroke:#181818;stroke-width:1;" x1="195.56" x2="195.56" y1="541.6094" y2="549.6094"/><line style="stroke:#181818;stroke-width:1;" x1="192.56" x2="192.56" y1="541.6094" y2="549.6094"/><line style="stroke:#181818;stroke-width:1;" x1="191.56" x2="199.56" y1="545.6094" y2="545.6094"/><line style="stroke:#181818;stroke-width:1;" x1="167.75" x2="173.75" y1="640.9794" y2="648.9794"/><line style="stroke:#181818;stroke-width:1;" x1="167.75" x2="161.75" y1="640.9794" y2="648.9794"/><line style="stroke:#181818;stroke-width:1;" x1="167.75" x2="167.75" y1="640.9794" y2="648.9794"/><ellipse cx="167.75" cy="634.9794" fill="none" rx="4" ry="4" style="stroke:#181818;stroke-width:1;"/><text fill="#000000" font-family="sans-serif" font-size="13" lengthAdjust="spacing" textLength="55.6499" x="111.75" y="577.8845">d&#233;bite via</text></g><!--link account to chq--><g id="link_account_chq"><path codeLine="114" d="M281.75,561.6894 C281.75,601.2494 281.75,631.6094 281.75,631.6094 C281.75,631.6094 282.66,631.6094 306.66,631.6094 " fill="none" id="account-chq" style="stroke:#181818;stroke-width:1;"/><line style="stroke:#181818;stroke-width:1;" x1="277.75" x2="285.75" y1="557.6894" y2="557.6894"/><line style="stroke:#181818;stroke-width:1;" x1="277.75" x2="285.75" y1="560.6894" y2="560.6894"/><line style="stroke:#181818;stroke-width:1;" x1="281.75" x2="281.75" y1="561.6894" y2="553.6894"/><line style="stroke:#181818;stroke-width:1;" x1="316.66" x2="324.66" y1="631.6094" y2="625.6094"/><line style="stroke:#181818;stroke-width:1;" x1="316.66" x2="324.66" y1="631.6094" y2="637.6094"/><line style="stroke:#181818;stroke-width:1;" x1="316.66" x2="324.66" y1="631.6094" y2="631.6094"/><ellipse cx="310.66" cy="631.6094" fill="none" rx="4" ry="4" style="stroke:#181818;stroke-width:1;"/><text fill="#000000" font-family="sans-serif" font-size="13" lengthAdjust="spacing" textLength="64.3081" x="216.75" y="610.6045">commande</text></g><!--link provider to bill--><g id="link_provider_bill"><path codeLine="115" d="M95.5,544.2394 C95.5,579.7194 95.5,596.6894 95.5,630.7794 " fill="none" id="provider-bill" style="stroke:#181818;stroke-width:1;"/><line style="stroke:#181818;stroke-width:1;" x1="91.5" x2="99.5" y1="540.2394" y2="540.2394"/><line style="stroke:#181818;stroke-width:1;" x1="91.5" x2="99.5" y1="543.2394" y2="543.2394"/><line style="stroke:#181818;stroke-width:1;" x1="95.5" x2="95.5" y1="544.2394" y2="536.2394"/><line style="stroke:#181818;stroke-width:1;" x1="95.5" x2="101.5" y1="640.7794" y2="648.7794"/><line style="stroke:#181818;stroke-width:1;" x1="95.5" x2="89.5" y1="640.7794" y2="648.7794"/><line style="stroke:#181818;stroke-width:1;" x1="95.5" x2="95.5" y1="640.7794" y2="648.7794"/><ellipse cx="95.5" cy="634.7794" fill="none" rx="4" ry="4" style="stroke:#181818;stroke-width:1;"/><text fill="#000000" font-family="sans-serif" font-size="13" lengthAdjust="spacing" textLength="53.479" x="41.5" y="589.0045">concerne</text></g><!--link bill to transaction--><g id="link_bill_transaction"><path codeLine="116" d="M192.05,708.6094 C198.33,708.6094 194.25,708.6094 194.25,708.6094 C194.25,708.6094 194.25,789.2394 194.25,854.4894 " fill="none" id="bill-transaction" style="stroke:#181818;stroke-width:1;"/><line style="stroke:#181818;stroke-width:1;" x1="188.05" x2="188.05" y1="712.6094" y2="704.6094"/><line style="stroke:#181818;stroke-width:1;" x1="191.05" x2="191.05" y1="712.6094" y2="704.6094"/><line style="stroke:#181818;stroke-width:1;" x1="192.05" x2="184.05" y1="708.6094" y2="708.6094"/><line style="stroke:#181818;stroke-width:1;" x1="198.25" x2="190.25" y1="858.4894" y2="858.4894"/><line style="stroke:#181818;stroke-width:1;" x1="198.25" x2="190.25" y1="855.4894" y2="855.4894"/><line style="stroke:#181818;stroke-width:1;" x1="194.25" x2="194.25" y1="854.4894" y2="862.4894"/><text fill="#000000" font-family="sans-serif" font-size="13" lengthAdjust="spacing" textLength="40.479" x="153.25" y="794.9445">g&#233;n&#232;re</text></g><!--SRC=[ZLLBRjim4Dth54Gt_G2-W7U2uw0gOZjrx7N0K2ERA4Kg_BW9uW8zHE_GQ9yRw2OzIOUah5XgucOZcJEZcVVcpT3c6vSLrRGaPajpzPtB3IceC92OpYEu17jV0L7QRbMIM6u5aDdaZFpv-OlCLDuyufafoQ2o3WJ9WUHAogO6aoGWCVwUl5klieliAbrDryjtX1hY36Zoa13oYV3S1nMSIeldqGWVKfKaV-yi5znG2qwZhLJMfwweCK0-i2ql2jtK7zjefifAW4y09UK2txfv4e1lxx50ACCQoOzdH9EBR3fV1J1CSBIUWEFAfjQgZKF399l7klYi44NyTQXicreqTRLLqjUdkGQ4ZB-uB9J1U5MWWMEBG0Zi4I76Kklia6E53SU4VQu7ewUpQsgqvA0bRnvrq4327IO-HFNeBcQNgscWInbJxaryG-iy8zJ_6ATH8lU67CKXokr0MwSx0nFDKpWVbLyjq_bLEbbbYtd0O3MLnfD0jA_YQCkMIjfe3Ud1aYsqvS0mpIkVvRZOEHPQBxDf73Li-0wJdnWtfW8RmMzGaT1KHb74ZT8yA3WSdSiqcyvmUAvZeTZL6ox4woLGlW9x2hWbpsCq8COmY0wve6wpT7uslPvyddvT7pYnxUsRv2kf3DHk7VNv0hT2wP9QKe13n61x0nXmv73uB1nHAcwXX6UWWk_GPlf0lopMotbwSPskpxAuLjJb_CIKHVLRcGbq-7X-TFX7yQRsassEAyyNg-mycwJTS4c5fVuxLlXnI5dYDj9D703mU8I35oLfhudzVZHI3zqMZN7RZ6aUiM7z0A_Hk6jctnSHZec6vhVYDWdNOUixNeqnWRkcPWwty3Wafex2z1onvVXLKG33sxZd71OzC7Ynhb5ECpWTW-jdkOpz6GI6RHXxkMuG8zbnEeo87BePxRQqdo3yhsYyICFP-_Rx0OeDth_-_al-0W00]--></g></svg>