<svg xmlns="http://www.w3.org/2000/svg" xmlns:xlink="http://www.w3.org/1999/xlink" contentStyleType="text/css" height="721px" preserveAspectRatio="none" style="width:336px;height:721px;background:#FFFFFF;" version="1.1" viewBox="0 0 336 721" width="336px" zoomAndPan="magnify"><title>MCD &#8212; Mod&#232;le conceptuel de donn&#233;es</title><defs/><g><text fill="#000000" font-family="sans-serif" font-size="14" font-weight="bold" lengthAdjust="spacing" textLength="261.8027" x="30.1641" y="24.5332">MCD &#8212; Mod&#232;le conceptuel de donn&#233;es</text><!--class user--><g id="elem_user"><rect codeLine="6" fill="#F1F1F1" height="171.2656" id="user" rx="2.5" ry="2.5" style="stroke:#181818;stroke-width:0.5;" width="147.3857" x="176" y="329.6094"/><ellipse cx="201.9674" cy="345.6094" fill="#ADD1B2" rx="11" ry="11" style="stroke:#181818;stroke-width:1;"/><path d="M200.8268,346.4063 L200.8268,348.9063 L205.1549,348.9063 L205.1549,347.9844 Q205.1549,347.375 205.3893,347.1094 Q205.6393,346.8438 206.0143,346.8438 Q206.3893,346.8438 206.6237,347.1094 Q206.8581,347.375 206.8581,347.9844 L206.8581,350.6094 L198.8581,350.6094 Q198.2331,350.6094 197.9674,350.375 Q197.7174,350.1406 197.7174,349.75 Q197.7174,349.375 197.9831,349.1406 Q198.2487,348.9063 198.8581,348.9063 L199.1237,348.9063 L199.1237,342.25 L198.8581,342.25 Q198.2331,342.25 197.9674,342.0156 Q197.7174,341.7813 197.7174,341.3906 Q197.7174,341.0156 197.9674,340.7813 Q198.2331,340.5469 198.8581,340.5469 L206.4831,340.5469 L206.4831,343.1406 Q206.4831,343.75 206.2487,344.0156 Q206.0299,344.2656 205.6393,344.2656 Q205.2643,344.2656 205.0299,344.0156 Q204.7956,343.75 204.7956,343.1406 L204.7956,342.25 L200.8268,342.25 L200.8268,344.7031 L202.3112,344.7031 Q202.3112,344.0469 202.4362,343.8594 Q202.7018,343.4531 203.1706,343.4531 Q203.5456,343.4531 203.7799,343.7188 Q204.0143,343.9688 204.0143,344.5781 L204.0143,346.5469 Q204.0143,347.0938 203.8893,347.2813 Q203.6237,347.6719 203.1706,347.6719 Q202.7018,347.6719 202.4362,347.2656 Q202.3112,347.0781 202.3112,346.4063 L200.8268,346.4063 Z " fill="#000000"/><text fill="#000000" font-family="sans-serif" font-size="14" lengthAdjust="spacing" textLength="91.0137" x="218.4046" y="351.3379">UTILISATEUR</text><line style="stroke:#181818;stroke-width:0.5;" x1="177" x2="322.3857" y1="361.6094" y2="361.6094"/><ellipse cx="187" cy="375.9141" fill="#000000" rx="3" ry="3" style="stroke:#000000;stroke-width:1;"/><text fill="#000000" font-family="sans-serif" font-size="14" lengthAdjust="spacing" textLength="59.9307" x="196" y="380.1426">identifiant</text><line style="stroke:#181818;stroke-width:1;" x1="177" x2="322.3857" y1="387.2188" y2="387.2188"/><text fill="#000000" font-family="sans-serif" font-size="14" lengthAdjust="spacing" textLength="101.5" x="182" y="405.752">nom d'utilisateur</text><text fill="#000000" font-family="sans-serif" font-size="14" lengthAdjust="spacing" textLength="135.3857" x="182" y="423.3613">mot de passe (chiffr&#233;)</text><text fill="#000000" font-family="sans-serif" font-size="14" lengthAdjust="spacing" textLength="80.1445" x="182" y="440.9707">nom complet</text><text fill="#000000" font-family="sans-serif" font-size="14" lengthAdjust="spacing" textLength="33.4551" x="182" y="458.5801">email</text><text fill="#000000" font-family="sans-serif" font-size="14" lengthAdjust="spacing" textLength="23.3447" x="182" y="476.1895">r&#244;le</text><text fill="#000000" font-family="sans-serif" font-size="14" lengthAdjust="spacing" textLength="75.4756" x="182" y="493.7988">compte actif</text></g><!--class client--><g id="elem_client"><rect codeLine="17" fill="#F1F1F1" height="224.0938" id="client" rx="2.5" ry="2.5" style="stroke:#181818;stroke-width:0.5;" width="146.6338" x="7" y="45.6094"/><ellipse cx="51.1814" cy="61.6094" fill="#ADD1B2" rx="11" ry="11" style="stroke:#181818;stroke-width:1;"/><path d="M50.0408,62.4063 L50.0408,64.9063 L54.3689,64.9063 L54.3689,63.9844 Q54.3689,63.375 54.6033,63.1094 Q54.8533,62.8438 55.2283,62.8438 Q55.6033,62.8438 55.8377,63.1094 Q56.0721,63.375 56.0721,63.9844 L56.0721,66.6094 L48.0721,66.6094 Q47.4471,66.6094 47.1814,66.375 Q46.9314,66.1406 46.9314,65.75 Q46.9314,65.375 47.1971,65.1406 Q47.4627,64.9063 48.0721,64.9063 L48.3377,64.9063 L48.3377,58.25 L48.0721,58.25 Q47.4471,58.25 47.1814,58.0156 Q46.9314,57.7813 46.9314,57.3906 Q46.9314,57.0156 47.1814,56.7813 Q47.4471,56.5469 48.0721,56.5469 L55.6971,56.5469 L55.6971,59.1406 Q55.6971,59.75 55.4627,60.0156 Q55.2439,60.2656 54.8533,60.2656 Q54.4783,60.2656 54.2439,60.0156 Q54.0096,59.75 54.0096,59.1406 L54.0096,58.25 L50.0408,58.25 L50.0408,60.7031 L51.5252,60.7031 Q51.5252,60.0469 51.6502,59.8594 Q51.9158,59.4531 52.3846,59.4531 Q52.7596,59.4531 52.9939,59.7188 Q53.2283,59.9688 53.2283,60.5781 L53.2283,62.5469 Q53.2283,63.0938 53.1033,63.2813 Q52.8377,63.6719 52.3846,63.6719 Q51.9158,63.6719 51.6502,63.2656 Q51.5252,63.0781 51.5252,62.4063 L50.0408,62.4063 Z " fill="#000000"/><text fill="#000000" font-family="sans-serif" font-size="14" lengthAdjust="spacing" textLength="49.7861" x="71.6662" y="67.3379">CLIENT</text><line style="stroke:#181818;stroke-width:0.5;" x1="8" x2="152.6338" y1="77.6094" y2="77.6094"/><ellipse cx="18" cy="91.9141" fill="#000000" rx="3" ry="3" style="stroke:#000000;stroke-width:1;"/><text fill="#000000" font-family="sans-serif" font-size="14" lengthAdjust="spacing" textLength="59.9307" x="27" y="96.1426">identifiant</text><line style="stroke:#181818;stroke-width:1;" x1="8" x2="152.6338" y1="103.2188" y2="103.2188"/><text fill="#000000" font-family="sans-serif" font-size="14" lengthAdjust="spacing" textLength="84.041" x="13" y="121.752">num&#233;ro client</text><text fill="#000000" font-family="sans-serif" font-size="14" lengthAdjust="spacing" textLength="24.1104" x="13" y="139.3613">CIN</text><text fill="#000000" font-family="sans-serif" font-size="14" lengthAdjust="spacing" textLength="27.2344" x="13" y="156.9707">nom</text><text fill="#000000" font-family="sans-serif" font-size="14" lengthAdjust="spacing" textLength="47.4688" x="13" y="174.5801">pr&#233;nom</text><text fill="#000000" font-family="sans-serif" font-size="14" lengthAdjust="spacing" textLength="33.4551" x="13" y="192.1895">email</text><text fill="#000000" font-family="sans-serif" font-size="14" lengthAdjust="spacing" textLength="61.5029" x="13" y="209.7988">t&#233;l&#233;phone</text><text fill="#000000" font-family="sans-serif" font-size="14" lengthAdjust="spacing" textLength="49.8066" x="13" y="227.4082">adresse</text><text fill="#000000" font-family="sans-serif" font-size="14" lengthAdjust="spacing" textLength="134.6338" x="13" y="245.0176">infos professionnelles</text><text fill="#000000" font-family="sans-serif" font-size="14" lengthAdjust="spacing" textLength="34.2412" x="13" y="262.627">statut</text></g><!--class account--><g id="elem_account"><rect codeLine="31" fill="#F1F1F1" height="171.2656" id="account" rx="2.5" ry="2.5" style="stroke:#181818;stroke-width:0.5;" width="109.2686" x="26" y="329.6094"/><ellipse cx="48.8205" cy="345.6094" fill="#ADD1B2" rx="11" ry="11" style="stroke:#181818;stroke-width:1;"/><path d="M47.6799,346.4063 L47.6799,348.9063 L52.008,348.9063 L52.008,347.9844 Q52.008,347.375 52.2424,347.1094 Q52.4924,346.8438 52.8674,346.8438 Q53.2424,346.8438 53.4768,347.1094 Q53.7111,347.375 53.7111,347.9844 L53.7111,350.6094 L45.7111,350.6094 Q45.0861,350.6094 44.8205,350.375 Q44.5705,350.1406 44.5705,349.75 Q44.5705,349.375 44.8361,349.1406 Q45.1018,348.9063 45.7111,348.9063 L45.9768,348.9063 L45.9768,342.25 L45.7111,342.25 Q45.0861,342.25 44.8205,342.0156 Q44.5705,341.7813 44.5705,341.3906 Q44.5705,341.0156 44.8205,340.7813 Q45.0861,340.5469 45.7111,340.5469 L53.3361,340.5469 L53.3361,343.1406 Q53.3361,343.75 53.1018,344.0156 Q52.883,344.2656 52.4924,344.2656 Q52.1174,344.2656 51.883,344.0156 Q51.6486,343.75 51.6486,343.1406 L51.6486,342.25 L47.6799,342.25 L47.6799,344.7031 L49.1643,344.7031 Q49.1643,344.0469 49.2893,343.8594 Q49.5549,343.4531 50.0236,343.4531 Q50.3986,343.4531 50.633,343.7188 Q50.8674,343.9688 50.8674,344.5781 L50.8674,346.5469 Q50.8674,347.0938 50.7424,347.2813 Q50.4768,347.6719 50.0236,347.6719 Q49.5549,347.6719 49.2893,347.2656 Q49.1643,347.0781 49.1643,346.4063 L47.6799,346.4063 Z " fill="#000000"/><text fill="#000000" font-family="sans-serif" font-size="14" lengthAdjust="spacing" textLength="59.8896" x="64.5584" y="351.3379">COMPTE</text><line style="stroke:#181818;stroke-width:0.5;" x1="27" x2="134.2686" y1="361.6094" y2="361.6094"/><ellipse cx="37" cy="375.9141" fill="#000000" rx="3" ry="3" style="stroke:#000000;stroke-width:1;"/><text fill="#000000" font-family="sans-serif" font-size="14" lengthAdjust="spacing" textLength="59.9307" x="46" y="380.1426">identifiant</text><line style="stroke:#181818;stroke-width:1;" x1="27" x2="134.2686" y1="387.2188" y2="387.2188"/><text fill="#000000" font-family="sans-serif" font-size="14" lengthAdjust="spacing" textLength="97.2686" x="32" y="405.752">num&#233;ro compte</text><text fill="#000000" font-family="sans-serif" font-size="14" lengthAdjust="spacing" textLength="26.4619" x="32" y="423.3613">type</text><text fill="#000000" font-family="sans-serif" font-size="14" lengthAdjust="spacing" textLength="34.2412" x="32" y="440.9707">statut</text><text fill="#000000" font-family="sans-serif" font-size="14" lengthAdjust="spacing" textLength="33.4688" x="32" y="458.5801">solde</text><text fill="#000000" font-family="sans-serif" font-size="14" lengthAdjust="spacing" textLength="90.2822" x="32" y="476.1895">date ouverture</text><text fill="#000000" font-family="sans-serif" font-size="14" lengthAdjust="spacing" textLength="73.1582" x="32" y="493.7988">date cl&#244;ture</text></g><!--class transaction--><g id="elem_transaction"><rect codeLine="42" fill="#F1F1F1" height="136.0469" id="transaction" rx="2.5" ry="2.5" style="stroke:#181818;stroke-width:0.5;" width="132.3379" x="14.5" y="569.6094"/><ellipse cx="29.5" cy="585.6094" fill="#ADD1B2" rx="11" ry="11" style="stroke:#181818;stroke-width:1;"/><path d="M28.3594,586.4063 L28.3594,588.9063 L32.6875,588.9063 L32.6875,587.9844 Q32.6875,587.375 32.9219,587.1094 Q33.1719,586.8438 33.5469,586.8438 Q33.9219,586.8438 34.1563,587.1094 Q34.3906,587.375 34.3906,587.9844 L34.3906,590.6094 L26.3906,590.6094 Q25.7656,590.6094 25.5,590.375 Q25.25,590.1406 25.25,589.75 Q25.25,589.375 25.5156,589.1406 Q25.7813,588.9063 26.3906,588.9063 L26.6563,588.9063 L26.6563,582.25 L26.3906,582.25 Q25.7656,582.25 25.5,582.0156 Q25.25,581.7813 25.25,581.3906 Q25.25,581.0156 25.5,580.7813 Q25.7656,580.5469 26.3906,580.5469 L34.0156,580.5469 L34.0156,583.1406 Q34.0156,583.75 33.7813,584.0156 Q33.5625,584.2656 33.1719,584.2656 Q32.7969,584.2656 32.5625,584.0156 Q32.3281,583.75 32.3281,583.1406 L32.3281,582.25 L28.3594,582.25 L28.3594,584.7031 L29.8438,584.7031 Q29.8438,584.0469 29.9688,583.8594 Q30.2344,583.4531 30.7031,583.4531 Q31.0781,583.4531 31.3125,583.7188 Q31.5469,583.9688 31.5469,584.5781 L31.5469,586.5469 Q31.5469,587.0938 31.4219,587.2813 Q31.1563,587.6719 30.7031,587.6719 Q30.2344,587.6719 29.9688,587.2656 Q29.8438,587.0781 29.8438,586.4063 L28.3594,586.4063 Z " fill="#000000"/><text fill="#000000" font-family="sans-serif" font-size="14" lengthAdjust="spacing" textLength="100.3379" x="43.5" y="591.3379">TRANSACTION</text><line style="stroke:#181818;stroke-width:0.5;" x1="15.5" x2="145.8379" y1="601.6094" y2="601.6094"/><ellipse cx="25.5" cy="615.9141" fill="#000000" rx="3" ry="3" style="stroke:#000000;stroke-width:1;"/><text fill="#000000" font-family="sans-serif" font-size="14" lengthAdjust="spacing" textLength="59.9307" x="34.5" y="620.1426">identifiant</text><line style="stroke:#181818;stroke-width:1;" x1="15.5" x2="145.8379" y1="627.2188" y2="627.2188"/><text fill="#000000" font-family="sans-serif" font-size="14" lengthAdjust="spacing" textLength="26.4619" x="20.5" y="645.752">type</text><text fill="#000000" font-family="sans-serif" font-size="14" lengthAdjust="spacing" textLength="50.5859" x="20.5" y="663.3613">montant</text><text fill="#000000" font-family="sans-serif" font-size="14" lengthAdjust="spacing" textLength="82.5098" x="20.5" y="680.9707">date et heure</text><text fill="#000000" font-family="sans-serif" font-size="14" lengthAdjust="spacing" textLength="67.7031" x="20.5" y="698.5801">description</text></g><!--class audit--><g id="elem_audit"><rect codeLine="51" fill="#F1F1F1" height="153.6563" id="audit" rx="2.5" ry="2.5" style="stroke:#181818;stroke-width:0.5;" width="147.1309" x="182" y="560.6094"/><ellipse cx="197" cy="576.6094" fill="#ADD1B2" rx="11" ry="11" style="stroke:#181818;stroke-width:1;"/><path d="M195.8594,577.4063 L195.8594,579.9063 L200.1875,579.9063 L200.1875,578.9844 Q200.1875,578.375 200.4219,578.1094 Q200.6719,577.8438 201.0469,577.8438 Q201.4219,577.8438 201.6563,578.1094 Q201.8906,578.375 201.8906,578.9844 L201.8906,581.6094 L193.8906,581.6094 Q193.2656,581.6094 193,581.375 Q192.75,581.1406 192.75,580.75 Q192.75,580.375 193.0156,580.1406 Q193.2813,579.9063 193.8906,579.9063 L194.1563,579.9063 L194.1563,573.25 L193.8906,573.25 Q193.2656,573.25 193,573.0156 Q192.75,572.7813 192.75,572.3906 Q192.75,572.0156 193,571.7813 Q193.2656,571.5469 193.8906,571.5469 L201.5156,571.5469 L201.5156,574.1406 Q201.5156,574.75 201.2813,575.0156 Q201.0625,575.2656 200.6719,575.2656 Q200.2969,575.2656 200.0625,575.0156 Q199.8281,574.75 199.8281,574.1406 L199.8281,573.25 L195.8594,573.25 L195.8594,575.7031 L197.3438,575.7031 Q197.3438,575.0469 197.4688,574.8594 Q197.7344,574.4531 198.2031,574.4531 Q198.5781,574.4531 198.8125,574.7188 Q199.0469,574.9688 199.0469,575.5781 L199.0469,577.5469 Q199.0469,578.0938 198.9219,578.2813 Q198.6563,578.6719 198.2031,578.6719 Q197.7344,578.6719 197.4688,578.2656 Q197.3438,578.0781 197.3438,577.4063 L195.8594,577.4063 Z " fill="#000000"/><text fill="#000000" font-family="sans-serif" font-size="14" lengthAdjust="spacing" textLength="115.1309" x="211" y="582.3379">JOURNAL_AUDIT</text><line style="stroke:#181818;stroke-width:0.5;" x1="183" x2="328.1309" y1="592.6094" y2="592.6094"/><ellipse cx="193" cy="606.9141" fill="#000000" rx="3" ry="3" style="stroke:#000000;stroke-width:1;"/><text fill="#000000" font-family="sans-serif" font-size="14" lengthAdjust="spacing" textLength="59.9307" x="202" y="611.1426">identifiant</text><line style="stroke:#181818;stroke-width:1;" x1="183" x2="328.1309" y1="618.2188" y2="618.2188"/><text fill="#000000" font-family="sans-serif" font-size="14" lengthAdjust="spacing" textLength="37.3584" x="188" y="636.752">action</text><text fill="#000000" font-family="sans-serif" font-size="14" lengthAdjust="spacing" textLength="64.5996" x="188" y="654.3613">type entit&#233;</text><text fill="#000000" font-family="sans-serif" font-size="14" lengthAdjust="spacing" textLength="49.0342" x="188" y="671.9707">id entit&#233;</text><text fill="#000000" font-family="sans-serif" font-size="14" lengthAdjust="spacing" textLength="82.5098" x="188" y="689.5801">date et heure</text><text fill="#000000" font-family="sans-serif" font-size="14" lengthAdjust="spacing" textLength="40.4688" x="188" y="707.1895">d&#233;tails</text></g><!--link client to account--><g id="link_client_account"><path codeLine="61" d="M80.5,277.7994 C80.5,297.7294 80.5,292.1894 80.5,311.2294 " fill="none" id="client-account" style="stroke:#181818;stroke-width:1;"/><line style="stroke:#181818;stroke-width:1;" x1="76.5" x2="84.5" y1="273.7994" y2="273.7994"/><line style="stroke:#181818;stroke-width:1;" x1="76.5" x2="84.5" y1="276.7994" y2="276.7994"/><line style="stroke:#181818;stroke-width:1;" x1="80.5" x2="80.5" y1="277.7994" y2="269.7994"/><line style="stroke:#181818;stroke-width:1;" x1="80.5" x2="86.5" y1="321.2294" y2="329.2294"/><line style="stroke:#181818;stroke-width:1;" x1="80.5" x2="74.5" y1="321.2294" y2="329.2294"/><line style="stroke:#181818;stroke-width:1;" x1="80.5" x2="80.5" y1="321.2294" y2="329.2294"/><ellipse cx="80.5" cy="315.2294" fill="none" rx="4" ry="4" style="stroke:#181818;stroke-width:1;"/><text fill="#000000" font-family="sans-serif" font-size="13" lengthAdjust="spacing" textLength="49.1499" x="30.5" y="296.0145">poss&#232;de</text></g><!--link user to transaction--><g id="link_user_transaction"><path codeLine="62" d="M167.76,415.6094 C148.36,415.6094 140.75,415.6094 140.75,415.6094 C140.75,415.6094 140.75,486.2394 140.75,551.4894 " fill="none" id="user-transaction" style="stroke:#181818;stroke-width:1;"/><line style="stroke:#181818;stroke-width:1;" x1="171.76" x2="171.76" y1="411.6094" y2="419.6094"/><line style="stroke:#181818;stroke-width:1;" x1="168.76" x2="168.76" y1="411.6094" y2="419.6094"/><line style="stroke:#181818;stroke-width:1;" x1="167.76" x2="175.76" y1="415.6094" y2="415.6094"/><line style="stroke:#181818;stroke-width:1;" x1="140.75" x2="146.75" y1="561.4894" y2="569.4894"/><line style="stroke:#181818;stroke-width:1;" x1="140.75" x2="134.75" y1="561.4894" y2="569.4894"/><line style="stroke:#181818;stroke-width:1;" x1="140.75" x2="140.75" y1="561.4894" y2="569.4894"/><ellipse cx="140.75" cy="555.4894" fill="none" rx="4" ry="4" style="stroke:#181818;stroke-width:1;"/><text fill="#000000" font-family="sans-serif" font-size="13" lengthAdjust="spacing" textLength="45.5317" x="130" y="489.5445">ex&#233;cute</text></g><!--link user to audit--><g id="link_user_audit"><path codeLine="63" d="M252.5,508.8194 C252.5,528.3994 252.5,523.1094 252.5,542.3194 " fill="none" id="user-audit" style="stroke:#181818;stroke-width:1;"/><line style="stroke:#181818;stroke-width:1;" x1="248.5" x2="256.5" y1="504.8194" y2="504.8194"/><line style="stroke:#181818;stroke-width:1;" x1="248.5" x2="256.5" y1="507.8194" y2="507.8194"/><line style="stroke:#181818;stroke-width:1;" x1="252.5" x2="252.5" y1="508.8194" y2="500.8194"/><line style="stroke:#181818;stroke-width:1;" x1="252.5" x2="258.5" y1="552.3194" y2="560.3194"/><line style="stroke:#181818;stroke-width:1;" x1="252.5" x2="246.5" y1="552.3194" y2="560.3194"/><line style="stroke:#181818;stroke-width:1;" x1="252.5" x2="252.5" y1="552.3194" y2="560.3194"/><ellipse cx="252.5" cy="546.3194" fill="none" rx="4" ry="4" style="stroke:#181818;stroke-width:1;"/><text fill="#000000" font-family="sans-serif" font-size="13" lengthAdjust="spacing" textLength="46.2554" x="205.5" y="527.0645">effectue</text></g><!--link account to transaction--><g id="link_account_transaction"><path codeLine="64" d="M62.33,508.8194 C62.33,531.5894 62.33,529.8694 62.33,551.5494 " fill="none" id="account-transaction" style="stroke:#181818;stroke-width:1;"/><line style="stroke:#181818;stroke-width:1;" x1="58.33" x2="66.33" y1="504.8194" y2="504.8194"/><line style="stroke:#181818;stroke-width:1;" x1="58.33" x2="66.33" y1="507.8194" y2="507.8194"/><line style="stroke:#181818;stroke-width:1;" x1="62.33" x2="62.33" y1="508.8194" y2="500.8194"/><line style="stroke:#181818;stroke-width:1;" x1="62.33" x2="68.33" y1="561.5494" y2="569.5494"/><line style="stroke:#181818;stroke-width:1;" x1="62.33" x2="56.33" y1="561.5494" y2="569.5494"/><line style="stroke:#181818;stroke-width:1;" x1="62.33" x2="62.33" y1="561.5494" y2="569.5494"/><ellipse cx="62.33" cy="555.5494" fill="none" rx="4" ry="4" style="stroke:#181818;stroke-width:1;"/><text fill="#000000" font-family="sans-serif" font-size="13" lengthAdjust="spacing" textLength="39.019" x="22.33" y="531.6745">source</text></g><!--link account to transaction--><g id="link_account_transaction"><path codeLine="65" d="M98.67,508.8194 C98.67,531.5894 98.67,529.8694 98.67,551.5494 " fill="none" id="account-transaction-1" style="stroke:#181818;stroke-width:1;"/><line style="stroke:#181818;stroke-width:1;" x1="94.67" x2="102.67" y1="504.8194" y2="504.8194"/><line style="stroke:#181818;stroke-width:1;" x1="94.67" x2="102.67" y1="507.8194" y2="507.8194"/><line style="stroke:#181818;stroke-width:1;" x1="98.67" x2="98.67" y1="508.8194" y2="500.8194"/><line style="stroke:#181818;stroke-width:1;" x1="98.67" x2="104.67" y1="561.5494" y2="569.5494"/><line style="stroke:#181818;stroke-width:1;" x1="98.67" x2="92.67" y1="561.5494" y2="569.5494"/><line style="stroke:#181818;stroke-width:1;" x1="98.67" x2="98.67" y1="561.5494" y2="569.5494"/><ellipse cx="98.67" cy="555.5494" fill="none" rx="4" ry="4" style="stroke:#181818;stroke-width:1;"/><text fill="#000000" font-family="sans-serif" font-size="13" lengthAdjust="spacing" textLength="62.8799" x="35.67" y="549.6745">destination</text></g><!--SRC=[ZLDBRjim4Dth58Di-W5yWUm4nmiLjbmuyheWo555b285SjWsI0hq43r4jCyDU9EUf4D9SHoqJRiXEH-yz-QD53vfEmWlUWYTKEwBjX-X5IPW4KuLeotIpO3WF7MkA4YJGTYjh-3dzn-mSohTSooTbJXGH0CAGJbhquYXAD1o_mrS79jgMrsNpUPuk00H80RqS5i0l0MjSbEhXIMELoi-hEj1lOgaZGw2C7hEzOuoz212G7WjEzssFerlbcxf-i5W1i1UQCEtJmy6-SuLGX2IEOflJuhMssfJDvCOQJHdNv0J-pHwj_HnObtLCo-V0wkONu_Cb4QJng5pDlCBvP4byqlRrWNkToqdD5k4nh170844HNecRhzxtsmcSK9A5_zBtJHevkTjFQ7omncL4ugj11S_ewVeJmbfqiCKdz4tXxA-BjTDjQyd3UI53Tb1P_-kOw7jdQKvEy4ZGOSB7GRfzP1HpidUxO-7kjn-A8zNrRmF4PL-OU1PoC884qmQix_gBFYDF8t4wmcPUTdttTrgvMvF1b_2u498z-pLz7KkvVFPBm6_fb56Ujuow-LYswBaVw1uXFmZH73Hot_qi5MahPZc_0K0]--></g></svg>