<svg xmlns="http://www.w3.org/2000/svg" xmlns:xlink="http://www.w3.org/1999/xlink" version="1.1" data-diagram-type="CLASS" style="width:950px;height:969px;background:#FFFFFF;" width="950px" height="969px" viewBox="0 0 950 969" zoomAndPan="magnify" preserveAspectRatio="none" contentStyleType="text/css"><?plantuml 1.2026.7beta3?><defs/><g><g class="title" data-source-line="4"><text x="319.6824" y="22.9951" fill="#000000" font-size="14" lengthAdjust="spacing" textLength="304.623" font-weight="700" font-family="sans-serif">MCD — Modèle conceptuel de données</text></g><!--class user--><g class="entity" data-qualified-name="user" id="ent0001" data-source-line="6"><rect x="625.95" y="364.1569" width="166.8203" height="162.0781" fill="#F1F1F1" style="stroke:#181818;stroke-width:0.5;" rx="2.5" ry="2.5"/><ellipse cx="660.8076" cy="380.1569" rx="11" ry="11" fill="#ADD1B2" style="stroke:#181818;stroke-width:1;"/><path d="M664.9169,386.1569 L657.1982,386.1569 L657.1982,373.7662 L664.9169,373.7662 L664.9169,375.9225 L659.6513,375.9225 L659.6513,378.5944 L664.4169,378.5944 L664.4169,380.7506 L659.6513,380.7506 L659.6513,384.0006 L664.9169,384.0006 L664.9169,386.1569 Z " fill="#000000"/><text x="679.2204" y="385.0036" fill="#000000" font-size="14" lengthAdjust="spacing" textLength="90.6924" font-family="sans-serif">UTILISATEUR</text><line x1="626.95" y1="396.1569" x2="791.7703" y2="396.1569" style="stroke:#181818;stroke-width:0.5;"/><g data-visibility-modifier="IE_MANDATORY"><ellipse cx="636.95" cy="409.8053" rx="3" ry="3" fill="#000000" style="stroke:#000000;stroke-width:1;"/></g><text x="645.95" y="413.152" fill="#000000" font-size="14" lengthAdjust="spacing" textLength="71.4014" font-family="sans-serif">identifiant</text><line x1="626.95" y1="420.4537" x2="791.7703" y2="420.4537" style="stroke:#181818;stroke-width:1;"/><text x="631.95" y="437.4489" fill="#000000" font-size="14" lengthAdjust="spacing" textLength="118.8975" font-family="sans-serif">nom d'utilisateur</text><text x="631.95" y="453.7457" fill="#000000" font-size="14" lengthAdjust="spacing" textLength="154.8203" font-family="sans-serif">mot de passe (chiffré)</text><text x="631.95" y="470.0426" fill="#000000" font-size="14" lengthAdjust="spacing" textLength="92.3057" font-family="sans-serif">nom complet</text><text x="631.95" y="486.3395" fill="#000000" font-size="14" lengthAdjust="spacing" textLength="38.6094" font-family="sans-serif">email</text><text x="631.95" y="502.6364" fill="#000000" font-size="14" lengthAdjust="spacing" textLength="26.8242" font-family="sans-serif">rôle</text><text x="631.95" y="518.9332" fill="#000000" font-size="14" lengthAdjust="spacing" textLength="87.9238" font-family="sans-serif">compte actif</text></g><!--class client--><g class="entity" data-qualified-name="client" id="ent0002" data-source-line="17"><rect x="311.2" y="44.2969" width="216.3262" height="259.8594" fill="#F1F1F1" style="stroke:#181818;stroke-width:0.5;" rx="2.5" ry="2.5"/><ellipse cx="390.326" cy="60.2969" rx="11" ry="11" fill="#ADD1B2" style="stroke:#181818;stroke-width:1;"/><path d="M394.4354,66.2969 L386.7166,66.2969 L386.7166,53.9063 L394.4354,53.9063 L394.4354,56.0625 L389.1697,56.0625 L389.1697,58.7344 L393.9354,58.7344 L393.9354,60.8906 L389.1697,60.8906 L389.1697,64.1406 L394.4354,64.1406 L394.4354,66.2969 Z " fill="#000000"/><text x="410.826" y="65.1436" fill="#000000" font-size="14" lengthAdjust="spacing" textLength="49.5742" font-family="sans-serif">CLIENT</text><line x1="312.2" y1="76.2969" x2="526.5262" y2="76.2969" style="stroke:#181818;stroke-width:0.5;"/><g data-visibility-modifier="IE_MANDATORY"><ellipse cx="322.2" cy="89.9453" rx="3" ry="3" fill="#000000" style="stroke:#000000;stroke-width:1;"/></g><text x="331.2" y="93.292" fill="#000000" font-size="14" lengthAdjust="spacing" textLength="71.4014" font-family="sans-serif">identifiant</text><line x1="312.2" y1="100.5938" x2="526.5262" y2="100.5938" style="stroke:#181818;stroke-width:1;"/><text x="317.2" y="117.5889" fill="#000000" font-size="14" lengthAdjust="spacing" textLength="97.2207" font-family="sans-serif">numéro client</text><text x="317.2" y="133.8857" fill="#000000" font-size="14" lengthAdjust="spacing" textLength="24.377" font-family="sans-serif">CIN</text><text x="317.2" y="150.1826" fill="#000000" font-size="14" lengthAdjust="spacing" textLength="31.0762" font-family="sans-serif">nom</text><text x="317.2" y="166.4795" fill="#000000" font-size="14" lengthAdjust="spacing" textLength="54.332" font-family="sans-serif">prénom</text><text x="317.2" y="182.7764" fill="#000000" font-size="14" lengthAdjust="spacing" textLength="38.6094" font-family="sans-serif">email</text><text x="317.2" y="199.0732" fill="#000000" font-size="14" lengthAdjust="spacing" textLength="70.417" font-family="sans-serif">téléphone</text><text x="317.2" y="215.3701" fill="#000000" font-size="14" lengthAdjust="spacing" textLength="55.0361" font-family="sans-serif">adresse</text><text x="317.2" y="231.667" fill="#000000" font-size="14" lengthAdjust="spacing" textLength="151.8398" font-family="sans-serif">infos professionnelles</text><text x="317.2" y="247.9639" fill="#000000" font-size="14" lengthAdjust="spacing" textLength="41.2139" font-family="sans-serif">statut</text><text x="317.2" y="264.2607" fill="#000000" font-size="14" lengthAdjust="spacing" textLength="204.3262" font-family="sans-serif">mot de passe portail (chiffré)</text><text x="317.2" y="280.5576" fill="#000000" font-size="14" lengthAdjust="spacing" textLength="92.0596" font-family="sans-serif">portail activé</text><text x="317.2" y="296.8545" fill="#000000" font-size="14" lengthAdjust="spacing" textLength="185.1924" font-family="sans-serif">dernière connexion portail</text></g><!--class account--><g class="entity" data-qualified-name="account" id="ent0003" data-source-line="34"><rect x="189.53" y="364.1569" width="123.6582" height="162.0781" fill="#F1F1F1" style="stroke:#181818;stroke-width:0.5;" rx="2.5" ry="2.5"/><ellipse cx="219.355" cy="380.1569" rx="11" ry="11" fill="#ADD1B2" style="stroke:#181818;stroke-width:1;"/><path d="M223.4643,386.1569 L215.7456,386.1569 L215.7456,373.7662 L223.4643,373.7662 L223.4643,375.9225 L218.1987,375.9225 L218.1987,378.5944 L222.9643,378.5944 L222.9643,380.7506 L218.1987,380.7506 L218.1987,384.0006 L223.4643,384.0006 L223.4643,386.1569 Z " fill="#000000"/><text x="236.6494" y="385.0036" fill="#000000" font-size="14" lengthAdjust="spacing" textLength="58.7139" font-family="sans-serif">COMPTE</text><line x1="190.53" y1="396.1569" x2="312.1882" y2="396.1569" style="stroke:#181818;stroke-width:0.5;"/><g data-visibility-modifier="IE_MANDATORY"><ellipse cx="200.53" cy="409.8053" rx="3" ry="3" fill="#000000" style="stroke:#000000;stroke-width:1;"/></g><text x="209.53" y="413.152" fill="#000000" font-size="14" lengthAdjust="spacing" textLength="71.4014" font-family="sans-serif">identifiant</text><line x1="190.53" y1="420.4537" x2="312.1882" y2="420.4537" style="stroke:#181818;stroke-width:1;"/><text x="195.53" y="437.4489" fill="#000000" font-size="14" lengthAdjust="spacing" textLength="111.6582" font-family="sans-serif">numéro compte</text><text x="195.53" y="453.7457" fill="#000000" font-size="14" lengthAdjust="spacing" textLength="31.2744" font-family="sans-serif">type</text><text x="195.53" y="470.0426" fill="#000000" font-size="14" lengthAdjust="spacing" textLength="41.2139" font-family="sans-serif">statut</text><text x="195.53" y="486.3395" fill="#000000" font-size="14" lengthAdjust="spacing" textLength="37.249" font-family="sans-serif">solde</text><text x="195.53" y="502.6364" fill="#000000" font-size="14" lengthAdjust="spacing" textLength="104.8428" font-family="sans-serif">date ouverture</text><text x="195.53" y="518.9332" fill="#000000" font-size="14" lengthAdjust="spacing" textLength="84.9023" font-family="sans-serif">date clôture</text></g><!--class transaction--><g class="entity" data-qualified-name="transaction" id="ent0004" data-source-line="45"><rect x="184.99" y="824.6169" width="132.7412" height="129.4844" fill="#F1F1F1" style="stroke:#181818;stroke-width:0.5;" rx="2.5" ry="2.5"/><ellipse cx="199.99" cy="840.6169" rx="11" ry="11" fill="#ADD1B2" style="stroke:#181818;stroke-width:1;"/><path d="M204.0994,846.6169 L196.3806,846.6169 L196.3806,834.2262 L204.0994,834.2262 L204.0994,836.3825 L198.8338,836.3825 L198.8338,839.0544 L203.5994,839.0544 L203.5994,841.2106 L198.8338,841.2106 L198.8338,844.4606 L204.0994,844.4606 L204.0994,846.6169 Z " fill="#000000"/><text x="213.99" y="845.4636" fill="#000000" font-size="14" lengthAdjust="spacing" textLength="100.7412" font-family="sans-serif">TRANSACTION</text><line x1="185.99" y1="856.6169" x2="316.7312" y2="856.6169" style="stroke:#181818;stroke-width:0.5;"/><g data-visibility-modifier="IE_MANDATORY"><ellipse cx="195.99" cy="870.2653" rx="3" ry="3" fill="#000000" style="stroke:#000000;stroke-width:1;"/></g><text x="204.99" y="873.612" fill="#000000" font-size="14" lengthAdjust="spacing" textLength="71.4014" font-family="sans-serif">identifiant</text><line x1="185.99" y1="880.9137" x2="316.7312" y2="880.9137" style="stroke:#181818;stroke-width:1;"/><text x="190.99" y="897.9089" fill="#000000" font-size="14" lengthAdjust="spacing" textLength="31.2744" font-family="sans-serif">type</text><text x="190.99" y="914.2057" fill="#000000" font-size="14" lengthAdjust="spacing" textLength="59.5068" font-family="sans-serif">montant</text><text x="190.99" y="930.5026" fill="#000000" font-size="14" lengthAdjust="spacing" textLength="95.2998" font-family="sans-serif">date et heure</text><text x="190.99" y="946.7995" fill="#000000" font-size="14" lengthAdjust="spacing" textLength="77.8408" font-family="sans-serif">description</text></g><!--class provider--><g class="entity" data-qualified-name="provider" id="ent0005" data-source-line="54"><rect x="39.04" y="380.4569" width="110.6338" height="129.4844" fill="#F1F1F1" style="stroke:#181818;stroke-width:0.5;" rx="2.5" ry="2.5"/><ellipse cx="54.04" cy="396.4569" rx="11" ry="11" fill="#ADD1B2" style="stroke:#181818;stroke-width:1;"/><path d="M58.1494,402.4569 L50.4306,402.4569 L50.4306,390.0662 L58.1494,390.0662 L58.1494,392.2225 L52.8838,392.2225 L52.8838,394.8944 L57.6494,394.8944 L57.6494,397.0506 L52.8838,397.0506 L52.8838,400.3006 L58.1494,400.3006 L58.1494,402.4569 Z " fill="#000000"/><text x="68.04" y="401.3036" fill="#000000" font-size="14" lengthAdjust="spacing" textLength="78.6338" font-family="sans-serif">FACTURIER</text><line x1="40.04" y1="412.4569" x2="148.6738" y2="412.4569" style="stroke:#181818;stroke-width:0.5;"/><g data-visibility-modifier="IE_MANDATORY"><ellipse cx="50.04" cy="426.1053" rx="3" ry="3" fill="#000000" style="stroke:#000000;stroke-width:1;"/></g><text x="59.04" y="429.452" fill="#000000" font-size="14" lengthAdjust="spacing" textLength="71.4014" font-family="sans-serif">identifiant</text><line x1="40.04" y1="436.7537" x2="148.6738" y2="436.7537" style="stroke:#181818;stroke-width:1;"/><text x="45.04" y="453.7489" fill="#000000" font-size="14" lengthAdjust="spacing" textLength="33.7627" font-family="sans-serif">code</text><text x="45.04" y="470.0457" fill="#000000" font-size="14" lengthAdjust="spacing" textLength="41.6719" font-family="sans-serif">libellé</text><text x="45.04" y="486.3426" fill="#000000" font-size="14" lengthAdjust="spacing" textLength="66.0898" font-family="sans-serif">catégorie</text><text x="45.04" y="502.6395" fill="#000000" font-size="14" lengthAdjust="spacing" textLength="30.584" font-family="sans-serif">actif</text></g><!--class bill--><g class="entity" data-qualified-name="bill" id="ent0006" data-source-line="63"><rect x="7" y="618.8269" width="174.7207" height="113.1875" fill="#F1F1F1" style="stroke:#181818;stroke-width:0.5;" rx="2.5" ry="2.5"/><ellipse cx="22" cy="634.8269" rx="11" ry="11" fill="#ADD1B2" style="stroke:#181818;stroke-width:1;"/><path d="M26.1094,640.8269 L18.3906,640.8269 L18.3906,628.4363 L26.1094,628.4363 L26.1094,630.5925 L20.8438,630.5925 L20.8438,633.2644 L25.6094,633.2644 L25.6094,635.4206 L20.8438,635.4206 L20.8438,638.6706 L26.1094,638.6706 L26.1094,640.8269 Z " fill="#000000"/><text x="36" y="639.6736" fill="#000000" font-size="14" lengthAdjust="spacing" textLength="142.7207" font-family="sans-serif">PAIEMENT_FACTURE</text><line x1="8" y1="650.8269" x2="180.7207" y2="650.8269" style="stroke:#181818;stroke-width:0.5;"/><g data-visibility-modifier="IE_MANDATORY"><ellipse cx="18" cy="664.4753" rx="3" ry="3" fill="#000000" style="stroke:#000000;stroke-width:1;"/></g><text x="27" y="667.822" fill="#000000" font-size="14" lengthAdjust="spacing" textLength="71.4014" font-family="sans-serif">identifiant</text><line x1="8" y1="675.1238" x2="180.7207" y2="675.1238" style="stroke:#181818;stroke-width:1;"/><text x="13" y="692.1189" fill="#000000" font-size="14" lengthAdjust="spacing" textLength="110.3662" font-family="sans-serif">référence client</text><text x="13" y="708.4157" fill="#000000" font-size="14" lengthAdjust="spacing" textLength="59.5068" font-family="sans-serif">montant</text><text x="13" y="724.7126" fill="#000000" font-size="14" lengthAdjust="spacing" textLength="93.4814" font-family="sans-serif">date création</text></g><!--class chq--><g class="entity" data-qualified-name="chq" id="ent0007" data-source-line="71"><rect x="320.99" y="586.2369" width="196.7461" height="178.375" fill="#F1F1F1" style="stroke:#181818;stroke-width:0.5;" rx="2.5" ry="2.5"/><ellipse cx="335.99" cy="602.2369" rx="11" ry="11" fill="#ADD1B2" style="stroke:#181818;stroke-width:1;"/><path d="M340.0994,608.2369 L332.3806,608.2369 L332.3806,595.8462 L340.0994,595.8462 L340.0994,598.0025 L334.8338,598.0025 L334.8338,600.6744 L339.5994,600.6744 L339.5994,602.8306 L334.8338,602.8306 L334.8338,606.0806 L340.0994,606.0806 L340.0994,608.2369 Z " fill="#000000"/><text x="349.99" y="607.0836" fill="#000000" font-size="14" lengthAdjust="spacing" textLength="164.7461" font-family="sans-serif">COMMANDE_CHEQUIER</text><line x1="321.99" y1="618.2369" x2="516.7361" y2="618.2369" style="stroke:#181818;stroke-width:0.5;"/><g data-visibility-modifier="IE_MANDATORY"><ellipse cx="331.99" cy="631.8853" rx="3" ry="3" fill="#000000" style="stroke:#000000;stroke-width:1;"/></g><text x="340.99" y="635.232" fill="#000000" font-size="14" lengthAdjust="spacing" textLength="71.4014" font-family="sans-serif">identifiant</text><line x1="321.99" y1="642.5337" x2="516.7361" y2="642.5337" style="stroke:#181818;stroke-width:1;"/><text x="326.99" y="659.5289" fill="#000000" font-size="14" lengthAdjust="spacing" textLength="137.2588" font-family="sans-serif">numéro commande</text><text x="326.99" y="675.8257" fill="#000000" font-size="14" lengthAdjust="spacing" textLength="58.6934" font-family="sans-serif">quantité</text><text x="326.99" y="692.1226" fill="#000000" font-size="14" lengthAdjust="spacing" textLength="106.8867" font-family="sans-serif">format feuillets</text><text x="326.99" y="708.4195" fill="#000000" font-size="14" lengthAdjust="spacing" textLength="41.2139" font-family="sans-serif">statut</text><text x="326.99" y="724.7164" fill="#000000" font-size="14" lengthAdjust="spacing" textLength="102.1084" font-family="sans-serif">date demande</text><text x="326.99" y="741.0132" fill="#000000" font-size="14" lengthAdjust="spacing" textLength="110.4482" font-family="sans-serif">date traitement</text><text x="326.99" y="757.3101" fill="#000000" font-size="14" lengthAdjust="spacing" textLength="95.04" font-family="sans-serif">date livraison</text></g><!--class audit--><g class="entity" data-qualified-name="audit" id="ent0008" data-source-line="83"><rect x="790.73" y="602.5369" width="145.2578" height="145.7813" fill="#F1F1F1" style="stroke:#181818;stroke-width:0.5;" rx="2.5" ry="2.5"/><ellipse cx="805.73" cy="618.5369" rx="11" ry="11" fill="#ADD1B2" style="stroke:#181818;stroke-width:1;"/><path d="M809.8394,624.5369 L802.1206,624.5369 L802.1206,612.1463 L809.8394,612.1463 L809.8394,614.3025 L804.5738,614.3025 L804.5738,616.9744 L809.3394,616.9744 L809.3394,619.1306 L804.5738,619.1306 L804.5738,622.3806 L809.8394,622.3806 L809.8394,624.5369 Z " fill="#000000"/><text x="819.73" y="623.3836" fill="#000000" font-size="14" lengthAdjust="spacing" textLength="113.2578" font-family="sans-serif">JOURNAL_AUDIT</text><line x1="791.73" y1="634.5369" x2="934.9878" y2="634.5369" style="stroke:#181818;stroke-width:0.5;"/><g data-visibility-modifier="IE_MANDATORY"><ellipse cx="801.73" cy="648.1853" rx="3" ry="3" fill="#000000" style="stroke:#000000;stroke-width:1;"/></g><text x="810.73" y="651.532" fill="#000000" font-size="14" lengthAdjust="spacing" textLength="71.4014" font-family="sans-serif">identifiant</text><line x1="791.73" y1="658.8338" x2="934.9878" y2="658.8338" style="stroke:#181818;stroke-width:1;"/><text x="796.73" y="675.8289" fill="#000000" font-size="14" lengthAdjust="spacing" textLength="43.0938" font-family="sans-serif">action</text><text x="796.73" y="692.1257" fill="#000000" font-size="14" lengthAdjust="spacing" textLength="76.6924" font-family="sans-serif">type entité</text><text x="796.73" y="708.4226" fill="#000000" font-size="14" lengthAdjust="spacing" textLength="58.1943" font-family="sans-serif">id entité</text><text x="796.73" y="724.7195" fill="#000000" font-size="14" lengthAdjust="spacing" textLength="95.2998" font-family="sans-serif">date et heure</text><text x="796.73" y="741.0164" fill="#000000" font-size="14" lengthAdjust="spacing" textLength="46.6416" font-family="sans-serif">détails</text></g><!--class notif--><g class="entity" data-qualified-name="notif" id="ent0009" data-source-line="93"><rect x="552.42" y="594.3869" width="131.8799" height="162.0781" fill="#F1F1F1" style="stroke:#181818;stroke-width:0.5;" rx="2.5" ry="2.5"/><ellipse cx="567.42" cy="610.3869" rx="11" ry="11" fill="#ADD1B2" style="stroke:#181818;stroke-width:1;"/><path d="M571.5294,616.3869 L563.8106,616.3869 L563.8106,603.9962 L571.5294,603.9962 L571.5294,606.1525 L566.2638,606.1525 L566.2638,608.8244 L571.0294,608.8244 L571.0294,610.9806 L566.2638,610.9806 L566.2638,614.2306 L571.5294,614.2306 L571.5294,616.3869 Z " fill="#000000"/><text x="581.42" y="615.2336" fill="#000000" font-size="14" lengthAdjust="spacing" textLength="99.8799" font-family="sans-serif">NOTIFICATION</text><line x1="553.42" y1="626.3869" x2="683.2999" y2="626.3869" style="stroke:#181818;stroke-width:0.5;"/><g data-visibility-modifier="IE_MANDATORY"><ellipse cx="563.42" cy="640.0353" rx="3" ry="3" fill="#000000" style="stroke:#000000;stroke-width:1;"/></g><text x="572.42" y="643.382" fill="#000000" font-size="14" lengthAdjust="spacing" textLength="71.4014" font-family="sans-serif">identifiant</text><line x1="553.42" y1="650.6837" x2="683.2999" y2="650.6837" style="stroke:#181818;stroke-width:1;"/><text x="558.42" y="667.6789" fill="#000000" font-size="14" lengthAdjust="spacing" textLength="31.2744" font-family="sans-serif">type</text><text x="558.42" y="683.9757" fill="#000000" font-size="14" lengthAdjust="spacing" textLength="29.2373" font-family="sans-serif">titre</text><text x="558.42" y="700.2726" fill="#000000" font-size="14" lengthAdjust="spacing" textLength="62.918" font-family="sans-serif">message</text><text x="558.42" y="716.5695" fill="#000000" font-size="14" lengthAdjust="spacing" textLength="25.2656" font-family="sans-serif">lien</text><text x="558.42" y="732.8664" fill="#000000" font-size="14" lengthAdjust="spacing" textLength="21.376" font-family="sans-serif">lue</text><text x="558.42" y="749.1632" fill="#000000" font-size="14" lengthAdjust="spacing" textLength="93.4814" font-family="sans-serif">date création</text></g><!--link client to account--><g class="link" data-entity-1="ent0002" data-entity-2="ent0003" id="lnk10" data-source-line="104" data-link-type="crowfoot"><path d="M386.57,312.5869 C386.57,382.3669 386.57,446.0969 386.57,446.0969 C386.57,446.0969 366.97,446.0969 331.42,446.0969" style="stroke:#181818;stroke-width:1;" fill="none" id="client-account" codeLine="104"/><line x1="382.57" y1="308.5869" x2="390.57" y2="308.5869" style="stroke:#181818;stroke-width:1;"/><line x1="382.57" y1="311.5869" x2="390.57" y2="311.5869" style="stroke:#181818;stroke-width:1;"/><line x1="386.57" y1="312.5869" x2="386.57" y2="304.5869" style="stroke:#181818;stroke-width:1;"/><line x1="321.42" y1="446.0969" x2="313.42" y2="452.0969" style="stroke:#181818;stroke-width:1;"/><line x1="321.42" y1="446.0969" x2="313.42" y2="440.0969" style="stroke:#181818;stroke-width:1;"/><line x1="321.42" y1="446.0969" x2="313.42" y2="446.0969" style="stroke:#181818;stroke-width:1;"/><ellipse cx="327.42" cy="446.0969" rx="4" ry="4" fill="none" style="stroke:#181818;stroke-width:1;"/><text x="332.57" y="407.9838" fill="#000000" font-size="13" lengthAdjust="spacing" textLength="53.9995" font-family="sans-serif">possède</text></g><!--link client to chq--><g class="link" data-entity-1="ent0002" data-entity-2="ent0007" id="lnk11" data-source-line="105" data-link-type="crowfoot"><path d="M452.15,312.6069 C452.15,401.0669 452.15,489.7269 452.15,567.9769" style="stroke:#181818;stroke-width:1;" fill="none" id="client-chq" codeLine="105"/><line x1="448.15" y1="308.6069" x2="456.15" y2="308.6069" style="stroke:#181818;stroke-width:1;"/><line x1="448.15" y1="311.6069" x2="456.15" y2="311.6069" style="stroke:#181818;stroke-width:1;"/><line x1="452.15" y1="312.6069" x2="452.15" y2="304.6069" style="stroke:#181818;stroke-width:1;"/><line x1="452.15" y1="577.9769" x2="458.15" y2="585.9769" style="stroke:#181818;stroke-width:1;"/><line x1="452.15" y1="577.9769" x2="446.15" y2="585.9769" style="stroke:#181818;stroke-width:1;"/><line x1="452.15" y1="577.9769" x2="452.15" y2="585.9769" style="stroke:#181818;stroke-width:1;"/><ellipse cx="452.15" cy="571.9769" rx="4" ry="4" fill="none" style="stroke:#181818;stroke-width:1;"/><text x="390.15" y="441.3538" fill="#000000" font-size="13" lengthAdjust="spacing" textLength="61.3691" font-family="sans-serif">demande</text></g><!--link client to notif--><g class="link" data-entity-1="ent0002" data-entity-2="ent0009" id="lnk12" data-source-line="106" data-link-type="crowfoot"><path d="M522.63,312.4569 C522.63,461.1569 522.63,676.0969 522.63,676.0969 C522.63,676.0969 517.67,676.0969 534.13,676.0969" style="stroke:#181818;stroke-width:1;" fill="none" id="client-notif" codeLine="106"/><line x1="518.63" y1="308.4569" x2="526.63" y2="308.4569" style="stroke:#181818;stroke-width:1;"/><line x1="518.63" y1="311.4569" x2="526.63" y2="311.4569" style="stroke:#181818;stroke-width:1;"/><line x1="522.63" y1="312.4569" x2="522.63" y2="304.4569" style="stroke:#181818;stroke-width:1;"/><line x1="544.13" y1="676.0969" x2="552.13" y2="670.0969" style="stroke:#181818;stroke-width:1;"/><line x1="544.13" y1="676.0969" x2="552.13" y2="682.0969" style="stroke:#181818;stroke-width:1;"/><line x1="544.13" y1="676.0969" x2="552.13" y2="676.0969" style="stroke:#181818;stroke-width:1;"/><ellipse cx="538.13" cy="676.0969" rx="4" ry="4" fill="none" style="stroke:#181818;stroke-width:1;"/><text x="484.63" y="501.0938" fill="#000000" font-size="13" lengthAdjust="spacing" textLength="37.1528" font-family="sans-serif">reçoit</text></g><!--link user to transaction--><g class="link" data-entity-1="ent0001" data-entity-2="ent0004" id="lnk13" data-source-line="107" data-link-type="crowfoot"><path d="M719.78,534.5369 C719.78,662.9269 719.78,890.0969 719.78,890.0969 C719.78,890.0969 465.3,890.0969 335.98,890.0969" style="stroke:#181818;stroke-width:1;" fill="none" id="user-transaction" codeLine="107"/><line x1="715.78" y1="530.5369" x2="723.78" y2="530.5369" style="stroke:#181818;stroke-width:1;"/><line x1="715.78" y1="533.5369" x2="723.78" y2="533.5369" style="stroke:#181818;stroke-width:1;"/><line x1="719.78" y1="534.5369" x2="719.78" y2="526.5369" style="stroke:#181818;stroke-width:1;"/><line x1="325.98" y1="890.0969" x2="317.98" y2="896.0969" style="stroke:#181818;stroke-width:1;"/><line x1="325.98" y1="890.0969" x2="317.98" y2="884.0969" style="stroke:#181818;stroke-width:1;"/><line x1="325.98" y1="890.0969" x2="317.98" y2="890.0969" style="stroke:#181818;stroke-width:1;"/><ellipse cx="331.98" cy="890.0969" rx="4" ry="4" fill="none" style="stroke:#181818;stroke-width:1;"/><text x="647.65" y="886.1638" fill="#000000" font-size="13" lengthAdjust="spacing" textLength="52.1714" font-family="sans-serif">exécute</text></g><!--link user to chq--><g class="link" data-entity-1="ent0001" data-entity-2="ent0007" id="lnk14" data-source-line="108" data-link-type="crowfoot"><path d="M645.4,534.6769 C645.4,568.0969 645.4,591.0969 645.4,591.0969 C645.4,591.0969 597,591.0969 536.18,591.0969" style="stroke:#181818;stroke-width:1;" fill="none" id="user-chq" codeLine="108"/><line x1="641.4" y1="530.6769" x2="649.4" y2="530.6769" style="stroke:#181818;stroke-width:1;"/><line x1="641.4" y1="533.6769" x2="649.4" y2="533.6769" style="stroke:#181818;stroke-width:1;"/><line x1="645.4" y1="534.6769" x2="645.4" y2="526.6769" style="stroke:#181818;stroke-width:1;"/><line x1="526.18" y1="591.0969" x2="518.18" y2="597.0969" style="stroke:#181818;stroke-width:1;"/><line x1="526.18" y1="591.0969" x2="518.18" y2="585.0969" style="stroke:#181818;stroke-width:1;"/><line x1="526.18" y1="591.0969" x2="518.18" y2="591.0969" style="stroke:#181818;stroke-width:1;"/><ellipse cx="532.18" cy="591.0969" rx="4" ry="4" fill="none" style="stroke:#181818;stroke-width:1;"/><text x="578" y="587.1638" fill="#000000" font-size="13" lengthAdjust="spacing" textLength="35.1152" font-family="sans-serif">traite</text></g><!--link user to audit--><g class="link" data-entity-1="ent0001" data-entity-2="ent0008" id="lnk15" data-source-line="109" data-link-type="crowfoot"><path d="M755.25,534.6069 C755.25,601.0769 755.25,676.0969 755.25,676.0969 C755.25,676.0969 752.94,676.0969 772.35,676.0969" style="stroke:#181818;stroke-width:1;" fill="none" id="user-audit" codeLine="109"/><line x1="751.25" y1="530.6069" x2="759.25" y2="530.6069" style="stroke:#181818;stroke-width:1;"/><line x1="751.25" y1="533.6069" x2="759.25" y2="533.6069" style="stroke:#181818;stroke-width:1;"/><line x1="755.25" y1="534.6069" x2="755.25" y2="526.6069" style="stroke:#181818;stroke-width:1;"/><line x1="782.35" y1="676.0969" x2="790.35" y2="670.0969" style="stroke:#181818;stroke-width:1;"/><line x1="782.35" y1="676.0969" x2="790.35" y2="682.0969" style="stroke:#181818;stroke-width:1;"/><line x1="782.35" y1="676.0969" x2="790.35" y2="676.0969" style="stroke:#181818;stroke-width:1;"/><ellipse cx="776.35" cy="676.0969" rx="4" ry="4" fill="none" style="stroke:#181818;stroke-width:1;"/><text x="701.25" y="614.9638" fill="#000000" font-size="13" lengthAdjust="spacing" textLength="53.6313" font-family="sans-serif">effectue</text></g><!--link user to notif--><g class="link" data-entity-1="ent0001" data-entity-2="ent0009" id="lnk16" data-source-line="110" data-link-type="crowfoot"><path d="M664.85,534.6869 C664.85,556.5569 664.85,554.1869 664.85,576.0369" style="stroke:#181818;stroke-width:1;" fill="none" id="user-notif" codeLine="110"/><line x1="660.85" y1="530.6869" x2="668.85" y2="530.6869" style="stroke:#181818;stroke-width:1;"/><line x1="660.85" y1="533.6869" x2="668.85" y2="533.6869" style="stroke:#181818;stroke-width:1;"/><line x1="664.85" y1="534.6869" x2="664.85" y2="526.6869" style="stroke:#181818;stroke-width:1;"/><line x1="664.85" y1="586.0369" x2="670.85" y2="594.0369" style="stroke:#181818;stroke-width:1;"/><line x1="664.85" y1="586.0369" x2="658.85" y2="594.0369" style="stroke:#181818;stroke-width:1;"/><line x1="664.85" y1="586.0369" x2="664.85" y2="594.0369" style="stroke:#181818;stroke-width:1;"/><ellipse cx="664.85" cy="580.0369" rx="4" ry="4" fill="none" style="stroke:#181818;stroke-width:1;"/><text x="626.85" y="556.4338" fill="#000000" font-size="13" lengthAdjust="spacing" textLength="37.1528" font-family="sans-serif">reçoit</text></g><!--link account to transaction--><g class="link" data-entity-1="ent0003" data-entity-2="ent0004" id="lnk17" data-source-line="111" data-link-type="crowfoot"><path d="M238.99,534.6669 C238.99,620.3169 238.99,727.3669 238.99,806.2769" style="stroke:#181818;stroke-width:1;" fill="none" id="account-transaction" codeLine="111"/><line x1="234.99" y1="530.6669" x2="242.99" y2="530.6669" style="stroke:#181818;stroke-width:1;"/><line x1="234.99" y1="533.6669" x2="242.99" y2="533.6669" style="stroke:#181818;stroke-width:1;"/><line x1="238.99" y1="534.6669" x2="238.99" y2="526.6669" style="stroke:#181818;stroke-width:1;"/><line x1="238.99" y1="816.2769" x2="244.99" y2="824.2769" style="stroke:#181818;stroke-width:1;"/><line x1="238.99" y1="816.2769" x2="232.99" y2="824.2769" style="stroke:#181818;stroke-width:1;"/><line x1="238.99" y1="816.2769" x2="238.99" y2="824.2769" style="stroke:#181818;stroke-width:1;"/><ellipse cx="238.99" cy="810.2769" rx="4" ry="4" fill="none" style="stroke:#181818;stroke-width:1;"/><text x="194.99" y="671.5338" fill="#000000" font-size="13" lengthAdjust="spacing" textLength="43.4561" font-family="sans-serif">source</text></g><!--link account to transaction--><g class="link" data-entity-1="ent0003" data-entity-2="ent0004" id="lnk18" data-source-line="112" data-link-type="crowfoot"><path d="M263.73,534.6669 C263.73,620.3169 263.73,727.3669 263.73,806.2769" style="stroke:#181818;stroke-width:1;" fill="none" id="account-transaction-1" codeLine="112"/><line x1="259.73" y1="530.6669" x2="267.73" y2="530.6669" style="stroke:#181818;stroke-width:1;"/><line x1="259.73" y1="533.6669" x2="267.73" y2="533.6669" style="stroke:#181818;stroke-width:1;"/><line x1="263.73" y1="534.6669" x2="263.73" y2="526.6669" style="stroke:#181818;stroke-width:1;"/><line x1="263.73" y1="816.2769" x2="269.73" y2="824.2769" style="stroke:#181818;stroke-width:1;"/><line x1="263.73" y1="816.2769" x2="257.73" y2="824.2769" style="stroke:#181818;stroke-width:1;"/><line x1="263.73" y1="816.2769" x2="263.73" y2="824.2769" style="stroke:#181818;stroke-width:1;"/><ellipse cx="263.73" cy="810.2769" rx="4" ry="4" fill="none" style="stroke:#181818;stroke-width:1;"/><text x="190.73" y="688.5338" fill="#000000" font-size="13" lengthAdjust="spacing" textLength="72.8394" font-family="sans-serif">destination</text></g><!--link account to bill--><g class="link" data-entity-1="ent0003" data-entity-2="ent0006" id="lnk19" data-source-line="113" data-link-type="crowfoot"><path d="M181.11,518.0969 C167.82,518.0969 165.7,518.0969 165.7,518.0969 C165.7,518.0969 165.7,555.5569 165.7,600.6269" style="stroke:#181818;stroke-width:1;" fill="none" id="account-bill" codeLine="113"/><line x1="185.11" y1="514.0969" x2="185.11" y2="522.0969" style="stroke:#181818;stroke-width:1;"/><line x1="182.11" y1="514.0969" x2="182.11" y2="522.0969" style="stroke:#181818;stroke-width:1;"/><line x1="181.11" y1="518.0969" x2="189.11" y2="518.0969" style="stroke:#181818;stroke-width:1;"/><line x1="165.7" y1="610.6269" x2="171.7" y2="618.6269" style="stroke:#181818;stroke-width:1;"/><line x1="165.7" y1="610.6269" x2="159.7" y2="618.6269" style="stroke:#181818;stroke-width:1;"/><line x1="165.7" y1="610.6269" x2="165.7" y2="618.6269" style="stroke:#181818;stroke-width:1;"/><ellipse cx="165.7" cy="604.6269" rx="4" ry="4" fill="none" style="stroke:#181818;stroke-width:1;"/><text x="100.7" y="552.7238" fill="#000000" font-size="13" lengthAdjust="spacing" textLength="64.6128" font-family="sans-serif">débite via</text></g><!--link account to chq--><g class="link" data-entity-1="ent0003" data-entity-2="ent0007" id="lnk20" data-source-line="114" data-link-type="crowfoot"><path d="M288.46,534.4569 C288.46,573.1469 288.46,603.0969 288.46,603.0969 C288.46,603.0969 284.22,603.0969 302.82,603.0969" style="stroke:#181818;stroke-width:1;" fill="none" id="account-chq" codeLine="114"/><line x1="284.46" y1="530.4569" x2="292.46" y2="530.4569" style="stroke:#181818;stroke-width:1;"/><line x1="284.46" y1="533.4569" x2="292.46" y2="533.4569" style="stroke:#181818;stroke-width:1;"/><line x1="288.46" y1="534.4569" x2="288.46" y2="526.4569" style="stroke:#181818;stroke-width:1;"/><line x1="312.82" y1="603.0969" x2="320.82" y2="597.0969" style="stroke:#181818;stroke-width:1;"/><line x1="312.82" y1="603.0969" x2="320.82" y2="609.0969" style="stroke:#181818;stroke-width:1;"/><line x1="312.82" y1="603.0969" x2="320.82" y2="603.0969" style="stroke:#181818;stroke-width:1;"/><ellipse cx="306.82" cy="603.0969" rx="4" ry="4" fill="none" style="stroke:#181818;stroke-width:1;"/><text x="215.46" y="577.0238" fill="#000000" font-size="13" lengthAdjust="spacing" textLength="72.8838" font-family="sans-serif">commande</text></g><!--link provider to bill--><g class="link" data-entity-1="ent0005" data-entity-2="ent0006" id="lnk21" data-source-line="115" data-link-type="crowfoot"><path d="M94.36,518.2469 C94.36,552.2869 94.36,567.5869 94.36,600.3669" style="stroke:#181818;stroke-width:1;" fill="none" id="provider-bill" codeLine="115"/><line x1="90.36" y1="514.2469" x2="98.36" y2="514.2469" style="stroke:#181818;stroke-width:1;"/><line x1="90.36" y1="517.2469" x2="98.36" y2="517.2469" style="stroke:#181818;stroke-width:1;"/><line x1="94.36" y1="518.2469" x2="94.36" y2="510.2469" style="stroke:#181818;stroke-width:1;"/><line x1="94.36" y1="610.3669" x2="100.36" y2="618.3669" style="stroke:#181818;stroke-width:1;"/><line x1="94.36" y1="610.3669" x2="88.36" y2="618.3669" style="stroke:#181818;stroke-width:1;"/><line x1="94.36" y1="610.3669" x2="94.36" y2="618.3669" style="stroke:#181818;stroke-width:1;"/><ellipse cx="94.36" cy="604.3669" rx="4" ry="4" fill="none" style="stroke:#181818;stroke-width:1;"/><text x="33.36" y="560.3738" fill="#000000" font-size="13" lengthAdjust="spacing" textLength="60.0679" font-family="sans-serif">concerne</text></g><!--link bill to transaction--><g class="link" data-entity-1="ent0006" data-entity-2="ent0004" id="lnk22" data-source-line="116" data-link-type="association"><path d="M190.13,676.0969 C208.41,676.0969 214.26,676.0969 214.26,676.0969 C214.26,676.0969 214.26,753.4969 214.26,816.2069" style="stroke:#181818;stroke-width:1;" fill="none" id="bill-transaction" codeLine="116"/><line x1="186.13" y1="680.0969" x2="186.13" y2="672.0969" style="stroke:#181818;stroke-width:1;"/><line x1="189.13" y1="680.0969" x2="189.13" y2="672.0969" style="stroke:#181818;stroke-width:1;"/><line x1="190.13" y1="676.0969" x2="182.13" y2="676.0969" style="stroke:#181818;stroke-width:1;"/><line x1="218.26" y1="820.2069" x2="210.26" y2="820.2069" style="stroke:#181818;stroke-width:1;"/><line x1="218.26" y1="817.2069" x2="210.26" y2="817.2069" style="stroke:#181818;stroke-width:1;"/><line x1="214.26" y1="816.2069" x2="214.26" y2="824.2069" style="stroke:#181818;stroke-width:1;"/><text x="168.26" y="747.1538" fill="#000000" font-size="13" lengthAdjust="spacing" textLength="45.8301" font-family="sans-serif">génère</text></g><?plantuml-src ZLLBRjim4Dth54Gt_G2-W7U2uw0gOZjrx7N0K2ERA4Kg_BW9uW8zHE_GQ9yRw2OzIOUah5XgucOZcJEZcVVcpT3c6vSLrRGaPajpzPtB3IceC92OpYEu17jV0L7QRbMIM6u5aDdaZFpv-OlCLDuyufafoQ2o3WJ9WUHAogO6aoGWCVwUl5klieliAbrDryjtX1hY36Zoa13oYV3S1nMSIeldqGWVKfKaV-yi5znG2qwZhLJMfwweCK0-i2ql2jtK7zjefifAW4y09UK2txfv4e1lxx50ACCQoOzdH9EBR3fV1J1CSBIUWEFAfjQgZKF399l7klYi44NyTQXicreqTRLLqjUdkGQ4ZB-uB9J1U5MWWMEBG0Zi4I76Kklia6E53SU4VQu7ewUpQsgqvA0bRnvrq4327IO-HFNeBcQNgscWInbJxaryG-iy8zJ_6ATH8lU67CKXokr0MwSx0nFDKpWVbLyjq_bLEbbbYtd0O3MLnfD0jA_YQCkMIjfe3Ud1aYsqvS0mpIkVvRZOEHPQBxDf73Li-0wJdnWtfW8RmMzGaT1KHb74ZT8yA3WSdSiqcyvmUAvZeTZL6ox4woLGlW9x2hWbpsCq8COmY0wve6wpT7uslPvyddvT7pYnxUsRv2kf3DHk7VNv0hT2wP9QKe13n61x0nXmv73uB1nHAcwXX6UWWk_GPlf0lopMotbwSPskpxAuLjJb_CIKHVLRcGbq-7X-TFX7yQRsassEAyyNg-mycwJTS4c5fVuxLlXnI5dYDj9D703mU8I35oLfhudzVZHI3zqMZN7RZ6aUiM7z0A_Hk6jctnSHZec6vhVYDWdNOUixNeqnWRkcPWwty3Wafex2z1onvVXLKG33sxZd71OzC7Ynhb5ECpWTW-jdkOpz6GI6RHXxkMuG8zbnEeo87BePxRQqdo3yhsYyICFP-_Rx0OeDth_-_liB?></g></svg>