<svg xmlns="http://www.w3.org/2000/svg" xmlns:xlink="http://www.w3.org/1999/xlink" version="1.1" data-diagram-type="CLASS" style="width:1433px;height:1132px;background:#FFFFFF;" width="1433px" height="1132px" viewBox="0 0 1433 1132" zoomAndPan="magnify" preserveAspectRatio="none" contentStyleType="text/css"><?plantuml 1.2026.7beta3?><defs/><g><g class="title" data-source-line="4"><text x="575.6288" y="22.9951" fill="#000000" font-size="14" lengthAdjust="spacing" textLength="275.3379" font-weight="700" font-family="sans-serif">MLD — Modèle logique de données</text></g><!--class users--><g class="entity" data-qualified-name="users" id="ent0001" data-source-line="6"><rect x="871.25" y="396.7569" width="253.083" height="194.6719" fill="#F1F1F1" style="stroke:#181818;stroke-width:0.5;" rx="2.5" ry="2.5"/><ellipse cx="974.6265" cy="412.7569" rx="11" ry="11" fill="#ADD1B2" style="stroke:#181818;stroke-width:1;"/><path d="M978.7358,418.7569 L971.0171,418.7569 L971.0171,406.3663 L978.7358,406.3663 L978.7358,408.5225 L973.4702,408.5225 L973.4702,411.1944 L978.2358,411.1944 L978.2358,413.3506 L973.4702,413.3506 L973.4702,416.6006 L978.7358,416.6006 L978.7358,418.7569 Z " fill="#000000"/><text x="995.1265" y="417.6036" fill="#000000" font-size="14" lengthAdjust="spacing" textLength="37.8301" font-family="sans-serif">users</text><line x1="872.25" y1="428.7569" x2="1123.333" y2="428.7569" style="stroke:#181818;stroke-width:0.5;"/><g data-visibility-modifier="IE_MANDATORY"><ellipse cx="882.25" cy="442.4053" rx="3" ry="3" fill="#000000" style="stroke:#000000;stroke-width:1;"/></g><text x="891.25" y="445.752" fill="#000000" font-size="14" lengthAdjust="spacing" textLength="14.8203" font-weight="700" font-family="sans-serif">id</text><text x="910.5205" y="445.752" fill="#000000" font-size="14" lengthAdjust="spacing" textLength="96.1064" font-family="sans-serif">: BIGINT «PK»</text><line x1="872.25" y1="453.0538" x2="1123.333" y2="453.0538" style="stroke:#181818;stroke-width:1;"/><g data-visibility-modifier="IE_MANDATORY"><ellipse cx="882.25" cy="466.7022" rx="3" ry="3" fill="#000000" style="stroke:#000000;stroke-width:1;"/></g><text x="891.25" y="470.0489" fill="#000000" font-size="14" lengthAdjust="spacing" textLength="222.0928" font-family="sans-serif">username : VARCHAR(50) «UK»</text><g data-visibility-modifier="IE_MANDATORY"><ellipse cx="882.25" cy="482.9991" rx="3" ry="3" fill="#000000" style="stroke:#000000;stroke-width:1;"/></g><text x="891.25" y="486.3457" fill="#000000" font-size="14" lengthAdjust="spacing" textLength="227.083" font-family="sans-serif">password_hash : VARCHAR(255)</text><g data-visibility-modifier="IE_MANDATORY"><ellipse cx="882.25" cy="499.2959" rx="3" ry="3" fill="#000000" style="stroke:#000000;stroke-width:1;"/></g><text x="891.25" y="502.6426" fill="#000000" font-size="14" lengthAdjust="spacing" textLength="188.0361" font-family="sans-serif">full_name : VARCHAR(100)</text><text x="891.25" y="518.9395" fill="#000000" font-size="14" lengthAdjust="spacing" textLength="158.3613" font-family="sans-serif">email : VARCHAR(100)</text><g data-visibility-modifier="IE_MANDATORY"><ellipse cx="882.25" cy="531.8897" rx="3" ry="3" fill="#000000" style="stroke:#000000;stroke-width:1;"/></g><text x="891.25" y="535.2364" fill="#000000" font-size="14" lengthAdjust="spacing" textLength="137.6689" font-family="sans-serif">role : VARCHAR(20)</text><g data-visibility-modifier="IE_MANDATORY"><ellipse cx="882.25" cy="548.1866" rx="3" ry="3" fill="#000000" style="stroke:#000000;stroke-width:1;"/></g><text x="891.25" y="551.5332" fill="#000000" font-size="14" lengthAdjust="spacing" textLength="138.2979" font-family="sans-serif">enabled : BOOLEAN</text><text x="891.25" y="567.8301" fill="#000000" font-size="14" lengthAdjust="spacing" textLength="187.6055" font-family="sans-serif">created_at : TIMESTAMPTZ</text><text x="891.25" y="584.127" fill="#000000" font-size="14" lengthAdjust="spacing" textLength="200.3271" font-family="sans-serif">last_login_at : TIMESTAMPTZ</text></g><!--class clients--><g class="entity" data-qualified-name="clients" id="ent0002" data-source-line="19"><rect x="623.82" y="44.2969" width="277.9453" height="292.4531" fill="#F1F1F1" style="stroke:#181818;stroke-width:0.5;" rx="2.5" ry="2.5"/><ellipse cx="735.6696" cy="60.2969" rx="11" ry="11" fill="#ADD1B2" style="stroke:#181818;stroke-width:1;"/><path d="M739.779,66.2969 L732.0602,66.2969 L732.0602,53.9063 L739.779,53.9063 L739.779,56.0625 L734.5134,56.0625 L734.5134,58.7344 L739.279,58.7344 L739.279,60.8906 L734.5134,60.8906 L734.5134,64.1406 L739.779,64.1406 L739.779,66.2969 Z " fill="#000000"/><text x="756.1696" y="65.1436" fill="#000000" font-size="14" lengthAdjust="spacing" textLength="45.7461" font-family="sans-serif">clients</text><line x1="624.82" y1="76.2969" x2="900.7653" y2="76.2969" style="stroke:#181818;stroke-width:0.5;"/><g data-visibility-modifier="IE_MANDATORY"><ellipse cx="634.82" cy="89.9453" rx="3" ry="3" fill="#000000" style="stroke:#000000;stroke-width:1;"/></g><text x="643.82" y="93.292" fill="#000000" font-size="14" lengthAdjust="spacing" textLength="14.8203" font-weight="700" font-family="sans-serif">id</text><text x="663.0905" y="93.292" fill="#000000" font-size="14" lengthAdjust="spacing" textLength="96.1064" font-family="sans-serif">: BIGINT «PK»</text><line x1="624.82" y1="100.5938" x2="900.7653" y2="100.5938" style="stroke:#181818;stroke-width:1;"/><g data-visibility-modifier="IE_MANDATORY"><ellipse cx="634.82" cy="114.2422" rx="3" ry="3" fill="#000000" style="stroke:#000000;stroke-width:1;"/></g><text x="643.82" y="117.5889" fill="#000000" font-size="14" lengthAdjust="spacing" textLength="251.9453" font-family="sans-serif">client_number : VARCHAR(20) «UK»</text><g data-visibility-modifier="IE_MANDATORY"><ellipse cx="634.82" cy="130.5391" rx="3" ry="3" fill="#000000" style="stroke:#000000;stroke-width:1;"/></g><text x="643.82" y="133.8857" fill="#000000" font-size="14" lengthAdjust="spacing" textLength="172.3135" font-family="sans-serif">cin : VARCHAR(20) «UK»</text><g data-visibility-modifier="IE_MANDATORY"><ellipse cx="634.82" cy="146.8359" rx="3" ry="3" fill="#000000" style="stroke:#000000;stroke-width:1;"/></g><text x="643.82" y="150.1826" fill="#000000" font-size="14" lengthAdjust="spacing" textLength="184.9053" font-family="sans-serif">first_name : VARCHAR(50)</text><g data-visibility-modifier="IE_MANDATORY"><ellipse cx="634.82" cy="163.1328" rx="3" ry="3" fill="#000000" style="stroke:#000000;stroke-width:1;"/></g><text x="643.82" y="166.4795" fill="#000000" font-size="14" lengthAdjust="spacing" textLength="182.7998" font-family="sans-serif">last_name : VARCHAR(50)</text><text x="643.82" y="182.7764" fill="#000000" font-size="14" lengthAdjust="spacing" textLength="158.3613" font-family="sans-serif">email : VARCHAR(100)</text><text x="643.82" y="199.0732" fill="#000000" font-size="14" lengthAdjust="spacing" textLength="154.6563" font-family="sans-serif">phone : VARCHAR(20)</text><text x="643.82" y="215.3701" fill="#000000" font-size="14" lengthAdjust="spacing" textLength="175.0615" font-family="sans-serif">address : VARCHAR(255)</text><text x="643.82" y="231.667" fill="#000000" font-size="14" lengthAdjust="spacing" textLength="167.5488" font-family="sans-serif">professional_info : TEXT</text><g data-visibility-modifier="IE_MANDATORY"><ellipse cx="634.82" cy="244.6172" rx="3" ry="3" fill="#000000" style="stroke:#000000;stroke-width:1;"/></g><text x="643.82" y="247.9639" fill="#000000" font-size="14" lengthAdjust="spacing" textLength="153.8633" font-family="sans-serif">status : VARCHAR(20)</text><text x="643.82" y="264.2607" fill="#000000" font-size="14" lengthAdjust="spacing" textLength="187.6055" font-family="sans-serif">created_at : TIMESTAMPTZ</text><text x="643.82" y="280.5576" fill="#000000" font-size="14" lengthAdjust="spacing" textLength="192.1855" font-family="sans-serif">updated_at : TIMESTAMPTZ</text><text x="643.82" y="296.8545" fill="#000000" font-size="14" lengthAdjust="spacing" textLength="227.083" font-family="sans-serif">password_hash : VARCHAR(255)</text><text x="643.82" y="313.1514" fill="#000000" font-size="14" lengthAdjust="spacing" textLength="186.4639" font-family="sans-serif">portal_enabled : BOOLEAN</text><text x="643.82" y="329.4482" fill="#000000" font-size="14" lengthAdjust="spacing" textLength="200.3271" font-family="sans-serif">last_login_at : TIMESTAMPTZ</text></g><!--class accounts--><g class="entity" data-qualified-name="accounts" id="ent0003" data-source-line="38"><rect x="52.16" y="396.7569" width="295.2676" height="194.6719" fill="#F1F1F1" style="stroke:#181818;stroke-width:0.5;" rx="2.5" ry="2.5"/><ellipse cx="164.0096" cy="412.7569" rx="11" ry="11" fill="#ADD1B2" style="stroke:#181818;stroke-width:1;"/><path d="M168.119,418.7569 L160.4002,418.7569 L160.4002,406.3663 L168.119,406.3663 L168.119,408.5225 L162.8534,408.5225 L162.8534,411.1944 L167.619,411.1944 L167.619,413.3506 L162.8534,413.3506 L162.8534,416.6006 L168.119,416.6006 L168.119,418.7569 Z " fill="#000000"/><text x="184.5096" y="417.6036" fill="#000000" font-size="14" lengthAdjust="spacing" textLength="63.0684" font-family="sans-serif">accounts</text><line x1="53.16" y1="428.7569" x2="346.4276" y2="428.7569" style="stroke:#181818;stroke-width:0.5;"/><g data-visibility-modifier="IE_MANDATORY"><ellipse cx="63.16" cy="442.4053" rx="3" ry="3" fill="#000000" style="stroke:#000000;stroke-width:1;"/></g><text x="72.16" y="445.752" fill="#000000" font-size="14" lengthAdjust="spacing" textLength="14.8203" font-weight="700" font-family="sans-serif">id</text><text x="91.4305" y="445.752" fill="#000000" font-size="14" lengthAdjust="spacing" textLength="96.1064" font-family="sans-serif">: BIGINT «PK»</text><line x1="53.16" y1="453.0538" x2="346.4276" y2="453.0538" style="stroke:#181818;stroke-width:1;"/><g data-visibility-modifier="IE_MANDATORY"><ellipse cx="63.16" cy="466.7022" rx="3" ry="3" fill="#000000" style="stroke:#000000;stroke-width:1;"/></g><text x="72.16" y="470.0489" fill="#000000" font-size="14" lengthAdjust="spacing" textLength="269.2676" font-family="sans-serif">account_number : VARCHAR(20) «UK»</text><g data-visibility-modifier="IE_MANDATORY"><ellipse cx="63.16" cy="482.9991" rx="3" ry="3" fill="#000000" style="stroke:#000000;stroke-width:1;"/></g><text x="72.16" y="486.3457" fill="#000000" font-size="14" lengthAdjust="spacing" textLength="158.3955" font-family="sans-serif">client_id : BIGINT «FK»</text><g data-visibility-modifier="IE_MANDATORY"><ellipse cx="63.16" cy="499.2959" rx="3" ry="3" fill="#000000" style="stroke:#000000;stroke-width:1;"/></g><text x="72.16" y="502.6426" fill="#000000" font-size="14" lengthAdjust="spacing" textLength="142.1191" font-family="sans-serif">type : VARCHAR(20)</text><g data-visibility-modifier="IE_MANDATORY"><ellipse cx="63.16" cy="515.5928" rx="3" ry="3" fill="#000000" style="stroke:#000000;stroke-width:1;"/></g><text x="72.16" y="518.9395" fill="#000000" font-size="14" lengthAdjust="spacing" textLength="153.8633" font-family="sans-serif">status : VARCHAR(20)</text><g data-visibility-modifier="IE_MANDATORY"><ellipse cx="63.16" cy="531.8897" rx="3" ry="3" fill="#000000" style="stroke:#000000;stroke-width:1;"/></g><text x="72.16" y="535.2364" fill="#000000" font-size="14" lengthAdjust="spacing" textLength="176.1074" font-family="sans-serif">balance : NUMERIC(19,4)</text><text x="72.16" y="551.5332" fill="#000000" font-size="14" lengthAdjust="spacing" textLength="186.4092" font-family="sans-serif">opened_at : TIMESTAMPTZ</text><text x="72.16" y="567.8301" fill="#000000" font-size="14" lengthAdjust="spacing" textLength="178.917" font-family="sans-serif">closed_at : TIMESTAMPTZ</text><g data-visibility-modifier="IE_MANDATORY"><ellipse cx="63.16" cy="580.7803" rx="3" ry="3" fill="#000000" style="stroke:#000000;stroke-width:1;"/></g><text x="72.16" y="584.127" fill="#000000" font-size="14" lengthAdjust="spacing" textLength="112.6289" font-family="sans-serif">version : BIGINT</text></g><!--class transactions--><g class="entity" data-qualified-name="transactions" id="ent0004" data-source-line="51"><rect x="56.21" y="684.0169" width="287.1602" height="178.375" fill="#F1F1F1" style="stroke:#181818;stroke-width:0.5;" rx="2.5" ry="2.5"/><ellipse cx="152.3506" cy="700.0169" rx="11" ry="11" fill="#ADD1B2" style="stroke:#181818;stroke-width:1;"/><path d="M156.46,706.0169 L148.7413,706.0169 L148.7413,693.6263 L156.46,693.6263 L156.46,695.7825 L151.1944,695.7825 L151.1944,698.4544 L155.96,698.4544 L155.96,700.6106 L151.1944,700.6106 L151.1944,703.8606 L156.46,703.8606 L156.46,706.0169 Z " fill="#000000"/><text x="172.8506" y="704.8636" fill="#000000" font-size="14" lengthAdjust="spacing" textLength="86.3789" font-family="sans-serif">transactions</text><line x1="57.21" y1="716.0169" x2="342.3702" y2="716.0169" style="stroke:#181818;stroke-width:0.5;"/><g data-visibility-modifier="IE_MANDATORY"><ellipse cx="67.21" cy="729.6653" rx="3" ry="3" fill="#000000" style="stroke:#000000;stroke-width:1;"/></g><text x="76.21" y="733.012" fill="#000000" font-size="14" lengthAdjust="spacing" textLength="14.8203" font-weight="700" font-family="sans-serif">id</text><text x="95.4805" y="733.012" fill="#000000" font-size="14" lengthAdjust="spacing" textLength="96.1064" font-family="sans-serif">: BIGINT «PK»</text><line x1="57.21" y1="740.3138" x2="342.3702" y2="740.3138" style="stroke:#181818;stroke-width:1;"/><g data-visibility-modifier="IE_MANDATORY"><ellipse cx="67.21" cy="753.9622" rx="3" ry="3" fill="#000000" style="stroke:#000000;stroke-width:1;"/></g><text x="76.21" y="757.3089" fill="#000000" font-size="14" lengthAdjust="spacing" textLength="142.1191" font-family="sans-serif">type : VARCHAR(30)</text><g data-visibility-modifier="IE_MANDATORY"><ellipse cx="67.21" cy="770.2591" rx="3" ry="3" fill="#000000" style="stroke:#000000;stroke-width:1;"/></g><text x="76.21" y="773.6057" fill="#000000" font-size="14" lengthAdjust="spacing" textLength="175.0068" font-family="sans-serif">amount : NUMERIC(19,4)</text><text x="76.21" y="789.9026" fill="#000000" font-size="14" lengthAdjust="spacing" textLength="229.5166" font-family="sans-serif">source_account_id : BIGINT «FK»</text><text x="76.21" y="806.1995" fill="#000000" font-size="14" lengthAdjust="spacing" textLength="261.1602" font-family="sans-serif">destination_account_id : BIGINT «FK»</text><g data-visibility-modifier="IE_MANDATORY"><ellipse cx="67.21" cy="819.1497" rx="3" ry="3" fill="#000000" style="stroke:#000000;stroke-width:1;"/></g><text x="76.21" y="822.4964" fill="#000000" font-size="14" lengthAdjust="spacing" textLength="189.4102" font-family="sans-serif">executed_by : BIGINT «FK»</text><g data-visibility-modifier="IE_MANDATORY"><ellipse cx="67.21" cy="835.4466" rx="3" ry="3" fill="#000000" style="stroke:#000000;stroke-width:1;"/></g><text x="76.21" y="838.7932" fill="#000000" font-size="14" lengthAdjust="spacing" textLength="199.042" font-family="sans-serif">executed_at : TIMESTAMPTZ</text><text x="76.21" y="855.0901" fill="#000000" font-size="14" lengthAdjust="spacing" textLength="197.5928" font-family="sans-serif">description : VARCHAR(255)</text></g><!--class bill_providers--><g class="entity" data-qualified-name="bill_providers" id="ent0005" data-source-line="63"><rect x="377.98" y="708.4669" width="211.6162" height="129.4844" fill="#F1F1F1" style="stroke:#181818;stroke-width:0.5;" rx="2.5" ry="2.5"/><ellipse cx="432.794" cy="724.4669" rx="11" ry="11" fill="#ADD1B2" style="stroke:#181818;stroke-width:1;"/><path d="M436.9033,730.4669 L429.1846,730.4669 L429.1846,718.0763 L436.9033,718.0763 L436.9033,720.2325 L431.6377,720.2325 L431.6377,722.9044 L436.4033,722.9044 L436.4033,725.0606 L431.6377,725.0606 L431.6377,728.3106 L436.9033,728.3106 L436.9033,730.4669 Z " fill="#000000"/><text x="453.294" y="729.3136" fill="#000000" font-size="14" lengthAdjust="spacing" textLength="93.4883" font-family="sans-serif">bill_providers</text><line x1="378.98" y1="740.4669" x2="588.5962" y2="740.4669" style="stroke:#181818;stroke-width:0.5;"/><g data-visibility-modifier="IE_MANDATORY"><ellipse cx="388.98" cy="754.1153" rx="3" ry="3" fill="#000000" style="stroke:#000000;stroke-width:1;"/></g><text x="397.98" y="757.462" fill="#000000" font-size="14" lengthAdjust="spacing" textLength="14.8203" font-weight="700" font-family="sans-serif">id</text><text x="417.2505" y="757.462" fill="#000000" font-size="14" lengthAdjust="spacing" textLength="96.1064" font-family="sans-serif">: BIGINT «PK»</text><line x1="378.98" y1="764.7638" x2="588.5962" y2="764.7638" style="stroke:#181818;stroke-width:1;"/><g data-visibility-modifier="IE_MANDATORY"><ellipse cx="388.98" cy="778.4122" rx="3" ry="3" fill="#000000" style="stroke:#000000;stroke-width:1;"/></g><text x="397.98" y="781.7589" fill="#000000" font-size="14" lengthAdjust="spacing" textLength="185.6162" font-family="sans-serif">code : VARCHAR(20) «UK»</text><g data-visibility-modifier="IE_MANDATORY"><ellipse cx="388.98" cy="794.7091" rx="3" ry="3" fill="#000000" style="stroke:#000000;stroke-width:1;"/></g><text x="397.98" y="798.0557" fill="#000000" font-size="14" lengthAdjust="spacing" textLength="159.4551" font-family="sans-serif">name : VARCHAR(100)</text><text x="397.98" y="814.3526" fill="#000000" font-size="14" lengthAdjust="spacing" textLength="172.7168" font-family="sans-serif">category : VARCHAR(50)</text><g data-visibility-modifier="IE_MANDATORY"><ellipse cx="388.98" cy="827.3028" rx="3" ry="3" fill="#000000" style="stroke:#000000;stroke-width:1;"/></g><text x="397.98" y="830.6495" fill="#000000" font-size="14" lengthAdjust="spacing" textLength="124.5098" font-family="sans-serif">active : BOOLEAN</text></g><!--class bill_payments--><g class="entity" data-qualified-name="bill_payments" id="ent0006" data-source-line="72"><rect x="66.77" y="954.9869" width="266.0371" height="162.0781" fill="#F1F1F1" style="stroke:#181818;stroke-width:0.5;" rx="2.5" ry="2.5"/><ellipse cx="146.9316" cy="970.9869" rx="11" ry="11" fill="#ADD1B2" style="stroke:#181818;stroke-width:1;"/><path d="M151.041,976.9869 L143.3222,976.9869 L143.3222,964.5962 L151.041,964.5962 L151.041,966.7525 L145.7754,966.7525 L145.7754,969.4244 L150.541,969.4244 L150.541,971.5806 L145.7754,971.5806 L145.7754,974.8306 L151.041,974.8306 L151.041,976.9869 Z " fill="#000000"/><text x="167.4316" y="975.8336" fill="#000000" font-size="14" lengthAdjust="spacing" textLength="97.2139" font-family="sans-serif">bill_payments</text><line x1="67.77" y1="986.9869" x2="331.8071" y2="986.9869" style="stroke:#181818;stroke-width:0.5;"/><g data-visibility-modifier="IE_MANDATORY"><ellipse cx="77.77" cy="1000.6353" rx="3" ry="3" fill="#000000" style="stroke:#000000;stroke-width:1;"/></g><text x="86.77" y="1003.982" fill="#000000" font-size="14" lengthAdjust="spacing" textLength="14.8203" font-weight="700" font-family="sans-serif">id</text><text x="106.0405" y="1003.982" fill="#000000" font-size="14" lengthAdjust="spacing" textLength="96.1064" font-family="sans-serif">: BIGINT «PK»</text><line x1="67.77" y1="1011.2837" x2="331.8071" y2="1011.2837" style="stroke:#181818;stroke-width:1;"/><g data-visibility-modifier="IE_MANDATORY"><ellipse cx="77.77" cy="1024.9322" rx="3" ry="3" fill="#000000" style="stroke:#000000;stroke-width:1;"/></g><text x="86.77" y="1028.2789" fill="#000000" font-size="14" lengthAdjust="spacing" textLength="175.7178" font-family="sans-serif">account_id : BIGINT «FK»</text><g data-visibility-modifier="IE_MANDATORY"><ellipse cx="77.77" cy="1041.2291" rx="3" ry="3" fill="#000000" style="stroke:#000000;stroke-width:1;"/></g><text x="86.77" y="1044.5757" fill="#000000" font-size="14" lengthAdjust="spacing" textLength="206.1377" font-family="sans-serif">bill_provider_id : BIGINT «FK»</text><g data-visibility-modifier="IE_MANDATORY"><ellipse cx="77.77" cy="1057.5259" rx="3" ry="3" fill="#000000" style="stroke:#000000;stroke-width:1;"/></g><text x="86.77" y="1060.8726" fill="#000000" font-size="14" lengthAdjust="spacing" textLength="223.7607" font-family="sans-serif">client_reference : VARCHAR(50)</text><g data-visibility-modifier="IE_MANDATORY"><ellipse cx="77.77" cy="1073.8228" rx="3" ry="3" fill="#000000" style="stroke:#000000;stroke-width:1;"/></g><text x="86.77" y="1077.1695" fill="#000000" font-size="14" lengthAdjust="spacing" textLength="175.0068" font-family="sans-serif">amount : NUMERIC(19,4)</text><g data-visibility-modifier="IE_MANDATORY"><ellipse cx="77.77" cy="1090.1197" rx="3" ry="3" fill="#000000" style="stroke:#000000;stroke-width:1;"/></g><text x="86.77" y="1093.4664" fill="#000000" font-size="14" lengthAdjust="spacing" textLength="240.0371" font-family="sans-serif">transaction_id : BIGINT «FK» «UK»</text><text x="86.77" y="1109.7632" fill="#000000" font-size="14" lengthAdjust="spacing" textLength="187.6055" font-family="sans-serif">created_at : TIMESTAMPTZ</text></g><!--class checkbook_orders--><g class="entity" data-qualified-name="checkbook_orders" id="ent0007" data-source-line="83"><rect x="624.25" y="651.4269" width="277.0703" height="243.5625" fill="#F1F1F1" style="stroke:#181818;stroke-width:0.5;" rx="2.5" ry="2.5"/><ellipse cx="695.043" cy="667.4269" rx="11" ry="11" fill="#ADD1B2" style="stroke:#181818;stroke-width:1;"/><path d="M699.1523,673.4269 L691.4336,673.4269 L691.4336,661.0363 L699.1523,661.0363 L699.1523,663.1925 L693.8867,663.1925 L693.8867,665.8644 L698.6523,665.8644 L698.6523,668.0206 L693.8867,668.0206 L693.8867,671.2706 L699.1523,671.2706 L699.1523,673.4269 Z " fill="#000000"/><text x="715.543" y="672.2736" fill="#000000" font-size="14" lengthAdjust="spacing" textLength="126.9844" font-family="sans-serif">checkbook_orders</text><line x1="625.25" y1="683.4269" x2="900.3203" y2="683.4269" style="stroke:#181818;stroke-width:0.5;"/><g data-visibility-modifier="IE_MANDATORY"><ellipse cx="635.25" cy="697.0753" rx="3" ry="3" fill="#000000" style="stroke:#000000;stroke-width:1;"/></g><text x="644.25" y="700.422" fill="#000000" font-size="14" lengthAdjust="spacing" textLength="14.8203" font-weight="700" font-family="sans-serif">id</text><text x="663.5205" y="700.422" fill="#000000" font-size="14" lengthAdjust="spacing" textLength="96.1064" font-family="sans-serif">: BIGINT «PK»</text><line x1="625.25" y1="707.7238" x2="900.3203" y2="707.7238" style="stroke:#181818;stroke-width:1;"/><g data-visibility-modifier="IE_MANDATORY"><ellipse cx="635.25" cy="721.3722" rx="3" ry="3" fill="#000000" style="stroke:#000000;stroke-width:1;"/></g><text x="644.25" y="724.7189" fill="#000000" font-size="14" lengthAdjust="spacing" textLength="251.0703" font-family="sans-serif">order_number : VARCHAR(20) «UK»</text><g data-visibility-modifier="IE_MANDATORY"><ellipse cx="635.25" cy="737.6691" rx="3" ry="3" fill="#000000" style="stroke:#000000;stroke-width:1;"/></g><text x="644.25" y="741.0157" fill="#000000" font-size="14" lengthAdjust="spacing" textLength="175.7178" font-family="sans-serif">account_id : BIGINT «FK»</text><g data-visibility-modifier="IE_MANDATORY"><ellipse cx="635.25" cy="753.9659" rx="3" ry="3" fill="#000000" style="stroke:#000000;stroke-width:1;"/></g><text x="644.25" y="757.3126" fill="#000000" font-size="14" lengthAdjust="spacing" textLength="158.3955" font-family="sans-serif">client_id : BIGINT «FK»</text><g data-visibility-modifier="IE_MANDATORY"><ellipse cx="635.25" cy="770.2628" rx="3" ry="3" fill="#000000" style="stroke:#000000;stroke-width:1;"/></g><text x="644.25" y="773.6095" fill="#000000" font-size="14" lengthAdjust="spacing" textLength="133.4033" font-family="sans-serif">quantity : INTEGER</text><g data-visibility-modifier="IE_MANDATORY"><ellipse cx="635.25" cy="786.5597" rx="3" ry="3" fill="#000000" style="stroke:#000000;stroke-width:1;"/></g><text x="644.25" y="789.9064" fill="#000000" font-size="14" lengthAdjust="spacing" textLength="196.2256" font-family="sans-serif">sheet_count : VARCHAR(20)</text><g data-visibility-modifier="IE_MANDATORY"><ellipse cx="635.25" cy="802.8566" rx="3" ry="3" fill="#000000" style="stroke:#000000;stroke-width:1;"/></g><text x="644.25" y="806.2032" fill="#000000" font-size="14" lengthAdjust="spacing" textLength="153.8633" font-family="sans-serif">status : VARCHAR(20)</text><g data-visibility-modifier="IE_MANDATORY"><ellipse cx="635.25" cy="819.1534" rx="3" ry="3" fill="#000000" style="stroke:#000000;stroke-width:1;"/></g><text x="644.25" y="822.5001" fill="#000000" font-size="14" lengthAdjust="spacing" textLength="204.9961" font-family="sans-serif">requested_at : TIMESTAMPTZ</text><text x="644.25" y="838.797" fill="#000000" font-size="14" lengthAdjust="spacing" textLength="205.5771" font-family="sans-serif">processed_at : TIMESTAMPTZ</text><text x="644.25" y="855.0939" fill="#000000" font-size="14" lengthAdjust="spacing" textLength="199.4043" font-family="sans-serif">delivered_at : TIMESTAMPTZ</text><g data-visibility-modifier="IE_MANDATORY"><ellipse cx="635.25" cy="868.0441" rx="3" ry="3" fill="#000000" style="stroke:#000000;stroke-width:1;"/></g><text x="644.25" y="871.3907" fill="#000000" font-size="14" lengthAdjust="spacing" textLength="195.3643" font-family="sans-serif">requested_by : BIGINT «FK»</text><text x="644.25" y="887.6876" fill="#000000" font-size="14" lengthAdjust="spacing" textLength="158.5869" font-family="sans-serif">notes : VARCHAR(255)</text></g><!--class audit_logs--><g class="entity" data-qualified-name="audit_logs" id="ent0008" data-source-line="99"><rect x="935.98" y="692.1669" width="233.6143" height="162.0781" fill="#F1F1F1" style="stroke:#181818;stroke-width:0.5;" rx="2.5" ry="2.5"/><ellipse cx="1012.8604" cy="708.1669" rx="11" ry="11" fill="#ADD1B2" style="stroke:#181818;stroke-width:1;"/><path d="M1016.9697,714.1669 L1009.251,714.1669 L1009.251,701.7763 L1016.9697,701.7763 L1016.9697,703.9325 L1011.7041,703.9325 L1011.7041,706.6044 L1016.4697,706.6044 L1016.4697,708.7606 L1011.7041,708.7606 L1011.7041,712.0106 L1016.9697,712.0106 L1016.9697,714.1669 Z " fill="#000000"/><text x="1033.3604" y="713.0136" fill="#000000" font-size="14" lengthAdjust="spacing" textLength="71.3535" font-family="sans-serif">audit_logs</text><line x1="936.98" y1="724.1669" x2="1168.5943" y2="724.1669" style="stroke:#181818;stroke-width:0.5;"/><g data-visibility-modifier="IE_MANDATORY"><ellipse cx="946.98" cy="737.8153" rx="3" ry="3" fill="#000000" style="stroke:#000000;stroke-width:1;"/></g><text x="955.98" y="741.162" fill="#000000" font-size="14" lengthAdjust="spacing" textLength="14.8203" font-weight="700" font-family="sans-serif">id</text><text x="975.2505" y="741.162" fill="#000000" font-size="14" lengthAdjust="spacing" textLength="96.1064" font-family="sans-serif">: BIGINT «PK»</text><line x1="936.98" y1="748.4638" x2="1168.5943" y2="748.4638" style="stroke:#181818;stroke-width:1;"/><g data-visibility-modifier="IE_MANDATORY"><ellipse cx="946.98" cy="762.1122" rx="3" ry="3" fill="#000000" style="stroke:#000000;stroke-width:1;"/></g><text x="955.98" y="765.4589" fill="#000000" font-size="14" lengthAdjust="spacing" textLength="153.9385" font-family="sans-serif">action : VARCHAR(50)</text><text x="955.98" y="781.7557" fill="#000000" font-size="14" lengthAdjust="spacing" textLength="189.7588" font-family="sans-serif">entity_type : VARCHAR(50)</text><text x="955.98" y="798.0526" fill="#000000" font-size="14" lengthAdjust="spacing" textLength="121.7686" font-family="sans-serif">entity_id : BIGINT</text><g data-visibility-modifier="IE_MANDATORY"><ellipse cx="946.98" cy="811.0028" rx="3" ry="3" fill="#000000" style="stroke:#000000;stroke-width:1;"/></g><text x="955.98" y="814.3495" fill="#000000" font-size="14" lengthAdjust="spacing" textLength="197.9824" font-family="sans-serif">performed_by : BIGINT «FK»</text><g data-visibility-modifier="IE_MANDATORY"><ellipse cx="946.98" cy="827.2997" rx="3" ry="3" fill="#000000" style="stroke:#000000;stroke-width:1;"/></g><text x="955.98" y="830.6464" fill="#000000" font-size="14" lengthAdjust="spacing" textLength="207.6143" font-family="sans-serif">performed_at : TIMESTAMPTZ</text><text x="955.98" y="846.9432" fill="#000000" font-size="14" lengthAdjust="spacing" textLength="95.7988" font-family="sans-serif">details : TEXT</text></g><!--class notifications--><g class="entity" data-qualified-name="notifications" id="ent0009" data-source-line="110"><rect x="1204.99" y="675.8669" width="213.6055" height="194.6719" fill="#F1F1F1" style="stroke:#181818;stroke-width:0.5;" rx="2.5" ry="2.5"/><ellipse cx="1264.531" cy="691.8669" rx="11" ry="11" fill="#ADD1B2" style="stroke:#181818;stroke-width:1;"/><path d="M1268.6404,697.8669 L1260.9216,697.8669 L1260.9216,685.4762 L1268.6404,685.4762 L1268.6404,687.6325 L1263.3748,687.6325 L1263.3748,690.3044 L1268.1404,690.3044 L1268.1404,692.4606 L1263.3748,692.4606 L1263.3748,695.7106 L1268.6404,695.7106 L1268.6404,697.8669 Z " fill="#000000"/><text x="1285.031" y="696.7136" fill="#000000" font-size="14" lengthAdjust="spacing" textLength="86.0234" font-family="sans-serif">notifications</text><line x1="1205.99" y1="707.8669" x2="1417.5955" y2="707.8669" style="stroke:#181818;stroke-width:0.5;"/><g data-visibility-modifier="IE_MANDATORY"><ellipse cx="1215.99" cy="721.5153" rx="3" ry="3" fill="#000000" style="stroke:#000000;stroke-width:1;"/></g><text x="1224.99" y="724.862" fill="#000000" font-size="14" lengthAdjust="spacing" textLength="14.8203" font-weight="700" font-family="sans-serif">id</text><text x="1244.2605" y="724.862" fill="#000000" font-size="14" lengthAdjust="spacing" textLength="96.1064" font-family="sans-serif">: BIGINT «PK»</text><line x1="1205.99" y1="732.1637" x2="1417.5955" y2="732.1637" style="stroke:#181818;stroke-width:1;"/><text x="1224.99" y="749.1589" fill="#000000" font-size="14" lengthAdjust="spacing" textLength="150.4795" font-family="sans-serif">user_id : BIGINT «FK»</text><text x="1224.99" y="765.4557" fill="#000000" font-size="14" lengthAdjust="spacing" textLength="158.3955" font-family="sans-serif">client_id : BIGINT «FK»</text><g data-visibility-modifier="IE_MANDATORY"><ellipse cx="1215.99" cy="778.4059" rx="3" ry="3" fill="#000000" style="stroke:#000000;stroke-width:1;"/></g><text x="1224.99" y="781.7526" fill="#000000" font-size="14" lengthAdjust="spacing" textLength="142.1191" font-family="sans-serif">type : VARCHAR(50)</text><g data-visibility-modifier="IE_MANDATORY"><ellipse cx="1215.99" cy="794.7028" rx="3" ry="3" fill="#000000" style="stroke:#000000;stroke-width:1;"/></g><text x="1224.99" y="798.0495" fill="#000000" font-size="14" lengthAdjust="spacing" textLength="147.123" font-family="sans-serif">title : VARCHAR(150)</text><g data-visibility-modifier="IE_MANDATORY"><ellipse cx="1215.99" cy="810.9997" rx="3" ry="3" fill="#000000" style="stroke:#000000;stroke-width:1;"/></g><text x="1224.99" y="814.3464" fill="#000000" font-size="14" lengthAdjust="spacing" textLength="182.6699" font-family="sans-serif">message : VARCHAR(500)</text><text x="1224.99" y="830.6432" fill="#000000" font-size="14" lengthAdjust="spacing" textLength="144.5117" font-family="sans-serif">link : VARCHAR(255)</text><g data-visibility-modifier="IE_MANDATORY"><ellipse cx="1215.99" cy="843.5934" rx="3" ry="3" fill="#000000" style="stroke:#000000;stroke-width:1;"/></g><text x="1224.99" y="846.9401" fill="#000000" font-size="14" lengthAdjust="spacing" textLength="113.791" font-family="sans-serif">read : BOOLEAN</text><g data-visibility-modifier="IE_MANDATORY"><ellipse cx="1215.99" cy="859.8903" rx="3" ry="3" fill="#000000" style="stroke:#000000;stroke-width:1;"/></g><text x="1224.99" y="863.237" fill="#000000" font-size="14" lengthAdjust="spacing" textLength="187.6055" font-family="sans-serif">created_at : TIMESTAMPTZ</text></g><!--link clients to accounts--><g class="link" data-entity-1="ent0002" data-entity-2="ent0003" id="lnk10" data-source-line="123" data-link-type="crowfoot"><path d="M706.59,344.9569 C706.59,402.0469 706.59,446.0669 706.59,446.0669 C706.59,446.0669 515.33,446.0669 365.74,446.0669" style="stroke:#181818;stroke-width:1;" fill="none" id="clients-accounts" codeLine="123"/><line x1="702.59" y1="340.9569" x2="710.59" y2="340.9569" style="stroke:#181818;stroke-width:1;"/><line x1="702.59" y1="343.9569" x2="710.59" y2="343.9569" style="stroke:#181818;stroke-width:1;"/><line x1="706.59" y1="344.9569" x2="706.59" y2="336.9569" style="stroke:#181818;stroke-width:1;"/><line x1="355.74" y1="446.0669" x2="347.74" y2="452.0669" style="stroke:#181818;stroke-width:1;"/><line x1="355.74" y1="446.0669" x2="347.74" y2="440.0669" style="stroke:#181818;stroke-width:1;"/><line x1="355.74" y1="446.0669" x2="347.74" y2="446.0669" style="stroke:#181818;stroke-width:1;"/><ellipse cx="361.74" cy="446.0669" rx="4" ry="4" fill="none" style="stroke:#181818;stroke-width:1;"/><text x="526.72" y="442.1338" fill="#000000" font-size="13" lengthAdjust="spacing" textLength="54.0693" font-family="sans-serif">client_id</text></g><!--link clients to checkbook_orders--><g class="link" data-entity-1="ent0002" data-entity-2="ent0007" id="lnk11" data-source-line="124" data-link-type="crowfoot"><path d="M788.92,345.1869 C788.92,442.1069 788.92,541.6669 788.92,633.1369" style="stroke:#181818;stroke-width:1;" fill="none" id="clients-checkbook_orders" codeLine="124"/><line x1="784.92" y1="341.1869" x2="792.92" y2="341.1869" style="stroke:#181818;stroke-width:1;"/><line x1="784.92" y1="344.1869" x2="792.92" y2="344.1869" style="stroke:#181818;stroke-width:1;"/><line x1="788.92" y1="345.1869" x2="788.92" y2="337.1869" style="stroke:#181818;stroke-width:1;"/><line x1="788.92" y1="643.1369" x2="794.92" y2="651.1369" style="stroke:#181818;stroke-width:1;"/><line x1="788.92" y1="643.1369" x2="782.92" y2="651.1369" style="stroke:#181818;stroke-width:1;"/><line x1="788.92" y1="643.1369" x2="788.92" y2="651.1369" style="stroke:#181818;stroke-width:1;"/><ellipse cx="788.92" cy="637.1369" rx="4" ry="4" fill="none" style="stroke:#181818;stroke-width:1;"/><text x="733.92" y="490.2238" fill="#000000" font-size="13" lengthAdjust="spacing" textLength="54.0693" font-family="sans-serif">client_id</text></g><!--link users to transactions--><g class="link" data-entity-1="ent0001" data-entity-2="ent0004" id="lnk12" data-source-line="125" data-link-type="crowfoot"><path d="M862.82,495.0669 C748.62,495.0669 606.71,495.0669 606.71,495.0669 C606.71,495.0669 606.71,697.0669 606.71,697.0669 C606.71,697.0669 478.88,697.0669 361.83,697.0669" style="stroke:#181818;stroke-width:1;" fill="none" id="users-transactions" codeLine="125"/><line x1="866.82" y1="491.0669" x2="866.82" y2="499.0669" style="stroke:#181818;stroke-width:1;"/><line x1="863.82" y1="491.0669" x2="863.82" y2="499.0669" style="stroke:#181818;stroke-width:1;"/><line x1="862.82" y1="495.0669" x2="870.82" y2="495.0669" style="stroke:#181818;stroke-width:1;"/><line x1="351.83" y1="697.0669" x2="343.83" y2="703.0669" style="stroke:#181818;stroke-width:1;"/><line x1="351.83" y1="697.0669" x2="343.83" y2="691.0669" style="stroke:#181818;stroke-width:1;"/><line x1="351.83" y1="697.0669" x2="343.83" y2="697.0669" style="stroke:#181818;stroke-width:1;"/><ellipse cx="357.83" cy="697.0669" rx="4" ry="4" fill="none" style="stroke:#181818;stroke-width:1;"/><text x="523.71" y="591.5238" fill="#000000" font-size="13" lengthAdjust="spacing" textLength="82.8687" font-family="sans-serif">executed_by</text></g><!--link users to checkbook_orders--><g class="link" data-entity-1="ent0001" data-entity-2="ent0007" id="lnk13" data-source-line="126" data-link-type="crowfoot"><path d="M886.29,599.7169 C886.29,618.8869 886.29,613.2369 886.29,633.0969" style="stroke:#181818;stroke-width:1;" fill="none" id="users-checkbook_orders" codeLine="126"/><line x1="882.29" y1="595.7169" x2="890.29" y2="595.7169" style="stroke:#181818;stroke-width:1;"/><line x1="882.29" y1="598.7169" x2="890.29" y2="598.7169" style="stroke:#181818;stroke-width:1;"/><line x1="886.29" y1="599.7169" x2="886.29" y2="591.7169" style="stroke:#181818;stroke-width:1;"/><line x1="886.29" y1="643.0969" x2="892.29" y2="651.0969" style="stroke:#181818;stroke-width:1;"/><line x1="886.29" y1="643.0969" x2="880.29" y2="651.0969" style="stroke:#181818;stroke-width:1;"/><line x1="886.29" y1="643.0969" x2="886.29" y2="651.0969" style="stroke:#181818;stroke-width:1;"/><ellipse cx="886.29" cy="637.0969" rx="4" ry="4" fill="none" style="stroke:#181818;stroke-width:1;"/><text x="797.29" y="617.4738" fill="#000000" font-size="13" lengthAdjust="spacing" textLength="88.3975" font-family="sans-serif">requested_by</text></g><!--link users to audit_logs--><g class="link" data-entity-1="ent0001" data-entity-2="ent0008" id="lnk14" data-source-line="127" data-link-type="crowfoot"><path d="M998.77,599.7169 C998.77,632.4069 998.77,642.4969 998.77,673.8169" style="stroke:#181818;stroke-width:1;" fill="none" id="users-audit_logs" codeLine="127"/><line x1="994.77" y1="595.7169" x2="1002.77" y2="595.7169" style="stroke:#181818;stroke-width:1;"/><line x1="994.77" y1="598.7169" x2="1002.77" y2="598.7169" style="stroke:#181818;stroke-width:1;"/><line x1="998.77" y1="599.7169" x2="998.77" y2="591.7169" style="stroke:#181818;stroke-width:1;"/><line x1="998.77" y1="683.8169" x2="1004.77" y2="691.8169" style="stroke:#181818;stroke-width:1;"/><line x1="998.77" y1="683.8169" x2="992.77" y2="691.8169" style="stroke:#181818;stroke-width:1;"/><line x1="998.77" y1="683.8169" x2="998.77" y2="691.8169" style="stroke:#181818;stroke-width:1;"/><ellipse cx="998.77" cy="677.8169" rx="4" ry="4" fill="none" style="stroke:#181818;stroke-width:1;"/><text x="907.77" y="637.8338" fill="#000000" font-size="13" lengthAdjust="spacing" textLength="90.8286" font-family="sans-serif">performed_by</text></g><!--link users to notifications--><g class="link" data-entity-1="ent0001" data-entity-2="ent0009" id="lnk15" data-source-line="128" data-link-type="crowfoot"><path d="M1061.55,599.8569 C1061.55,646.4069 1061.55,684.0669 1061.55,684.0669 C1061.55,684.0669 1118.66,684.0669 1186.58,684.0669" style="stroke:#181818;stroke-width:1;" fill="none" id="users-notifications" codeLine="128"/><line x1="1057.55" y1="595.8569" x2="1065.55" y2="595.8569" style="stroke:#181818;stroke-width:1;"/><line x1="1057.55" y1="598.8569" x2="1065.55" y2="598.8569" style="stroke:#181818;stroke-width:1;"/><line x1="1061.55" y1="599.8569" x2="1061.55" y2="591.8569" style="stroke:#181818;stroke-width:1;"/><line x1="1196.58" y1="684.0669" x2="1204.58" y2="678.0669" style="stroke:#181818;stroke-width:1;"/><line x1="1196.58" y1="684.0669" x2="1204.58" y2="690.0669" style="stroke:#181818;stroke-width:1;"/><line x1="1196.58" y1="684.0669" x2="1204.58" y2="684.0669" style="stroke:#181818;stroke-width:1;"/><ellipse cx="1190.58" cy="684.0669" rx="4" ry="4" fill="none" style="stroke:#181818;stroke-width:1;"/><text x="1039.96" y="680.1338" fill="#000000" font-size="13" lengthAdjust="spacing" textLength="46.7188" font-family="sans-serif">user_id</text></g><!--link clients to notifications--><g class="link" data-entity-1="ent0002" data-entity-2="ent0009" id="lnk16" data-source-line="129" data-link-type="crowfoot"><path d="M910.04,191.0669 C1072.68,191.0669 1311.79,191.0669 1311.79,191.0669 C1311.79,191.0669 1311.79,491.6269 1311.79,657.4469" style="stroke:#181818;stroke-width:1;" fill="none" id="clients-notifications" codeLine="129"/><line x1="906.04" y1="195.0669" x2="906.04" y2="187.0669" style="stroke:#181818;stroke-width:1;"/><line x1="909.04" y1="195.0669" x2="909.04" y2="187.0669" style="stroke:#181818;stroke-width:1;"/><line x1="910.04" y1="191.0669" x2="902.04" y2="191.0669" style="stroke:#181818;stroke-width:1;"/><line x1="1311.79" y1="667.4469" x2="1317.79" y2="675.4469" style="stroke:#181818;stroke-width:1;"/><line x1="1311.79" y1="667.4469" x2="1305.79" y2="675.4469" style="stroke:#181818;stroke-width:1;"/><line x1="1311.79" y1="667.4469" x2="1311.79" y2="675.4469" style="stroke:#181818;stroke-width:1;"/><ellipse cx="1311.79" cy="661.4469" rx="4" ry="4" fill="none" style="stroke:#181818;stroke-width:1;"/><text x="1256.79" y="224.4438" fill="#000000" font-size="13" lengthAdjust="spacing" textLength="54.0693" font-family="sans-serif">client_id</text></g><!--link accounts to transactions--><g class="link" data-entity-1="ent0003" data-entity-2="ent0004" id="lnk17" data-source-line="130" data-link-type="crowfoot"><path d="M128,599.7169 C128,629.5769 128,636.2769 128,665.5869" style="stroke:#181818;stroke-width:1;" fill="none" id="accounts-transactions" codeLine="130"/><line x1="124" y1="595.7169" x2="132" y2="595.7169" style="stroke:#181818;stroke-width:1;"/><line x1="124" y1="598.7169" x2="132" y2="598.7169" style="stroke:#181818;stroke-width:1;"/><line x1="128" y1="599.7169" x2="128" y2="591.7169" style="stroke:#181818;stroke-width:1;"/><line x1="128" y1="675.5869" x2="134" y2="683.5869" style="stroke:#181818;stroke-width:1;"/><line x1="128" y1="675.5869" x2="122" y2="683.5869" style="stroke:#181818;stroke-width:1;"/><line x1="128" y1="675.5869" x2="128" y2="683.5869" style="stroke:#181818;stroke-width:1;"/><ellipse cx="128" cy="669.5869" rx="4" ry="4" fill="none" style="stroke:#181818;stroke-width:1;"/><text x="7" y="633.7138" fill="#000000" font-size="13" lengthAdjust="spacing" textLength="120.1104" font-family="sans-serif">source_account_id</text></g><!--link accounts to transactions--><g class="link" data-entity-1="ent0003" data-entity-2="ent0004" id="lnk18" data-source-line="131" data-link-type="crowfoot"><path d="M199.79,599.7169 C199.79,629.5769 199.79,636.2769 199.79,665.5869" style="stroke:#181818;stroke-width:1;" fill="none" id="accounts-transactions-1" codeLine="131"/><line x1="195.79" y1="595.7169" x2="203.79" y2="595.7169" style="stroke:#181818;stroke-width:1;"/><line x1="195.79" y1="598.7169" x2="203.79" y2="598.7169" style="stroke:#181818;stroke-width:1;"/><line x1="199.79" y1="599.7169" x2="199.79" y2="591.7169" style="stroke:#181818;stroke-width:1;"/><line x1="199.79" y1="675.5869" x2="205.79" y2="683.5869" style="stroke:#181818;stroke-width:1;"/><line x1="199.79" y1="675.5869" x2="193.79" y2="683.5869" style="stroke:#181818;stroke-width:1;"/><line x1="199.79" y1="675.5869" x2="199.79" y2="683.5869" style="stroke:#181818;stroke-width:1;"/><ellipse cx="199.79" cy="669.5869" rx="4" ry="4" fill="none" style="stroke:#181818;stroke-width:1;"/><text x="49.79" y="650.7138" fill="#000000" font-size="13" lengthAdjust="spacing" textLength="149.4937" font-family="sans-serif">destination_account_id</text></g><!--link accounts to bill_payments--><g class="link" data-entity-1="ent0003" data-entity-2="ent0006" id="lnk19" data-source-line="132" data-link-type="crowfoot"><path d="M355.67,543.0669 C364.98,543.0669 362.7,543.0669 362.7,543.0669 C362.7,543.0669 362.7,1009.0669 362.7,1009.0669 C362.7,1009.0669 368.7,1009.0669 351.2,1009.0669" style="stroke:#181818;stroke-width:1;" fill="none" id="accounts-bill_payments" codeLine="132"/><line x1="351.67" y1="547.0669" x2="351.67" y2="539.0669" style="stroke:#181818;stroke-width:1;"/><line x1="354.67" y1="547.0669" x2="354.67" y2="539.0669" style="stroke:#181818;stroke-width:1;"/><line x1="355.67" y1="543.0669" x2="347.67" y2="543.0669" style="stroke:#181818;stroke-width:1;"/><line x1="341.2" y1="1009.0669" x2="333.2" y2="1015.0669" style="stroke:#181818;stroke-width:1;"/><line x1="341.2" y1="1009.0669" x2="333.2" y2="1003.0669" style="stroke:#181818;stroke-width:1;"/><line x1="341.2" y1="1009.0669" x2="333.2" y2="1009.0669" style="stroke:#181818;stroke-width:1;"/><ellipse cx="347.2" cy="1009.0669" rx="4" ry="4" fill="none" style="stroke:#181818;stroke-width:1;"/><text x="309.7" y="796.3638" fill="#000000" font-size="13" lengthAdjust="spacing" textLength="70.1543" font-family="sans-serif">account_id</text></g><!--link accounts to checkbook_orders--><g class="link" data-entity-1="ent0003" data-entity-2="ent0007" id="lnk20" data-source-line="133" data-link-type="crowfoot"><path d="M271.58,599.7569 C271.58,639.4169 271.58,668.0669 271.58,668.0669 C271.58,668.0669 460.74,668.0669 606,668.0669" style="stroke:#181818;stroke-width:1;" fill="none" id="accounts-checkbook_orders" codeLine="133"/><line x1="267.58" y1="595.7569" x2="275.58" y2="595.7569" style="stroke:#181818;stroke-width:1;"/><line x1="267.58" y1="598.7569" x2="275.58" y2="598.7569" style="stroke:#181818;stroke-width:1;"/><line x1="271.58" y1="599.7569" x2="271.58" y2="591.7569" style="stroke:#181818;stroke-width:1;"/><line x1="616" y1="668.0669" x2="624" y2="662.0669" style="stroke:#181818;stroke-width:1;"/><line x1="616" y1="668.0669" x2="624" y2="674.0669" style="stroke:#181818;stroke-width:1;"/><line x1="616" y1="668.0669" x2="624" y2="668.0669" style="stroke:#181818;stroke-width:1;"/><ellipse cx="610" cy="668.0669" rx="4" ry="4" fill="none" style="stroke:#181818;stroke-width:1;"/><text x="338.64" y="664.1338" fill="#000000" font-size="13" lengthAdjust="spacing" textLength="70.1543" font-family="sans-serif">account_id</text></g><!--link bill_providers to bill_payments--><g class="link" data-entity-1="ent0005" data-entity-2="ent0006" id="lnk21" data-source-line="134" data-link-type="crowfoot"><path d="M483.79,846.2569 C483.79,931.7169 483.79,1063.0669 483.79,1063.0669 C483.79,1063.0669 424.85,1063.0669 351.06,1063.0669" style="stroke:#181818;stroke-width:1;" fill="none" id="bill_providers-bill_payments" codeLine="134"/><line x1="479.79" y1="842.2569" x2="487.79" y2="842.2569" style="stroke:#181818;stroke-width:1;"/><line x1="479.79" y1="845.2569" x2="487.79" y2="845.2569" style="stroke:#181818;stroke-width:1;"/><line x1="483.79" y1="846.2569" x2="483.79" y2="838.2569" style="stroke:#181818;stroke-width:1;"/><line x1="341.06" y1="1063.0669" x2="333.06" y2="1069.0669" style="stroke:#181818;stroke-width:1;"/><line x1="341.06" y1="1063.0669" x2="333.06" y2="1057.0669" style="stroke:#181818;stroke-width:1;"/><line x1="341.06" y1="1063.0669" x2="333.06" y2="1063.0669" style="stroke:#181818;stroke-width:1;"/><ellipse cx="347.06" cy="1063.0669" rx="4" ry="4" fill="none" style="stroke:#181818;stroke-width:1;"/><text x="384.79" y="1022.0938" fill="#000000" font-size="13" lengthAdjust="spacing" textLength="98.4014" font-family="sans-serif">bill_provider_id</text></g><!--link transactions to bill_payments--><g class="link" data-entity-1="ent0004" data-entity-2="ent0006" id="lnk22" data-source-line="135" data-link-type="association"><path d="M199.79,870.5569 C199.79,900.4669 199.79,917.6269 199.79,946.8769" style="stroke:#181818;stroke-width:1;" fill="none" id="transactions-bill_payments" codeLine="135"/><line x1="195.79" y1="866.5569" x2="203.79" y2="866.5569" style="stroke:#181818;stroke-width:1;"/><line x1="195.79" y1="869.5569" x2="203.79" y2="869.5569" style="stroke:#181818;stroke-width:1;"/><line x1="199.79" y1="870.5569" x2="199.79" y2="862.5569" style="stroke:#181818;stroke-width:1;"/><line x1="203.79" y1="950.8769" x2="195.79" y2="950.8769" style="stroke:#181818;stroke-width:1;"/><line x1="203.79" y1="947.8769" x2="195.79" y2="947.8769" style="stroke:#181818;stroke-width:1;"/><line x1="199.79" y1="946.8769" x2="199.79" y2="954.8769" style="stroke:#181818;stroke-width:1;"/><text x="107.79" y="904.7838" fill="#000000" font-size="13" lengthAdjust="spacing" textLength="91.7998" font-family="sans-serif">transaction_id</text></g><?plantuml-src bLPBRjim4Dtx54HNYL03ITeiQWG1tDHDZSP9u3f5qOr0IvHDM28Laafgn0LwY1wYFKTkqfDqzBD8YR8Lm0kPxudYl9bvGxcYBCO2HqWkiSyVALkW08UIzEGM2IaZQXqJn8LQybvFKHKIDBdwWFxz-eqct7_-0_z3lg3t2K4-_3XZpt-9xFK80_8QlKea4V8LmX9bJ-YfXv2378VwZeC6wFtuSdmzGsTdjv_Fpm7gzpCyvJ8S4M1y7KulFWsd1wT7Xq2xosaEYh6KZrpuxXBBfKOxEJqzp0X14ePkRO_ZewCK916cONFPGOA7ElsaM2OCpqFYfyUzkRaQ3QzXrHC4A-AxMC7oR3mPVPaD9xUpxm25M2et5OKrqP-LCbv8uJ7NfdZkg4xETbaIpOampwjBv57M3WPKm2cR6cTW5e4LQv4kNdBML0xxlY1IDhCJ2nu0G3d3eKjPm5ELHjzcsSUbmYgHZSrs29x4VXkqfqnYA6muWYt17RE8FOydPHhBFntpMD3t9pBFD_NrhJwMQDQWpQ9jaT51SnnYvgMlNDzDHjFnnS7nkzTlKup7XDbbz48kxOY37g2j8PFRi-dgA86Pn9u2F5T8N-YeKYs-DqKOE4griqGXUI8yufRYMbNpYLIKuVGOkudG_3-8bwJLDL_lnYtYm6SyGMELosFKdYRId89JGKiyKB_qIdEfgormdxGNaTqAFMYS1HThYmcaMNeWMayqZepNqTR1Z9KNrd-ByeO8RQIYDmG9Y21vMJS2QQiKHoz7omSg-LhDH_Vp9V5MSyvNBlXDcSZwOaTbCl9UNzYZtsxRk4zmVl010cHqEPhcjh4aHBbUeLXdKn44RW2opOG5zy3ksteaX38JRUvIRMpjFyOLaJjw2oS-pMoyCEZjtyubMclUOWncsxirQp8mJVRyma94m4NKRYGLmQgIWi4hopcfHGWAq81wkF9OOwLJdEbrorudBnezPSFbrqJDQqeWWYh02_EL38ABvifsYOEsCwUoixCLoslKPjFlywTg70-gEEgSHeFgtFpAMZ2DqJNGvuB9i-oe5x59rWfoO9I8IJDJEYWJLW-cJgiYsKfX3wOnC_UzO1-WZRVCgJ10EwWMsJHsRI2sR5-V63tZrEbBcqtZ9NC6_0S0?></g></svg>