<svg xmlns="http://www.w3.org/2000/svg" xmlns:xlink="http://www.w3.org/1999/xlink" contentStyleType="text/css" height="826px" preserveAspectRatio="none" style="width:577px;height:826px;background:#FFFFFF;" version="1.1" viewBox="0 0 577 826" width="577px" zoomAndPan="magnify"><title>MLD &#8212; Mod&#232;le logique de donn&#233;es</title><defs/><g><text fill="#000000" font-family="sans-serif" font-size="14" font-weight="bold" lengthAdjust="spacing" textLength="236.1133" x="163.7124" y="24.5332">MLD &#8212; Mod&#232;le logique de donn&#233;es</text><!--class users--><g id="elem_users"><rect codeLine="6" fill="#F1F1F1" height="206.4844" id="users" rx="2.5" ry="2.5" style="stroke:#181818;stroke-width:0.5;" width="236.8682" x="333.67" y="364.6094"/><ellipse cx="430.7369" cy="380.6094" fill="#ADD1B2" rx="11" ry="11" style="stroke:#181818;stroke-width:1;"/><path d="M429.5963,381.4063 L429.5963,383.9063 L433.9244,383.9063 L433.9244,382.9844 Q433.9244,382.375 434.1588,382.1094 Q434.4088,381.8438 434.7838,381.8438 Q435.1588,381.8438 435.3931,382.1094 Q435.6275,382.375 435.6275,382.9844 L435.6275,385.6094 L427.6275,385.6094 Q427.0025,385.6094 426.7369,385.375 Q426.4869,385.1406 426.4869,384.75 Q426.4869,384.375 426.7525,384.1406 Q427.0181,383.9063 427.6275,383.9063 L427.8931,383.9063 L427.8931,377.25 L427.6275,377.25 Q427.0025,377.25 426.7369,377.0156 Q426.4869,376.7813 426.4869,376.3906 Q426.4869,376.0156 426.7369,375.7813 Q427.0025,375.5469 427.6275,375.5469 L435.2525,375.5469 L435.2525,378.1406 Q435.2525,378.75 435.0181,379.0156 Q434.7994,379.2656 434.4088,379.2656 Q434.0338,379.2656 433.7994,379.0156 Q433.565,378.75 433.565,378.1406 L433.565,377.25 L429.5963,377.25 L429.5963,379.7031 L431.0806,379.7031 Q431.0806,379.0469 431.2056,378.8594 Q431.4713,378.4531 431.94,378.4531 Q432.315,378.4531 432.5494,378.7188 Q432.7838,378.9688 432.7838,379.5781 L432.7838,381.5469 Q432.7838,382.0938 432.6588,382.2813 Q432.3931,382.6719 431.94,382.6719 Q431.4713,382.6719 431.2056,382.2656 Q431.0806,382.0781 431.0806,381.4063 L429.5963,381.4063 Z " fill="#000000"/><text fill="#000000" font-family="sans-serif" font-size="14" lengthAdjust="spacing" textLength="34.2344" x="451.2369" y="386.3379">users</text><line style="stroke:#181818;stroke-width:0.5;" x1="334.67" x2="569.5382" y1="396.6094" y2="396.6094"/><ellipse cx="344.67" cy="410.9141" fill="#000000" rx="3" ry="3" style="stroke:#000000;stroke-width:1;"/><text fill="#000000" font-family="sans-serif" font-size="14" font-weight="bold" lengthAdjust="spacing" textLength="12.4414" x="353.67" y="415.1426">id</text><text fill="#000000" font-family="sans-serif" font-size="14" lengthAdjust="spacing" textLength="92.5859" x="370.0011" y="415.1426">: BIGINT &#171;PK&#187;</text><line style="stroke:#181818;stroke-width:1;" x1="334.67" x2="569.5382" y1="422.2188" y2="422.2188"/><ellipse cx="344.67" cy="436.5234" fill="#000000" rx="3" ry="3" style="stroke:#000000;stroke-width:1;"/><text fill="#000000" font-family="sans-serif" font-size="14" lengthAdjust="spacing" textLength="206.1855" x="353.67" y="440.752">username : VARCHAR(50) &#171;UK&#187;</text><ellipse cx="344.67" cy="454.1328" fill="#000000" rx="3" ry="3" style="stroke:#000000;stroke-width:1;"/><text fill="#000000" font-family="sans-serif" font-size="14" lengthAdjust="spacing" textLength="210.8682" x="353.67" y="458.3613">password_hash : VARCHAR(255)</text><ellipse cx="344.67" cy="471.7422" fill="#000000" rx="3" ry="3" style="stroke:#000000;stroke-width:1;"/><text fill="#000000" font-family="sans-serif" font-size="14" lengthAdjust="spacing" textLength="173.5098" x="353.67" y="475.9707">full_name : VARCHAR(100)</text><text fill="#000000" font-family="sans-serif" font-size="14" lengthAdjust="spacing" textLength="146.2617" x="353.67" y="493.5801">email : VARCHAR(100)</text><ellipse cx="344.67" cy="506.9609" fill="#000000" rx="3" ry="3" style="stroke:#000000;stroke-width:1;"/><text fill="#000000" font-family="sans-serif" font-size="14" lengthAdjust="spacing" textLength="128.3652" x="353.67" y="511.1895">role : VARCHAR(20)</text><ellipse cx="344.67" cy="524.5703" fill="#000000" rx="3" ry="3" style="stroke:#000000;stroke-width:1;"/><text fill="#000000" font-family="sans-serif" font-size="14" lengthAdjust="spacing" textLength="129.1855" x="353.67" y="528.7988">enabled : BOOLEAN</text><text fill="#000000" font-family="sans-serif" font-size="14" lengthAdjust="spacing" textLength="176.5996" x="353.67" y="546.4082">created_at : TIMESTAMPTZ</text><text fill="#000000" font-family="sans-serif" font-size="14" lengthAdjust="spacing" textLength="189.0547" x="353.67" y="564.0176">last_login_at : TIMESTAMPTZ</text></g><!--class clients--><g id="elem_clients"><rect codeLine="19" fill="#F1F1F1" height="259.3125" id="clients" rx="2.5" ry="2.5" style="stroke:#181818;stroke-width:0.5;" width="257.8682" x="32.17" y="45.6094"/><ellipse cx="137.0128" cy="61.6094" fill="#ADD1B2" rx="11" ry="11" style="stroke:#181818;stroke-width:1;"/><path d="M135.8721,62.4063 L135.8721,64.9063 L140.2003,64.9063 L140.2003,63.9844 Q140.2003,63.375 140.4346,63.1094 Q140.6846,62.8438 141.0596,62.8438 Q141.4346,62.8438 141.669,63.1094 Q141.9034,63.375 141.9034,63.9844 L141.9034,66.6094 L133.9034,66.6094 Q133.2784,66.6094 133.0128,66.375 Q132.7628,66.1406 132.7628,65.75 Q132.7628,65.375 133.0284,65.1406 Q133.294,64.9063 133.9034,64.9063 L134.169,64.9063 L134.169,58.25 L133.9034,58.25 Q133.2784,58.25 133.0128,58.0156 Q132.7628,57.7813 132.7628,57.3906 Q132.7628,57.0156 133.0128,56.7813 Q133.2784,56.5469 133.9034,56.5469 L141.5284,56.5469 L141.5284,59.1406 Q141.5284,59.75 141.294,60.0156 Q141.0753,60.2656 140.6846,60.2656 Q140.3096,60.2656 140.0753,60.0156 Q139.8409,59.75 139.8409,59.1406 L139.8409,58.25 L135.8721,58.25 L135.8721,60.7031 L137.3565,60.7031 Q137.3565,60.0469 137.4815,59.8594 Q137.7471,59.4531 138.2159,59.4531 Q138.5909,59.4531 138.8253,59.7188 Q139.0596,59.9688 139.0596,60.5781 L139.0596,62.5469 Q139.0596,63.0938 138.9346,63.2813 Q138.669,63.6719 138.2159,63.6719 Q137.7471,63.6719 137.4815,63.2656 Q137.3565,63.0781 137.3565,62.4063 L135.8721,62.4063 Z " fill="#000000"/><text fill="#000000" font-family="sans-serif" font-size="14" lengthAdjust="spacing" textLength="39.6826" x="157.5128" y="67.3379">clients</text><line style="stroke:#181818;stroke-width:0.5;" x1="33.17" x2="289.0382" y1="77.6094" y2="77.6094"/><ellipse cx="43.17" cy="91.9141" fill="#000000" rx="3" ry="3" style="stroke:#000000;stroke-width:1;"/><text fill="#000000" font-family="sans-serif" font-size="14" font-weight="bold" lengthAdjust="spacing" textLength="12.4414" x="52.17" y="96.1426">id</text><text fill="#000000" font-family="sans-serif" font-size="14" lengthAdjust="spacing" textLength="92.5859" x="68.5011" y="96.1426">: BIGINT &#171;PK&#187;</text><line style="stroke:#181818;stroke-width:1;" x1="33.17" x2="289.0382" y1="103.2188" y2="103.2188"/><ellipse cx="43.17" cy="117.5234" fill="#000000" rx="3" ry="3" style="stroke:#000000;stroke-width:1;"/><text fill="#000000" font-family="sans-serif" font-size="14" lengthAdjust="spacing" textLength="231.8682" x="52.17" y="121.752">client_number : VARCHAR(20) &#171;UK&#187;</text><ellipse cx="43.17" cy="135.1328" fill="#000000" rx="3" ry="3" style="stroke:#000000;stroke-width:1;"/><text fill="#000000" font-family="sans-serif" font-size="14" lengthAdjust="spacing" textLength="161.8271" x="52.17" y="139.3613">cin : VARCHAR(20) &#171;UK&#187;</text><ellipse cx="43.17" cy="152.7422" fill="#000000" rx="3" ry="3" style="stroke:#000000;stroke-width:1;"/><text fill="#000000" font-family="sans-serif" font-size="14" lengthAdjust="spacing" textLength="170.3789" x="52.17" y="156.9707">first_name : VARCHAR(50)</text><ellipse cx="43.17" cy="170.3516" fill="#000000" rx="3" ry="3" style="stroke:#000000;stroke-width:1;"/><text fill="#000000" font-family="sans-serif" font-size="14" lengthAdjust="spacing" textLength="169.6133" x="52.17" y="174.5801">last_name : VARCHAR(50)</text><text fill="#000000" font-family="sans-serif" font-size="14" lengthAdjust="spacing" textLength="146.2617" x="52.17" y="192.1895">email : VARCHAR(100)</text><text fill="#000000" font-family="sans-serif" font-size="14" lengthAdjust="spacing" textLength="143.9512" x="52.17" y="209.7988">phone : VARCHAR(20)</text><text fill="#000000" font-family="sans-serif" font-size="14" lengthAdjust="spacing" textLength="162.6133" x="52.17" y="227.4082">address : VARCHAR(255)</text><text fill="#000000" font-family="sans-serif" font-size="14" lengthAdjust="spacing" textLength="153.2959" x="52.17" y="245.0176">professional_info : TEXT</text><ellipse cx="43.17" cy="258.3984" fill="#000000" rx="3" ry="3" style="stroke:#000000;stroke-width:1;"/><text fill="#000000" font-family="sans-serif" font-size="14" lengthAdjust="spacing" textLength="142.3721" x="52.17" y="262.627">status : VARCHAR(20)</text><text fill="#000000" font-family="sans-serif" font-size="14" lengthAdjust="spacing" textLength="176.5996" x="52.17" y="280.2363">created_at : TIMESTAMPTZ</text><text fill="#000000" font-family="sans-serif" font-size="14" lengthAdjust="spacing" textLength="180.5098" x="52.17" y="297.8457">updated_at : TIMESTAMPTZ</text></g><!--class accounts--><g id="elem_accounts"><rect codeLine="35" fill="#F1F1F1" height="206.4844" id="accounts" rx="2.5" ry="2.5" style="stroke:#181818;stroke-width:0.5;" width="274.2197" x="24.17" y="364.6094"/><ellipse cx="129.0128" cy="380.6094" fill="#ADD1B2" rx="11" ry="11" style="stroke:#181818;stroke-width:1;"/><path d="M127.8721,381.4063 L127.8721,383.9063 L132.2003,383.9063 L132.2003,382.9844 Q132.2003,382.375 132.4346,382.1094 Q132.6846,381.8438 133.0596,381.8438 Q133.4346,381.8438 133.669,382.1094 Q133.9034,382.375 133.9034,382.9844 L133.9034,385.6094 L125.9034,385.6094 Q125.2784,385.6094 125.0128,385.375 Q124.7628,385.1406 124.7628,384.75 Q124.7628,384.375 125.0284,384.1406 Q125.294,383.9063 125.9034,383.9063 L126.169,383.9063 L126.169,377.25 L125.9034,377.25 Q125.2784,377.25 125.0128,377.0156 Q124.7628,376.7813 124.7628,376.3906 Q124.7628,376.0156 125.0128,375.7813 Q125.2784,375.5469 125.9034,375.5469 L133.5284,375.5469 L133.5284,378.1406 Q133.5284,378.75 133.294,379.0156 Q133.0753,379.2656 132.6846,379.2656 Q132.3096,379.2656 132.0753,379.0156 Q131.8409,378.75 131.8409,378.1406 L131.8409,377.25 L127.8721,377.25 L127.8721,379.7031 L129.3565,379.7031 Q129.3565,379.0469 129.4815,378.8594 Q129.7471,378.4531 130.2159,378.4531 Q130.5909,378.4531 130.8253,378.7188 Q131.0596,378.9688 131.0596,379.5781 L131.0596,381.5469 Q131.0596,382.0938 130.9346,382.2813 Q130.669,382.6719 130.2159,382.6719 Q129.7471,382.6719 129.4815,382.2656 Q129.3565,382.0781 129.3565,381.4063 L127.8721,381.4063 Z " fill="#000000"/><text fill="#000000" font-family="sans-serif" font-size="14" lengthAdjust="spacing" textLength="56.0342" x="149.5128" y="386.3379">accounts</text><line style="stroke:#181818;stroke-width:0.5;" x1="25.17" x2="297.3897" y1="396.6094" y2="396.6094"/><ellipse cx="35.17" cy="410.9141" fill="#000000" rx="3" ry="3" style="stroke:#000000;stroke-width:1;"/><text fill="#000000" font-family="sans-serif" font-size="14" font-weight="bold" lengthAdjust="spacing" textLength="12.4414" x="44.17" y="415.1426">id</text><text fill="#000000" font-family="sans-serif" font-size="14" lengthAdjust="spacing" textLength="92.5859" x="60.5011" y="415.1426">: BIGINT &#171;PK&#187;</text><line style="stroke:#181818;stroke-width:1;" x1="25.17" x2="297.3897" y1="422.2188" y2="422.2188"/><ellipse cx="35.17" cy="436.5234" fill="#000000" rx="3" ry="3" style="stroke:#000000;stroke-width:1;"/><text fill="#000000" font-family="sans-serif" font-size="14" lengthAdjust="spacing" textLength="248.2197" x="44.17" y="440.752">account_number : VARCHAR(20) &#171;UK&#187;</text><ellipse cx="35.17" cy="454.1328" fill="#000000" rx="3" ry="3" style="stroke:#000000;stroke-width:1;"/><text fill="#000000" font-family="sans-serif" font-size="14" lengthAdjust="spacing" textLength="147.0547" x="44.17" y="458.3613">client_id : BIGINT &#171;FK&#187;</text><ellipse cx="35.17" cy="471.7422" fill="#000000" rx="3" ry="3" style="stroke:#000000;stroke-width:1;"/><text fill="#000000" font-family="sans-serif" font-size="14" lengthAdjust="spacing" textLength="131.4824" x="44.17" y="475.9707">type : VARCHAR(20)</text><ellipse cx="35.17" cy="489.3516" fill="#000000" rx="3" ry="3" style="stroke:#000000;stroke-width:1;"/><text fill="#000000" font-family="sans-serif" font-size="14" lengthAdjust="spacing" textLength="142.3721" x="44.17" y="493.5801">status : VARCHAR(20)</text><ellipse cx="35.17" cy="506.9609" fill="#000000" rx="3" ry="3" style="stroke:#000000;stroke-width:1;"/><text fill="#000000" font-family="sans-serif" font-size="14" lengthAdjust="spacing" textLength="162.6133" x="44.17" y="511.1895">balance : NUMERIC(19,4)</text><text fill="#000000" font-family="sans-serif" font-size="14" lengthAdjust="spacing" textLength="176.6201" x="44.17" y="528.7988">opened_at : TIMESTAMPTZ</text><text fill="#000000" font-family="sans-serif" font-size="14" lengthAdjust="spacing" textLength="170.3721" x="44.17" y="546.4082">closed_at : TIMESTAMPTZ</text><ellipse cx="35.17" cy="559.7891" fill="#000000" rx="3" ry="3" style="stroke:#000000;stroke-width:1;"/><text fill="#000000" font-family="sans-serif" font-size="14" lengthAdjust="spacing" textLength="103.4688" x="44.17" y="564.0176">version : BIGINT</text></g><!--class transactions--><g id="elem_transactions"><rect codeLine="48" fill="#F1F1F1" height="188.875" id="transactions" rx="2.5" ry="2.5" style="stroke:#181818;stroke-width:0.5;" width="264.9092" x="28.67" y="630.6094"/><ellipse cx="119.1334" cy="646.6094" fill="#ADD1B2" rx="11" ry="11" style="stroke:#181818;stroke-width:1;"/><path d="M117.9928,647.4063 L117.9928,649.9063 L122.3209,649.9063 L122.3209,648.9844 Q122.3209,648.375 122.5553,648.1094 Q122.8053,647.8438 123.1803,647.8438 Q123.5553,647.8438 123.7896,648.1094 Q124.024,648.375 124.024,648.9844 L124.024,651.6094 L116.024,651.6094 Q115.399,651.6094 115.1334,651.375 Q114.8834,651.1406 114.8834,650.75 Q114.8834,650.375 115.149,650.1406 Q115.4146,649.9063 116.024,649.9063 L116.2896,649.9063 L116.2896,643.25 L116.024,643.25 Q115.399,643.25 115.1334,643.0156 Q114.8834,642.7813 114.8834,642.3906 Q114.8834,642.0156 115.1334,641.7813 Q115.399,641.5469 116.024,641.5469 L123.649,641.5469 L123.649,644.1406 Q123.649,644.75 123.4146,645.0156 Q123.1959,645.2656 122.8053,645.2656 Q122.4303,645.2656 122.1959,645.0156 Q121.9615,644.75 121.9615,644.1406 L121.9615,643.25 L117.9928,643.25 L117.9928,645.7031 L119.4771,645.7031 Q119.4771,645.0469 119.6021,644.8594 Q119.8678,644.4531 120.3365,644.4531 Q120.7115,644.4531 120.9459,644.7188 Q121.1803,644.9688 121.1803,645.5781 L121.1803,647.5469 Q121.1803,648.0938 121.0553,648.2813 Q120.7896,648.6719 120.3365,648.6719 Q119.8678,648.6719 119.6021,648.2656 Q119.4771,648.0781 119.4771,647.4063 L117.9928,647.4063 Z " fill="#000000"/><text fill="#000000" font-family="sans-serif" font-size="14" lengthAdjust="spacing" textLength="75.4824" x="139.6334" y="652.3379">transactions</text><line style="stroke:#181818;stroke-width:0.5;" x1="29.67" x2="292.5792" y1="662.6094" y2="662.6094"/><ellipse cx="39.67" cy="676.9141" fill="#000000" rx="3" ry="3" style="stroke:#000000;stroke-width:1;"/><text fill="#000000" font-family="sans-serif" font-size="14" font-weight="bold" lengthAdjust="spacing" textLength="12.4414" x="48.67" y="681.1426">id</text><text fill="#000000" font-family="sans-serif" font-size="14" lengthAdjust="spacing" textLength="92.5859" x="65.0011" y="681.1426">: BIGINT &#171;PK&#187;</text><line style="stroke:#181818;stroke-width:1;" x1="29.67" x2="292.5792" y1="688.2188" y2="688.2188"/><ellipse cx="39.67" cy="702.5234" fill="#000000" rx="3" ry="3" style="stroke:#000000;stroke-width:1;"/><text fill="#000000" font-family="sans-serif" font-size="14" lengthAdjust="spacing" textLength="131.4824" x="48.67" y="706.752">type : VARCHAR(20)</text><ellipse cx="39.67" cy="720.1328" fill="#000000" rx="3" ry="3" style="stroke:#000000;stroke-width:1;"/><text fill="#000000" font-family="sans-serif" font-size="14" lengthAdjust="spacing" textLength="160.2686" x="48.67" y="724.3613">amount : NUMERIC(19,4)</text><text fill="#000000" font-family="sans-serif" font-size="14" lengthAdjust="spacing" textLength="213.2129" x="48.67" y="741.9707">source_account_id : BIGINT &#171;FK&#187;</text><text fill="#000000" font-family="sans-serif" font-size="14" lengthAdjust="spacing" textLength="238.9092" x="48.67" y="759.5801">destination_account_id : BIGINT &#171;FK&#187;</text><ellipse cx="39.67" cy="772.9609" fill="#000000" rx="3" ry="3" style="stroke:#000000;stroke-width:1;"/><text fill="#000000" font-family="sans-serif" font-size="14" lengthAdjust="spacing" textLength="175.082" x="48.67" y="777.1895">executed_by : BIGINT &#171;FK&#187;</text><ellipse cx="39.67" cy="790.5703" fill="#000000" rx="3" ry="3" style="stroke:#000000;stroke-width:1;"/><text fill="#000000" font-family="sans-serif" font-size="14" lengthAdjust="spacing" textLength="186.7236" x="48.67" y="794.7988">executed_at : TIMESTAMPTZ</text><text fill="#000000" font-family="sans-serif" font-size="14" lengthAdjust="spacing" textLength="180.5098" x="48.67" y="812.4082">description : VARCHAR(255)</text></g><!--class audit_logs--><g id="elem_audit_logs"><rect codeLine="60" fill="#F1F1F1" height="171.2656" id="audit_logs" rx="2.5" ry="2.5" style="stroke:#181818;stroke-width:0.5;" width="219.71" x="342.17" y="639.6094"/><ellipse cx="415.8614" cy="655.6094" fill="#ADD1B2" rx="11" ry="11" style="stroke:#181818;stroke-width:1;"/><path d="M414.7208,656.4063 L414.7208,658.9063 L419.0489,658.9063 L419.0489,657.9844 Q419.0489,657.375 419.2833,657.1094 Q419.5333,656.8438 419.9083,656.8438 Q420.2833,656.8438 420.5177,657.1094 Q420.752,657.375 420.752,657.9844 L420.752,660.6094 L412.752,660.6094 Q412.127,660.6094 411.8614,660.375 Q411.6114,660.1406 411.6114,659.75 Q411.6114,659.375 411.877,659.1406 Q412.1427,658.9063 412.752,658.9063 L413.0177,658.9063 L413.0177,652.25 L412.752,652.25 Q412.127,652.25 411.8614,652.0156 Q411.6114,651.7813 411.6114,651.3906 Q411.6114,651.0156 411.8614,650.7813 Q412.127,650.5469 412.752,650.5469 L420.377,650.5469 L420.377,653.1406 Q420.377,653.75 420.1427,654.0156 Q419.9239,654.2656 419.5333,654.2656 Q419.1583,654.2656 418.9239,654.0156 Q418.6895,653.75 418.6895,653.1406 L418.6895,652.25 L414.7208,652.25 L414.7208,654.7031 L416.2052,654.7031 Q416.2052,654.0469 416.3302,653.8594 Q416.5958,653.4531 417.0645,653.4531 Q417.4395,653.4531 417.6739,653.7188 Q417.9083,653.9688 417.9083,654.5781 L417.9083,656.5469 Q417.9083,657.0938 417.7833,657.2813 Q417.5177,657.6719 417.0645,657.6719 Q416.5958,657.6719 416.3302,657.2656 Q416.2052,657.0781 416.2052,656.4063 L414.7208,656.4063 Z " fill="#000000"/><text fill="#000000" font-family="sans-serif" font-size="14" lengthAdjust="spacing" textLength="63.8271" x="436.3614" y="661.3379">audit_logs</text><line style="stroke:#181818;stroke-width:0.5;" x1="343.17" x2="560.88" y1="671.6094" y2="671.6094"/><ellipse cx="353.17" cy="685.9141" fill="#000000" rx="3" ry="3" style="stroke:#000000;stroke-width:1;"/><text fill="#000000" font-family="sans-serif" font-size="14" font-weight="bold" lengthAdjust="spacing" textLength="12.4414" x="362.17" y="690.1426">id</text><text fill="#000000" font-family="sans-serif" font-size="14" lengthAdjust="spacing" textLength="92.5859" x="378.5011" y="690.1426">: BIGINT &#171;PK&#187;</text><line style="stroke:#181818;stroke-width:1;" x1="343.17" x2="560.88" y1="697.2188" y2="697.2188"/><ellipse cx="353.17" cy="711.5234" fill="#000000" rx="3" ry="3" style="stroke:#000000;stroke-width:1;"/><text fill="#000000" font-family="sans-serif" font-size="14" lengthAdjust="spacing" textLength="142.3789" x="362.17" y="715.752">action : VARCHAR(50)</text><text fill="#000000" font-family="sans-serif" font-size="14" lengthAdjust="spacing" textLength="172.7305" x="362.17" y="733.3613">entity_type : VARCHAR(50)</text><text fill="#000000" font-family="sans-serif" font-size="14" lengthAdjust="spacing" textLength="110.4824" x="362.17" y="750.9707">entity_id : BIGINT</text><ellipse cx="353.17" cy="764.3516" fill="#000000" rx="3" ry="3" style="stroke:#000000;stroke-width:1;"/><text fill="#000000" font-family="sans-serif" font-size="14" lengthAdjust="spacing" textLength="182.0684" x="362.17" y="768.5801">performed_by : BIGINT &#171;FK&#187;</text><ellipse cx="353.17" cy="781.9609" fill="#000000" rx="3" ry="3" style="stroke:#000000;stroke-width:1;"/><text fill="#000000" font-family="sans-serif" font-size="14" lengthAdjust="spacing" textLength="193.71" x="362.17" y="786.1895">performed_at : TIMESTAMPTZ</text><text fill="#000000" font-family="sans-serif" font-size="14" lengthAdjust="spacing" textLength="87.917" x="362.17" y="803.7988">details : TEXT</text></g><!--link clients to accounts--><g id="link_clients_accounts"><path codeLine="71" d="M161.17,312.6794 C161.17,332.6994 161.17,327.1394 161.17,346.4794 " fill="none" id="clients-accounts" style="stroke:#181818;stroke-width:1;"/><line style="stroke:#181818;stroke-width:1;" x1="157.17" x2="165.17" y1="308.6794" y2="308.6794"/><line style="stroke:#181818;stroke-width:1;" x1="157.17" x2="165.17" y1="311.6794" y2="311.6794"/><line style="stroke:#181818;stroke-width:1;" x1="161.17" x2="161.17" y1="312.6794" y2="304.6794"/><line style="stroke:#181818;stroke-width:1;" x1="161.17" x2="167.17" y1="356.4794" y2="364.4794"/><line style="stroke:#181818;stroke-width:1;" x1="161.17" x2="155.17" y1="356.4794" y2="364.4794"/><line style="stroke:#181818;stroke-width:1;" x1="161.17" x2="161.17" y1="356.4794" y2="364.4794"/><ellipse cx="161.17" cy="350.4794" fill="none" rx="4" ry="4" style="stroke:#181818;stroke-width:1;"/><text fill="#000000" font-family="sans-serif" font-size="13" lengthAdjust="spacing" textLength="47.6963" x="113.17" y="331.0745">client_id</text></g><!--link users to transactions--><g id="link_users_transactions"><path codeLine="72" d="M337.92,578.6594 C337.92,613.4294 337.92,635.6094 337.92,635.6094 C337.92,635.6094 337.11,635.6094 311.77,635.6094 " fill="none" id="users-transactions" style="stroke:#181818;stroke-width:1;"/><line style="stroke:#181818;stroke-width:1;" x1="333.92" x2="341.92" y1="574.6594" y2="574.6594"/><line style="stroke:#181818;stroke-width:1;" x1="333.92" x2="341.92" y1="577.6594" y2="577.6594"/><line style="stroke:#181818;stroke-width:1;" x1="337.92" x2="337.92" y1="578.6594" y2="570.6594"/><line style="stroke:#181818;stroke-width:1;" x1="301.77" x2="293.77" y1="635.6094" y2="641.6094"/><line style="stroke:#181818;stroke-width:1;" x1="301.77" x2="293.77" y1="635.6094" y2="629.6094"/><line style="stroke:#181818;stroke-width:1;" x1="301.77" x2="293.77" y1="635.6094" y2="635.6094"/><ellipse cx="307.77" cy="635.6094" fill="none" rx="4" ry="4" style="stroke:#181818;stroke-width:1;"/><text fill="#000000" font-family="sans-serif" font-size="13" lengthAdjust="spacing" textLength="73.7217" x="263.92" y="621.7045">executed_by</text></g><!--link users to audit_logs--><g id="link_users_audit_logs"><path codeLine="73" d="M452.17,578.8594 C452.17,601.6694 452.17,599.5894 452.17,621.5994 " fill="none" id="users-audit_logs" style="stroke:#181818;stroke-width:1;"/><line style="stroke:#181818;stroke-width:1;" x1="448.17" x2="456.17" y1="574.8594" y2="574.8594"/><line style="stroke:#181818;stroke-width:1;" x1="448.17" x2="456.17" y1="577.8594" y2="577.8594"/><line style="stroke:#181818;stroke-width:1;" x1="452.17" x2="452.17" y1="578.8594" y2="570.8594"/><line style="stroke:#181818;stroke-width:1;" x1="452.17" x2="458.17" y1="631.5994" y2="639.5994"/><line style="stroke:#181818;stroke-width:1;" x1="452.17" x2="446.17" y1="631.5994" y2="639.5994"/><line style="stroke:#181818;stroke-width:1;" x1="452.17" x2="452.17" y1="631.5994" y2="639.5994"/><ellipse cx="452.17" cy="625.5994" fill="none" rx="4" ry="4" style="stroke:#181818;stroke-width:1;"/><text fill="#000000" font-family="sans-serif" font-size="13" lengthAdjust="spacing" textLength="80.209" x="371.17" y="601.7245">performed_by</text></g><!--link accounts to transactions--><g id="link_accounts_transactions"><path codeLine="74" d="M117,578.8594 C117,598.5894 117,593.1494 117,612.5894 " fill="none" id="accounts-transactions" style="stroke:#181818;stroke-width:1;"/><line style="stroke:#181818;stroke-width:1;" x1="113" x2="121" y1="574.8594" y2="574.8594"/><line style="stroke:#181818;stroke-width:1;" x1="113" x2="121" y1="577.8594" y2="577.8594"/><line style="stroke:#181818;stroke-width:1;" x1="117" x2="117" y1="578.8594" y2="570.8594"/><line style="stroke:#181818;stroke-width:1;" x1="117" x2="123" y1="622.5894" y2="630.5894"/><line style="stroke:#181818;stroke-width:1;" x1="117" x2="111" y1="622.5894" y2="630.5894"/><line style="stroke:#181818;stroke-width:1;" x1="117" x2="117" y1="622.5894" y2="630.5894"/><ellipse cx="117" cy="616.5894" fill="none" rx="4" ry="4" style="stroke:#181818;stroke-width:1;"/><text fill="#000000" font-family="sans-serif" font-size="13" lengthAdjust="spacing" textLength="109.1289" x="7" y="597.2245">source_account_id</text></g><!--link accounts to transactions--><g id="link_accounts_transactions"><path codeLine="75" d="M205.33,578.8594 C205.33,598.5894 205.33,593.1494 205.33,612.5894 " fill="none" id="accounts-transactions-1" style="stroke:#181818;stroke-width:1;"/><line style="stroke:#181818;stroke-width:1;" x1="201.33" x2="209.33" y1="574.8594" y2="574.8594"/><line style="stroke:#181818;stroke-width:1;" x1="201.33" x2="209.33" y1="577.8594" y2="577.8594"/><line style="stroke:#181818;stroke-width:1;" x1="205.33" x2="205.33" y1="578.8594" y2="570.8594"/><line style="stroke:#181818;stroke-width:1;" x1="205.33" x2="211.33" y1="622.5894" y2="630.5894"/><line style="stroke:#181818;stroke-width:1;" x1="205.33" x2="199.33" y1="622.5894" y2="630.5894"/><line style="stroke:#181818;stroke-width:1;" x1="205.33" x2="205.33" y1="622.5894" y2="630.5894"/><ellipse cx="205.33" cy="616.5894" fill="none" rx="4" ry="4" style="stroke:#181818;stroke-width:1;"/><text fill="#000000" font-family="sans-serif" font-size="13" lengthAdjust="spacing" textLength="132.9897" x="72.33" y="615.2245">destination_account_id</text></g><!--SRC=[ZPJVRjCm5CRlynJMhhQ8Ijr4BwYcIMKKg5YxgMG8SHETsivYuTZ1TXZLXiH3y13m77iJdWJdN-iqILSf5xQ_B_OvFvzZ_PM951GaICT0v3qJToW2hgcdDmfdWffrIf5K9fQUPvZX5Csltg1_ltwZkIHFV-oSoplsBQE8s4yAyVINQi-ZmfhNw2ZJLEaZ11eL8_JW8UGZtsV4zz4OlPwzcoq2T7v-y-7Ymag3GQ7dNW49jOvFa-Nb-ydoU3GyiRRRqkQZ5BI-bug4CUZOiPsDHYU58Seu3tVsE1qESv4cm7XxsKTASjT-LYrJ0IjEIHxkzVNLTBAmgrXHC9I4OEnoC9jFFmQJ-KtmnKeSj0bpAAAj_joImPpPOScc6Xz8ftI78ajML3NZTH5X9lh5Y2aRPPjn8HOPT6ezwD9OYZOv84HHhTktaoePMO590Jna8f8vfUdde3XS6p2PRcss1tYMacx9eGqOowp6NKyEv5tPdmTUtWiZxbPlQxLef7PnzQJhenLm43Z_PN4xdovdbyUdhrwyp3MPKj5D0dEfknKVVRVjPublOdFf60L20pPMBmcv2mTIwiaFafnTHnPQPWhJi8RRIOrGRPY0F8pzHjkaFoZEyYfOhVVh7N3iCLYnr9Hu6iNgbb16MD7OLH5jfWUNqSu1LKiLsuSx-1gQatBv-54LIPNq9xirT6PhR1FhkkTiXlNpy_Wu6CY7RNkCjoNjbSztvMYKnzXbt_GvZCQDgBtD6TqxjehZkH-wAyNx3m00]--></g></svg>