<svg xmlns="http://www.w3.org/2000/svg" xmlns:xlink="http://www.w3.org/1999/xlink" version="1.1" data-diagram-type="CLASS" style="width:1162px;height:1083px;background:#FFFFFF;" width="1162px" height="1083px" viewBox="0 0 1162 1083" zoomAndPan="magnify" preserveAspectRatio="none" contentStyleType="text/css"><?plantuml 1.2026.7beta3?><defs/><g><g class="title" data-source-line="4"><text x="440.1062" y="22.9951" fill="#000000" font-size="14" lengthAdjust="spacing" textLength="275.3379" font-weight="700" font-family="sans-serif">MLD — Modèle logique de données</text></g><!--class users--><g class="entity" data-qualified-name="users" id="ent0001" data-source-line="6"><rect x="606.48" y="347.8669" width="253.083" height="194.6719" fill="#F1F1F1" style="stroke:#181818;stroke-width:0.5;" rx="2.5" ry="2.5"/><ellipse cx="709.8565" cy="363.8669" rx="11" ry="11" fill="#ADD1B2" style="stroke:#181818;stroke-width:1;"/><path d="M713.9658,369.8669 L706.2471,369.8669 L706.2471,357.4763 L713.9658,357.4763 L713.9658,359.6325 L708.7002,359.6325 L708.7002,362.3044 L713.4658,362.3044 L713.4658,364.4606 L708.7002,364.4606 L708.7002,367.7106 L713.9658,367.7106 L713.9658,369.8669 Z " fill="#000000"/><text x="730.3565" y="368.7136" fill="#000000" font-size="14" lengthAdjust="spacing" textLength="37.8301" font-family="sans-serif">users</text><line x1="607.48" y1="379.8669" x2="858.563" y2="379.8669" style="stroke:#181818;stroke-width:0.5;"/><g data-visibility-modifier="IE_MANDATORY"><ellipse cx="617.48" cy="393.5153" rx="3" ry="3" fill="#000000" style="stroke:#000000;stroke-width:1;"/></g><text x="626.48" y="396.862" fill="#000000" font-size="14" lengthAdjust="spacing" textLength="14.8203" font-weight="700" font-family="sans-serif">id</text><text x="645.7505" y="396.862" fill="#000000" font-size="14" lengthAdjust="spacing" textLength="96.1064" font-family="sans-serif">: BIGINT «PK»</text><line x1="607.48" y1="404.1638" x2="858.563" y2="404.1638" style="stroke:#181818;stroke-width:1;"/><g data-visibility-modifier="IE_MANDATORY"><ellipse cx="617.48" cy="417.8122" rx="3" ry="3" fill="#000000" style="stroke:#000000;stroke-width:1;"/></g><text x="626.48" y="421.1589" fill="#000000" font-size="14" lengthAdjust="spacing" textLength="222.0928" font-family="sans-serif">username : VARCHAR(50) «UK»</text><g data-visibility-modifier="IE_MANDATORY"><ellipse cx="617.48" cy="434.1091" rx="3" ry="3" fill="#000000" style="stroke:#000000;stroke-width:1;"/></g><text x="626.48" y="437.4557" fill="#000000" font-size="14" lengthAdjust="spacing" textLength="227.083" font-family="sans-serif">password_hash : VARCHAR(255)</text><g data-visibility-modifier="IE_MANDATORY"><ellipse cx="617.48" cy="450.4059" rx="3" ry="3" fill="#000000" style="stroke:#000000;stroke-width:1;"/></g><text x="626.48" y="453.7526" fill="#000000" font-size="14" lengthAdjust="spacing" textLength="188.0361" font-family="sans-serif">full_name : VARCHAR(100)</text><text x="626.48" y="470.0495" fill="#000000" font-size="14" lengthAdjust="spacing" textLength="158.3613" font-family="sans-serif">email : VARCHAR(100)</text><g data-visibility-modifier="IE_MANDATORY"><ellipse cx="617.48" cy="482.9997" rx="3" ry="3" fill="#000000" style="stroke:#000000;stroke-width:1;"/></g><text x="626.48" y="486.3464" fill="#000000" font-size="14" lengthAdjust="spacing" textLength="137.6689" font-family="sans-serif">role : VARCHAR(20)</text><g data-visibility-modifier="IE_MANDATORY"><ellipse cx="617.48" cy="499.2966" rx="3" ry="3" fill="#000000" style="stroke:#000000;stroke-width:1;"/></g><text x="626.48" y="502.6432" fill="#000000" font-size="14" lengthAdjust="spacing" textLength="138.2979" font-family="sans-serif">enabled : BOOLEAN</text><text x="626.48" y="518.9401" fill="#000000" font-size="14" lengthAdjust="spacing" textLength="187.6055" font-family="sans-serif">created_at : TIMESTAMPTZ</text><text x="626.48" y="535.237" fill="#000000" font-size="14" lengthAdjust="spacing" textLength="200.3271" font-family="sans-serif">last_login_at : TIMESTAMPTZ</text></g><!--class clients--><g class="entity" data-qualified-name="clients" id="ent0002" data-source-line="19"><rect x="529.05" y="44.2969" width="277.9453" height="243.5625" fill="#F1F1F1" style="stroke:#181818;stroke-width:0.5;" rx="2.5" ry="2.5"/><ellipse cx="640.8996" cy="60.2969" rx="11" ry="11" fill="#ADD1B2" style="stroke:#181818;stroke-width:1;"/><path d="M645.009,66.2969 L637.2902,66.2969 L637.2902,53.9063 L645.009,53.9063 L645.009,56.0625 L639.7434,56.0625 L639.7434,58.7344 L644.509,58.7344 L644.509,60.8906 L639.7434,60.8906 L639.7434,64.1406 L645.009,64.1406 L645.009,66.2969 Z " fill="#000000"/><text x="661.3996" y="65.1436" fill="#000000" font-size="14" lengthAdjust="spacing" textLength="45.7461" font-family="sans-serif">clients</text><line x1="530.05" y1="76.2969" x2="805.9953" y2="76.2969" style="stroke:#181818;stroke-width:0.5;"/><g data-visibility-modifier="IE_MANDATORY"><ellipse cx="540.05" cy="89.9453" rx="3" ry="3" fill="#000000" style="stroke:#000000;stroke-width:1;"/></g><text x="549.05" y="93.292" fill="#000000" font-size="14" lengthAdjust="spacing" textLength="14.8203" font-weight="700" font-family="sans-serif">id</text><text x="568.3205" y="93.292" fill="#000000" font-size="14" lengthAdjust="spacing" textLength="96.1064" font-family="sans-serif">: BIGINT «PK»</text><line x1="530.05" y1="100.5938" x2="805.9953" y2="100.5938" style="stroke:#181818;stroke-width:1;"/><g data-visibility-modifier="IE_MANDATORY"><ellipse cx="540.05" cy="114.2422" rx="3" ry="3" fill="#000000" style="stroke:#000000;stroke-width:1;"/></g><text x="549.05" y="117.5889" fill="#000000" font-size="14" lengthAdjust="spacing" textLength="251.9453" font-family="sans-serif">client_number : VARCHAR(20) «UK»</text><g data-visibility-modifier="IE_MANDATORY"><ellipse cx="540.05" cy="130.5391" rx="3" ry="3" fill="#000000" style="stroke:#000000;stroke-width:1;"/></g><text x="549.05" y="133.8857" fill="#000000" font-size="14" lengthAdjust="spacing" textLength="172.3135" font-family="sans-serif">cin : VARCHAR(20) «UK»</text><g data-visibility-modifier="IE_MANDATORY"><ellipse cx="540.05" cy="146.8359" rx="3" ry="3" fill="#000000" style="stroke:#000000;stroke-width:1;"/></g><text x="549.05" y="150.1826" fill="#000000" font-size="14" lengthAdjust="spacing" textLength="184.9053" font-family="sans-serif">first_name : VARCHAR(50)</text><g data-visibility-modifier="IE_MANDATORY"><ellipse cx="540.05" cy="163.1328" rx="3" ry="3" fill="#000000" style="stroke:#000000;stroke-width:1;"/></g><text x="549.05" y="166.4795" fill="#000000" font-size="14" lengthAdjust="spacing" textLength="182.7998" font-family="sans-serif">last_name : VARCHAR(50)</text><text x="549.05" y="182.7764" fill="#000000" font-size="14" lengthAdjust="spacing" textLength="158.3613" font-family="sans-serif">email : VARCHAR(100)</text><text x="549.05" y="199.0732" fill="#000000" font-size="14" lengthAdjust="spacing" textLength="154.6563" font-family="sans-serif">phone : VARCHAR(20)</text><text x="549.05" y="215.3701" fill="#000000" font-size="14" lengthAdjust="spacing" textLength="175.0615" font-family="sans-serif">address : VARCHAR(255)</text><text x="549.05" y="231.667" fill="#000000" font-size="14" lengthAdjust="spacing" textLength="167.5488" font-family="sans-serif">professional_info : TEXT</text><g data-visibility-modifier="IE_MANDATORY"><ellipse cx="540.05" cy="244.6172" rx="3" ry="3" fill="#000000" style="stroke:#000000;stroke-width:1;"/></g><text x="549.05" y="247.9639" fill="#000000" font-size="14" lengthAdjust="spacing" textLength="153.8633" font-family="sans-serif">status : VARCHAR(20)</text><text x="549.05" y="264.2607" fill="#000000" font-size="14" lengthAdjust="spacing" textLength="187.6055" font-family="sans-serif">created_at : TIMESTAMPTZ</text><text x="549.05" y="280.5576" fill="#000000" font-size="14" lengthAdjust="spacing" textLength="192.1855" font-family="sans-serif">updated_at : TIMESTAMPTZ</text></g><!--class accounts--><g class="entity" data-qualified-name="accounts" id="ent0003" data-source-line="35"><rect x="276.38" y="347.8669" width="295.2676" height="194.6719" fill="#F1F1F1" style="stroke:#181818;stroke-width:0.5;" rx="2.5" ry="2.5"/><ellipse cx="388.2296" cy="363.8669" rx="11" ry="11" fill="#ADD1B2" style="stroke:#181818;stroke-width:1;"/><path d="M392.339,369.8669 L384.6202,369.8669 L384.6202,357.4763 L392.339,357.4763 L392.339,359.6325 L387.0734,359.6325 L387.0734,362.3044 L391.839,362.3044 L391.839,364.4606 L387.0734,364.4606 L387.0734,367.7106 L392.339,367.7106 L392.339,369.8669 Z " fill="#000000"/><text x="408.7296" y="368.7136" fill="#000000" font-size="14" lengthAdjust="spacing" textLength="63.0684" font-family="sans-serif">accounts</text><line x1="277.38" y1="379.8669" x2="570.6476" y2="379.8669" style="stroke:#181818;stroke-width:0.5;"/><g data-visibility-modifier="IE_MANDATORY"><ellipse cx="287.38" cy="393.5153" rx="3" ry="3" fill="#000000" style="stroke:#000000;stroke-width:1;"/></g><text x="296.38" y="396.862" fill="#000000" font-size="14" lengthAdjust="spacing" textLength="14.8203" font-weight="700" font-family="sans-serif">id</text><text x="315.6505" y="396.862" fill="#000000" font-size="14" lengthAdjust="spacing" textLength="96.1064" font-family="sans-serif">: BIGINT «PK»</text><line x1="277.38" y1="404.1638" x2="570.6476" y2="404.1638" style="stroke:#181818;stroke-width:1;"/><g data-visibility-modifier="IE_MANDATORY"><ellipse cx="287.38" cy="417.8122" rx="3" ry="3" fill="#000000" style="stroke:#000000;stroke-width:1;"/></g><text x="296.38" y="421.1589" fill="#000000" font-size="14" lengthAdjust="spacing" textLength="269.2676" font-family="sans-serif">account_number : VARCHAR(20) «UK»</text><g data-visibility-modifier="IE_MANDATORY"><ellipse cx="287.38" cy="434.1091" rx="3" ry="3" fill="#000000" style="stroke:#000000;stroke-width:1;"/></g><text x="296.38" y="437.4557" fill="#000000" font-size="14" lengthAdjust="spacing" textLength="158.3955" font-family="sans-serif">client_id : BIGINT «FK»</text><g data-visibility-modifier="IE_MANDATORY"><ellipse cx="287.38" cy="450.4059" rx="3" ry="3" fill="#000000" style="stroke:#000000;stroke-width:1;"/></g><text x="296.38" y="453.7526" fill="#000000" font-size="14" lengthAdjust="spacing" textLength="142.1191" font-family="sans-serif">type : VARCHAR(20)</text><g data-visibility-modifier="IE_MANDATORY"><ellipse cx="287.38" cy="466.7028" rx="3" ry="3" fill="#000000" style="stroke:#000000;stroke-width:1;"/></g><text x="296.38" y="470.0495" fill="#000000" font-size="14" lengthAdjust="spacing" textLength="153.8633" font-family="sans-serif">status : VARCHAR(20)</text><g data-visibility-modifier="IE_MANDATORY"><ellipse cx="287.38" cy="482.9997" rx="3" ry="3" fill="#000000" style="stroke:#000000;stroke-width:1;"/></g><text x="296.38" y="486.3464" fill="#000000" font-size="14" lengthAdjust="spacing" textLength="176.1074" font-family="sans-serif">balance : NUMERIC(19,4)</text><text x="296.38" y="502.6432" fill="#000000" font-size="14" lengthAdjust="spacing" textLength="186.4092" font-family="sans-serif">opened_at : TIMESTAMPTZ</text><text x="296.38" y="518.9401" fill="#000000" font-size="14" lengthAdjust="spacing" textLength="178.917" font-family="sans-serif">closed_at : TIMESTAMPTZ</text><g data-visibility-modifier="IE_MANDATORY"><ellipse cx="287.38" cy="531.8903" rx="3" ry="3" fill="#000000" style="stroke:#000000;stroke-width:1;"/></g><text x="296.38" y="535.237" fill="#000000" font-size="14" lengthAdjust="spacing" textLength="112.6289" font-family="sans-serif">version : BIGINT</text></g><!--class transactions--><g class="entity" data-qualified-name="transactions" id="ent0004" data-source-line="48"><rect x="280.44" y="635.1269" width="287.1602" height="178.375" fill="#F1F1F1" style="stroke:#181818;stroke-width:0.5;" rx="2.5" ry="2.5"/><ellipse cx="376.5806" cy="651.1269" rx="11" ry="11" fill="#ADD1B2" style="stroke:#181818;stroke-width:1;"/><path d="M380.69,657.1269 L372.9713,657.1269 L372.9713,644.7363 L380.69,644.7363 L380.69,646.8925 L375.4244,646.8925 L375.4244,649.5644 L380.19,649.5644 L380.19,651.7206 L375.4244,651.7206 L375.4244,654.9706 L380.69,654.9706 L380.69,657.1269 Z " fill="#000000"/><text x="397.0806" y="655.9736" fill="#000000" font-size="14" lengthAdjust="spacing" textLength="86.3789" font-family="sans-serif">transactions</text><line x1="281.44" y1="667.1269" x2="566.6002" y2="667.1269" style="stroke:#181818;stroke-width:0.5;"/><g data-visibility-modifier="IE_MANDATORY"><ellipse cx="291.44" cy="680.7753" rx="3" ry="3" fill="#000000" style="stroke:#000000;stroke-width:1;"/></g><text x="300.44" y="684.122" fill="#000000" font-size="14" lengthAdjust="spacing" textLength="14.8203" font-weight="700" font-family="sans-serif">id</text><text x="319.7105" y="684.122" fill="#000000" font-size="14" lengthAdjust="spacing" textLength="96.1064" font-family="sans-serif">: BIGINT «PK»</text><line x1="281.44" y1="691.4238" x2="566.6002" y2="691.4238" style="stroke:#181818;stroke-width:1;"/><g data-visibility-modifier="IE_MANDATORY"><ellipse cx="291.44" cy="705.0722" rx="3" ry="3" fill="#000000" style="stroke:#000000;stroke-width:1;"/></g><text x="300.44" y="708.4189" fill="#000000" font-size="14" lengthAdjust="spacing" textLength="142.1191" font-family="sans-serif">type : VARCHAR(30)</text><g data-visibility-modifier="IE_MANDATORY"><ellipse cx="291.44" cy="721.3691" rx="3" ry="3" fill="#000000" style="stroke:#000000;stroke-width:1;"/></g><text x="300.44" y="724.7157" fill="#000000" font-size="14" lengthAdjust="spacing" textLength="175.0068" font-family="sans-serif">amount : NUMERIC(19,4)</text><text x="300.44" y="741.0126" fill="#000000" font-size="14" lengthAdjust="spacing" textLength="229.5166" font-family="sans-serif">source_account_id : BIGINT «FK»</text><text x="300.44" y="757.3095" fill="#000000" font-size="14" lengthAdjust="spacing" textLength="261.1602" font-family="sans-serif">destination_account_id : BIGINT «FK»</text><g data-visibility-modifier="IE_MANDATORY"><ellipse cx="291.44" cy="770.2597" rx="3" ry="3" fill="#000000" style="stroke:#000000;stroke-width:1;"/></g><text x="300.44" y="773.6064" fill="#000000" font-size="14" lengthAdjust="spacing" textLength="189.4102" font-family="sans-serif">executed_by : BIGINT «FK»</text><g data-visibility-modifier="IE_MANDATORY"><ellipse cx="291.44" cy="786.5566" rx="3" ry="3" fill="#000000" style="stroke:#000000;stroke-width:1;"/></g><text x="300.44" y="789.9032" fill="#000000" font-size="14" lengthAdjust="spacing" textLength="199.042" font-family="sans-serif">executed_at : TIMESTAMPTZ</text><text x="300.44" y="806.2001" fill="#000000" font-size="14" lengthAdjust="spacing" textLength="197.5928" font-family="sans-serif">description : VARCHAR(255)</text></g><!--class bill_providers--><g class="entity" data-qualified-name="bill_providers" id="ent0005" data-source-line="60"><rect x="34.21" y="659.5769" width="211.6162" height="129.4844" fill="#F1F1F1" style="stroke:#181818;stroke-width:0.5;" rx="2.5" ry="2.5"/><ellipse cx="89.024" cy="675.5769" rx="11" ry="11" fill="#ADD1B2" style="stroke:#181818;stroke-width:1;"/><path d="M93.1333,681.5769 L85.4146,681.5769 L85.4146,669.1863 L93.1333,669.1863 L93.1333,671.3425 L87.8677,671.3425 L87.8677,674.0144 L92.6333,674.0144 L92.6333,676.1706 L87.8677,676.1706 L87.8677,679.4206 L93.1333,679.4206 L93.1333,681.5769 Z " fill="#000000"/><text x="109.524" y="680.4236" fill="#000000" font-size="14" lengthAdjust="spacing" textLength="93.4883" font-family="sans-serif">bill_providers</text><line x1="35.21" y1="691.5769" x2="244.8262" y2="691.5769" style="stroke:#181818;stroke-width:0.5;"/><g data-visibility-modifier="IE_MANDATORY"><ellipse cx="45.21" cy="705.2253" rx="3" ry="3" fill="#000000" style="stroke:#000000;stroke-width:1;"/></g><text x="54.21" y="708.572" fill="#000000" font-size="14" lengthAdjust="spacing" textLength="14.8203" font-weight="700" font-family="sans-serif">id</text><text x="73.4805" y="708.572" fill="#000000" font-size="14" lengthAdjust="spacing" textLength="96.1064" font-family="sans-serif">: BIGINT «PK»</text><line x1="35.21" y1="715.8738" x2="244.8262" y2="715.8738" style="stroke:#181818;stroke-width:1;"/><g data-visibility-modifier="IE_MANDATORY"><ellipse cx="45.21" cy="729.5222" rx="3" ry="3" fill="#000000" style="stroke:#000000;stroke-width:1;"/></g><text x="54.21" y="732.8689" fill="#000000" font-size="14" lengthAdjust="spacing" textLength="185.6162" font-family="sans-serif">code : VARCHAR(20) «UK»</text><g data-visibility-modifier="IE_MANDATORY"><ellipse cx="45.21" cy="745.8191" rx="3" ry="3" fill="#000000" style="stroke:#000000;stroke-width:1;"/></g><text x="54.21" y="749.1657" fill="#000000" font-size="14" lengthAdjust="spacing" textLength="159.4551" font-family="sans-serif">name : VARCHAR(100)</text><text x="54.21" y="765.4626" fill="#000000" font-size="14" lengthAdjust="spacing" textLength="172.7168" font-family="sans-serif">category : VARCHAR(50)</text><g data-visibility-modifier="IE_MANDATORY"><ellipse cx="45.21" cy="778.4128" rx="3" ry="3" fill="#000000" style="stroke:#000000;stroke-width:1;"/></g><text x="54.21" y="781.7595" fill="#000000" font-size="14" lengthAdjust="spacing" textLength="124.5098" font-family="sans-serif">active : BOOLEAN</text></g><!--class bill_payments--><g class="entity" data-qualified-name="bill_payments" id="ent0006" data-source-line="69"><rect x="7" y="906.0969" width="266.0371" height="162.0781" fill="#F1F1F1" style="stroke:#181818;stroke-width:0.5;" rx="2.5" ry="2.5"/><ellipse cx="87.1616" cy="922.0969" rx="11" ry="11" fill="#ADD1B2" style="stroke:#181818;stroke-width:1;"/><path d="M91.271,928.0969 L83.5522,928.0969 L83.5522,915.7063 L91.271,915.7063 L91.271,917.8625 L86.0054,917.8625 L86.0054,920.5344 L90.771,920.5344 L90.771,922.6906 L86.0054,922.6906 L86.0054,925.9406 L91.271,925.9406 L91.271,928.0969 Z " fill="#000000"/><text x="107.6616" y="926.9436" fill="#000000" font-size="14" lengthAdjust="spacing" textLength="97.2139" font-family="sans-serif">bill_payments</text><line x1="8" y1="938.0969" x2="272.0371" y2="938.0969" style="stroke:#181818;stroke-width:0.5;"/><g data-visibility-modifier="IE_MANDATORY"><ellipse cx="18" cy="951.7453" rx="3" ry="3" fill="#000000" style="stroke:#000000;stroke-width:1;"/></g><text x="27" y="955.092" fill="#000000" font-size="14" lengthAdjust="spacing" textLength="14.8203" font-weight="700" font-family="sans-serif">id</text><text x="46.2705" y="955.092" fill="#000000" font-size="14" lengthAdjust="spacing" textLength="96.1064" font-family="sans-serif">: BIGINT «PK»</text><line x1="8" y1="962.3938" x2="272.0371" y2="962.3938" style="stroke:#181818;stroke-width:1;"/><g data-visibility-modifier="IE_MANDATORY"><ellipse cx="18" cy="976.0422" rx="3" ry="3" fill="#000000" style="stroke:#000000;stroke-width:1;"/></g><text x="27" y="979.3889" fill="#000000" font-size="14" lengthAdjust="spacing" textLength="175.7178" font-family="sans-serif">account_id : BIGINT «FK»</text><g data-visibility-modifier="IE_MANDATORY"><ellipse cx="18" cy="992.3391" rx="3" ry="3" fill="#000000" style="stroke:#000000;stroke-width:1;"/></g><text x="27" y="995.6857" fill="#000000" font-size="14" lengthAdjust="spacing" textLength="206.1377" font-family="sans-serif">bill_provider_id : BIGINT «FK»</text><g data-visibility-modifier="IE_MANDATORY"><ellipse cx="18" cy="1008.6359" rx="3" ry="3" fill="#000000" style="stroke:#000000;stroke-width:1;"/></g><text x="27" y="1011.9826" fill="#000000" font-size="14" lengthAdjust="spacing" textLength="223.7607" font-family="sans-serif">client_reference : VARCHAR(50)</text><g data-visibility-modifier="IE_MANDATORY"><ellipse cx="18" cy="1024.9328" rx="3" ry="3" fill="#000000" style="stroke:#000000;stroke-width:1;"/></g><text x="27" y="1028.2795" fill="#000000" font-size="14" lengthAdjust="spacing" textLength="175.0068" font-family="sans-serif">amount : NUMERIC(19,4)</text><g data-visibility-modifier="IE_MANDATORY"><ellipse cx="18" cy="1041.2297" rx="3" ry="3" fill="#000000" style="stroke:#000000;stroke-width:1;"/></g><text x="27" y="1044.5764" fill="#000000" font-size="14" lengthAdjust="spacing" textLength="240.0371" font-family="sans-serif">transaction_id : BIGINT «FK» «UK»</text><text x="27" y="1060.8732" fill="#000000" font-size="14" lengthAdjust="spacing" textLength="187.6055" font-family="sans-serif">created_at : TIMESTAMPTZ</text></g><!--class checkbook_orders--><g class="entity" data-qualified-name="checkbook_orders" id="ent0007" data-source-line="80"><rect x="870.48" y="602.5369" width="277.0703" height="243.5625" fill="#F1F1F1" style="stroke:#181818;stroke-width:0.5;" rx="2.5" ry="2.5"/><ellipse cx="941.273" cy="618.5369" rx="11" ry="11" fill="#ADD1B2" style="stroke:#181818;stroke-width:1;"/><path d="M945.3823,624.5369 L937.6636,624.5369 L937.6636,612.1463 L945.3823,612.1463 L945.3823,614.3025 L940.1167,614.3025 L940.1167,616.9744 L944.8823,616.9744 L944.8823,619.1306 L940.1167,619.1306 L940.1167,622.3806 L945.3823,622.3806 L945.3823,624.5369 Z " fill="#000000"/><text x="961.773" y="623.3836" fill="#000000" font-size="14" lengthAdjust="spacing" textLength="126.9844" font-family="sans-serif">checkbook_orders</text><line x1="871.48" y1="634.5369" x2="1146.5503" y2="634.5369" style="stroke:#181818;stroke-width:0.5;"/><g data-visibility-modifier="IE_MANDATORY"><ellipse cx="881.48" cy="648.1853" rx="3" ry="3" fill="#000000" style="stroke:#000000;stroke-width:1;"/></g><text x="890.48" y="651.532" fill="#000000" font-size="14" lengthAdjust="spacing" textLength="14.8203" font-weight="700" font-family="sans-serif">id</text><text x="909.7505" y="651.532" fill="#000000" font-size="14" lengthAdjust="spacing" textLength="96.1064" font-family="sans-serif">: BIGINT «PK»</text><line x1="871.48" y1="658.8338" x2="1146.5503" y2="658.8338" style="stroke:#181818;stroke-width:1;"/><g data-visibility-modifier="IE_MANDATORY"><ellipse cx="881.48" cy="672.4822" rx="3" ry="3" fill="#000000" style="stroke:#000000;stroke-width:1;"/></g><text x="890.48" y="675.8289" fill="#000000" font-size="14" lengthAdjust="spacing" textLength="251.0703" font-family="sans-serif">order_number : VARCHAR(20) «UK»</text><g data-visibility-modifier="IE_MANDATORY"><ellipse cx="881.48" cy="688.7791" rx="3" ry="3" fill="#000000" style="stroke:#000000;stroke-width:1;"/></g><text x="890.48" y="692.1257" fill="#000000" font-size="14" lengthAdjust="spacing" textLength="175.7178" font-family="sans-serif">account_id : BIGINT «FK»</text><g data-visibility-modifier="IE_MANDATORY"><ellipse cx="881.48" cy="705.0759" rx="3" ry="3" fill="#000000" style="stroke:#000000;stroke-width:1;"/></g><text x="890.48" y="708.4226" fill="#000000" font-size="14" lengthAdjust="spacing" textLength="158.3955" font-family="sans-serif">client_id : BIGINT «FK»</text><g data-visibility-modifier="IE_MANDATORY"><ellipse cx="881.48" cy="721.3728" rx="3" ry="3" fill="#000000" style="stroke:#000000;stroke-width:1;"/></g><text x="890.48" y="724.7195" fill="#000000" font-size="14" lengthAdjust="spacing" textLength="133.4033" font-family="sans-serif">quantity : INTEGER</text><g data-visibility-modifier="IE_MANDATORY"><ellipse cx="881.48" cy="737.6697" rx="3" ry="3" fill="#000000" style="stroke:#000000;stroke-width:1;"/></g><text x="890.48" y="741.0164" fill="#000000" font-size="14" lengthAdjust="spacing" textLength="196.2256" font-family="sans-serif">sheet_count : VARCHAR(20)</text><g data-visibility-modifier="IE_MANDATORY"><ellipse cx="881.48" cy="753.9666" rx="3" ry="3" fill="#000000" style="stroke:#000000;stroke-width:1;"/></g><text x="890.48" y="757.3132" fill="#000000" font-size="14" lengthAdjust="spacing" textLength="153.8633" font-family="sans-serif">status : VARCHAR(20)</text><g data-visibility-modifier="IE_MANDATORY"><ellipse cx="881.48" cy="770.2634" rx="3" ry="3" fill="#000000" style="stroke:#000000;stroke-width:1;"/></g><text x="890.48" y="773.6101" fill="#000000" font-size="14" lengthAdjust="spacing" textLength="204.9961" font-family="sans-serif">requested_at : TIMESTAMPTZ</text><text x="890.48" y="789.907" fill="#000000" font-size="14" lengthAdjust="spacing" textLength="205.5771" font-family="sans-serif">processed_at : TIMESTAMPTZ</text><text x="890.48" y="806.2039" fill="#000000" font-size="14" lengthAdjust="spacing" textLength="199.4043" font-family="sans-serif">delivered_at : TIMESTAMPTZ</text><g data-visibility-modifier="IE_MANDATORY"><ellipse cx="881.48" cy="819.1541" rx="3" ry="3" fill="#000000" style="stroke:#000000;stroke-width:1;"/></g><text x="890.48" y="822.5007" fill="#000000" font-size="14" lengthAdjust="spacing" textLength="195.3643" font-family="sans-serif">requested_by : BIGINT «FK»</text><text x="890.48" y="838.7976" fill="#000000" font-size="14" lengthAdjust="spacing" textLength="158.5869" font-family="sans-serif">notes : VARCHAR(255)</text></g><!--class audit_logs--><g class="entity" data-qualified-name="audit_logs" id="ent0008" data-source-line="96"><rect x="602.21" y="643.2769" width="233.6143" height="162.0781" fill="#F1F1F1" style="stroke:#181818;stroke-width:0.5;" rx="2.5" ry="2.5"/><ellipse cx="679.0904" cy="659.2769" rx="11" ry="11" fill="#ADD1B2" style="stroke:#181818;stroke-width:1;"/><path d="M683.1997,665.2769 L675.481,665.2769 L675.481,652.8863 L683.1997,652.8863 L683.1997,655.0425 L677.9341,655.0425 L677.9341,657.7144 L682.6997,657.7144 L682.6997,659.8706 L677.9341,659.8706 L677.9341,663.1206 L683.1997,663.1206 L683.1997,665.2769 Z " fill="#000000"/><text x="699.5904" y="664.1236" fill="#000000" font-size="14" lengthAdjust="spacing" textLength="71.3535" font-family="sans-serif">audit_logs</text><line x1="603.21" y1="675.2769" x2="834.8243" y2="675.2769" style="stroke:#181818;stroke-width:0.5;"/><g data-visibility-modifier="IE_MANDATORY"><ellipse cx="613.21" cy="688.9253" rx="3" ry="3" fill="#000000" style="stroke:#000000;stroke-width:1;"/></g><text x="622.21" y="692.272" fill="#000000" font-size="14" lengthAdjust="spacing" textLength="14.8203" font-weight="700" font-family="sans-serif">id</text><text x="641.4805" y="692.272" fill="#000000" font-size="14" lengthAdjust="spacing" textLength="96.1064" font-family="sans-serif">: BIGINT «PK»</text><line x1="603.21" y1="699.5738" x2="834.8243" y2="699.5738" style="stroke:#181818;stroke-width:1;"/><g data-visibility-modifier="IE_MANDATORY"><ellipse cx="613.21" cy="713.2222" rx="3" ry="3" fill="#000000" style="stroke:#000000;stroke-width:1;"/></g><text x="622.21" y="716.5689" fill="#000000" font-size="14" lengthAdjust="spacing" textLength="153.9385" font-family="sans-serif">action : VARCHAR(50)</text><text x="622.21" y="732.8657" fill="#000000" font-size="14" lengthAdjust="spacing" textLength="189.7588" font-family="sans-serif">entity_type : VARCHAR(50)</text><text x="622.21" y="749.1626" fill="#000000" font-size="14" lengthAdjust="spacing" textLength="121.7686" font-family="sans-serif">entity_id : BIGINT</text><g data-visibility-modifier="IE_MANDATORY"><ellipse cx="613.21" cy="762.1128" rx="3" ry="3" fill="#000000" style="stroke:#000000;stroke-width:1;"/></g><text x="622.21" y="765.4595" fill="#000000" font-size="14" lengthAdjust="spacing" textLength="197.9824" font-family="sans-serif">performed_by : BIGINT «FK»</text><g data-visibility-modifier="IE_MANDATORY"><ellipse cx="613.21" cy="778.4097" rx="3" ry="3" fill="#000000" style="stroke:#000000;stroke-width:1;"/></g><text x="622.21" y="781.7564" fill="#000000" font-size="14" lengthAdjust="spacing" textLength="207.6143" font-family="sans-serif">performed_at : TIMESTAMPTZ</text><text x="622.21" y="798.0532" fill="#000000" font-size="14" lengthAdjust="spacing" textLength="95.7988" font-family="sans-serif">details : TEXT</text></g><!--link clients to accounts--><g class="link" data-entity-1="ent0002" data-entity-2="ent0003" id="lnk9" data-source-line="107" data-link-type="crowfoot"><path d="M550.35,296.1069 C550.35,316.0569 550.35,310.4869 550.35,329.7469" style="stroke:#181818;stroke-width:1;" fill="none" id="clients-accounts" codeLine="107"/><line x1="546.35" y1="292.1069" x2="554.35" y2="292.1069" style="stroke:#181818;stroke-width:1;"/><line x1="546.35" y1="295.1069" x2="554.35" y2="295.1069" style="stroke:#181818;stroke-width:1;"/><line x1="550.35" y1="296.1069" x2="550.35" y2="288.1069" style="stroke:#181818;stroke-width:1;"/><line x1="550.35" y1="339.7469" x2="556.35" y2="347.7469" style="stroke:#181818;stroke-width:1;"/><line x1="550.35" y1="339.7469" x2="544.35" y2="347.7469" style="stroke:#181818;stroke-width:1;"/><line x1="550.35" y1="339.7469" x2="550.35" y2="347.7469" style="stroke:#181818;stroke-width:1;"/><ellipse cx="550.35" cy="333.7469" rx="4" ry="4" fill="none" style="stroke:#181818;stroke-width:1;"/><text x="495.35" y="313.9938" fill="#000000" font-size="13" lengthAdjust="spacing" textLength="54.0693" font-family="sans-serif">client_id</text></g><!--link clients to checkbook_orders--><g class="link" data-entity-1="ent0002" data-entity-2="ent0007" id="lnk10" data-source-line="108" data-link-type="crowfoot"><path d="M586.93,296.0969 C586.93,430.2969 586.93,619.1769 586.93,619.1769 C586.93,619.1769 729.2,619.1769 852.23,619.1769" style="stroke:#181818;stroke-width:1;" fill="none" id="clients-checkbook_orders" codeLine="108"/><line x1="582.93" y1="292.0969" x2="590.93" y2="292.0969" style="stroke:#181818;stroke-width:1;"/><line x1="582.93" y1="295.0969" x2="590.93" y2="295.0969" style="stroke:#181818;stroke-width:1;"/><line x1="586.93" y1="296.0969" x2="586.93" y2="288.0969" style="stroke:#181818;stroke-width:1;"/><line x1="862.23" y1="619.1769" x2="870.23" y2="613.1769" style="stroke:#181818;stroke-width:1;"/><line x1="862.23" y1="619.1769" x2="870.23" y2="625.1769" style="stroke:#181818;stroke-width:1;"/><line x1="862.23" y1="619.1769" x2="870.23" y2="619.1769" style="stroke:#181818;stroke-width:1;"/><ellipse cx="856.23" cy="619.1769" rx="4" ry="4" fill="none" style="stroke:#181818;stroke-width:1;"/><text x="531.93" y="591.3538" fill="#000000" font-size="13" lengthAdjust="spacing" textLength="54.0693" font-family="sans-serif">client_id</text></g><!--link users to transactions--><g class="link" data-entity-1="ent0001" data-entity-2="ent0004" id="lnk11" data-source-line="109" data-link-type="crowfoot"><path d="M682.93,550.9769 C682.93,599.6269 682.93,640.1769 682.93,640.1769 C682.93,640.1769 645.45,640.1769 585.86,640.1769" style="stroke:#181818;stroke-width:1;" fill="none" id="users-transactions" codeLine="109"/><line x1="678.93" y1="546.9769" x2="686.93" y2="546.9769" style="stroke:#181818;stroke-width:1;"/><line x1="678.93" y1="549.9769" x2="686.93" y2="549.9769" style="stroke:#181818;stroke-width:1;"/><line x1="682.93" y1="550.9769" x2="682.93" y2="542.9769" style="stroke:#181818;stroke-width:1;"/><line x1="575.86" y1="640.1769" x2="567.86" y2="646.1769" style="stroke:#181818;stroke-width:1;"/><line x1="575.86" y1="640.1769" x2="567.86" y2="634.1769" style="stroke:#181818;stroke-width:1;"/><line x1="575.86" y1="640.1769" x2="567.86" y2="640.1769" style="stroke:#181818;stroke-width:1;"/><ellipse cx="581.86" cy="640.1769" rx="4" ry="4" fill="none" style="stroke:#181818;stroke-width:1;"/><text x="674.99" y="636.2438" fill="#000000" font-size="13" lengthAdjust="spacing" textLength="82.8687" font-family="sans-serif">executed_by</text></g><!--link users to checkbook_orders--><g class="link" data-entity-1="ent0001" data-entity-2="ent0007" id="lnk12" data-source-line="110" data-link-type="crowfoot"><path d="M847.69,550.7069 C847.69,586.8369 847.69,611.1769 847.69,611.1769 C847.69,611.1769 838.55,611.1769 852.12,611.1769" style="stroke:#181818;stroke-width:1;" fill="none" id="users-checkbook_orders" codeLine="110"/><line x1="843.69" y1="546.7069" x2="851.69" y2="546.7069" style="stroke:#181818;stroke-width:1;"/><line x1="843.69" y1="549.7069" x2="851.69" y2="549.7069" style="stroke:#181818;stroke-width:1;"/><line x1="847.69" y1="550.7069" x2="847.69" y2="542.7069" style="stroke:#181818;stroke-width:1;"/><line x1="862.12" y1="611.1769" x2="870.12" y2="605.1769" style="stroke:#181818;stroke-width:1;"/><line x1="862.12" y1="611.1769" x2="870.12" y2="617.1769" style="stroke:#181818;stroke-width:1;"/><line x1="862.12" y1="611.1769" x2="870.12" y2="611.1769" style="stroke:#181818;stroke-width:1;"/><ellipse cx="856.12" cy="611.1769" rx="4" ry="4" fill="none" style="stroke:#181818;stroke-width:1;"/><text x="758.69" y="584.2238" fill="#000000" font-size="13" lengthAdjust="spacing" textLength="88.3975" font-family="sans-serif">requested_by</text></g><!--link users to audit_logs--><g class="link" data-entity-1="ent0001" data-entity-2="ent0008" id="lnk13" data-source-line="111" data-link-type="crowfoot"><path d="M759.38,550.8269 C759.38,583.5169 759.38,593.6069 759.38,624.9269" style="stroke:#181818;stroke-width:1;" fill="none" id="users-audit_logs" codeLine="111"/><line x1="755.38" y1="546.8269" x2="763.38" y2="546.8269" style="stroke:#181818;stroke-width:1;"/><line x1="755.38" y1="549.8269" x2="763.38" y2="549.8269" style="stroke:#181818;stroke-width:1;"/><line x1="759.38" y1="550.8269" x2="759.38" y2="542.8269" style="stroke:#181818;stroke-width:1;"/><line x1="759.38" y1="634.9269" x2="765.38" y2="642.9269" style="stroke:#181818;stroke-width:1;"/><line x1="759.38" y1="634.9269" x2="753.38" y2="642.9269" style="stroke:#181818;stroke-width:1;"/><line x1="759.38" y1="634.9269" x2="759.38" y2="642.9269" style="stroke:#181818;stroke-width:1;"/><ellipse cx="759.38" cy="628.9269" rx="4" ry="4" fill="none" style="stroke:#181818;stroke-width:1;"/><text x="668.38" y="605.9438" fill="#000000" font-size="13" lengthAdjust="spacing" textLength="90.8286" font-family="sans-serif">performed_by</text></g><!--link accounts to transactions--><g class="link" data-entity-1="ent0003" data-entity-2="ent0004" id="lnk14" data-source-line="112" data-link-type="crowfoot"><path d="M352.23,550.8269 C352.23,580.6869 352.23,587.3869 352.23,616.6969" style="stroke:#181818;stroke-width:1;" fill="none" id="accounts-transactions" codeLine="112"/><line x1="348.23" y1="546.8269" x2="356.23" y2="546.8269" style="stroke:#181818;stroke-width:1;"/><line x1="348.23" y1="549.8269" x2="356.23" y2="549.8269" style="stroke:#181818;stroke-width:1;"/><line x1="352.23" y1="550.8269" x2="352.23" y2="542.8269" style="stroke:#181818;stroke-width:1;"/><line x1="352.23" y1="626.6969" x2="358.23" y2="634.6969" style="stroke:#181818;stroke-width:1;"/><line x1="352.23" y1="626.6969" x2="346.23" y2="634.6969" style="stroke:#181818;stroke-width:1;"/><line x1="352.23" y1="626.6969" x2="352.23" y2="634.6969" style="stroke:#181818;stroke-width:1;"/><ellipse cx="352.23" cy="620.6969" rx="4" ry="4" fill="none" style="stroke:#181818;stroke-width:1;"/><text x="231.23" y="584.8238" fill="#000000" font-size="13" lengthAdjust="spacing" textLength="120.1104" font-family="sans-serif">source_account_id</text></g><!--link accounts to transactions--><g class="link" data-entity-1="ent0003" data-entity-2="ent0004" id="lnk15" data-source-line="113" data-link-type="crowfoot"><path d="M424.02,550.8269 C424.02,580.6869 424.02,587.3869 424.02,616.6969" style="stroke:#181818;stroke-width:1;" fill="none" id="accounts-transactions-1" codeLine="113"/><line x1="420.02" y1="546.8269" x2="428.02" y2="546.8269" style="stroke:#181818;stroke-width:1;"/><line x1="420.02" y1="549.8269" x2="428.02" y2="549.8269" style="stroke:#181818;stroke-width:1;"/><line x1="424.02" y1="550.8269" x2="424.02" y2="542.8269" style="stroke:#181818;stroke-width:1;"/><line x1="424.02" y1="626.6969" x2="430.02" y2="634.6969" style="stroke:#181818;stroke-width:1;"/><line x1="424.02" y1="626.6969" x2="418.02" y2="634.6969" style="stroke:#181818;stroke-width:1;"/><line x1="424.02" y1="626.6969" x2="424.02" y2="634.6969" style="stroke:#181818;stroke-width:1;"/><ellipse cx="424.02" cy="620.6969" rx="4" ry="4" fill="none" style="stroke:#181818;stroke-width:1;"/><text x="274.02" y="601.8238" fill="#000000" font-size="13" lengthAdjust="spacing" textLength="149.4937" font-family="sans-serif">destination_account_id</text></g><!--link accounts to bill_payments--><g class="link" data-entity-1="ent0003" data-entity-2="ent0006" id="lnk16" data-source-line="114" data-link-type="crowfoot"><path d="M267.97,446.1769 C255.13,446.1769 254.9,446.1769 254.9,446.1769 C254.9,446.1769 254.9,736.8369 254.9,887.8569" style="stroke:#181818;stroke-width:1;" fill="none" id="accounts-bill_payments" codeLine="114"/><line x1="271.97" y1="442.1769" x2="271.97" y2="450.1769" style="stroke:#181818;stroke-width:1;"/><line x1="268.97" y1="442.1769" x2="268.97" y2="450.1769" style="stroke:#181818;stroke-width:1;"/><line x1="267.97" y1="446.1769" x2="275.97" y2="446.1769" style="stroke:#181818;stroke-width:1;"/><line x1="254.9" y1="897.8569" x2="260.9" y2="905.8569" style="stroke:#181818;stroke-width:1;"/><line x1="254.9" y1="897.8569" x2="248.9" y2="905.8569" style="stroke:#181818;stroke-width:1;"/><line x1="254.9" y1="897.8569" x2="254.9" y2="905.8569" style="stroke:#181818;stroke-width:1;"/><ellipse cx="254.9" cy="891.8569" rx="4" ry="4" fill="none" style="stroke:#181818;stroke-width:1;"/><text x="183.9" y="661.5438" fill="#000000" font-size="13" lengthAdjust="spacing" textLength="70.1543" font-family="sans-serif">account_id</text></g><!--link accounts to checkbook_orders--><g class="link" data-entity-1="ent0003" data-entity-2="ent0007" id="lnk17" data-source-line="115" data-link-type="crowfoot"><path d="M495.81,550.8469 C495.81,594.0169 495.81,627.1769 495.81,627.1769 C495.81,627.1769 700.15,627.1769 852.14,627.1769" style="stroke:#181818;stroke-width:1;" fill="none" id="accounts-checkbook_orders" codeLine="115"/><line x1="491.81" y1="546.8469" x2="499.81" y2="546.8469" style="stroke:#181818;stroke-width:1;"/><line x1="491.81" y1="549.8469" x2="499.81" y2="549.8469" style="stroke:#181818;stroke-width:1;"/><line x1="495.81" y1="550.8469" x2="495.81" y2="542.8469" style="stroke:#181818;stroke-width:1;"/><line x1="862.14" y1="627.1769" x2="870.14" y2="621.1769" style="stroke:#181818;stroke-width:1;"/><line x1="862.14" y1="627.1769" x2="870.14" y2="633.1769" style="stroke:#181818;stroke-width:1;"/><line x1="862.14" y1="627.1769" x2="870.14" y2="627.1769" style="stroke:#181818;stroke-width:1;"/><ellipse cx="856.14" cy="627.1769" rx="4" ry="4" fill="none" style="stroke:#181818;stroke-width:1;"/><text x="569.81" y="623.2438" fill="#000000" font-size="13" lengthAdjust="spacing" textLength="70.1543" font-family="sans-serif">account_id</text></g><!--link bill_providers to bill_payments--><g class="link" data-entity-1="ent0005" data-entity-2="ent0006" id="lnk18" data-source-line="116" data-link-type="crowfoot"><path d="M140.02,797.2869 C140.02,832.5469 140.02,850.4769 140.02,887.9769" style="stroke:#181818;stroke-width:1;" fill="none" id="bill_providers-bill_payments" codeLine="116"/><line x1="136.02" y1="793.2869" x2="144.02" y2="793.2869" style="stroke:#181818;stroke-width:1;"/><line x1="136.02" y1="796.2869" x2="144.02" y2="796.2869" style="stroke:#181818;stroke-width:1;"/><line x1="140.02" y1="797.2869" x2="140.02" y2="789.2869" style="stroke:#181818;stroke-width:1;"/><line x1="140.02" y1="897.9769" x2="146.02" y2="905.9769" style="stroke:#181818;stroke-width:1;"/><line x1="140.02" y1="897.9769" x2="134.02" y2="905.9769" style="stroke:#181818;stroke-width:1;"/><line x1="140.02" y1="897.9769" x2="140.02" y2="905.9769" style="stroke:#181818;stroke-width:1;"/><ellipse cx="140.02" cy="891.9769" rx="4" ry="4" fill="none" style="stroke:#181818;stroke-width:1;"/><text x="41.02" y="843.7038" fill="#000000" font-size="13" lengthAdjust="spacing" textLength="98.4014" font-family="sans-serif">bill_provider_id</text></g><!--link transactions to bill_payments--><g class="link" data-entity-1="ent0004" data-entity-2="ent0006" id="lnk19" data-source-line="117" data-link-type="association"><path d="M272.19,802.1769 C262.2,802.1769 263.97,802.1769 263.97,802.1769 C263.97,802.1769 263.97,848.1169 263.97,897.7469" style="stroke:#181818;stroke-width:1;" fill="none" id="transactions-bill_payments" codeLine="117"/><line x1="276.19" y1="798.1769" x2="276.19" y2="806.1769" style="stroke:#181818;stroke-width:1;"/><line x1="273.19" y1="798.1769" x2="273.19" y2="806.1769" style="stroke:#181818;stroke-width:1;"/><line x1="272.19" y1="802.1769" x2="280.19" y2="802.1769" style="stroke:#181818;stroke-width:1;"/><line x1="267.97" y1="901.7469" x2="259.97" y2="901.7469" style="stroke:#181818;stroke-width:1;"/><line x1="267.97" y1="898.7469" x2="259.97" y2="898.7469" style="stroke:#181818;stroke-width:1;"/><line x1="263.97" y1="897.7469" x2="263.97" y2="905.7469" style="stroke:#181818;stroke-width:1;"/><text x="171.97" y="841.9138" fill="#000000" font-size="13" lengthAdjust="spacing" textLength="91.7998" font-family="sans-serif">transaction_id</text></g><?plantuml-src bPRVJjim5CRlynGMLn2j4h1niGeXTQnZrIYWhapJRYBNFgKMhXri1rRHINk8FSJs7Bp9dcJElzP9dBQJUf7uV7QEVpxdS_Kz4p5MU8xq35FvnCGTccAk8T2h26S2p28699MPoI0mp710myltwE_FNsWewSjl-yxb7Nj8057xaqAy_04T122iU87s4WrAxo6iKVQ4dWE4GXI6Z8OXwg9tWul1rHYTdjvyEZkpeKudYwTQWUTW5Lzwe_EFlT7-oU61bTtciX35MEidgMWqmthco8vFJWuomJJXFAgjSNHuc0PXZXbl3eT8IUxAZujX47Z2WQRfNbzVzdjNTfGem0PeX8qT7W-6_S_Ztl1c_Cs6EDOcIg68PlJ7cWpXp3xcR8hd7UdawaWaymceQhuk8i94Ut3AbCsooJWBPZlmnbhGnJCfckGmfGgqRfvEhEJK1fWKc4TCJ6LAgVzrd7rS6smItLXi0_0aflwGGniJ8fCIT_co8-z2lXruVYwCkajzAADP8pMBgsMx8PfWZWL9frpT3lkZmVd-qTjNRzAOZ47uIH0kjJyIeaVRVfRuAZUNZb5OQ4oCZUU4t84TATNszxhO1fwdx3oxq39H1A8IhfSQ1MsOm6aQcuMsIRy3IT8gc2msnprmx6U8Oh79yLIArO4qOTPHREa-CbfwMdLer_QL5DgBo6zPn1RudLGBJxEcf_G8ZZarKiQB-SffAYF_MVyjv2iGsaH5RoYOWeAyh1iRQQkKq2r7pmVM-5fDmlNT6P3xYPJtaRq-oeEi3-v89XDlzOKj_3RRnaE2yyIxo4Rw5_rHRXip01EHWjZEfgB0tjIwfGti6H9hosqzmcsPgJPtMI_ixJyX3UWDlOKJoh9Bip3erUlE9LfhtkAwofQFQjPKYJdOypyMeAPIpTkDP2tmKZBsWjJbVMPtM5xjosMd8v_NLqztVUvrJQCONMt-DwfGLcowwtfWLUTPqJsmgjY1twtW25R9-p_VSFHj4_pstfXLzQmksY3rRDHHr-owPVcwdmMLhDD9osLZKjMX_W40?></g></svg>