<svg xmlns="http://www.w3.org/2000/svg" xmlns:xlink="http://www.w3.org/1999/xlink" contentStyleType="text/css" height="1439px" preserveAspectRatio="none" style="width:474px;height:1439px;background:#FFFFFF;" version="1.1" viewBox="0 0 474 1439" width="474px" zoomAndPan="magnify"><title>Gestion des clients et comptes</title><defs/><g><text fill="#000000" font-family="sans-serif" font-size="14" font-weight="bold" lengthAdjust="spacing" textLength="206.1719" x="130.2236" y="24.5332">Gestion des clients et comptes</text><!--cluster Acc?s au syst?me--><g id="cluster_Acc&#232;s au syst&#232;me"><rect fill="none" height="148" rx="2.5" ry="2.5" style="stroke:#181818;stroke-width:1;" width="180" x="200.3096" y="354.1094"/><text fill="#000000" font-family="sans-serif" font-size="14" font-weight="bold" lengthAdjust="spacing" textLength="121.4131" x="229.603" y="370.6426">Acc&#232;s au syst&#232;me</text></g><!--cluster Clients--><g id="cluster_Clients"><rect fill="none" height="364" rx="2.5" ry="2.5" style="stroke:#181818;stroke-width:1;" width="218" x="181.3096" y="526.1094"/><text fill="#000000" font-family="sans-serif" font-size="14" font-weight="bold" lengthAdjust="spacing" textLength="46.6758" x="266.9717" y="542.6426">Clients</text></g><!--cluster Comptes bancaires--><g id="cluster_Comptes bancaires"><rect fill="none" height="316" rx="2.5" ry="2.5" style="stroke:#181818;stroke-width:1;" width="215" x="182.8096" y="914.1094"/><text fill="#000000" font-family="sans-serif" font-size="14" font-weight="bold" lengthAdjust="spacing" textLength="129.1582" x="225.7305" y="930.6426">Comptes bancaires</text></g><g id="elem_UC_LOGIN"><ellipse cx="290.1552" cy="406.0785" fill="#F1F1F1" rx="67.8456" ry="15.9691" style="stroke:#181818;stroke-width:0.5;"/><text fill="#000000" font-family="sans-serif" font-size="14" lengthAdjust="spacing" textLength="81.2793" x="246.5155" y="410.5951">S'authentifier</text></g><g id="elem_UC_LOGOUT"><ellipse cx="290.0774" cy="469.2629" fill="#F1F1F1" rx="73.7678" ry="17.1536" style="stroke:#181818;stroke-width:0.5;"/><text fill="#000000" font-family="sans-serif" font-size="14" lengthAdjust="spacing" textLength="98.0684" x="238.0432" y="473.7795">Se d&#233;connecter</text></g><g id="elem_UC_C_ADD"><ellipse cx="290.4362" cy="579.9347" fill="#F1F1F1" rx="74.6267" ry="17.3253" style="stroke:#181818;stroke-width:0.5;"/><text fill="#000000" font-family="sans-serif" font-size="14" lengthAdjust="spacing" textLength="100.3926" x="237.2399" y="584.4513">Ajouter un client</text></g><g id="elem_UC_C_EDIT"><ellipse cx="290.4798" cy="645.3434" fill="#F1F1F1" rx="76.6702" ry="17.734" style="stroke:#181818;stroke-width:0.5;"/><text fill="#000000" font-family="sans-serif" font-size="14" lengthAdjust="spacing" textLength="105.8271" x="234.9968" y="649.7596">Modifier un client</text></g><g id="elem_UC_C_VIEW"><ellipse cx="290.1968" cy="714.0868" fill="#F1F1F1" rx="92.8872" ry="20.9774" style="stroke:#181818;stroke-width:0.5;"/><text fill="#000000" font-family="sans-serif" font-size="14" lengthAdjust="spacing" textLength="144.7373" x="217.8281" y="717.8153">Consulter la fiche client</text></g><g id="elem_UC_C_SEARCH"><ellipse cx="290.1713" cy="785.1817" fill="#F1F1F1" rx="85.8617" ry="19.5723" style="stroke:#181818;stroke-width:0.5;"/><text fill="#000000" font-family="sans-serif" font-size="14" lengthAdjust="spacing" textLength="128.3994" x="225.9716" y="788.9102">Rechercher un client</text></g><g id="elem_UC_C_STATUS"><ellipse cx="290.3522" cy="853.9179" fill="#F1F1F1" rx="84.5426" ry="19.3085" style="stroke:#181818;stroke-width:0.5;"/><text fill="#000000" font-family="sans-serif" font-size="14" lengthAdjust="spacing" textLength="125.2754" x="227.7145" y="857.6464">G&#233;rer le statut client</text></g><g id="elem_UC_A_OPEN"><ellipse cx="290.0734" cy="967.9621" fill="#F1F1F1" rx="77.2638" ry="17.8528" style="stroke:#181818;stroke-width:0.5;"/><text fill="#000000" font-family="sans-serif" font-size="14" lengthAdjust="spacing" textLength="107.3721" x="234.117" y="972.3063">Ouvrir un compte</text></g><g id="elem_UC_A_VIEW"><ellipse cx="290.5016" cy="1036.2478" fill="#F1F1F1" rx="86.1921" ry="19.6384" style="stroke:#181818;stroke-width:0.5;"/><text fill="#000000" font-family="sans-serif" font-size="14" lengthAdjust="spacing" textLength="129.1787" x="225.9123" y="1039.9763">Consulter un compte</text></g><g id="elem_UC_A_LIST"><ellipse cx="290.076" cy="1114.0142" fill="#F1F1F1" rx="91.2664" ry="27.9049" style="stroke:#181818;stroke-width:0.5;"/><text fill="#000000" font-family="sans-serif" font-size="14" lengthAdjust="spacing" textLength="112.8203" x="232.9947" y="1109.1274">Lister les comptes</text><text fill="#000000" font-family="sans-serif" font-size="14" lengthAdjust="spacing" textLength="62.6035" x="258.1031" y="1126.7368">d'un client</text></g><g id="elem_UC_A_STATUS"><ellipse cx="290.4924" cy="1193.0459" fill="#F1F1F1" rx="90.1828" ry="20.4366" style="stroke:#181818;stroke-width:0.5;"/><text fill="#000000" font-family="sans-serif" font-size="14" lengthAdjust="spacing" textLength="138.5029" x="221.2409" y="1196.7745">G&#233;rer le statut compte</text></g><!--entity personnel--><g id="elem_personnel"><ellipse cx="121.8975" cy="641.1094" fill="#F1F1F1" rx="8" ry="8" style="stroke:#181818;stroke-width:0.5;"/><path d="M121.8975,649.1094 L121.8975,676.1094 M108.8975,657.1094 L134.8975,657.1094 M121.8975,676.1094 L108.8975,691.1094 M121.8975,676.1094 L134.8975,691.1094 " fill="none" style="stroke:#181818;stroke-width:0.5;"/><text fill="#000000" font-family="sans-serif" font-size="14" lengthAdjust="spacing" textLength="63.041" x="86.3096" y="707.1426">Personnel</text><text fill="#000000" font-family="sans-serif" font-size="14" lengthAdjust="spacing" textLength="71.1758" x="86.3096" y="724.752">de l'agence</text></g><!--entity admin--><g id="elem_admin"><ellipse cx="290.437" cy="52.6094" fill="#F1F1F1" rx="8" ry="8" style="stroke:#181818;stroke-width:0.5;"/><path d="M290.437,60.6094 L290.437,87.6094 M277.437,68.6094 L303.437,68.6094 M290.437,87.6094 L277.437,102.6094 M290.437,87.6094 L303.437,102.6094 " fill="none" style="stroke:#181818;stroke-width:0.5;"/><text fill="#000000" font-family="sans-serif" font-size="14" lengthAdjust="spacing" textLength="90.2549" x="245.3096" y="118.6426">Administrateur</text></g><!--entity agent--><g id="elem_agent"><ellipse cx="290.3989" cy="160.6094" fill="#F1F1F1" rx="8" ry="8" style="stroke:#181818;stroke-width:0.5;"/><path d="M290.3989,168.6094 L290.3989,195.6094 M277.3989,176.6094 L303.3989,176.6094 M290.3989,195.6094 L277.3989,210.6094 M290.3989,195.6094 L303.3989,210.6094 " fill="none" style="stroke:#181818;stroke-width:0.5;"/><text fill="#000000" font-family="sans-serif" font-size="14" lengthAdjust="spacing" textLength="94.1787" x="243.3096" y="226.6426">Agent bancaire</text></g><!--entity chef--><g id="elem_chef"><ellipse cx="290.2354" cy="268.6094" fill="#F1F1F1" rx="8" ry="8" style="stroke:#181818;stroke-width:0.5;"/><path d="M290.2354,276.6094 L290.2354,303.6094 M277.2354,284.6094 L303.2354,284.6094 M290.2354,303.6094 L277.2354,318.6094 M290.2354,303.6094 L303.2354,318.6094 " fill="none" style="stroke:#181818;stroke-width:0.5;"/><text fill="#000000" font-family="sans-serif" font-size="14" lengthAdjust="spacing" textLength="89.8516" x="245.3096" y="334.6426">Chef d'agence</text></g><!--reverse link personnel to admin--><g id="link_personnel_admin"><path d="M97.3096,614.5194 C97.3096,473.0794 97.3096,83.1094 97.3096,83.1094 C97.3096,83.1094 188.0196,83.1094 245.0596,83.1094 " fill="none" id="personnel-backto-admin" style="stroke:#181818;stroke-width:1;"/><polygon fill="none" points="97.3096,632.5194,103.3096,614.5194,91.3096,614.5194,97.3096,632.5194" style="stroke:#181818;stroke-width:1;"/></g><!--reverse link personnel to agent--><g id="link_personnel_agent"><path d="M107.3096,614.3294 C107.3096,491.2894 107.3096,191.1094 107.3096,191.1094 C107.3096,191.1094 188.9596,191.1094 243.1796,191.1094 " fill="none" id="personnel-backto-agent" style="stroke:#181818;stroke-width:1;"/><polygon fill="none" points="107.3096,632.3294,113.3096,614.3294,101.3096,614.3294,107.3096,632.3294" style="stroke:#181818;stroke-width:1;"/></g><!--reverse link personnel to chef--><g id="link_personnel_chef"><path d="M117.3096,614.2394 C117.3096,511.9094 117.3096,299.1094 117.3096,299.1094 C117.3096,299.1094 194.0496,299.1094 245.3096,299.1094 " fill="none" id="personnel-backto-chef" style="stroke:#181818;stroke-width:1;"/><polygon fill="none" points="117.3096,632.2394,123.3096,614.2394,111.3096,614.2394,117.3096,632.2394" style="stroke:#181818;stroke-width:1;"/></g><!--link personnel to UC_LOGIN--><g id="link_personnel_UC_LOGIN"><path d="M127.3096,632.3794 C127.3096,553.8794 127.3096,406.1094 127.3096,406.1094 C127.3096,406.1094 171.4596,406.1094 216.1296,406.1094 " fill="none" id="personnel-to-UC_LOGIN" style="stroke:#181818;stroke-width:1;"/><polygon fill="#181818" points="222.1296,406.1094,213.1296,402.1094,217.1296,406.1094,213.1296,410.1094,222.1296,406.1094" style="stroke:#181818;stroke-width:1;"/></g><!--link personnel to UC_LOGOUT--><g id="link_personnel_UC_LOGOUT"><path d="M137.3096,632.4894 C137.3096,570.2594 137.3096,469.1094 137.3096,469.1094 C137.3096,469.1094 171.0696,469.1094 210.0496,469.1094 " fill="none" id="personnel-to-UC_LOGOUT" style="stroke:#181818;stroke-width:1;"/><polygon fill="#181818" points="216.0496,469.1094,207.0496,465.1094,211.0496,469.1094,207.0496,473.1094,216.0496,469.1094" style="stroke:#181818;stroke-width:1;"/></g><!--link personnel to UC_C_ADD--><g id="link_personnel_UC_C_ADD"><path d="M147.3096,632.4494 C147.3096,606.6994 147.3096,580.1094 147.3096,580.1094 C147.3096,580.1094 174.8596,580.1094 209.4596,580.1094 " fill="none" id="personnel-to-UC_C_ADD" style="stroke:#181818;stroke-width:1;"/><polygon fill="#181818" points="215.4596,580.1094,206.4596,576.1094,210.4596,580.1094,206.4596,584.1094,215.4596,580.1094" style="stroke:#181818;stroke-width:1;"/></g><!--link personnel to UC_C_EDIT--><g id="link_personnel_UC_C_EDIT"><path d="M157.5396,647.6094 C174.1596,647.6094 188.5996,647.6094 208.4096,647.6094 " fill="none" id="personnel-to-UC_C_EDIT" style="stroke:#181818;stroke-width:1;"/><polygon fill="#181818" points="214.4096,647.6094,205.4096,643.6094,209.4096,647.6094,205.4096,651.6094,214.4096,647.6094" style="stroke:#181818;stroke-width:1;"/></g><!--link personnel to UC_C_VIEW--><g id="link_personnel_UC_C_VIEW"><path d="M157.5396,710.3594 C169.7196,710.3594 177.9396,710.3594 192.4596,710.3594 " fill="none" id="personnel-to-UC_C_VIEW" style="stroke:#181818;stroke-width:1;"/><polygon fill="#181818" points="198.4596,710.3594,189.4596,706.3594,193.4596,710.3594,189.4596,714.3594,198.4596,710.3594" style="stroke:#181818;stroke-width:1;"/></g><!--link personnel to UC_C_SEARCH--><g id="link_personnel_UC_C_SEARCH"><path d="M147.3096,727.6894 C147.3096,755.4794 147.3096,785.1094 147.3096,785.1094 C147.3096,785.1094 167.9496,785.1094 198.2396,785.1094 " fill="none" id="personnel-to-UC_C_SEARCH" style="stroke:#181818;stroke-width:1;"/><polygon fill="#181818" points="204.2396,785.1094,195.2396,781.1094,199.2396,785.1094,195.2396,789.1094,204.2396,785.1094" style="stroke:#181818;stroke-width:1;"/></g><!--link personnel to UC_C_STATUS--><g id="link_personnel_UC_C_STATUS"><path d="M137.3096,727.6594 C137.3096,779.1694 137.3096,854.1094 137.3096,854.1094 C137.3096,854.1094 164.3696,854.1094 199.7496,854.1094 " fill="none" id="personnel-to-UC_C_STATUS" style="stroke:#181818;stroke-width:1;"/><polygon fill="#181818" points="205.7496,854.1094,196.7496,850.1094,200.7496,854.1094,196.7496,858.1094,205.7496,854.1094" style="stroke:#181818;stroke-width:1;"/></g><!--link personnel to UC_A_OPEN--><g id="link_personnel_UC_A_OPEN"><path d="M127.3096,727.6694 C127.3096,809.4694 127.3096,968.1094 127.3096,968.1094 C127.3096,968.1094 164.6496,968.1094 206.6296,968.1094 " fill="none" id="personnel-to-UC_A_OPEN" style="stroke:#181818;stroke-width:1;"/><polygon fill="#181818" points="212.6296,968.1094,203.6296,964.1094,207.6296,968.1094,203.6296,972.1094,212.6296,968.1094" style="stroke:#181818;stroke-width:1;"/></g><!--link personnel to UC_A_VIEW--><g id="link_personnel_UC_A_VIEW"><path d="M117.3096,727.7494 C117.3096,824.7594 117.3096,1036.1094 117.3096,1036.1094 C117.3096,1036.1094 154.7296,1036.1094 198.0596,1036.1094 " fill="none" id="personnel-to-UC_A_VIEW" style="stroke:#181818;stroke-width:1;"/><polygon fill="#181818" points="204.0596,1036.1094,195.0596,1032.1094,199.0596,1036.1094,195.0596,1040.1094,204.0596,1036.1094" style="stroke:#181818;stroke-width:1;"/></g><!--link personnel to UC_A_LIST--><g id="link_personnel_UC_A_LIST"><path d="M107.3096,727.7994 C107.3096,840.5394 107.3096,1114.1094 107.3096,1114.1094 C107.3096,1114.1094 147.0596,1114.1094 192.8096,1114.1094 " fill="none" id="personnel-to-UC_A_LIST" style="stroke:#181818;stroke-width:1;"/><polygon fill="#181818" points="198.8096,1114.1094,189.8096,1110.1094,193.8096,1114.1094,189.8096,1118.1094,198.8096,1114.1094" style="stroke:#181818;stroke-width:1;"/></g><!--link personnel to UC_A_STATUS--><g id="link_personnel_UC_A_STATUS"><path d="M97.3096,727.9094 C97.3096,855.2594 97.3096,1193.1094 97.3096,1193.1094 C97.3096,1193.1094 143.9896,1193.1094 194.3096,1193.1094 " fill="none" id="personnel-to-UC_A_STATUS" style="stroke:#181818;stroke-width:1;"/><polygon fill="#181818" points="200.3096,1193.1094,191.3096,1189.1094,195.3096,1193.1094,191.3096,1197.1094,200.3096,1193.1094" style="stroke:#181818;stroke-width:1;"/></g><rect fill="#DDDDDD" height="172.4844" id="_legend" rx="7.5" ry="7.5" style="stroke:#000000;stroke-width:1;" width="442.6191" x="12" y="1247.1094"/><text fill="#000000" font-family="sans-serif" font-size="14" font-weight="bold" lengthAdjust="spacing" textLength="45.9102" x="20.8896" y="1268.6426">D&#233;tails</text><text fill="#000000" font-family="sans-serif" font-size="14" font-weight="bold" lengthAdjust="spacing" textLength="3.8896" x="134.4961" y="1268.6426">&#160;</text><text fill="#000000" font-family="sans-serif" font-size="14" lengthAdjust="spacing" textLength="28.7998" x="20.8896" y="1286.252">Auth</text><text fill="#000000" font-family="sans-serif" font-size="14" lengthAdjust="spacing" textLength="307.3438" x="138.3857" y="1286.252">Acc&#232;s selon le r&#244;le, mot de passe chiffr&#233; (BCrypt)</text><text fill="#000000" font-family="sans-serif" font-size="14" lengthAdjust="spacing" textLength="86.3652" x="20.8896" y="1303.8613">Modifier client</text><text fill="#000000" font-family="sans-serif" font-size="14" lengthAdjust="spacing" textLength="280.9365" x="138.3857" y="1303.8613">Informations personnelles et professionnelles</text><text fill="#000000" font-family="sans-serif" font-size="14" lengthAdjust="spacing" textLength="67.7031" x="20.8896" y="1321.4707">Recherche</text><text fill="#000000" font-family="sans-serif" font-size="14" lengthAdjust="spacing" textLength="222.5508" x="138.3857" y="1321.4707">Nom, CIN, num&#233;ro client, t&#233;l&#233;phone</text><text fill="#000000" font-family="sans-serif" font-size="14" lengthAdjust="spacing" textLength="73.1514" x="20.8896" y="1339.0801">Statut client</text><text fill="#000000" font-family="sans-serif" font-size="14" lengthAdjust="spacing" textLength="187.5303" x="138.3857" y="1339.0801">Activer, suspendre, d&#233;sactiver</text><text fill="#000000" font-family="sans-serif" font-size="14" lengthAdjust="spacing" textLength="87.9238" x="20.8896" y="1356.6895">Types compte</text><text fill="#000000" font-family="sans-serif" font-size="14" lengthAdjust="spacing" textLength="200.0195" x="138.3857" y="1356.6895">Courant, &#233;pargne, professionnel</text><text fill="#000000" font-family="sans-serif" font-size="14" lengthAdjust="spacing" textLength="109.7168" x="20.8896" y="1374.2988">Consulter compte</text><text fill="#000000" font-family="sans-serif" font-size="14" lengthAdjust="spacing" textLength="89.5029" x="138.3857" y="1374.2988">Solde et statut</text><text fill="#000000" font-family="sans-serif" font-size="14" lengthAdjust="spacing" textLength="86.3789" x="20.8896" y="1391.9082">Statut compte</text><text fill="#000000" font-family="sans-serif" font-size="14" lengthAdjust="spacing" textLength="172.7715" x="138.3857" y="1391.9082">Bloquer, d&#233;bloquer, cl&#244;turer</text><text fill="#000000" font-family="sans-serif" font-size="14" lengthAdjust="spacing" textLength="31.9102" x="20.8896" y="1409.5176">Audit</text><text fill="#000000" font-family="sans-serif" font-size="14" lengthAdjust="spacing" textLength="208.5576" x="138.3857" y="1409.5176">Toute modification est journalis&#233;e</text><line style="stroke:#000000;stroke-width:1;" x1="17" x2="449.6191" y1="1254.1094" y2="1254.1094"/><line style="stroke:#000000;stroke-width:1;" x1="17" x2="449.6191" y1="1271.7188" y2="1271.7188"/><line style="stroke:#000000;stroke-width:1;" x1="17" x2="449.6191" y1="1289.3281" y2="1289.3281"/><line style="stroke:#000000;stroke-width:1;" x1="17" x2="449.6191" y1="1306.9375" y2="1306.9375"/><line style="stroke:#000000;stroke-width:1;" x1="17" x2="449.6191" y1="1324.5469" y2="1324.5469"/><line style="stroke:#000000;stroke-width:1;" x1="17" x2="449.6191" y1="1342.1563" y2="1342.1563"/><line style="stroke:#000000;stroke-width:1;" x1="17" x2="449.6191" y1="1359.7656" y2="1359.7656"/><line style="stroke:#000000;stroke-width:1;" x1="17" x2="449.6191" y1="1377.375" y2="1377.375"/><line style="stroke:#000000;stroke-width:1;" x1="17" x2="449.6191" y1="1394.9844" y2="1394.9844"/><line style="stroke:#000000;stroke-width:1;" x1="17" x2="449.6191" y1="1412.5938" y2="1412.5938"/><line style="stroke:#000000;stroke-width:1;" x1="17" x2="17" y1="1254.1094" y2="1412.5938"/><line style="stroke:#000000;stroke-width:1;" x1="134.4961" x2="134.4961" y1="1254.1094" y2="1412.5938"/><line style="stroke:#000000;stroke-width:1;" x1="449.6191" x2="449.6191" y1="1254.1094" y2="1412.5938"/><!--SRC=[VLNDRjim3BxxAOXUkW49C62xhe3h15s0BYcQTBiC21IPJhJAagUV3i6wzsdkVGE_s2Z_rKcC7O8edyYF_4YAaPWvS1gCsEuSfC8WTqAho3uALJ33Sh0xbkhVGcqXOz9YxwPW_95jSUds4Y4uChMLVGEbKxHOmCSFFT0mzHZ0JtrG2eLkNo1eutOwYfnmn7c3DYG3n09S2bJE0ZhWEYySsYXYt6a35tTeh5OAvG-L8iXBoabnl01ceMYlEkCupOKIrXdcq9lAY0MekoTd1nkcEADYrFS1Qk-J7MQGzcDmGeW-aC3O5-FdgrxOolSS3ZxdQDGLaVBWl7oXs1xithho9QTWVo80Rv4pImRBI-RTZjX59h0Myf2iRnSti_cH6K9Q7dW8mDsHtU9X5VqzYfdKDJu95F_KdZp1gwO9BKUoZYUJlkLNdLR939bE9xDLtpRHodePU2M3J511pbo-pQRV-oxtI5OcV8O2BAVnVVAbRtzJ7apWHx2EEU_ENLRnwc5vMeHwkheHE2t7mZyPKMTGMRPqyNfnDvqFInmmFXLtIpDP9MlR-QPflZpJ6QzlPylL_rMUH7fJsKqQZCTNRzCo18VXECFhXW_0LNC7y4ha0DxqQkYcJlRifgdk03uSewdJ0Dv4Y2JIqqnXevtJEHNq-JDCoeDZGjfmVWuGnFJ4mbVz62rAsaPXsPMl4aUGQrgPI7lGKYFuJcIPAG_mxZen-yAzRoYwHr4taf2PohJ9MLXjlGqLEa_BhJ0wGsj5XzKitUpJUQxp4IIp-GYKpwdxkg4UWIiFiZmKEwsmyLls9xzIuiGJcX5ORmlIRqW6xGVBQhpnMj4gRkUGVYRQqzOcVk9cPgl8voZDnkjjtZlFfPPK89BLpEPnKgtLjTI_V4YACjcqPoxBL-TDbrFiKn4KhC8sejA7glAgY41_4q1BoYWcXIqFGJj9gniS_GC0]--></g></svg>