<svg xmlns="http://www.w3.org/2000/svg" xmlns:xlink="http://www.w3.org/1999/xlink" version="1.1" data-diagram-type="DESCRIPTION" style="width:573px;height:1576px;background:#FFFFFF;" width="573px" height="1576px" viewBox="0 0 573 1576" zoomAndPan="magnify" preserveAspectRatio="none" contentStyleType="text/css"><?plantuml 1.2026.7beta3?><defs/><g><g class="title" data-source-line="8"><text x="161.7236" y="22.9951" fill="#000000" font-size="14" lengthAdjust="spacing" textLength="243.3594" font-weight="700" font-family="sans-serif">Gestion des clients et comptes</text></g><!--cluster Accès au système--><g class="cluster" data-qualified-name="Acc.s au syst.me" id="ent0011" data-source-line="20"><rect x="250.9433" y="346.9469" width="174.6" height="145" fill="none" style="stroke:#181818;stroke-width:1;" rx="2.5" ry="2.5"/><text x="268.0006" y="361.942" fill="#000000" font-size="14" lengthAdjust="spacing" textLength="140.4854" font-weight="700" font-family="sans-serif">Accès au système</text></g><!--cluster Clients--><g class="cluster" data-qualified-name="Clients" id="ent0014" data-source-line="25"><rect x="227.0533" y="515.9469" width="222.38" height="362" fill="none" style="stroke:#181818;stroke-width:1;" rx="2.5" ry="2.5"/><text x="311.0636" y="530.942" fill="#000000" font-size="14" lengthAdjust="spacing" textLength="54.3594" font-weight="700" font-family="sans-serif">Clients</text></g><!--cluster Comptes bancaires--><g class="cluster" data-qualified-name="Comptes bancaires" id="ent0020" data-source-line="33"><rect x="217.0833" y="901.9469" width="242.32" height="459" fill="none" style="stroke:#181818;stroke-width:1;" rx="2.5" ry="2.5"/><text x="262.9386" y="916.942" fill="#000000" font-size="14" lengthAdjust="spacing" textLength="150.6094" font-weight="700" font-family="sans-serif">Comptes bancaires</text></g><!--entity UC_LOGIN--><g class="entity" data-qualified-name="Acc.s au syst.me.UC_LOGIN" id="ent0012" data-source-line="21"><ellipse cx="338.242" cy="460.9426" rx="65.4286" ry="15.4857" fill="#F1F1F1" style="stroke:#181818;stroke-width:0.5;"/><text x="290.9407" y="465.591" fill="#000000" font-size="14" lengthAdjust="spacing" textLength="94.6025" font-family="sans-serif">S'authentifier</text></g><!--entity UC_LOGOUT--><g class="entity" data-qualified-name="Acc.s au syst.me.UC_LOGOUT" id="ent0013" data-source-line="22"><ellipse cx="338.2404" cy="398.9463" rx="71.2971" ry="16.6594" fill="#F1F1F1" style="stroke:#181818;stroke-width:0.5;"/><text x="283.4265" y="403.5947" fill="#000000" font-size="14" lengthAdjust="spacing" textLength="109.6279" font-family="sans-serif">Se déconnecter</text></g><!--entity UC_C_ADD--><g class="entity" data-qualified-name="Clients.UC_C_ADD" id="ent0015" data-source-line="26"><ellipse cx="338.2467" cy="844.9515" rx="73.8233" ry="17.1647" fill="#F1F1F1" style="stroke:#181818;stroke-width:0.5;"/><text x="280.3155" y="849.6" fill="#000000" font-size="14" lengthAdjust="spacing" textLength="115.8623" font-family="sans-serif">Ajouter un client</text></g><!--entity UC_C_EDIT--><g class="entity" data-qualified-name="Clients.UC_C_EDIT" id="ent0016" data-source-line="27"><ellipse cx="338.2463" cy="779.9435" rx="76.233" ry="17.6466" fill="#F1F1F1" style="stroke:#181818;stroke-width:0.5;"/><text x="277.3928" y="784.5919" fill="#000000" font-size="14" lengthAdjust="spacing" textLength="121.707" font-family="sans-serif">Modifier un client</text></g><!--entity UC_C_VIEW--><g class="entity" data-qualified-name="Clients.UC_C_VIEW" id="ent0017" data-source-line="28"><ellipse cx="338.2456" cy="710.9453" rx="95.1922" ry="21.4384" fill="#F1F1F1" style="stroke:#181818;stroke-width:0.5;"/><text x="255.5444" y="715.5938" fill="#000000" font-size="14" lengthAdjust="spacing" textLength="165.4023" font-family="sans-serif">Consulter la fiche client</text></g><!--entity UC_C_SEARCH--><g class="entity" data-qualified-name="Clients.UC_C_SEARCH" id="ent0018" data-source-line="29"><ellipse cx="338.2457" cy="639.9473" rx="86.3024" ry="19.6605" fill="#F1F1F1" style="stroke:#181818;stroke-width:0.5;"/><text x="265.5865" y="644.5958" fill="#000000" font-size="14" lengthAdjust="spacing" textLength="145.3184" font-family="sans-serif">Rechercher un client</text></g><!--entity UC_C_STATUS--><g class="entity" data-qualified-name="Clients.UC_C_STATUS" id="ent0019" data-source-line="30"><ellipse cx="338.2433" cy="570.9489" rx="86.21" ry="19.642" fill="#F1F1F1" style="stroke:#181818;stroke-width:0.5;"/><text x="265.69" y="575.5973" fill="#000000" font-size="14" lengthAdjust="spacing" textLength="145.1064" font-family="sans-serif">Gérer le statut client</text></g><!--entity UC_A_OPEN--><g class="entity" data-qualified-name="Comptes bancaires.UC_A_OPEN" id="ent0021" data-source-line="34"><ellipse cx="338.2425" cy="1326.9507" rx="76.8191" ry="17.7638" fill="#F1F1F1" style="stroke:#181818;stroke-width:0.5;"/><text x="276.6848" y="1331.5991" fill="#000000" font-size="14" lengthAdjust="spacing" textLength="123.1152" font-family="sans-serif">Ouvrir un compte</text></g><!--entity UC_A_VIEW--><g class="entity" data-qualified-name="Comptes bancaires.UC_A_VIEW" id="ent0022" data-source-line="35"><ellipse cx="338.2436" cy="1258.9449" rx="86.8903" ry="19.7781" fill="#F1F1F1" style="stroke:#181818;stroke-width:0.5;"/><text x="264.9111" y="1263.5934" fill="#000000" font-size="14" lengthAdjust="spacing" textLength="146.665" font-family="sans-serif">Consulter un compte</text></g><!--entity UC_A_LIST--><g class="entity" data-qualified-name="Comptes bancaires.UC_A_LIST" id="ent0023" data-source-line="36"><ellipse cx="338.2392" cy="1184.9423" rx="86.0959" ry="24.2054" fill="#F1F1F1" style="stroke:#181818;stroke-width:0.5;"/><text x="274.3779" y="1184.1715" fill="#000000" font-size="14" lengthAdjust="spacing" textLength="127.7227" font-family="sans-serif">Lister les comptes</text><text x="301.5474" y="1200.4684" fill="#000000" font-size="14" lengthAdjust="spacing" textLength="73.3838" font-family="sans-serif">d'un client</text></g><!--entity UC_A_STATUS--><g class="entity" data-qualified-name="Comptes bancaires.UC_A_STATUS" id="ent0024" data-source-line="37"><ellipse cx="338.2473" cy="1109.9517" rx="92.574" ry="20.9148" fill="#F1F1F1" style="stroke:#181818;stroke-width:0.5;"/><text x="258.4753" y="1114.6001" fill="#000000" font-size="14" lengthAdjust="spacing" textLength="159.5439" font-family="sans-serif">Gérer le statut compte</text></g><!--entity UC_CHQ_ORDER--><g class="entity" data-qualified-name="Comptes bancaires.UC_CHQ_ORDER" id="ent0025" data-source-line="38"><ellipse cx="338.2389" cy="1036.946" rx="99.1456" ry="22.2291" fill="#F1F1F1" style="stroke:#181818;stroke-width:0.5;"/><text x="251.1525" y="1041.5944" fill="#000000" font-size="14" lengthAdjust="spacing" textLength="174.1729" font-family="sans-serif">Commander un chéquier</text></g><!--entity UC_CHQ_TRACK--><g class="entity" data-qualified-name="Comptes bancaires.UC_CHQ_TRACK" id="ent0026" data-source-line="39"><ellipse cx="338.2416" cy="960.9439" rx="105.1583" ry="24.067" fill="#F1F1F1" style="stroke:#181818;stroke-width:0.5;"/><text x="259.2147" y="960.3904" fill="#000000" font-size="14" lengthAdjust="spacing" textLength="158.0537" font-family="sans-serif">Suivre une commande</text><text x="296.6654" y="976.6873" fill="#000000" font-size="14" lengthAdjust="spacing" textLength="83.1523" font-family="sans-serif">de chéquier</text></g><!--entity personnel--><g class="entity" data-qualified-name="personnel" id="ent0001" data-source-line="10"><ellipse cx="152.6089" cy="708.1469" rx="8" ry="8" fill="#F1F1F1" style="stroke:#181818;stroke-width:0.5;"/><path d="M152.6089,716.1469 L152.6089,743.1469 M139.6089,724.1469 L165.6089,724.1469 M152.6089,743.1469 L139.6089,758.1469 M152.6089,743.1469 L165.6089,758.1469" style="stroke:#181818;stroke-width:0.5;" fill="none"/><text x="112.1333" y="772.642" fill="#000000" font-size="14" lengthAdjust="spacing" textLength="68.9199" font-family="sans-serif">Personnel</text><text x="112.1333" y="788.9389" fill="#000000" font-size="14" lengthAdjust="spacing" textLength="80.9512" font-family="sans-serif">de l'agence</text></g><!--entity admin--><g class="entity" data-qualified-name="admin" id="ent0002" data-source-line="12"><ellipse cx="338.2451" cy="51.2969" rx="8" ry="8" fill="#F1F1F1" style="stroke:#181818;stroke-width:0.5;"/><path d="M338.2451,59.2969 L338.2451,86.2969 M325.2451,67.2969 L351.2451,67.2969 M338.2451,86.2969 L325.2451,101.2969 M338.2451,86.2969 L351.2451,101.2969" style="stroke:#181818;stroke-width:0.5;" fill="none"/><text x="285.9433" y="115.792" fill="#000000" font-size="14" lengthAdjust="spacing" textLength="104.6035" font-family="sans-serif">Administrateur</text></g><!--entity agent--><g class="entity" data-qualified-name="agent" id="ent0003" data-source-line="13"><ellipse cx="338.2452" cy="157.2969" rx="8" ry="8" fill="#F1F1F1" style="stroke:#181818;stroke-width:0.5;"/><path d="M338.2452,165.2969 L338.2452,192.2969 M325.2452,173.2969 L351.2452,173.2969 M338.2452,192.2969 L325.2452,207.2969 M338.2452,192.2969 L351.2452,207.2969" style="stroke:#181818;stroke-width:0.5;" fill="none"/><text x="284.8633" y="221.792" fill="#000000" font-size="14" lengthAdjust="spacing" textLength="106.7637" font-family="sans-serif">Agent bancaire</text></g><!--entity chef--><g class="entity" data-qualified-name="chef" id="ent0004" data-source-line="14"><ellipse cx="338.2427" cy="263.2969" rx="8" ry="8" fill="#F1F1F1" style="stroke:#181818;stroke-width:0.5;"/><path d="M338.2427,271.2969 L338.2427,298.2969 M325.2427,279.2969 L351.2427,279.2969 M338.2427,298.2969 L325.2427,313.2969 M338.2427,298.2969 L351.2427,313.2969" style="stroke:#181818;stroke-width:0.5;" fill="none"/><text x="287.9233" y="327.792" fill="#000000" font-size="14" lengthAdjust="spacing" textLength="100.6387" font-family="sans-serif">Chef d'agence</text></g><!--reverse link personnel to admin--><g class="link" data-entity-1="ent0001" data-entity-2="ent0002" id="lnk6" data-source-line="16" data-link-type="extension"><path d="M122.4033,681.1869 C122.4033,529.8169 122.4033,80.9469 122.4033,80.9469 C122.4033,80.9469 221.5433,80.9469 285.4433,80.9469" style="stroke:#181818;stroke-width:1;" fill="none" id="personnel-backto-admin"/><polygon points="122.4033,699.1869,128.4033,681.1869,116.4033,681.1869,122.4033,699.1869" fill="none" style="stroke:#181818;stroke-width:1;stroke-linejoin:miter;stroke-miterlimit:10;"/></g><!--reverse link personnel to agent--><g class="link" data-entity-1="ent0001" data-entity-2="ent0003" id="lnk8" data-source-line="17" data-link-type="extension"><path d="M132.4033,681.2469 C132.4033,546.8969 132.4033,186.9469 132.4033,186.9469 C132.4033,186.9469 223.4433,186.9469 284.4333,186.9469" style="stroke:#181818;stroke-width:1;" fill="none" id="personnel-backto-agent"/><polygon points="132.4033,699.2469,138.4033,681.2469,126.4033,681.2469,132.4033,699.2469" fill="none" style="stroke:#181818;stroke-width:1;stroke-linejoin:miter;stroke-miterlimit:10;"/></g><!--reverse link personnel to chef--><g class="link" data-entity-1="ent0001" data-entity-2="ent0004" id="lnk10" data-source-line="18" data-link-type="extension"><path d="M143.4033,681.1769 C143.4033,565.4369 143.4033,292.9469 143.4033,292.9469 C143.4033,292.9469 229.8233,292.9469 287.5633,292.9469" style="stroke:#181818;stroke-width:1;" fill="none" id="personnel-backto-chef"/><polygon points="143.4033,699.1769,149.4033,681.1769,137.4033,681.1769,143.4033,699.1769" fill="none" style="stroke:#181818;stroke-width:1;stroke-linejoin:miter;stroke-miterlimit:10;"/></g><!--link personnel to UC_LOGIN--><g class="link" data-entity-1="ent0001" data-entity-2="ent0012" id="lnk27" data-source-line="42" data-link-type="dependency"><path d="M163.4033,699.2069 C163.4033,618.3469 163.4033,460.9469 163.4033,460.9469 C163.4033,460.9469 218.0333,460.9469 267.6433,460.9469" style="stroke:#181818;stroke-width:1;" fill="none" id="personnel-to-UC_LOGIN"/><polygon points="272.6433,460.9469,263.6433,456.9469,267.6433,460.9469,263.6433,464.9469,272.6433,460.9469" fill="#181818" style="stroke:#181818;stroke-width:1;stroke-linejoin:miter;stroke-miterlimit:10;"/></g><!--link personnel to UC_LOGOUT--><g class="link" data-entity-1="ent0001" data-entity-2="ent0013" id="lnk28" data-source-line="43" data-link-type="dependency"><path d="M153.4033,699.5069 C153.4033,604.9569 153.4033,398.9469 153.4033,398.9469 C153.4033,398.9469 209.5533,398.9469 261.5133,398.9469" style="stroke:#181818;stroke-width:1;" fill="none" id="personnel-to-UC_LOGOUT"/><polygon points="266.5133,398.9469,257.5133,394.9469,261.5133,398.9469,257.5133,402.9469,266.5133,398.9469" fill="#181818" style="stroke:#181818;stroke-width:1;stroke-linejoin:miter;stroke-miterlimit:10;"/></g><!--link personnel to UC_C_ADD--><g class="link" data-entity-1="ent0001" data-entity-2="ent0015" id="lnk29" data-source-line="44" data-link-type="dependency"><path d="M182.4033,792.5469 C182.4033,818.2269 182.4033,844.9469 182.4033,844.9469 C182.4033,844.9469 218.8333,844.9469 258.9733,844.9469" style="stroke:#181818;stroke-width:1;" fill="none" id="personnel-to-UC_C_ADD"/><polygon points="263.9733,844.9469,254.9733,840.9469,258.9733,844.9469,254.9733,848.9469,263.9733,844.9469" fill="#181818" style="stroke:#181818;stroke-width:1;stroke-linejoin:miter;stroke-miterlimit:10;"/></g><!--link personnel to UC_C_EDIT--><g class="link" data-entity-1="ent0001" data-entity-2="ent0016" id="lnk30" data-source-line="45" data-link-type="dependency"><path d="M193.3433,772.2769 C215.4433,772.2769 238.3533,772.2769 263.7633,772.2769" style="stroke:#181818;stroke-width:1;" fill="none" id="personnel-to-UC_C_EDIT"/><polygon points="268.7633,772.2769,259.7633,768.2769,263.7633,772.2769,259.7633,776.2769,268.7633,772.2769" fill="#181818" style="stroke:#181818;stroke-width:1;stroke-linejoin:miter;stroke-miterlimit:10;"/></g><!--link personnel to UC_C_VIEW--><g class="link" data-entity-1="ent0001" data-entity-2="ent0017" id="lnk31" data-source-line="46" data-link-type="dependency"><path d="M193.3433,716.0169 C208.8233,716.0169 222.1533,716.0169 240.4833,716.0169" style="stroke:#181818;stroke-width:1;" fill="none" id="personnel-to-UC_C_VIEW"/><polygon points="245.4833,716.0169,236.4833,712.0169,240.4833,716.0169,236.4833,720.0169,245.4833,716.0169" fill="#181818" style="stroke:#181818;stroke-width:1;stroke-linejoin:miter;stroke-miterlimit:10;"/></g><!--link personnel to UC_C_SEARCH--><g class="link" data-entity-1="ent0001" data-entity-2="ent0018" id="lnk32" data-source-line="47" data-link-type="dependency"><path d="M183.4033,699.4569 C183.4033,670.9769 183.4033,639.9469 183.4033,639.9469 C183.4033,639.9469 211.3033,639.9469 246.7633,639.9469" style="stroke:#181818;stroke-width:1;" fill="none" id="personnel-to-UC_C_SEARCH"/><polygon points="251.7633,639.9469,242.7633,635.9469,246.7633,639.9469,242.7633,643.9469,251.7633,639.9469" fill="#181818" style="stroke:#181818;stroke-width:1;stroke-linejoin:miter;stroke-miterlimit:10;"/></g><!--link personnel to UC_C_STATUS--><g class="link" data-entity-1="ent0001" data-entity-2="ent0019" id="lnk33" data-source-line="48" data-link-type="dependency"><path d="M173.4033,699.5069 C173.4033,647.6669 173.4033,570.9469 173.4033,570.9469 C173.4033,570.9469 207.0733,570.9469 246.9633,570.9469" style="stroke:#181818;stroke-width:1;" fill="none" id="personnel-to-UC_C_STATUS"/><polygon points="251.9633,570.9469,242.9633,566.9469,246.9633,570.9469,242.9633,574.9469,251.9633,570.9469" fill="#181818" style="stroke:#181818;stroke-width:1;stroke-linejoin:miter;stroke-miterlimit:10;"/></g><!--link personnel to UC_A_OPEN--><g class="link" data-entity-1="ent0001" data-entity-2="ent0021" id="lnk34" data-source-line="49" data-link-type="dependency"><path d="M124.4033,792.5069 C124.4033,930.3769 124.4033,1326.9469 124.4033,1326.9469 C124.4033,1326.9469 194.7933,1326.9469 256.0433,1326.9469" style="stroke:#181818;stroke-width:1;" fill="none" id="personnel-to-UC_A_OPEN"/><polygon points="261.0433,1326.9469,252.0433,1322.9469,256.0433,1326.9469,252.0433,1330.9469,261.0433,1326.9469" fill="#181818" style="stroke:#181818;stroke-width:1;stroke-linejoin:miter;stroke-miterlimit:10;"/></g><!--link personnel to UC_A_VIEW--><g class="link" data-entity-1="ent0001" data-entity-2="ent0022" id="lnk35" data-source-line="50" data-link-type="dependency"><path d="M135.4033,792.3769 C135.4033,918.6569 135.4033,1258.9469 135.4033,1258.9469 C135.4033,1258.9469 191.0633,1258.9469 246.0433,1258.9469" style="stroke:#181818;stroke-width:1;" fill="none" id="personnel-to-UC_A_VIEW"/><polygon points="251.0433,1258.9469,242.0433,1254.9469,246.0433,1258.9469,242.0433,1262.9469,251.0433,1258.9469" fill="#181818" style="stroke:#181818;stroke-width:1;stroke-linejoin:miter;stroke-miterlimit:10;"/></g><!--link personnel to UC_A_LIST--><g class="link" data-entity-1="ent0001" data-entity-2="ent0023" id="lnk36" data-source-line="51" data-link-type="dependency"><path d="M147.4033,792.5169 C147.4033,905.4969 147.4033,1184.9469 147.4033,1184.9469 C147.4033,1184.9469 196.2633,1184.9469 246.7533,1184.9469" style="stroke:#181818;stroke-width:1;" fill="none" id="personnel-to-UC_A_LIST"/><polygon points="251.7533,1184.9469,242.7533,1180.9469,246.7533,1184.9469,242.7533,1188.9469,251.7533,1184.9469" fill="#181818" style="stroke:#181818;stroke-width:1;stroke-linejoin:miter;stroke-miterlimit:10;"/></g><!--link personnel to UC_A_STATUS--><g class="link" data-entity-1="ent0001" data-entity-2="ent0024" id="lnk37" data-source-line="52" data-link-type="dependency"><path d="M158.4033,792.4169 C158.4033,890.5469 158.4033,1109.9469 158.4033,1109.9469 C158.4033,1109.9469 196.4533,1109.9469 240.4233,1109.9469" style="stroke:#181818;stroke-width:1;" fill="none" id="personnel-to-UC_A_STATUS"/><polygon points="245.4233,1109.9469,236.4233,1105.9469,240.4233,1109.9469,236.4233,1113.9469,245.4233,1109.9469" fill="#181818" style="stroke:#181818;stroke-width:1;stroke-linejoin:miter;stroke-miterlimit:10;"/></g><!--link personnel to UC_CHQ_ORDER--><g class="link" data-entity-1="ent0001" data-entity-2="ent0025" id="lnk38" data-source-line="53" data-link-type="dependency"><path d="M170.4033,792.6969 C170.4033,874.9569 170.4033,1036.9469 170.4033,1036.9469 C170.4033,1036.9469 197.5233,1036.9469 233.6733,1036.9469" style="stroke:#181818;stroke-width:1;" fill="none" id="personnel-to-UC_CHQ_ORDER"/><polygon points="238.6733,1036.9469,229.6733,1032.9469,233.6733,1036.9469,229.6733,1040.9469,238.6733,1036.9469" fill="#181818" style="stroke:#181818;stroke-width:1;stroke-linejoin:miter;stroke-miterlimit:10;"/></g><!--link personnel to UC_CHQ_TRACK--><g class="link" data-entity-1="ent0001" data-entity-2="ent0026" id="lnk39" data-source-line="54" data-link-type="dependency"><path d="M193.4933,782.2669 C215.5933,782.2669 238.4033,782.2669 238.4033,782.2669 C238.4033,782.2669 238.4033,914.0669 238.4033,948.2669" style="stroke:#181818;stroke-width:1;" fill="none" id="personnel-to-UC_CHQ_TRACK"/><polygon points="238.4033,953.2669,242.4033,944.2669,238.4033,948.2669,234.4033,944.2669,238.4033,953.2669" fill="#181818" style="stroke:#181818;stroke-width:1;stroke-linejoin:miter;stroke-miterlimit:10;"/></g><g class="legend" data-source-line="56"><rect x="12" y="1380.9469" width="542.8066" height="176.9688" fill="#DDDDDD" style="stroke:#000000;stroke-width:1;" rx="7.5" ry="7.5"/><text x="21.874" y="1400.942" fill="#000000" font-size="14" lengthAdjust="spacing" textLength="55.1865" font-weight="700" font-family="sans-serif">Détails</text><text x="150.3691" y="1400.942" fill="#000000" font-size="14" lengthAdjust="spacing" textLength="4.874" font-weight="700" font-family="sans-serif"> </text><text x="21.4502" y="1417.2389" fill="#000000" font-size="14" lengthAdjust="spacing" textLength="32.8125" font-family="sans-serif">Auth</text><text x="154.8193" y="1417.2389" fill="#000000" font-size="14" lengthAdjust="spacing" textLength="346.7598" font-family="sans-serif">Accès selon le rôle, mot de passe chiffré (BCrypt)</text><text x="21.4502" y="1433.5357" fill="#000000" font-size="14" lengthAdjust="spacing" textLength="99.5107" font-family="sans-serif">Modifier client</text><text x="154.8193" y="1433.5357" fill="#000000" font-size="14" lengthAdjust="spacing" textLength="319.0332" font-family="sans-serif">Informations personnelles et professionnelles</text><text x="21.4502" y="1449.8326" fill="#000000" font-size="14" lengthAdjust="spacing" textLength="74.4639" font-family="sans-serif">Recherche</text><text x="154.8193" y="1449.8326" fill="#000000" font-size="14" lengthAdjust="spacing" textLength="251.3916" font-family="sans-serif">Nom, CIN, numéro client, téléphone</text><text x="21.4502" y="1466.1295" fill="#000000" font-size="14" lengthAdjust="spacing" textLength="85.709" font-family="sans-serif">Statut client</text><text x="154.8193" y="1466.1295" fill="#000000" font-size="14" lengthAdjust="spacing" textLength="213.3018" font-family="sans-serif">Activer, suspendre, désactiver</text><text x="21.4502" y="1482.4264" fill="#000000" font-size="14" lengthAdjust="spacing" textLength="98.9707" font-family="sans-serif">Types compte</text><text x="154.8193" y="1482.4264" fill="#000000" font-size="14" lengthAdjust="spacing" textLength="225.9619" font-family="sans-serif">Courant, épargne, professionnel</text><text x="21.4502" y="1498.7232" fill="#000000" font-size="14" lengthAdjust="spacing" textLength="124.4688" font-family="sans-serif">Consulter compte</text><text x="154.8193" y="1498.7232" fill="#000000" font-size="14" lengthAdjust="spacing" textLength="103.0586" font-family="sans-serif">Solde et statut</text><text x="21.4502" y="1515.0201" fill="#000000" font-size="14" lengthAdjust="spacing" textLength="100.1465" font-family="sans-serif">Statut compte</text><text x="154.8193" y="1515.0201" fill="#000000" font-size="14" lengthAdjust="spacing" textLength="197.5996" font-family="sans-serif">Bloquer, débloquer, clôturer</text><text x="21.4502" y="1531.317" fill="#000000" font-size="14" lengthAdjust="spacing" textLength="63.2803" font-family="sans-serif">Chéquier</text><text x="154.8193" y="1531.317" fill="#000000" font-size="14" lengthAdjust="spacing" textLength="390.5371" font-family="sans-serif">Compte courant/pro actif ; workflow PENDING → LIVRÉE</text><text x="21.4502" y="1547.6139" fill="#000000" font-size="14" lengthAdjust="spacing" textLength="36.7158" font-family="sans-serif">Audit</text><text x="154.8193" y="1547.6139" fill="#000000" font-size="14" lengthAdjust="spacing" textLength="238.5674" font-family="sans-serif">Toute modification est journalisée</text><line x1="17" y1="1387.9469" x2="549.8066" y2="1387.9469" style="stroke:#000000;stroke-width:1;"/><line x1="17" y1="1404.2438" x2="549.8066" y2="1404.2438" style="stroke:#000000;stroke-width:1;"/><line x1="17" y1="1420.5406" x2="549.8066" y2="1420.5406" style="stroke:#000000;stroke-width:1;"/><line x1="17" y1="1436.8375" x2="549.8066" y2="1436.8375" style="stroke:#000000;stroke-width:1;"/><line x1="17" y1="1453.1344" x2="549.8066" y2="1453.1344" style="stroke:#000000;stroke-width:1;"/><line x1="17" y1="1469.4313" x2="549.8066" y2="1469.4313" style="stroke:#000000;stroke-width:1;"/><line x1="17" y1="1485.7281" x2="549.8066" y2="1485.7281" style="stroke:#000000;stroke-width:1;"/><line x1="17" y1="1502.025" x2="549.8066" y2="1502.025" style="stroke:#000000;stroke-width:1;"/><line x1="17" y1="1518.3219" x2="549.8066" y2="1518.3219" style="stroke:#000000;stroke-width:1;"/><line x1="17" y1="1534.6188" x2="549.8066" y2="1534.6188" style="stroke:#000000;stroke-width:1;"/><line x1="17" y1="1550.9156" x2="549.8066" y2="1550.9156" style="stroke:#000000;stroke-width:1;"/><line x1="17" y1="1387.9469" x2="17" y2="1550.9156" style="stroke:#000000;stroke-width:1;"/><line x1="150.3691" y1="1387.9469" x2="150.3691" y2="1550.9156" style="stroke:#000000;stroke-width:1;"/><line x1="549.8066" y1="1387.9469" x2="549.8066" y2="1550.9156" style="stroke:#000000;stroke-width:1;"/></g><?plantuml-src VLNDRjD04BxxAKPS2b8YaE26gEGwKHeHafAuvO8KRUrricIzw-vFgufoHUBAKzJtle7VX2TXrdzr4iCXYltD_ymtOquJ0qQ2OfkjWPWf6XacXQTtJ6H4aHJqbiJoZeaD98Hhsf5a9DgH3LsPUqx16HAnuLq58MEgQGPlttH0HSJEWU-w86U2clkCWbHcAptFC8C-9rIxP02zGCGP5KO3DH39D3DKUnw9Z5Jmue8gBOMW_Ak8AV0Jp4b4z0KG3LaZQfNzE6M2QQE8eLQLIiH1hHoD3LmJ4H5iHYLtK2CFjZI1k1iZGWJTEoSmjDdmuRGJjhGzXftDCUgrJSGyegXunDWMzBqsnMEAmRvx05RJY6XKM9qGQxRedIMCLeLS1klPOZATxwbHY8iySW4YiwUtk0oz7tinWwh71u7yRzAY9LXH3w7n4QpzqQYh-Kd6PJ9zgkFHDEpg1b9eovrVJY1Xs90Zawlf-4lNP4bHIxbVNu3Ls5y6vrtzIP4hvv-2DiHOSsmI-k7bwh095RjQ2XosOs5l5QioA3KRT_vwSJ6UzvVOetnOt0mvMIQh6tuZcq-EwlJNi-ag_7-L1v7gAlSIIrE2kr8bjYto6zkXK73-URrOZiRBFHfPTgiewbFdlxGkjwtNEbpwmKVNrfRQC1oUFjEp3tPiFC8hXlN09PjwyBAhFNXDZZv9rPqZIJtE7hm_HZsO7lnV4Pxxt2kgckXnYXSaXcjfZ4nn8WyVO5JaXZ2ktVE3Wy37I-3-gfkXASUZwMvoySJf05A9bvtYkTRQ3OmbYIfoU7aMgFlClAfTjBjRyGsHgKYaIecxm9r3wWYADpXJCg5QinQhlBGhYizpcGuWcCu786oA99Mrwm6O8kT5dcqbigcoMtKNjAp4i5kg1g2jph1-XMNW6TEamckh4ByOpRhWQo0jVbpGF_ecQYFGPY_DskfvBLlBbUJO82ohNg7zf1gjCovlh4iACxbkdYDUF1chsfo2PY7AIALbLENr6fC1Lq02x-5Egbt2vHqWoKRJ-GJ-_FmDi-dLilWrReSQCzUBq9rV7AARJrIE0_2x27YLbI2SwI9tNSGcLLJv2m00?></g></svg>