<svg xmlns="http://www.w3.org/2000/svg" xmlns:xlink="http://www.w3.org/1999/xlink" contentStyleType="text/css" height="1246px" preserveAspectRatio="none" style="width:402px;height:1246px;background:#FFFFFF;" version="1.1" viewBox="0 0 402 1246" width="402px" zoomAndPan="magnify"><title>Gestion des clients et comptes (&#167;7.1, &#167;7.2)</title><defs/><g><text fill="#000000" font-family="sans-serif" font-size="14" font-weight="bold" lengthAdjust="spacing" textLength="281.6611" x="56.3135" y="24.5332">Gestion des clients et comptes (&#167;7.1, &#167;7.2)</text><!--cluster Acc?s au syst?me--><g id="cluster_Acc&#232;s au syst&#232;me"><rect fill="none" height="148" rx="2.5" ry="2.5" style="stroke:#181818;stroke-width:1;" width="180" x="163.644" y="354.1094"/><text fill="#000000" font-family="sans-serif" font-size="14" font-weight="bold" lengthAdjust="spacing" textLength="121.4131" x="192.9375" y="370.6426">Acc&#232;s au syst&#232;me</text></g><!--cluster Clients--><g id="cluster_Clients"><rect fill="none" height="293" rx="2.5" ry="2.5" style="stroke:#181818;stroke-width:1;" width="212" x="147.644" y="526.1094"/><text fill="#000000" font-family="sans-serif" font-size="14" font-weight="bold" lengthAdjust="spacing" textLength="46.6758" x="230.3062" y="542.6426">Clients</text></g><!--cluster Comptes bancaires--><g id="cluster_Comptes bancaires"><rect fill="none" height="229" rx="2.5" ry="2.5" style="stroke:#181818;stroke-width:1;" width="212" x="147.644" y="843.1094"/><text fill="#000000" font-family="sans-serif" font-size="14" font-weight="bold" lengthAdjust="spacing" textLength="129.1582" x="189.0649" y="859.6426">Comptes bancaires</text></g><g id="elem_UC_LOGIN"><ellipse cx="253.4896" cy="406.0785" fill="#F1F1F1" rx="67.8456" ry="15.9691" style="stroke:#181818;stroke-width:0.5;"/><text fill="#000000" font-family="sans-serif" font-size="14" lengthAdjust="spacing" textLength="81.2793" x="209.85" y="410.5951">S'authentifier</text></g><g id="elem_UC_LOGOUT"><ellipse cx="253.4119" cy="469.2629" fill="#F1F1F1" rx="73.7678" ry="17.1536" style="stroke:#181818;stroke-width:0.5;"/><text fill="#000000" font-family="sans-serif" font-size="14" lengthAdjust="spacing" textLength="98.0684" x="201.3777" y="473.7795">Se d&#233;connecter</text></g><g id="elem_UC_C_ADD"><ellipse cx="253.7707" cy="579.9347" fill="#F1F1F1" rx="74.6267" ry="17.3253" style="stroke:#181818;stroke-width:0.5;"/><text fill="#000000" font-family="sans-serif" font-size="14" lengthAdjust="spacing" textLength="100.3926" x="200.5744" y="584.4513">Ajouter un client</text></g><g id="elem_UC_C_EDIT"><ellipse cx="253.8142" cy="645.3434" fill="#F1F1F1" rx="76.6702" ry="17.734" style="stroke:#181818;stroke-width:0.5;"/><text fill="#000000" font-family="sans-serif" font-size="14" lengthAdjust="spacing" textLength="105.8271" x="198.3312" y="649.7596">Modifier un client</text></g><g id="elem_UC_C_VIEW"><ellipse cx="253.8269" cy="713.0459" fill="#F1F1F1" rx="90.1828" ry="20.4366" style="stroke:#181818;stroke-width:0.5;"/><text fill="#000000" font-family="sans-serif" font-size="14" lengthAdjust="spacing" textLength="138.5029" x="184.5754" y="716.7745">Consulter / rechercher</text></g><g id="elem_UC_C_STATUS"><ellipse cx="253.6866" cy="782.9179" fill="#F1F1F1" rx="84.5426" ry="19.3085" style="stroke:#181818;stroke-width:0.5;"/><text fill="#000000" font-family="sans-serif" font-size="14" lengthAdjust="spacing" textLength="125.2754" x="191.049" y="786.6464">G&#233;rer le statut client</text></g><g id="elem_UC_A_OPEN"><ellipse cx="253.4079" cy="896.9621" fill="#F1F1F1" rx="77.2638" ry="17.8528" style="stroke:#181818;stroke-width:0.5;"/><text fill="#000000" font-family="sans-serif" font-size="14" lengthAdjust="spacing" textLength="107.3721" x="197.4515" y="901.3063">Ouvrir un compte</text></g><g id="elem_UC_A_VIEW"><ellipse cx="253.8361" cy="965.2478" fill="#F1F1F1" rx="86.1921" ry="19.6384" style="stroke:#181818;stroke-width:0.5;"/><text fill="#000000" font-family="sans-serif" font-size="14" lengthAdjust="spacing" textLength="129.1787" x="189.2468" y="968.9763">Consulter un compte</text></g><g id="elem_UC_A_STATUS"><ellipse cx="253.8269" cy="1035.0459" fill="#F1F1F1" rx="90.1828" ry="20.4366" style="stroke:#181818;stroke-width:0.5;"/><text fill="#000000" font-family="sans-serif" font-size="14" lengthAdjust="spacing" textLength="138.5029" x="184.5754" y="1038.7745">G&#233;rer le statut compte</text></g><!--entity personnel--><g id="elem_personnel"><ellipse cx="88.2319" cy="574.1094" fill="#F1F1F1" rx="8" ry="8" style="stroke:#181818;stroke-width:0.5;"/><path d="M88.2319,582.1094 L88.2319,609.1094 M75.2319,590.1094 L101.2319,590.1094 M88.2319,609.1094 L75.2319,624.1094 M88.2319,609.1094 L101.2319,624.1094 " fill="none" style="stroke:#181818;stroke-width:0.5;"/><text fill="#000000" font-family="sans-serif" font-size="14" lengthAdjust="spacing" textLength="63.041" x="52.644" y="640.1426">Personnel</text><text fill="#000000" font-family="sans-serif" font-size="14" lengthAdjust="spacing" textLength="71.1758" x="52.644" y="657.752">de l'agence</text></g><!--entity admin--><g id="elem_admin"><ellipse cx="253.7715" cy="52.6094" fill="#F1F1F1" rx="8" ry="8" style="stroke:#181818;stroke-width:0.5;"/><path d="M253.7715,60.6094 L253.7715,87.6094 M240.7715,68.6094 L266.7715,68.6094 M253.7715,87.6094 L240.7715,102.6094 M253.7715,87.6094 L266.7715,102.6094 " fill="none" style="stroke:#181818;stroke-width:0.5;"/><text fill="#000000" font-family="sans-serif" font-size="14" lengthAdjust="spacing" textLength="90.2549" x="208.644" y="118.6426">Administrateur</text></g><!--entity agent--><g id="elem_agent"><ellipse cx="253.7334" cy="160.6094" fill="#F1F1F1" rx="8" ry="8" style="stroke:#181818;stroke-width:0.5;"/><path d="M253.7334,168.6094 L253.7334,195.6094 M240.7334,176.6094 L266.7334,176.6094 M253.7334,195.6094 L240.7334,210.6094 M253.7334,195.6094 L266.7334,210.6094 " fill="none" style="stroke:#181818;stroke-width:0.5;"/><text fill="#000000" font-family="sans-serif" font-size="14" lengthAdjust="spacing" textLength="94.1787" x="206.644" y="226.6426">Agent bancaire</text></g><!--entity chef--><g id="elem_chef"><ellipse cx="253.5698" cy="268.6094" fill="#F1F1F1" rx="8" ry="8" style="stroke:#181818;stroke-width:0.5;"/><path d="M253.5698,276.6094 L253.5698,303.6094 M240.5698,284.6094 L266.5698,284.6094 M253.5698,303.6094 L240.5698,318.6094 M253.5698,303.6094 L266.5698,318.6094 " fill="none" style="stroke:#181818;stroke-width:0.5;"/><text fill="#000000" font-family="sans-serif" font-size="14" lengthAdjust="spacing" textLength="89.8516" x="208.644" y="334.6426">Chef d'agence</text></g><!--reverse link personnel to admin--><g id="link_personnel_admin"><path d="M64.644,547.6094 C64.644,417.5194 64.644,83.1094 64.644,83.1094 C64.644,83.1094 152.464,83.1094 208.374,83.1094 " fill="none" id="personnel-backto-admin" style="stroke:#181818;stroke-width:1;"/><polygon fill="none" points="64.644,565.6094,70.644,547.6094,58.644,547.6094,64.644,565.6094" style="stroke:#181818;stroke-width:1;"/></g><!--reverse link personnel to agent--><g id="link_personnel_agent"><path d="M76.644,547.5194 C76.644,437.1594 76.644,191.1094 76.644,191.1094 C76.644,191.1094 153.784,191.1094 206.214,191.1094 " fill="none" id="personnel-backto-agent" style="stroke:#181818;stroke-width:1;"/><polygon fill="none" points="76.644,565.5194,82.644,547.5194,70.644,547.5194,76.644,565.5194" style="stroke:#181818;stroke-width:1;"/></g><!--reverse link personnel to chef--><g id="link_personnel_chef"><path d="M88.644,547.4194 C88.644,459.5794 88.644,299.1094 88.644,299.1094 C88.644,299.1094 159.704,299.1094 208.554,299.1094 " fill="none" id="personnel-backto-chef" style="stroke:#181818;stroke-width:1;"/><polygon fill="none" points="88.644,565.4194,94.644,547.4194,82.644,547.4194,88.644,565.4194" style="stroke:#181818;stroke-width:1;"/></g><!--link personnel to UC_LOGIN--><g id="link_personnel_UC_LOGIN"><path d="M100.644,565.3594 C100.644,504.2294 100.644,406.1094 100.644,406.1094 C100.644,406.1094 138.464,406.1094 179.204,406.1094 " fill="none" id="personnel-to-UC_LOGIN" style="stroke:#181818;stroke-width:1;"/><polygon fill="#181818" points="185.204,406.1094,176.204,402.1094,180.204,406.1094,176.204,410.1094,185.204,406.1094" style="stroke:#181818;stroke-width:1;"/></g><!--link personnel to UC_LOGOUT--><g id="link_personnel_UC_LOGOUT"><path d="M112.644,565.5594 C112.644,523.6194 112.644,469.1094 112.644,469.1094 C112.644,469.1094 139.464,469.1094 173.424,469.1094 " fill="none" id="personnel-to-UC_LOGOUT" style="stroke:#181818;stroke-width:1;"/><polygon fill="#181818" points="179.424,469.1094,170.424,465.1094,174.424,469.1094,170.424,473.1094,179.424,469.1094" style="stroke:#181818;stroke-width:1;"/></g><!--link personnel to UC_C_ADD--><g id="link_personnel_UC_C_ADD"><path d="M123.644,581.6094 C139.984,581.6094 154.014,581.6094 173.414,581.6094 " fill="none" id="personnel-to-UC_C_ADD" style="stroke:#181818;stroke-width:1;"/><polygon fill="#181818" points="179.414,581.6094,170.414,577.6094,174.414,581.6094,170.414,585.6094,179.414,581.6094" style="stroke:#181818;stroke-width:1;"/></g><!--link personnel to UC_C_EDIT--><g id="link_personnel_UC_C_EDIT"><path d="M123.644,638.6094 C140.844,638.6094 156.124,638.6094 176.454,638.6094 " fill="none" id="personnel-to-UC_C_EDIT" style="stroke:#181818;stroke-width:1;"/><polygon fill="#181818" points="182.454,638.6094,173.454,634.6094,177.454,638.6094,173.454,642.6094,182.454,638.6094" style="stroke:#181818;stroke-width:1;"/></g><!--link personnel to UC_C_VIEW--><g id="link_personnel_UC_C_VIEW"><path d="M124.094,649.6094 C146.324,649.6094 170.644,649.6094 170.644,649.6094 C170.644,649.6094 170.644,681.9794 170.644,699.0694 " fill="none" id="personnel-to-UC_C_VIEW" style="stroke:#181818;stroke-width:1;"/><polygon fill="#181818" points="170.644,705.0694,174.644,696.0694,170.644,700.0694,166.644,696.0694,170.644,705.0694" style="stroke:#181818;stroke-width:1;"/></g><!--link personnel to UC_C_STATUS--><g id="link_personnel_UC_C_STATUS"><path d="M109.644,660.9194 C109.644,711.1994 109.644,783.1094 109.644,783.1094 C109.644,783.1094 131.704,783.1094 163.044,783.1094 " fill="none" id="personnel-to-UC_C_STATUS" style="stroke:#181818;stroke-width:1;"/><polygon fill="#181818" points="169.044,783.1094,160.044,779.1094,164.044,783.1094,160.044,787.1094,169.044,783.1094" style="stroke:#181818;stroke-width:1;"/></g><!--link personnel to UC_A_OPEN--><g id="link_personnel_UC_A_OPEN"><path d="M95.644,660.6494 C95.644,741.4894 95.644,897.1094 95.644,897.1094 C95.644,897.1094 130.074,897.1094 170.034,897.1094 " fill="none" id="personnel-to-UC_A_OPEN" style="stroke:#181818;stroke-width:1;"/><polygon fill="#181818" points="176.034,897.1094,167.034,893.1094,171.034,897.1094,167.034,901.1094,176.034,897.1094" style="stroke:#181818;stroke-width:1;"/></g><!--link personnel to UC_A_VIEW--><g id="link_personnel_UC_A_VIEW"><path d="M81.644,660.9494 C81.644,757.1894 81.644,965.1094 81.644,965.1094 C81.644,965.1094 118.644,965.1094 161.644,965.1094 " fill="none" id="personnel-to-UC_A_VIEW" style="stroke:#181818;stroke-width:1;"/><polygon fill="#181818" points="167.644,965.1094,158.644,961.1094,162.644,965.1094,158.644,969.1094,167.644,965.1094" style="stroke:#181818;stroke-width:1;"/></g><!--link personnel to UC_A_STATUS--><g id="link_personnel_UC_A_STATUS"><path d="M67.644,660.6994 C67.644,771.0594 67.644,1035.1094 67.644,1035.1094 C67.644,1035.1094 110.164,1035.1094 157.644,1035.1094 " fill="none" id="personnel-to-UC_A_STATUS" style="stroke:#181818;stroke-width:1;"/><polygon fill="#181818" points="163.644,1035.1094,154.644,1031.1094,158.644,1035.1094,154.644,1039.1094,163.644,1035.1094" style="stroke:#181818;stroke-width:1;"/></g><rect fill="#DDDDDD" height="137.2656" id="_legend" rx="7.5" ry="7.5" style="stroke:#000000;stroke-width:1;" width="370.2881" x="12" y="1089.1094"/><text fill="#000000" font-family="sans-serif" font-size="14" font-weight="bold" lengthAdjust="spacing" textLength="45.9102" x="20.8896" y="1110.6426">D&#233;tails</text><text fill="#000000" font-family="sans-serif" font-size="14" font-weight="bold" lengthAdjust="spacing" textLength="3.8896" x="112.7031" y="1110.6426">&#160;</text><text fill="#000000" font-family="sans-serif" font-size="14" lengthAdjust="spacing" textLength="28.7998" x="20.8896" y="1128.252">Auth</text><text fill="#000000" font-family="sans-serif" font-size="14" lengthAdjust="spacing" textLength="198.3926" x="116.5928" y="1128.252">Acc&#232;s selon r&#244;le &#8212; BCrypt (R7)</text><text fill="#000000" font-family="sans-serif" font-size="14" lengthAdjust="spacing" textLength="67.7031" x="20.8896" y="1145.8613">Recherche</text><text fill="#000000" font-family="sans-serif" font-size="14" lengthAdjust="spacing" textLength="188.4668" x="116.5928" y="1145.8613">Nom, CIN, n&#176; client, t&#233;l&#233;phone</text><text fill="#000000" font-family="sans-serif" font-size="14" lengthAdjust="spacing" textLength="73.1514" x="20.8896" y="1163.4707">Statut client</text><text fill="#000000" font-family="sans-serif" font-size="14" lengthAdjust="spacing" textLength="195.3096" x="116.5928" y="1163.4707">Activer / suspendre / d&#233;sactiver</text><text fill="#000000" font-family="sans-serif" font-size="14" lengthAdjust="spacing" textLength="87.9238" x="20.8896" y="1181.0801">Types compte</text><text fill="#000000" font-family="sans-serif" font-size="14" lengthAdjust="spacing" textLength="256.8057" x="116.5928" y="1181.0801">Courant, &#233;pargne, professionnel (R1, R2)</text><text fill="#000000" font-family="sans-serif" font-size="14" lengthAdjust="spacing" textLength="86.3789" x="20.8896" y="1198.6895">Statut compte</text><text fill="#000000" font-family="sans-serif" font-size="14" lengthAdjust="spacing" textLength="211.6611" x="116.5928" y="1198.6895">Bloquer / d&#233;bloquer / cl&#244;turer (R6)</text><text fill="#000000" font-family="sans-serif" font-size="14" lengthAdjust="spacing" textLength="31.9102" x="20.8896" y="1216.2988">Audit</text><text fill="#000000" font-family="sans-serif" font-size="14" lengthAdjust="spacing" textLength="217.1025" x="116.5928" y="1216.2988">Toute modification journalis&#233;e (R8)</text><line style="stroke:#000000;stroke-width:1;" x1="17" x2="377.2881" y1="1096.1094" y2="1096.1094"/><line style="stroke:#000000;stroke-width:1;" x1="17" x2="377.2881" y1="1113.7188" y2="1113.7188"/><line style="stroke:#000000;stroke-width:1;" x1="17" x2="377.2881" y1="1131.3281" y2="1131.3281"/><line style="stroke:#000000;stroke-width:1;" x1="17" x2="377.2881" y1="1148.9375" y2="1148.9375"/><line style="stroke:#000000;stroke-width:1;" x1="17" x2="377.2881" y1="1166.5469" y2="1166.5469"/><line style="stroke:#000000;stroke-width:1;" x1="17" x2="377.2881" y1="1184.1563" y2="1184.1563"/><line style="stroke:#000000;stroke-width:1;" x1="17" x2="377.2881" y1="1201.7656" y2="1201.7656"/><line style="stroke:#000000;stroke-width:1;" x1="17" x2="377.2881" y1="1219.375" y2="1219.375"/><line style="stroke:#000000;stroke-width:1;" x1="17" x2="17" y1="1096.1094" y2="1219.375"/><line style="stroke:#000000;stroke-width:1;" x1="112.7031" x2="112.7031" y1="1096.1094" y2="1219.375"/><line style="stroke:#000000;stroke-width:1;" x1="377.2881" x2="377.2881" y1="1096.1094" y2="1219.375"/><!--SRC=[XLJRRjD047ttLupwaaHAk1H44HALKgUg8a5I9Icy85LRUv8iNU-QlHH558cFu1-ettZe5zH_mfSmwqjg4aiyMBRFd9avSzaLkBHW5MY-Mbk8kSR8SYK3SyrboZHBmAnPhBvokO8b4mORbfH5rso5SxiH2DwHoPLe4gIAqM0ABvurGCtajGTVDa719TfDYg2qNQiWiDnIp3CqNWnG58W4HsaDe8L89QabgFlmw-Z9ypxurs4l23em60nW65bqsi0RS18CEW7U4swGCE43CUCZ94uQpmzOP9M6WtEoAobHV98nWkXGOJB20o1sMfk2cZoC4owviPhvN0M9UMXh9sSBLqn6Z3fQsZrKsyCrBY5kveW8eV0-20nSEhWzRgGjVFTXxxEFLcq8AMZSSPOBRbZHnPLMBispikhjk4Xi5ELt9D21sHYRtoMaw5i0u0nIhuWmxp1droI1BpcMrLw4b- -cP-F9FpI4ECyYhu96qEHDBnR1zw2PCoodkPDe-5avylI3AyTTnmWlXwDHa_bUnOMODkhfQBneSaCbZHC-xbE_fMlK_ddaVnYVVcpop_9C4vba6ikiiti9velXucA-Mr6rbFNGTskRkXlDIxq5imutl9oUdqxQzRQG_ozsn-5Hx7P5Q06E7oVO1lk1xU7b45hWek4jUA6r1QyaxLcgLhJWxP6snGK2wOJ4SAMiLGcrv_OjZFBCCYwC_xxr40nfYVshN7U3Wiw4pk-fTNz-_8IJK6zI2ztPKQ_Yp-fTeU-9IleGZYTza0-_guNeWyqpaMVfMaciVERDZIcIMNvJR9vn9YMD6kcRZebXbQNqMz3TPwhPqM-e75sJb86YCxsIs8TKgoKQmyiET6TqxyqEUpjfQ_yJeRwu8Ysbkjh-H2A_jyxlItVsghTjIyozr8K_Uv0K1oigRmmwZbeoka3o3CdbjNUX6ifk1ty1]--></g></svg>