<svg xmlns="http://www.w3.org/2000/svg" xmlns:xlink="http://www.w3.org/1999/xlink" contentStyleType="text/css" height="856px" preserveAspectRatio="none" style="width:716px;height:856px;background:#FFFFFF;" version="1.1" viewBox="0 0 716 856" width="716px" zoomAndPan="magnify"><title>Gestion des clients et comptes</title><defs/><g><text fill="#000000" font-family="sans-serif" font-size="14" font-weight="bold" lengthAdjust="spacing" textLength="206.1719" x="247.9141" y="24.5332">Gestion des clients et comptes</text><!--cluster ACC--><g id="cluster_ACC"><rect fill="none" height="154" rx="2.5" ry="2.5" style="stroke:#181818;stroke-width:1;" width="176" x="251.5" y="222.6094"/><text fill="#000000" font-family="sans-serif" font-size="12" font-weight="bold" lengthAdjust="spacing" textLength="104.0684" x="287.4658" y="237.0664">Acc&#232;s au syst&#232;me</text></g><!--cluster CLI--><g id="cluster_CLI"><rect fill="none" height="331" rx="2.5" ry="2.5" style="stroke:#181818;stroke-width:1;" width="210" x="500" y="45.6094"/><text fill="#000000" font-family="sans-serif" font-size="12" font-weight="bold" lengthAdjust="spacing" textLength="40.0078" x="584.9961" y="60.0664">Clients</text></g><!--cluster CPT--><g id="cluster_CPT"><rect fill="none" height="426" rx="2.5" ry="2.5" style="stroke:#181818;stroke-width:1;" width="241" x="219" y="424.6094"/><text fill="#000000" font-family="sans-serif" font-size="12" font-weight="bold" lengthAdjust="spacing" textLength="110.707" x="284.1465" y="439.0664">Comptes bancaires</text></g><g id="elem_UC_LOGIN"><ellipse cx="339.6012" cy="278.7296" fill="#F1F1F1" rx="58.6012" ry="14.1202" style="stroke:#181818;stroke-width:0.5;"/><text fill="#000000" font-family="sans-serif" font-size="12" lengthAdjust="spacing" textLength="69.668" x="304.4697" y="281.7041">S'authentifier</text></g><g id="elem_UC_LOGOUT"><ellipse cx="339.5794" cy="329.8253" fill="#F1F1F1" rx="64.0794" ry="15.2159" style="stroke:#181818;stroke-width:0.5;"/><text fill="#000000" font-family="sans-serif" font-size="12" lengthAdjust="spacing" textLength="84.0586" x="297.5501" y="332.7354">Se d&#233;connecter</text></g><g id="elem_UC_C_ADD"><ellipse cx="604.8658" cy="111.4825" fill="#F1F1F1" rx="64.8658" ry="15.3732" style="stroke:#181818;stroke-width:0.5;"/><text fill="#000000" font-family="sans-serif" font-size="12" lengthAdjust="spacing" textLength="86.0508" x="561.8404" y="114.3927">Ajouter un client</text></g><g id="elem_UC_C_EDIT"><ellipse cx="605.2273" cy="164.8548" fill="#F1F1F1" rx="66.7273" ry="15.7455" style="stroke:#181818;stroke-width:0.5;"/><text fill="#000000" font-family="sans-serif" font-size="12" lengthAdjust="spacing" textLength="90.709" x="559.8728" y="167.765">Modifier un client</text></g><g id="elem_UC_C_VIEW"><ellipse cx="604.7946" cy="220.6683" fill="#F1F1F1" rx="80.7946" ry="18.5589" style="stroke:#181818;stroke-width:0.5;"/><text fill="#000000" font-family="sans-serif" font-size="12" lengthAdjust="spacing" textLength="124.0605" x="542.7643" y="223.5785">Consulter la fiche client</text></g><g id="elem_UC_C_SEARCH"><ellipse cx="604.7519" cy="278.4598" fill="#F1F1F1" rx="74.7519" ry="17.3504" style="stroke:#181818;stroke-width:0.5;"/><text fill="#000000" font-family="sans-serif" font-size="12" lengthAdjust="spacing" textLength="110.0566" x="549.7236" y="281.3699">Rechercher un client</text></g><g id="elem_UC_C_STATUS"><ellipse cx="605.1167" cy="335.7327" fill="#F1F1F1" rx="73.6167" ry="17.1233" style="stroke:#181818;stroke-width:0.5;"/><text fill="#000000" font-family="sans-serif" font-size="12" lengthAdjust="spacing" textLength="107.3789" x="551.4272" y="338.6429">G&#233;rer le statut client</text></g><g id="elem_UC_A_OPEN"><ellipse cx="339.262" cy="482.4618" fill="#F1F1F1" rx="67.262" ry="15.8524" style="stroke:#181818;stroke-width:0.5;"/><text fill="#000000" font-family="sans-serif" font-size="12" lengthAdjust="spacing" textLength="92.0332" x="293.2454" y="485.3719">Ouvrir un compte</text></g><g id="elem_UC_A_VIEW"><ellipse cx="339.5362" cy="538.5166" fill="#F1F1F1" rx="75.0362" ry="17.4072" style="stroke:#181818;stroke-width:0.5;"/><text fill="#000000" font-family="sans-serif" font-size="12" lengthAdjust="spacing" textLength="110.7246" x="284.1739" y="541.4268">Consulter un compte</text></g><g id="elem_UC_A_LIST"><ellipse cx="339.3647" cy="602.4552" fill="#F1F1F1" rx="79.8647" ry="24.3458" style="stroke:#181818;stroke-width:0.5;"/><text fill="#000000" font-family="sans-serif" font-size="12" lengthAdjust="spacing" textLength="96.7031" x="291.0132" y="597.8184">Lister les comptes</text><text fill="#000000" font-family="sans-serif" font-size="12" lengthAdjust="spacing" textLength="53.6602" x="312.5346" y="612.9122">d'un client</text></g><g id="elem_UC_A_STATUS"><ellipse cx="339.4692" cy="667.7032" fill="#F1F1F1" rx="78.4692" ry="18.0938" style="stroke:#181818;stroke-width:0.5;"/><text fill="#000000" font-family="sans-serif" font-size="12" lengthAdjust="spacing" textLength="118.7168" x="280.1108" y="670.6134">G&#233;rer le statut compte</text></g><g id="elem_UC_CHQ_ORDER"><ellipse cx="339.32" cy="727.3734" fill="#F1F1F1" rx="84.32" ry="19.264" style="stroke:#181818;stroke-width:0.5;"/><text fill="#000000" font-family="sans-serif" font-size="12" lengthAdjust="spacing" textLength="132.0703" x="273.2849" y="730.2835">Commander un ch&#233;quier</text></g><g id="elem_UC_CHQ_TRACK"><ellipse cx="339.3837" cy="793.4552" fill="#F1F1F1" rx="96.3837" ry="24.3458" style="stroke:#181818;stroke-width:0.5;"/><text fill="#000000" font-family="sans-serif" font-size="12" lengthAdjust="spacing" textLength="120.0645" x="279.3514" y="788.8184">Suivre une commande</text><text fill="#000000" font-family="sans-serif" font-size="12" lengthAdjust="spacing" textLength="62.7129" x="308.0272" y="803.9122">de ch&#233;quier</text></g><!--entity personnel--><g id="elem_personnel"><ellipse cx="96.5039" cy="691.1094" fill="#F1F1F1" rx="8" ry="8" style="stroke:#181818;stroke-width:0.5;"/><path d="M96.5039,699.1094 L96.5039,726.1094 M83.5039,707.1094 L109.5039,707.1094 M96.5039,726.1094 L83.5039,741.1094 M96.5039,726.1094 L109.5039,741.1094 " fill="none" style="stroke:#181818;stroke-width:0.5;"/><text fill="#000000" font-family="sans-serif" font-size="12" lengthAdjust="spacing" textLength="54.0352" x="66" y="755.0664">Personnel</text><text fill="#000000" font-family="sans-serif" font-size="12" lengthAdjust="spacing" textLength="61.0078" x="66" y="770.1602">de l'agence</text></g><g id="elem_GMN3"><path d="M6,794.6094 L6,834.7969 A0,0 0 0 0 6,834.7969 L187.4121,834.7969 A0,0 0 0 0 187.4121,834.7969 L187.4121,804.6094 L177.4121,794.6094 L101,794.6094 L97,772.6394 L93,794.6094 L6,794.6094 A0,0 0 0 0 6,794.6094 " fill="#FEFFDD" style="stroke:#181818;stroke-width:0.5;"/><path d="M177.4121,794.6094 L177.4121,804.6094 L187.4121,804.6094 L177.4121,794.6094 " fill="#FEFFDD" style="stroke:#181818;stroke-width:0.5;"/><text fill="#000000" font-family="sans-serif" font-size="12" lengthAdjust="spacing" textLength="120.0469" x="12" y="812.0664">R&#244;les : administrateur,</text><text fill="#000000" font-family="sans-serif" font-size="12" lengthAdjust="spacing" textLength="160.4121" x="12" y="827.1602">agent bancaire, chef d'agence</text></g><!--link ACC to CLI--><!--link ACC to CPT--><!--link personnel to UC_LOGIN--><g id="link_personnel_UC_LOGIN"><path d="M89,682.4994 C89,568.6394 89,278.6094 89,278.6094 C89,278.6094 200.73,278.6094 274.77,278.6094 " fill="none" id="personnel-to-UC_LOGIN" style="stroke:#181818;stroke-width:1;"/><polygon fill="#181818" points="280.77,278.6094,271.77,274.6094,275.77,278.6094,271.77,282.6094,280.77,278.6094" style="stroke:#181818;stroke-width:1;"/></g><!--link personnel to UC_LOGOUT--><g id="link_personnel_UC_LOGOUT"><path d="M94,682.3394 C94,578.0294 94,329.6094 94,329.6094 C94,329.6094 196.58,329.6094 269.32,329.6094 " fill="none" id="personnel-to-UC_LOGOUT" style="stroke:#181818;stroke-width:1;"/><polygon fill="#181818" points="275.32,329.6094,266.32,325.6094,270.32,329.6094,266.32,333.6094,275.32,329.6094" style="stroke:#181818;stroke-width:1;"/></g><!--link personnel to UC_C_ADD--><g id="link_personnel_UC_C_ADD"><path d="M72,682.3094 C72,540.0594 72,111.6094 72,111.6094 C72,111.6094 391.72,111.6094 533.91,111.6094 " fill="none" id="personnel-to-UC_C_ADD" style="stroke:#181818;stroke-width:1;"/><polygon fill="#181818" points="539.91,111.6094,530.91,107.6094,534.91,111.6094,530.91,115.6094,539.91,111.6094" style="stroke:#181818;stroke-width:1;"/></g><!--link personnel to UC_C_EDIT--><g id="link_personnel_UC_C_EDIT"><path d="M78,682.4894 C78,548.8894 78,164.6094 78,164.6094 C78,164.6094 390.45,164.6094 532.26,164.6094 " fill="none" id="personnel-to-UC_C_EDIT" style="stroke:#181818;stroke-width:1;"/><polygon fill="#181818" points="538.26,164.6094,529.26,160.6094,533.26,164.6094,529.26,168.6094,538.26,164.6094" style="stroke:#181818;stroke-width:1;"/></g><!--link personnel to UC_C_VIEW--><g id="link_personnel_UC_C_VIEW"><path d="M83,682.1694 C83,557.7294 83,220.6094 83,220.6094 C83,220.6094 371.01,220.6094 517.72,220.6094 " fill="none" id="personnel-to-UC_C_VIEW" style="stroke:#181818;stroke-width:1;"/><polygon fill="#181818" points="523.72,220.6094,514.72,216.6094,518.72,220.6094,514.72,224.6094,523.72,220.6094" style="stroke:#181818;stroke-width:1;"/></g><!--link personnel to UC_C_SEARCH--><g id="link_personnel_UC_C_SEARCH"><path d="M127.28,696.8594 C209.84,696.8594 430,696.8594 430,696.8594 C430,696.8594 430,278.6094 430,278.6094 C430,278.6094 476.34,278.6094 523.77,278.6094 " fill="none" id="personnel-to-UC_C_SEARCH" style="stroke:#181818;stroke-width:1;"/><polygon fill="#181818" points="529.77,278.6094,520.77,274.6094,524.77,278.6094,520.77,282.6094,529.77,278.6094" style="stroke:#181818;stroke-width:1;"/></g><!--link personnel to UC_C_STATUS--><g id="link_personnel_UC_C_STATUS"><path d="M100,682.2694 C100,581.6694 100,348.6094 100,348.6094 C100,348.6094 425.78,348.6094 551.49,348.6094 " fill="none" id="personnel-to-UC_C_STATUS" style="stroke:#181818;stroke-width:1;"/><polygon fill="#181818" points="557.49,348.6094,548.49,344.6094,552.49,348.6094,548.49,352.6094,557.49,348.6094" style="stroke:#181818;stroke-width:1;"/></g><!--link personnel to UC_A_OPEN--><g id="link_personnel_UC_A_OPEN"><path d="M105,682.3894 C105,611.5994 105,482.6094 105,482.6094 C105,482.6094 196.71,482.6094 265.99,482.6094 " fill="none" id="personnel-to-UC_A_OPEN" style="stroke:#181818;stroke-width:1;"/><polygon fill="#181818" points="271.99,482.6094,262.99,478.6094,266.99,482.6094,262.99,486.6094,271.99,482.6094" style="stroke:#181818;stroke-width:1;"/></g><!--link personnel to UC_A_VIEW--><g id="link_personnel_UC_A_VIEW"><path d="M111,682.3394 C111,626.4294 111,538.6094 111,538.6094 C111,538.6094 191.77,538.6094 258.36,538.6094 " fill="none" id="personnel-to-UC_A_VIEW" style="stroke:#181818;stroke-width:1;"/><polygon fill="#181818" points="264.36,538.6094,255.36,534.6094,259.36,538.6094,255.36,542.6094,264.36,538.6094" style="stroke:#181818;stroke-width:1;"/></g><!--link personnel to UC_A_LIST--><g id="link_personnel_UC_A_LIST"><path d="M116,682.4794 C116,646.6794 116,602.6094 116,602.6094 C116,602.6094 189.31,602.6094 253.44,602.6094 " fill="none" id="personnel-to-UC_A_LIST" style="stroke:#181818;stroke-width:1;"/><polygon fill="#181818" points="259.44,602.6094,250.44,598.6094,254.44,602.6094,250.44,606.6094,259.44,602.6094" style="stroke:#181818;stroke-width:1;"/></g><!--link personnel to UC_A_STATUS--><g id="link_personnel_UC_A_STATUS"><path d="M122,682.5894 C122,673.2094 122,666.1094 122,666.1094 C122,666.1094 192.68,666.1094 254.98,666.1094 " fill="none" id="personnel-to-UC_A_STATUS" style="stroke:#181818;stroke-width:1;"/><polygon fill="#181818" points="260.98,666.1094,251.98,662.1094,255.98,666.1094,251.98,670.1094,260.98,666.1094" style="stroke:#181818;stroke-width:1;"/></g><!--link personnel to UC_CHQ_ORDER--><g id="link_personnel_UC_CHQ_ORDER"><path d="M127.28,727.6094 C159.2,727.6094 204.55,727.6094 248.74,727.6094 " fill="none" id="personnel-to-UC_CHQ_ORDER" style="stroke:#181818;stroke-width:1;"/><polygon fill="#181818" points="254.74,727.6094,245.74,723.6094,249.74,727.6094,245.74,731.6094,254.74,727.6094" style="stroke:#181818;stroke-width:1;"/></g><!--link personnel to UC_CHQ_TRACK--><g id="link_personnel_UC_CHQ_TRACK"><path d="M127.36,758.1094 C171.92,758.1094 249,758.1094 249,758.1094 C249,758.1094 249,768.5094 249,779.0194 " fill="none" id="personnel-to-UC_CHQ_TRACK" style="stroke:#181818;stroke-width:1;"/><polygon fill="#181818" points="249,785.0194,253,776.0194,249,780.0194,245,776.0194,249,785.0194" style="stroke:#181818;stroke-width:1;"/></g><!--SRC=[XLGzRzim4DtvAmvPiiH3FHKT2WYownXruzIIcw4j38OwMMmaqYLFATmY_oVU-m_ynqfzs94j1XqqwEwzUwTtTyen9I0DHgupWaGQ52IrOlP1gWqtl02RyKJ_aceDASyjTZ8RBXxu6YFQvWWLaQjrtWKedQ353Go7dQ3Xwg4Elkq4SwcGjXi4RIZJdKI2AIzp-g0LHV8tmfiXOoJ92KxGLfqwX0MHIrHa0Gc4BZQ4bZ4kI1kuk4LZjLAOVrC9Gdxf6bO2Bu1Rs1nIJ6b2kDT4kW2TTX80Y_tVt2cy0vuKKabBXXEMvigbgb84zrm9xdox0f5X2achm50bKDLr_UerKeO6_ZZIoGkys0ONWH3xPmky1Bkrj7ykcYw3C6on0AL5mQt3HfUyT5KKoLIYgN7BS3MRJwOtFIX2ij-9wdi4dM3doxW6Fvrt4ZPsrj1mDktB1pzqwMf1gLhh3rN3LJ0QdQC_wQHkqmSVZwRnEJxKohgPEqBE8PNErXxjotHyTqvRe4EQwl49HUDW4LwVSoRxdQbq42nnAgbFYuDu6NLigiOn-9h9947rtHs66bGMiIRTzR3Pm-Dwj6xUngsRnnRcvQEHJSirvQ0ThEQtunlsYZCU-D6J8tpcrhN-Ediu2tS4bprpWjLi6iNiFyQSgNMCwRHN5DoTMTDUjj_zB3lR6Lv_NiqNe_7Yb1ILyj6WOs2bKVFhK_NouqKGVcpDFfb4_VyQLFwo9yQE1mo3mVkNo_25goFenPirzeJhTVN4Q-yzyNRhV9d6lrwc7RidxjTeX-U9lwRmCWTlgh7u7m00]--></g></svg>