<svg xmlns="http://www.w3.org/2000/svg" xmlns:xlink="http://www.w3.org/1999/xlink" version="1.1" data-diagram-type="DESCRIPTION" style="width:876px;height:1125px;background:#FFFFFF;" width="876px" height="1125px" viewBox="0 0 876 1125" zoomAndPan="magnify" preserveAspectRatio="none" contentStyleType="text/css"><?plantuml 1.2026.7beta3?><defs/><g><g class="title" data-source-line="8"><text x="332.2617" y="22.9951" fill="#000000" font-size="14" lengthAdjust="spacing" textLength="204.4766" font-weight="700" font-family="sans-serif">Opérations et supervision</text></g><!--cluster Transactions--><g class="cluster" data-qualified-name="Transactions" id="ent0011" data-source-line="20"><rect x="115.22" y="470.9469" width="211.83" height="439" fill="none" style="stroke:#181818;stroke-width:1;" rx="2.5" ry="2.5"/><text x="170.4568" y="485.942" fill="#000000" font-size="14" lengthAdjust="spacing" textLength="101.3564" font-weight="700" font-family="sans-serif">Transactions</text></g><!--cluster Supervision--><g class="cluster" data-qualified-name="Supervision" id="ent0018" data-source-line="29"><rect x="351.05" y="89.9469" width="510.95" height="405" fill="none" style="stroke:#181818;stroke-width:1;" rx="2.5" ry="2.5"/><text x="559.9688" y="104.942" fill="#000000" font-size="14" lengthAdjust="spacing" textLength="93.1123" font-weight="700" font-family="sans-serif">Supervision</text></g><!--entity UC_DEPOT--><g class="entity" data-qualified-name="Transactions.UC_DEPOT" id="ent0012" data-source-line="21"><ellipse cx="221.1365" cy="875.9502" rx="80.0665" ry="18.4133" fill="#F1F1F1" style="stroke:#181818;stroke-width:0.5;"/><text x="155.72" y="880.5986" fill="#000000" font-size="14" lengthAdjust="spacing" textLength="130.833" font-family="sans-serif">Effectuer un dépôt</text></g><!--entity UC_RETRAIT--><g class="entity" data-qualified-name="Transactions.UC_RETRAIT" id="ent0013" data-source-line="22"><ellipse cx="221.1397" cy="808.9468" rx="81.3997" ry="18.6799" fill="#F1F1F1" style="stroke:#181818;stroke-width:0.5;"/><text x="154.1577" y="813.5952" fill="#000000" font-size="14" lengthAdjust="spacing" textLength="133.9639" font-family="sans-serif">Effectuer un retrait</text></g><!--entity UC_VIREMENT--><g class="entity" data-qualified-name="Transactions.UC_VIREMENT" id="ent0014" data-source-line="23"><ellipse cx="221.1351" cy="739.9499" rx="89.9151" ry="20.383" fill="#F1F1F1" style="stroke:#181818;stroke-width:0.5;"/><text x="144.3607" y="744.5983" fill="#000000" font-size="14" lengthAdjust="spacing" textLength="153.5488" font-family="sans-serif">Effectuer un virement</text></g><!--entity UC_BILL--><g class="entity" data-qualified-name="Transactions.UC_BILL" id="ent0015" data-source-line="24"><ellipse cx="221.1432" cy="671.9475" rx="77.5532" ry="17.9106" fill="#F1F1F1" style="stroke:#181818;stroke-width:0.5;"/><text x="158.7072" y="676.596" fill="#000000" font-size="14" lengthAdjust="spacing" textLength="124.8721" font-family="sans-serif">Payer une facture</text></g><!--entity UC_HIST--><g class="entity" data-qualified-name="Transactions.UC_HIST" id="ent0016" data-source-line="25"><ellipse cx="221.139" cy="603.9487" rx="88.109" ry="20.0218" fill="#F1F1F1" style="stroke:#181818;stroke-width:0.5;"/><text x="146.4154" y="608.5971" fill="#000000" font-size="14" lengthAdjust="spacing" textLength="149.4473" font-family="sans-serif">Consulter l'historique</text></g><!--entity UC_RELEVE--><g class="entity" data-qualified-name="Transactions.UC_RELEVE" id="ent0017" data-source-line="26"><ellipse cx="221.1398" cy="529.9454" rx="74.8498" ry="23.9286" fill="#F1F1F1" style="stroke:#181818;stroke-width:0.5;"/><text x="165.191" y="529.6116" fill="#000000" font-size="14" lengthAdjust="spacing" textLength="111.8975" font-family="sans-serif">Éditer un relevé</text><text x="194.7257" y="545.9084" fill="#000000" font-size="14" lengthAdjust="spacing" textLength="52.8281" font-family="sans-serif">ou reçu</text></g><!--entity UC_DASH--><g class="entity" data-qualified-name="Supervision.UC_DASH" id="ent0019" data-source-line="30"><ellipse cx="478.0022" cy="149.9473" rx="110.9522" ry="24.5904" fill="#F1F1F1" style="stroke:#181818;stroke-width:0.5;"/><text x="378.0334" y="154.5958" fill="#000000" font-size="14" lengthAdjust="spacing" textLength="199.9375" font-family="sans-serif">Consulter le tableau de bord</text></g><!--entity UC_RECENT--><g class="entity" data-qualified-name="Supervision.UC_RECENT" id="ent0020" data-source-line="31"><ellipse cx="737.4841" cy="341.9517" rx="108.5241" ry="24.1048" fill="#F1F1F1" style="stroke:#181818;stroke-width:0.5;"/><text x="652.0519" y="342.3604" fill="#000000" font-size="14" lengthAdjust="spacing" textLength="170.8643" font-family="sans-serif">Visualiser les opérations</text><text x="707.0094" y="358.6573" fill="#000000" font-size="14" lengthAdjust="spacing" textLength="60.9492" font-family="sans-serif">récentes</text></g><!--entity UC_ALERTS--><g class="entity" data-qualified-name="Supervision.UC_ALERTS" id="ent0021" data-source-line="32"><ellipse cx="737.4812" cy="206.9499" rx="94.1512" ry="23.623" fill="#F1F1F1" style="stroke:#181818;stroke-width:0.5;"/><text x="665.451" y="207.1087" fill="#000000" font-size="14" lengthAdjust="spacing" textLength="144.0605" font-family="sans-serif">Consulter les alertes</text><text x="714.4817" y="223.4056" fill="#000000" font-size="14" lengthAdjust="spacing" textLength="45.999" font-family="sans-serif">métier</text></g><!--entity UC_NOTIF--><g class="entity" data-qualified-name="Supervision.UC_NOTIF" id="ent0022" data-source-line="33"><ellipse cx="478.0007" cy="229.9489" rx="66.7007" ry="25.722" fill="#F1F1F1" style="stroke:#181818;stroke-width:0.5;"/><text x="432.3127" y="226.9122" fill="#000000" font-size="14" lengthAdjust="spacing" textLength="91.376" font-family="sans-serif">Consulter les</text><text x="434.989" y="243.2091" fill="#000000" font-size="14" lengthAdjust="spacing" textLength="86.0234" font-family="sans-serif">notifications</text></g><!--entity UC_USERS--><g class="entity" data-qualified-name="Supervision.UC_USERS" id="ent0023" data-source-line="34"><ellipse cx="478.0032" cy="458.9455" rx="86.6932" ry="19.7386" fill="#F1F1F1" style="stroke:#181818;stroke-width:0.5;"/><text x="404.8963" y="463.5939" fill="#000000" font-size="14" lengthAdjust="spacing" textLength="146.2139" font-family="sans-serif">Gérer les utilisateurs</text></g><!--entity UC_AUDIT_VIEW--><g class="entity" data-qualified-name="Supervision.UC_AUDIT_VIEW" id="ent0024" data-source-line="35"><ellipse cx="478.0042" cy="385.9477" rx="106.3042" ry="23.6608" fill="#F1F1F1" style="stroke:#181818;stroke-width:0.5;"/><text x="383.0735" y="390.5962" fill="#000000" font-size="14" lengthAdjust="spacing" textLength="189.8613" font-family="sans-serif">Consulter le journal d'audit</text></g><!--entity UC_VALIDATE--><g class="entity" data-qualified-name="Supervision.UC_VALIDATE" id="ent0025" data-source-line="36"><ellipse cx="478.0041" cy="308.9428" rx="99.4441" ry="23.7259" fill="#F1F1F1" style="stroke:#181818;stroke-width:0.5;"/><text x="402.1696" y="308.9344" fill="#000000" font-size="14" lengthAdjust="spacing" textLength="151.6689" font-family="sans-serif">Valider une opération</text><text x="449.3273" y="325.2313" fill="#000000" font-size="14" lengthAdjust="spacing" textLength="57.3535" font-family="sans-serif">sensible</text></g><!--entity personnel--><g class="entity" data-qualified-name="personnel" id="ent0001" data-source-line="10"><ellipse cx="50.7456" cy="529.1469" rx="8" ry="8" fill="#F1F1F1" style="stroke:#181818;stroke-width:0.5;"/><path d="M50.7456,537.1469 L50.7456,564.1469 M37.7456,545.1469 L63.7456,545.1469 M50.7456,564.1469 L37.7456,579.1469 M50.7456,564.1469 L63.7456,579.1469" style="stroke:#181818;stroke-width:0.5;" fill="none"/><text x="10.27" y="593.642" fill="#000000" font-size="14" lengthAdjust="spacing" textLength="68.9199" font-family="sans-serif">Personnel</text><text x="10.27" y="609.9389" fill="#000000" font-size="14" lengthAdjust="spacing" textLength="80.9512" font-family="sans-serif">de l'agence</text></g><!--entity admin--><g class="entity" data-qualified-name="admin" id="ent0002" data-source-line="12"><ellipse cx="221.1318" cy="387.2969" rx="8" ry="8" fill="#F1F1F1" style="stroke:#181818;stroke-width:0.5;"/><path d="M221.1318,395.2969 L221.1318,422.2969 M208.1318,403.2969 L234.1318,403.2969 M221.1318,422.2969 L208.1318,437.2969 M221.1318,422.2969 L234.1318,437.2969" style="stroke:#181818;stroke-width:0.5;" fill="none"/><text x="168.83" y="451.792" fill="#000000" font-size="14" lengthAdjust="spacing" textLength="104.6035" font-family="sans-serif">Administrateur</text></g><!--entity agent--><g class="entity" data-qualified-name="agent" id="ent0003" data-source-line="13"><ellipse cx="221.1318" cy="51.2969" rx="8" ry="8" fill="#F1F1F1" style="stroke:#181818;stroke-width:0.5;"/><path d="M221.1318,59.2969 L221.1318,86.2969 M208.1318,67.2969 L234.1318,67.2969 M221.1318,86.2969 L208.1318,101.2969 M221.1318,86.2969 L234.1318,101.2969" style="stroke:#181818;stroke-width:0.5;" fill="none"/><text x="167.75" y="115.792" fill="#000000" font-size="14" lengthAdjust="spacing" textLength="106.7637" font-family="sans-serif">Agent bancaire</text></g><!--entity chef--><g class="entity" data-qualified-name="chef" id="ent0004" data-source-line="14"><ellipse cx="221.1393" cy="281.2969" rx="8" ry="8" fill="#F1F1F1" style="stroke:#181818;stroke-width:0.5;"/><path d="M221.1393,289.2969 L221.1393,316.2969 M208.1393,297.2969 L234.1393,297.2969 M221.1393,316.2969 L208.1393,331.2969 M221.1393,316.2969 L234.1393,331.2969" style="stroke:#181818;stroke-width:0.5;" fill="none"/><text x="170.82" y="345.792" fill="#000000" font-size="14" lengthAdjust="spacing" textLength="100.6387" font-family="sans-serif">Chef d'agence</text></g><!--entity UC_CHECK--><g class="entity" data-qualified-name="UC_CHECK" id="ent0026" data-source-line="39"><ellipse cx="478.0027" cy="774.9423" rx="96.5327" ry="24.5754" fill="#F1F1F1" style="stroke:#181818;stroke-width:0.5;"/><text x="407.3533" y="773.6002" fill="#000000" font-size="14" lengthAdjust="spacing" textLength="141.2988" font-family="sans-serif">Contrôler l'éligibilité</text><text x="429.5496" y="789.8971" fill="#000000" font-size="14" lengthAdjust="spacing" textLength="96.9063" font-family="sans-serif">de l'opération</text></g><!--reverse link personnel to admin--><g class="link" data-entity-1="ent0001" data-entity-2="ent0002" id="lnk6" data-source-line="16" data-link-type="extension"><path d="M80,502.3069 C80,458.2769 80,416.9469 80,416.9469 C80,416.9469 128.46,416.9469 168.58,416.9469" style="stroke:#181818;stroke-width:1;" fill="none" id="personnel-backto-admin"/><polygon points="80,520.3069,86,502.3069,74,502.3069,80,520.3069" fill="none" style="stroke:#181818;stroke-width:1;stroke-linejoin:miter;stroke-miterlimit:10;"/></g><!--reverse link personnel to agent--><g class="link" data-entity-1="ent0001" data-entity-2="ent0003" id="lnk8" data-source-line="17" data-link-type="extension"><path d="M22,502.3469 C22,380.7069 22,80.9469 22,80.9469 C22,80.9469 108.53,80.9469 167.51,80.9469" style="stroke:#181818;stroke-width:1;" fill="none" id="personnel-backto-agent"/><polygon points="22,520.3469,28,502.3469,16,502.3469,22,520.3469" fill="none" style="stroke:#181818;stroke-width:1;stroke-linejoin:miter;stroke-miterlimit:10;"/></g><!--reverse link personnel to chef--><g class="link" data-entity-1="ent0001" data-entity-2="ent0004" id="lnk10" data-source-line="18" data-link-type="extension"><path d="M57,502.2869 C57,428.4469 57,310.9469 57,310.9469 C57,310.9469 122.33,310.9469 170.55,310.9469" style="stroke:#181818;stroke-width:1;" fill="none" id="personnel-backto-chef"/><polygon points="57,520.2869,63,502.2869,51,502.2869,57,520.2869" fill="none" style="stroke:#181818;stroke-width:1;stroke-linejoin:miter;stroke-miterlimit:10;"/></g><!--link personnel to UC_DEPOT--><g class="link" data-entity-1="ent0001" data-entity-2="ent0012" id="lnk27" data-source-line="41" data-link-type="dependency"><path d="M27,613.5369 C27,699.8669 27,875.9469 27,875.9469 C27,875.9469 82.37,875.9469 135.77,875.9469" style="stroke:#181818;stroke-width:1;" fill="none" id="personnel-to-UC_DEPOT"/><polygon points="140.77,875.9469,131.77,871.9469,135.77,875.9469,131.77,879.9469,140.77,875.9469" fill="#181818" style="stroke:#181818;stroke-width:1;stroke-linejoin:miter;stroke-miterlimit:10;"/></g><!--link personnel to UC_RETRAIT--><g class="link" data-entity-1="ent0001" data-entity-2="ent0013" id="lnk28" data-source-line="42" data-link-type="dependency"><path d="M43,613.6069 C43,683.9269 43,808.9469 43,808.9469 C43,808.9469 87.54,808.9469 134.37,808.9469" style="stroke:#181818;stroke-width:1;" fill="none" id="personnel-to-UC_RETRAIT"/><polygon points="139.37,808.9469,130.37,804.9469,134.37,808.9469,130.37,812.9469,139.37,808.9469" fill="#181818" style="stroke:#181818;stroke-width:1;stroke-linejoin:miter;stroke-miterlimit:10;"/></g><!--link personnel to UC_VIREMENT--><g class="link" data-entity-1="ent0001" data-entity-2="ent0014" id="lnk29" data-source-line="43" data-link-type="dependency"><path d="M59,613.3069 C59,664.5569 59,739.9469 59,739.9469 C59,739.9469 88.74,739.9469 126.06,739.9469" style="stroke:#181818;stroke-width:1;" fill="none" id="personnel-to-UC_VIREMENT"/><polygon points="131.06,739.9469,122.06,735.9469,126.06,739.9469,122.06,743.9469,131.06,739.9469" fill="#181818" style="stroke:#181818;stroke-width:1;stroke-linejoin:miter;stroke-miterlimit:10;"/></g><!--link personnel to UC_BILL--><g class="link" data-entity-1="ent0001" data-entity-2="ent0015" id="lnk30" data-source-line="44" data-link-type="dependency"><path d="M76,613.6169 C76,641.6569 76,671.9469 76,671.9469 C76,671.9469 103.97,671.9469 138.47,671.9469" style="stroke:#181818;stroke-width:1;" fill="none" id="personnel-to-UC_BILL"/><polygon points="143.47,671.9469,134.47,667.9469,138.47,671.9469,134.47,675.9469,143.47,671.9469" fill="#181818" style="stroke:#181818;stroke-width:1;stroke-linejoin:miter;stroke-miterlimit:10;"/></g><!--link personnel to UC_HIST--><g class="link" data-entity-1="ent0001" data-entity-2="ent0016" id="lnk31" data-source-line="45" data-link-type="dependency"><path d="M91.56,598.5869 C104.95,598.5869 115.37,598.5869 130.79,598.5869" style="stroke:#181818;stroke-width:1;" fill="none" id="personnel-to-UC_HIST"/><polygon points="135.79,598.5869,126.79,594.5869,130.79,598.5869,126.79,602.5869,135.79,598.5869" fill="#181818" style="stroke:#181818;stroke-width:1;stroke-linejoin:miter;stroke-miterlimit:10;"/></g><!--link personnel to UC_RELEVE--><g class="link" data-entity-1="ent0001" data-entity-2="ent0017" id="lnk32" data-source-line="46" data-link-type="dependency"><path d="M91.56,537.2669 C108.89,537.2669 124.61,537.2669 144.35,537.2669" style="stroke:#181818;stroke-width:1;" fill="none" id="personnel-to-UC_RELEVE"/><polygon points="149.35,537.2669,140.35,533.2669,144.35,537.2669,140.35,541.2669,149.35,537.2669" fill="#181818" style="stroke:#181818;stroke-width:1;stroke-linejoin:miter;stroke-miterlimit:10;"/></g><!--link personnel to UC_DASH--><g class="link" data-entity-1="ent0001" data-entity-2="ent0019" id="lnk33" data-source-line="47" data-link-type="dependency"><path d="M34,520.3269 C34,411.5069 34,149.9469 34,149.9469 C34,149.9469 230.31,149.9469 361.82,149.9469" style="stroke:#181818;stroke-width:1;" fill="none" id="personnel-to-UC_DASH"/><polygon points="366.82,149.9469,357.82,145.9469,361.82,149.9469,357.82,153.9469,366.82,149.9469" fill="#181818" style="stroke:#181818;stroke-width:1;stroke-linejoin:miter;stroke-miterlimit:10;"/></g><!--link personnel to UC_RECENT--><g class="link" data-entity-1="ent0001" data-entity-2="ent0020" id="lnk34" data-source-line="48" data-link-type="dependency"><path d="M69,520.3269 C69,458.1069 69,355.6869 69,355.6869 C69,355.6869 459.86,355.6869 642.33,355.6869" style="stroke:#181818;stroke-width:1;" fill="none" id="personnel-to-UC_RECENT"/><polygon points="647.33,355.6869,638.33,351.6869,642.33,355.6869,638.33,359.6869,647.33,355.6869" fill="#181818" style="stroke:#181818;stroke-width:1;stroke-linejoin:miter;stroke-miterlimit:10;"/></g><!--link personnel to UC_NOTIF--><g class="link" data-entity-1="ent0001" data-entity-2="ent0022" id="lnk35" data-source-line="49" data-link-type="dependency"><path d="M45,520.4469 C45,427.9969 45,229.9469 45,229.9469 C45,229.9469 284.2,229.9469 405.82,229.9469" style="stroke:#181818;stroke-width:1;" fill="none" id="personnel-to-UC_NOTIF"/><polygon points="410.82,229.9469,401.82,225.9469,405.82,229.9469,401.82,233.9469,410.82,229.9469" fill="#181818" style="stroke:#181818;stroke-width:1;stroke-linejoin:miter;stroke-miterlimit:10;"/></g><!--link admin to UC_USERS--><g class="link" data-entity-1="ent0002" data-entity-2="ent0023" id="lnk36" data-source-line="51" data-link-type="dependency"><path d="M273.74,447.1469 C312.34,447.1469 360.18,447.1469 402.45,447.1469" style="stroke:#181818;stroke-width:1;" fill="none" id="admin-to-UC_USERS"/><polygon points="407.45,447.1469,398.45,443.1469,402.45,447.1469,398.45,451.1469,407.45,447.1469" fill="#181818" style="stroke:#181818;stroke-width:1;stroke-linejoin:miter;stroke-miterlimit:10;"/></g><!--link admin to UC_AUDIT_VIEW--><g class="link" data-entity-1="ent0002" data-entity-2="ent0024" id="lnk37" data-source-line="52" data-link-type="dependency"><path d="M273.74,394.2069 C303.68,394.2069 337.19,394.2069 372.69,394.2069" style="stroke:#181818;stroke-width:1;" fill="none" id="admin-to-UC_AUDIT_VIEW"/><polygon points="377.69,394.2069,368.69,390.2069,372.69,394.2069,368.69,398.2069,377.69,394.2069" fill="#181818" style="stroke:#181818;stroke-width:1;stroke-linejoin:miter;stroke-miterlimit:10;"/></g><!--link chef to UC_AUDIT_VIEW--><g class="link" data-entity-1="ent0004" data-entity-2="ent0024" id="lnk38" data-source-line="53" data-link-type="dependency"><path d="M222,349.3669 C222,360.8969 222,370.5469 222,370.5469 C222,370.5469 316.07,370.5469 390.95,370.5469" style="stroke:#181818;stroke-width:1;" fill="none" id="chef-to-UC_AUDIT_VIEW"/><polygon points="395.95,370.5469,386.95,366.5469,390.95,370.5469,386.95,374.5469,395.95,370.5469" fill="#181818" style="stroke:#181818;stroke-width:1;stroke-linejoin:miter;stroke-miterlimit:10;"/></g><!--link chef to UC_VALIDATE--><g class="link" data-entity-1="ent0004" data-entity-2="ent0025" id="lnk39" data-source-line="54" data-link-type="dependency"><path d="M271.89,308.9469 C302.22,308.9469 336.83,308.9469 373.2,308.9469" style="stroke:#181818;stroke-width:1;" fill="none" id="chef-to-UC_VALIDATE"/><polygon points="378.2,308.9469,369.2,304.9469,373.2,308.9469,369.2,312.9469,378.2,308.9469" fill="#181818" style="stroke:#181818;stroke-width:1;stroke-linejoin:miter;stroke-miterlimit:10;"/></g><!--link chef to UC_ALERTS--><g class="link" data-entity-1="ent0004" data-entity-2="ent0021" id="lnk40" data-source-line="55" data-link-type="dependency"><path d="M222,272.4569 C222,239.4769 222,197.2569 222,197.2569 C222,197.2569 499.08,197.2569 645.91,197.2569" style="stroke:#181818;stroke-width:1;" fill="none" id="chef-to-UC_ALERTS"/><polygon points="650.91,197.2569,641.91,193.2569,645.91,197.2569,641.91,201.2569,650.91,197.2569" fill="#181818" style="stroke:#181818;stroke-width:1;stroke-linejoin:miter;stroke-miterlimit:10;"/></g><!--link UC_DEPOT to UC_CHECK--><g class="link" data-entity-1="ent0012" data-entity-2="ent0026" id="lnk41" data-source-line="57" data-link-type="dependency"><path d="M301.35,875.9469 C376.72,875.9469 478,875.9469 478,875.9469 C478,875.9469 478,834.8269 478,804.9169" style="stroke:#181818;stroke-width:1;stroke-dasharray:7,7;" fill="none" id="UC_DEPOT-to-UC_CHECK"/><polygon points="478,799.9169,474,808.9169,478,804.9169,482,808.9169,478,799.9169" fill="#181818" style="stroke:#181818;stroke-width:1;stroke-linejoin:miter;stroke-miterlimit:10;"/><text x="363.7" y="889.0138" fill="#000000" font-size="13" lengthAdjust="spacing" textLength="63.0068" font-family="sans-serif">«include»</text></g><!--link UC_RETRAIT to UC_CHECK--><g class="link" data-entity-1="ent0013" data-entity-2="ent0026" id="lnk42" data-source-line="58" data-link-type="dependency"><path d="M276.87,794.8969 C318.93,794.8969 371.48,794.8969 414.25,794.8969" style="stroke:#181818;stroke-width:1;stroke-dasharray:7,7;" fill="none" id="UC_RETRAIT-to-UC_CHECK"/><polygon points="419.25,794.8969,410.25,790.8969,414.25,794.8969,410.25,798.8969,419.25,794.8969" fill="#181818" style="stroke:#181818;stroke-width:1;stroke-linejoin:miter;stroke-miterlimit:10;"/><text x="284.06" y="790.9638" fill="#000000" font-size="13" lengthAdjust="spacing" textLength="63.0068" font-family="sans-serif">«include»</text></g><!--link UC_VIREMENT to UC_CHECK--><g class="link" data-entity-1="ent0014" data-entity-2="ent0026" id="lnk43" data-source-line="59" data-link-type="dependency"><path d="M282.01,755.3469 C322.96,755.3469 371.71,755.3469 412.57,755.3469" style="stroke:#181818;stroke-width:1;stroke-dasharray:7,7;" fill="none" id="UC_VIREMENT-to-UC_CHECK"/><polygon points="417.57,755.3469,408.57,751.3469,412.57,755.3469,408.57,759.3469,417.57,755.3469" fill="#181818" style="stroke:#181818;stroke-width:1;stroke-linejoin:miter;stroke-miterlimit:10;"/><text x="285.79" y="768.4138" fill="#000000" font-size="13" lengthAdjust="spacing" textLength="63.0068" font-family="sans-serif">«include»</text></g><!--link UC_BILL to UC_CHECK--><g class="link" data-entity-1="ent0015" data-entity-2="ent0026" id="lnk44" data-source-line="60" data-link-type="dependency"><path d="M298.73,671.9469 C341.9,671.9469 387,671.9469 387,671.9469 C387,671.9469 387,736.9169 387,761.5169" style="stroke:#181818;stroke-width:1;stroke-dasharray:7,7;" fill="none" id="UC_BILL-to-UC_CHECK"/><polygon points="387,766.5169,391,757.5169,387,761.5169,383,757.5169,387,766.5169" fill="#181818" style="stroke:#181818;stroke-width:1;stroke-linejoin:miter;stroke-miterlimit:10;"/><text x="323" y="688.1638" fill="#000000" font-size="13" lengthAdjust="spacing" textLength="63.0068" font-family="sans-serif">«include»</text></g><!--link UC_DASH to UC_RECENT--><g class="link" data-entity-1="ent0019" data-entity-2="ent0020" id="lnk45" data-source-line="61" data-link-type="dependency"><path d="M589.3,149.9469 C616.02,149.9469 637,149.9469 637,149.9469 C637,149.9469 637,288.6869 637,327.4269" style="stroke:#181818;stroke-width:1;stroke-dasharray:7,7;" fill="none" id="UC_DASH-to-UC_RECENT"/><polygon points="637,332.4269,641,323.4269,637,327.4269,633,323.4269,637,332.4269" fill="#181818" style="stroke:#181818;stroke-width:1;stroke-linejoin:miter;stroke-miterlimit:10;"/><text x="573" y="230.4038" fill="#000000" font-size="13" lengthAdjust="spacing" textLength="63.0068" font-family="sans-serif">«include»</text></g><!--link UC_DASH to UC_ALERTS--><g class="link" data-entity-1="ent0019" data-entity-2="ent0021" id="lnk46" data-source-line="62" data-link-type="dependency"><path d="M562,166.3569 C562,177.5269 562,190.2869 562,190.2869 C562,190.2869 614.86,190.2869 664.13,190.2869" style="stroke:#181818;stroke-width:1;stroke-dasharray:7,7;" fill="none" id="UC_DASH-to-UC_ALERTS"/><polygon points="669.13,190.2869,660.13,186.2869,664.13,190.2869,660.13,194.2869,669.13,190.2869" fill="#181818" style="stroke:#181818;stroke-width:1;stroke-linejoin:miter;stroke-miterlimit:10;"/><text x="539.6" y="203.3538" fill="#000000" font-size="13" lengthAdjust="spacing" textLength="63.0068" font-family="sans-serif">«include»</text></g><g class="legend" data-source-line="64"><rect x="152.3745" y="929.9469" width="564.251" height="176.9688" fill="#DDDDDD" style="stroke:#000000;stroke-width:1;" rx="7.5" ry="7.5"/><text x="162.2485" y="949.942" fill="#000000" font-size="14" lengthAdjust="spacing" textLength="55.1865" font-weight="700" font-family="sans-serif">Détails</text><text x="286.7993" y="949.942" fill="#000000" font-size="14" lengthAdjust="spacing" textLength="4.874" font-weight="700" font-family="sans-serif"> </text><text x="161.8247" y="966.2389" fill="#000000" font-size="14" lengthAdjust="spacing" textLength="59.5273" font-family="sans-serif">Contrôle</text><text x="291.2495" y="966.2389" fill="#000000" font-size="14" lengthAdjust="spacing" textLength="200.2656" font-family="sans-serif">Solde suffisant, compte actif</text><text x="161.8247" y="982.5357" fill="#000000" font-size="14" lengthAdjust="spacing" textLength="120.5244" font-family="sans-serif">Paiement facture</text><text x="291.2495" y="982.5357" fill="#000000" font-size="14" lengthAdjust="spacing" textLength="280.916" font-family="sans-serif">Facturier, référence, débit compte, reçu</text><text x="161.8247" y="998.8326" fill="#000000" font-size="14" lengthAdjust="spacing" textLength="71.7842" font-family="sans-serif">Historique</text><text x="291.2495" y="998.8326" fill="#000000" font-size="14" lengthAdjust="spacing" textLength="320.7354" font-family="sans-serif">Date, heure, montant, utilisateur responsable</text><text x="161.8247" y="1015.1295" fill="#000000" font-size="14" lengthAdjust="spacing" textLength="42.9844" font-family="sans-serif">Filtres</text><text x="291.2495" y="1015.1295" fill="#000000" font-size="14" lengthAdjust="spacing" textLength="214.9629" font-family="sans-serif">Date, type, compte, utilisateur</text><text x="161.8247" y="1031.4264" fill="#000000" font-size="14" lengthAdjust="spacing" textLength="79.3037" font-family="sans-serif">Utilisateurs</text><text x="291.2495" y="1031.4264" fill="#000000" font-size="14" lengthAdjust="spacing" textLength="383.5166" font-family="sans-serif">Créer, modifier, rôles, activer/désactiver — admin seul</text><text x="161.8247" y="1047.7232" fill="#000000" font-size="14" lengthAdjust="spacing" textLength="70.2188" font-family="sans-serif">Validation</text><text x="291.2495" y="1047.7232" fill="#000000" font-size="14" lengthAdjust="spacing" textLength="267.1484" font-family="sans-serif">Chef d'agence — opérations sensibles</text><text x="161.8247" y="1064.0201" fill="#000000" font-size="14" lengthAdjust="spacing" textLength="36.7158" font-family="sans-serif">Audit</text><text x="291.2495" y="1064.0201" fill="#000000" font-size="14" lengthAdjust="spacing" textLength="255.0693" font-family="sans-serif">Opérations importantes journalisées</text><text x="161.8247" y="1080.317" fill="#000000" font-size="14" lengthAdjust="spacing" textLength="87.623" font-family="sans-serif">Notifications</text><text x="291.2495" y="1080.317" fill="#000000" font-size="14" lengthAdjust="spacing" textLength="415.9258" font-family="sans-serif">Cloche + badge ; centre /notifications ; lu / tout marquer lu</text><text x="161.8247" y="1096.6139" fill="#000000" font-size="14" lengthAdjust="spacing" textLength="99.6816" font-family="sans-serif">Alertes métier</text><text x="291.2495" y="1096.6139" fill="#000000" font-size="14" lengthAdjust="spacing" textLength="405.248" font-family="sans-serif">Dashboard : commandes chéquier en attente ou en cours</text><line x1="157.3745" y1="936.9469" x2="711.6255" y2="936.9469" style="stroke:#000000;stroke-width:1;"/><line x1="157.3745" y1="953.2438" x2="711.6255" y2="953.2438" style="stroke:#000000;stroke-width:1;"/><line x1="157.3745" y1="969.5406" x2="711.6255" y2="969.5406" style="stroke:#000000;stroke-width:1;"/><line x1="157.3745" y1="985.8375" x2="711.6255" y2="985.8375" style="stroke:#000000;stroke-width:1;"/><line x1="157.3745" y1="1002.1344" x2="711.6255" y2="1002.1344" style="stroke:#000000;stroke-width:1;"/><line x1="157.3745" y1="1018.4313" x2="711.6255" y2="1018.4313" style="stroke:#000000;stroke-width:1;"/><line x1="157.3745" y1="1034.7281" x2="711.6255" y2="1034.7281" style="stroke:#000000;stroke-width:1;"/><line x1="157.3745" y1="1051.025" x2="711.6255" y2="1051.025" style="stroke:#000000;stroke-width:1;"/><line x1="157.3745" y1="1067.3219" x2="711.6255" y2="1067.3219" style="stroke:#000000;stroke-width:1;"/><line x1="157.3745" y1="1083.6188" x2="711.6255" y2="1083.6188" style="stroke:#000000;stroke-width:1;"/><line x1="157.3745" y1="1099.9156" x2="711.6255" y2="1099.9156" style="stroke:#000000;stroke-width:1;"/><line x1="157.3745" y1="936.9469" x2="157.3745" y2="1099.9156" style="stroke:#000000;stroke-width:1;"/><line x1="286.7993" y1="936.9469" x2="286.7993" y2="1099.9156" style="stroke:#000000;stroke-width:1;"/><line x1="711.6255" y1="936.9469" x2="711.6255" y2="1099.9156" style="stroke:#000000;stroke-width:1;"/></g><?plantuml-src XLRDRkCs4BxhAGQvxA7Efa1xQhS6N5jfZBf9O3lfnK11IoER3KKg_4aHR0hqslk-myBtVGEzIP-aG-h7T9niJfA7tmn77x_vQ8651Qj0yytMGiurPfOhcPWxBYkcMGbcotBr5vSRA9Wm6ArKBBjZ6rpOHu7W4vdSY1WWLOu6A_ZksoYecRppmU_ZeE0IxME5eBJTgYInt5BDgwhUQURxCO0MZAjGFt3Z-qjOPfM6aslKHac9OYLp1F6E-f4PdW0pK7LBFNYKbrnoOwacEXr0p8VwTKgsi6OoOqH4i-v3tVfuYmNayHuPHQYyBmAdhZfz6aRRXjpZiCyvZYOzWN2o98uC2mTXJk1Z0k0CPipGKbeKX7EemKd8wrrLVx6Xavln7vFq-chvAbWZVJVlmVDqEHzDNuS_40CbzT_XRwVpzBVqyY3XcZq6C98qAB6bZC0_JsUp63Yc3t724bYysz81ACtlNO--c2uEojR_vjnsJGjyg7ShgHozrv_TllrPUficVn_mjjWBv1bjKGC8bgq5CWSacBNIUK_VQ74HvznouvZW9YGPK7inhgIkTncHWsRVp_WPEV6Mf2E1ck0hMTOxor5tUQDPEbykNirRIQaiBtZ6MZ4qMPTNo-bvdFGBzTRkv2odfeF2U_pD8fs_kWdygPoMJ7XbktolaD7DPBgaSqz_Fs25ACdRKzzJif86fU74Qw-NqMmw6It34SNRMbr_4K48zKxm3LzJjzQVS1ZVVSMkplWY7V-Q9FsWmEdfS2_set0dwwE5Nhz7Aq6iHz4WoXVA1zaTT-Erym9w_EAEpV5rjj74cYCw24K7q7Z6LyCzuGVOHbv9HnYyVp_iMOKVuCC7BZFXSXmEaprxRw0wAj-0ULxVW7ZQEaX3rjSnpUSymoG2oMXpccLhLKbQVVe99ZHbZ0lZtvzy27hfqVj22LARSKL1WoBj039LLXR1MsxHugyP3_xNMHk5piCR3Uy0QFuBFt9q3moy3Q-vROiC6fzggrpqPaS_9imlRsamwL5IFs7lQ5ufrLGqcTwVsWBdN5YAzjd-aXpqMyMv3Vuccdx_rTIexxTKERb8qpbnO0RXMnzGdr7pfds7__xvr5o8OD29jc8O-32Ilbvy0mPyP8lGUO1fKqVUJkWPt-EyhEYEPzuxE-FXXfhiSYvZl_Cx2aM2Xc_eMiut23-2zrqwZhC3OwIuS716_sISXPBfUt-BYUuKHetvGkkzWKopNIkcSz8IaLaoiXz_czUxU-SHA85PwnqUwEQXNvaAX2Oaj4Pk_mC0?></g></svg>