<svg xmlns="http://www.w3.org/2000/svg" xmlns:xlink="http://www.w3.org/1999/xlink" version="1.1" data-diagram-type="DESCRIPTION" style="width:715px;height:1100px;background:#FFFFFF;" width="715px" height="1100px" viewBox="0 0 715 1100" zoomAndPan="magnify" preserveAspectRatio="none" contentStyleType="text/css"><?plantuml 1.2026.7beta3?><defs/><g><g class="title" data-source-line="11"><text x="252.0017" y="30.9951" fill="#000000" font-size="14" lengthAdjust="spacing" textLength="204.4766" font-weight="700" font-family="sans-serif">Opérations et supervision</text></g><rect x="3" y="56.2969" width="699.48" height="16.6406" fill="#FFFFCC" style="stroke:#FFDD88;stroke-width:3;" rx="2.5" ry="2.5"/><text x="10" y="66.9375" fill="#000000" font-size="10" lengthAdjust="spacing" textLength="295.0049" font-family="monospace">Please use CSS style instead of skinparam padding</text><!--cluster TX--><g class="cluster" data-qualified-name="TX" id="ent0010" data-source-line="24"><rect x="275.17" y="81.9375" width="202.52" height="496" fill="none" style="stroke:#181818;stroke-width:1;" rx="2.5" ry="2.5"/><text x="332.9915" y="103.0762" fill="#000000" font-size="12" lengthAdjust="spacing" textLength="86.877" font-weight="700" font-family="sans-serif">Transactions</text></g><!--cluster SUP--><g class="cluster" data-qualified-name="SUP" id="ent0017" data-source-line="33"><rect x="256.9" y="631.9375" width="444.58" height="455" fill="none" style="stroke:#181818;stroke-width:1;" rx="2.5" ry="2.5"/><text x="439.2847" y="653.0762" fill="#000000" font-size="12" lengthAdjust="spacing" textLength="79.8105" font-weight="700" font-family="sans-serif">Supervision</text></g><!--entity UC_DEPOT--><g class="entity" data-qualified-name="TX.UC_DEPOT" id="ent0011" data-source-line="25"><ellipse cx="376.4285" cy="313.9349" rx="66.5285" ry="17.8574" fill="#F1F1F1" style="stroke:#181818;stroke-width:0.5;"/><text x="320.3572" y="317.4193" fill="#000000" font-size="12" lengthAdjust="spacing" textLength="112.1426" font-family="sans-serif">Effectuer un dépôt</text></g><!--entity UC_RETRAIT--><g class="entity" data-qualified-name="TX.UC_RETRAIT" id="ent0012" data-source-line="26"><ellipse cx="376.4268" cy="243.9388" rx="68.0068" ry="17.8913" fill="#F1F1F1" style="stroke:#181818;stroke-width:0.5;"/><text x="319.0137" y="247.4232" fill="#000000" font-size="12" lengthAdjust="spacing" textLength="114.8262" font-family="sans-serif">Effectuer un retrait</text></g><!--entity UC_VIREMENT--><g class="entity" data-qualified-name="TX.UC_VIREMENT" id="ent0013" data-source-line="27"><ellipse cx="376.4264" cy="173.9332" rx="77.2564" ry="18.0757" fill="#F1F1F1" style="stroke:#181818;stroke-width:0.5;"/><text x="310.6198" y="177.4176" fill="#000000" font-size="12" lengthAdjust="spacing" textLength="131.6133" font-family="sans-serif">Effectuer un virement</text></g><!--entity UC_BILL--><g class="entity" data-qualified-name="TX.UC_BILL" id="ent0014" data-source-line="28"><ellipse cx="376.4341" cy="535.9364" rx="63.7141" ry="17.7889" fill="#F1F1F1" style="stroke:#181818;stroke-width:0.5;"/><text x="322.9175" y="539.4208" fill="#000000" font-size="12" lengthAdjust="spacing" textLength="107.0332" font-family="sans-serif">Payer une facture</text></g><!--entity UC_HIST--><g class="entity" data-qualified-name="TX.UC_HIST" id="ent0015" data-source-line="29"><ellipse cx="376.4291" cy="465.9381" rx="75.3191" ry="18.0406" fill="#F1F1F1" style="stroke:#181818;stroke-width:0.5;"/><text x="312.3803" y="469.4225" fill="#000000" font-size="12" lengthAdjust="spacing" textLength="128.0977" font-family="sans-serif">Consulter l'historique</text></g><!--entity UC_RELEVE--><g class="entity" data-qualified-name="TX.UC_RELEVE" id="ent0016" data-source-line="30"><ellipse cx="376.4257" cy="389.9325" rx="56.1957" ry="23.885" fill="#F1F1F1" style="stroke:#181818;stroke-width:0.5;"/><text x="328.4697" y="391.3628" fill="#000000" font-size="12" lengthAdjust="spacing" textLength="95.9121" font-family="sans-serif">Éditer un relevé</text><text x="353.7851" y="405.3315" fill="#000000" font-size="12" lengthAdjust="spacing" textLength="45.2813" font-family="sans-serif">ou reçu</text></g><!--entity UC_DASH--><g class="entity" data-qualified-name="SUP.UC_DASH" id="ent0018" data-source-line="34"><ellipse cx="376.4305" cy="727.9336" rx="95.5305" ry="21.5061" fill="#F1F1F1" style="stroke:#181818;stroke-width:0.5;"/><text x="290.743" y="731.418" fill="#000000" font-size="12" lengthAdjust="spacing" textLength="171.375" font-family="sans-serif">Consulter le tableau de bord</text></g><!--entity UC_RECENT--><g class="entity" data-qualified-name="SUP.UC_RECENT" id="ent0019" data-source-line="35"><ellipse cx="595.7191" cy="729.9386" rx="81.7591" ry="24.3011" fill="#F1F1F1" style="stroke:#181818;stroke-width:0.5;"/><text x="522.4915" y="732.5654" fill="#000000" font-size="12" lengthAdjust="spacing" textLength="146.4551" font-family="sans-serif">Visualiser les opérations</text><text x="569.598" y="746.5341" fill="#000000" font-size="12" lengthAdjust="spacing" textLength="52.2422" font-family="sans-serif">récentes</text></g><!--entity UC_ALERTS--><g class="entity" data-qualified-name="SUP.UC_ALERTS" id="ent0020" data-source-line="36"><ellipse cx="595.7166" cy="924.9354" rx="69.6266" ry="23.9879" fill="#F1F1F1" style="stroke:#181818;stroke-width:0.5;"/><text x="533.9764" y="927.5148" fill="#000000" font-size="12" lengthAdjust="spacing" textLength="123.4805" font-family="sans-serif">Consulter les alertes</text><text x="576.0027" y="941.4836" fill="#000000" font-size="12" lengthAdjust="spacing" textLength="39.4277" font-family="sans-serif">métier</text></g><!--entity UC_NOTIF--><g class="entity" data-qualified-name="SUP.UC_NOTIF" id="ent0021" data-source-line="37"><ellipse cx="376.4335" cy="808.9383" rx="51.4535" ry="25.5708" fill="#F1F1F1" style="stroke:#181818;stroke-width:0.5;"/><text x="337.2724" y="806.1156" fill="#000000" font-size="12" lengthAdjust="spacing" textLength="78.3223" font-family="sans-serif">Consulter les</text><text x="339.5663" y="820.0843" fill="#000000" font-size="12" lengthAdjust="spacing" textLength="73.7344" font-family="sans-serif">notifications</text></g><!--entity UC_USERS--><g class="entity" data-qualified-name="SUP.UC_USERS" id="ent0022" data-source-line="38"><ellipse cx="376.4319" cy="886.9392" rx="73.7919" ry="18.0117" fill="#F1F1F1" style="stroke:#181818;stroke-width:0.5;"/><text x="313.7688" y="890.4236" fill="#000000" font-size="12" lengthAdjust="spacing" textLength="125.3262" font-family="sans-serif">Gérer les utilisateurs</text></g><!--entity UC_AUDIT_VIEW--><g class="entity" data-qualified-name="SUP.UC_AUDIT_VIEW" id="ent0023" data-source-line="39"><ellipse cx="376.4265" cy="959.9368" rx="91.5465" ry="20.7093" fill="#F1F1F1" style="stroke:#181818;stroke-width:0.5;"/><text x="295.0573" y="963.4212" fill="#000000" font-size="12" lengthAdjust="spacing" textLength="162.7383" font-family="sans-serif">Consulter le journal d'audit</text></g><!--entity UC_VALIDATE--><g class="entity" data-qualified-name="SUP.UC_VALIDATE" id="ent0024" data-source-line="40"><ellipse cx="376.4331" cy="1038.9394" rx="73.3531" ry="24.1719" fill="#F1F1F1" style="stroke:#181818;stroke-width:0.5;"/><text x="311.4321" y="1041.3083" fill="#000000" font-size="12" lengthAdjust="spacing" textLength="130.002" font-family="sans-serif">Valider une opération</text><text x="351.853" y="1055.2771" fill="#000000" font-size="12" lengthAdjust="spacing" textLength="49.1602" font-family="sans-serif">sensible</text></g><!--entity personnel--><g class="entity" data-qualified-name="personnel" id="ent0001" data-source-line="13"><ellipse cx="190.2034" cy="568.4675" rx="8" ry="8" fill="#F1F1F1" style="stroke:#181818;stroke-width:0.5;"/><path d="M190.2034,576.4675 L190.2034,603.4675 M177.2034,584.4675 L203.2034,584.4675 M190.2034,603.4675 L177.2034,618.4675 M190.2034,603.4675 L203.2034,618.4675" style="stroke:#181818;stroke-width:0.5;" fill="none"/><text x="155.51" y="639.1062" fill="#000000" font-size="12" lengthAdjust="spacing" textLength="59.0742" font-family="sans-serif">Personnel</text><text x="155.51" y="653.0749" fill="#000000" font-size="12" lengthAdjust="spacing" textLength="69.3867" font-family="sans-serif">de l'agence</text></g><!--entity admin--><g class="entity" data-qualified-name="admin" id="ent0002" data-source-line="14"><ellipse cx="51.7601" cy="688.4575" rx="8" ry="8" fill="#F1F1F1" style="stroke:#181818;stroke-width:0.5;"/><path d="M51.7601,696.4575 L51.7601,723.4575 M38.7601,704.4575 L64.7601,704.4575 M51.7601,723.4575 L38.7601,738.4575 M51.7601,723.4575 L64.7601,738.4575" style="stroke:#181818;stroke-width:0.5;" fill="none"/><text x="6.93" y="759.0962" fill="#000000" font-size="12" lengthAdjust="spacing" textLength="89.6602" font-family="sans-serif">Administrateur</text></g><!--entity agent--><g class="entity" data-qualified-name="agent" id="ent0003" data-source-line="15"><ellipse cx="51.7559" cy="812.4575" rx="8" ry="8" fill="#F1F1F1" style="stroke:#181818;stroke-width:0.5;"/><path d="M51.7559,820.4575 L51.7559,847.4575 M38.7559,828.4575 L64.7559,828.4575 M51.7559,847.4575 L38.7559,862.4575 M51.7559,847.4575 L64.7559,862.4575" style="stroke:#181818;stroke-width:0.5;" fill="none"/><text x="6" y="883.0962" fill="#000000" font-size="12" lengthAdjust="spacing" textLength="91.5117" font-family="sans-serif">Agent bancaire</text></g><!--entity chef--><g class="entity" data-qualified-name="chef" id="ent0004" data-source-line="16"><ellipse cx="51.7509" cy="936.4575" rx="8" ry="8" fill="#F1F1F1" style="stroke:#181818;stroke-width:0.5;"/><path d="M51.7509,944.4575 L51.7509,971.4575 M38.7509,952.4575 L64.7509,952.4575 M51.7509,971.4575 L38.7509,986.4575 M51.7509,971.4575 L64.7509,986.4575" style="stroke:#181818;stroke-width:0.5;" fill="none"/><text x="8.62" y="1007.0962" fill="#000000" font-size="12" lengthAdjust="spacing" textLength="86.2617" font-family="sans-serif">Chef d'agence</text></g><!--entity UC_CHECK--><g class="entity" data-qualified-name="UC_CHECK" id="ent0025" data-source-line="43"><ellipse cx="595.7242" cy="313.9335" rx="71.7042" ry="25.016" fill="#F1F1F1" style="stroke:#181818;stroke-width:0.5;"/><text x="535.1676" y="314.003" fill="#000000" font-size="12" lengthAdjust="spacing" textLength="121.1133" font-family="sans-serif">Contrôler l'éligibilité</text><text x="554.193" y="327.9717" fill="#000000" font-size="12" lengthAdjust="spacing" textLength="83.0625" font-family="sans-serif">de l'opération</text></g><!--link admin to agent--><!--link agent to chef--><!--link admin to personnel--><g class="link" data-entity-1="ent0002" data-entity-2="ent0001" id="lnk7" data-source-line="20" data-link-type="extension"><path d="M104.95,692.7975 C134.55,692.7975 165.48,692.7975 165.48,692.7975 C165.48,692.7975 165.48,697.7075 165.48,682.0575" style="stroke:#181818;stroke-width:1;" fill="none" id="admin-to-personnel"/><polygon points="165.48,664.0575,159.48,682.0575,171.48,682.0575,165.48,664.0575" fill="none" style="stroke:#181818;stroke-width:1;stroke-linejoin:miter;stroke-miterlimit:10;"/></g><!--link agent to personnel--><g class="link" data-entity-1="ent0003" data-entity-2="ent0001" id="lnk8" data-source-line="21" data-link-type="extension"><path d="M105.68,819.2275 C141.69,819.2275 182.48,819.2275 182.48,819.2275 C182.48,819.2275 182.48,743.6575 182.48,682.2475" style="stroke:#181818;stroke-width:1;" fill="none" id="agent-to-personnel"/><polygon points="182.48,664.2475,176.48,682.2475,188.48,682.2475,182.48,664.2475" fill="none" style="stroke:#181818;stroke-width:1;stroke-linejoin:miter;stroke-miterlimit:10;"/></g><!--link chef to personnel--><g class="link" data-entity-1="ent0004" data-entity-2="ent0001" id="lnk9" data-source-line="22" data-link-type="extension"><path d="M103.01,931.7075 C145.67,931.7075 199.48,931.7075 199.48,931.7075 C199.48,931.7075 199.48,773.1075 199.48,682.3875" style="stroke:#181818;stroke-width:1;" fill="none" id="chef-to-personnel"/><polygon points="199.48,664.3875,193.48,682.3875,205.48,682.3875,199.48,664.3875" fill="none" style="stroke:#181818;stroke-width:1;stroke-linejoin:miter;stroke-miterlimit:10;"/></g><!--link TX to SUP--><!--link SUP to UC_CHECK--><!--link personnel to UC_DEPOT--><g class="link" data-entity-1="ent0001" data-entity-2="ent0011" id="lnk28" data-source-line="48" data-link-type="dependency"><path d="M190.48,559.6875 C190.48,474.2275 190.48,313.9375 190.48,313.9375 C190.48,313.9375 251.25,313.9375 304.56,313.9375" style="stroke:#181818;stroke-width:1;" fill="none" id="personnel-to-UC_DEPOT"/><polygon points="309.56,313.9375,300.56,309.9375,304.56,313.9375,300.56,317.9375,309.56,313.9375" fill="#181818" style="stroke:#181818;stroke-width:1;stroke-linejoin:miter;stroke-miterlimit:10;"/></g><!--link personnel to UC_RETRAIT--><g class="link" data-entity-1="ent0001" data-entity-2="ent0012" id="lnk29" data-source-line="49" data-link-type="dependency"><path d="M176.48,559.6075 C176.48,458.0075 176.48,243.9375 176.48,243.9375 C176.48,243.9375 245.25,243.9375 303.18,243.9375" style="stroke:#181818;stroke-width:1;" fill="none" id="personnel-to-UC_RETRAIT"/><polygon points="308.18,243.9375,299.18,239.9375,303.18,243.9375,299.18,247.9375,308.18,243.9375" fill="#181818" style="stroke:#181818;stroke-width:1;stroke-linejoin:miter;stroke-miterlimit:10;"/></g><!--link personnel to UC_VIREMENT--><g class="link" data-entity-1="ent0001" data-entity-2="ent0013" id="lnk30" data-source-line="50" data-link-type="dependency"><path d="M162.48,559.5375 C162.48,443.2775 162.48,173.9375 162.48,173.9375 C162.48,173.9375 232.66,173.9375 293.89,173.9375" style="stroke:#181818;stroke-width:1;" fill="none" id="personnel-to-UC_VIREMENT"/><polygon points="298.89,173.9375,289.89,169.9375,293.89,173.9375,289.89,177.9375,298.89,173.9375" fill="#181818" style="stroke:#181818;stroke-width:1;stroke-linejoin:miter;stroke-miterlimit:10;"/></g><!--link personnel to UC_BILL--><g class="link" data-entity-1="ent0001" data-entity-2="ent0014" id="lnk31" data-source-line="51" data-link-type="dependency"><path d="M219.48,559.5675 C219.48,546.4075 219.48,535.9375 219.48,535.9375 C219.48,535.9375 264.14,535.9375 307.59,535.9375" style="stroke:#181818;stroke-width:1;" fill="none" id="personnel-to-UC_BILL"/><polygon points="312.59,535.9375,303.59,531.9375,307.59,535.9375,303.59,539.9375,312.59,535.9375" fill="#181818" style="stroke:#181818;stroke-width:1;stroke-linejoin:miter;stroke-miterlimit:10;"/></g><!--link personnel to UC_HIST--><g class="link" data-entity-1="ent0001" data-entity-2="ent0015" id="lnk32" data-source-line="52" data-link-type="dependency"><path d="M233.21,585.9575 C266.68,585.9575 307.48,585.9575 307.48,585.9575 C307.48,585.9575 307.48,504.7175 307.48,478.4475" style="stroke:#181818;stroke-width:1;" fill="none" id="personnel-to-UC_HIST"/><polygon points="307.48,473.4475,303.48,482.4475,307.48,478.4475,311.48,482.4475,307.48,473.4475" fill="#181818" style="stroke:#181818;stroke-width:1;stroke-linejoin:miter;stroke-miterlimit:10;"/></g><!--link personnel to UC_RELEVE--><g class="link" data-entity-1="ent0001" data-entity-2="ent0016" id="lnk33" data-source-line="53" data-link-type="dependency"><path d="M204.48,559.6075 C204.48,493.9775 204.48,389.9375 204.48,389.9375 C204.48,389.9375 264.98,389.9375 315.13,389.9375" style="stroke:#181818;stroke-width:1;" fill="none" id="personnel-to-UC_RELEVE"/><polygon points="320.13,389.9375,311.13,385.9375,315.13,389.9375,311.13,393.9375,320.13,389.9375" fill="#181818" style="stroke:#181818;stroke-width:1;stroke-linejoin:miter;stroke-miterlimit:10;"/></g><!--link personnel to UC_DASH--><g class="link" data-entity-1="ent0001" data-entity-2="ent0018" id="lnk34" data-source-line="54" data-link-type="dependency"><path d="M233.31,637.9175 C260.49,637.9175 290.48,637.9175 290.48,637.9175 C290.48,637.9175 290.48,690.0875 290.48,713.3075" style="stroke:#181818;stroke-width:1;" fill="none" id="personnel-to-UC_DASH"/><polygon points="290.48,718.3075,294.48,709.3075,290.48,713.3075,286.48,709.3075,290.48,718.3075" fill="#181818" style="stroke:#181818;stroke-width:1;stroke-linejoin:miter;stroke-miterlimit:10;"/></g><!--link personnel to UC_RECENT--><g class="link" data-entity-1="ent0001" data-entity-2="ent0019" id="lnk35" data-source-line="55" data-link-type="dependency"><path d="M233.25,611.9375 C322.5,611.9375 519.48,611.9375 519.48,611.9375 C519.48,611.9375 519.48,687.8575 519.48,715.6775" style="stroke:#181818;stroke-width:1;" fill="none" id="personnel-to-UC_RECENT"/><polygon points="519.48,720.6775,523.48,711.6775,519.48,715.6775,515.48,711.6775,519.48,720.6775" fill="#181818" style="stroke:#181818;stroke-width:1;stroke-linejoin:miter;stroke-miterlimit:10;"/></g><!--link personnel to UC_NOTIF--><g class="link" data-entity-1="ent0001" data-entity-2="ent0021" id="lnk36" data-source-line="56" data-link-type="dependency"><path d="M216.48,664.0075 C216.48,717.7075 216.48,793.6575 216.48,793.6575 C216.48,793.6575 282.01,793.6575 329.4,793.6575" style="stroke:#181818;stroke-width:1;" fill="none" id="personnel-to-UC_NOTIF"/><polygon points="334.4,793.6575,325.4,789.6575,329.4,793.6575,325.4,797.6575,334.4,793.6575" fill="#181818" style="stroke:#181818;stroke-width:1;stroke-linejoin:miter;stroke-miterlimit:10;"/></g><!--link admin to UC_USERS--><g class="link" data-entity-1="ent0002" data-entity-2="ent0022" id="lnk37" data-source-line="58" data-link-type="dependency"><path d="M104.92,759.4675 C181.69,759.4675 314.48,759.4675 314.48,759.4675 C314.48,759.4675 314.48,841.8875 314.48,871.9375" style="stroke:#181818;stroke-width:1;" fill="none" id="admin-to-UC_USERS"/><polygon points="314.48,876.9375,318.48,867.9375,314.48,871.9375,310.48,867.9375,314.48,876.9375" fill="#181818" style="stroke:#181818;stroke-width:1;stroke-linejoin:miter;stroke-miterlimit:10;"/></g><!--link admin to UC_AUDIT_VIEW--><g class="link" data-entity-1="ent0002" data-entity-2="ent0023" id="lnk38" data-source-line="59" data-link-type="dependency"><path d="M105.02,764.6975 C176.47,764.6975 294.48,764.6975 294.48,764.6975 C294.48,764.6975 294.48,906.5175 294.48,945.5175" style="stroke:#181818;stroke-width:1;" fill="none" id="admin-to-UC_AUDIT_VIEW"/><polygon points="294.48,950.5175,298.48,941.5175,294.48,945.5175,290.48,941.5175,294.48,950.5175" fill="#181818" style="stroke:#181818;stroke-width:1;stroke-linejoin:miter;stroke-miterlimit:10;"/></g><!--link chef to UC_AUDIT_VIEW--><g class="link" data-entity-1="ent0004" data-entity-2="ent0023" id="lnk39" data-source-line="60" data-link-type="dependency"><path d="M103.2,959.9375 C151.84,959.9375 220.91,959.9375 279.67,959.9375" style="stroke:#181818;stroke-width:1;" fill="none" id="chef-to-UC_AUDIT_VIEW"/><polygon points="284.67,959.9375,275.67,955.9375,279.67,959.9375,275.67,963.9375,284.67,959.9375" fill="#181818" style="stroke:#181818;stroke-width:1;stroke-linejoin:miter;stroke-miterlimit:10;"/></g><!--link chef to UC_VALIDATE--><g class="link" data-entity-1="ent0004" data-entity-2="ent0024" id="lnk40" data-source-line="61" data-link-type="dependency"><path d="M52.48,1018.3875 C52.48,1030.6075 52.48,1040.5175 52.48,1040.5175 C52.48,1040.5175 202.34,1040.5175 297.92,1040.5175" style="stroke:#181818;stroke-width:1;" fill="none" id="chef-to-UC_VALIDATE"/><polygon points="302.92,1040.5175,293.92,1036.5175,297.92,1040.5175,293.92,1044.5175,302.92,1040.5175" fill="#181818" style="stroke:#181818;stroke-width:1;stroke-linejoin:miter;stroke-miterlimit:10;"/></g><!--link chef to UC_ALERTS--><g class="link" data-entity-1="ent0004" data-entity-2="ent0020" id="lnk41" data-source-line="62" data-link-type="dependency"><path d="M102.93,935.4675 C202.9,935.4675 418.86,935.4675 527.67,935.4675" style="stroke:#181818;stroke-width:1;" fill="none" id="chef-to-UC_ALERTS"/><polygon points="532.67,935.4675,523.67,931.4675,527.67,935.4675,523.67,939.4675,532.67,935.4675" fill="#181818" style="stroke:#181818;stroke-width:1;stroke-linejoin:miter;stroke-miterlimit:10;"/></g><!--link UC_DEPOT to UC_CHECK--><g class="link" data-entity-1="ent0011" data-entity-2="ent0025" id="lnk42" data-source-line="64" data-link-type="dependency"><path d="M443.41,313.9375 C468.86,313.9375 492.93,313.9375 518.81,313.9375" style="stroke:#181818;stroke-width:1;stroke-dasharray:7,7;" fill="none" id="UC_DEPOT-to-UC_CHECK"/><polygon points="523.81,313.9375,514.81,309.9375,518.81,313.9375,514.81,317.9375,523.81,313.9375" fill="#181818" style="stroke:#181818;stroke-width:1;stroke-linejoin:miter;stroke-miterlimit:10;"/><text x="416.61" y="303.0762" fill="#000000" font-size="12" lengthAdjust="spacing" textLength="58.1602" font-family="sans-serif">«include»</text></g><!--link UC_RETRAIT to UC_CHECK--><g class="link" data-entity-1="ent0012" data-entity-2="ent0025" id="lnk43" data-source-line="65" data-link-type="dependency"><path d="M376.48,262.1775 C376.48,276.3875 376.48,293.6975 376.48,293.6975 C376.48,293.6975 482.9,293.6975 546.88,293.6975" style="stroke:#181818;stroke-width:1;stroke-dasharray:7,7;" fill="none" id="UC_RETRAIT-to-UC_CHECK"/><polygon points="551.88,293.6975,542.88,289.6975,546.88,293.6975,542.88,297.6975,551.88,293.6975" fill="#181818" style="stroke:#181818;stroke-width:1;stroke-linejoin:miter;stroke-miterlimit:10;"/><text x="457.42" y="282.8362" fill="#000000" font-size="12" lengthAdjust="spacing" textLength="58.1602" font-family="sans-serif">«include»</text></g><!--link UC_VIREMENT to UC_CHECK--><g class="link" data-entity-1="ent0013" data-entity-2="ent0025" id="lnk44" data-source-line="66" data-link-type="dependency"><path d="M448.48,180.5875 C448.48,205.4175 448.48,291.3075 448.48,291.3075 C448.48,291.3075 514.26,291.3075 557.67,291.3075" style="stroke:#181818;stroke-width:1;stroke-dasharray:7,7;" fill="none" id="UC_VIREMENT-to-UC_CHECK"/><polygon points="562.67,291.3075,553.67,287.3075,557.67,291.3075,553.67,295.3075,562.67,291.3075" fill="#181818" style="stroke:#181818;stroke-width:1;stroke-linejoin:miter;stroke-miterlimit:10;"/><text x="383.21" y="280.4462" fill="#000000" font-size="12" lengthAdjust="spacing" textLength="58.1602" font-family="sans-serif">«include»</text></g><!--link UC_BILL to UC_CHECK--><g class="link" data-entity-1="ent0014" data-entity-2="ent0025" id="lnk45" data-source-line="67" data-link-type="dependency"><path d="M440.62,535.9375 C497.8,535.9375 572.48,535.9375 572.48,535.9375 C572.48,535.9375 572.48,399.9675 572.48,342.6975" style="stroke:#181818;stroke-width:1;stroke-dasharray:7,7;" fill="none" id="UC_BILL-to-UC_CHECK"/><polygon points="572.48,337.6975,568.48,346.6975,572.48,342.6975,576.48,346.6975,572.48,337.6975" fill="#181818" style="stroke:#181818;stroke-width:1;stroke-linejoin:miter;stroke-miterlimit:10;"/><text x="505.48" y="522.8862" fill="#000000" font-size="12" lengthAdjust="spacing" textLength="58.1602" font-family="sans-serif">«include»</text></g><!--link UC_DASH to UC_RECENT--><g class="link" data-entity-1="ent0018" data-entity-2="ent0019" id="lnk46" data-source-line="68" data-link-type="dependency"><path d="M472.29,727.9375 C486.12,727.9375 495.25,727.9375 508.78,727.9375" style="stroke:#181818;stroke-width:1;stroke-dasharray:7,7;" fill="none" id="UC_DASH-to-UC_RECENT"/><polygon points="513.78,727.9375,504.78,723.9375,508.78,727.9375,504.78,731.9375,513.78,727.9375" fill="#181818" style="stroke:#181818;stroke-width:1;stroke-linejoin:miter;stroke-miterlimit:10;"/><text x="426.03" y="717.0762" fill="#000000" font-size="12" lengthAdjust="spacing" textLength="58.1602" font-family="sans-serif">«include»</text></g><!--link UC_DASH to UC_ALERTS--><g class="link" data-entity-1="ent0018" data-entity-2="ent0020" id="lnk47" data-source-line="69" data-link-type="dependency"><path d="M459.48,738.8875 C459.48,779.1175 459.48,916.4475 459.48,916.4475 C459.48,916.4475 490.15,916.4475 524.99,916.4475" style="stroke:#181818;stroke-width:1;stroke-dasharray:7,7;" fill="none" id="UC_DASH-to-UC_ALERTS"/><polygon points="529.99,916.4475,520.99,912.4475,524.99,916.4475,520.99,920.4475,529.99,916.4475" fill="#181818" style="stroke:#181818;stroke-width:1;stroke-linejoin:miter;stroke-miterlimit:10;"/><text x="468.48" y="883.0662" fill="#000000" font-size="12" lengthAdjust="spacing" textLength="58.1602" font-family="sans-serif">«include»</text></g><?plantuml-src XLJBRjim4BphAnQvvEG0RNCeYi20wYYDKJSnB3ajK1S5BQvjDZIbabIAzF41_PB2z_o1VgmhodhPJd8JTcUMovcX92uis0IqMAuiSA4njY9HdhaLAcMQhS6i64z-2BM41PC6MvsKnRTiYQ6zbmW5aQcbR0DKmj5W2gzEMqNDr6rHF7tPAagXqDwd28csgwJLuBXWcRGNYRAX-8dmeitojKv-76wbZFDYvzUUPuMb_QxJVADPSJS3QC5aAUexOOgxUYosYOQZCMgJA8LofZY2FAQxgHYFW1b8grQ5zVbQA64iZSHCEmmhIdMVk1RcJCMCD2txHQdg3rQu0Du-8gOAhL8CWTxdbU0SrHTdIw-YkfcxFSVRqiWerVlTRwzRSlOR1UrGtQkDXAE8l3BC1SAu7QDFyCi3o0p6p10WM2m8dQ66J07FDsd-O1rmElXw7eoleqV16aawKOCdGJJnXu_3xqZ4DTsamjyC9y67uAf36BDx1qOAAX6tgXFuxN0qQWC7T1tA587byOeyJBJudjNeos7O6Pl_vS9MIqkyopSpbMJqdV_BclL7mKtW_Uce5pOHSxXmEkwgrze3mRAvH9PHu66UQ5whw8UNRSwDC1cJmZYIWQH9zKpfV1EJHcYQjGOx6hMFf4HAr0IVgNM-iG9rnVD7mIGA7-NDb4giM8YODSaWrjLrDBneazxHRjkJCYjeQVTMQlmq32QF7WBVaamh9eital4cAFxqV1YH_S77ZYea2T-QtqWoKmQL4QHh7Hj_D3pt8-TK-rYhymVfyf1lf5YAEMrh2wFTVw2PMCqPN0Q3zvv7ps7tDPB9Nc7qRhqXrKyDUhr-yr3sojMJs6lKsT_hkA3lLLsW3untaTtVfWZS0VJWu8cbvzNlfwoLldPABTVA_ywJvTgb3hRCf5S91YSd_LfLU0DdPqB5CkFOxtkDUi-WAYcVWHMwFWCfPAiWfLXFOyhhT37_0G00?></g></svg>