<svg xmlns="http://www.w3.org/2000/svg" xmlns:xlink="http://www.w3.org/1999/xlink" contentStyleType="text/css" height="958px" preserveAspectRatio="none" style="width:591px;height:958px;background:#FFFFFF;" version="1.1" viewBox="0 0 591 958" width="591px" zoomAndPan="magnify"><title>Op&#233;rations et supervision (&#167;7.3, &#167;7.4, &#167;7.5)</title><defs/><g><text fill="#000000" font-family="sans-serif" font-size="14" font-weight="bold" lengthAdjust="spacing" textLength="283.2266" x="146.8867" y="24.5332">Op&#233;rations et supervision (&#167;7.3, &#167;7.4, &#167;7.5)</text><!--cluster Transactions--><g id="cluster_Transactions"><rect fill="none" height="368" rx="2.5" ry="2.5" style="stroke:#181818;stroke-width:1;" width="214" x="101" y="416.1094"/><text fill="#000000" font-family="sans-serif" font-size="14" font-weight="bold" lengthAdjust="spacing" textLength="87.1377" x="164.4312" y="432.6426">Transactions</text></g><!--cluster Supervision--><g id="cluster_Supervision"><rect fill="none" height="246" rx="2.5" ry="2.5" style="stroke:#181818;stroke-width:1;" width="246" x="339" y="99.1094"/><text fill="#000000" font-family="sans-serif" font-size="14" font-weight="bold" lengthAdjust="spacing" textLength="80.1309" x="421.9346" y="115.6426">Supervision</text></g><g id="elem_UC_DEPOT"><ellipse cx="208.0454" cy="471.0185" fill="#F1F1F1" rx="80.0454" ry="18.4091" style="stroke:#181818;stroke-width:0.5;"/><text fill="#000000" font-family="sans-serif" font-size="14" lengthAdjust="spacing" textLength="114.4131" x="149.8711" y="475.0249">Effectuer un d&#233;p&#244;t</text></g><g id="elem_UC_RETRAIT"><ellipse cx="207.8495" cy="538.0793" fill="#F1F1F1" rx="80.3495" ry="18.4699" style="stroke:#181818;stroke-width:0.5;"/><text fill="#000000" font-family="sans-serif" font-size="14" lengthAdjust="spacing" textLength="115.165" x="149.4327" y="542.0488">Effectuer un retrait</text></g><g id="elem_UC_VIREMENT"><ellipse cx="207.8456" cy="607.0785" fill="#F1F1F1" rx="87.8456" ry="19.9691" style="stroke:#181818;stroke-width:0.5;"/><text fill="#000000" font-family="sans-serif" font-size="14" lengthAdjust="spacing" textLength="133.0615" x="141.3148" y="610.807">Effectuer un virement</text></g><g id="elem_UC_HIST"><ellipse cx="208.1653" cy="677.3424" fill="#F1F1F1" rx="86.6653" ry="19.7331" style="stroke:#181818;stroke-width:0.5;"/><text fill="#000000" font-family="sans-serif" font-size="14" lengthAdjust="spacing" textLength="130.293" x="143.0188" y="681.071">Consulter l'historique</text></g><g id="elem_UC_RELEVE"><ellipse cx="208.1938" cy="747.2481" fill="#F1F1F1" rx="91.1938" ry="20.6388" style="stroke:#181818;stroke-width:0.5;"/><text fill="#000000" font-family="sans-serif" font-size="14" lengthAdjust="spacing" textLength="140.8408" x="137.7734" y="750.9766">Consulter relev&#233; / re&#231;u</text></g><g id="elem_UC_DASH"><ellipse cx="461.7509" cy="304.8595" fill="#F1F1F1" rx="106.7509" ry="23.7502" style="stroke:#181818;stroke-width:0.5;"/><text fill="#000000" font-family="sans-serif" font-size="14" lengthAdjust="spacing" textLength="175.8955" x="373.8031" y="308.5881">Consulter le tableau de bord</text></g><g id="elem_UC_USERS"><ellipse cx="461.853" cy="155.18" fill="#F1F1F1" rx="85.853" ry="19.5706" style="stroke:#181818;stroke-width:0.5;"/><text fill="#000000" font-family="sans-serif" font-size="14" lengthAdjust="spacing" textLength="128.3789" x="397.6636" y="158.9085">G&#233;rer les utilisateurs</text></g><g id="elem_UC_AUDIT_VIEW"><ellipse cx="461.9914" cy="227.9077" fill="#F1F1F1" rx="101.9914" ry="22.7983" style="stroke:#181818;stroke-width:0.5;"/><text fill="#000000" font-family="sans-serif" font-size="14" lengthAdjust="spacing" textLength="165.3271" x="379.3278" y="231.6362">Consulter le journal d'audit</text></g><!--entity personnel--><g id="elem_personnel"><ellipse cx="41.5879" cy="432.1094" fill="#F1F1F1" rx="8" ry="8" style="stroke:#181818;stroke-width:0.5;"/><path d="M41.5879,440.1094 L41.5879,467.1094 M28.5879,448.1094 L54.5879,448.1094 M41.5879,467.1094 L28.5879,482.1094 M41.5879,467.1094 L54.5879,482.1094 " fill="none" style="stroke:#181818;stroke-width:0.5;"/><text fill="#000000" font-family="sans-serif" font-size="14" lengthAdjust="spacing" textLength="63.041" x="6" y="498.1426">Personnel</text><text fill="#000000" font-family="sans-serif" font-size="14" lengthAdjust="spacing" textLength="71.1758" x="6" y="515.752">de l'agence</text></g><!--entity admin--><g id="elem_admin"><ellipse cx="208.1274" cy="52.6094" fill="#F1F1F1" rx="8" ry="8" style="stroke:#181818;stroke-width:0.5;"/><path d="M208.1274,60.6094 L208.1274,87.6094 M195.1274,68.6094 L221.1274,68.6094 M208.1274,87.6094 L195.1274,102.6094 M208.1274,87.6094 L221.1274,102.6094 " fill="none" style="stroke:#181818;stroke-width:0.5;"/><text fill="#000000" font-family="sans-serif" font-size="14" lengthAdjust="spacing" textLength="90.2549" x="163" y="118.6426">Administrateur</text></g><!--entity agent--><g id="elem_agent"><ellipse cx="208.0894" cy="160.6094" fill="#F1F1F1" rx="8" ry="8" style="stroke:#181818;stroke-width:0.5;"/><path d="M208.0894,168.6094 L208.0894,195.6094 M195.0894,176.6094 L221.0894,176.6094 M208.0894,195.6094 L195.0894,210.6094 M208.0894,195.6094 L221.0894,210.6094 " fill="none" style="stroke:#181818;stroke-width:0.5;"/><text fill="#000000" font-family="sans-serif" font-size="14" lengthAdjust="spacing" textLength="94.1787" x="161" y="226.6426">Agent bancaire</text></g><!--entity chef--><g id="elem_chef"><ellipse cx="207.9258" cy="268.6094" fill="#F1F1F1" rx="8" ry="8" style="stroke:#181818;stroke-width:0.5;"/><path d="M207.9258,276.6094 L207.9258,303.6094 M194.9258,284.6094 L220.9258,284.6094 M207.9258,303.6094 L194.9258,318.6094 M207.9258,303.6094 L220.9258,318.6094 " fill="none" style="stroke:#181818;stroke-width:0.5;"/><text fill="#000000" font-family="sans-serif" font-size="14" lengthAdjust="spacing" textLength="89.8516" x="163" y="334.6426">Chef d'agence</text></g><g id="elem_UC_CHECK"><ellipse cx="462.0866" cy="573.0335" fill="#F1F1F1" rx="97.0866" ry="27.9241" style="stroke:#181818;stroke-width:0.5;"/><text fill="#000000" font-family="sans-serif" font-size="14" lengthAdjust="spacing" textLength="120.9482" x="398.9035" y="568.6749">Contr&#244;ler l'&#233;ligibilit&#233;</text><text fill="#000000" font-family="sans-serif" font-size="14" lengthAdjust="spacing" textLength="83.624" x="417.5656" y="586.2843">de l'op&#233;ration</text></g><!--reverse link personnel to admin--><g id="link_personnel_admin"><path d="M30,405.5294 C30,301.9294 30,83.1094 30,83.1094 C30,83.1094 109.89,83.1094 162.62,83.1094 " fill="none" id="personnel-backto-admin" style="stroke:#181818;stroke-width:1;"/><polygon fill="none" points="30,423.5294,36,405.5294,24,405.5294,30,423.5294" style="stroke:#181818;stroke-width:1;"/></g><!--reverse link personnel to agent--><g id="link_personnel_agent"><path d="M54,405.2894 C54,325.3194 54,191.1094 54,191.1094 C54,191.1094 115.67,191.1094 160.96,191.1094 " fill="none" id="personnel-backto-agent" style="stroke:#181818;stroke-width:1;"/><polygon fill="none" points="54,423.2894,60,405.2894,48,405.2894,54,423.2894" style="stroke:#181818;stroke-width:1;"/></g><!--reverse link personnel to chef--><g id="link_personnel_chef"><path d="M95.22,433.2794 C144.14,433.2794 208,433.2794 208,433.2794 C208,433.2794 208,377.8794 208,338.2794 " fill="none" id="personnel-backto-chef" style="stroke:#181818;stroke-width:1;"/><polygon fill="none" points="77.22,433.2794,95.22,439.2794,95.22,427.2794,77.22,433.2794" style="stroke:#181818;stroke-width:1;"/></g><!--link personnel to UC_DEPOT--><g id="link_personnel_UC_DEPOT"><path d="M77.22,471.1094 C92.12,471.1094 104.09,471.1094 121.86,471.1094 " fill="none" id="personnel-to-UC_DEPOT" style="stroke:#181818;stroke-width:1;"/><polygon fill="#181818" points="127.86,471.1094,118.86,467.1094,122.86,471.1094,118.86,475.1094,127.86,471.1094" style="stroke:#181818;stroke-width:1;"/></g><!--link personnel to UC_RETRAIT--><g id="link_personnel_UC_RETRAIT"><path d="M60,518.7294 C60,529.6394 60,538.1094 60,538.1094 C60,538.1094 86.52,538.1094 121.07,538.1094 " fill="none" id="personnel-to-UC_RETRAIT" style="stroke:#181818;stroke-width:1;"/><polygon fill="#181818" points="127.07,538.1094,118.07,534.1094,122.07,538.1094,118.07,542.1094,127.07,538.1094" style="stroke:#181818;stroke-width:1;"/></g><!--link personnel to UC_VIREMENT--><g id="link_personnel_UC_VIREMENT"><path d="M77.45,504.1094 C99.68,504.1094 124,504.1094 124,504.1094 C124,504.1094 124,572.7994 124,594.9794 " fill="none" id="personnel-to-UC_VIREMENT" style="stroke:#181818;stroke-width:1;"/><polygon fill="#181818" points="124,600.9794,128,591.9794,124,595.9794,120,591.9794,124,600.9794" style="stroke:#181818;stroke-width:1;"/></g><!--link personnel to UC_HIST--><g id="link_personnel_UC_HIST"><path d="M42,518.6294 C42,579.4694 42,677.1094 42,677.1094 C42,677.1094 74.95,677.1094 115.11,677.1094 " fill="none" id="personnel-to-UC_HIST" style="stroke:#181818;stroke-width:1;"/><polygon fill="#181818" points="121.11,677.1094,112.11,673.1094,116.11,677.1094,112.11,681.1094,121.11,677.1094" style="stroke:#181818;stroke-width:1;"/></g><!--link personnel to UC_RELEVE--><g id="link_personnel_UC_RELEVE"><path d="M24,518.8694 C24,597.8694 24,747.1094 24,747.1094 C24,747.1094 64.54,747.1094 110.81,747.1094 " fill="none" id="personnel-to-UC_RELEVE" style="stroke:#181818;stroke-width:1;"/><polygon fill="#181818" points="116.81,747.1094,107.81,743.1094,111.81,747.1094,107.81,751.1094,116.81,747.1094" style="stroke:#181818;stroke-width:1;"/></g><!--link personnel to UC_DASH--><g id="link_personnel_UC_DASH"><path d="M77.11,442.9394 C160.22,442.9394 360,442.9394 360,442.9394 C360,442.9394 360,347.1494 360,318.5194 " fill="none" id="personnel-to-UC_DASH" style="stroke:#181818;stroke-width:1;"/><polygon fill="#181818" points="360,312.5194,356,321.5194,360,317.5194,364,321.5194,360,312.5194" style="stroke:#181818;stroke-width:1;"/></g><!--link admin to UC_USERS--><g id="link_admin_UC_USERS"><path d="M208,122.2694 C208,134.0294 208,143.8594 208,143.8594 C208,143.8594 310.41,143.8594 385.58,143.8594 " fill="none" id="admin-to-UC_USERS" style="stroke:#181818;stroke-width:1;"/><polygon fill="#181818" points="391.58,143.8594,382.58,139.8594,386.58,143.8594,382.58,147.8594,391.58,143.8594" style="stroke:#181818;stroke-width:1;"/></g><!--link admin to UC_AUDIT_VIEW--><g id="link_admin_UC_AUDIT_VIEW"><path d="M253.42,83.1094 C300.72,83.1094 368,83.1094 368,83.1094 C368,83.1094 368,181.2994 368,213.0394 " fill="none" id="admin-to-UC_AUDIT_VIEW" style="stroke:#181818;stroke-width:1;"/><polygon fill="#181818" points="368,219.0394,372,210.0394,368,214.0394,364,210.0394,368,219.0394" style="stroke:#181818;stroke-width:1;"/></g><!--link chef to UC_AUDIT_VIEW--><g id="link_chef_UC_AUDIT_VIEW"><path d="M208,260.0894 C208,249.3594 208,240.6094 208,240.6094 C208,240.6094 296.62,240.6094 370.36,240.6094 " fill="none" id="chef-to-UC_AUDIT_VIEW" style="stroke:#181818;stroke-width:1;"/><polygon fill="#181818" points="376.36,240.6094,367.36,236.6094,371.36,240.6094,367.36,244.6094,376.36,240.6094" style="stroke:#181818;stroke-width:1;"/></g><!--link UC_RETRAIT to UC_CHECK--><g id="link_UC_RETRAIT_UC_CHECK"><path d="M266.59,550.8594 C307.47,550.8594 355.82,550.8594 396.82,550.8594 " fill="none" id="UC_RETRAIT-to-UC_CHECK" style="stroke:#181818;stroke-width:1;stroke-dasharray:7.0,7.0;"/><polygon fill="#181818" points="402.82,550.8594,393.82,546.8594,397.82,550.8594,393.82,554.8594,402.82,550.8594" style="stroke:#181818;stroke-width:1;"/><text fill="#000000" font-family="sans-serif" font-size="13" lengthAdjust="spacing" textLength="55.6563" x="278.71" y="565.3545">&#171;include&#187;</text></g><!--link UC_VIREMENT to UC_CHECK--><g id="link_UC_VIREMENT_UC_CHECK"><path d="M275.07,594.1094 C312.99,594.1094 354.16,594.1094 391.63,594.1094 " fill="none" id="UC_VIREMENT-to-UC_CHECK" style="stroke:#181818;stroke-width:1;stroke-dasharray:7.0,7.0;"/><polygon fill="#181818" points="397.63,594.1094,388.63,590.1094,392.63,594.1094,388.63,598.1094,397.63,594.1094" style="stroke:#181818;stroke-width:1;"/><text fill="#000000" font-family="sans-serif" font-size="13" lengthAdjust="spacing" textLength="55.6563" x="280.35" y="590.6045">&#171;include&#187;</text></g><rect fill="#DDDDDD" height="137.2656" id="_legend" rx="7.5" ry="7.5" style="stroke:#000000;stroke-width:1;" width="364.0332" x="106.4834" y="801.1094"/><text fill="#000000" font-family="sans-serif" font-size="14" font-weight="bold" lengthAdjust="spacing" textLength="45.9102" x="115.373" y="822.6426">D&#233;tails</text><text fill="#000000" font-family="sans-serif" font-size="14" font-weight="bold" lengthAdjust="spacing" textLength="3.8896" x="228.9658" y="822.6426">&#160;</text><text fill="#000000" font-family="sans-serif" font-size="14" lengthAdjust="spacing" textLength="84.0273" x="115.373" y="840.252">Contr&#244;le (R3)</text><text fill="#000000" font-family="sans-serif" font-size="14" lengthAdjust="spacing" textLength="228.7715" x="232.8555" y="840.252">Solde suffisant pour retrait / virement</text><text fill="#000000" font-family="sans-serif" font-size="14" lengthAdjust="spacing" textLength="109.7031" x="115.373" y="857.8613">Contr&#244;le (R4, R6)</text><text fill="#000000" font-family="sans-serif" font-size="14" lengthAdjust="spacing" textLength="225.668" x="232.8555" y="857.8613">Comptes source et destination actifs</text><text fill="#000000" font-family="sans-serif" font-size="14" lengthAdjust="spacing" textLength="94.1377" x="115.373" y="875.4707">Historique (R5)</text><text fill="#000000" font-family="sans-serif" font-size="14" lengthAdjust="spacing" textLength="189.875" x="232.8555" y="875.4707">Date, montant, type, utilisateur</text><text fill="#000000" font-family="sans-serif" font-size="14" lengthAdjust="spacing" textLength="38.1104" x="115.373" y="893.0801">Filtres</text><text fill="#000000" font-family="sans-serif" font-size="14" lengthAdjust="spacing" textLength="185.1992" x="232.8555" y="893.0801">Date, type, compte, utilisateur</text><text fill="#000000" font-family="sans-serif" font-size="14" lengthAdjust="spacing" textLength="69.2412" x="115.373" y="910.6895">Utilisateurs</text><text fill="#000000" font-family="sans-serif" font-size="14" lengthAdjust="spacing" textLength="207.7715" x="232.8555" y="910.6895">Administrateur uniquement (&#167;7.4)</text><text fill="#000000" font-family="sans-serif" font-size="14" lengthAdjust="spacing" textLength="63.0205" x="115.373" y="928.2988">Audit (R8)</text><text fill="#000000" font-family="sans-serif" font-size="14" lengthAdjust="spacing" textLength="209.3369" x="232.8555" y="928.2988">Op&#233;rations sensibles journalis&#233;es</text><line style="stroke:#000000;stroke-width:1;" x1="111.4834" x2="465.5166" y1="808.1094" y2="808.1094"/><line style="stroke:#000000;stroke-width:1;" x1="111.4834" x2="465.5166" y1="825.7188" y2="825.7188"/><line style="stroke:#000000;stroke-width:1;" x1="111.4834" x2="465.5166" y1="843.3281" y2="843.3281"/><line style="stroke:#000000;stroke-width:1;" x1="111.4834" x2="465.5166" y1="860.9375" y2="860.9375"/><line style="stroke:#000000;stroke-width:1;" x1="111.4834" x2="465.5166" y1="878.5469" y2="878.5469"/><line style="stroke:#000000;stroke-width:1;" x1="111.4834" x2="465.5166" y1="896.1563" y2="896.1563"/><line style="stroke:#000000;stroke-width:1;" x1="111.4834" x2="465.5166" y1="913.7656" y2="913.7656"/><line style="stroke:#000000;stroke-width:1;" x1="111.4834" x2="465.5166" y1="931.375" y2="931.375"/><line style="stroke:#000000;stroke-width:1;" x1="111.4834" x2="111.4834" y1="808.1094" y2="931.375"/><line style="stroke:#000000;stroke-width:1;" x1="228.9658" x2="228.9658" y1="808.1094" y2="931.375"/><line style="stroke:#000000;stroke-width:1;" x1="465.5166" x2="465.5166" y1="808.1094" y2="931.375"/><!--SRC=[VLJRRjD047tVhnZbfOsK5AIsW52952M6H51QvL9UaD367YTBDskpbwAAyZrLtli5-CUOjMF7mGrFji_CsHcVEJiIOmis0IsMAmkHq1XQaIXcReLAkUPhC2iU9J-5MaBCfS5Q9ENXBL_YrDvB14_aQYdh2Ig9q60AfozheERgreDdTL0AXVO-HKYqNIMCMM7fpAiqssZk-p605enBKTy9Gzzm_EVnzSbf1_pZh7YSjndZeKqqjAvHcqGfb5zLX22Fg4iLOWkuWRGCLSdzQ2sKC9OgeTDv4lTG5IUoXGLN8ITvYhY7olXWXJ54zHeX8NIyFmIwBkq-z6fbSsuJzfmcoYfPeJKZvGpFnsDQy8i1E8CXDnGAufZo76fm2g9iasPFDkzaFlWs3AwlPWUJDT9_Yofv4imc_V7Xz3jIO4tzb_atuqbm6NpU8moeFoSj4UJHYdHDjFZXi6ICnjC3sHebtcKRU45lsQFRjVGfk0dOxpqjfZih_2D5hJg2vGk9t06PO97eg9AaFntLEH_8PZd1WBD22fCxmPJfysamcHwiyJrnMd7f7U2YdPBz-N0y8ts2BxxrEjNgx4dcwcGRAPPYGHLjjjbQDQayNvuq60M3ZunLfe1kjxSRR0CkHzW8LBDgHFAPF7DGBdophbUlT7S15GhjGRN_BwpTWDckMJWvwLM_2c_XuaAeKBe8UprMw_n_QKmYNQo8vcnjigPfFRo3ORQnN4ZZtnyy19NyS3mvRHCmJIJ9RbmSqzJfNgOqpV9Ia1DBlpz3fwqpUTNEmNLgoJg6g27wHKLRpmgL3n7yXOtDbZ-ghWCTSEx9Gx9Q1zPqBbNlWD-1dRe9jyJtGbfDDKf2aHVcbP_BdzTiJ9_xAuukicyX_wzyZvwrjxI-Tp2rziQtLj- -1fKH2tz1jdON9jluVXXfNYZF_W80]--></g></svg>