<svg xmlns="http://www.w3.org/2000/svg" xmlns:xlink="http://www.w3.org/1999/xlink" version="1.1" data-diagram-type="DESCRIPTION" style="width:871px;height:1031px;background:#FFFFFF;" width="871px" height="1031px" viewBox="0 0 871 1031" zoomAndPan="magnify" preserveAspectRatio="none" contentStyleType="text/css"><?plantuml 1.2026.7beta3?><defs/><g><g class="title" data-source-line="8"><text x="330.1267" y="22.9951" fill="#000000" font-size="14" lengthAdjust="spacing" textLength="204.4766" font-weight="700" font-family="sans-serif">Opérations et supervision</text></g><!--cluster Transactions--><g class="cluster" data-qualified-name="Transactions" id="ent0011" data-source-line="20"><rect x="110.95" y="408.9469" width="211.83" height="439" fill="none" style="stroke:#181818;stroke-width:1;" rx="2.5" ry="2.5"/><text x="166.1868" y="423.942" fill="#000000" font-size="14" lengthAdjust="spacing" textLength="101.3564" font-weight="700" font-family="sans-serif">Transactions</text></g><!--cluster Supervision--><g class="cluster" data-qualified-name="Supervision" id="ent0018" data-source-line="29"><rect x="346.78" y="90.9469" width="510.95" height="324" fill="none" style="stroke:#181818;stroke-width:1;" rx="2.5" ry="2.5"/><text x="555.6988" y="105.942" fill="#000000" font-size="14" lengthAdjust="spacing" textLength="93.1123" font-weight="700" font-family="sans-serif">Supervision</text></g><!--entity UC_DEPOT--><g class="entity" data-qualified-name="Transactions.UC_DEPOT" id="ent0012" data-source-line="21"><ellipse cx="216.8665" cy="813.9502" rx="80.0665" ry="18.4133" fill="#F1F1F1" style="stroke:#181818;stroke-width:0.5;"/><text x="151.45" y="818.5986" fill="#000000" font-size="14" lengthAdjust="spacing" textLength="130.833" font-family="sans-serif">Effectuer un dépôt</text></g><!--entity UC_RETRAIT--><g class="entity" data-qualified-name="Transactions.UC_RETRAIT" id="ent0013" data-source-line="22"><ellipse cx="216.8697" cy="746.9468" rx="81.3997" ry="18.6799" fill="#F1F1F1" style="stroke:#181818;stroke-width:0.5;"/><text x="149.8877" y="751.5952" fill="#000000" font-size="14" lengthAdjust="spacing" textLength="133.9639" font-family="sans-serif">Effectuer un retrait</text></g><!--entity UC_VIREMENT--><g class="entity" data-qualified-name="Transactions.UC_VIREMENT" id="ent0014" data-source-line="23"><ellipse cx="216.8651" cy="677.9499" rx="89.9151" ry="20.383" fill="#F1F1F1" style="stroke:#181818;stroke-width:0.5;"/><text x="140.0907" y="682.5983" fill="#000000" font-size="14" lengthAdjust="spacing" textLength="153.5488" font-family="sans-serif">Effectuer un virement</text></g><!--entity UC_BILL--><g class="entity" data-qualified-name="Transactions.UC_BILL" id="ent0015" data-source-line="24"><ellipse cx="216.8732" cy="609.9475" rx="77.5532" ry="17.9106" fill="#F1F1F1" style="stroke:#181818;stroke-width:0.5;"/><text x="154.4372" y="614.596" fill="#000000" font-size="14" lengthAdjust="spacing" textLength="124.8721" font-family="sans-serif">Payer une facture</text></g><!--entity UC_HIST--><g class="entity" data-qualified-name="Transactions.UC_HIST" id="ent0016" data-source-line="25"><ellipse cx="216.869" cy="541.9487" rx="88.109" ry="20.0218" fill="#F1F1F1" style="stroke:#181818;stroke-width:0.5;"/><text x="142.1454" y="546.5971" fill="#000000" font-size="14" lengthAdjust="spacing" textLength="149.4473" font-family="sans-serif">Consulter l'historique</text></g><!--entity UC_RELEVE--><g class="entity" data-qualified-name="Transactions.UC_RELEVE" id="ent0017" data-source-line="26"><ellipse cx="216.8698" cy="467.9454" rx="74.8498" ry="23.9286" fill="#F1F1F1" style="stroke:#181818;stroke-width:0.5;"/><text x="160.921" y="467.6116" fill="#000000" font-size="14" lengthAdjust="spacing" textLength="111.8975" font-family="sans-serif">Éditer un relevé</text><text x="190.4557" y="483.9084" fill="#000000" font-size="14" lengthAdjust="spacing" textLength="52.8281" font-family="sans-serif">ou reçu</text></g><!--entity UC_DASH--><g class="entity" data-qualified-name="Supervision.UC_DASH" id="ent0019" data-source-line="30"><ellipse cx="473.7322" cy="373.9473" rx="110.9522" ry="24.5904" fill="#F1F1F1" style="stroke:#181818;stroke-width:0.5;"/><text x="373.7634" y="378.5958" fill="#000000" font-size="14" lengthAdjust="spacing" textLength="199.9375" font-family="sans-serif">Consulter le tableau de bord</text></g><!--entity UC_RECENT--><g class="entity" data-qualified-name="Supervision.UC_RECENT" id="ent0020" data-source-line="31"><ellipse cx="733.2141" cy="374.9517" rx="108.5241" ry="24.1048" fill="#F1F1F1" style="stroke:#181818;stroke-width:0.5;"/><text x="647.7819" y="375.3604" fill="#000000" font-size="14" lengthAdjust="spacing" textLength="170.8643" font-family="sans-serif">Visualiser les opérations</text><text x="702.7394" y="391.6573" fill="#000000" font-size="14" lengthAdjust="spacing" textLength="60.9492" font-family="sans-serif">récentes</text></g><!--entity UC_USERS--><g class="entity" data-qualified-name="Supervision.UC_USERS" id="ent0021" data-source-line="32"><ellipse cx="473.7332" cy="145.9455" rx="86.6932" ry="19.7386" fill="#F1F1F1" style="stroke:#181818;stroke-width:0.5;"/><text x="400.6263" y="150.5939" fill="#000000" font-size="14" lengthAdjust="spacing" textLength="146.2139" font-family="sans-serif">Gérer les utilisateurs</text></g><!--entity UC_AUDIT_VIEW--><g class="entity" data-qualified-name="Supervision.UC_AUDIT_VIEW" id="ent0022" data-source-line="33"><ellipse cx="473.7342" cy="218.9477" rx="106.3042" ry="23.6608" fill="#F1F1F1" style="stroke:#181818;stroke-width:0.5;"/><text x="378.8035" y="223.5962" fill="#000000" font-size="14" lengthAdjust="spacing" textLength="189.8613" font-family="sans-serif">Consulter le journal d'audit</text></g><!--entity UC_VALIDATE--><g class="entity" data-qualified-name="Supervision.UC_VALIDATE" id="ent0023" data-source-line="34"><ellipse cx="473.7341" cy="295.9428" rx="99.4441" ry="23.7259" fill="#F1F1F1" style="stroke:#181818;stroke-width:0.5;"/><text x="397.8996" y="295.9344" fill="#000000" font-size="14" lengthAdjust="spacing" textLength="151.6689" font-family="sans-serif">Valider une opération</text><text x="445.0573" y="312.2313" fill="#000000" font-size="14" lengthAdjust="spacing" textLength="57.3535" font-family="sans-serif">sensible</text></g><!--entity personnel--><g class="entity" data-qualified-name="personnel" id="ent0001" data-source-line="10"><ellipse cx="46.4756" cy="504.1469" rx="8" ry="8" fill="#F1F1F1" style="stroke:#181818;stroke-width:0.5;"/><path d="M46.4756,512.1469 L46.4756,539.1469 M33.4756,520.1469 L59.4756,520.1469 M46.4756,539.1469 L33.4756,554.1469 M46.4756,539.1469 L59.4756,554.1469" style="stroke:#181818;stroke-width:0.5;" fill="none"/><text x="6" y="568.642" fill="#000000" font-size="14" lengthAdjust="spacing" textLength="68.9199" font-family="sans-serif">Personnel</text><text x="6" y="584.9389" fill="#000000" font-size="14" lengthAdjust="spacing" textLength="80.9512" font-family="sans-serif">de l'agence</text></g><!--entity admin--><g class="entity" data-qualified-name="admin" id="ent0002" data-source-line="12"><ellipse cx="216.8618" cy="51.2969" rx="8" ry="8" fill="#F1F1F1" style="stroke:#181818;stroke-width:0.5;"/><path d="M216.8618,59.2969 L216.8618,86.2969 M203.8618,67.2969 L229.8618,67.2969 M216.8618,86.2969 L203.8618,101.2969 M216.8618,86.2969 L229.8618,101.2969" style="stroke:#181818;stroke-width:0.5;" fill="none"/><text x="164.56" y="115.792" fill="#000000" font-size="14" lengthAdjust="spacing" textLength="104.6035" font-family="sans-serif">Administrateur</text></g><!--entity agent--><g class="entity" data-qualified-name="agent" id="ent0003" data-source-line="13"><ellipse cx="216.8618" cy="157.2969" rx="8" ry="8" fill="#F1F1F1" style="stroke:#181818;stroke-width:0.5;"/><path d="M216.8618,165.2969 L216.8618,192.2969 M203.8618,173.2969 L229.8618,173.2969 M216.8618,192.2969 L203.8618,207.2969 M216.8618,192.2969 L229.8618,207.2969" style="stroke:#181818;stroke-width:0.5;" fill="none"/><text x="163.48" y="221.792" fill="#000000" font-size="14" lengthAdjust="spacing" textLength="106.7637" font-family="sans-serif">Agent bancaire</text></g><!--entity chef--><g class="entity" data-qualified-name="chef" id="ent0004" data-source-line="14"><ellipse cx="216.8693" cy="263.2969" rx="8" ry="8" fill="#F1F1F1" style="stroke:#181818;stroke-width:0.5;"/><path d="M216.8693,271.2969 L216.8693,298.2969 M203.8693,279.2969 L229.8693,279.2969 M216.8693,298.2969 L203.8693,313.2969 M216.8693,298.2969 L229.8693,313.2969" style="stroke:#181818;stroke-width:0.5;" fill="none"/><text x="166.55" y="327.792" fill="#000000" font-size="14" lengthAdjust="spacing" textLength="100.6387" font-family="sans-serif">Chef d'agence</text></g><!--entity UC_CHECK--><g class="entity" data-qualified-name="UC_CHECK" id="ent0024" data-source-line="37"><ellipse cx="473.7327" cy="712.9423" rx="96.5327" ry="24.5754" fill="#F1F1F1" style="stroke:#181818;stroke-width:0.5;"/><text x="403.0833" y="711.6002" fill="#000000" font-size="14" lengthAdjust="spacing" textLength="141.2988" font-family="sans-serif">Contrôler l'éligibilité</text><text x="425.2796" y="727.8971" fill="#000000" font-size="14" lengthAdjust="spacing" textLength="96.9063" font-family="sans-serif">de l'opération</text></g><!--reverse link personnel to admin--><g class="link" data-entity-1="ent0001" data-entity-2="ent0002" id="lnk6" data-source-line="16" data-link-type="extension"><path d="M22.73,477.2069 C22.73,360.0069 22.73,80.9469 22.73,80.9469 C22.73,80.9469 106.59,80.9469 164.08,80.9469" style="stroke:#181818;stroke-width:1;" fill="none" id="personnel-backto-admin"/><polygon points="22.73,495.2069,28.73,477.2069,16.73,477.2069,22.73,495.2069" fill="none" style="stroke:#181818;stroke-width:1;stroke-linejoin:miter;stroke-miterlimit:10;"/></g><!--reverse link personnel to agent--><g class="link" data-entity-1="ent0001" data-entity-2="ent0003" id="lnk8" data-source-line="17" data-link-type="extension"><path d="M38.73,477.1669 C38.73,380.7769 38.73,186.9469 38.73,186.9469 C38.73,186.9469 110.95,186.9469 163.42,186.9469" style="stroke:#181818;stroke-width:1;" fill="none" id="personnel-backto-agent"/><polygon points="38.73,495.1669,44.73,477.1669,32.73,477.1669,38.73,495.1669" fill="none" style="stroke:#181818;stroke-width:1;stroke-linejoin:miter;stroke-miterlimit:10;"/></g><!--reverse link personnel to chef--><g class="link" data-entity-1="ent0001" data-entity-2="ent0004" id="lnk10" data-source-line="18" data-link-type="extension"><path d="M54.73,477.4069 C54.73,405.3369 54.73,292.9469 54.73,292.9469 C54.73,292.9469 118.86,292.9469 166.46,292.9469" style="stroke:#181818;stroke-width:1;" fill="none" id="personnel-backto-chef"/><polygon points="54.73,495.4069,60.73,477.4069,48.73,477.4069,54.73,495.4069" fill="none" style="stroke:#181818;stroke-width:1;stroke-linejoin:miter;stroke-miterlimit:10;"/></g><!--link personnel to UC_DEPOT--><g class="link" data-entity-1="ent0001" data-entity-2="ent0012" id="lnk25" data-source-line="39" data-link-type="dependency"><path d="M26.73,588.7069 C26.73,666.4769 26.73,813.9469 26.73,813.9469 C26.73,813.9469 79.62,813.9469 131.51,813.9469" style="stroke:#181818;stroke-width:1;" fill="none" id="personnel-to-UC_DEPOT"/><polygon points="136.51,813.9469,127.51,809.9469,131.51,813.9469,127.51,817.9469,136.51,813.9469" fill="#181818" style="stroke:#181818;stroke-width:1;stroke-linejoin:miter;stroke-miterlimit:10;"/></g><!--link personnel to UC_RETRAIT--><g class="link" data-entity-1="ent0001" data-entity-2="ent0013" id="lnk26" data-source-line="40" data-link-type="dependency"><path d="M46.73,588.7169 C46.73,649.2269 46.73,746.9469 46.73,746.9469 C46.73,746.9469 86.62,746.9469 130.29,746.9469" style="stroke:#181818;stroke-width:1;" fill="none" id="personnel-to-UC_RETRAIT"/><polygon points="135.29,746.9469,126.29,742.9469,130.29,746.9469,126.29,750.9469,135.29,746.9469" fill="#181818" style="stroke:#181818;stroke-width:1;stroke-linejoin:miter;stroke-miterlimit:10;"/></g><!--link personnel to UC_VIREMENT--><g class="link" data-entity-1="ent0001" data-entity-2="ent0014" id="lnk27" data-source-line="41" data-link-type="dependency"><path d="M87.25,575.1069 C110.37,575.1069 134.73,575.1069 134.73,575.1069 C134.73,575.1069 134.73,639.9669 134.73,664.5269" style="stroke:#181818;stroke-width:1;" fill="none" id="personnel-to-UC_VIREMENT"/><polygon points="134.73,669.5269,138.73,660.5269,134.73,664.5269,130.73,660.5269,134.73,669.5269" fill="#181818" style="stroke:#181818;stroke-width:1;stroke-linejoin:miter;stroke-miterlimit:10;"/></g><!--link personnel to UC_BILL--><g class="link" data-entity-1="ent0001" data-entity-2="ent0015" id="lnk28" data-source-line="42" data-link-type="dependency"><path d="M66.73,588.4269 C66.73,600.3869 66.73,609.9469 66.73,609.9469 C66.73,609.9469 97.53,609.9469 134.16,609.9469" style="stroke:#181818;stroke-width:1;" fill="none" id="personnel-to-UC_BILL"/><polygon points="139.16,609.9469,130.16,605.9469,134.16,609.9469,130.16,613.9469,139.16,609.9469" fill="#181818" style="stroke:#181818;stroke-width:1;stroke-linejoin:miter;stroke-miterlimit:10;"/></g><!--link personnel to UC_HIST--><g class="link" data-entity-1="ent0001" data-entity-2="ent0016" id="lnk29" data-source-line="43" data-link-type="dependency"><path d="M87.29,541.9469 C99.79,541.9469 109.07,541.9469 123.46,541.9469" style="stroke:#181818;stroke-width:1;" fill="none" id="personnel-to-UC_HIST"/><polygon points="128.46,541.9469,119.46,537.9469,123.46,541.9469,119.46,545.9469,128.46,541.9469" fill="#181818" style="stroke:#181818;stroke-width:1;stroke-linejoin:miter;stroke-miterlimit:10;"/></g><!--link personnel to UC_RELEVE--><g class="link" data-entity-1="ent0001" data-entity-2="ent0017" id="lnk30" data-source-line="44" data-link-type="dependency"><path d="M71.73,495.4969 C71.73,480.6369 71.73,467.9469 71.73,467.9469 C71.73,467.9469 101.34,467.9469 136.75,467.9469" style="stroke:#181818;stroke-width:1;" fill="none" id="personnel-to-UC_RELEVE"/><polygon points="141.75,467.9469,132.75,463.9469,136.75,467.9469,132.75,471.9469,141.75,467.9469" fill="#181818" style="stroke:#181818;stroke-width:1;stroke-linejoin:miter;stroke-miterlimit:10;"/></g><!--link personnel to UC_DASH--><g class="link" data-entity-1="ent0001" data-entity-2="ent0019" id="lnk31" data-source-line="45" data-link-type="dependency"><path d="M87.21,504.4069 C174.3,504.4069 370.73,504.4069 370.73,504.4069 C370.73,504.4069 370.73,418.2469 370.73,388.3269" style="stroke:#181818;stroke-width:1;" fill="none" id="personnel-to-UC_DASH"/><polygon points="370.73,383.3269,366.73,392.3269,370.73,388.3269,374.73,392.3269,370.73,383.3269" fill="#181818" style="stroke:#181818;stroke-width:1;stroke-linejoin:miter;stroke-miterlimit:10;"/></g><!--link personnel to UC_RECENT--><g class="link" data-entity-1="ent0001" data-entity-2="ent0020" id="lnk32" data-source-line="46" data-link-type="dependency"><path d="M87.41,513.1669 C235.36,513.1669 733.73,513.1669 733.73,513.1669 C733.73,513.1669 733.73,444.0169 733.73,404.3369" style="stroke:#181818;stroke-width:1;" fill="none" id="personnel-to-UC_RECENT"/><polygon points="733.73,399.3369,729.73,408.3369,733.73,404.3369,737.73,408.3369,733.73,399.3369" fill="#181818" style="stroke:#181818;stroke-width:1;stroke-linejoin:miter;stroke-miterlimit:10;"/></g><!--link admin to UC_USERS--><g class="link" data-entity-1="ent0002" data-entity-2="ent0021" id="lnk33" data-source-line="48" data-link-type="dependency"><path d="M217.73,119.2969 C217.73,129.3869 217.73,137.5069 217.73,137.5069 C217.73,137.5069 314.62,137.5069 389.84,137.5069" style="stroke:#181818;stroke-width:1;" fill="none" id="admin-to-UC_USERS"/><polygon points="394.84,137.5069,385.84,133.5069,389.84,137.5069,385.84,141.5069,394.84,137.5069" fill="#181818" style="stroke:#181818;stroke-width:1;stroke-linejoin:miter;stroke-miterlimit:10;"/></g><!--link admin to UC_AUDIT_VIEW--><g class="link" data-entity-1="ent0002" data-entity-2="ent0022" id="lnk34" data-source-line="49" data-link-type="dependency"><path d="M269.54,80.9469 C316.46,80.9469 377.73,80.9469 377.73,80.9469 C377.73,80.9469 377.73,171.4769 377.73,203.5769" style="stroke:#181818;stroke-width:1;" fill="none" id="admin-to-UC_AUDIT_VIEW"/><polygon points="377.73,208.5769,381.73,199.5769,377.73,203.5769,373.73,199.5769,377.73,208.5769" fill="#181818" style="stroke:#181818;stroke-width:1;stroke-linejoin:miter;stroke-miterlimit:10;"/></g><!--link chef to UC_AUDIT_VIEW--><g class="link" data-entity-1="ent0004" data-entity-2="ent0022" id="lnk35" data-source-line="50" data-link-type="dependency"><path d="M217.73,254.5169 C217.73,243.2369 217.73,233.8469 217.73,233.8469 C217.73,233.8469 310.25,233.8469 384.91,233.8469" style="stroke:#181818;stroke-width:1;" fill="none" id="chef-to-UC_AUDIT_VIEW"/><polygon points="389.91,233.8469,380.91,229.8469,384.91,233.8469,380.91,237.8469,389.91,233.8469" fill="#181818" style="stroke:#181818;stroke-width:1;stroke-linejoin:miter;stroke-miterlimit:10;"/></g><!--link chef to UC_VALIDATE--><g class="link" data-entity-1="ent0004" data-entity-2="ent0023" id="lnk36" data-source-line="51" data-link-type="dependency"><path d="M267.62,295.9469 C297.95,295.9469 332.56,295.9469 368.93,295.9469" style="stroke:#181818;stroke-width:1;" fill="none" id="chef-to-UC_VALIDATE"/><polygon points="373.93,295.9469,364.93,291.9469,368.93,295.9469,364.93,299.9469,373.93,295.9469" fill="#181818" style="stroke:#181818;stroke-width:1;stroke-linejoin:miter;stroke-miterlimit:10;"/></g><!--link UC_DEPOT to UC_CHECK--><g class="link" data-entity-1="ent0012" data-entity-2="ent0024" id="lnk37" data-source-line="53" data-link-type="dependency"><path d="M297.08,813.9469 C372.45,813.9469 473.73,813.9469 473.73,813.9469 C473.73,813.9469 473.73,772.8269 473.73,742.9169" style="stroke:#181818;stroke-width:1;stroke-dasharray:7,7;" fill="none" id="UC_DEPOT-to-UC_CHECK"/><polygon points="473.73,737.9169,469.73,746.9169,473.73,742.9169,477.73,746.9169,473.73,737.9169" fill="#181818" style="stroke:#181818;stroke-width:1;stroke-linejoin:miter;stroke-miterlimit:10;"/><text x="359.43" y="827.0138" fill="#000000" font-size="13" lengthAdjust="spacing" textLength="63.0068" font-family="sans-serif">«include»</text></g><!--link UC_RETRAIT to UC_CHECK--><g class="link" data-entity-1="ent0013" data-entity-2="ent0024" id="lnk38" data-source-line="54" data-link-type="dependency"><path d="M272.6,732.8969 C314.66,732.8969 367.21,732.8969 409.98,732.8969" style="stroke:#181818;stroke-width:1;stroke-dasharray:7,7;" fill="none" id="UC_RETRAIT-to-UC_CHECK"/><polygon points="414.98,732.8969,405.98,728.8969,409.98,732.8969,405.98,736.8969,414.98,732.8969" fill="#181818" style="stroke:#181818;stroke-width:1;stroke-linejoin:miter;stroke-miterlimit:10;"/><text x="279.79" y="728.9638" fill="#000000" font-size="13" lengthAdjust="spacing" textLength="63.0068" font-family="sans-serif">«include»</text></g><!--link UC_VIREMENT to UC_CHECK--><g class="link" data-entity-1="ent0014" data-entity-2="ent0024" id="lnk39" data-source-line="55" data-link-type="dependency"><path d="M277.74,693.3469 C318.69,693.3469 367.44,693.3469 408.3,693.3469" style="stroke:#181818;stroke-width:1;stroke-dasharray:7,7;" fill="none" id="UC_VIREMENT-to-UC_CHECK"/><polygon points="413.3,693.3469,404.3,689.3469,408.3,693.3469,404.3,697.3469,413.3,693.3469" fill="#181818" style="stroke:#181818;stroke-width:1;stroke-linejoin:miter;stroke-miterlimit:10;"/><text x="281.52" y="706.4138" fill="#000000" font-size="13" lengthAdjust="spacing" textLength="63.0068" font-family="sans-serif">«include»</text></g><!--link UC_BILL to UC_CHECK--><g class="link" data-entity-1="ent0015" data-entity-2="ent0024" id="lnk40" data-source-line="56" data-link-type="dependency"><path d="M294.63,609.9469 C370.23,609.9469 473.73,609.9469 473.73,609.9469 C473.73,609.9469 473.73,652.5269 473.73,683.0169" style="stroke:#181818;stroke-width:1;stroke-dasharray:7,7;" fill="none" id="UC_BILL-to-UC_CHECK"/><polygon points="473.73,688.0169,477.73,679.0169,473.73,683.0169,469.73,679.0169,473.73,688.0169" fill="#181818" style="stroke:#181818;stroke-width:1;stroke-linejoin:miter;stroke-miterlimit:10;"/><text x="359.22" y="623.0138" fill="#000000" font-size="13" lengthAdjust="spacing" textLength="63.0068" font-family="sans-serif">«include»</text></g><!--link UC_DASH to UC_RECENT--><g class="link" data-entity-1="ent0019" data-entity-2="ent0020" id="lnk41" data-source-line="57" data-link-type="dependency"><path d="M584.9,374.6869 C597.97,374.6869 606.3,374.6869 619.33,374.6869" style="stroke:#181818;stroke-width:1;stroke-dasharray:7,7;" fill="none" id="UC_DASH-to-UC_RECENT"/><polygon points="624.33,374.6869,615.33,370.6869,619.33,374.6869,615.33,378.6869,624.33,374.6869" fill="#181818" style="stroke:#181818;stroke-width:1;stroke-linejoin:miter;stroke-miterlimit:10;"/><text x="540.62" y="387.7538" fill="#000000" font-size="13" lengthAdjust="spacing" textLength="63.0068" font-family="sans-serif">«include»</text></g><g class="legend" data-source-line="59"><rect x="166.4441" y="867.9469" width="531.8418" height="144.375" fill="#DDDDDD" style="stroke:#000000;stroke-width:1;" rx="7.5" ry="7.5"/><text x="176.3181" y="887.942" fill="#000000" font-size="14" lengthAdjust="spacing" textLength="55.1865" font-weight="700" font-family="sans-serif">Détails</text><text x="300.8689" y="887.942" fill="#000000" font-size="14" lengthAdjust="spacing" textLength="4.874" font-weight="700" font-family="sans-serif"> </text><text x="175.8943" y="904.2389" fill="#000000" font-size="14" lengthAdjust="spacing" textLength="59.5273" font-family="sans-serif">Contrôle</text><text x="305.3191" y="904.2389" fill="#000000" font-size="14" lengthAdjust="spacing" textLength="200.2656" font-family="sans-serif">Solde suffisant, compte actif</text><text x="175.8943" y="920.5357" fill="#000000" font-size="14" lengthAdjust="spacing" textLength="120.5244" font-family="sans-serif">Paiement facture</text><text x="305.3191" y="920.5357" fill="#000000" font-size="14" lengthAdjust="spacing" textLength="280.916" font-family="sans-serif">Facturier, référence, débit compte, reçu</text><text x="175.8943" y="936.8326" fill="#000000" font-size="14" lengthAdjust="spacing" textLength="71.7842" font-family="sans-serif">Historique</text><text x="305.3191" y="936.8326" fill="#000000" font-size="14" lengthAdjust="spacing" textLength="320.7354" font-family="sans-serif">Date, heure, montant, utilisateur responsable</text><text x="175.8943" y="953.1295" fill="#000000" font-size="14" lengthAdjust="spacing" textLength="42.9844" font-family="sans-serif">Filtres</text><text x="305.3191" y="953.1295" fill="#000000" font-size="14" lengthAdjust="spacing" textLength="214.9629" font-family="sans-serif">Date, type, compte, utilisateur</text><text x="175.8943" y="969.4264" fill="#000000" font-size="14" lengthAdjust="spacing" textLength="79.3037" font-family="sans-serif">Utilisateurs</text><text x="305.3191" y="969.4264" fill="#000000" font-size="14" lengthAdjust="spacing" textLength="383.5166" font-family="sans-serif">Créer, modifier, rôles, activer/désactiver — admin seul</text><text x="175.8943" y="985.7232" fill="#000000" font-size="14" lengthAdjust="spacing" textLength="70.2188" font-family="sans-serif">Validation</text><text x="305.3191" y="985.7232" fill="#000000" font-size="14" lengthAdjust="spacing" textLength="267.1484" font-family="sans-serif">Chef d'agence — opérations sensibles</text><text x="175.8943" y="1002.0201" fill="#000000" font-size="14" lengthAdjust="spacing" textLength="36.7158" font-family="sans-serif">Audit</text><text x="305.3191" y="1002.0201" fill="#000000" font-size="14" lengthAdjust="spacing" textLength="255.0693" font-family="sans-serif">Opérations importantes journalisées</text><line x1="171.4441" y1="874.9469" x2="693.2859" y2="874.9469" style="stroke:#000000;stroke-width:1;"/><line x1="171.4441" y1="891.2438" x2="693.2859" y2="891.2438" style="stroke:#000000;stroke-width:1;"/><line x1="171.4441" y1="907.5406" x2="693.2859" y2="907.5406" style="stroke:#000000;stroke-width:1;"/><line x1="171.4441" y1="923.8375" x2="693.2859" y2="923.8375" style="stroke:#000000;stroke-width:1;"/><line x1="171.4441" y1="940.1344" x2="693.2859" y2="940.1344" style="stroke:#000000;stroke-width:1;"/><line x1="171.4441" y1="956.4313" x2="693.2859" y2="956.4313" style="stroke:#000000;stroke-width:1;"/><line x1="171.4441" y1="972.7281" x2="693.2859" y2="972.7281" style="stroke:#000000;stroke-width:1;"/><line x1="171.4441" y1="989.025" x2="693.2859" y2="989.025" style="stroke:#000000;stroke-width:1;"/><line x1="171.4441" y1="1005.3219" x2="693.2859" y2="1005.3219" style="stroke:#000000;stroke-width:1;"/><line x1="171.4441" y1="874.9469" x2="171.4441" y2="1005.3219" style="stroke:#000000;stroke-width:1;"/><line x1="300.8689" y1="874.9469" x2="300.8689" y2="1005.3219" style="stroke:#000000;stroke-width:1;"/><line x1="693.2859" y1="874.9469" x2="693.2859" y2="1005.3219" style="stroke:#000000;stroke-width:1;"/></g><?plantuml-src XLNDRXCn4BxlKunwwIK193YX4YaaMn8HQDGavH89ERlUnDIn5_y4LHI9AtVU0UNUDzWtuKaOU_-SfgMdR6Q-6N_-viUSPWQC1CNM6mCfKpGnJ8f8NpEH4qMse3SabT-OM4D6kAQ19oV9DLdJcRdX55mW4MiU0eHCgQOvl7mH61KHryxuAZHo9gYvoIb8PJOoYWmpcFCYB_QAE3uQg05jSwfsJ3j-4KcCL70ofKfB8IXVYfG2FqK-8g4dG3JajQi1zzCj4qmRp4cjyY3YJ8qVWmsiY4W82b7wdQds3pOqWpGy8q4BfdT9e6lpxcqlEDR77fjTpB4rQWI4apbgf8alX3w1xn60rJGX6brnbY7EKWLMG5hiy-BEU2QBmUTXFBsOFmfM5E_D6l1bFB_iZn-7xr21BVAlyLVZo_X3_F4WO4fkF9XYQs1W9Hc2tuudan0um8jORX3CJpTO0AdOLzkWH-FPGThYLyfCJPhJNR5V2cdnk_XZM_gJ-2gEVXpeDciRv9vi0G4AXgmu9HQmOLPIfOry_TaeZBbYsXBEj0_I8DjcN0fLx1CKX-gMp-2UEEyGNeLQmp2FRxecO36BBsUFKlmYhHA4ksQpQLkq_c8udcCfuay7H95bMXMYPRaKcWhDyAfD2VkJyR0_zwg5nnfLt75VcsBFsPgjaArnelk9QZFMUGQZUF0-YfhUXMwtr_RVaRdkj2D7qr977jy_HrRV9m-azvrmpCQLym6qhrCzigMnhCM1AL2wdDV_cXjbere6UFQirsW5h-7iZ8c4svJsUb6hoHEeMg0dO4wj9o1EZ1fIId0F4t6Asoh5WJ16Rh6xRj_0iDWRmhXstxVE14spuFTCSkmFRRCCMrkO3YHocniARczb5NvAc5yYzNv0qxd_ObHr08SeSqE2oxJZTjcAcIf9fnpsAikesHZuPqYSUuEZX3zRvEFF3YOCGtMEi-I6l4fmphX1QnFjNffESrGOM-8NmRowMoDHntShKvPLp543tV5ttL7r7CdhwXl-_lnTlYgWgULLHZ-YVeXSll0PyVXWjq0zjReAxRi5WB_XOyYsEJwKn2sWUbKmZIHT35QnhEK_?></g></svg>