<svg xmlns="http://www.w3.org/2000/svg" xmlns:xlink="http://www.w3.org/1999/xlink" contentStyleType="text/css" height="973px" preserveAspectRatio="none" style="width:864px;height:973px;background:#FFFFFF;" version="1.1" viewBox="0 0 864 973" width="864px" zoomAndPan="magnify"><title>Op&#233;rations et supervision</title><defs/><g><text fill="#000000" font-family="sans-serif" font-size="14" font-weight="bold" lengthAdjust="spacing" textLength="172.71" x="338.645" y="24.5332">Op&#233;rations et supervision</text><!--cluster Transactions--><g id="cluster_Transactions"><rect fill="none" height="383" rx="2.5" ry="2.5" style="stroke:#181818;stroke-width:1;" width="208" x="101" y="416.1094"/><text fill="#000000" font-family="sans-serif" font-size="14" font-weight="bold" lengthAdjust="spacing" textLength="87.1377" x="161.4312" y="432.6426">Transactions</text></g><!--cluster Supervision--><g id="cluster_Supervision"><rect fill="none" height="332" rx="2.5" ry="2.5" style="stroke:#181818;stroke-width:1;" width="525" x="333" y="91.1094"/><text fill="#000000" font-family="sans-serif" font-size="14" font-weight="bold" lengthAdjust="spacing" textLength="80.1309" x="555.4346" y="107.6426">Supervision</text></g><g id="elem_UC_DEPOT"><ellipse cx="205.0454" cy="471.0185" fill="#F1F1F1" rx="80.0454" ry="18.4091" style="stroke:#181818;stroke-width:0.5;"/><text fill="#000000" font-family="sans-serif" font-size="14" lengthAdjust="spacing" textLength="114.4131" x="146.8711" y="475.0249">Effectuer un d&#233;p&#244;t</text></g><g id="elem_UC_RETRAIT"><ellipse cx="204.8495" cy="538.0793" fill="#F1F1F1" rx="80.3495" ry="18.4699" style="stroke:#181818;stroke-width:0.5;"/><text fill="#000000" font-family="sans-serif" font-size="14" lengthAdjust="spacing" textLength="115.165" x="146.4327" y="542.0488">Effectuer un retrait</text></g><g id="elem_UC_VIREMENT"><ellipse cx="204.8456" cy="607.0785" fill="#F1F1F1" rx="87.8456" ry="19.9691" style="stroke:#181818;stroke-width:0.5;"/><text fill="#000000" font-family="sans-serif" font-size="14" lengthAdjust="spacing" textLength="133.0615" x="138.3148" y="610.807">Effectuer un virement</text></g><g id="elem_UC_HIST"><ellipse cx="205.1653" cy="677.3424" fill="#F1F1F1" rx="86.6653" ry="19.7331" style="stroke:#181818;stroke-width:0.5;"/><text fill="#000000" font-family="sans-serif" font-size="14" lengthAdjust="spacing" textLength="130.293" x="140.0188" y="681.071">Consulter l'historique</text></g><g id="elem_UC_RELEVE"><ellipse cx="204.8204" cy="755.0128" fill="#F1F1F1" rx="80.8204" ry="27.9034" style="stroke:#181818;stroke-width:0.5;"/><text fill="#000000" font-family="sans-serif" font-size="14" lengthAdjust="spacing" textLength="98.0547" x="155.7931" y="749.9366">&#201;diter un relev&#233;</text><text fill="#000000" font-family="sans-serif" font-size="14" lengthAdjust="spacing" textLength="46.6963" x="181.4723" y="767.546">ou re&#231;u</text></g><g id="elem_UC_DASH"><ellipse cx="455.7509" cy="382.8595" fill="#F1F1F1" rx="106.7509" ry="23.7502" style="stroke:#181818;stroke-width:0.5;"/><text fill="#000000" font-family="sans-serif" font-size="14" lengthAdjust="spacing" textLength="175.8955" x="367.8031" y="386.5881">Consulter le tableau de bord</text></g><g id="elem_UC_RECENT"><ellipse cx="722.3496" cy="379.1343" fill="#F1F1F1" rx="119.3496" ry="28.0249" style="stroke:#181818;stroke-width:0.5;"/><text fill="#000000" font-family="sans-serif" font-size="14" lengthAdjust="spacing" textLength="151.7441" x="643.4776" y="374.8462">Visualiser les op&#233;rations</text><text fill="#000000" font-family="sans-serif" font-size="14" lengthAdjust="spacing" textLength="53.6963" x="692.5015" y="392.4556">r&#233;centes</text></g><g id="elem_UC_USERS"><ellipse cx="455.853" cy="147.18" fill="#F1F1F1" rx="85.853" ry="19.5706" style="stroke:#181818;stroke-width:0.5;"/><text fill="#000000" font-family="sans-serif" font-size="14" lengthAdjust="spacing" textLength="128.3789" x="391.6636" y="150.9085">G&#233;rer les utilisateurs</text></g><g id="elem_UC_AUDIT_VIEW"><ellipse cx="455.9914" cy="219.9077" fill="#F1F1F1" rx="101.9914" ry="22.7983" style="stroke:#181818;stroke-width:0.5;"/><text fill="#000000" font-family="sans-serif" font-size="14" lengthAdjust="spacing" textLength="165.3271" x="373.3278" y="223.6362">Consulter le journal d'audit</text></g><g id="elem_UC_VALIDATE"><ellipse cx="455.8675" cy="301.0782" fill="#F1F1F1" rx="105.8675" ry="27.9688" style="stroke:#181818;stroke-width:0.5;"/><text fill="#000000" font-family="sans-serif" font-size="14" lengthAdjust="spacing" textLength="133.0957" x="386.3197" y="296.7901">Valider une op&#233;ration</text><text fill="#000000" font-family="sans-serif" font-size="14" lengthAdjust="spacing" textLength="51.3652" x="427.1849" y="314.3995">sensible</text></g><!--entity personnel--><g id="elem_personnel"><ellipse cx="41.5879" cy="466.1094" fill="#F1F1F1" rx="8" ry="8" style="stroke:#181818;stroke-width:0.5;"/><path d="M41.5879,474.1094 L41.5879,501.1094 M28.5879,482.1094 L54.5879,482.1094 M41.5879,501.1094 L28.5879,516.1094 M41.5879,501.1094 L54.5879,516.1094 " fill="none" style="stroke:#181818;stroke-width:0.5;"/><text fill="#000000" font-family="sans-serif" font-size="14" lengthAdjust="spacing" textLength="63.041" x="6" y="532.1426">Personnel</text><text fill="#000000" font-family="sans-serif" font-size="14" lengthAdjust="spacing" textLength="71.1758" x="6" y="549.752">de l'agence</text></g><!--entity admin--><g id="elem_admin"><ellipse cx="205.1274" cy="52.6094" fill="#F1F1F1" rx="8" ry="8" style="stroke:#181818;stroke-width:0.5;"/><path d="M205.1274,60.6094 L205.1274,87.6094 M192.1274,68.6094 L218.1274,68.6094 M205.1274,87.6094 L192.1274,102.6094 M205.1274,87.6094 L218.1274,102.6094 " fill="none" style="stroke:#181818;stroke-width:0.5;"/><text fill="#000000" font-family="sans-serif" font-size="14" lengthAdjust="spacing" textLength="90.2549" x="160" y="118.6426">Administrateur</text></g><!--entity agent--><g id="elem_agent"><ellipse cx="205.0894" cy="160.6094" fill="#F1F1F1" rx="8" ry="8" style="stroke:#181818;stroke-width:0.5;"/><path d="M205.0894,168.6094 L205.0894,195.6094 M192.0894,176.6094 L218.0894,176.6094 M205.0894,195.6094 L192.0894,210.6094 M205.0894,195.6094 L218.0894,210.6094 " fill="none" style="stroke:#181818;stroke-width:0.5;"/><text fill="#000000" font-family="sans-serif" font-size="14" lengthAdjust="spacing" textLength="94.1787" x="158" y="226.6426">Agent bancaire</text></g><!--entity chef--><g id="elem_chef"><ellipse cx="204.9258" cy="268.6094" fill="#F1F1F1" rx="8" ry="8" style="stroke:#181818;stroke-width:0.5;"/><path d="M204.9258,276.6094 L204.9258,303.6094 M191.9258,284.6094 L217.9258,284.6094 M204.9258,303.6094 L191.9258,318.6094 M204.9258,303.6094 L217.9258,318.6094 " fill="none" style="stroke:#181818;stroke-width:0.5;"/><text fill="#000000" font-family="sans-serif" font-size="14" lengthAdjust="spacing" textLength="89.8516" x="160" y="334.6426">Chef d'agence</text></g><g id="elem_UC_CHECK"><ellipse cx="456.0866" cy="538.0335" fill="#F1F1F1" rx="97.0866" ry="27.9241" style="stroke:#181818;stroke-width:0.5;"/><text fill="#000000" font-family="sans-serif" font-size="14" lengthAdjust="spacing" textLength="120.9482" x="392.9035" y="533.6749">Contr&#244;ler l'&#233;ligibilit&#233;</text><text fill="#000000" font-family="sans-serif" font-size="14" lengthAdjust="spacing" textLength="83.624" x="411.5656" y="551.2843">de l'op&#233;ration</text></g><!--reverse link personnel to admin--><g id="link_personnel_admin"><path d="M24,439.5194 C24,329.1594 24,83.1094 24,83.1094 C24,83.1094 106.18,83.1094 159.79,83.1094 " fill="none" id="personnel-backto-admin" style="stroke:#181818;stroke-width:1;"/><polygon fill="none" points="24,457.5194,30,439.5194,18,439.5194,24,457.5194" style="stroke:#181818;stroke-width:1;"/></g><!--reverse link personnel to agent--><g id="link_personnel_agent"><path d="M42,439.4194 C42,351.5794 42,191.1094 42,191.1094 C42,191.1094 109.71,191.1094 157.85,191.1094 " fill="none" id="personnel-backto-agent" style="stroke:#181818;stroke-width:1;"/><polygon fill="none" points="42,457.4194,48,439.4194,36,439.4194,42,457.4194" style="stroke:#181818;stroke-width:1;"/></g><!--reverse link personnel to chef--><g id="link_personnel_chef"><path d="M60,439.5894 C60,378.7494 60,299.1094 60,299.1094 C60,299.1094 117.35,299.1094 159.92,299.1094 " fill="none" id="personnel-backto-chef" style="stroke:#181818;stroke-width:1;"/><polygon fill="none" points="60,457.5894,66,439.5894,54,439.5894,60,457.5894" style="stroke:#181818;stroke-width:1;"/></g><!--link personnel to UC_DEPOT--><g id="link_personnel_UC_DEPOT"><path d="M77.38,473.6094 C91.67,473.6094 102.72,473.6094 119.64,473.6094 " fill="none" id="personnel-to-UC_DEPOT" style="stroke:#181818;stroke-width:1;"/><polygon fill="#181818" points="125.64,473.6094,116.64,469.6094,120.64,473.6094,116.64,477.6094,125.64,473.6094" style="stroke:#181818;stroke-width:1;"/></g><!--link personnel to UC_RETRAIT--><g id="link_personnel_UC_RETRAIT"><path d="M77.38,530.6094 C93.27,530.6094 106.57,530.6094 125.3,530.6094 " fill="none" id="personnel-to-UC_RETRAIT" style="stroke:#181818;stroke-width:1;"/><polygon fill="#181818" points="131.3,530.6094,122.3,526.6094,126.3,530.6094,122.3,534.6094,131.3,530.6094" style="stroke:#181818;stroke-width:1;"/></g><!--link personnel to UC_VIREMENT--><g id="link_personnel_UC_VIREMENT"><path d="M77.06,541.6094 C98.23,541.6094 121,541.6094 121,541.6094 C121,541.6094 121,578.8494 121,595.0694 " fill="none" id="personnel-to-UC_VIREMENT" style="stroke:#181818;stroke-width:1;"/><polygon fill="#181818" points="121,601.0694,125,592.0694,121,596.0694,117,592.0694,121,601.0694" style="stroke:#181818;stroke-width:1;"/></g><!--link personnel to UC_HIST--><g id="link_personnel_UC_HIST"><path d="M54,553.0194 C54,603.9094 54,677.1094 54,677.1094 C54,677.1094 78.74,677.1094 112.48,677.1094 " fill="none" id="personnel-to-UC_HIST" style="stroke:#181818;stroke-width:1;"/><polygon fill="#181818" points="118.48,677.1094,109.48,673.1094,113.48,677.1094,109.48,681.1094,118.48,677.1094" style="stroke:#181818;stroke-width:1;"/></g><!--link personnel to UC_RELEVE--><g id="link_personnel_UC_RELEVE"><path d="M30,552.7194 C30,625.2594 30,755.1094 30,755.1094 C30,755.1094 72.13,755.1094 117.9,755.1094 " fill="none" id="personnel-to-UC_RELEVE" style="stroke:#181818;stroke-width:1;"/><polygon fill="#181818" points="123.9,755.1094,114.9,751.1094,118.9,755.1094,114.9,759.1094,123.9,755.1094" style="stroke:#181818;stroke-width:1;"/></g><!--link personnel to UC_DASH--><g id="link_personnel_UC_DASH"><path d="M77.04,496.4394 C158.95,496.4394 354,496.4394 354,496.4394 C354,496.4394 354,421.7594 354,396.5494 " fill="none" id="personnel-to-UC_DASH" style="stroke:#181818;stroke-width:1;"/><polygon fill="#181818" points="354,390.5494,350,399.5494,354,395.5494,358,399.5494,354,390.5494" style="stroke:#181818;stroke-width:1;"/></g><!--link personnel to UC_RECENT--><g id="link_personnel_UC_RECENT"><path d="M77.18,503.2794 C217.4,503.2794 723,503.2794 723,503.2794 C723,503.2794 723,449.9194 723,413.2894 " fill="none" id="personnel-to-UC_RECENT" style="stroke:#181818;stroke-width:1;"/><polygon fill="#181818" points="723,407.2894,719,416.2894,723,412.2894,727,416.2894,723,407.2894" style="stroke:#181818;stroke-width:1;"/></g><!--link admin to UC_USERS--><g id="link_admin_UC_USERS"><path d="M205,122.2194 C205,132.0394 205,139.8594 205,139.8594 C205,139.8594 296.44,139.8594 369.89,139.8594 " fill="none" id="admin-to-UC_USERS" style="stroke:#181818;stroke-width:1;"/><polygon fill="#181818" points="375.89,139.8594,366.89,135.8594,370.89,139.8594,366.89,143.8594,375.89,139.8594" style="stroke:#181818;stroke-width:1;"/></g><!--link admin to UC_AUDIT_VIEW--><g id="link_admin_UC_AUDIT_VIEW"><path d="M250.41,83.1094 C296.78,83.1094 362,83.1094 362,83.1094 C362,83.1094 362,174.6394 362,205.1194 " fill="none" id="admin-to-UC_AUDIT_VIEW" style="stroke:#181818;stroke-width:1;"/><polygon fill="#181818" points="362,211.1194,366,202.1194,362,206.1194,358,202.1194,362,211.1194" style="stroke:#181818;stroke-width:1;"/></g><!--link chef to UC_AUDIT_VIEW--><g id="link_chef_UC_AUDIT_VIEW"><path d="M205,259.8794 C205,247.3294 205,236.6094 205,236.6094 C205,236.6094 304.54,236.6094 378.74,236.6094 " fill="none" id="chef-to-UC_AUDIT_VIEW" style="stroke:#181818;stroke-width:1;"/><polygon fill="#181818" points="384.74,236.6094,375.74,232.6094,379.74,236.6094,375.74,240.6094,384.74,236.6094" style="stroke:#181818;stroke-width:1;"/></g><!--link chef to UC_VALIDATE--><g id="link_chef_UC_VALIDATE"><path d="M250.16,301.1094 C278.04,301.1094 309.04,301.1094 343.97,301.1094 " fill="none" id="chef-to-UC_VALIDATE" style="stroke:#181818;stroke-width:1;"/><polygon fill="#181818" points="349.97,301.1094,340.97,297.1094,344.97,301.1094,340.97,305.1094,349.97,301.1094" style="stroke:#181818;stroke-width:1;"/></g><!--link UC_DEPOT to UC_CHECK--><g id="link_UC_DEPOT_UC_CHECK"><path d="M205,489.6594 C205,501.5894 205,514.8594 205,514.8594 C205,514.8594 322.06,514.8594 395.85,514.8594 " fill="none" id="UC_DEPOT-to-UC_CHECK" style="stroke:#181818;stroke-width:1;stroke-dasharray:7.0,7.0;"/><polygon fill="#181818" points="401.85,514.8594,392.85,510.8594,396.85,514.8594,392.85,518.8594,401.85,514.8594" style="stroke:#181818;stroke-width:1;"/><text fill="#000000" font-family="sans-serif" font-size="13" lengthAdjust="spacing" textLength="55.6563" x="291.82" y="529.3545">&#171;include&#187;</text></g><!--link UC_RETRAIT to UC_CHECK--><g id="link_UC_RETRAIT_UC_CHECK"><path d="M285.8,538.1094 C309.02,538.1094 328.58,538.1094 352.68,538.1094 " fill="none" id="UC_RETRAIT-to-UC_CHECK" style="stroke:#181818;stroke-width:1;stroke-dasharray:7.0,7.0;"/><polygon fill="#181818" points="358.68,538.1094,349.68,534.1094,353.68,538.1094,349.68,542.1094,358.68,538.1094" style="stroke:#181818;stroke-width:1;"/><text fill="#000000" font-family="sans-serif" font-size="13" lengthAdjust="spacing" textLength="55.6563" x="266.24" y="552.6045">&#171;include&#187;</text></g><!--link UC_VIREMENT to UC_CHECK--><g id="link_UC_VIREMENT_UC_CHECK"><path d="M290,601.8594 C290,589.8394 290,561.3594 290,561.3594 C290,561.3594 347.23,561.3594 395.65,561.3594 " fill="none" id="UC_VIREMENT-to-UC_CHECK" style="stroke:#181818;stroke-width:1;stroke-dasharray:7.0,7.0;"/><polygon fill="#181818" points="401.65,561.3594,392.65,557.3594,396.65,561.3594,392.65,565.3594,401.65,561.3594" style="stroke:#181818;stroke-width:1;"/><text fill="#000000" font-family="sans-serif" font-size="13" lengthAdjust="spacing" textLength="55.6563" x="269.57" y="575.8545">&#171;include&#187;</text></g><!--link UC_DASH to UC_RECENT--><g id="link_UC_DASH_UC_RECENT"><path d="M563.24,383.1094 C576.69,383.1094 584.51,383.1094 598.12,383.1094 " fill="none" id="UC_DASH-to-UC_RECENT" style="stroke:#181818;stroke-width:1;stroke-dasharray:7.0,7.0;"/><polygon fill="#181818" points="604.12,383.1094,595.12,379.1094,599.12,383.1094,595.12,387.1094,604.12,383.1094" style="stroke:#181818;stroke-width:1;"/><text fill="#000000" font-family="sans-serif" font-size="13" lengthAdjust="spacing" textLength="55.6563" x="527.68" y="397.6045">&#171;include&#187;</text></g><rect fill="#DDDDDD" height="137.2656" id="_legend" rx="7.5" ry="7.5" style="stroke:#000000;stroke-width:1;" width="431.6953" x="209.1523" y="816.1094"/><text fill="#000000" font-family="sans-serif" font-size="14" font-weight="bold" lengthAdjust="spacing" textLength="45.9102" x="218.042" y="837.6426">D&#233;tails</text><text fill="#000000" font-family="sans-serif" font-size="14" font-weight="bold" lengthAdjust="spacing" textLength="3.8896" x="291.1729" y="837.6426">&#160;</text><text fill="#000000" font-family="sans-serif" font-size="14" lengthAdjust="spacing" textLength="52.917" x="218.042" y="855.252">Contr&#244;le</text><text fill="#000000" font-family="sans-serif" font-size="14" lengthAdjust="spacing" textLength="175.0889" x="295.0625" y="855.252">Solde suffisant, compte actif</text><text fill="#000000" font-family="sans-serif" font-size="14" lengthAdjust="spacing" textLength="63.0273" x="218.042" y="872.8613">Historique</text><text fill="#000000" font-family="sans-serif" font-size="14" lengthAdjust="spacing" textLength="279.3848" x="295.0625" y="872.8613">Date, heure, montant, utilisateur responsable</text><text fill="#000000" font-family="sans-serif" font-size="14" lengthAdjust="spacing" textLength="38.1104" x="218.042" y="890.4707">Filtres</text><text fill="#000000" font-family="sans-serif" font-size="14" lengthAdjust="spacing" textLength="185.1992" x="295.0625" y="890.4707">Date, type, compte, utilisateur</text><text fill="#000000" font-family="sans-serif" font-size="14" lengthAdjust="spacing" textLength="69.2412" x="218.042" y="908.0801">Utilisateurs</text><text fill="#000000" font-family="sans-serif" font-size="14" lengthAdjust="spacing" textLength="336.8955" x="295.0625" y="908.0801">Cr&#233;er, modifier, r&#244;les, activer/d&#233;sactiver &#8212; admin seul</text><text fill="#000000" font-family="sans-serif" font-size="14" lengthAdjust="spacing" textLength="61.4893" x="218.042" y="925.6895">Validation</text><text fill="#000000" font-family="sans-serif" font-size="14" lengthAdjust="spacing" textLength="239.2646" x="295.0625" y="925.6895">Chef d'agence &#8212; op&#233;rations sensibles</text><text fill="#000000" font-family="sans-serif" font-size="14" lengthAdjust="spacing" textLength="31.9102" x="218.042" y="943.2988">Audit</text><text fill="#000000" font-family="sans-serif" font-size="14" lengthAdjust="spacing" textLength="224.1162" x="295.0625" y="943.2988">Op&#233;rations importantes journalis&#233;es</text><line style="stroke:#000000;stroke-width:1;" x1="214.1523" x2="635.8477" y1="823.1094" y2="823.1094"/><line style="stroke:#000000;stroke-width:1;" x1="214.1523" x2="635.8477" y1="840.7188" y2="840.7188"/><line style="stroke:#000000;stroke-width:1;" x1="214.1523" x2="635.8477" y1="858.3281" y2="858.3281"/><line style="stroke:#000000;stroke-width:1;" x1="214.1523" x2="635.8477" y1="875.9375" y2="875.9375"/><line style="stroke:#000000;stroke-width:1;" x1="214.1523" x2="635.8477" y1="893.5469" y2="893.5469"/><line style="stroke:#000000;stroke-width:1;" x1="214.1523" x2="635.8477" y1="911.1563" y2="911.1563"/><line style="stroke:#000000;stroke-width:1;" x1="214.1523" x2="635.8477" y1="928.7656" y2="928.7656"/><line style="stroke:#000000;stroke-width:1;" x1="214.1523" x2="635.8477" y1="946.375" y2="946.375"/><line style="stroke:#000000;stroke-width:1;" x1="214.1523" x2="214.1523" y1="823.1094" y2="946.375"/><line style="stroke:#000000;stroke-width:1;" x1="291.1729" x2="291.1729" y1="823.1094" y2="946.375"/><line style="stroke:#000000;stroke-width:1;" x1="635.8477" x2="635.8477" y1="823.1094" y2="946.375"/><!--SRC=[XLNDRXCn4BxlKunowQK193YX4YbA5X9HQ9MVSec4dDtPnDIn5_y4LHI9AtVU0UNUDzWtuKaOUxC_QLfwYZF-Plpvcs-y0ZCBLe7cgxM5b6jCB5SoCjTSvaop3PWrIzKtBbUGCM6mjPEpv9gjS6fl189FP78bsW2fKZIOmyiNhQ1cyje7NxM3WakqDpc2qdQjeiXoIpKlycAdcUTZ02qObwFUSkFvHIonIaFd4hLHKg9Oo1H1d10VcM07c86ysgh1_NJ39JUMQgBJ0SHygDwdP0jB9XD6GfJxFbJj3zQOGTe-8w48bVT5eEloxcslTMp8FGxxdEDeL0i8dHbfP5XeXEd0zmZ06KoOeQquomZdK8EJa1QxlBYpWSbyy7aONrxC7WLhf7lp6Zo9PvF- -77ubXJO4FyAVpMUn1_YZmS90-BdXAK4SR8cNPNcNnrM6QFnz01T_4gvhRW8t1QxXLIEriKVrx0wZw_YwCU17DEcx_VKQ150i6mfa3aW7ooLJcjL-jDHE-UA6yS4Do79W6eyjf2ws2LqPpGDdy6zExyZ-3xLMKvrWfVgXFaqdamVfVX5EIsPy1voQTEB_dmudf72yQS3eiGo3NfXY-L26fI6qrNhplJFnyF-BAZMFjRguaw4tXGxmLTyIMoj5pqCIbEngZCOnOFtKLHR4hhTNcEhet1beAEDsYb7Ey4H3nGAFJy-rpVk0NJeI3LpPR1K_I3KqhGSkF-6QmsZwiBmx5clLWLUmzaPbubmAVPwKNFx9r2L54_0_4qhI7c_UvX88BqbAVdQMhKXazo-WM6niumBuzUtFWHrpsazLOBQR5oMaKEbFOL4RNABu5-LR8yVrIDBVuRaurDOavVfPqELGbRBuZIe9YSp-odR5tZBXQLedUrVyEgamzmIFsyDZETBuuRQdvRoZFjLO6zE0yijwkVqm9dz6lx-_5s-rc3GYNt5C2F1nRvU-taE-DPmGpKsPf_QznD8l-sF3D_az05Y_WMePfKR8kbpIF-o2z4_]--></g></svg>