<svg xmlns="http://www.w3.org/2000/svg" xmlns:xlink="http://www.w3.org/1999/xlink" contentStyleType="text/css" height="877px" preserveAspectRatio="none" style="width:678px;height:877px;background:#FFFFFF;" version="1.1" viewBox="0 0 678 877" width="678px" zoomAndPan="magnify"><title>Op&#233;rations et supervision</title><defs/><g><text fill="#000000" font-family="sans-serif" font-size="14" font-weight="bold" lengthAdjust="spacing" textLength="172.71" x="245.645" y="24.5332">Op&#233;rations et supervision</text><!--cluster TX--><g id="cluster_TX"><rect fill="none" height="402" rx="2.5" ry="2.5" style="stroke:#181818;stroke-width:1;" width="201" x="216" y="45.6094"/><text fill="#000000" font-family="sans-serif" font-size="12" font-weight="bold" lengthAdjust="spacing" textLength="74.6895" x="279.1553" y="60.0664">Transactions</text></g><!--cluster SUP--><g id="cluster_SUP"><rect fill="none" height="380" rx="2.5" ry="2.5" style="stroke:#181818;stroke-width:1;" width="472" x="200" y="491.6094"/><text fill="#000000" font-family="sans-serif" font-size="12" font-weight="bold" lengthAdjust="spacing" textLength="68.6836" x="401.6582" y="506.0664">Supervision</text></g><g id="elem_UC_DEPOT"><ellipse cx="316.7281" cy="104.455" fill="#F1F1F1" rx="69.7281" ry="16.3456" style="stroke:#181818;stroke-width:0.5;"/><text fill="#000000" font-family="sans-serif" font-size="12" lengthAdjust="spacing" textLength="98.0684" x="267.694" y="107.3652">Effectuer un d&#233;p&#244;t</text></g><g id="elem_UC_RETRAIT"><ellipse cx="316.4942" cy="287.5082" fill="#F1F1F1" rx="69.9942" ry="16.3988" style="stroke:#181818;stroke-width:0.5;"/><text fill="#000000" font-family="sans-serif" font-size="12" lengthAdjust="spacing" textLength="98.7129" x="267.1377" y="290.4184">Effectuer un retrait</text></g><g id="elem_UC_VIREMENT"><ellipse cx="316.4589" cy="343.8011" fill="#F1F1F1" rx="76.4589" ry="17.6918" style="stroke:#181818;stroke-width:0.5;"/><text fill="#000000" font-family="sans-serif" font-size="12" lengthAdjust="spacing" textLength="114.0527" x="259.4325" y="346.7113">Effectuer un virement</text></g><g id="elem_UC_BILL"><ellipse cx="316.3553" cy="399.6804" fill="#F1F1F1" rx="68.3553" ry="16.0711" style="stroke:#181818;stroke-width:0.5;"/><text fill="#000000" font-family="sans-serif" font-size="12" lengthAdjust="spacing" textLength="94.7227" x="268.994" y="402.5906">Payer une facture</text></g><g id="elem_UC_HIST"><ellipse cx="316.4434" cy="160.5981" fill="#F1F1F1" rx="75.4434" ry="17.4887" style="stroke:#181818;stroke-width:0.5;"/><text fill="#000000" font-family="sans-serif" font-size="12" lengthAdjust="spacing" textLength="111.6797" x="260.6036" y="163.5082">Consulter l'historique</text></g><g id="elem_UC_RELEVE"><ellipse cx="316.4154" cy="224.4552" fill="#F1F1F1" rx="70.9154" ry="24.3458" style="stroke:#181818;stroke-width:0.5;"/><text fill="#000000" font-family="sans-serif" font-size="12" lengthAdjust="spacing" textLength="84.0469" x="274.392" y="219.8184">&#201;diter un relev&#233;</text><text fill="#000000" font-family="sans-serif" font-size="12" lengthAdjust="spacing" textLength="40.0254" x="296.4027" y="234.9122">ou re&#231;u</text></g><g id="elem_UC_DASH"><ellipse cx="316.7062" cy="634.5506" fill="#F1F1F1" rx="92.7062" ry="20.9412" style="stroke:#181818;stroke-width:0.5;"/><text fill="#000000" font-family="sans-serif" font-size="12" lengthAdjust="spacing" textLength="150.7676" x="241.3224" y="637.4608">Consulter le tableau de bord</text></g><g id="elem_UC_RECENT"><ellipse cx="544.4561" cy="600.4552" fill="#F1F1F1" rx="103.4561" ry="24.3458" style="stroke:#181818;stroke-width:0.5;"/><text fill="#000000" font-family="sans-serif" font-size="12" lengthAdjust="spacing" textLength="130.0664" x="479.4229" y="595.8184">Visualiser les op&#233;rations</text><text fill="#000000" font-family="sans-serif" font-size="12" lengthAdjust="spacing" textLength="46.0254" x="521.4434" y="610.9122">r&#233;centes</text></g><g id="elem_UC_ALERTS"><ellipse cx="544.3306" cy="729.4552" fill="#F1F1F1" rx="88.8306" ry="24.3458" style="stroke:#181818;stroke-width:0.5;"/><text fill="#000000" font-family="sans-serif" font-size="12" lengthAdjust="spacing" textLength="109.3828" x="489.6392" y="724.8184">Consulter les alertes</text><text fill="#000000" font-family="sans-serif" font-size="12" lengthAdjust="spacing" textLength="33.3398" x="527.6607" y="739.9122">m&#233;tier</text></g><g id="elem_UC_NOTIF"><ellipse cx="316.5049" cy="566.4552" fill="#F1F1F1" rx="61.0049" ry="24.3458" style="stroke:#181818;stroke-width:0.5;"/><text fill="#000000" font-family="sans-serif" font-size="12" lengthAdjust="spacing" textLength="70.0313" x="281.4892" y="561.8184">Consulter les</text><text fill="#000000" font-family="sans-serif" font-size="12" lengthAdjust="spacing" textLength="63.3691" x="284.8203" y="576.9122">notifications</text></g><g id="elem_UC_USERS"><ellipse cx="316.7445" cy="695.4583" fill="#F1F1F1" rx="74.7445" ry="17.3489" style="stroke:#181818;stroke-width:0.5;"/><text fill="#000000" font-family="sans-serif" font-size="12" lengthAdjust="spacing" textLength="110.0391" x="261.7249" y="698.3684">G&#233;rer les utilisateurs</text></g><g id="elem_UC_AUDIT_VIEW"><ellipse cx="316.6183" cy="755.733" fill="#F1F1F1" rx="88.6183" ry="20.1237" style="stroke:#181818;stroke-width:0.5;"/><text fill="#000000" font-family="sans-serif" font-size="12" lengthAdjust="spacing" textLength="141.709" x="245.7638" y="758.6432">Consulter le journal d'audit</text></g><g id="elem_UC_VALIDATE"><ellipse cx="316.6535" cy="822.4552" fill="#F1F1F1" rx="92.1535" ry="24.3458" style="stroke:#181818;stroke-width:0.5;"/><text fill="#000000" font-family="sans-serif" font-size="12" lengthAdjust="spacing" textLength="114.082" x="259.6124" y="817.8184">Valider une op&#233;ration</text><text fill="#000000" font-family="sans-serif" font-size="12" lengthAdjust="spacing" textLength="44.0273" x="294.6398" y="832.9122">sensible</text></g><!--entity personnel--><g id="elem_personnel"><ellipse cx="145.5039" cy="405.1094" fill="#F1F1F1" rx="8" ry="8" style="stroke:#181818;stroke-width:0.5;"/><path d="M145.5039,413.1094 L145.5039,440.1094 M132.5039,421.1094 L158.5039,421.1094 M145.5039,440.1094 L132.5039,455.1094 M145.5039,440.1094 L158.5039,455.1094 " fill="none" style="stroke:#181818;stroke-width:0.5;"/><text fill="#000000" font-family="sans-serif" font-size="12" lengthAdjust="spacing" textLength="54.0352" x="115" y="469.0664">Personnel</text><text fill="#000000" font-family="sans-serif" font-size="12" lengthAdjust="spacing" textLength="61.0078" x="115" y="484.1602">de l'agence</text></g><!--entity admin--><g id="elem_admin"><ellipse cx="46.6807" cy="571.6094" fill="#F1F1F1" rx="8" ry="8" style="stroke:#181818;stroke-width:0.5;"/><path d="M46.6807,579.6094 L46.6807,606.6094 M33.6807,587.6094 L59.6807,587.6094 M46.6807,606.6094 L33.6807,621.6094 M46.6807,606.6094 L59.6807,621.6094 " fill="none" style="stroke:#181818;stroke-width:0.5;"/><text fill="#000000" font-family="sans-serif" font-size="12" lengthAdjust="spacing" textLength="77.3613" x="8" y="635.5664">Administrateur</text></g><!--entity agent--><g id="elem_agent"><ellipse cx="46.3623" cy="668.6094" fill="#F1F1F1" rx="8" ry="8" style="stroke:#181818;stroke-width:0.5;"/><path d="M46.3623,676.6094 L46.3623,703.6094 M33.3623,684.6094 L59.3623,684.6094 M46.3623,703.6094 L33.3623,718.6094 M46.3623,703.6094 L59.3623,718.6094 " fill="none" style="stroke:#181818;stroke-width:0.5;"/><text fill="#000000" font-family="sans-serif" font-size="12" lengthAdjust="spacing" textLength="80.7246" x="6" y="732.5664">Agent bancaire</text></g><!--entity chef--><g id="elem_chef"><ellipse cx="46.5078" cy="765.6094" fill="#F1F1F1" rx="8" ry="8" style="stroke:#181818;stroke-width:0.5;"/><path d="M46.5078,773.6094 L46.5078,800.6094 M33.5078,781.6094 L59.5078,781.6094 M46.5078,800.6094 L33.5078,815.6094 M46.5078,800.6094 L59.5078,815.6094 " fill="none" style="stroke:#181818;stroke-width:0.5;"/><text fill="#000000" font-family="sans-serif" font-size="12" lengthAdjust="spacing" textLength="77.0156" x="8" y="829.5664">Chef d'agence</text></g><g id="elem_UC_CHECK"><ellipse cx="544.291" cy="343.4552" fill="#F1F1F1" rx="84.791" ry="24.3458" style="stroke:#181818;stroke-width:0.5;"/><text fill="#000000" font-family="sans-serif" font-size="12" lengthAdjust="spacing" textLength="103.6699" x="492.456" y="338.8184">Contr&#244;ler l'&#233;ligibilit&#233;</text><text fill="#000000" font-family="sans-serif" font-size="12" lengthAdjust="spacing" textLength="71.6777" x="508.4521" y="353.9122">de l'op&#233;ration</text></g><!--link admin to agent--><!--link agent to chef--><!--link admin to personnel--><g id="link_admin_personnel"><path d="M85.34,577.1094 C106.33,577.1094 128,577.1094 128,577.1094 C128,577.1094 128,544.1494 128,504.7294 " fill="none" id="admin-to-personnel" style="stroke:#181818;stroke-width:1;"/><polygon fill="none" points="128,486.7294,122,504.7294,134,504.7294,128,486.7294" style="stroke:#181818;stroke-width:1;"/></g><!--link agent to personnel--><g id="link_agent_personnel"><path d="M87.24,669.1094 C112.43,669.1094 140,669.1094 140,669.1094 C140,669.1094 140,571.1694 140,504.8294 " fill="none" id="agent-to-personnel" style="stroke:#181818;stroke-width:1;"/><polygon fill="none" points="140,486.8294,134,504.8294,146,504.8294,140,486.8294" style="stroke:#181818;stroke-width:1;"/></g><!--link chef to personnel--><g id="link_chef_personnel"><path d="M85.19,763.2794 C115.29,763.2794 152,763.2794 152,763.2794 C152,763.2794 152,593.1994 152,504.6794 " fill="none" id="chef-to-personnel" style="stroke:#181818;stroke-width:1;"/><polygon fill="none" points="152,486.6794,146,504.6794,158,504.6794,152,486.6794" style="stroke:#181818;stroke-width:1;"/></g><!--link TX to SUP--><!--link SUP to UC_CHECK--><!--link personnel to UC_DEPOT--><g id="link_personnel_UC_DEPOT"><path d="M128,396.5094 C128,304.6794 128,104.6094 128,104.6094 C128,104.6094 187.15,104.6094 240.85,104.6094 " fill="none" id="personnel-to-UC_DEPOT" style="stroke:#181818;stroke-width:1;"/><polygon fill="#181818" points="246.85,104.6094,237.85,100.6094,241.85,104.6094,237.85,108.6094,246.85,104.6094" style="stroke:#181818;stroke-width:1;"/></g><!--link personnel to UC_RETRAIT--><g id="link_personnel_UC_RETRAIT"><path d="M164,396.2394 C164,350.8094 164,287.6094 164,287.6094 C164,287.6094 200.41,287.6094 240.5,287.6094 " fill="none" id="personnel-to-UC_RETRAIT" style="stroke:#181818;stroke-width:1;"/><polygon fill="#181818" points="246.5,287.6094,237.5,283.6094,241.5,287.6094,237.5,291.6094,246.5,287.6094" style="stroke:#181818;stroke-width:1;"/></g><!--link personnel to UC_VIREMENT--><g id="link_personnel_UC_VIREMENT"><path d="M176.13,402.9394 C205.04,402.9394 244,402.9394 244,402.9394 C244,402.9394 244,370.5194 244,355.5194 " fill="none" id="personnel-to-UC_VIREMENT" style="stroke:#181818;stroke-width:1;"/><polygon fill="#181818" points="244,349.5194,240,358.5194,244,354.5194,248,358.5194,244,349.5194" style="stroke:#181818;stroke-width:1;"/></g><!--link personnel to UC_BILL--><g id="link_personnel_UC_BILL"><path d="M176.07,409.2794 C199.8,409.2794 227.32,409.2794 255.65,409.2794 " fill="none" id="personnel-to-UC_BILL" style="stroke:#181818;stroke-width:1;"/><polygon fill="#181818" points="261.65,409.2794,252.65,405.2794,256.65,409.2794,252.65,413.2794,261.65,409.2794" style="stroke:#181818;stroke-width:1;"/></g><!--link personnel to UC_HIST--><g id="link_personnel_UC_HIST"><path d="M140,396.4594 C140,317.0294 140,160.6094 140,160.6094 C140,160.6094 186.97,160.6094 234.88,160.6094 " fill="none" id="personnel-to-UC_HIST" style="stroke:#181818;stroke-width:1;"/><polygon fill="#181818" points="240.88,160.6094,231.88,156.6094,235.88,160.6094,231.88,164.6094,240.88,160.6094" style="stroke:#181818;stroke-width:1;"/></g><!--link personnel to UC_RELEVE--><g id="link_personnel_UC_RELEVE"><path d="M152,396.3794 C152,332.7894 152,224.6094 152,224.6094 C152,224.6094 194.85,224.6094 239.3,224.6094 " fill="none" id="personnel-to-UC_RELEVE" style="stroke:#181818;stroke-width:1;"/><polygon fill="#181818" points="245.3,224.6094,236.3,220.6094,240.3,224.6094,236.3,228.6094,245.3,224.6094" style="stroke:#181818;stroke-width:1;"/></g><!--link personnel to UC_DASH--><g id="link_personnel_UC_DASH"><path d="M176.24,471.2794 C201.1,471.2794 232,471.2794 232,471.2794 C232,471.2794 232,585.8994 232,619.8294 " fill="none" id="personnel-to-UC_DASH" style="stroke:#181818;stroke-width:1;"/><polygon fill="#181818" points="232,625.8294,236,616.8294,232,620.8294,228,616.8294,232,625.8294" style="stroke:#181818;stroke-width:1;"/></g><!--link personnel to UC_RECENT--><g id="link_personnel_UC_RECENT"><path d="M176.19,455.9394 C253.66,455.9394 451,455.9394 451,455.9394 C451,455.9394 451,550.0894 451,583.7394 " fill="none" id="personnel-to-UC_RECENT" style="stroke:#181818;stroke-width:1;"/><polygon fill="#181818" points="451,589.7394,455,580.7394,451,584.7394,447,580.7394,451,589.7394" style="stroke:#181818;stroke-width:1;"/></g><!--link personnel to UC_NOTIF--><g id="link_personnel_UC_NOTIF"><path d="M164,486.7594 C164,517.4894 164,552.6094 164,552.6094 C164,552.6094 215.72,552.6094 260.14,552.6094 " fill="none" id="personnel-to-UC_NOTIF" style="stroke:#181818;stroke-width:1;"/><polygon fill="#181818" points="266.14,552.6094,257.14,548.6094,261.14,552.6094,257.14,556.6094,266.14,552.6094" style="stroke:#181818;stroke-width:1;"/></g><!--link admin to UC_USERS--><g id="link_admin_UC_USERS"><path d="M85.19,621.7794 C96.55,621.7794 106,621.7794 106,621.7794 C106,621.7794 106,695.6094 106,695.6094 C106,695.6094 175.44,695.6094 235.99,695.6094 " fill="none" id="admin-to-UC_USERS" style="stroke:#181818;stroke-width:1;"/><polygon fill="#181818" points="241.99,695.6094,232.99,691.6094,236.99,695.6094,232.99,699.6094,241.99,695.6094" style="stroke:#181818;stroke-width:1;"/></g><!--link admin to UC_AUDIT_VIEW--><g id="link_admin_UC_AUDIT_VIEW"><path d="M85.03,629.9394 C91.94,629.9394 97,629.9394 97,629.9394 C97,629.9394 97,746.3594 97,746.3594 C97,746.3594 168.89,746.3594 231.88,746.3594 " fill="none" id="admin-to-UC_AUDIT_VIEW" style="stroke:#181818;stroke-width:1;"/><polygon fill="#181818" points="237.88,746.3594,228.88,742.3594,232.88,746.3594,228.88,750.3594,237.88,746.3594" style="stroke:#181818;stroke-width:1;"/></g><!--link chef to UC_AUDIT_VIEW--><g id="link_chef_UC_AUDIT_VIEW"><path d="M85.18,769.4394 C128.78,769.4394 194.35,769.4394 246.35,769.4394 " fill="none" id="chef-to-UC_AUDIT_VIEW" style="stroke:#181818;stroke-width:1;"/><polygon fill="#181818" points="252.35,769.4394,243.35,765.4394,247.35,769.4394,243.35,773.4394,252.35,769.4394" style="stroke:#181818;stroke-width:1;"/></g><!--link chef to UC_VALIDATE--><g id="link_chef_UC_VALIDATE"><path d="M85.18,815.1094 C122.51,815.1094 174.34,815.1094 222.84,815.1094 " fill="none" id="chef-to-UC_VALIDATE" style="stroke:#181818;stroke-width:1;"/><polygon fill="#181818" points="228.84,815.1094,219.84,811.1094,223.84,815.1094,219.84,819.1094,228.84,815.1094" style="stroke:#181818;stroke-width:1;"/></g><!--link chef to UC_ALERTS--><g id="link_chef_UC_ALERTS"><path d="M85.2,786.8594 C202.33,786.8594 545,786.8594 545,786.8594 C545,786.8594 545,775.7394 545,760.2194 " fill="none" id="chef-to-UC_ALERTS" style="stroke:#181818;stroke-width:1;"/><polygon fill="#181818" points="545,754.2194,541,763.2194,545,759.2194,549,763.2194,545,754.2194" style="stroke:#181818;stroke-width:1;"/></g><!--link UC_DEPOT to UC_CHECK--><g id="link_UC_DEPOT_UC_CHECK"><path d="M386.3,104.6094 C453.5,104.6094 545,104.6094 545,104.6094 C545,104.6094 545,251.8694 545,312.9294 " fill="none" id="UC_DEPOT-to-UC_CHECK" style="stroke:#181818;stroke-width:1;stroke-dasharray:7.0,7.0;"/><polygon fill="#181818" points="545,318.9294,549,309.9294,545,313.9294,541,309.9294,545,318.9294" style="stroke:#181818;stroke-width:1;"/><text fill="#000000" font-family="sans-serif" font-size="12" lengthAdjust="spacing" textLength="51.375" x="493" y="145.8764">&#171;include&#187;</text></g><!--link UC_RETRAIT to UC_CHECK--><g id="link_UC_RETRAIT_UC_CHECK"><path d="M317,304.2894 C317,313.2994 317,322.6094 317,322.6094 C317,322.6094 428.53,322.6094 494.64,322.6094 " fill="none" id="UC_RETRAIT-to-UC_CHECK" style="stroke:#181818;stroke-width:1;stroke-dasharray:7.0,7.0;"/><polygon fill="#181818" points="500.64,322.6094,491.64,318.6094,495.64,322.6094,491.64,326.6094,500.64,322.6094" style="stroke:#181818;stroke-width:1;"/><text fill="#000000" font-family="sans-serif" font-size="12" lengthAdjust="spacing" textLength="51.375" x="400.66" y="336.0664">&#171;include&#187;</text></g><!--link UC_VIREMENT to UC_CHECK--><g id="link_UC_VIREMENT_UC_CHECK"><path d="M393.05,343.6094 C414.27,343.6094 431.43,343.6094 453.12,343.6094 " fill="none" id="UC_VIREMENT-to-UC_CHECK" style="stroke:#181818;stroke-width:1;stroke-dasharray:7.0,7.0;"/><polygon fill="#181818" points="459.12,343.6094,450.12,339.6094,454.12,343.6094,450.12,347.6094,459.12,343.6094" style="stroke:#181818;stroke-width:1;"/><text fill="#000000" font-family="sans-serif" font-size="12" lengthAdjust="spacing" textLength="51.375" x="374.09" y="357.0664">&#171;include&#187;</text></g><!--link UC_BILL to UC_CHECK--><g id="link_UC_BILL_UC_CHECK"><path d="M317,383.3394 C317,374.1994 317,364.6094 317,364.6094 C317,364.6094 428.53,364.6094 494.64,364.6094 " fill="none" id="UC_BILL-to-UC_CHECK" style="stroke:#181818;stroke-width:1;stroke-dasharray:7.0,7.0;"/><polygon fill="#181818" points="500.64,364.6094,491.64,360.6094,495.64,364.6094,491.64,368.6094,500.64,364.6094" style="stroke:#181818;stroke-width:1;"/><text fill="#000000" font-family="sans-serif" font-size="12" lengthAdjust="spacing" textLength="51.375" x="347.45" y="378.0664">&#171;include&#187;</text></g><!--link UC_DASH to UC_RECENT--><g id="link_UC_DASH_UC_RECENT"><path d="M380.31,619.3594 C410.61,619.3594 440.82,619.3594 471.52,619.3594 " fill="none" id="UC_DASH-to-UC_RECENT" style="stroke:#181818;stroke-width:1;stroke-dasharray:7.0,7.0;"/><polygon fill="#181818" points="477.52,619.3594,468.52,615.3594,472.52,619.3594,468.52,623.3594,477.52,619.3594" style="stroke:#181818;stroke-width:1;"/><text fill="#000000" font-family="sans-serif" font-size="12" lengthAdjust="spacing" textLength="51.375" x="376.92" y="615.8164">&#171;include&#187;</text></g><!--link UC_DASH to UC_ALERTS--><g id="link_UC_DASH_UC_ALERTS"><path d="M398,644.6594 C398,664.9894 398,709.1094 398,709.1094 C398,709.1094 447.1,709.1094 489.72,709.1094 " fill="none" id="UC_DASH-to-UC_ALERTS" style="stroke:#181818;stroke-width:1;stroke-dasharray:7.0,7.0;"/><polygon fill="#181818" points="495.72,709.1094,486.72,705.1094,490.72,709.1094,486.72,713.1094,495.72,709.1094" style="stroke:#181818;stroke-width:1;"/><text fill="#000000" font-family="sans-serif" font-size="12" lengthAdjust="spacing" textLength="51.375" x="415.63" y="705.5664">&#171;include&#187;</text></g><!--SRC=[XLHBRjj03Dth54GsMJb0iogAm83hA8rHDp4iEIrG5yLOGzlJZ4VgV5AadmFq98NtkO4kLcfaVVnBTWBv7ibvV9J4kGMRWXQBfGKkD2PMf2emzq9bJBCLc2NZwG-X5Z1dqc0hax7adYqmieyIeI0ojP1jW4ev6ipW_BmLr4pT- -3hLb0AXVOnGqYrNQQj1CSvSz9UfSf6uYV2g_CWiC9ImziiNsjM36i0BHYNeNuGfXW-O8bDDPoCK9jKAPHJnH7aAGsh4Zm1PY2hKXMsnrT22MEf93hjCQm8rNdYMfWnbJ0IgSmNeIhVN-8SUBj5GX4QfIW2dSzBmJcgBrxdJaNrDNTpdhUXaVAgyxlR7hVax2SAsg5uK6y6Jc8Itp2_OUDdZ3_1hm306KoO8K0udnFQeGQdWEVhB7-o7ZZfVxqCHxVnKR16aaxKu74OZtk3u_074d55BwdmTuDn-26ysIACsAC78pcFY1lL2VnsC1osWNrw3fc4mF9qIJjCjVZkQlJr8Degc__bmbP3Itp8rrELElhE_xbc_65u5mP_jjIB6ejvN3GPRQlNcWF1ifb4viZ1C4irhrNiHTTjpfqmZabXFCb0shXwgdI-JaWZDCrO_HsDsYt9aH8rmQTgbQ-jG5tnUiDm74T7ULEbKYlc8c6DCuXrSniFhjgaTpJRffEpWeRsjrBZ9r4uFje4lgLEAoQB6t6yCKflSZc8QVtXnorLI1A-MNuZoLGPL4QGhhLjUiF1PI_scsgtjJf_ajuF-LgAXPZHjBPOjFyFD1MhElthiFy-2EWSTg-HbXmKYzwDDwJwrA3JwJQ7iXUkJc8lKNj_B-EDlXVrXZvGtbjsVvh2S0VG_OCTovrNlvyoLkvrAzJQMldVUJPSRsaBMteog0I3ixDkhIgyWOiBeHBfE7QxGQFU2wXAoXTWXQulG0hPAaWfrlEOyZaxcFy0]--></g></svg>