<svg xmlns="http://www.w3.org/2000/svg" xmlns:xlink="http://www.w3.org/1999/xlink" version="1.1" data-diagram-type="DESCRIPTION" style="width:762px;height:745px;background:#FFFFFF;" width="762px" height="745px" viewBox="0 0 762 745" zoomAndPan="magnify" preserveAspectRatio="none" contentStyleType="text/css"><?plantuml 1.2026.7beta3?><defs/><g><g class="title" data-source-line="5"><text x="252.7469" y="22.9951" fill="#000000" font-size="14" lengthAdjust="spacing" textLength="250.3662" font-weight="700" font-family="sans-serif">Portail client — cas d'utilisation</text></g><!--cluster Espace client en ligne--><g class="cluster" data-qualified-name="Espace client en ligne" id="ent0002" data-source-line="9"><rect x="158.85" y="44.2969" width="590.01" height="411" fill="none" style="stroke:#181818;stroke-width:1;" rx="2.5" ry="2.5"/><text x="367.6675" y="59.292" fill="#000000" font-size="14" lengthAdjust="spacing" textLength="172.375" font-weight="700" font-family="sans-serif">Espace client en ligne</text></g><!--entity UC_LOGIN--><g class="entity" data-qualified-name="Espace client en ligne.UC_LOGIN" id="ent0003" data-source-line="10"><ellipse cx="298.8365" cy="94.2962" rx="64.4965" ry="15.2993" fill="#F1F1F1" style="stroke:#181818;stroke-width:0.5;"/><text x="252.7725" y="98.9446" fill="#000000" font-size="14" lengthAdjust="spacing" textLength="92.1279" font-family="sans-serif">Se connecter</text></g><!--entity UC_DASH--><g class="entity" data-qualified-name="Espace client en ligne.UC_DASH" id="ent0004" data-source-line="11"><ellipse cx="298.8422" cy="169.2973" rx="110.9522" ry="24.5904" fill="#F1F1F1" style="stroke:#181818;stroke-width:0.5;"/><text x="198.8734" y="173.9458" fill="#000000" font-size="14" lengthAdjust="spacing" textLength="199.9375" font-family="sans-serif">Consulter le tableau de bord</text></g><!--entity UC_ACCOUNTS--><g class="entity" data-qualified-name="Espace client en ligne.UC_ACCOUNTS" id="ent0005" data-source-line="12"><ellipse cx="640.3361" cy="231.3001" rx="92.5161" ry="20.9032" fill="#F1F1F1" style="stroke:#181818;stroke-width:0.5;"/><text x="560.6291" y="235.9485" fill="#000000" font-size="14" lengthAdjust="spacing" textLength="159.4141" font-family="sans-serif">Consulter ses comptes</text></g><!--entity UC_HISTORY--><g class="entity" data-qualified-name="Espace client en ligne.UC_HISTORY" id="ent0006" data-source-line="13"><ellipse cx="298.839" cy="249.2987" rx="88.109" ry="20.0218" fill="#F1F1F1" style="stroke:#181818;stroke-width:0.5;"/><text x="224.1154" y="253.9471" fill="#000000" font-size="14" lengthAdjust="spacing" textLength="149.4473" font-family="sans-serif">Consulter l'historique</text></g><!--entity UC_RECEIPT--><g class="entity" data-qualified-name="Espace client en ligne.UC_RECEIPT" id="ent0007" data-source-line="14"><ellipse cx="640.3374" cy="344.2944" rx="77.4874" ry="17.8975" fill="#F1F1F1" style="stroke:#181818;stroke-width:0.5;"/><text x="577.98" y="348.9428" fill="#000000" font-size="14" lengthAdjust="spacing" textLength="124.7148" font-family="sans-serif">Consulter un reçu</text></g><!--entity UC_CHQ--><g class="entity" data-qualified-name="Espace client en ligne.UC_CHQ" id="ent0008" data-source-line="15"><ellipse cx="298.8372" cy="331.2943" rx="123.9872" ry="27.1974" fill="#F1F1F1" style="stroke:#181818;stroke-width:0.5;"/><text x="184.9163" y="335.9427" fill="#000000" font-size="14" lengthAdjust="spacing" textLength="227.8418" font-family="sans-serif">Suivre ses commandes chéquier</text></g><!--entity UC_NOTIF--><g class="entity" data-qualified-name="Espace client en ligne.UC_NOTIF" id="ent0009" data-source-line="16"><ellipse cx="298.8413" cy="416.2951" rx="104.1913" ry="23.2383" fill="#F1F1F1" style="stroke:#181818;stroke-width:0.5;"/><text x="206.2143" y="420.9436" fill="#000000" font-size="14" lengthAdjust="spacing" textLength="185.2539" font-family="sans-serif">Consulter ses notifications</text></g><!--entity client--><g class="entity" data-qualified-name="client" id="ent0001" data-source-line="7"><ellipse cx="58.9272" cy="301.6569" rx="8" ry="8" fill="#F1F1F1" style="stroke:#181818;stroke-width:0.5;"/><path d="M58.9272,309.6569 L58.9272,336.6569 M45.9272,317.6569 L71.9272,317.6569 M58.9272,336.6569 L45.9272,351.6569 M58.9272,336.6569 L71.9272,351.6569" style="stroke:#181818;stroke-width:0.5;" fill="none"/><text x="6" y="366.152" fill="#000000" font-size="14" lengthAdjust="spacing" textLength="105.8545" font-family="sans-serif">Client bancaire</text></g><!--link client to UC_LOGIN--><g class="link" data-entity-1="ent0001" data-entity-2="ent0003" id="lnk10" data-source-line="19" data-link-type="dependency"><path d="M66.38,292.6569 C76.22,246.2169 99.56,169.3069 150.85,127.2969 C174.12,108.2469 201.192,100.2934 229.412,96.6134" style="stroke:#181818;stroke-width:1;" fill="none" id="client-to-UC_LOGIN"/><polygon points="234.37,95.9669,224.9283,93.1642,229.412,96.6134,225.9628,101.0971,234.37,95.9669" fill="#181818" style="stroke:#181818;stroke-width:1;stroke-linejoin:miter;stroke-miterlimit:10;"/></g><!--link client to UC_DASH--><g class="link" data-entity-1="ent0001" data-entity-2="ent0004" id="lnk11" data-source-line="20" data-link-type="dependency"><path d="M80.25,292.7269 C96.12,266.1669 120.55,232.0469 150.85,211.2969 C168.48,199.2269 184.7694,192.0287 205.3794,185.8687" style="stroke:#181818;stroke-width:1;" fill="none" id="client-to-UC_DASH"/><polygon points="210.17,184.4369,200.4015,183.1817,205.3794,185.8687,202.6924,190.8467,210.17,184.4369" fill="#181818" style="stroke:#181818;stroke-width:1;stroke-linejoin:miter;stroke-miterlimit:10;"/></g><!--link client to UC_ACCOUNTS--><g class="link" data-entity-1="ent0001" data-entity-2="ent0005" id="lnk12" data-source-line="21" data-link-type="dependency"><path d="M75.84,369.9469 C90.47,399.8469 115.31,439.1169 150.85,457.2969 C258.47,512.3469 313.19,508.2069 422.83,457.2969 C500.92,421.0369 487.08,370.3169 547.83,309.2969 C568.6,288.4369 590.3519,270.0282 609.2119,254.8782" style="stroke:#181818;stroke-width:1;" fill="none" id="client-to-UC_ACCOUNTS"/><polygon points="613.11,251.7469,603.5884,254.2647,609.2119,254.8782,608.5985,260.5017,613.11,251.7469" fill="#181818" style="stroke:#181818;stroke-width:1;stroke-linejoin:miter;stroke-miterlimit:10;"/></g><!--link client to UC_HISTORY--><g class="link" data-entity-1="ent0001" data-entity-2="ent0006" id="lnk13" data-source-line="22" data-link-type="dependency"><path d="M111.98,303.1769 C124.49,297.0869 137.96,291.0469 150.85,286.2969 C176.9,276.6969 201.5827,269.8713 227.3127,263.8213" style="stroke:#181818;stroke-width:1;" fill="none" id="client-to-UC_HISTORY"/><polygon points="232.18,262.6769,222.5034,260.8431,227.3127,263.8213,224.3345,268.6307,232.18,262.6769" fill="#181818" style="stroke:#181818;stroke-width:1;stroke-linejoin:miter;stroke-miterlimit:10;"/></g><!--link client to UC_RECEIPT--><g class="link" data-entity-1="ent0001" data-entity-2="ent0007" id="lnk14" data-source-line="23" data-link-type="dependency"><path d="M64.44,369.6669 C71.95,414.1069 91.57,485.4269 141.85,518.2969 C281.72,609.7269 369.66,595.5469 517.83,518.2969 C582.19,484.7469 617.7339,404.4895 631.4839,367.1095" style="stroke:#181818;stroke-width:1;" fill="none" id="client-to-UC_RECEIPT"/><polygon points="633.21,362.4169,626.3489,369.4826,631.4839,367.1095,633.857,372.2445,633.21,362.4169" fill="#181818" style="stroke:#181818;stroke-width:1;stroke-linejoin:miter;stroke-miterlimit:10;"/></g><!--link client to UC_CHQ--><g class="link" data-entity-1="ent0001" data-entity-2="ent0008" id="lnk15" data-source-line="24" data-link-type="dependency"><path d="M112.14,331.2969 C130.74,331.2969 147.56,331.2969 169.58,331.2969" style="stroke:#181818;stroke-width:1;" fill="none" id="client-to-UC_CHQ"/><polygon points="174.58,331.2969,165.58,327.2969,169.58,331.2969,165.58,335.2969,174.58,331.2969" fill="#181818" style="stroke:#181818;stroke-width:1;stroke-linejoin:miter;stroke-miterlimit:10;"/></g><!--link client to UC_NOTIF--><g class="link" data-entity-1="ent0001" data-entity-2="ent0009" id="lnk16" data-source-line="25" data-link-type="dependency"><path d="M112.04,359.2469 C124.55,365.3469 138.01,371.4269 150.85,376.2969 C174.59,385.3069 196.3651,391.9126 220.3451,398.2326" style="stroke:#181818;stroke-width:1;" fill="none" id="client-to-UC_NOTIF"/><polygon points="225.18,399.5069,217.4966,393.3453,220.3451,398.2326,215.4578,401.0811,225.18,399.5069" fill="#181818" style="stroke:#181818;stroke-width:1;stroke-linejoin:miter;stroke-miterlimit:10;"/></g><!--link UC_DASH to UC_ACCOUNTS--><g class="link" data-entity-1="ent0004" data-entity-2="ent0005" id="lnk17" data-source-line="27" data-link-type="dependency"><path d="M385.51,184.9469 C441.6,195.1869 509.1414,207.5181 562.2814,217.2281" style="stroke:#181818;stroke-width:1;stroke-dasharray:7,7;" fill="none" id="UC_DASH-to-UC_ACCOUNTS"/><polygon points="567.2,218.1269,559.0656,212.5743,562.2814,217.2281,557.6276,220.444,567.2,218.1269" fill="#181818" style="stroke:#181818;stroke-width:1;stroke-linejoin:miter;stroke-miterlimit:10;"/><text x="453.83" y="195.3638" fill="#000000" font-size="13" lengthAdjust="spacing" textLength="63.0068" font-family="sans-serif">«include»</text></g><!--link UC_HISTORY to UC_RECEIPT--><g class="link" data-entity-1="ent0006" data-entity-2="ent0007" id="lnk18" data-source-line="28" data-link-type="dependency"><path d="M355.9,264.9869 C420.97,283.1969 522.4749,311.5998 584.7449,329.0198" style="stroke:#181818;stroke-width:1;stroke-dasharray:7,7;" fill="none" id="UC_HISTORY-to-UC_RECEIPT"/><polygon points="589.56,330.3669,581.9704,324.0901,584.7449,329.0198,579.8151,331.7943,589.56,330.3669" fill="#181818" style="stroke:#181818;stroke-width:1;stroke-linejoin:miter;stroke-miterlimit:10;"/><text x="454.83" y="290.3638" fill="#000000" font-size="13" lengthAdjust="spacing" textLength="61.1851" font-family="sans-serif">«extend»</text></g><g class="legend" data-source-line="30"><rect x="160.6331" y="630.7269" width="434.5938" height="95.4844" fill="#DDDDDD" style="stroke:#000000;stroke-width:1;" rx="7.5" ry="7.5"/><text x="170.5071" y="650.722" fill="#000000" font-size="14" lengthAdjust="spacing" textLength="55.1865" font-weight="700" font-family="sans-serif">Détails</text><text x="286.1234" y="650.722" fill="#000000" font-size="14" lengthAdjust="spacing" textLength="4.874" font-weight="700" font-family="sans-serif"> </text><text x="170.0833" y="667.0189" fill="#000000" font-size="14" lengthAdjust="spacing" textLength="111.5898" font-family="sans-serif">Authentification</text><text x="290.5736" y="667.0189" fill="#000000" font-size="14" lengthAdjust="spacing" textLength="226.4814" font-family="sans-serif">N° client ou CIN + mot de passe</text><text x="170.0833" y="683.3157" fill="#000000" font-size="14" lengthAdjust="spacing" textLength="68.8105" font-family="sans-serif">Périmètre</text><text x="290.5736" y="683.3157" fill="#000000" font-size="14" lengthAdjust="spacing" textLength="286.2549" font-family="sans-serif">Consultation et notifications uniquement</text><text x="170.0833" y="699.6126" fill="#000000" font-size="14" lengthAdjust="spacing" textLength="76.9658" font-family="sans-serif">Opérations</text><text x="290.5736" y="699.6126" fill="#000000" font-size="14" lengthAdjust="spacing" textLength="206.3975" font-family="sans-serif">Saisies par l'agent en agence</text><text x="170.0833" y="715.9095" fill="#000000" font-size="14" lengthAdjust="spacing" textLength="87.623" font-family="sans-serif">Notifications</text><text x="290.5736" y="715.9095" fill="#000000" font-size="14" lengthAdjust="spacing" textLength="295.2031" font-family="sans-serif">Virement, facture, chéquier, dépôt, retrait</text><line x1="165.6331" y1="637.7269" x2="590.2269" y2="637.7269" style="stroke:#000000;stroke-width:1;"/><line x1="165.6331" y1="654.0238" x2="590.2269" y2="654.0238" style="stroke:#000000;stroke-width:1;"/><line x1="165.6331" y1="670.3206" x2="590.2269" y2="670.3206" style="stroke:#000000;stroke-width:1;"/><line x1="165.6331" y1="686.6175" x2="590.2269" y2="686.6175" style="stroke:#000000;stroke-width:1;"/><line x1="165.6331" y1="702.9144" x2="590.2269" y2="702.9144" style="stroke:#000000;stroke-width:1;"/><line x1="165.6331" y1="719.2113" x2="590.2269" y2="719.2113" style="stroke:#000000;stroke-width:1;"/><line x1="165.6331" y1="637.7269" x2="165.6331" y2="719.2113" style="stroke:#000000;stroke-width:1;"/><line x1="286.1234" y1="637.7269" x2="286.1234" y2="719.2113" style="stroke:#000000;stroke-width:1;"/><line x1="590.2269" y1="637.7269" x2="590.2269" y2="719.2113" style="stroke:#000000;stroke-width:1;"/></g><?plantuml-src TLDBRjim4Dtp50DligYJ0nIf0KDnQWE5x4PEWQuAMXhBH2XI8OVze2xGG_GEhNTPz0JLJNgI32tBZe1aHmpVUpFpPaRZce0iE5Lk20hbC2TbZV1tojJIoGhyHXRsYp8bhANs-EIdblcTB36ZRneX4gKfDGf1YZYmi8waqf1hXORW_yzVa4iFnLaWfPMN-pH2vcGT398Mj98cbrp301ZP4eKuAiDWuZadTf9eGAlICFgx00WUMPz16GEiCSn2jnUwJJwzcx-TfKz1YJK-Q4O0wv9SQPG12eILTKL7kXfdq-Sv7hayMzM4lWEFasH-cowp5vASRPJdJjLzm8undMNB-St7vmd1iAFDxz21RoR9PBPOzleCwhF3hfPAcYA-DitkFgXJvydq_Siz64jghVBzB8wTfFFbx5hy4E9Wy_dvw6HXFxPtg1yw-j0FTytserrN_MWikHzfInA7Z71nqKi5h-7oKfbSXm978t7ArW4FQVOu_4fe2eO9ZIM_UE94jcAFjc_Wgjd5dVNnlOqX60VQS257bpYK_dleDj06I6Ofl8BAKjoUMdeskMKkcfrJLVE7U4PREFZUQY3rdUTfnyMeecHBdjVCFdnk8PFAAnuNdnrl4fzSk_pnaNVfqfxW5Zxm6KN18PzjJi7XyBGRGoYQNTtyvK-7vAIAQTcBrf57?></g></svg>