<svg xmlns="http://www.w3.org/2000/svg" xmlns:xlink="http://www.w3.org/1999/xlink" version="1.1" data-diagram-type="DESCRIPTION" style="width:762px;height:917px;background:#FFFFFF;" width="762px" height="917px" viewBox="0 0 762 917" zoomAndPan="magnify" preserveAspectRatio="none" contentStyleType="text/css"><?plantuml 1.2026.7beta3?><defs/><g><g class="title" data-source-line="5"><text x="252.7469" y="22.9951" fill="#000000" font-size="14" lengthAdjust="spacing" textLength="250.3662" font-weight="700" font-family="sans-serif">Portail client — cas d'utilisation</text></g><!--cluster Accès commun /login--><g class="cluster" data-qualified-name="Acc.s commun .login" id="ent0002" data-source-line="9"><rect x="198.67" y="44.2969" width="200.35" height="170" fill="none" style="stroke:#181818;stroke-width:1;" rx="2.5" ry="2.5"/><text x="215.6687" y="59.292" fill="#000000" font-size="14" lengthAdjust="spacing" textLength="166.3525" font-weight="700" font-family="sans-serif">Accès commun /login</text></g><!--cluster Espace client /portal/**--><g class="cluster" data-qualified-name="Espace client .portal..." id="ent0005" data-source-line="14"><rect x="158.85" y="238.2969" width="590.01" height="352" fill="none" style="stroke:#181818;stroke-width:1;" rx="2.5" ry="2.5"/><text x="363.2002" y="253.292" fill="#000000" font-size="14" lengthAdjust="spacing" textLength="181.3096" font-weight="700" font-family="sans-serif">Espace client /portal/**</text></g><!--entity UC_LOGIN--><g class="entity" data-qualified-name="Acc.s commun .login.UC_LOGIN" id="ent0003" data-source-line="10"><ellipse cx="298.8446" cy="104.2991" rx="84.1746" ry="24.9722" fill="#F1F1F1" style="stroke:#181818;stroke-width:0.5;"/><text x="251.5433" y="99.2396" fill="#000000" font-size="14" lengthAdjust="spacing" textLength="94.6025" font-family="sans-serif">S'authentifier</text><text x="238.6371" y="115.5365" fill="#000000" font-size="14" lengthAdjust="spacing" textLength="120.415" font-family="sans-serif">(CIN ou n° client)</text></g><!--entity UC_LOGOUT--><g class="entity" data-qualified-name="Acc.s commun .login.UC_LOGOUT" id="ent0004" data-source-line="11"><ellipse cx="298.8371" cy="181.2963" rx="71.2971" ry="16.6594" fill="#F1F1F1" style="stroke:#181818;stroke-width:0.5;"/><text x="244.0232" y="185.9447" fill="#000000" font-size="14" lengthAdjust="spacing" textLength="109.6279" font-family="sans-serif">Se déconnecter</text></g><!--entity UC_DASH--><g class="entity" data-qualified-name="Espace client .portal....UC_DASH" id="ent0006" data-source-line="15"><ellipse cx="298.8422" cy="298.2973" rx="110.9522" ry="24.5904" fill="#F1F1F1" style="stroke:#181818;stroke-width:0.5;"/><text x="198.8734" y="302.9458" fill="#000000" font-size="14" lengthAdjust="spacing" textLength="199.9375" font-family="sans-serif">Consulter le tableau de bord</text></g><!--entity UC_ACCOUNTS--><g class="entity" data-qualified-name="Espace client .portal....UC_ACCOUNTS" id="ent0007" data-source-line="16"><ellipse cx="640.3361" cy="362.3001" rx="92.5161" ry="20.9032" fill="#F1F1F1" style="stroke:#181818;stroke-width:0.5;"/><text x="560.6291" y="366.9485" fill="#000000" font-size="14" lengthAdjust="spacing" textLength="159.4141" font-family="sans-serif">Consulter ses comptes</text></g><!--entity UC_HISTORY--><g class="entity" data-qualified-name="Espace client .portal....UC_HISTORY" id="ent0008" data-source-line="17"><ellipse cx="298.839" cy="378.2987" rx="88.109" ry="20.0218" fill="#F1F1F1" style="stroke:#181818;stroke-width:0.5;"/><text x="224.1154" y="382.9471" fill="#000000" font-size="14" lengthAdjust="spacing" textLength="149.4473" font-family="sans-serif">Consulter l'historique</text></g><!--entity UC_RECEIPT--><g class="entity" data-qualified-name="Espace client .portal....UC_RECEIPT" id="ent0009" data-source-line="18"><ellipse cx="640.3374" cy="476.2944" rx="77.4874" ry="17.8975" fill="#F1F1F1" style="stroke:#181818;stroke-width:0.5;"/><text x="577.98" y="480.9428" fill="#000000" font-size="14" lengthAdjust="spacing" textLength="124.7148" font-family="sans-serif">Consulter un reçu</text></g><!--entity UC_CHQ--><g class="entity" data-qualified-name="Espace client .portal....UC_CHQ" id="ent0010" data-source-line="19"><ellipse cx="298.8372" cy="460.2943" rx="123.9872" ry="27.1974" fill="#F1F1F1" style="stroke:#181818;stroke-width:0.5;"/><text x="184.9163" y="464.9427" fill="#000000" font-size="14" lengthAdjust="spacing" textLength="227.8418" font-family="sans-serif">Suivre ses commandes chéquier</text></g><!--entity UC_NOTIF--><g class="entity" data-qualified-name="Espace client .portal....UC_NOTIF" id="ent0011" data-source-line="20"><ellipse cx="298.8396" cy="548.2928" rx="115.9796" ry="25.5959" fill="#F1F1F1" style="stroke:#181818;stroke-width:0.5;"/><text x="206.2127" y="548.1519" fill="#000000" font-size="14" lengthAdjust="spacing" textLength="185.2539" font-family="sans-serif">Consulter ses notifications</text><text x="243.1131" y="564.4488" fill="#000000" font-size="14" lengthAdjust="spacing" textLength="111.4531" font-family="sans-serif">(cloche en-tête)</text></g><!--entity client--><g class="entity" data-qualified-name="client" id="ent0001" data-source-line="7"><ellipse cx="58.9272" cy="400.6469" rx="8" ry="8" fill="#F1F1F1" style="stroke:#181818;stroke-width:0.5;"/><path d="M58.9272,408.6469 L58.9272,435.6469 M45.9272,416.6469 L71.9272,416.6469 M58.9272,435.6469 L45.9272,450.6469 M58.9272,435.6469 L71.9272,450.6469" style="stroke:#181818;stroke-width:0.5;" fill="none"/><text x="6" y="465.142" fill="#000000" font-size="14" lengthAdjust="spacing" textLength="105.8545" font-family="sans-serif">Client bancaire</text></g><!--link client to UC_LOGIN--><g class="link" data-entity-1="ent0001" data-entity-2="ent0003" id="lnk12" data-source-line="23" data-link-type="dependency"><path d="M61.28,391.9469 C65.53,331.3969 82.65,213.7269 150.85,147.2969 C169.23,129.3969 189.7901,120.0928 214.3201,113.9428" style="stroke:#181818;stroke-width:1;" fill="none" id="client-to-UC_LOGIN"/><polygon points="219.17,112.7269,209.4674,111.0356,214.3201,113.9428,211.4129,118.7955,219.17,112.7269" fill="#181818" style="stroke:#181818;stroke-width:1;stroke-linejoin:miter;stroke-miterlimit:10;"/></g><!--link client to UC_LOGOUT--><g class="link" data-entity-1="ent0001" data-entity-2="ent0004" id="lnk13" data-source-line="24" data-link-type="dependency"><path d="M72.45,391.6969 C86.45,353.5669 112.34,295.5569 150.85,257.2969 C180.61,227.7369 219.5692,208.9611 251.5592,196.7411" style="stroke:#181818;stroke-width:1;" fill="none" id="client-to-UC_LOGOUT"/><polygon points="256.23,194.9569,246.3951,194.4318,251.5592,196.7411,249.2499,201.9051,256.23,194.9569" fill="#181818" style="stroke:#181818;stroke-width:1;stroke-linejoin:miter;stroke-miterlimit:10;"/></g><!--link client to UC_DASH--><g class="link" data-entity-1="ent0001" data-entity-2="ent0006" id="lnk14" data-source-line="25" data-link-type="dependency"><path d="M90.58,392.0269 C106.79,374.0269 128.04,353.6369 150.85,340.2969 C170.1,329.0369 187.7357,322.032 209.2057,315.842" style="stroke:#181818;stroke-width:1;" fill="none" id="client-to-UC_DASH"/><polygon points="214.01,314.4569,204.2541,313.1067,209.2057,315.842,206.4703,320.7936,214.01,314.4569" fill="#181818" style="stroke:#181818;stroke-width:1;stroke-linejoin:miter;stroke-miterlimit:10;"/></g><!--link client to UC_ACCOUNTS--><g class="link" data-entity-1="ent0001" data-entity-2="ent0007" id="lnk15" data-source-line="26" data-link-type="dependency"><path d="M69.54,468.8769 C81.46,507.5669 105.94,565.0769 150.85,591.2969 C255.25,652.2269 313.36,642.5669 422.83,591.2969 C501.42,554.4869 487,503.1869 547.83,441.2969 C568.72,420.0369 590.7098,401.2103 609.6098,385.8503" style="stroke:#181818;stroke-width:1;" fill="none" id="client-to-UC_ACCOUNTS"/><polygon points="613.49,382.6969,603.9829,385.2689,609.6098,385.8503,609.0284,391.4772,613.49,382.6969" fill="#181818" style="stroke:#181818;stroke-width:1;stroke-linejoin:miter;stroke-miterlimit:10;"/></g><!--link client to UC_HISTORY--><g class="link" data-entity-1="ent0001" data-entity-2="ent0008" id="lnk16" data-source-line="27" data-link-type="dependency"><path d="M112.14,418.8869 C148.11,411.0169 191.2454,401.5949 229.4354,393.2449" style="stroke:#181818;stroke-width:1;" fill="none" id="client-to-UC_HISTORY"/><polygon points="234.32,392.1769,224.6733,390.1916,229.4354,393.2449,226.3821,398.0069,234.32,392.1769" fill="#181818" style="stroke:#181818;stroke-width:1;stroke-linejoin:miter;stroke-miterlimit:10;"/></g><!--link client to UC_RECEIPT--><g class="link" data-entity-1="ent0001" data-entity-2="ent0009" id="lnk17" data-source-line="28" data-link-type="dependency"><path d="M61.38,468.5169 C65.65,520.3869 81.82,611.3969 141.85,653.2969 C278.88,748.9369 369.97,731.1369 517.83,653.2969 C582.97,619.0069 618.2525,536.9871 631.7325,499.1371" style="stroke:#181818;stroke-width:1;" fill="none" id="client-to-UC_RECEIPT"/><polygon points="633.41,494.4269,626.6223,501.5632,631.7325,499.1371,634.1587,504.2472,633.41,494.4269" fill="#181818" style="stroke:#181818;stroke-width:1;stroke-linejoin:miter;stroke-miterlimit:10;"/></g><!--link client to UC_CHQ--><g class="link" data-entity-1="ent0001" data-entity-2="ent0010" id="lnk18" data-source-line="29" data-link-type="dependency"><path d="M112.14,436.8769 C135.26,439.7969 158.3793,442.7109 185.6393,446.1509" style="stroke:#181818;stroke-width:1;" fill="none" id="client-to-UC_CHQ"/><polygon points="190.6,446.7769,182.1716,441.6816,185.6393,446.1509,181.17,449.6186,190.6,446.7769" fill="#181818" style="stroke:#181818;stroke-width:1;stroke-linejoin:miter;stroke-miterlimit:10;"/></g><!--link client to UC_NOTIF--><g class="link" data-entity-1="ent0001" data-entity-2="ent0011" id="lnk19" data-source-line="30" data-link-type="dependency"><path d="M99.48,468.8469 C114.59,481.9069 132.59,495.6169 150.85,505.2969 C170.59,515.7469 188.4041,522.5629 209.8741,528.8929" style="stroke:#181818;stroke-width:1;" fill="none" id="client-to-UC_NOTIF"/><polygon points="214.67,530.3069,207.1686,523.925,209.8741,528.8929,204.9062,531.5984,214.67,530.3069" fill="#181818" style="stroke:#181818;stroke-width:1;stroke-linejoin:miter;stroke-miterlimit:10;"/></g><!--link UC_DASH to UC_ACCOUNTS--><g class="link" data-entity-1="ent0006" data-entity-2="ent0007" id="lnk20" data-source-line="32" data-link-type="dependency"><path d="M384.64,314.2769 C441.2,324.9469 509.8064,337.8813 563.3164,347.9613" style="stroke:#181818;stroke-width:1;stroke-dasharray:7,7;" fill="none" id="UC_DASH-to-UC_ACCOUNTS"/><polygon points="568.23,348.8869,560.126,343.2899,563.3164,347.9613,558.6451,351.1517,568.23,348.8869" fill="#181818" style="stroke:#181818;stroke-width:1;stroke-linejoin:miter;stroke-miterlimit:10;"/><text x="453.83" y="325.3638" fill="#000000" font-size="13" lengthAdjust="spacing" textLength="63.0068" font-family="sans-serif">«include»</text></g><!--link UC_HISTORY to UC_RECEIPT--><g class="link" data-entity-1="ent0008" data-entity-2="ent0009" id="lnk21" data-source-line="33" data-link-type="dependency"><path d="M354.77,394.1469 C420.08,413.0069 523.2662,442.7901 585.7562,460.8301" style="stroke:#181818;stroke-width:1;stroke-dasharray:7,7;" fill="none" id="UC_HISTORY-to-UC_RECEIPT"/><polygon points="590.56,462.2169,583.0225,455.8776,585.7562,460.8301,580.8037,463.5637,590.56,462.2169" fill="#181818" style="stroke:#181818;stroke-width:1;stroke-linejoin:miter;stroke-miterlimit:10;"/><text x="454.83" y="421.3638" fill="#000000" font-size="13" lengthAdjust="spacing" textLength="61.1851" font-family="sans-serif">«extend»</text></g><g class="legend" data-source-line="35"><rect x="93.0701" y="769.9369" width="569.7197" height="128.0781" fill="#DDDDDD" style="stroke:#000000;stroke-width:1;" rx="7.5" ry="7.5"/><text x="102.9442" y="789.932" fill="#000000" font-size="14" lengthAdjust="spacing" textLength="55.1865" font-weight="700" font-family="sans-serif">Détails</text><text x="218.5604" y="789.932" fill="#000000" font-size="14" lengthAdjust="spacing" textLength="4.874" font-weight="700" font-family="sans-serif"> </text><text x="102.5203" y="806.2289" fill="#000000" font-size="14" lengthAdjust="spacing" textLength="62.6787" font-family="sans-serif">Interface</text><text x="223.0106" y="806.2289" fill="#000000" font-size="14" lengthAdjust="spacing" textLength="430.3291" font-family="sans-serif">Même shell que le personnel : sidebar icônes, en-tête, cloche</text><text x="102.5203" y="822.5257" fill="#000000" font-size="14" lengthAdjust="spacing" textLength="54.3457" font-family="sans-serif">Couleur</text><text x="223.0106" y="822.5257" fill="#000000" font-size="14" lengthAdjust="spacing" textLength="308.6494" font-family="sans-serif">Thème teal (espace client) vs bleu (agence)</text><text x="102.5203" y="838.8226" fill="#000000" font-size="14" lengthAdjust="spacing" textLength="111.5898" font-family="sans-serif">Authentification</text><text x="223.0106" y="838.8226" fill="#000000" font-size="14" lengthAdjust="spacing" textLength="371.6631" font-family="sans-serif">Page /login partagée → redirection /portal/dashboard</text><text x="102.5203" y="855.1195" fill="#000000" font-size="14" lengthAdjust="spacing" textLength="68.8105" font-family="sans-serif">Périmètre</text><text x="223.0106" y="855.1195" fill="#000000" font-size="14" lengthAdjust="spacing" textLength="286.2549" font-family="sans-serif">Consultation et notifications uniquement</text><text x="102.5203" y="871.4164" fill="#000000" font-size="14" lengthAdjust="spacing" textLength="76.9658" font-family="sans-serif">Opérations</text><text x="223.0106" y="871.4164" fill="#000000" font-size="14" lengthAdjust="spacing" textLength="206.3975" font-family="sans-serif">Saisies par l'agent en agence</text><text x="102.5203" y="887.7132" fill="#000000" font-size="14" lengthAdjust="spacing" textLength="87.623" font-family="sans-serif">Notifications</text><text x="223.0106" y="887.7132" fill="#000000" font-size="14" lengthAdjust="spacing" textLength="295.8047" font-family="sans-serif">Dépôt, retrait, virement, facture, chéquier</text><line x1="98.0701" y1="776.9369" x2="657.7899" y2="776.9369" style="stroke:#000000;stroke-width:1;"/><line x1="98.0701" y1="793.2338" x2="657.7899" y2="793.2338" style="stroke:#000000;stroke-width:1;"/><line x1="98.0701" y1="809.5306" x2="657.7899" y2="809.5306" style="stroke:#000000;stroke-width:1;"/><line x1="98.0701" y1="825.8275" x2="657.7899" y2="825.8275" style="stroke:#000000;stroke-width:1;"/><line x1="98.0701" y1="842.1244" x2="657.7899" y2="842.1244" style="stroke:#000000;stroke-width:1;"/><line x1="98.0701" y1="858.4213" x2="657.7899" y2="858.4213" style="stroke:#000000;stroke-width:1;"/><line x1="98.0701" y1="874.7181" x2="657.7899" y2="874.7181" style="stroke:#000000;stroke-width:1;"/><line x1="98.0701" y1="891.015" x2="657.7899" y2="891.015" style="stroke:#000000;stroke-width:1;"/><line x1="98.0701" y1="776.9369" x2="98.0701" y2="891.015" style="stroke:#000000;stroke-width:1;"/><line x1="218.5604" y1="776.9369" x2="218.5604" y2="891.015" style="stroke:#000000;stroke-width:1;"/><line x1="657.7899" y1="776.9369" x2="657.7899" y2="891.015" style="stroke:#000000;stroke-width:1;"/></g><?plantuml-src TLHBRXD14DtFAKhUv2CdsQCGoPe4OWbi4piB92JKxYdFjDBJFUbF066ah3W0uWx4MR782PYRv2HKpoyPI7QjcgfNLU-z6eah1qw34Mdc8146kHDQHVP2g88PbeFDMA8_2PN2YacBZxuKZ5-m5EVkYqG8XKob4gF82KU1cJQE2GbS2bGExgz_0cSMaYtlX1IMLMqYnfqsC8Zhf2LJdD4C0w3CkZ2AEcGOZ3WlR-YBpdElu43gLAW1V8q0l4L2fvJv5lCkeqAn4cW-gEruF07jGVtvtI3kLEZdySStqzVZIQyM8IatN2j5BT4yofkUBw9llL5EBAsFxNO7HTXM7kpk_ZDEh9Nrai20YXnRIcGU4eIbDacBVpoQdpvTOx5Qjd1es-HH74_F9ulvCqssCc69KN7fiQqu7SyNqxFtJnSGZGRBNxvDFZk9JyQpHOyLBwuCjhFaJ2NXbPMRIoyUI8fFtps_Wz913bvfRaaJBZNF453jkVBMOQV8PBeOlmf4DxJkxHqz2FLVB8ZI3rPCzaCTN_rmIqe_scxVZuRL-f5wpgZf2FlxlLRm0WuFXUBI9tXq53rqQnERDbKUVdQe4agB9ARq8cSuftFYSlqIZijDk24RtkiGWh4YJbV1UMjuMzxcf4k6KWBf7HnMeB71lfAmhKXmoGm8NjufjCEExY4q_DUGiVOIlQ7N8Yjl2D4Xax2DZms-0rSMoBmUjkdY5SUTfdZK7LkjBeLcbD7S9lqYw2pISeDm__q7EQtxmNGNap2RBJKpIGCuApT6vEMDCrZDLjceXaRNDnAPD_Wy3yBKnTE2gfkFQvWpOGMvZuQWmmXpE-80wWMQYaaFS1qOByexDwHPdM627bSqScWnfFyVTzu4-bhp4mX9LWlt5m00?></g></svg>