<svg xmlns="http://www.w3.org/2000/svg" xmlns:xlink="http://www.w3.org/1999/xlink" contentStyleType="text/css" height="716px" preserveAspectRatio="none" style="width:640px;height:716px;background:#FFFFFF;" version="1.1" viewBox="0 0 640 716" width="640px" zoomAndPan="magnify"><title>Portail client &#8212; cas d'utilisation</title><defs/><g><text fill="#000000" font-family="sans-serif" font-size="14" font-weight="bold" lengthAdjust="spacing" textLength="211.4766" x="207.2617" y="24.5332">Portail client &#8212; cas d'utilisation</text><!--cluster ACC--><g id="cluster_ACC"><rect fill="none" height="176" rx="2.5" ry="2.5" style="stroke:#181818;stroke-width:1;" width="200" x="159" y="45.6094"/><text fill="#000000" font-family="sans-serif" font-size="12" font-weight="bold" lengthAdjust="spacing" textLength="124.0254" x="196.9873" y="60.0664">Acc&#232;s commun /login</text></g><!--cluster PORT--><g id="cluster_PORT"><rect fill="none" height="314" rx="2.5" ry="2.5" style="stroke:#181818;stroke-width:1;" width="509" x="125" y="261.6094"/><text fill="#000000" font-family="sans-serif" font-size="12" font-weight="bold" lengthAdjust="spacing" textLength="129.3809" x="314.8096" y="276.0664">Espace client /portal/**</text></g><g id="elem_UC_LOGIN"><ellipse cx="259.1814" cy="112.4552" fill="#F1F1F1" rx="76.1814" ry="24.3458" style="stroke:#181818;stroke-width:0.5;"/><text fill="#000000" font-family="sans-serif" font-size="12" lengthAdjust="spacing" textLength="69.668" x="224.3474" y="107.8184">S'authentifier</text><text fill="#000000" font-family="sans-serif" font-size="12" lengthAdjust="spacing" textLength="91.4941" x="213.4343" y="122.9122">(CIN ou n&#176; client)</text></g><g id="elem_UC_LOGOUT"><ellipse cx="259.0794" cy="174.8253" fill="#F1F1F1" rx="64.0794" ry="15.2159" style="stroke:#181818;stroke-width:0.5;"/><text fill="#000000" font-family="sans-serif" font-size="12" lengthAdjust="spacing" textLength="84.0586" x="217.0501" y="177.7354">Se d&#233;connecter</text></g><g id="elem_UC_DASH"><ellipse cx="259.2062" cy="324.5506" fill="#F1F1F1" rx="92.7062" ry="20.9412" style="stroke:#181818;stroke-width:0.5;"/><text fill="#000000" font-family="sans-serif" font-size="12" lengthAdjust="spacing" textLength="150.7676" x="183.8224" y="327.4608">Consulter le tableau de bord</text></g><g id="elem_UC_ACCOUNTS"><ellipse cx="529.9174" cy="357.4929" fill="#F1F1F1" rx="79.9174" ry="18.3835" style="stroke:#181818;stroke-width:0.5;"/><text fill="#000000" font-family="sans-serif" font-size="12" lengthAdjust="spacing" textLength="122.0508" x="468.892" y="360.403">Consulter ses comptes</text></g><g id="elem_UC_HISTORY"><ellipse cx="258.9434" cy="385.5981" fill="#F1F1F1" rx="75.4434" ry="17.4887" style="stroke:#181818;stroke-width:0.5;"/><text fill="#000000" font-family="sans-serif" font-size="12" lengthAdjust="spacing" textLength="111.6797" x="203.1036" y="388.5082">Consulter l'historique</text></g><g id="elem_UC_RECEIPT"><ellipse cx="529.9602" cy="454.4552" fill="#F1F1F1" rx="78.4602" ry="24.3458" style="stroke:#181818;stroke-width:0.5;"/><text fill="#000000" font-family="sans-serif" font-size="12" lengthAdjust="spacing" textLength="94.7168" x="482.6018" y="449.8184">Consulter un re&#231;u</text><text fill="#000000" font-family="sans-serif" font-size="12" lengthAdjust="spacing" textLength="84.6738" x="487.6233" y="464.9122">(HTML ou PDF)</text></g><g id="elem_UC_CHQ"><ellipse cx="258.9018" cy="448.6897" fill="#F1F1F1" rx="103.4018" ry="23.0804" style="stroke:#181818;stroke-width:0.5;"/><text fill="#000000" font-family="sans-serif" font-size="12" lengthAdjust="spacing" textLength="174.082" x="171.8607" y="451.5999">Suivre ses commandes ch&#233;quier</text></g><g id="elem_UC_NOTIF"><ellipse cx="259.1327" cy="518.5359" fill="#F1F1F1" rx="110.1327" ry="24.4265" style="stroke:#181818;stroke-width:0.5;"/><text fill="#000000" font-family="sans-serif" font-size="12" lengthAdjust="spacing" textLength="140.0684" x="188.5118" y="514.0174">Consulter ses notifications</text><text fill="#000000" font-family="sans-serif" font-size="12" lengthAdjust="spacing" textLength="83.373" x="216.8595" y="529.1112">(cloche en-t&#234;te)</text></g><!--entity client--><g id="elem_client"><ellipse cx="46.0225" cy="397.6094" fill="#F1F1F1" rx="8" ry="8" style="stroke:#181818;stroke-width:0.5;"/><path d="M46.0225,405.6094 L46.0225,432.6094 M33.0225,413.6094 L59.0225,413.6094 M46.0225,432.6094 L33.0225,447.6094 M46.0225,432.6094 L59.0225,447.6094 " fill="none" style="stroke:#181818;stroke-width:0.5;"/><text fill="#000000" font-family="sans-serif" font-size="12" lengthAdjust="spacing" textLength="80.0449" x="6" y="461.5664">Client bancaire</text></g><!--link ACC to PORT--><!--link client to UC_LOGIN--><g id="link_client_UC_LOGIN"><path d="M50.46,388.9494 C57.47,321.0794 75.6,182.1694 109,148.6094 C128.43,129.0894 150.5955,120.4785 177.1455,115.9485 " fill="none" id="client-to-UC_LOGIN" style="stroke:#181818;stroke-width:1;"/><polygon fill="#181818" points="183.06,114.9394,173.5154,112.5101,178.1312,115.7803,174.861,120.3961,183.06,114.9394" style="stroke:#181818;stroke-width:1;"/></g><!--link client to UC_LOGOUT--><g id="link_client_UC_LOGOUT"><path d="M51.94,388.6694 C60.46,329.4294 79.86,219.1094 109,193.6094 C134.12,171.6294 165.3718,166.7341 196.3418,167.4841 " fill="none" id="client-to-UC_LOGOUT" style="stroke:#181818;stroke-width:1;"/><polygon fill="#181818" points="202.34,167.6294,193.4395,163.4127,197.3415,167.5083,193.2458,171.4103,202.34,167.6294" style="stroke:#181818;stroke-width:1;"/></g><!--link client to UC_DASH--><g id="link_client_UC_DASH"><path d="M72.7,389.0694 C82.71,377.0194 95.12,364.7194 109,356.6094 C128.65,345.1294 146.0419,339.0106 168.2719,334.2706 " fill="none" id="client-to-UC_DASH" style="stroke:#181818;stroke-width:1;"/><polygon fill="#181818" points="174.14,333.0194,164.5037,330.9842,169.2499,334.0621,166.172,338.8083,174.14,333.0194" style="stroke:#181818;stroke-width:1;"/></g><!--link client to UC_ACCOUNTS--><g id="link_client_UC_ACCOUNTS"><path d="M50.5,464.4494 C56.12,501.0994 70.79,554.7994 109,580.6094 C206.97,646.7794 275.38,644.2694 375,580.6094 C441.86,537.8894 400.52,480.6294 450,418.6094 C463.94,401.1394 478.9015,389.1232 495.2715,378.1832 " fill="none" id="client-to-UC_ACCOUNTS" style="stroke:#181818;stroke-width:1;"/><polygon fill="#181818" points="500.26,374.8494,490.5546,376.5244,496.1029,377.6276,494.9997,383.1758,500.26,374.8494" style="stroke:#181818;stroke-width:1;"/></g><!--link client to UC_HISTORY--><g id="link_client_UC_HISTORY"><path d="M86.06,418.4294 C90.75,417.4694 95.48,416.5094 100,415.6094 C132.86,409.0794 163.7329,403.1856 193.5329,397.5956 " fill="none" id="client-to-UC_HISTORY" style="stroke:#181818;stroke-width:1;"/><polygon fill="#181818" points="199.43,396.4894,189.8468,394.2173,194.5157,397.4112,191.3218,402.0801,199.43,396.4894" style="stroke:#181818;stroke-width:1;"/></g><!--link client to UC_RECEIPT--><g id="link_client_UC_RECEIPT"><path d="M52.01,464.4594 C59.55,514.9094 75.58,600.0194 100,618.6094 C218.82,709.0694 306.96,693.7794 436,618.6094 C488.04,588.2994 511.7712,522.636 521.8712,484.836 " fill="none" id="client-to-UC_RECEIPT" style="stroke:#181818;stroke-width:1;"/><polygon fill="#181818" points="523.42,479.0394,517.2323,486.7018,522.1293,483.8699,524.9612,488.7669,523.42,479.0394" style="stroke:#181818;stroke-width:1;"/></g><!--link client to UC_CHQ--><g id="link_client_UC_CHQ"><path d="M86.19,430.6994 C108.36,433.0094 131.1322,435.3888 158.7322,438.2588 " fill="none" id="client-to-UC_CHQ" style="stroke:#181818;stroke-width:1;"/><polygon fill="#181818" points="164.7,438.8794,156.162,433.97,159.7268,438.3622,155.3346,441.9271,164.7,438.8794" style="stroke:#181818;stroke-width:1;"/></g><!--link client to UC_NOTIF--><g id="link_client_UC_NOTIF"><path d="M82.73,464.2594 C90.82,471.1694 99.77,477.7394 109,482.6094 C127.24,492.2394 142.2807,497.8389 162.4907,503.0589 " fill="none" id="client-to-UC_NOTIF" style="stroke:#181818;stroke-width:1;"/><polygon fill="#181818" points="168.3,504.5594,160.5863,498.4357,163.4589,503.309,158.5857,506.1815,168.3,504.5594" style="stroke:#181818;stroke-width:1;"/></g><!--link UC_DASH to UC_ACCOUNTS--><g id="link_UC_DASH_UC_ACCOUNTS"><path d="M340.71,334.5094 C378.31,339.1294 416.6847,343.8287 452.8747,348.2687 " fill="none" id="UC_DASH-to-UC_ACCOUNTS" style="stroke:#181818;stroke-width:1;stroke-dasharray:7.0,7.0;"/><polygon fill="#181818" points="458.83,348.9994,450.3841,343.9332,453.8672,348.3905,449.4099,351.8737,458.83,348.9994" style="stroke:#181818;stroke-width:1;"/><text fill="#000000" font-family="sans-serif" font-size="12" lengthAdjust="spacing" textLength="51.375" x="384" y="337.0664">&#171;include&#187;</text></g><!--link UC_HISTORY to UC_RECEIPT--><g id="link_UC_HISTORY_UC_RECEIPT"><path d="M310.97,398.3794 C330.95,403.4094 354.06,409.2494 375,414.6094 C406.04,422.5594 434.7642,429.9953 463.2542,437.4253 " fill="none" id="UC_HISTORY-to-UC_RECEIPT" style="stroke:#181818;stroke-width:1;stroke-dasharray:7.0,7.0;"/><polygon fill="#181818" points="469.06,438.9394,461.3607,432.7977,464.2218,437.6776,459.3419,440.5387,469.06,438.9394" style="stroke:#181818;stroke-width:1;"/><text fill="#000000" font-family="sans-serif" font-size="12" lengthAdjust="spacing" textLength="49.377" x="385" y="414.0664">&#171;extend&#187;</text></g><!--SRC=[TPFDZX9158NtzHGtRD19628hOoOaf0U4PAIHRXP6ZIcgBdI5eegf7tzZuaFu3ZgkV0Pv4v_4weA6xZYp8wVFwNFlTnk9AmTEWn7hmW4N1faJMX6x4Mf73Ts2BIZN7uHQmufAYxKdEyesT8sP-oGHoY1LQratACtHuWvwlPfegDf4yMbDvBYYNhgHLYuJdn6Uz0XnmeNtphHnL4XWKg1oyFVRTs3K0czx9wImD4vBA7FQG2ivc9PKCHfMQK5m7eA4d0Q4re2n_S_mH6-tNa5NwhLGqJj84lX20Bp5K1ASMPjwLuIyM0aqRzIZP385xK7z-NryyUCON2JlRjBdasaZYy3tTqmh5PhHr7pf8YTV6nCDRO29rPBTNRcqx5vSnD0idUVDiHAjRC251aBOqQL4wWD3M6h3gvxhGJQ-FsCnxhvpQ2jpM3nTJFFiWP9s8Mm0B6uzLedn9ClJ-Qlx0u6gmVqF7u2DynSt9R7PzUY4QZvCXfDPte3bnNk3rMXRgdZvgzZVtNfnPfUCNpwyajBbbLZy8cnePbAp0W5Ln-r_EJorJzDyCYhvbzVkl2u4vwZUnZz09x8cv7Y7JgT_lkn_Mdd5fXYHDwKJsAPSqMkg5PUcMYxTL0uRa6CZN5usgk0PN5q9nQJdsE-JSrjbFDP47tvqg7Ym_GC0]--></g></svg>